<svg xmlns="http://www.w3.org/2000/svg" width="300" height="150" viewBox="0 0 300 150" version="1.1">
	<path d="M 75.124 28.578 C 68.681 30.310, 57.819 35.877, 52.790 40.022 C 48.996 43.149, 41 54.310, 41 56.478 C 41 57.166, 42.988 58.487, 45.417 59.415 C 51.396 61.699, 58.010 67.728, 60.914 73.542 L 63.309 78.338 66.041 75.280 C 67.544 73.598, 69.721 69.688, 70.880 66.590 C 74.499 56.920, 77.662 51.566, 82.266 47.322 C 89.780 40.396, 90.457 40.276, 94.085 45.227 C 95.806 47.577, 97.694 50.523, 98.279 51.774 C 98.864 53.025, 100.415 54.317, 101.725 54.646 C 107.958 56.210, 120.960 52.030, 125.500 47.001 L 127.500 44.786 122.220 39.930 C 116.561 34.725, 107.222 29.750, 99.972 28.079 C 93.668 26.627, 81.468 26.871, 75.124 28.578 M 154 78 C 154 106, 154.349 121, 155 121 C 155.651 121, 156 106, 156 78 C 156 50, 155.651 35, 155 35 C 154.349 35, 154 50, 154 78 M 124.654 50.503 C 119.718 54.834, 113.274 57, 105.322 57 C 98.578 57, 98.080 57.475, 99.889 62.185 C 100.378 63.458, 103.138 67.425, 106.023 71 C 112.110 78.544, 116.650 87.485, 117.596 93.792 C 118.430 99.354, 117.574 99.965, 108.905 99.985 C 101.439 100.002, 100.390 100.715, 97.077 108.018 C 94.901 112.815, 94.101 127.326, 95.949 128.469 C 97.179 129.228, 108.481 125.436, 113 122.748 C 130.935 112.077, 140.642 91.569, 137.940 70.053 C 137.121 63.523, 132.995 52.670, 129.868 48.814 C 128.611 47.265, 128.187 47.403, 124.654 50.503 M 171.667 56.667 C 171.300 57.033, 171 60.633, 171 64.667 C 171 70.519, 171.303 72, 172.500 72 C 173.493 72, 174 71.007, 174 69.063 C 174 66.485, 174.394 66.088, 177.232 65.813 C 181.531 65.397, 183.336 61.133, 180.527 58.030 C 178.749 56.066, 173.132 55.201, 171.667 56.667 M 187.139 63.630 C 184.027 71.271, 183.823 74.575, 186.731 70.250 C 188.512 67.602, 195 66.967, 195 69.441 C 195 70.902, 196.787 72.546, 197.548 71.785 C 198.224 71.110, 192.379 56.626, 191.282 56.261 C 190.729 56.076, 188.865 59.393, 187.139 63.630 M 205.229 56.669 C 203.008 57.563, 200.790 63.025, 201.497 65.858 C 202.558 70.113, 204.911 72, 209.155 72 C 211.270 72, 213 71.550, 213 71 C 213 70.450, 211.682 70, 210.071 70 C 206.361 70, 204 67.667, 204 64 C 204 60.315, 206.365 58, 210.130 58 C 211.868 58, 212.859 57.581, 212.500 57 C 211.862 55.968, 207.470 55.768, 205.229 56.669 M 217 57.033 C 217 57.602, 218.147 60.329, 219.548 63.095 C 221.063 66.085, 221.847 68.908, 221.481 70.061 C 221.142 71.128, 221.285 72, 221.798 72 C 223.119 72, 229.454 57.109, 228.508 56.228 C 228.078 55.828, 227.550 55.950, 227.335 56.500 C 227.120 57.050, 226.109 59.300, 225.088 61.500 L 223.232 65.500 221.069 60.750 C 219.091 56.406, 217 54.496, 217 57.033 M 174 61 C 174 63.498, 174.401 64, 176.393 64 C 179.354 64, 180.434 61.577, 178.386 59.529 C 175.884 57.026, 174 57.658, 174 61 M 38.523 61.250 C 32.770 78.617, 37.122 98.221, 49.814 112.105 C 55.442 118.262, 67.228 125.444, 75.178 127.560 C 78.105 128.339, 83.325 128.982, 86.778 128.988 L 93.056 129 92.395 122.554 C 91.631 115.092, 93.578 107.614, 97.705 102.165 C 101.201 97.550, 99.766 96.389, 91.195 96.897 C 73.266 97.959, 62.498 97.533, 58.196 95.591 C 53.343 93.400, 53.340 92.861, 58.130 84.213 C 60.993 79.045, 61.022 78.848, 59.418 75.469 C 57.103 70.589, 50.574 64.164, 45.668 61.936 C 40.758 59.707, 39.087 59.547, 38.523 61.250 M 189.630 62.250 C 188.715 65.665, 188.838 66, 191 66 C 192.100 66, 192.994 65.662, 192.986 65.250 C 192.952 63.338, 191.689 60, 191 60 C 190.578 60, 189.962 61.013, 189.630 62.250 M 83.259 68.475 C 79.096 70.300, 76.496 75.500, 77.383 80.229 C 79.404 91.001, 94.906 91.722, 98.061 81.192 C 100.730 72.281, 91.894 64.690, 83.259 68.475 M 185 90 C 180.913 94.087, 183.556 101, 189.206 101 C 194.438 101, 196.391 93.354, 192.056 89.844 C 189.137 87.481, 187.483 87.517, 185 90 M 201.228 89.230 C 195.958 91.770, 197.823 100.233, 203.781 100.813 C 205.552 100.986, 207 100.690, 207 100.157 C 207 99.624, 206.167 99.405, 205.149 99.671 C 201.322 100.672, 198.272 94.128, 201.200 91.200 C 201.860 90.540, 203.462 90, 204.759 90 C 206.077 90, 206.845 89.559, 206.500 89 C 205.729 87.752, 204.153 87.821, 201.228 89.230 M 222.373 89.206 C 222.103 89.643, 222.809 90, 223.941 90 C 225.770 90, 226 90.614, 226 95.500 C 226 98.525, 226.450 101, 227 101 C 227.550 101, 228 98.525, 228 95.500 C 228 90.526, 228.207 90, 230.167 90 C 231.358 90, 232.012 89.679, 231.620 89.287 C 230.632 88.299, 222.975 88.232, 222.373 89.206 M 236 90 C 231.913 94.087, 234.556 101, 240.206 101 C 245.438 101, 247.391 93.354, 243.056 89.844 C 240.137 87.481, 238.483 87.517, 236 90 M 250.801 88.561 C 249.591 90.623, 248.863 101, 249.928 101 C 250.518 101, 251 99.173, 251 96.941 C 251 92.147, 252.493 92.483, 253.432 97.489 C 254.323 102.240, 256.384 101.912, 258.079 96.750 L 259.475 92.500 259.795 96.750 C 259.971 99.088, 260.595 101, 261.181 101 C 262.545 101, 261.748 90.348, 260.275 88.875 C 259.536 88.136, 258.688 89.416, 257.440 93.160 L 255.660 98.500 254.297 95 C 251.637 88.167, 251.346 87.632, 250.801 88.561 M 171 95 C 171 98.333, 171.444 101, 172 101 C 172.550 101, 173 100.199, 173 99.219 C 173 98.159, 174.213 96.981, 175.998 96.307 C 181.797 94.118, 180.662 89, 174.378 89 L 171 89 171 95 M 214.643 89.769 C 213.065 92.323, 210.349 101, 211.127 101 C 211.642 101, 212.322 100.325, 212.638 99.500 C 212.966 98.645, 214.458 98, 216.107 98 C 218.012 98, 219 98.512, 219 99.500 C 219 100.325, 219.498 101, 220.107 101 C 220.766 101, 220.926 100.292, 220.501 99.250 C 220.109 98.287, 219.119 95.588, 218.300 93.250 C 216.885 89.208, 215.691 88.072, 214.643 89.769 M 173 92.500 C 173 94.665, 173.404 95.082, 175.250 94.820 C 176.727 94.610, 177.500 93.813, 177.500 92.500 C 177.500 91.187, 176.727 90.390, 175.250 90.180 C 173.404 89.918, 173 90.335, 173 92.500 M 186.200 91.200 C 185.540 91.860, 185 93.644, 185 95.165 C 185 100.217, 191.379 101.324, 192.594 96.483 C 193.775 91.775, 189.313 88.087, 186.200 91.200 M 237.200 91.200 C 236.540 91.860, 236 93.644, 236 95.165 C 236 100.217, 242.379 101.324, 243.594 96.483 C 244.775 91.775, 240.313 88.087, 237.200 91.200 M 215.015 91.668 C 215.007 92.311, 214.727 93.548, 214.393 94.418 C 213.995 95.456, 214.338 96, 215.393 96 C 216.277 96, 216.993 95.438, 216.985 94.750 C 216.965 93.129, 215.036 90.110, 215.015 91.668" stroke="none" fill="#ffffff" fill-rule="evenodd"/>
</svg>