<svg xmlns="http://www.w3.org/2000/svg" width="250" height="150" viewBox="0 0 250 150" version="1.1">
	<path d="M 69 46.980 L 69 53 90.550 53 L 112.100 53 111.800 47.250 L 111.500 41.500 90.250 41.230 L 69 40.960 69 46.980 M 124.071 44.250 C 124.133 47.129, 125.502 48.674, 136.058 57.777 C 142.612 63.429, 148.569 68.281, 149.294 68.559 C 150.020 68.838, 153.288 66.725, 156.557 63.863 L 162.500 58.660 162.777 73.330 L 163.053 88 169.545 88 L 176.037 88 175.768 64.750 L 175.500 41.500 170.471 41.205 C 165.560 40.918, 165.267 41.063, 157.971 47.432 C 153.862 51.019, 150.275 53.962, 150 53.973 C 149.725 53.983, 146.125 51.070, 142 47.500 C 134.826 41.290, 134.272 41.008, 129.250 41.004 L 124 41 124.071 44.250 M 188 44.230 C 188 47.036, 188.926 48.370, 193.933 52.778 C 197.196 55.650, 200.139 58, 200.473 58 C 200.808 58, 200.950 54.288, 200.790 49.750 L 200.500 41.500 194.250 41.202 L 188 40.905 188 44.230 M 53.750 56.746 L 48 62.558 48 85.779 L 48 109 69.281 109 L 90.563 109 96.500 103 L 102.437 97 81.237 97 L 60.037 97 59.768 73.967 L 59.500 50.935 53.750 56.746 M 124 70.955 L 124 88.095 130.250 87.798 L 136.500 87.500 136.785 76.618 C 137.104 64.442, 137.341 64.997, 128.750 57.796 L 124 53.814 124 70.955 M 188 70.963 L 188 88.095 194.250 87.798 L 200.500 87.500 200.781 76.400 L 201.063 65.299 194.531 59.565 L 188 53.831 188 70.963 M 69 64.500 L 69 70 90.500 70 L 112 70 112 64.500 L 112 59 90.500 59 L 69 59 69 64.500 M 69 82 L 69 88 90.500 88 L 112 88 112 82 L 112 76 90.500 76 L 69 76 69 82 M 113.050 97.759 C 110.237 100.036, 111.252 102.900, 115.147 103.679 C 119.624 104.575, 119.788 106.221, 115.362 105.840 C 110.619 105.431, 109.920 107.933, 114.439 109.142 C 118.528 110.236, 122.500 108.204, 122.500 105.019 C 122.500 103.015, 121.776 102.361, 118.560 101.459 C 114.375 100.285, 115.114 98.489, 119.345 99.550 C 122.414 100.321, 123.719 98.455, 121.094 97.050 C 118.236 95.521, 115.518 95.760, 113.050 97.759 M 127.224 102.500 C 124.273 108.484, 124.172 109, 125.950 109 C 127.013 109, 128.160 108.550, 128.500 108 C 129.342 106.637, 134.743 106.729, 135.205 108.114 C 135.409 108.727, 136.349 109.064, 137.294 108.864 C 138.822 108.540, 138.685 107.812, 136.048 102.250 C 134.418 98.813, 132.487 96, 131.757 96 C 131.027 96, 128.987 98.925, 127.224 102.500 M 141 102.500 C 141 107.611, 141.321 109, 142.500 109 C 143.552 109, 144 107.938, 144 105.443 C 144 101.982, 144.059 101.928, 146.194 103.423 C 148.176 104.812, 148.561 104.802, 150.194 103.325 C 151.904 101.777, 152 101.884, 152 105.345 C 152 108.333, 152.365 109, 154 109 C 155.776 109, 156 108.333, 156 103.059 C 156 99.791, 155.507 96.813, 154.905 96.441 C 154.303 96.069, 152.464 96.760, 150.819 97.976 L 147.828 100.187 145.600 98.094 C 141.855 94.576, 141 95.395, 141 102.500 M 163.241 97.250 C 162.689 97.938, 161.051 100.862, 159.602 103.750 C 157.101 108.732, 157.066 109, 158.924 109 C 160.001 109, 161.160 108.550, 161.500 108 C 161.840 107.450, 163.441 107, 165.059 107 C 166.677 107, 168 107.450, 168 108 C 168 108.550, 168.900 109, 170 109 C 172.551 109, 172.559 109.050, 168.986 101.971 C 165.888 95.835, 164.978 95.087, 163.241 97.250 M 174 102.500 C 174 107.611, 174.321 109, 175.500 109 C 176.333 109, 177 108.111, 177 107 C 177 105.900, 177.659 105, 178.465 105 C 179.270 105, 180.411 105.900, 181 107 C 181.589 108.100, 182.970 109, 184.070 109 C 185.741 109, 185.899 108.680, 185.031 107.057 C 184.290 105.673, 184.341 104.345, 185.209 102.440 C 186.294 100.060, 186.172 99.558, 184.103 97.883 C 182.717 96.760, 180.208 96, 177.889 96 L 174 96 174 102.500 M 190.048 101.904 C 186.438 109.056, 186.446 109, 189 109 C 190.100 109, 191 108.550, 191 108 C 191 106.607, 195.624 106.748, 197.968 108.212 C 199.036 108.879, 200.217 109.117, 200.593 108.740 C 201.482 107.851, 195.869 96.688, 194.298 96.222 C 193.637 96.026, 191.725 98.583, 190.048 101.904 M 177 101 C 177 101.550, 178.125 102, 179.500 102 C 180.875 102, 182 101.550, 182 101 C 182 100.450, 180.875 100, 179.500 100 C 178.125 100, 177 100.450, 177 101 M 131 103 C 131 103.550, 131.477 104, 132.059 104 C 132.641 104, 132.840 103.550, 132.500 103 C 132.160 102.450, 131.684 102, 131.441 102 C 131.198 102, 131 102.450, 131 103 M 164 103 C 164 103.550, 164.477 104, 165.059 104 C 165.641 104, 165.840 103.550, 165.500 103 C 165.160 102.450, 164.684 102, 164.441 102 C 164.198 102, 164 102.450, 164 103 M 193 103 C 193 103.550, 193.450 104, 194 104 C 194.550 104, 195 103.550, 195 103 C 195 102.450, 194.550 102, 194 102 C 193.450 102, 193 102.450, 193 103" stroke="none" fill="#ffffff" fill-rule="evenodd"/>
</svg>