<svg xmlns="http://www.w3.org/2000/svg" width="300" height="101" viewBox="0 0 300 101" version="1.1">
	<path d="M 44.902 28.598 C 43.581 29.330, 41.473 29.945, 40.217 29.965 C 38.961 29.984, 35.775 31.094, 33.136 32.431 L 28.339 34.862 22.732 32.033 C 19.647 30.478, 14.795 28.884, 11.949 28.493 C 7.552 27.888, 6.479 28.077, 4.808 29.748 C 2.852 31.703, 2.855 31.742, 5.329 36.607 C 6.698 39.298, 8.708 43.545, 9.796 46.045 C 11.687 50.389, 11.698 50.698, 10.031 53.045 C 9.073 54.395, 7.474 57.750, 6.479 60.500 C 5.484 63.250, 4.294 65.928, 3.835 66.450 C 3.376 66.973, 3 68.584, 3 70.031 C 3 73.254, 7.287 76.113, 9.220 74.180 C 9.869 73.531, 12.043 73, 14.051 73 C 16.059 73, 19.810 71.879, 22.387 70.509 L 27.071 68.019 31.029 70.638 C 36.148 74.026, 47.551 75.551, 50.250 73.209 C 52.365 71.373, 52.438 69.163, 50.468 66.559 C 49.661 65.491, 49.007 63.916, 49.016 63.059 C 49.024 62.201, 47.845 59.215, 46.394 56.422 L 43.758 51.344 46.205 47.422 C 49.432 42.250, 52.282 33.261, 51.581 30.467 C 50.878 27.666, 48.025 26.867, 44.902 28.598 M 13 32.686 C 13 33.613, 12.136 35.300, 11.081 36.436 C 9.338 38.310, 9.285 38.856, 10.506 42.375 C 12.334 47.644, 13.484 48.650, 15.708 46.925 C 17.431 45.588, 17.431 45.616, 15.709 47.642 C 13.971 49.686, 13.998 49.848, 16.638 53.124 C 21.598 59.280, 26.389 64, 27.677 64 C 29.416 64, 41.007 52.539, 40.973 50.854 C 40.946 49.494, 34.459 42.058, 30.243 38.553 C 28.007 36.695, 27.947 36.708, 23.993 39.886 C 21.797 41.650, 20.012 42.736, 20.028 42.297 C 20.043 41.859, 21.605 40.375, 23.500 39 C 25.395 37.625, 26.957 36.212, 26.972 35.860 C 27.020 34.761, 18.150 31, 15.511 31 C 13.823 31, 13 31.552, 13 32.686 M 35.376 33.086 C 29.390 34.822, 29.526 36.088, 36.433 42.934 L 42.799 49.243 44.899 44.494 C 46.055 41.883, 47 39.401, 47 38.979 C 47 37.570, 41.216 31.999, 39.849 32.090 C 39.107 32.140, 37.094 32.588, 35.376 33.086 M 62.206 44.250 C 62.434 49.875, 62.834 51.500, 63.990 51.500 C 64.864 51.500, 65.695 50.259, 66 48.500 C 66.373 46.346, 67.081 45.500, 68.510 45.500 C 70.032 45.500, 70.575 46.279, 70.818 48.810 C 71.055 51.282, 71.562 52.039, 72.818 51.800 C 74.176 51.541, 74.557 50.083, 74.794 44.239 C 75.063 37.599, 74.924 37, 73.113 37 C 71.827 37, 71.028 37.784, 70.820 39.250 C 70.614 40.696, 69.696 41.614, 68.250 41.820 C 66.418 42.080, 66 41.662, 66 39.570 C 66 37.648, 65.484 37, 63.956 37 C 62.059 37, 61.933 37.519, 62.206 44.250 M 76 38.500 C 76 39.325, 76.878 40, 77.950 40 C 79.623 40, 79.943 40.818, 80.200 45.750 C 80.425 50.061, 80.875 51.500, 82 51.500 C 83.125 51.500, 83.575 50.061, 83.800 45.750 C 84.057 40.818, 84.377 40, 86.050 40 C 87.122 40, 88 39.325, 88 38.500 C 88 37.333, 86.667 37, 82 37 C 77.333 37, 76 37.333, 76 38.500 M 89.415 38.362 C 89.127 39.111, 89.029 42.374, 89.196 45.612 L 89.500 51.500 94.490 51.517 C 98.419 51.531, 99.550 51.903, 99.813 53.267 C 100.135 54.940, 102.914 55.775, 103.083 54.250 C 103.129 53.837, 103.280 52.468, 103.419 51.208 C 103.558 49.947, 103.296 48.683, 102.836 48.399 C 102.376 48.114, 102 45.434, 102 42.441 C 102 37.667, 101.755 37, 100 37 C 98.242 37, 98 37.667, 98 42.500 C 98 47.333, 97.758 48, 96 48 C 94.242 48, 94 47.333, 94 42.500 C 94 37.638, 93.764 37, 91.969 37 C 90.851 37, 89.702 37.613, 89.415 38.362 M 111.205 44.196 C 111.435 49.891, 111.830 51.500, 113 51.500 C 113.825 51.500, 114.633 50.571, 114.795 49.434 C 114.985 48.111, 116.351 46.913, 118.601 46.100 C 121.843 44.927, 122.087 44.552, 121.805 41.165 L 121.500 37.500 116.205 37.196 L 110.910 36.892 111.205 44.196 M 131.168 43.750 C 129.960 47.462, 128.978 50.837, 128.986 51.250 C 129.016 52.829, 131.980 51.907, 133 50 C 133.589 48.900, 134.630 48, 135.313 48 C 135.996 48, 137.326 48.900, 138.268 50 C 141.682 53.988, 142.897 52.106, 140.914 45.899 C 138.413 38.068, 137.770 37, 135.561 37 C 133.733 37, 132.996 38.132, 131.168 43.750 M 156 44.513 L 156 52.131 160.645 51.621 C 163.200 51.340, 165.698 50.702, 166.196 50.204 C 167.114 49.286, 167.154 48.639, 166.735 41.500 L 166.500 37.500 161.250 37.198 L 156 36.895 156 44.513 M 115 42.083 C 115 44.520, 117.337 44.176, 117.823 41.667 C 118.015 40.680, 117.505 40, 116.573 40 C 115.646 40, 115 40.855, 115 42.083 M 160 41 C 160 41.550, 160.423 42, 160.941 42 C 161.459 42, 162.160 41.550, 162.500 41 C 162.840 40.450, 162.416 40, 161.559 40 C 160.702 40, 160 40.450, 160 41 M 170.035 41.934 C 167.679 46.336, 169.820 52.019, 173.821 51.986 C 177.177 51.959, 180 50.734, 180 49.304 C 180 48.235, 179.260 47.997, 177.250 48.419 C 175.738 48.736, 173.883 48.600, 173.130 48.115 C 172.182 47.505, 173.014 47.113, 175.823 46.845 C 179.265 46.517, 180.044 46.801, 180.910 48.701 C 182.599 52.409, 190 53.135, 190 49.593 C 190 48.611, 189.088 48.186, 187.250 48.312 C 184.933 48.470, 184.500 48.106, 184.500 46 C 184.500 43.930, 184.973 43.507, 187.250 43.539 C 189.273 43.568, 190 43.090, 190 41.729 C 190 38.873, 182.937 39.712, 181.432 42.747 L 180.318 44.994 179.181 42.497 C 177.711 39.272, 171.659 38.900, 170.035 41.934 M 192.571 41.571 C 190.407 43.736, 190.603 47.603, 193 50 C 195.137 52.137, 199.460 52.683, 200.530 50.951 C 200.972 50.237, 201.569 50.227, 202.407 50.923 C 204.447 52.616, 208 49.400, 208 45.860 C 208 41.169, 210.447 42.938, 210.811 47.891 C 211.270 54.156, 213.436 52.547, 213.800 45.671 L 214.100 40 209.550 40 C 205.257 40, 204.999 40.155, 204.985 42.750 C 204.976 44.263, 204.639 46.006, 204.235 46.624 C 203.123 48.326, 197.320 49.284, 195.288 48.101 C 193.820 47.247, 194.176 47.055, 197.281 47.030 C 201.515 46.996, 202.781 45.328, 201.042 42.078 C 199.693 39.557, 194.874 39.269, 192.571 41.571 M 217.750 41.080 C 215.524 42.377, 215.411 48.268, 217.571 50.429 C 221.154 54.011, 227 51.265, 227 46 C 227 40.974, 222.260 38.453, 217.750 41.080 M 229.200 45.750 C 229.479 51.096, 229.675 51.509, 232 51.628 C 233.375 51.698, 235.506 51.374, 236.736 50.908 C 238.583 50.208, 238.927 49.402, 238.711 46.280 C 238.344 40.973, 237.442 40, 232.891 40 L 228.900 40 229.200 45.750 M 241.655 41.829 C 238.049 45.814, 241.460 52.429, 246.802 51.811 C 250.638 51.366, 251.123 48.036, 247.313 48.303 C 244.927 48.470, 244.500 48.121, 244.500 46 C 244.500 43.894, 244.933 43.530, 247.250 43.688 C 249.369 43.833, 250 43.432, 250 41.938 C 250 39.314, 244.002 39.236, 241.655 41.829 M 251.406 41.386 C 250.475 43.810, 251.451 51.328, 252.751 51.756 C 253.439 51.982, 254.359 51.204, 254.794 50.027 L 255.586 47.886 257.448 49.943 C 259.152 51.825, 262 52.768, 262 51.450 C 262 51.148, 261.337 49.618, 260.526 48.051 C 259.228 45.540, 259.228 45.056, 260.526 43.978 C 262.294 42.511, 262.475 40, 260.814 40 C 260.162 40, 258.587 40.978, 257.314 42.174 L 255 44.349 255 42.174 C 255 39.751, 252.263 39.150, 251.406 41.386 M 264.278 41.250 C 259.644 47.238, 265.062 54.445, 271.577 50.959 C 273.458 49.952, 274 48.850, 274 46.031 C 274 44.034, 273.460 41.860, 272.800 41.200 C 271.224 39.624, 265.510 39.657, 264.278 41.250 M 276.198 45.611 C 276.574 52.748, 279 54.513, 279 47.650 C 279 43.466, 279.203 43.110, 281.750 42.816 C 286.037 42.323, 284.981 40.535, 280.198 40.190 L 275.897 39.880 276.198 45.611 M 286.035 41.934 C 282.353 48.814, 289.634 55.366, 295 50 C 297.403 47.597, 297.538 45.214, 295.443 42.223 C 293.396 39.300, 287.541 39.120, 286.035 41.934 M 21.982 45.750 C 19.442 48.979, 19.802 54.373, 22.704 56.575 C 25.280 58.528, 30.398 58.308, 33.089 56.129 C 36.300 53.529, 36.300 47.471, 33.089 44.871 C 29.585 42.033, 24.595 42.428, 21.982 45.750 M 135 44 C 135 44.550, 135.477 45, 136.059 45 C 136.641 45, 136.840 44.550, 136.500 44 C 136.160 43.450, 135.684 43, 135.441 43 C 135.198 43, 135 43.450, 135 44 M 173.813 43.683 C 174.534 43.972, 175.397 43.936, 175.729 43.604 C 176.061 43.272, 175.471 43.036, 174.417 43.079 C 173.252 43.127, 173.015 43.364, 173.813 43.683 M 195.813 43.683 C 196.534 43.972, 197.397 43.936, 197.729 43.604 C 198.061 43.272, 197.471 43.036, 196.417 43.079 C 195.252 43.127, 195.015 43.364, 195.813 43.683 M 219.638 44.500 C 218.964 46.258, 219.837 49, 221.072 49 C 222.294 49, 223.814 45.734, 223.282 44.250 C 222.662 42.521, 220.336 42.681, 219.638 44.500 M 232.813 43.683 C 233.534 43.972, 234.397 43.936, 234.729 43.604 C 235.061 43.272, 234.471 43.036, 233.417 43.079 C 232.252 43.127, 232.015 43.364, 232.813 43.683 M 266.638 44.500 C 265.868 46.507, 266.967 49.176, 268.373 48.715 C 270.143 48.135, 270.413 43, 268.673 43 C 267.871 43, 266.955 43.675, 266.638 44.500 M 289.184 45.673 C 289.644 49.566, 292 49.909, 292 46.083 C 292 43.951, 291.517 43, 290.434 43 C 289.323 43, 288.959 43.779, 289.184 45.673 M 160 46.427 C 160 47.354, 160.855 48, 162.083 48 C 164.520 48, 164.176 45.663, 161.667 45.177 C 160.680 44.985, 160 45.495, 160 46.427 M 124 49.500 C 124 51.482, 124.439 52.062, 125.750 51.810 C 126.713 51.624, 127.500 50.585, 127.500 49.500 C 127.500 48.415, 126.713 47.376, 125.750 47.190 C 124.439 46.938, 124 47.518, 124 49.500 M 144.639 47.694 C 143.403 48.930, 144.017 52, 145.500 52 C 146.325 52, 147 51.127, 147 50.059 C 147 47.972, 145.682 46.651, 144.639 47.694 M 232.500 48 C 232.840 48.550, 233.541 49, 234.059 49 C 234.577 49, 235 48.550, 235 48 C 235 47.450, 234.298 47, 233.441 47 C 232.584 47, 232.160 47.450, 232.500 48 M 10.580 54.237 C 9.129 56.452, 7 62.333, 7 64.127 C 7 64.479, 7.895 65.001, 8.988 65.287 C 10.081 65.573, 11.420 66.975, 11.963 68.403 C 13.165 71.564, 14.143 71.602, 20.359 68.726 L 25.218 66.478 20.988 61.989 C 18.661 59.520, 15.739 56.199, 14.494 54.610 L 12.230 51.720 10.580 54.237 M 36.250 59.469 C 32.813 63.024, 30 66.163, 30 66.446 C 30 66.728, 31.782 67.868, 33.960 68.980 C 38.081 71.082, 43.578 71.744, 42.505 70.008 C 42.168 69.463, 43.042 67.868, 44.446 66.463 C 45.851 65.058, 47 63.258, 47 62.461 C 47 60.724, 43.744 52.999, 43.014 53.003 C 42.731 53.005, 39.688 55.915, 36.250 59.469 M 185.667 57.667 C 184.603 58.730, 184.896 64, 186.019 64 C 186.606 64, 186.773 62.943, 186.412 61.507 C 185.912 59.512, 186.257 58.826, 188.143 58.071 C 190.335 57.193, 190.354 57.122, 188.417 57.063 C 187.271 57.029, 186.033 57.300, 185.667 57.667 M 217 57.941 C 217 58.459, 217.450 59.160, 218 59.500 C 218.550 59.840, 219.014 61.104, 219.032 62.309 C 219.063 64.451, 219.097 64.456, 220.532 62.559 C 222.416 60.068, 222.403 58.908, 220.500 59.638 C 219.550 60.003, 219 59.625, 219 58.607 C 219 57.723, 218.550 57, 218 57 C 217.450 57, 217 57.423, 217 57.941 M 262.425 59.443 C 261.760 62.094, 262.495 64, 264.181 64 C 264.896 64, 264.871 63.549, 264.105 62.627 C 262.551 60.755, 263.703 58.208, 266.335 57.695 C 268.101 57.350, 267.997 57.247, 265.769 57.136 C 263.651 57.031, 262.901 57.548, 262.425 59.443 M 74.493 59.011 C 74.179 59.519, 72.590 59.668, 70.961 59.342 C 68.023 58.755, 68.001 58.784, 68.168 63.125 C 68.336 67.485, 68.338 67.487, 68.728 63.750 C 68.996 61.191, 69.615 60, 70.677 60 C 71.679 60, 72.067 60.636, 71.766 61.786 C 71.453 62.984, 71.860 63.571, 73.003 63.571 C 73.940 63.571, 74.660 62.880, 74.603 62.036 C 74.544 61.154, 75.245 60.559, 76.250 60.639 C 77.213 60.715, 78 60.426, 78 59.996 C 78 58.781, 75.133 57.976, 74.493 59.011 M 117.250 58.718 C 116.563 58.965, 116.007 60.367, 116.015 61.833 C 116.027 63.935, 116.239 64.182, 117.015 63 C 117.633 62.059, 118.280 61.873, 118.750 62.500 C 119.628 63.671, 122.187 64.361, 124.750 64.118 C 126.445 63.958, 126.336 60.524, 124.590 59.075 C 123.472 58.147, 122.851 58.374, 121.590 60.175 C 120.350 61.945, 120 62.078, 120 60.782 C 120 58.836, 119.005 58.089, 117.250 58.718 M 203.001 59.498 C 202.272 60.378, 202.095 61.687, 202.564 62.737 C 203.259 64.293, 203.398 64.235, 203.745 62.250 C 203.962 61.013, 204.610 60, 205.186 60 C 205.762 60, 205.989 60.936, 205.690 62.079 C 205.293 63.597, 205.531 64.010, 206.573 63.610 C 207.425 63.283, 208 63.678, 208 64.590 C 208 65.431, 208.452 65.839, 209.004 65.498 C 209.556 65.157, 209.732 63.780, 209.395 62.439 C 208.924 60.560, 209.179 60, 210.508 60 C 211.741 60, 212.084 60.571, 211.710 62 C 211.423 63.100, 211.626 64, 212.163 64 C 212.700 64, 212.995 62.987, 212.820 61.750 C 212.570 59.996, 211.816 59.478, 209.397 59.400 C 207.691 59.345, 205.829 59.012, 205.261 58.661 C 204.692 58.310, 203.675 58.686, 203.001 59.498 M 292.605 59.586 C 292.271 60.458, 292.434 61.921, 292.968 62.836 C 293.741 64.160, 293.945 63.835, 293.970 61.250 C 294.003 57.691, 293.546 57.134, 292.605 59.586 M 62.136 61.750 C 62.253 64.108, 62.334 64.179, 62.706 62.250 C 63.243 59.463, 65 59.272, 65 62 C 65 63.100, 65.450 64, 66 64 C 66.550 64, 67 62.875, 67 61.500 C 67 59.500, 66.500 59, 64.500 59 C 62.406 59, 62.022 59.447, 62.136 61.750 M 82.070 59.750 C 82.109 60.163, 82.527 61.400, 83 62.500 C 83.762 64.272, 83.867 64.187, 83.930 61.750 C 83.968 60.237, 83.550 59, 83 59 C 82.450 59, 82.032 59.337, 82.070 59.750 M 86.262 59.633 C 87.231 59.918, 87.824 60.476, 87.578 60.873 C 87.333 61.271, 87.554 62.249, 88.069 63.048 C 88.761 64.121, 88.914 63.847, 88.654 62 C 88.433 60.426, 87.599 59.429, 86.401 59.307 C 84.778 59.143, 84.758 59.191, 86.262 59.633 M 90.015 61.750 C 90.027 63.906, 90.243 64.176, 91.015 63 C 91.633 62.059, 92.280 61.873, 92.750 62.500 C 93.162 63.050, 94.248 63.623, 95.163 63.774 C 96.387 63.975, 96.686 63.514, 96.296 62.024 C 95.915 60.567, 96.252 60, 97.500 60 C 98.741 60, 99.085 60.568, 98.710 62.001 C 98.422 63.102, 98.595 63.751, 99.093 63.442 C 100.577 62.525, 100.124 59.985, 98.355 59.306 C 97.348 58.920, 96.185 59.394, 95.355 60.529 C 94.147 62.182, 94 62.199, 94 60.691 C 94 59.667, 93.212 59, 92 59 C 90.481 59, 90.004 59.662, 90.015 61.750 M 101.697 59.750 C 101.466 60.163, 101.008 61.850, 100.680 63.500 C 100.100 66.416, 100.129 66.402, 101.737 63 C 103.332 59.625, 103.405 59.589, 103.780 62 C 104.209 64.756, 106 67.252, 106 65.093 C 106 64.261, 106.636 64.028, 107.750 64.452 C 109.153 64.986, 109.252 64.869, 108.250 63.859 C 106.222 61.816, 106.810 60, 109.500 60 C 111.333 60, 112 60.533, 112 62 C 112 63.100, 112.498 64, 113.107 64 C 113.730 64, 113.934 63.270, 113.573 62.330 C 113.221 61.411, 113.510 60.275, 114.216 59.805 C 114.999 59.284, 113.759 59.057, 111.040 59.225 C 107.243 59.459, 106.477 59.872, 105.890 62 L 105.199 64.500 105.100 61.750 C 105.007 59.193, 102.753 57.868, 101.697 59.750 M 130 61.667 C 130 63.133, 130.338 63.996, 130.750 63.583 C 131.162 63.171, 131.500 62.421, 131.500 61.917 C 131.500 61.413, 131.947 61.112, 132.493 61.250 C 133.039 61.388, 133.357 62.063, 133.199 62.750 C 133.041 63.438, 133.382 64, 133.956 64 C 134.530 64, 135.007 63.438, 135.015 62.750 C 135.026 61.917, 135.354 62, 136 63 C 136.784 64.213, 136.972 64.069, 136.985 62.250 C 136.994 60.923, 137.616 60, 138.500 60 C 140.321 60, 140.453 62.072, 138.757 64.050 C 138.074 64.847, 138.360 64.747, 139.394 63.828 C 140.475 62.866, 141.016 61.485, 140.668 60.578 C 139.948 58.702, 136.381 58.468, 135.662 60.250 C 135.259 61.250, 135.142 61.250, 135.079 60.250 C 135.036 59.563, 133.875 59, 132.500 59 C 130.458 59, 130 59.489, 130 61.667 M 142.136 61.750 C 142.253 64.108, 142.334 64.179, 142.706 62.250 C 143.243 59.463, 145 59.272, 145 62 C 145 63.296, 145.667 64, 146.893 64 C 149.281 64, 150.162 61.875, 148.441 60.267 C 147.393 59.288, 147.048 59.488, 146.703 61.273 L 146.272 63.500 146.136 61.250 C 146.043 59.712, 145.367 59, 144 59 C 142.452 59, 142.031 59.621, 142.136 61.750 M 150.070 59.750 C 150.109 60.163, 150.527 61.400, 151 62.500 C 151.762 64.272, 151.867 64.187, 151.930 61.750 C 151.968 60.237, 151.550 59, 151 59 C 150.450 59, 150.032 59.337, 150.070 59.750 M 153.015 61.750 C 153.024 63.263, 153.361 64.050, 153.765 63.500 C 154.752 62.157, 157 61.766, 157 62.938 C 157 63.454, 157.869 63.810, 158.931 63.730 C 159.993 63.650, 160.697 63.319, 160.497 62.995 C 160.296 62.670, 160.587 61.751, 161.142 60.952 C 161.914 59.843, 162.272 59.797, 162.662 60.756 C 162.942 61.447, 163.582 61.758, 164.085 61.447 C 164.588 61.136, 165 62.285, 165 64 C 165 65.824, 165.415 66.862, 166 66.500 C 166.550 66.160, 167 64.559, 167 62.941 C 167 61.323, 167.502 60, 168.117 60 C 168.731 60, 169.006 60.868, 168.729 61.929 C 168.355 63.360, 168.712 63.822, 170.112 63.717 C 171.205 63.634, 172 62.822, 172 61.787 C 172 60.804, 172.450 60, 173 60 C 173.550 60, 174.007 61.013, 174.015 62.250 C 174.027 63.901, 174.260 64.137, 174.894 63.137 C 175.623 61.986, 175.855 61.986, 176.379 63.137 C 176.860 64.192, 177.132 64.218, 177.583 63.250 C 177.904 62.563, 178.606 62, 179.142 62 C 179.679 62, 179.840 62.450, 179.500 63 C 179.160 63.550, 179.359 64, 179.941 64 C 180.523 64, 181 62.875, 181 61.500 C 181 59.523, 180.494 59, 178.583 59 C 177.254 59, 175.940 59.563, 175.662 60.250 C 175.259 61.250, 175.142 61.250, 175.079 60.250 C 174.981 58.698, 171 58.574, 171 60.122 C 171 60.895, 170.610 60.928, 169.750 60.230 C 168.081 58.875, 160 58.838, 160 60.185 C 160 60.912, 159.584 60.900, 158.676 60.146 C 157.710 59.344, 157.035 59.365, 156.176 60.224 C 155.275 61.125, 155 61.120, 155 60.200 C 155 59.540, 154.550 59, 154 59 C 153.450 59, 153.007 60.237, 153.015 61.750 M 191.015 61.250 C 191 64.066, 192.433 64.992, 193.338 62.750 C 193.741 61.750, 193.858 61.750, 193.921 62.750 C 194.072 65.142, 196 63.983, 196 61.500 C 196 58.884, 194.532 58.100, 193.659 60.250 C 193.278 61.191, 192.890 61.129, 192.091 60 C 191.237 58.791, 191.028 59.034, 191.015 61.250 M 197.374 60.467 C 197.065 61.274, 197.026 62.511, 197.289 63.217 C 197.605 64.066, 198.036 63.823, 198.561 62.500 C 198.997 61.400, 199.837 60.169, 200.427 59.765 C 201.070 59.325, 200.787 59.024, 199.719 59.015 C 198.739 59.007, 197.684 59.660, 197.374 60.467 M 224.136 61.750 C 224.253 64.108, 224.334 64.179, 224.706 62.250 C 224.944 61.013, 225.527 60, 226 60 C 226.473 60, 227.056 61.013, 227.294 62.250 C 227.666 64.179, 227.747 64.108, 227.864 61.750 C 227.969 59.621, 227.548 59, 226 59 C 224.452 59, 224.031 59.621, 224.136 61.750 M 229 61.441 C 229 62.848, 229.450 64, 230 64 C 230.550 64, 231 63.127, 231 62.059 C 231 60.991, 230.550 59.840, 230 59.500 C 229.433 59.149, 229 59.990, 229 61.441 M 234.755 61.500 C 235.018 62.875, 235.578 64, 236 64 C 236.422 64, 236.982 62.875, 237.245 61.500 C 237.605 59.616, 237.298 59, 236 59 C 234.702 59, 234.395 59.616, 234.755 61.500 M 239 62.559 C 239 64.785, 239.392 65.876, 240.048 65.470 C 240.624 65.114, 240.962 63.892, 240.798 62.754 C 240.634 61.617, 241.131 60.471, 241.902 60.209 C 242.901 59.869, 243.149 60.323, 242.765 61.791 C 242.396 63.204, 242.630 63.695, 243.512 63.357 C 244.219 63.086, 245.083 63.325, 245.431 63.888 C 246.516 65.643, 249 63.907, 249 61.393 C 249 59.557, 248.476 59.016, 246.750 59.070 C 244.670 59.135, 244.647 59.198, 246.446 59.902 C 248.321 60.636, 248.314 60.685, 246.261 61.221 C 244.943 61.566, 243.926 61.248, 243.596 60.389 C 243.303 59.625, 242.149 59, 241.031 59 C 239.370 59, 239 59.648, 239 62.559 M 253 61.500 C 253 63.130, 253.560 64, 254.607 64 C 255.662 64, 256.005 63.456, 255.607 62.418 C 255.273 61.548, 255 60.423, 255 59.918 C 255 59.413, 254.550 59, 254 59 C 253.450 59, 253 60.125, 253 61.500 M 256.070 59.750 C 256.109 60.163, 256.527 61.400, 257 62.500 C 257.762 64.272, 257.867 64.187, 257.930 61.750 C 257.968 60.237, 257.550 59, 257 59 C 256.450 59, 256.032 59.337, 256.070 59.750 M 269 60.917 C 269 61.971, 268.438 63.060, 267.750 63.338 C 267.003 63.639, 267.205 63.874, 268.250 63.921 C 269.360 63.971, 270 63.268, 270 62 C 270 60.900, 270.450 60, 271 60 C 271.550 60, 272 60.990, 272 62.200 C 272 63.713, 272.322 64.078, 273.033 63.367 C 274.523 61.877, 273.114 59, 270.893 59 C 269.694 59, 269 59.703, 269 60.917 M 274.721 62.250 C 274.442 64.037, 274.616 65.927, 275.107 66.450 C 275.641 67.018, 276 65.913, 276 63.700 C 276 59.656, 277.600 58.645, 278.294 62.250 C 278.666 64.179, 278.747 64.108, 278.864 61.750 C 278.967 59.674, 278.538 59, 277.113 59 C 275.756 59, 275.085 59.911, 274.721 62.250 M 280.418 60.332 C 280.738 61.339, 281.044 63.364, 281.097 64.832 C 281.187 67.308, 281.305 67.230, 282.733 63.750 C 283.579 61.688, 284.933 60, 285.743 60 C 286.625 60, 286.989 60.587, 286.651 61.468 C 286.341 62.275, 286.466 63.170, 286.929 63.456 C 287.392 63.743, 287.985 62.857, 288.247 61.488 C 288.664 59.306, 288.371 59, 285.861 59 C 283.841 59, 283 59.497, 283 60.691 C 283 62.174, 282.805 62.143, 281.418 60.441 C 279.971 58.665, 279.886 58.656, 280.418 60.332 M 79 62.031 C 79 64.307, 80.529 64.669, 81.330 62.583 C 81.629 61.803, 81.227 60.917, 80.437 60.614 C 79.488 60.250, 79 60.731, 79 62.031 M 122.177 61.553 C 122.629 63.725, 124.404 63.858, 124.810 61.750 C 125.020 60.655, 124.530 60, 123.500 60 C 122.539 60, 121.988 60.647, 122.177 61.553 M 177.813 60.683 C 178.534 60.972, 179.397 60.936, 179.729 60.604 C 180.061 60.272, 179.471 60.036, 178.417 60.079 C 177.252 60.127, 177.015 60.364, 177.813 60.683 M 232 62.441 C 232 63.298, 232.450 64, 233 64 C 233.550 64, 234 63.577, 234 63.059 C 234 62.541, 233.550 61.840, 233 61.500 C 232.450 61.160, 232 61.584, 232 62.441 M 246 63.059 C 246 63.641, 246.450 63.840, 247 63.500 C 247.550 63.160, 248 62.684, 248 62.441 C 248 62.198, 247.550 62, 247 62 C 246.450 62, 246 62.477, 246 63.059" stroke="none" fill="#ffffff" fill-rule="evenodd"/>
</svg>