<svg xmlns="http://www.w3.org/2000/svg" width="800" height="147" viewBox="0 0 800 147" version="1.1">
	<path d="M 63.253 10.736 C 60.474 16.656, 46.619 45.800, 32.464 75.500 C 18.310 105.200, 5.221 132.773, 3.379 136.773 L 0.030 144.045 18.083 143.773 L 36.137 143.500 40.264 134.250 L 44.392 125 68.229 125 L 92.066 125 96.475 134.500 L 100.884 144 118.442 144 C 128.099 144, 136 143.717, 136 143.372 C 136 142.838, 69.123 0.984, 68.519 0.236 C 68.402 0.091, 66.032 4.816, 63.253 10.736 M 204.254 9.750 C 199.127 20.785, 143.407 137.313, 141.421 141.153 L 139.949 144 158.755 144 L 177.562 144 178.710 140.958 C 183.145 129.207, 208.455 71.163, 208.997 71.498 C 209.369 71.728, 216.606 88.135, 225.079 107.958 L 240.485 144 258.742 144 C 268.784 144, 277 143.771, 277 143.492 C 277 143.036, 263.110 113.683, 222.703 28.750 C 215.442 13.487, 209.235 1, 208.910 1 C 208.586 1, 206.490 4.938, 204.254 9.750 M 440.500 3.977 C 400.264 8.693, 371.493 47, 378.383 86.684 C 379.260 91.735, 380.913 98.260, 382.058 101.184 C 390.127 121.796, 409.177 138.740, 431 144.716 C 440.026 147.188, 458.152 147.106, 467 144.553 C 490.635 137.735, 508.695 120.817, 516.529 98.157 C 520.019 88.061, 520.949 71.098, 518.620 60 C 513.742 36.756, 494.453 14.977, 472.170 7.557 C 465.902 5.469, 449.279 2.555, 447 3.144 C 446.725 3.215, 443.800 3.590, 440.500 3.977 M 286.996 60.750 C 286.994 90.862, 286.699 121.913, 286.341 129.750 L 285.689 144 302.836 144 L 319.983 144 320.241 90.250 L 320.500 36.500 346.005 36.234 L 371.511 35.967 379.255 21.605 C 383.515 13.706, 387 6.963, 387 6.621 C 387 6.280, 364.500 6, 337 6 L 287 6 286.996 60.750 M 539 75 L 539 144 555.500 144 L 572 144 572 117 L 572 90 601 90 L 630 90 630 117 L 630 144 647 144 L 664 144 664 75 L 664 6 647 6 L 630 6 630 32.500 L 630 59 601 59 L 572 59 572 32.500 L 572 6 555.500 6 L 539 6 539 75 M 683 21 L 683 36 701.163 36 L 719.327 36 718.656 90 L 717.986 144 734.993 144 L 752 144 752 90 L 752 36 767.777 36 L 783.554 36 791.672 21 L 799.790 6 741.395 6 L 683 6 683 21 M 435.224 35.925 C 427.759 38.676, 423.750 41.372, 418.589 47.112 C 403.462 63.937, 403.672 87.199, 419.097 103.509 C 439.482 125.063, 473.461 119.358, 486.315 92.223 C 489.266 85.994, 489.500 84.728, 489.500 75 C 489.500 65.159, 489.294 64.078, 486.212 57.778 C 481.845 48.850, 474.780 41.738, 466.275 37.709 C 460.346 34.901, 458.314 34.468, 450 34.241 C 442.589 34.038, 439.340 34.409, 435.224 35.925 M 63.893 79.592 C 61.625 84.491, 58.721 90.862, 57.440 93.750 L 55.110 99 68.055 99 C 75.175 99, 81 98.801, 81 98.558 C 81 97.904, 69.035 71.702, 68.486 71.153 C 68.228 70.895, 66.161 74.692, 63.893 79.592" stroke="none" fill="#ffffff" fill-rule="evenodd"/>
</svg>