<svg xmlns="http://www.w3.org/2000/svg" width="500" height="400" viewBox="0 0 500 400" version="1.1">
	<path d="M 54 20.010 C 44.359 21.012, 35.315 27.157, 30.974 35.657 L 28.500 40.500 27.998 108 C 27.721 145.125, 27.496 216.450, 27.498 266.500 C 27.500 357.338, 27.504 357.508, 29.637 362.122 C 32.568 368.461, 38.385 374.634, 44.437 377.828 L 49.500 380.500 252.500 380.500 L 455.500 380.500 460.500 377.836 C 466.493 374.644, 471.934 369.131, 475.144 363 L 477.500 358.500 477.500 200.500 L 477.500 42.500 474.720 36.839 C 471.558 30.401, 465.662 24.603, 459.622 21.994 C 455.725 20.310, 444.679 20.192, 257.500 19.826 C 148.600 19.613, 57.025 19.696, 54 20.010 M 51.685 31.012 C 47.140 32.384, 42.360 36.625, 40.102 41.289 L 38 45.631 38 199.848 C 38 336.780, 38.173 354.479, 39.548 357.768 C 41.612 362.710, 44.659 365.876, 49.500 368.110 C 53.346 369.885, 61.171 369.957, 252.685 369.978 C 391.037 369.993, 452.730 369.675, 454.685 368.936 C 458.462 367.509, 462.764 363.315, 465.092 358.790 C 466.945 355.186, 467 350.639, 467 200.197 L 467 45.315 464.673 40.907 C 463.394 38.483, 460.430 35.150, 458.087 33.500 L 453.828 30.500 254.164 30.331 C 144.349 30.238, 53.233 30.544, 51.685 31.012 M 75 184 L 75 308 93.250 307.984 C 110.285 307.968, 111.760 307.818, 115.412 305.734 C 123.186 301.294, 122.959 303.135, 123.154 242.948 C 123.338 186.313, 123.423 187.450, 118.625 182.155 C 114.765 177.896, 111.712 177, 101.050 177 L 91 177 91 118.500 L 91 60 83 60 L 75 60 75 184 M 407.804 62.758 C 403.295 64.883, 400.581 68.244, 399.117 73.516 C 398.392 76.129, 398.009 91.697, 398.006 118.750 L 398 160 394 160 C 390.222 160, 390 160.167, 390 163 C 390 165.833, 390.222 166, 394 166 L 398 166 398 237 L 398 308 406.500 308 L 415 308 415 237 L 415 166 419.066 166 C 422.913 166, 423.116 165.851, 422.816 163.250 C 422.542 160.862, 422.006 160.459, 418.750 160.190 L 415 159.879 415 114.982 L 415 70.084 422.698 69.792 L 430.396 69.500 430.448 65.500 L 430.500 61.500 421 61.258 C 413.670 61.072, 410.656 61.414, 407.804 62.758 M 145.491 176.865 C 143.287 177.867, 139.968 180.411, 138.116 182.520 C 131.285 190.301, 131.500 188.386, 131.500 241.500 L 131.500 289.500 133.863 294.255 C 140.914 308.447, 159.198 312.370, 171.042 302.232 C 177.160 296.996, 179.280 292.036, 179.801 281.750 L 180.245 273 172.163 273 L 164.081 273 163.790 281.250 L 163.500 289.500 155.750 289.792 L 148 290.084 148 270.067 L 148 250.051 163.750 249.775 L 179.500 249.500 179.767 223.064 C 180.080 192.048, 179.524 188.759, 172.830 182.065 C 170.526 179.762, 167.093 177.230, 165.199 176.439 C 160.375 174.423, 150.391 174.639, 145.491 176.865 M 243.500 176.401 C 238.864 178.445, 233.316 184.081, 231.075 189.022 C 229.120 193.333, 229.043 195.402, 229.022 244.518 L 229 295.536 231.529 299.257 C 235.386 304.934, 238.953 306.336, 250.750 306.813 L 261 307.227 261 319.089 L 261 330.950 244.750 331.225 L 228.500 331.500 228.190 335.809 L 227.879 340.118 247.690 339.809 C 266.318 339.518, 267.687 339.367, 270.627 337.270 C 277.229 332.560, 277.001 335.298, 276.990 260.849 L 276.980 193.500 274.633 188.459 C 272.123 183.069, 267.499 178.535, 262.282 176.348 C 258.203 174.639, 247.427 174.669, 243.500 176.401 M 197.500 178.412 C 193.822 180.046, 190.486 183.568, 189.067 187.315 C 188.355 189.193, 188 209.759, 188 249.106 L 188 308.081 196.250 307.790 L 204.500 307.500 204.758 250.750 L 205.017 194 213.008 194 L 221 194 221 185.500 L 221 177 210.750 177.039 C 204.458 177.063, 199.342 177.593, 197.500 178.412 M 288 185.500 L 288 194 302.500 194 C 310.475 194, 317.046 194.338, 317.103 194.750 C 317.789 199.727, 317.907 204.255, 317.442 207.750 L 316.877 212 306.587 212 C 297.574 212, 295.874 212.280, 292.898 214.258 C 291.029 215.500, 288.488 218.520, 287.250 220.970 C 285.046 225.332, 285 226.133, 285 259.896 C 285 292.798, 285.095 294.565, 287.086 298.677 C 291.065 306.897, 292.759 307.456, 314.750 307.809 L 334 308.119 334 249.217 L 334 190.315 331.675 185.907 C 330.226 183.160, 327.872 180.659, 325.425 179.266 C 321.798 177.202, 320.229 177.032, 304.750 177.016 L 288 177 288 185.500 M 341.820 179.250 C 341.644 180.488, 341.619 209.962, 341.765 244.750 L 342.029 308 360.128 308 C 380.771 308, 383.889 307.101, 387.882 299.996 C 389.973 296.275, 390 295.481, 390 236.614 L 390 177 382 177 L 374 177 374 234 L 374 291 366 291 L 358 291 358 234 L 358 177 350.070 177 C 342.607 177, 342.120 177.133, 341.820 179.250 M 147.833 193.989 C 147.650 194.533, 147.631 203.551, 147.792 214.030 L 148.084 233.083 155.792 232.791 L 163.500 232.500 163.771 212.750 L 164.042 193 156.104 193 C 151.739 193, 148.017 193.445, 147.833 193.989 M 245 241.500 L 245 290 253 290 L 261 290 261 241.500 L 261 193 253 193 L 245 193 245 241.500 M 91 242.500 L 91 291 99 291 L 107 291 107 242.500 L 107 194 99 194 L 91 194 91 242.500 M 301.453 230.262 C 301.187 230.955, 301.089 244.793, 301.235 261.012 L 301.500 290.500 309.132 290.790 C 316.369 291.065, 316.792 290.962, 317.314 288.790 C 318.131 285.395, 318.172 263.738, 317.395 245.250 L 316.713 229 309.325 229 C 304.301 229, 301.782 229.404, 301.453 230.262 M 75 335.750 L 75 340 145 340 L 215 340 215 335.652 L 215 331.303 145 331.402 L 75 331.500 75 335.750 M 282.002 331.833 C 281.451 332.017, 281 333.929, 281 336.083 L 281 340 348.057 340 L 415.115 340 414.807 335.750 L 414.500 331.500 348.752 331.500 C 312.590 331.500, 282.553 331.650, 282.002 331.833" stroke="none" fill="#ffffff" fill-rule="evenodd"/>
</svg>