<svg xmlns="http://www.w3.org/2000/svg" width="800" height="319" viewBox="0 0 800 319" version="1.1">
	<path d="M 260.089 77.055 C 256.860 77.510, 254.917 78.529, 252.839 80.854 L 250 84.032 250.017 118.266 L 250.034 152.500 252.788 157.970 C 254.853 162.072, 256.768 164.199, 260.441 166.470 L 265.340 169.500 295.707 169.734 C 331.645 170.012, 330.513 170.434, 322 159.910 C 320.075 157.531, 316.674 153.315, 314.442 150.542 L 310.384 145.500 298.320 145.220 C 288.143 144.984, 285.998 144.655, 284.606 143.118 C 283.169 141.530, 282.992 138.732, 283.228 121.410 C 283.461 104.390, 283.723 101.483, 285.049 101.228 C 286.537 100.943, 289.702 104.524, 314.899 135 C 334.370 158.552, 338.567 163.570, 341.237 166.499 L 343.973 169.500 362.358 169.757 C 377.614 169.971, 380.952 169.762, 381.974 168.531 C 383.385 166.831, 383.907 167.567, 363.501 142.500 C 356.337 133.700, 343.438 117.685, 334.836 106.912 C 326.234 96.138, 317.382 85.887, 315.165 84.131 C 307.934 78.404, 301.972 77.068, 282.139 76.732 C 272.437 76.567, 262.515 76.713, 260.089 77.055 M 398.451 77.124 C 395.920 77.536, 393.659 78.817, 391.807 80.890 C 389.198 83.810, 389 84.631, 389 92.516 L 389 101 426.935 101 C 448.877 101, 465.939 101.407, 467.407 101.965 C 471.095 103.367, 471.976 107.791, 469.040 110.169 C 466.935 111.874, 464.094 112, 427.889 112 L 389 112 389 139.443 C 389 172.718, 387.512 170, 405.723 170 C 422.369 170, 422 170.394, 422 152.611 C 422 140.922, 422.243 138.922, 423.910 136.861 L 425.820 134.500 458.208 134 C 487.782 133.543, 490.851 133.335, 493.547 131.606 C 501.407 126.564, 504.006 121.035, 504.487 108.333 C 505.125 91.487, 502.029 84.118, 492.316 79.366 L 486.880 76.707 444.584 76.603 C 421.321 76.547, 400.562 76.781, 398.451 77.124 M 533.806 77.145 C 526.003 78.264, 520.426 82.374, 516.364 90 C 514.695 93.133, 514.468 96.469, 514.192 121.819 C 513.848 153.496, 514.404 157.250, 520.310 163.156 C 527.222 170.068, 526.236 169.954, 579.227 169.978 L 626.954 170 628.580 167.518 C 630.587 164.455, 630.302 148.901, 628.201 146.800 C 627.191 145.789, 618.357 145.437, 588.452 145.216 L 550.002 144.932 548.386 142.466 C 546.896 140.193, 546.898 139.804, 548.408 137.500 C 550.349 134.537, 547.186 134.724, 592.753 134.880 C 632.713 135.016, 630.428 135.760, 629.840 122.810 C 629.546 116.337, 629.111 114.554, 627.547 113.411 C 625.967 112.256, 618.806 112, 588.009 112 C 560.091 112, 550.091 111.691, 549.200 110.800 C 547.488 109.088, 547.717 104.480, 549.590 102.925 C 550.842 101.886, 559.219 101.595, 589.039 101.553 C 618.688 101.511, 627.181 101.218, 628.199 100.202 C 629.021 99.381, 629.625 95.509, 629.839 89.687 C 630.136 81.587, 629.942 80.258, 628.242 78.719 C 626.469 77.114, 622.623 76.948, 582.307 76.734 C 558.107 76.605, 536.282 76.790, 533.806 77.145 M 656.081 77 C 647.045 77.293, 640.524 77.918, 640.328 78.510 C 640.072 79.282, 655.077 99.306, 671.081 119.548 C 671.912 120.599, 670.737 122.475, 650.212 152.844 C 644.553 161.217, 640.192 168.502, 640.521 169.033 C 640.870 169.599, 648.674 169.998, 659.309 169.995 C 674.896 169.990, 677.891 169.740, 680.232 168.245 C 682.607 166.728, 688.029 159.624, 701.198 140.772 C 703.014 138.172, 704.950 136.036, 705.500 136.024 C 706.050 136.013, 707.175 137.117, 708 138.477 C 711.986 145.050, 728.447 167.200, 730.320 168.512 C 733.338 170.625, 769.511 170.717, 770.318 168.613 C 770.611 167.851, 769.396 165.038, 767.618 162.363 C 765.840 159.689, 760.201 151.200, 755.086 143.500 C 749.971 135.800, 744.484 127.626, 742.893 125.337 C 741.302 123.047, 740 120.852, 740 120.459 C 740 120.067, 747.015 110.781, 755.588 99.824 C 765.152 87.602, 770.961 79.342, 770.620 78.451 C 770.164 77.265, 767.092 77.001, 753.781 77.006 C 734.078 77.012, 731.205 77.680, 726.810 83.273 C 724.989 85.589, 719.521 92.133, 714.658 97.815 L 705.816 108.145 702.158 103.889 C 700.146 101.548, 695.208 95.553, 691.185 90.566 C 679.261 75.787, 680.362 76.213, 656.081 77 M 120.075 79.750 C 119.390 81.263, 116.435 86.550, 113.508 91.500 C 105.222 105.515, 83.280 143.554, 79.249 150.892 C 77.252 154.526, 73.385 161.325, 70.656 166 C 67.927 170.675, 63.796 177.875, 61.477 182 C 57.699 188.717, 48.138 205.079, 42.023 215.293 C 40.774 217.379, 39.958 219.291, 40.209 219.542 C 40.569 219.902, 104.450 156.498, 106.941 153.308 C 107.288 152.864, 111.420 148.758, 116.122 144.185 L 124.672 135.871 161.655 172.685 C 206.039 216.867, 210.628 221.268, 209.001 218.099 C 208.323 216.778, 204.605 210.264, 200.739 203.622 C 196.873 196.980, 192.941 190.175, 192 188.500 C 191.059 186.825, 187.013 179.840, 183.007 172.977 C 179.002 166.115, 174.951 159.150, 174.005 157.500 C 136.546 92.139, 130.026 80.935, 128.173 78.750 C 125.818 75.972, 121.548 76.499, 120.075 79.750 M 79.701 196.750 L 36.045 240.500 123.684 240.755 C 171.885 240.896, 211.516 240.817, 211.753 240.581 C 212.303 240.031, 125.280 153, 124.180 153 C 123.728 153, 103.712 172.688, 79.701 196.750 M 263.500 204.439 C 257.571 206.631, 252.315 212.718, 251.466 218.376 C 250.465 225.053, 251.709 231.501, 254.680 235.031 C 259.516 240.779, 262.706 241.530, 279 240.755 L 286.500 240.399 286.784 230.273 C 287.110 218.667, 287.620 219.198, 276.750 219.839 L 271 220.178 271 224.025 C 271 227.633, 271.202 227.893, 274.242 228.187 C 279.050 228.651, 279.223 231.680, 274.492 232.567 C 263.924 234.550, 256.742 224.429, 262.490 215.655 C 264.851 212.052, 271.092 210.691, 277.252 212.438 C 279.725 213.139, 280.150 212.876, 281.436 209.859 C 282.574 207.187, 282.613 206.240, 281.628 205.231 C 279.667 203.220, 268.157 202.718, 263.500 204.439 M 298.226 203.764 C 297.257 204.436, 297.018 208.931, 297.226 222.574 L 297.500 240.500 300.500 240.640 C 306.298 240.909, 306.880 240.350, 307.202 234.198 C 307.482 228.836, 307.659 228.482, 310.204 228.188 C 312.613 227.910, 313.243 228.538, 315.969 233.938 C 317.652 237.272, 319.360 240.045, 319.764 240.099 C 324.990 240.806, 329.014 240.786, 329.468 240.051 C 329.778 239.550, 328.674 236.839, 327.016 234.026 C 323.500 228.064, 323.281 225.961, 325.927 223.566 C 330.409 219.510, 329.049 209.044, 323.575 205.457 C 320.656 203.544, 300.485 202.197, 298.226 203.764 M 349.685 204.017 C 342.338 206.222, 336 214.782, 336 222.500 C 336 230.057, 341.694 237.768, 349.313 240.532 C 350.955 241.127, 355.098 241.293, 359.117 240.925 C 364.760 240.408, 366.760 239.734, 369.683 237.368 C 374.568 233.415, 377 228.550, 377 222.733 C 377 211.170, 368.790 203.136, 357 203.162 C 354.525 203.167, 351.233 203.552, 349.685 204.017 M 386.667 203.667 C 386.300 204.033, 386 210.356, 386 217.716 C 386 232.936, 386.785 235.468, 392.626 239.078 C 397.532 242.110, 407.096 242.301, 411.930 239.463 C 417.992 235.904, 419.074 232.351, 418.769 217 L 418.500 203.500 415.123 203.177 C 413.265 203, 411.244 203.356, 410.630 203.970 C 409.664 204.936, 409.254 210.701, 409.049 226.227 C 409.012 229.066, 408.405 230.344, 406.504 231.589 C 403.527 233.540, 397.520 232.798, 396.587 230.365 C 396.253 229.496, 395.937 223.571, 395.884 217.199 C 395.832 210.826, 395.563 205.025, 395.287 204.306 C 394.771 202.960, 387.884 202.449, 386.667 203.667 M 430.667 203.667 C 430.300 204.033, 430 212.308, 430 222.055 L 430 239.777 433.517 240.437 C 438.060 241.290, 439 240.619, 439 236.523 C 439 230.497, 439.578 230, 446.591 230 C 452.138 230, 453.368 229.642, 456.037 227.250 C 459.586 224.070, 461.154 218.615, 459.995 213.477 C 458.711 207.785, 456.553 205.377, 451.623 204.135 C 446.758 202.910, 431.758 202.575, 430.667 203.667 M 307 215.500 L 307 220 312.393 220 C 317.991 220, 319 219.220, 319 214.893 C 319 212.619, 315.439 211, 310.435 211 C 307.031 211, 307 211.040, 307 215.500 M 349.974 214.872 C 346.414 218.432, 345.407 222.154, 346.978 225.947 C 348.898 230.582, 351.515 232.333, 356.521 232.333 C 361.995 232.333, 365.494 229.507, 366.320 224.418 C 367.982 214.172, 357.056 207.790, 349.974 214.872 M 439.398 213.405 C 439.102 214.177, 439.003 216.315, 439.180 218.155 C 439.452 221.003, 439.926 221.549, 442.371 221.828 C 449.083 222.595, 452.668 218.985, 450.050 214.093 C 449.168 212.445, 447.973 212, 444.433 212 C 441.495 212, 439.750 212.487, 439.398 213.405" stroke="none" fill="#ffffff" fill-rule="evenodd"/>
</svg>