<svg xmlns="http://www.w3.org/2000/svg" width="560" height="332" viewBox="0 0 560 332" version="1.1">
	<path d="M 270.256 115.117 C 262.976 117.220, 256.909 127.499, 258.397 135.210 C 259.506 140.958, 263.204 146.194, 267.907 148.675 C 271.770 150.713, 273.716 151, 283.657 151 L 295 151 295 155.500 L 295 160 299.443 160 L 303.885 160 304.193 155.750 L 304.500 151.500 310 151.251 C 321.858 150.713, 326.182 148.483, 330.044 140.914 C 332.779 135.552, 332.526 130.236, 329.236 123.937 C 321.686 109.485, 300.350 111.276, 296.060 126.723 C 295.483 128.800, 295.009 133.088, 295.006 136.250 L 295 142 284.089 142 L 273.178 142 270.589 138.923 C 263.632 130.656, 271.239 119.236, 281.039 123.234 L 284.323 124.574 277.665 128.748 C 271.283 132.750, 271.056 133.028, 272.164 135.461 C 272.801 136.858, 273.729 138, 274.228 138 C 274.727 138, 279.376 135.412, 284.559 132.250 C 290.540 128.601, 293.985 125.873, 293.991 124.783 C 293.996 123.839, 292.433 121.500, 290.519 119.586 C 285.434 114.501, 278.038 112.870, 270.256 115.117 M 346.791 114.988 C 333.517 118.990, 329.527 136.710, 339.741 146.307 C 348.339 154.386, 362.975 151.915, 368.396 141.469 C 370.832 136.774, 370.992 128.811, 368.737 124.474 C 364.558 116.439, 355.282 112.429, 346.791 114.988 M 198.898 119.041 C 205.187 123.597, 210.974 133.742, 210.994 140.250 C 211 141.873, 209.074 142, 184.500 142 L 158 142 158 144.818 C 158 149.428, 161.001 158.141, 164.180 162.762 C 165.814 165.137, 169.480 168.612, 172.326 170.485 C 189.034 181.480, 210.087 175.221, 218.521 156.750 L 221.147 151 228.460 151 L 235.773 151 236.162 140.503 C 236.595 128.797, 237.608 126.798, 243.750 125.518 L 247 124.841 247 137.921 L 247 151 251.750 150.999 L 256.500 150.999 256.799 133.398 L 257.099 115.797 248.299 116.149 C 237.107 116.596, 232.445 118.766, 229.250 125.020 C 227.622 128.206, 227 131.162, 227 135.712 L 227 142 224 142 C 221.654 142, 221 141.558, 221 139.975 C 221 136.301, 217.042 126.588, 213.369 121.250 L 209.756 116 202.228 116 L 194.700 116 198.898 119.041 M 372 133.500 L 372 151 377 151 L 382 151 382 144 L 382 137 387.500 137 L 393 137 393 144 L 393 151 398 151 L 403 151 403 133.500 L 403 116 398 116 L 393 116 393 122.500 L 393 129 387.500 129 L 382 129 382 122.500 L 382 116 377 116 L 372 116 372 133.500 M 309.321 124.189 C 306.538 125.534, 305.180 129.082, 304.801 136 L 304.500 141.500 310.571 141.793 C 316.021 142.056, 316.915 141.813, 319.321 139.407 C 326.574 132.153, 318.443 119.779, 309.321 124.189 M 345.490 127.195 C 338.167 135.897, 350.045 147.109, 358.077 139.077 C 364.091 133.062, 360.519 124, 352.134 124 C 348.912 124, 347.679 124.593, 345.490 127.195 M 170 152.965 C 170 154.046, 171.420 156.548, 173.155 158.524 C 180.307 166.669, 190.688 168.717, 199.284 163.679 C 203.789 161.039, 209 154.919, 209 152.268 C 209 151.287, 204.580 151, 189.500 151 C 170.782 151, 170 151.079, 170 152.965 M 224.023 166.977 C 221.593 169.407, 221.459 171.317, 223.571 173.429 C 225.566 175.423, 227.402 175.426, 229.052 173.437 C 230.188 172.068, 230.019 171.957, 227.684 172.543 C 225.722 173.036, 224.855 172.785, 224.397 171.593 C 223.572 169.441, 225.937 166.537, 227.358 167.958 C 228.665 169.265, 230 169.304, 230 168.035 C 230 167.505, 229.110 166.594, 228.023 166.012 C 226.453 165.172, 225.630 165.370, 224.023 166.977 M 243.023 166.977 C 240.731 169.269, 240.562 170.313, 242.035 173.066 C 243.284 175.399, 246.271 175.583, 248.052 173.437 C 249.188 172.068, 249.019 171.957, 246.684 172.543 C 244.722 173.036, 243.855 172.785, 243.397 171.593 C 242.572 169.441, 244.937 166.537, 246.358 167.958 C 247.665 169.265, 249 169.304, 249 168.035 C 249 167.505, 248.110 166.594, 247.023 166.012 C 245.453 165.172, 244.630 165.370, 243.023 166.977 M 313.703 166.146 C 312.743 166.683, 312.232 167.567, 312.568 168.110 C 312.955 168.736, 313.704 168.661, 314.613 167.906 C 315.403 167.251, 316.362 167.029, 316.745 167.412 C 317.128 167.795, 316.780 168.569, 315.971 169.131 C 314.858 169.904, 314.804 170.276, 315.750 170.659 C 318.095 171.611, 317.047 173.229, 314.500 172.589 C 313.082 172.233, 312 172.395, 312 172.962 C 312 174.201, 316.515 175.418, 317.911 174.555 C 318.475 174.206, 318.877 172.340, 318.804 170.408 C 318.655 166.455, 316.448 164.610, 313.703 166.146 M 380.751 165.758 C 378.617 166.232, 377.333 170.715, 378.705 172.905 C 380.090 175.115, 383.407 175.419, 385.014 173.483 C 386.200 172.054, 386.023 171.905, 383.462 172.184 C 381.298 172.421, 380.476 172.034, 380.192 170.644 C 379.667 168.074, 381.624 166.224, 383.200 167.800 C 384.836 169.436, 386.057 169.312, 385.391 167.577 C 384.735 165.866, 383.117 165.232, 380.751 165.758 M 232 170.500 C 232 175.468, 233.422 176.362, 235.182 172.500 C 236.490 169.628, 238.091 169.159, 237.738 171.750 C 237.607 172.713, 237.950 173.613, 238.500 173.750 C 239.927 174.107, 239.744 166.748, 238.314 166.271 C 237.662 166.054, 236.443 167.142, 235.604 168.688 L 234.080 171.500 234.040 168.750 C 234.018 167.238, 233.550 166, 233 166 C 232.450 166, 232 168.025, 232 170.500 M 251.250 167.080 C 252.382 167.739, 253 169.319, 253 171.550 C 253 173.447, 253.450 175, 254 175 C 254.550 175, 255 173.515, 255 171.700 C 255 169.885, 255.540 167.860, 256.200 167.200 C 257.133 166.267, 256.522 166.007, 253.450 166.030 C 250.281 166.055, 249.846 166.262, 251.250 167.080 M 259 170.500 C 259 174.976, 259.019 175, 262.500 175 C 264.425 175, 266 174.550, 266 174 C 266 173.450, 264.875 173, 263.500 173 C 262.125 173, 261 172.550, 261 172 C 261 171.450, 261.900 171, 263 171 C 264.100 171, 265 170.550, 265 170 C 265 169.450, 264.100 169, 263 169 C 260.272 169, 260.463 167.243, 263.250 166.706 C 264.877 166.392, 264.600 166.235, 262.250 166.136 C 259.045 166.002, 259 166.062, 259 170.500 M 268.100 170.667 C 268.177 174.397, 268.365 174.930, 268.923 173 L 269.647 170.500 270.391 172.750 C 270.800 173.988, 271.523 175, 271.998 175 C 272.473 175, 273.056 173.988, 273.294 172.750 L 273.728 170.500 273.864 172.750 C 274.120 176.986, 276 175.006, 276 170.500 C 276 167.167, 275.611 166, 274.500 166 C 273.675 166, 273 166.873, 273 167.941 C 273 170.713, 271.206 171.456, 270.821 168.843 C 270.645 167.641, 269.938 166.471, 269.250 166.245 C 268.357 165.951, 268.028 167.214, 268.100 170.667 M 278 170.563 C 278 175.109, 278.012 175.126, 281.250 174.813 C 283.966 174.551, 284.500 174.090, 284.500 172 C 284.500 170.169, 283.898 169.415, 282.250 169.180 C 281.012 169.005, 280 168.217, 280 167.430 C 280 166.644, 279.550 166, 279 166 C 278.450 166, 278 168.054, 278 170.563 M 287 170.500 C 287 172.975, 287.450 175, 288 175 C 288.550 175, 289 172.975, 289 170.500 C 289 168.025, 288.550 166, 288 166 C 287.450 166, 287 168.025, 287 170.500 M 295 170.500 C 295 174.505, 295.248 174.998, 297.250 174.985 C 298.488 174.976, 300.107 174.585, 300.848 174.115 C 302.870 172.833, 301.799 169.546, 299.240 169.180 C 296.123 168.736, 296.437 167.218, 299.750 166.716 C 301.962 166.381, 301.766 166.270, 298.750 166.150 L 295 166 295 170.500 M 304 170.500 C 304 174.976, 304.019 175, 307.500 175 C 309.425 175, 311 174.550, 311 174 C 311 173.450, 309.875 173, 308.500 173 C 307.125 173, 306 172.550, 306 172 C 306 171.450, 306.900 171, 308 171 C 309.100 171, 310 170.550, 310 170 C 310 169.450, 309.100 169, 308 169 C 305 169, 305.593 167.195, 308.750 166.716 C 310.962 166.381, 310.766 166.270, 307.750 166.150 L 304 166 304 170.500 M 321.387 168.594 C 320.577 171.822, 321.942 174.385, 324.690 174.798 C 327.363 175.200, 329.216 172.740, 328.822 169.310 C 328.553 166.959, 327.975 166.449, 325.284 166.189 C 322.507 165.921, 321.976 166.249, 321.387 168.594 M 331 170.500 C 331 175.889, 332.748 176.550, 333.190 171.327 C 333.604 166.424, 336 165.597, 336 170.358 C 336 172.296, 336.450 174.160, 337 174.500 C 337.611 174.878, 338 173.344, 338 170.559 C 338 166.015, 337.988 166, 334.500 166 C 331.019 166, 331 166.024, 331 170.500 M 342.140 168.169 C 340.167 173.439, 339.891 175, 340.933 175 C 341.520 175, 342 174.550, 342 174 C 342 172.551, 345.751 172.770, 346.280 174.250 C 346.525 174.938, 347.069 175.182, 347.487 174.793 C 348.448 173.899, 345.641 166.714, 344.134 166.211 C 343.517 166.006, 342.620 166.887, 342.140 168.169 M 349.950 167.560 C 349.026 168.673, 348.926 169.890, 349.598 171.810 C 350.699 174.954, 354.064 175.833, 356.012 173.485 C 357.200 172.054, 357.051 171.949, 354.684 172.543 C 352.722 173.036, 351.855 172.785, 351.397 171.593 C 350.479 169.199, 352.876 166.652, 354.657 168.130 C 356.229 169.435, 357.546 168.692, 356.541 167.067 C 355.555 165.472, 351.427 165.781, 349.950 167.560 M 359 170.500 C 359 172.975, 359.450 175, 360 175 C 360.550 175, 361 174.100, 361 173 C 361 171.889, 361.667 171, 362.500 171 C 363.333 171, 364 171.889, 364 173 C 364 174.100, 364.450 175, 365 175 C 365.550 175, 366 172.975, 366 170.500 C 366 168.025, 365.550 166, 365 166 C 364.450 166, 364 166.675, 364 167.500 C 364 168.325, 363.325 169, 362.500 169 C 361.675 169, 361 168.325, 361 167.500 C 361 166.675, 360.550 166, 360 166 C 359.450 166, 359 168.025, 359 170.500 M 368.387 168.594 C 367.577 171.822, 368.942 174.385, 371.690 174.798 C 374.363 175.200, 376.216 172.740, 375.822 169.310 C 375.553 166.959, 374.975 166.449, 372.284 166.189 C 369.507 165.921, 368.976 166.249, 368.387 168.594 M 387.718 166.805 C 388.388 167.230, 389.049 169.058, 389.187 170.865 C 389.529 175.358, 391 175.961, 391 171.609 C 391 169.321, 391.609 167.744, 392.750 167.080 C 394.150 166.265, 393.699 166.058, 390.500 166.046 C 388.235 166.037, 387.028 166.366, 387.718 166.805 M 396 170.441 C 396 175.628, 397.056 176.255, 399.046 172.250 L 400.412 169.500 400.773 172.250 C 401.355 176.693, 403 175.400, 403 170.500 C 403 165.702, 400.741 164.088, 399.500 168 C 399.151 169.100, 398.460 170, 397.964 170 C 397.468 170, 397.304 169.371, 397.600 168.601 C 397.895 167.832, 397.656 166.905, 397.068 166.542 C 396.370 166.111, 396 167.462, 396 170.441 M 323.667 167.667 C 322.413 168.921, 322.998 172.062, 324.601 172.677 C 326.703 173.484, 328.120 171.092, 326.895 168.804 C 325.887 166.920, 324.797 166.536, 323.667 167.667 M 370.362 168.500 C 369.567 170.572, 370.646 173, 372.362 173 C 374.312 173, 375.289 170.053, 373.895 168.373 C 372.409 166.583, 371.079 166.631, 370.362 168.500 M 343.500 170 C 343.160 170.550, 343.359 171, 343.941 171 C 344.523 171, 345 170.550, 345 170 C 345 169.450, 344.802 169, 344.559 169 C 344.316 169, 343.840 169.450, 343.500 170 M 280 172 C 280 172.550, 280.675 173, 281.500 173 C 282.325 173, 283 172.550, 283 172 C 283 171.450, 282.325 171, 281.500 171 C 280.675 171, 280 171.450, 280 172 M 297 172 C 297 172.550, 297.675 173, 298.500 173 C 299.325 173, 300 172.550, 300 172 C 300 171.450, 299.325 171, 298.500 171 C 297.675 171, 297 171.450, 297 172 M 157 193.500 L 157 203 280.500 203 L 404 203 404 193.500 L 404 184 280.500 184 L 157 184 157 193.500 M 165.168 194.184 L 165.336 198.500 165.728 194.750 C 166.252 189.742, 169 189.532, 169 194.500 C 169 196.425, 169.477 198, 170.060 198 C 170.674 198, 170.990 196.421, 170.810 194.250 C 170.541 190.994, 170.138 190.458, 167.750 190.184 C 165.104 189.879, 165.006 190.031, 165.168 194.184 M 172.116 194.250 C 172.180 196.588, 172.438 197.713, 172.689 196.750 C 172.941 195.787, 173.961 195, 174.957 195 C 176.696 195, 178.376 191.709, 177.225 190.558 C 176.918 190.251, 175.617 190, 174.333 190 C 172.237 190, 172.012 190.431, 172.116 194.250 M 178.810 192.840 C 178.205 196.965, 178.838 198.017, 181.833 197.864 C 184.190 197.743, 184.238 197.677, 182.250 197.294 C 181.012 197.056, 180 196.248, 180 195.500 C 180 194.752, 181.012 193.944, 182.250 193.706 L 184.500 193.272 182.250 193.136 C 181.012 193.061, 180 192.581, 180 192.070 C 180 191.558, 181.012 190.944, 182.250 190.706 C 184.260 190.319, 184.219 190.258, 181.863 190.136 C 179.689 190.024, 179.154 190.498, 178.810 192.840 M 186 191.875 C 186 192.906, 185.771 195.269, 185.490 197.125 C 185.210 198.981, 185.247 199.938, 185.574 199.250 C 185.900 198.563, 186.992 198, 188 198 C 189.008 198, 190.060 198.563, 190.338 199.250 C 190.615 199.938, 190.878 198.137, 190.921 195.250 C 190.996 190.296, 190.859 190, 188.500 190 C 186.722 190, 186 190.542, 186 191.875 M 192 194.059 C 192 196.510, 192.396 197.873, 193 197.500 C 193.550 197.160, 194 195.559, 194 193.941 C 194 189.436, 196.788 190.126, 197.272 194.750 L 197.664 198.500 197.832 194.250 C 197.994 190.157, 197.889 190, 195 190 C 192.159 190, 192 190.216, 192 194.059 M 200.116 194.250 C 200.180 196.588, 200.438 197.713, 200.689 196.750 C 200.941 195.787, 202.014 195, 203.073 195 C 204.462 195, 205 194.302, 205 192.500 C 205 190.500, 204.500 190, 202.500 190 C 200.207 190, 200.010 190.352, 200.116 194.250 M 206 194 C 206 198.296, 207.290 199.195, 208.965 196.066 C 210.352 193.473, 210.270 192.959, 208.573 193.610 C 207.531 194.010, 207.293 193.597, 207.690 192.079 C 208 190.890, 207.755 190, 207.117 190 C 206.481 190, 206 191.721, 206 194 M 210.639 190.775 C 210.376 191.201, 210.528 193.113, 210.978 195.025 L 211.795 198.500 211.898 194.250 C 211.997 190.141, 211.640 189.156, 210.639 190.775 M 214.260 193.855 C 214.412 197.672, 214.431 197.689, 216.173 195.605 L 217.933 193.500 217.967 195.750 C 217.985 196.988, 218.499 198, 219.109 198 C 219.788 198, 220.060 196.642, 219.810 194.500 C 219.477 191.645, 219.733 191, 221.201 191 C 222.585 191, 223.037 191.865, 223.160 194.750 L 223.320 198.500 223.741 195.009 C 223.973 193.089, 224.689 191.183, 225.331 190.774 C 225.974 190.365, 223.711 190.024, 220.303 190.015 L 214.106 190 214.260 193.855 M 227.150 193.750 C 226.978 198.614, 228.029 199.185, 230.081 195.344 L 231.500 192.688 232.132 195.594 C 232.659 198.018, 232.777 197.754, 232.846 194 L 232.928 189.500 230.546 192.413 L 228.164 195.327 227.732 192.413 C 227.399 190.168, 227.265 190.474, 227.150 193.750 M 234 194 C 234 197.874, 234.102 197.996, 237.250 197.864 C 239.600 197.765, 239.877 197.608, 238.250 197.294 C 237.012 197.056, 236 196.248, 236 195.500 C 236 194.752, 237.012 193.944, 238.250 193.706 L 240.500 193.272 238.250 193.136 C 237.012 193.061, 236 192.581, 236 192.070 C 236 191.558, 237.012 190.944, 238.250 190.706 C 239.877 190.392, 239.600 190.235, 237.250 190.136 C 234.102 190.004, 234 190.126, 234 194 M 244.168 194.260 L 244.336 198.500 244.728 194.750 C 245.028 191.888, 245.565 191, 246.997 191 C 248.383 191, 248.955 191.849, 249.187 194.250 C 249.444 196.923, 249.924 197.500, 251.891 197.500 C 255.004 197.500, 256.901 194.653, 255.389 192.250 C 254.612 191.016, 252.770 190.429, 249.144 190.260 L 244 190.019 244.168 194.260 M 257.416 191.357 C 255.755 195.687, 259.438 199.962, 262.335 197.065 C 263.165 196.235, 262.822 196.015, 261.020 196.221 C 259.313 196.416, 258.467 195.943, 258.197 194.644 C 257.616 191.840, 259.560 190.391, 261.620 192.092 C 263.098 193.312, 263.260 193.300, 262.834 192 C 262.166 189.958, 258.137 189.480, 257.416 191.357 M 264 194 C 264 197.784, 265.964 199.960, 266.032 196.250 C 266.061 194.667, 266.203 194.685, 267.532 196.441 C 268.339 197.509, 269 197.907, 269 197.326 C 269 196.745, 268.115 195.144, 267.033 193.769 C 265.951 192.393, 265.351 190.983, 265.699 190.634 C 266.048 190.285, 265.808 190, 265.167 190 C 264.472 190, 264 191.619, 264 194 M 267.397 191.166 C 267.069 191.698, 267.070 192.403, 267.400 192.733 C 267.730 193.063, 268 192.808, 268 192.167 C 268 189.465, 269.900 191.275, 270.187 194.250 C 270.444 196.923, 270.924 197.500, 272.891 197.500 C 276.004 197.500, 277.901 194.653, 276.388 192.250 C 275.183 190.336, 268.415 189.520, 267.397 191.166 M 278.116 194.250 C 278.180 196.588, 278.438 197.713, 278.689 196.750 C 278.941 195.787, 279.961 195, 280.957 195 C 282.696 195, 284.376 191.709, 283.225 190.558 C 282.918 190.251, 281.617 190, 280.333 190 C 278.237 190, 278.012 190.431, 278.116 194.250 M 285.168 194.250 L 285.336 198.500 285.728 194.750 C 286.028 191.886, 286.565 191, 288 191 C 289.435 191, 289.972 191.886, 290.272 194.750 L 290.664 198.500 290.832 194.250 C 290.994 190.157, 290.889 190, 288 190 C 285.111 190, 285.006 190.157, 285.168 194.250 M 292.416 191.357 C 291.203 194.518, 292.405 197.500, 294.891 197.500 C 298.001 197.500, 299.899 194.653, 298.393 192.250 C 296.970 189.981, 293.163 189.412, 292.416 191.357 M 300.116 194.250 C 300.180 196.588, 300.438 197.713, 300.689 196.750 C 300.941 195.787, 301.961 195, 302.957 195 C 304.696 195, 306.376 191.709, 305.225 190.558 C 304.918 190.251, 303.617 190, 302.333 190 C 300.237 190, 300.012 190.431, 300.116 194.250 M 307.098 193.149 C 305.753 197.006, 305.694 199.029, 306.985 197 C 307.798 195.721, 308.259 195.699, 310.114 196.849 C 312.049 198.048, 312.218 198.010, 311.641 196.506 C 311.284 195.576, 310.720 193.731, 310.387 192.407 C 309.564 189.125, 308.410 189.386, 307.098 193.149 M 313.168 193.750 C 313.015 197.624, 313.214 198, 315.417 198 C 316.746 198, 318.033 198.563, 318.276 199.250 C 318.566 200.066, 319.636 199.528, 321.360 197.698 C 323.939 194.962, 324.991 192.270, 323 193.500 C 322.450 193.840, 322 193.191, 322 192.059 C 322 188.336, 320.003 189.912, 319.858 193.750 L 319.716 197.500 319 193.500 L 318.284 189.500 318.142 193.250 C 318.029 196.246, 317.610 197, 316.060 197 C 314.555 197, 314.033 196.160, 313.728 193.250 L 313.336 189.500 313.168 193.750 M 324.639 190.775 C 324.376 191.201, 324.528 193.113, 324.978 195.025 L 325.795 198.500 325.898 194.250 C 325.997 190.141, 325.640 189.156, 324.639 190.775 M 328.182 194 C 328.072 198.161, 328.174 198.354, 329.532 196.559 C 330.339 195.491, 330.993 194.141, 330.985 193.559 C 330.976 192.976, 330.564 193.141, 330.068 193.924 C 329.390 194.996, 329.059 194.625, 328.733 192.424 C 328.423 190.332, 328.266 190.780, 328.182 194 M 331.678 190.750 C 330.959 191.976, 332.152 198, 333.113 198 C 333.601 198, 334 196.200, 334 194 C 334 190.402, 332.837 188.774, 331.678 190.750 M 343 193.934 C 343 196.170, 343.450 198, 344 198 C 344.550 198, 345 197.377, 345 196.617 C 345 195.856, 345.939 194.988, 347.087 194.688 C 350.156 193.885, 349.168 190.579, 345.741 190.184 C 343.150 189.885, 343 190.090, 343 193.934 M 350.416 191.357 C 349.203 194.518, 350.405 197.500, 352.891 197.500 C 356.001 197.500, 357.899 194.653, 356.393 192.250 C 354.970 189.981, 351.163 189.412, 350.416 191.357 M 358.416 191.357 C 358.100 192.181, 357.990 193.900, 358.171 195.177 C 358.444 197.103, 359.141 197.526, 362.250 197.650 C 364.313 197.733, 366 197.395, 366 196.900 C 366 195.530, 368.771 195.826, 369.280 197.250 C 369.525 197.938, 370.019 198.232, 370.376 197.904 C 371.329 197.029, 368.099 189.821, 367.047 190.471 C 366.556 190.775, 365.879 192.276, 365.542 193.807 C 365.054 196.032, 364.388 196.583, 362.229 196.546 C 360.414 196.515, 359.410 195.891, 359.170 194.644 C 358.628 191.830, 360.566 190.396, 362.620 192.092 C 364.098 193.312, 364.260 193.300, 363.834 192 C 363.166 189.958, 359.137 189.480, 358.416 191.357 M 371.250 190.689 C 372.475 191.009, 373.048 192.250, 373.160 194.823 L 373.320 198.500 373.741 195.009 C 373.973 193.089, 374.689 191.183, 375.331 190.774 C 375.974 190.365, 374.925 190.076, 373 190.131 C 371.075 190.187, 370.288 190.438, 371.250 190.689 M 377.015 191.481 C 375.034 193.869, 377.274 198.243, 380.260 197.818 C 382.093 197.558, 382.500 196.864, 382.500 194 C 382.500 191.213, 382.075 190.439, 380.412 190.202 C 379.264 190.038, 377.736 190.614, 377.015 191.481 M 385.070 194.250 C 385.125 197.542, 385.334 198.049, 386 196.500 C 386.735 194.790, 386.870 194.754, 386.930 196.250 C 387.005 198.136, 389 198.741, 389 196.878 C 389 196.102, 389.464 196.140, 390.500 197 C 391.792 198.072, 392 197.673, 392 194.122 C 392 189.397, 390.615 188.716, 389.207 192.750 L 388.247 195.500 387.515 192.750 C 386.407 188.588, 384.991 189.457, 385.070 194.250 M 173 192.500 C 173 193.325, 173.675 194, 174.500 194 C 175.325 194, 176 193.325, 176 192.500 C 176 191.675, 175.325 191, 174.500 191 C 173.675 191, 173 191.675, 173 192.500 M 187 194 C 187 195.650, 187.450 197, 188 197 C 188.550 197, 189 195.650, 189 194 C 189 192.350, 188.550 191, 188 191 C 187.450 191, 187 192.350, 187 194 M 201 192.500 C 201 193.325, 201.675 194, 202.500 194 C 203.325 194, 204 193.325, 204 192.500 C 204 191.675, 203.325 191, 202.500 191 C 201.675 191, 201 191.675, 201 192.500 M 215 192 C 215 192.550, 215.675 193, 216.500 193 C 217.325 193, 218 192.550, 218 192 C 218 191.450, 217.325 191, 216.500 191 C 215.675 191, 215 191.450, 215 192 M 250.362 192.500 C 249.559 194.591, 250.651 197, 252.401 197 C 254.032 197, 255.475 193.578, 254.506 192.009 C 253.569 190.493, 251.016 190.796, 250.362 192.500 M 271.362 192.500 C 270.567 194.572, 271.646 197, 273.362 197 C 274.145 197, 275.045 196.325, 275.362 195.500 C 276.157 193.428, 275.078 191, 273.362 191 C 272.578 191, 271.678 191.675, 271.362 192.500 M 279 192.500 C 279 193.325, 279.675 194, 280.500 194 C 281.325 194, 282 193.325, 282 192.500 C 282 191.675, 281.325 191, 280.500 191 C 279.675 191, 279 191.675, 279 192.500 M 293.362 192.500 C 292.705 194.211, 293.551 197.008, 294.719 196.985 C 296.824 196.943, 298.168 195.105, 297.540 193.125 C 296.762 190.675, 294.208 190.293, 293.362 192.500 M 301 192.500 C 301 193.325, 301.675 194, 302.500 194 C 303.325 194, 304 193.325, 304 192.500 C 304 191.675, 303.325 191, 302.500 191 C 301.675 191, 301 191.675, 301 192.500 M 345 192.500 C 345 193.417, 345.484 194.005, 346.075 193.808 C 346.666 193.611, 347.150 193.022, 347.150 192.500 C 347.150 191.978, 346.666 191.389, 346.075 191.192 C 345.484 190.995, 345 191.583, 345 192.500 M 351.394 192.417 C 350.566 194.574, 351.717 197.261, 353.251 196.750 C 353.938 196.521, 354.500 195.283, 354.500 194 C 354.500 191.259, 352.273 190.124, 351.394 192.417 M 378.394 192.417 C 377.566 194.574, 378.717 197.261, 380.251 196.750 C 380.938 196.521, 381.500 195.283, 381.500 194 C 381.500 191.259, 379.273 190.124, 378.394 192.417 M 367.079 193.583 C 367.127 194.748, 367.364 194.985, 367.683 194.188 C 367.972 193.466, 367.936 192.603, 367.604 192.271 C 367.272 191.939, 367.036 192.529, 367.079 193.583 M 308 194 C 308 194.550, 308.477 195, 309.059 195 C 309.641 195, 309.840 194.550, 309.500 194 C 309.160 193.450, 308.684 193, 308.441 193 C 308.198 193, 308 193.450, 308 194 M 338.380 194.452 C 337.706 196.210, 338.679 198, 340.309 198 C 340.964 198, 341.500 196.875, 341.500 195.500 C 341.500 192.808, 339.295 192.067, 338.380 194.452 M 393.500 195.500 C 393.500 196.931, 394.046 197.670, 395 197.529 C 395.825 197.408, 396.500 196.495, 396.500 195.500 C 396.500 194.505, 395.825 193.592, 395 193.471 C 394.046 193.330, 393.500 194.069, 393.500 195.500" stroke="none" fill="#ffffff" fill-rule="evenodd"/>
</svg>