<svg xmlns="http://www.w3.org/2000/svg" width="800" height="187" viewBox="0 0 800 187" version="1.1">
	<path d="M 0 93.501 L 0 187.002 400.250 186.751 L 800.500 186.500 800.755 93.250 L 801.010 0 400.505 0 L 0 0 0 93.501 M 0.480 94 C 0.480 145.425, 0.601 166.462, 0.750 140.750 C 0.898 115.037, 0.898 72.962, 0.750 47.250 C 0.601 21.537, 0.480 42.575, 0.480 94 M 402.431 50.818 C 394.686 53.495, 389.764 57.939, 386.666 65.051 C 385.184 68.452, 385.162 68.372, 385.082 59.250 L 385 50 377.015 50 L 369.031 50 368.765 78.701 L 368.500 107.402 351 78.951 L 333.500 50.500 293.239 50.239 L 252.979 49.977 253.239 93.239 L 253.500 136.500 293 136.500 L 332.500 136.500 333 108.717 L 333.500 80.935 350.611 108.717 L 367.723 136.500 376.361 136.789 L 385 137.078 385 128.843 L 385 120.608 387.950 125.260 C 393.347 133.770, 403.350 138, 418.076 138 C 430.856 138, 438.874 135.289, 445.149 128.847 L 450 123.867 450 130.433 L 450 137 458 137 L 466 137 466.091 103.750 L 466.182 70.500 473.913 101 C 478.165 117.775, 481.958 132.738, 482.341 134.250 C 483.029 136.963, 483.146 137, 491.044 137 C 498.430 137, 499.115 136.826, 499.891 134.750 C 500.354 133.512, 504.281 118.325, 508.616 101 L 516.500 69.500 516.763 103.250 L 517.027 137 529.888 137 L 542.749 137 546.500 127 L 550.251 117 567.568 117 L 584.885 117 588.692 126.999 L 592.500 136.997 601.750 136.999 C 606.837 136.999, 610.962 136.662, 610.916 136.250 C 610.870 135.838, 603.107 116.375, 593.666 93 L 576.500 50.500 567.407 50.215 L 558.314 49.929 549.988 71.215 C 545.408 82.922, 540.652 95.200, 539.418 98.500 C 538.183 101.800, 536.266 106.525, 535.157 109 L 533.141 113.500 533.071 81.721 L 533 49.942 519.840 50.221 L 506.680 50.500 501.896 69 C 491.676 108.518, 491.689 108.474, 490.817 106.434 C 490.048 104.633, 476 51.603, 476 50.500 C 476 50.225, 470.150 50, 463 50 L 450 50 449.974 60.250 L 449.949 70.500 446.951 64.319 C 443.494 57.192, 438.231 52.740, 430.576 50.467 C 423.682 48.419, 408.833 48.605, 402.431 50.818 M 408.513 64.507 C 403.874 66.159, 402 68.326, 402 72.036 C 402 76.777, 405.470 78.777, 421.031 83.008 C 436.035 87.088, 441.295 89.478, 445.489 94.120 C 447.417 96.254, 449.221 98, 449.497 98 C 449.774 98, 450 93.050, 450 87 L 450 76 441.125 76 L 432.250 76 431.695 73.223 C 429.983 64.663, 419.328 60.657, 408.513 64.507 M 271 74.480 L 271 83.959 291.612 84.230 L 312.223 84.500 312.223 91.500 L 312.223 98.500 291.612 98.770 L 271 99.041 271 110.520 L 271 122 294 122 L 317 122 317 93.500 L 317 65 294 65 L 271 65 271 74.480 M 566.018 73.500 C 564.015 78.425, 556 101.076, 555.999 101.815 C 555.998 102.402, 578.107 102.197, 578.721 101.604 C 578.890 101.442, 573.025 85.532, 567.623 71.500 C 567.412 70.950, 566.689 71.850, 566.018 73.500 M 385.082 92.250 L 385 107 391.842 107 L 398.683 107 399.841 110.865 C 401.309 115.763, 404.301 119.579, 408.338 121.703 C 412.200 123.735, 423.411 123.952, 427 122.065 C 433.862 118.456, 436.693 112.233, 433.612 107.531 C 431.413 104.175, 429.944 103.514, 416.866 100 C 397.763 94.866, 390.823 90.480, 386.646 80.902 C 385.245 77.688, 385.159 78.315, 385.082 92.250" stroke="none" fill="#ffffff" fill-rule="evenodd"/>
</svg>