<svg xmlns="http://www.w3.org/2000/svg" width="200" height="91" viewBox="0 0 200 91" version="1.1">
	<path d="M 34 1.928 C 27.066 4.128, 20.553 7.438, 15.807 11.172 C 12.416 13.840, 4 25.147, 4 27.034 C 4 27.478, 5.324 28.132, 6.942 28.487 C 11.506 29.490, 17.855 34.634, 21.231 40.065 C 23.743 44.106, 24.556 44.783, 25.727 43.812 C 27.295 42.510, 31.296 34.950, 32.507 31 C 34.712 23.811, 46.262 11.808, 49.218 13.635 C 49.739 13.957, 51.756 16.706, 53.699 19.744 L 57.233 25.267 63.733 24.660 C 67.971 24.265, 71.699 23.194, 74.446 21.584 C 81.300 17.568, 81.521 16.856, 77.241 12.562 C 66.456 1.741, 48.503 -2.675, 34 1.928 M 105.454 45.500 C 105.453 66.400, 105.586 75.092, 105.748 64.816 C 105.911 54.540, 105.911 37.440, 105.749 26.816 C 105.587 16.192, 105.454 24.600, 105.454 45.500 M 80.040 20.452 C 77.206 23.866, 68.719 27, 62.304 27 C 53.769 27, 53.808 28.733, 62.591 40 C 68.020 46.965, 71.978 55.446, 71.990 60.143 C 72.002 64.437, 71.013 65, 63.460 65 C 58.104 65, 58.074 65.018, 55.300 69.750 C 53.134 73.445, 52.436 76.065, 52.159 81.545 C 51.697 90.667, 52.585 91.521, 59.860 88.959 C 76.753 83.010, 87.606 69.299, 90.121 50.729 C 91.527 40.351, 90.539 34.399, 85.857 25.029 C 82.676 18.665, 81.979 18.116, 80.040 20.452 M 120 33 C 120 37, 120.429 40, 121 40 C 121.556 40, 122 37.333, 122 34 C 122 28.267, 122.111 28, 124.500 28 C 125.875 28, 127 27.550, 127 27 C 127 26.450, 125.425 26, 123.500 26 L 120 26 120 33 M 131 26.550 C 131 26.852, 131.702 28.457, 132.560 30.116 C 134.012 32.925, 133.980 33.368, 132.094 36.566 C 130.654 39.005, 130.443 40, 131.365 40 C 132.078 40, 133.272 38.860, 134.017 37.467 L 135.373 34.935 137.597 37.717 C 140.567 41.433, 141.765 39.974, 139.180 35.791 C 137.177 32.550, 137.173 32.422, 138.988 30.016 C 141.564 26.600, 140.249 25.155, 137.593 28.486 L 135.438 31.188 134.050 28.594 C 132.817 26.290, 131 25.072, 131 26.550 M 145.639 26.694 C 145.288 27.046, 145 30.183, 145 33.667 C 145 38.630, 145.325 40, 146.500 40 C 147.500 40, 148 39, 148 37 C 148 35.350, 148.438 34, 148.974 34 C 149.510 34, 150.647 35.350, 151.500 37 C 152.353 38.650, 153.731 40, 154.562 40 C 155.731 40, 155.510 39.172, 153.584 36.338 L 151.095 32.675 153.157 29.780 C 156.149 25.578, 154.479 25.017, 151.020 29.063 L 148.081 32.500 148.041 29.809 C 147.999 27.079, 146.805 25.529, 145.639 26.694 M 1.792 31.763 C 1.160 33.269, 0.458 38.331, 0.231 43.013 C -0.100 49.851, 0.241 52.779, 1.966 57.899 C 6.376 70.990, 14.597 80.220, 27.544 86.619 C 33.413 89.520, 36.241 90.274, 42.980 90.736 C 51.198 91.299, 51.228 91.293, 50.513 89.041 C 48.901 83.963, 49.880 76.013, 52.889 69.745 C 54.519 66.349, 55.597 63.157, 55.285 62.652 C 54.945 62.102, 51.069 62.077, 45.609 62.590 C 32.273 63.843, 24.639 63.367, 19.984 60.992 C 17.793 59.874, 16 58.694, 16 58.370 C 16 58.045, 17.387 55.178, 19.082 51.998 C 22.118 46.302, 22.138 46.167, 20.467 42.858 C 17.350 36.684, 12.793 32.773, 5.477 29.991 C 3.241 29.141, 2.804 29.352, 1.792 31.763 M 40.150 38.527 C 36.350 41.725, 35.364 45.870, 37.447 49.897 C 39.355 53.587, 41.782 55, 46.212 55 C 50.565 55, 53.578 52.808, 54.953 48.641 C 56.322 44.494, 55.178 41.072, 51.440 38.131 C 47.839 35.299, 43.819 35.440, 40.150 38.527 M 120 60.603 C 120 63.755, 120.338 65.996, 120.750 65.583 C 121.162 65.171, 121.500 64.329, 121.500 63.712 C 121.500 63.095, 122.625 62.325, 124 62 C 125.969 61.535, 126.500 60.783, 126.500 58.455 C 126.500 55.852, 126.113 55.463, 123.250 55.187 L 120 54.873 120 60.603 M 131.557 57.223 C 128.729 61.260, 130.674 66, 135.160 66 C 138.444 66, 140 64.231, 140 60.500 C 140 58.795, 139.460 56.860, 138.800 56.200 C 136.891 54.291, 133.250 54.805, 131.557 57.223 M 145.200 56.200 C 144.540 56.860, 144 58.795, 144 60.500 C 144 64.292, 145.583 66.025, 148.950 65.921 L 151.500 65.842 148.748 64.837 C 143.736 63.007, 144.132 56.707, 149.323 55.696 C 151.243 55.322, 151.199 55.256, 148.950 55.136 C 147.548 55.061, 145.860 55.540, 145.200 56.200 M 156.594 59.678 C 154.797 64.952, 154.552 67.374, 156.080 64.750 C 157.336 62.594, 160.324 62.481, 162.020 64.524 C 162.716 65.362, 163.477 65.856, 163.712 65.621 C 164.344 64.989, 159.885 55, 158.971 55 C 158.540 55, 157.471 57.105, 156.594 59.678 M 166.250 55.689 C 167.622 56.048, 168 57.225, 168 61.132 C 168 64.201, 168.384 65.880, 169 65.500 C 169.550 65.160, 170 62.917, 170 60.514 C 170 57.196, 170.420 56.037, 171.750 55.689 C 172.713 55.438, 171.475 55.232, 169 55.232 C 166.525 55.232, 165.287 55.438, 166.250 55.689 M 176.333 57.615 C 174.795 59.961, 174.771 60.502, 176.098 62.865 C 177.169 64.773, 178.383 65.500, 180.500 65.500 C 182.617 65.500, 183.831 64.773, 184.902 62.865 C 186.229 60.502, 186.205 59.961, 184.667 57.615 C 183.590 55.971, 182.043 55, 180.500 55 C 178.957 55, 177.410 55.971, 176.333 57.615 M 189.667 55.667 C 188.563 56.770, 188.883 66.191, 190 65.500 C 190.550 65.160, 191.047 63.446, 191.103 61.691 L 191.207 58.500 192.214 62.297 C 193.241 66.170, 195.213 66.815, 195.858 63.488 C 196.055 62.472, 196.908 60.950, 197.753 60.104 C 199.136 58.721, 199.243 58.894, 198.812 61.827 C 198.549 63.621, 198.708 65.320, 199.167 65.603 C 199.625 65.886, 199.994 64.629, 199.986 62.809 C 199.956 55.553, 197.494 52.278, 196.354 57.978 C 196.027 59.615, 195.181 61.435, 194.475 62.021 C 193.477 62.849, 193.038 62.183, 192.507 59.043 C 191.850 55.153, 191.087 54.246, 189.667 55.667 M 121.688 56.646 C 120.272 58.061, 121.073 60, 123.073 60 C 124.471 60, 125.041 59.457, 124.823 58.333 C 124.466 56.492, 122.759 55.574, 121.688 56.646 M 133.200 57.200 C 131.585 58.815, 131.680 62.490, 133.373 63.895 C 136.500 66.490, 140.109 61.941, 138.020 58.038 C 136.790 55.739, 134.976 55.424, 133.200 57.200 M 178.200 57.200 C 175.030 60.370, 178.383 65.936, 182.224 63.880 C 185.285 62.242, 183.919 56, 180.500 56 C 179.895 56, 178.860 56.540, 178.200 57.200 M 158.201 59.255 C 157.269 60.380, 157.218 61.016, 158.018 61.511 C 159.498 62.426, 160.255 61.558, 159.838 59.423 C 159.534 57.860, 159.371 57.844, 158.201 59.255" stroke="none" fill="#ffffff" fill-rule="evenodd"/>
</svg>