<svg xmlns="http://www.w3.org/2000/svg" width="445" height="323" viewBox="0 0 445 323" version="1.1">
	<path d="M 239.089 18.238 C 237.844 21.132, 235.992 25.075, 234.974 27 C 233.956 28.925, 229.494 37.475, 225.058 46 C 220.622 54.525, 216.592 62.175, 216.103 63 C 215.614 63.825, 214.719 65.625, 214.114 67 C 213.509 68.375, 212.634 70.175, 212.169 71 C 210.520 73.928, 206.999 80.742, 197.097 100.169 C 191.583 110.987, 186.606 120.126, 186.036 120.478 C 185.466 120.830, 185 121.959, 185 122.988 C 185 127.888, 178.729 129.423, 172.210 126.120 C 170.170 125.086, 166.475 123.925, 164 123.539 C 158.847 122.738, 152.942 120.962, 151.550 119.796 C 151.028 119.358, 149.452 118.984, 148.050 118.965 C 146.648 118.945, 144.375 118.286, 143 117.500 C 141.625 116.714, 139.289 116.055, 137.809 116.035 C 136.329 116.016, 134.840 115.550, 134.500 115 C 134.160 114.450, 132.896 113.993, 131.691 113.985 C 130.486 113.977, 127.558 113.294, 125.184 112.467 C 122.810 111.641, 120.484 111.201, 120.017 111.490 C 119.549 111.779, 116.409 117.524, 113.039 124.258 C 109.669 130.991, 106.256 137.738, 105.456 139.250 C 104.655 140.762, 103.344 143.238, 102.543 144.750 C 91.292 165.985, 89 171.186, 89 175.485 C 89 178.460, 89.426 179.981, 90.250 179.944 C 90.938 179.913, 96.900 172.228, 103.500 162.866 C 110.100 153.504, 116.625 144.505, 118 142.869 L 120.500 139.895 129.500 141.919 C 146.227 145.681, 173.214 151.120, 177.923 151.677 L 182.603 152.232 212.051 111.141 C 233.823 80.763, 242.021 70.045, 243.500 70.026 C 244.601 70.012, 248.651 70.677, 252.500 71.505 C 256.350 72.332, 265.125 74.156, 272 75.558 C 278.875 76.960, 294.850 80.310, 307.500 83.002 C 349.968 92.040, 361.132 94.202, 361.818 93.518 C 362.193 93.143, 362.644 82.934, 362.821 70.831 C 363.117 50.501, 363.003 48.719, 361.321 47.444 C 360.319 46.685, 358.470 46.049, 357.210 46.032 C 355.951 46.014, 353.251 45.153, 351.210 44.119 C 349.170 43.084, 345.025 41.915, 342 41.520 C 338.975 41.126, 334.530 39.947, 332.123 38.901 C 329.715 37.856, 326.768 37, 325.573 37 C 324.378 37, 322.896 36.496, 322.280 35.880 C 321.259 34.859, 317.581 33.832, 309.500 32.313 C 307.850 32.003, 306.050 31.436, 305.500 31.054 C 304.950 30.673, 302.475 29.805, 300 29.127 C 297.525 28.449, 292.066 26.793, 287.870 25.447 C 283.673 24.101, 278.936 23, 277.342 23 C 275.749 23, 273.557 22.387, 272.473 21.637 C 271.388 20.888, 269.150 20.015, 267.500 19.698 C 261.088 18.465, 258.425 17.818, 256.500 17.026 C 252.366 15.323, 248.388 14.133, 244.927 13.563 C 241.406 12.984, 241.320 13.053, 239.089 18.238 M 234 95.349 C 198.725 139.806, 182.628 158.999, 180.635 158.978 C 179.461 158.967, 165.457 156.524, 149.515 153.551 C 128.019 149.541, 120.189 148.429, 119.207 149.243 C 118.479 149.848, 111.359 158.586, 103.386 168.661 L 88.890 186.979 89.195 191.740 C 89.385 194.707, 89.969 196.500, 90.745 196.500 C 91.429 196.500, 98.320 192.078, 106.057 186.673 C 119.142 177.531, 120.382 176.887, 123.812 177.441 C 129.571 178.372, 176.110 182.987, 179.809 182.994 C 182.497 182.999, 188.657 179.134, 212.628 162.402 L 242.138 141.805 271.819 144.919 C 300.575 147.937, 317.014 149.673, 341 152.225 C 347.325 152.898, 354.750 153.460, 357.500 153.474 L 362.500 153.500 362.768 130.470 L 363.036 107.441 355.768 106.135 C 351.771 105.418, 326.675 100.772, 300 95.812 C 273.325 90.852, 249.250 86.592, 246.500 86.345 L 241.500 85.897 234 95.349 M 237.500 160.342 C 235.300 161.583, 226.525 166.358, 218 170.954 C 209.475 175.549, 198.003 181.772, 192.506 184.783 L 182.513 190.258 167.006 189.057 C 158.478 188.397, 144.525 187.262, 136 186.536 L 120.500 185.216 106.500 192.682 C 98.800 196.789, 91.713 201.065, 90.750 202.185 C 88.426 204.889, 88.307 213.520, 90.582 214.393 C 91.452 214.727, 153.102 215, 227.582 215 L 363 215 363 192.035 C 363 171.175, 362.840 168.988, 361.250 168.167 C 360.288 167.670, 355.450 166.959, 350.500 166.588 C 345.550 166.216, 319.927 164.132, 293.561 161.956 C 267.194 159.780, 244.694 158.019, 243.561 158.042 C 242.427 158.065, 239.700 159.100, 237.500 160.342 M 275.177 259.078 C 276.513 262.909, 279.606 264.480, 283.156 263.131 C 286.115 262.006, 288.944 256, 286.515 256 C 285.756 256, 284.849 256.900, 284.500 258 C 284.049 259.420, 282.987 260, 280.839 260 C 278.654 260, 277.667 259.444, 277.290 258 C 277.002 256.900, 276.168 256, 275.435 256 C 274.383 256, 274.329 256.645, 275.177 259.078 M 6 278.070 L 6 299.139 8.216 298.820 C 9.965 298.568, 12.342 294.870, 19.466 281.323 L 28.500 264.146 28.773 281.573 C 29.033 298.173, 29.140 299, 31.023 299 C 32.930 299, 33 298.251, 33 277.930 L 33 256.861 30.775 257.180 C 29.017 257.433, 26.606 261.172, 19.285 275 L 10.019 292.500 10.010 274.750 C 10 257.670, 9.925 257, 8 257 C 6.063 257, 6 257.667, 6 278.070 M 105.500 267.954 C 96.758 271.570, 94.426 288.130, 101.562 295.916 C 104.456 299.073, 105.393 299.489, 109.425 299.404 C 114.363 299.301, 117.187 297.473, 119.591 292.824 C 120.833 290.423, 120.796 290.107, 119.239 289.804 C 118.181 289.599, 116.703 290.647, 115.466 292.483 C 110.931 299.207, 101 295.477, 101 287.050 C 101 285.119, 101.585 285, 111.114 285 L 121.227 285 120.518 280.250 C 119.598 274.085, 117.359 270.398, 113.393 268.516 C 109.848 266.834, 108.448 266.735, 105.500 267.954 M 160 267.704 C 150.677 271.096, 148.273 289.098, 156.137 296.631 C 158.565 298.956, 159.972 299.482, 163.567 299.404 C 168.354 299.301, 171.212 297.424, 173.591 292.824 C 174.833 290.423, 174.796 290.107, 173.239 289.804 C 172.181 289.599, 170.703 290.647, 169.466 292.483 C 164.931 299.207, 155 295.477, 155 287.050 C 155 285.118, 155.585 285, 165.128 285 L 175.256 285 174.586 280.813 C 173.563 274.414, 171.201 270.323, 167.522 268.577 C 164.084 266.946, 162.566 266.770, 160 267.704 M 189 267.709 C 188.175 268.013, 186.713 268.947, 185.750 269.785 C 184.174 271.158, 184 271.145, 184 269.655 C 184 268.667, 183.194 268, 182 268 C 180.062 268, 180 268.667, 180 289.500 C 180 310.333, 180.062 311, 182 311 C 183.827 311, 184.001 310.328, 184.015 303.250 C 184.024 298.988, 184.361 295.995, 184.765 296.600 C 186.119 298.627, 189.936 300.054, 192.370 299.443 C 198.433 297.921, 202.775 288.352, 201.440 279.451 C 200.155 270.878, 194.612 265.646, 189 267.709 M 342.500 267.954 C 333.813 271.547, 331.425 288.128, 338.485 295.832 C 341.273 298.874, 342.305 299.333, 346.355 299.333 C 351.279 299.333, 355.376 296.699, 356.985 292.500 C 358.341 288.960, 354.872 288.893, 352.506 292.413 C 347.942 299.204, 338 295.527, 338 287.050 C 338 285.119, 338.585 285, 348.114 285 L 358.227 285 357.518 280.250 C 356.598 274.085, 354.359 270.398, 350.393 268.516 C 346.848 266.834, 345.448 266.735, 342.500 267.954 M 420.335 268 C 419.145 268.480, 417.696 269.689, 417.116 270.686 C 416.150 272.347, 416.058 272.310, 416.030 270.250 C 416.009 268.677, 415.398 268, 414 268 C 412.062 268, 412 268.667, 412 289.500 C 412 310.333, 412.062 311, 414 311 C 415.827 311, 416.001 310.328, 416.015 303.250 C 416.024 298.988, 416.361 295.995, 416.765 296.600 C 418.119 298.627, 421.936 300.054, 424.370 299.443 C 435.346 296.689, 436.967 271.979, 426.434 267.975 C 423.452 266.841, 423.206 266.842, 420.335 268 M 40 283.500 C 40 298.333, 40.086 299, 42 299 C 43.810 299, 44 298.333, 44 292 L 44 285 50.500 285 L 57 285 57 292 C 57 298.333, 57.190 299, 59 299 C 60.914 299, 61 298.333, 61 283.500 C 61 268.667, 60.914 268, 59 268 C 57.205 268, 57 268.667, 57 274.500 L 57 281 50.500 281 L 44 281 44 274.500 C 44 268.667, 43.795 268, 42 268 C 40.086 268, 40 268.667, 40 283.500 M 65 270 C 65 271.306, 65.667 272, 66.921 272 C 68.235 272, 69.046 272.933, 69.490 274.953 C 69.846 276.577, 71.001 279.002, 72.055 280.343 C 73.783 282.539, 73.817 282.907, 72.404 284.080 C 70.742 285.459, 65 296.232, 65 297.971 C 65 298.537, 65.669 299, 66.486 299 C 67.353 299, 69.457 295.874, 71.532 291.500 C 73.556 287.236, 75.719 284, 76.546 284 C 77.689 284, 78 285.604, 78 291.500 C 78 298.333, 78.178 299, 80 299 C 81.822 299, 82 298.333, 82 291.500 C 82 287.375, 82.380 284, 82.845 284 C 84.382 284, 86.791 287.422, 89.358 293.250 C 90.877 296.699, 92.512 299, 93.445 299 C 94.300 299, 95 298.537, 95 297.971 C 95 296.211, 89.248 285.451, 87.556 284.047 C 86.160 282.888, 86.136 282.503, 87.375 281.107 C 88.159 280.223, 89.498 277.813, 90.349 275.750 C 91.201 273.688, 92.596 272, 93.449 272 C 94.362 272, 95 271.129, 95 269.883 C 95 268.176, 94.565 267.883, 92.750 268.370 C 91.513 268.701, 90.187 268.979, 89.804 268.986 C 89.421 268.994, 88.123 271.700, 86.920 275 C 83.941 283.170, 82 282.973, 82 274.500 C 82 268.667, 81.795 268, 80 268 C 78.205 268, 78 268.667, 78 274.500 C 78 282.931, 76.061 283.175, 73.122 275.113 C 71.569 270.854, 70.357 269.061, 68.738 268.627 C 65.337 267.715, 65 267.839, 65 270 M 126 283.500 C 126 298.333, 126.086 299, 128 299 C 129.810 299, 130 298.333, 130 292 L 130 285 136.500 285 L 143 285 143 292 C 143 298.333, 143.190 299, 145 299 C 146.914 299, 147 298.333, 147 283.500 C 147 268.667, 146.914 268, 145 268 C 143.205 268, 143 268.667, 143 274.500 L 143 281 136.500 281 L 130 281 130 274.500 C 130 268.667, 129.795 268, 128 268 C 126.086 268, 126 268.667, 126 283.500 M 207 283.500 C 207 298.333, 207.086 299, 209 299 C 210.810 299, 211 298.333, 211 292 L 211 285 217.500 285 L 224 285 224 292 C 224 298.333, 224.190 299, 226 299 C 227.914 299, 228 298.333, 228 283.500 C 228 268.667, 227.914 268, 226 268 C 224.205 268, 224 268.667, 224 274.500 L 224 281 217.500 281 L 211 281 211 274.500 C 211 268.667, 210.795 268, 209 268 C 207.086 268, 207 268.667, 207 283.500 M 234 283.500 L 234 299 240.250 298.900 C 249.332 298.755, 251.233 297.996, 253.362 293.664 C 255.035 290.261, 255.082 289.501, 253.825 286.188 C 252.273 282.098, 248.451 280.157, 241.750 280.056 L 238 280 238 274 C 238 268.667, 237.778 268, 236 268 C 234.086 268, 234 268.667, 234 283.500 M 259 283.500 C 259 298.333, 259.086 299, 261 299 C 262.914 299, 263 298.333, 263 283.500 C 263 268.667, 262.914 268, 261 268 C 259.086 268, 259 268.667, 259 283.500 M 270 283.500 C 270 298.076, 270.114 299, 271.905 299 C 273.914 299, 275.787 296.202, 282.619 283 L 286.500 275.500 286.782 287.250 C 287.044 298.175, 287.202 299, 289.032 299 C 290.905 299, 291 298.250, 291 283.430 C 291 268.202, 290.954 267.868, 288.910 268.180 C 287.476 268.400, 285.549 270.854, 282.769 276 C 280.542 280.125, 277.661 285.300, 276.369 287.500 L 274.019 291.500 274.009 279.750 C 274.001 268.670, 273.886 268, 272 268 C 270.086 268, 270 268.667, 270 283.500 M 308 283.500 L 308 299 318 299 L 328 299 328 305 C 328 310.333, 328.222 311, 330 311 C 331.833 311, 332 310.333, 332 303 C 332 296.556, 331.708 295, 330.500 295 C 329.241 295, 329 292.833, 329 281.500 C 329 268.667, 328.901 268, 327 268 C 325.099 268, 325 268.667, 325 281.500 L 325 295 318.500 295 L 312 295 312 281.500 C 312 268.667, 311.901 268, 310 268 C 308.086 268, 308 268.667, 308 283.500 M 363 283.500 C 363 298.333, 363.086 299, 365 299 C 366.810 299, 367 298.333, 367 292 L 367 285 373.500 285 L 380 285 380 292 C 380 298.333, 380.190 299, 382 299 C 383.914 299, 384 298.333, 384 283.500 C 384 268.667, 383.914 268, 382 268 C 380.205 268, 380 268.667, 380 274.500 L 380 281 373.500 281 L 367 281 367 274.500 C 367 268.667, 366.795 268, 365 268 C 363.086 268, 363 268.667, 363 283.500 M 388 270 C 388 271.667, 388.667 272, 392 272 L 396 272 396 285.500 C 396 298.333, 396.099 299, 398 299 C 399.901 299, 400 298.333, 400 285.500 L 400 272 404 272 C 407.333 272, 408 271.667, 408 270 C 408 268.133, 407.333 268, 398 268 C 388.667 268, 388 268.133, 388 270 M 105.442 271.765 C 103.578 273.060, 101 277.388, 101 279.223 C 101 280.778, 102 281, 109 281 C 116.745 281, 117 280.925, 117 278.635 C 117 274.797, 113.348 270.998, 109.677 271.015 C 107.930 271.024, 106.024 271.361, 105.442 271.765 M 159.442 271.765 C 157.578 273.060, 155 277.388, 155 279.223 C 155 280.778, 156 281, 163 281 C 170.745 281, 171 280.925, 171 278.635 C 171 274.797, 167.348 270.998, 163.677 271.015 C 161.930 271.024, 160.024 271.361, 159.442 271.765 M 185.933 274.250 C 183.209 278.595, 183.509 290.695, 186.420 293.912 C 189.367 297.168, 193.618 296.656, 196.067 292.750 C 198.791 288.405, 198.491 276.305, 195.580 273.088 C 192.633 269.832, 188.382 270.344, 185.933 274.250 M 342.442 271.765 C 340.578 273.060, 338 277.388, 338 279.223 C 338 280.778, 339 281, 346 281 C 353.905 281, 354 280.970, 354 278.455 C 354 273.443, 346.378 269.032, 342.442 271.765 M 417.933 274.250 C 415.209 278.595, 415.509 290.695, 418.420 293.912 C 421.367 297.168, 425.618 296.656, 428.067 292.750 C 430.791 288.405, 430.491 276.305, 427.580 273.088 C 424.633 269.832, 420.382 270.344, 417.933 274.250 M 238 289.500 L 238 295 242.929 295 C 248.656 295, 251 293.247, 251 288.964 C 251 285.367, 248.678 284, 242.566 284 L 238 284 238 289.500" stroke="none" fill="#ffffff" fill-rule="evenodd"/>
</svg>