<svg xmlns="http://www.w3.org/2000/svg" width="158" height="164" viewBox="0 0 158 164" version="1.1">
	<path d="M 70 11 C 70 11.550, 68.650 12, 67 12 C 65.350 12, 64 12.450, 64 13 C 64 13.550, 63.100 14, 62 14 C 60.900 14, 60 14.450, 60 15 C 60 15.550, 59.100 16, 58 16 C 56.900 16, 56 16.450, 56 17 C 56 17.550, 55.342 18, 54.538 18 C 52.632 18, 34 36.632, 34 38.538 C 34 39.342, 33.550 40, 33 40 C 32.450 40, 32 40.675, 32 41.500 C 32 42.325, 31.550 43, 31 43 C 30.450 43, 30 43.900, 30 45 C 30 46.100, 29.550 47, 29 47 C 28.450 47, 28 48.125, 28 49.500 C 28 50.875, 27.550 52, 27 52 C 26.450 52, 26 53.350, 26 55 C 26 56.650, 25.550 58, 25 58 C 24.450 58, 24 60.475, 24 63.500 C 24 66.525, 23.550 69, 23 69 C 22.450 69, 22 71.475, 22 74.500 C 22 77.525, 22.450 80, 23 80 C 23.550 80, 24 81.800, 24 84 C 24 86.200, 24.450 88, 25 88 C 25.550 88, 26 89.350, 26 91 C 26 92.650, 26.450 94, 27 94 C 27.550 94, 28 94.801, 28 95.779 C 28 96.758, 28.900 98.207, 30 99 C 31.100 99.793, 32 101.052, 32 101.799 C 32 102.546, 33.800 104.886, 36 107 C 40.380 111.209, 40.771 112, 38.467 112 C 36.595 112, 30 105.577, 30 103.754 C 30 103.032, 29.100 101.793, 28 101 C 26.900 100.207, 26 98.758, 26 97.779 C 26 96.801, 25.550 96, 25 96 C 24.450 96, 24 95.100, 24 94 C 24 92.900, 23.550 92, 23 92 C 22.450 92, 22 90.843, 22 89.429 C 22 86.535, 19.932 84, 17.571 84 C 16.707 84, 16 83.550, 16 83 C 16 82.450, 15.325 82, 14.500 82 C 13.675 82, 13 82.450, 13 83 C 13 83.550, 11.425 84, 9.500 84 C 6.025 84, 6 84.032, 6 88.441 C 6 90.884, 6.450 93.160, 7 93.500 C 7.550 93.840, 8 95.441, 8 97.059 C 8 98.677, 8.450 100, 9 100 C 9.550 100, 10 100.900, 10 102 C 10 103.100, 10.450 104, 11 104 C 11.550 104, 12 104.801, 12 105.779 C 12 106.758, 12.900 108.207, 14 109 C 15.100 109.793, 16 111.024, 16 111.737 C 16 113.556, 30.640 128, 32.484 128 C 33.318 128, 34 128.450, 34 129 C 34 129.550, 34.563 130.010, 35.250 130.022 C 35.938 130.034, 37.625 130.924, 39 132 C 40.375 133.076, 42.513 133.966, 43.750 133.978 C 44.987 133.990, 46 134.450, 46 135 C 46 135.550, 47.350 136, 49 136 C 50.650 136, 52 136.450, 52 137 C 52 137.615, 57 138, 65 138 C 73 138, 78 137.615, 78 137 C 78 136.450, 79.350 136, 81 136 C 82.650 136, 84 135.550, 84 135 C 84 134.450, 85.152 134, 86.559 134 C 88.010 134, 88.851 133.567, 88.500 133 C 88.160 132.450, 88.809 132, 89.941 132 C 91.073 132, 92 131.550, 92 131 C 92 130.450, 92.690 130, 93.533 130 C 95.281 130, 102 123.631, 102 121.974 C 102 121.374, 102.450 121.160, 103 121.500 C 103.550 121.840, 104 121.384, 104 120.488 C 104 119.591, 104.679 118.178, 105.509 117.348 C 106.339 116.518, 106.720 115.356, 106.355 114.765 C 105.961 114.128, 106.161 113.982, 106.845 114.405 C 107.603 114.873, 108 114.239, 108 112.559 C 108 111.152, 108.450 110, 109 110 C 109.550 110, 110 108.848, 110 107.441 C 110 105.990, 110.433 105.149, 111 105.500 C 111.644 105.898, 112 102.177, 112 95.059 L 112 84 104 84 L 96 84 96 93.500 C 96 99.167, 95.596 103, 95 103 C 94.450 103, 93.999 103.787, 93.998 104.750 C 93.996 105.713, 92.647 108.075, 91 110 C 89.353 111.925, 88.004 114.063, 88.002 114.750 C 88.001 115.438, 87.199 116, 86.221 116 C 85.242 116, 83.793 116.900, 83 118 C 82.207 119.100, 80.533 120, 79.279 120 C 78.026 120, 77 120.478, 77 121.062 C 77 121.775, 73.461 121.972, 66.250 121.662 C 53.895 121.129, 47.776 120.171, 48.567 118.892 C 48.870 118.401, 48.416 118, 47.559 118 C 46.702 118, 46 117.550, 46 117 C 46 116.450, 45.293 116, 44.429 116 C 42.108 116, 39.505 113.095, 40.729 111.871 C 41.395 111.205, 42.250 111.393, 43.293 112.436 C 44.153 113.296, 45.564 114, 46.429 114 C 47.293 114, 48 114.450, 48 115 C 48 115.550, 48.900 116, 50 116 C 51.100 116, 52 116.450, 52 117 C 52 117.550, 53.800 118, 56 118 C 58.200 118, 60 118.450, 60 119 C 60 119.565, 62.853 120, 66.559 120 C 70.677 120, 72.888 119.628, 72.500 119 C 72.160 118.450, 72.809 118, 73.941 118 C 75.848 118, 76 117.410, 76 110 C 76 105.333, 75.583 102, 75 102 C 74.450 102, 74 102.450, 74 103 C 74 103.571, 71 104, 67 104 C 63 104, 60 103.571, 60 103 C 60 102.450, 58.848 102, 57.441 102 C 55.990 102, 55.149 101.567, 55.500 101 C 55.840 100.450, 55.191 100, 54.059 100 C 52.927 100, 52 99.550, 52 99 C 52 98.450, 51.293 98, 50.429 98 C 48.633 98, 46 95.665, 46 94.071 C 46 93.482, 45.550 93, 45 93 C 44.450 93, 44 92.325, 44 91.500 C 44 90.675, 43.550 90, 43 90 C 42.450 90, 42 89.100, 42 88 C 42 86.900, 41.550 86, 41 86 C 40.450 86, 40 84.425, 40 82.500 C 40 80.575, 39.550 79, 39 79 C 38.450 79, 38 76.525, 38 73.500 C 38 70.475, 38.450 68, 39 68 C 39.550 68, 40 65.975, 40 63.500 C 40 61.025, 40.450 59, 41 59 C 41.550 59, 42 57.875, 42 56.500 C 42 55.125, 42.450 54, 43 54 C 43.550 54, 44 53.100, 44 52 C 44 50.900, 44.450 50, 45 50 C 45.550 50, 46 49.073, 46 47.941 C 46 46.809, 46.450 46.160, 47 46.500 C 47.550 46.840, 48 46.633, 48 46.040 C 48 44.631, 60.210 32.597, 62.068 32.175 C 62.856 31.996, 63.650 31.434, 63.833 30.925 C 64.017 30.416, 65.029 30, 66.083 30 C 67.138 30, 68 29.550, 68 29 C 68 28.450, 69.350 28, 71 28 C 72.650 28, 74 27.550, 74 27 C 74 26.450, 74.900 26, 76 26 C 77.833 26, 78 25.333, 78 18 L 78 10 74 10 C 71.800 10, 70 10.450, 70 11 M 78 29 C 78 29.550, 76.688 30, 75.083 30 C 73.479 30, 72.017 30.446, 71.833 30.991 C 71.650 31.537, 70.295 32.082, 68.822 32.204 C 67.349 32.325, 66.363 32.779, 66.631 33.212 C 66.899 33.645, 66.416 34, 65.559 34 C 64.702 34, 64 34.450, 64 35 C 64 35.550, 63.315 36, 62.478 36 C 60.622 36, 51.043 45.485, 49.081 49.265 C 48.301 50.769, 47.288 52, 46.831 52 C 46.374 52, 46 52.873, 46 53.941 C 46 55.009, 45.550 56.160, 45 56.500 C 44.450 56.840, 44 58.666, 44 60.559 C 44 62.452, 43.550 64, 43 64 C 42.411 64, 42 67.524, 42 72.571 C 42 83.282, 42.593 84, 51.429 84 L 58 84 58 74 C 58 68, 58.400 64, 59 64 C 59.550 64, 60 63.100, 60 62 C 60 60.900, 60.450 60, 61 60 C 61.550 60, 62 59.313, 62 58.474 C 62 56.489, 70.489 48, 72.474 48 C 73.313 48, 74 47.550, 74 47 C 74 46.450, 75.323 46, 76.941 46 C 78.559 46, 80.160 45.550, 80.500 45 C 80.840 44.450, 84.215 44, 88 44 C 91.785 44, 95.160 44.450, 95.500 45 C 95.840 45.550, 97.441 46, 99.059 46 C 100.677 46, 102 46.450, 102 47 C 102 47.550, 103.125 48, 104.500 48 C 105.875 48, 107 48.450, 107 49 C 107 49.550, 107.675 50, 108.500 50 C 109.325 50, 110 50.450, 110 51 C 110 51.550, 110.683 52, 111.519 52 C 113.496 52, 126 64.504, 126 66.481 C 126 67.317, 126.450 68, 127 68 C 127.550 68, 128 68.675, 128 69.500 C 128 70.325, 128.450 71, 129 71 C 129.550 71, 130 72.125, 130 73.500 C 130 74.875, 130.450 76, 131 76 C 131.550 76, 132 77.157, 132 78.571 C 132 79.986, 132.643 81.786, 133.429 82.571 C 135.424 84.567, 146.629 84.514, 148.643 82.500 C 149.468 81.675, 149.661 81, 149.071 81 C 148.482 81, 148 79.173, 148 76.941 C 148 74.490, 147.604 73.127, 147 73.500 C 146.417 73.861, 146 72.844, 146 71.059 C 146 69.377, 145.550 68, 145 68 C 144.450 68, 144 66.848, 144 65.441 C 144 63.990, 143.567 63.149, 143 63.500 C 142.450 63.840, 142 63.410, 142 62.545 C 142 60.563, 140.028 57.013, 137.750 54.893 C 136.787 53.998, 136 52.726, 136 52.068 C 136 50.706, 126.335 41, 124.979 41 C 124.490 41, 122.966 39.875, 121.591 38.500 C 120.216 37.125, 118.395 36, 117.545 36 C 116.695 36, 116 35.550, 116 35 C 116 34.450, 115.100 34, 114 34 C 112.900 34, 112 33.550, 112 33 C 112 32.450, 110.650 32, 109 32 C 107.350 32, 106 31.550, 106 31 C 106 30.450, 104.452 30, 102.559 30 C 100.666 30, 98.840 29.550, 98.500 29 C 98.155 28.442, 93.490 28, 87.941 28 C 81.980 28, 78 28.400, 78 29 M 78 56 L 78 64 87 64 C 92.333 64, 96 64.407, 96 65 C 96 65.550, 96.900 66, 98 66 C 99.100 66, 100 66.450, 100 67 C 100 67.550, 100.690 68, 101.533 68 C 103.281 68, 110 74.369, 110 76.026 C 110 76.626, 110.450 76.840, 111 76.500 C 111.550 76.160, 112 76.809, 112 77.941 C 112 79.073, 112.450 80, 113 80 C 113.550 80, 114 81.800, 114 84 C 114 86.200, 114.450 88, 115 88 C 115.557 88, 116 90.686, 116 94.059 C 116 97.844, 115.625 99.886, 115 99.500 C 114.389 99.122, 114 100.656, 114 103.441 C 114 105.948, 113.550 108, 113 108 C 112.450 108, 112 109.350, 112 111 C 112 112.650, 111.550 114, 111 114 C 110.450 114, 110 114.801, 110 115.779 C 110 116.758, 109.100 118.207, 108 119 C 106.900 119.793, 106 120.929, 106 121.525 C 106 123.010, 99.496 130, 98.115 130 C 97.502 130, 97 130.450, 97 131 C 97 131.550, 96.424 132, 95.721 132 C 95.017 132, 93.793 132.900, 93 134 C 92.207 135.100, 90.758 136, 89.779 136 C 88.801 136, 88 136.450, 88 137 C 88 137.550, 86.650 138, 85 138 C 83.350 138, 82 138.450, 82 139 C 82 139.550, 80.650 140, 79 140 L 76 140 76 148.109 L 76 156.219 79.250 155.639 C 81.037 155.319, 84.188 154.771, 86.250 154.420 C 88.313 154.069, 90 153.380, 90 152.891 C 90 152.401, 90.900 152, 92 152 C 93.100 152, 94 151.550, 94 151 C 94 150.450, 94.900 150, 96 150 C 97.100 150, 98 149.550, 98 149 C 98 148.450, 98.801 148, 99.779 148 C 100.758 148, 102.207 147.100, 103 146 C 103.793 144.900, 105.027 144, 105.742 144 C 107.351 144, 118 133.478, 118 131.889 C 118 131.254, 118.787 130.002, 119.750 129.107 C 122.003 127.010, 124 123.443, 124 121.514 C 124 120.681, 124.450 120, 125 120 C 125.550 120, 126 119.100, 126 118 C 126 116.900, 126.450 116, 127 116 C 127.550 116, 128 114.650, 128 113 C 128 111.350, 128.450 110, 129 110 C 129.550 110, 130 107.552, 130 104.559 C 130 101.566, 130.450 98.840, 131 98.500 C 131.550 98.160, 132 95.407, 132 92.382 C 132 88.970, 131.620 87.117, 131 87.500 C 130.384 87.881, 130 86.177, 130 83.059 C 130 80.277, 129.550 78, 129 78 C 128.450 78, 128 76.960, 128 75.689 C 128 74.417, 127.100 72.411, 126 71.230 C 124.900 70.050, 124 68.570, 124 67.943 C 124 67.316, 122.666 65.556, 121.035 64.033 C 119.404 62.509, 118.354 60.979, 118.702 60.632 C 119.049 60.284, 118.764 60, 118.068 60 C 117.372 60, 115.541 58.650, 114 57 C 112.459 55.350, 110.478 54, 109.599 54 C 108.719 54, 108 53.550, 108 53 C 108 52.450, 107.100 52, 106 52 C 104.900 52, 104 51.550, 104 51 C 104 50.450, 102.875 50, 101.500 50 C 100.125 50, 99 49.550, 99 49 C 99 48.397, 94.833 48, 88.500 48 L 78 48 78 56" stroke="none" fill="#ffffff" fill-rule="evenodd"/>
</svg>