<svg xmlns="http://www.w3.org/2000/svg" width="134" height="102" viewBox="0 0 134 102" version="1.1">
	<path d="M 74 33.500 C 74 45.833, 73.632 53, 73 53 C 71.992 53, 71.520 48.249, 71.933 42.250 C 72.119 39.540, 71.806 39, 70.047 39 C 67.801 39, 67.692 38.818, 66.011 32.250 C 64.961 28.148, 64.785 28, 60.961 28 C 56.756 28, 56.915 27.752, 56.632 34.749 C 56.559 36.536, 56.050 38, 55.500 38.003 C 54.131 38.011, 54.047 29.680, 55.407 28.765 C 56.008 28.361, 54.209 28.024, 51.408 28.015 L 46.316 28 44.049 38 C 42.802 43.500, 41.463 48, 41.073 48 C 40.682 48, 39.223 43.963, 37.829 39.028 L 35.294 30.056 40.397 28.581 C 43.204 27.769, 47.710 26.613, 50.411 26.012 C 61.348 23.578, 58.340 23.061, 33.083 23.030 C 19.104 23.014, 7.942 23.276, 8.279 23.613 C 8.616 23.950, 13.666 25.474, 19.500 27 C 25.334 28.526, 30.286 29.953, 30.505 30.171 C 30.723 30.390, 28.535 38.653, 25.643 48.534 L 20.385 66.500 10.693 66.786 L 1 67.072 1 84.036 L 1 101 67 101 L 133 101 133 84 C 133 68.486, 132.847 66.998, 131.250 66.975 C 130.287 66.961, 118.700 66.848, 105.500 66.725 L 81.500 66.500 81.233 40.250 L 80.967 14 77.483 14 L 74 14 74 33.500 M 11.367 33.179 C 11.487 36.184, 12.083 38.528, 12.787 38.762 C 13.454 38.985, 14.040 38.792, 14.090 38.333 C 14.918 30.648, 14.624 28, 12.941 28 C 11.437 28, 11.193 28.803, 11.367 33.179 M 32.129 35.389 C 30.770 38.703, 31.150 39.729, 32.940 37.572 C 33.614 36.760, 33.974 35.287, 33.740 34.298 C 33.401 32.864, 33.075 33.086, 32.129 35.389 M 32.602 41.501 C 30.434 43.141, 31.195 44.578, 36.070 48.050 L 38.818 50.007 37.218 45.003 C 35.461 39.509, 35.347 39.422, 32.602 41.501 M 27.012 52.143 C 25.804 56.190, 24.407 60.534, 23.908 61.797 C 22.152 66.238, 23.067 65.971, 30.500 59.870 C 34.625 56.484, 38 53.647, 38 53.565 C 38 53.483, 36.022 51.475, 33.604 49.102 L 29.207 44.787 27.012 52.143 M 37.971 56.303 C 36.030 58.062, 32.430 61.183, 29.971 63.241 L 25.500 66.982 31.428 66.741 L 37.357 66.500 38.542 61.220 C 39.194 58.316, 39.951 55.716, 40.224 55.442 C 40.498 55.169, 41.485 57.668, 42.419 60.996 C 43.352 64.323, 44.515 66.800, 45.001 66.499 C 45.488 66.198, 45.175 63.825, 44.305 61.226 C 41.327 52.327, 41.883 52.760, 37.971 56.303 M 9 84.500 C 9 89.477, 9.336 91, 10.434 91 C 11.242 91, 12.005 89.834, 12.184 88.327 C 12.644 84.434, 15 84.091, 15 87.917 C 15 90.333, 15.432 91, 17 91 C 18.795 91, 19 90.333, 19 84.500 C 19 78.667, 18.795 78, 17 78 C 15.533 78, 15 78.667, 15 80.500 C 15 82.056, 14.433 83, 13.500 83 C 12.567 83, 12 82.056, 12 80.500 C 12 78.944, 11.433 78, 10.500 78 C 9.321 78, 9 79.389, 9 84.500 M 21 84.500 C 21 89.611, 21.321 91, 22.500 91 C 23.652 91, 24 89.722, 24 85.500 C 24 81.278, 24.348 80, 25.500 80 C 26.652 80, 27 81.278, 27 85.500 C 27 90.333, 27.242 91, 29 91 C 30.795 91, 31 90.333, 31 84.500 L 31 78 26 78 L 21 78 21 84.500 M 33 84.500 C 33 89.611, 33.321 91, 34.500 91 C 35.325 91, 36 90.127, 36 89.059 C 36 86.067, 37.553 85.797, 39.018 88.534 C 39.744 89.890, 41.147 91, 42.135 91 C 43.800 91, 43.774 90.732, 41.782 87.354 C 39.744 83.901, 39.717 83.558, 41.269 80.854 C 43.494 76.977, 40.992 76.894, 38.115 80.750 L 36.063 83.500 36.032 80.750 C 36.011 78.986, 35.462 78, 34.500 78 C 33.321 78, 33 79.389, 33 84.500 M 49 78.930 C 49 79.442, 49.977 80.005, 51.172 80.180 C 54.185 80.624, 54.552 82.591, 51.791 83.500 L 49.500 84.254 51.808 84.704 C 54.769 85.282, 54.341 88.377, 51.240 88.820 C 47.955 89.288, 48.507 91, 51.943 91 C 57.116 91, 59.684 84.850, 56.443 80.223 C 54.884 77.996, 49 76.975, 49 78.930 M 60.099 84.174 C 58.952 87.569, 58.273 90.606, 58.589 90.922 C 59.432 91.765, 62 87.916, 62 85.809 C 62 82.606, 63.888 83.885, 64.576 87.554 C 65.187 90.811, 65.502 91.083, 68.340 90.804 C 70.870 90.556, 71.606 89.905, 72.363 87.250 C 73.565 83.032, 74.745 83.124, 75.566 87.500 C 76.056 90.111, 76.729 91, 78.218 91 C 79.394 91, 80.024 90.487, 79.753 89.750 C 79.499 89.063, 78.515 86.138, 77.565 83.250 C 76.616 80.362, 75.237 78, 74.500 78 C 73.763 78, 72.415 80.245, 71.504 82.988 C 70.593 85.732, 69.507 88.186, 69.092 88.443 C 68.677 88.700, 67.563 86.455, 66.617 83.455 C 65.646 80.373, 64.307 78, 63.541 78 C 62.770 78, 61.283 80.666, 60.099 84.174 M 81 84.500 C 81 91.689, 82.600 93.172, 85.046 88.250 L 86.412 85.500 86.773 88.250 C 87.025 90.178, 87.711 91, 89.066 91 C 90.780 91, 91 90.259, 91 84.500 C 91 77.043, 89.612 76.048, 86.466 81.250 L 84.500 84.500 84.187 81.250 C 83.993 79.237, 83.327 78, 82.437 78 C 81.335 78, 81 79.516, 81 84.500 M 93 84.500 C 93 89.611, 93.321 91, 94.500 91 C 95.433 91, 96 90.056, 96 88.500 C 96 86.721, 96.541 86, 97.878 86 C 100.598 86, 102.328 83.444, 101.593 80.513 C 101.051 78.355, 100.399 78, 96.981 78 L 93 78 93 84.500 M 104.200 79.200 C 102.646 80.754, 102.646 88.246, 104.200 89.800 C 105.865 91.465, 110.504 91.303, 111.978 89.527 C 112.650 88.717, 113.200 86.455, 113.200 84.500 C 113.200 82.545, 112.650 80.283, 111.978 79.473 C 110.504 77.697, 105.865 77.535, 104.200 79.200 M 115 84.500 C 115 89.477, 115.336 91, 116.434 91 C 117.242 91, 118.005 89.834, 118.184 88.327 C 118.644 84.434, 121 84.091, 121 87.917 C 121 90.333, 121.432 91, 123 91 C 124.795 91, 125 90.333, 125 84.500 C 125 78.667, 124.795 78, 123 78 C 121.533 78, 121 78.667, 121 80.500 C 121 82.056, 120.433 83, 119.500 83 C 118.567 83, 118 82.056, 118 80.500 C 118 78.944, 117.433 78, 116.500 78 C 115.321 78, 115 79.389, 115 84.500 M 96 82 C 96 83.289, 96.506 83.998, 97.250 83.750 C 97.938 83.521, 98.500 82.733, 98.500 82 C 98.500 81.267, 97.938 80.479, 97.250 80.250 C 96.506 80.002, 96 80.711, 96 82 M 106 84.500 C 106 88.333, 106.296 89, 108 89 C 109.704 89, 110 88.333, 110 84.500 C 110 80.667, 109.704 80, 108 80 C 106.296 80, 106 80.667, 106 84.500" stroke="none" fill="#ffffff" fill-rule="evenodd"/>
</svg>