<svg xmlns="http://www.w3.org/2000/svg" width="800" height="444" viewBox="0 0 800 444" version="1.1">
	<path d="M 574 0.628 C 567.018 1.013, 539.764 3.751, 534 4.646 C 526.243 5.851, 513.656 8.082, 498 11.025 C 488.925 12.731, 475.200 15.215, 467.500 16.546 C 451.559 19.300, 430.656 24.290, 412.752 29.615 C 406.013 31.619, 398.475 33.836, 396 34.541 C 388.367 36.717, 339.688 53.066, 336.349 54.576 C 334.616 55.359, 332.909 56, 332.555 56 C 331.471 56, 307.031 65.882, 297.500 70.175 C 288.054 74.429, 283.507 76.538, 265.500 85.017 C 259.450 87.866, 251.575 91.548, 248 93.198 C 235.305 99.061, 220.923 106.457, 210 112.742 C 202.039 117.322, 191.292 123.570, 175.750 132.653 C 160.170 141.758, 143.192 151, 142.047 151 C 139.959 151, 142.594 137.684, 147.391 124 C 149.343 118.430, 151.494 103.730, 150.671 101.585 C 149.761 99.214, 107.942 99.201, 105.571 101.571 C 104.707 102.436, 104 103.367, 104 103.640 C 104 103.913, 102.400 111.419, 100.444 120.318 C 98.488 129.218, 96.486 138.525, 95.996 141 C 95.505 143.475, 93.296 154.137, 91.086 164.693 C 88.876 175.249, 86.760 186.889, 86.384 190.558 L 85.700 197.231 88.100 195.960 C 91.308 194.260, 96.131 190.658, 104.101 184.008 C 116.669 173.521, 122.892 169.055, 129.717 165.623 C 138.002 161.457, 137.928 161.354, 135.853 174.250 C 133.693 187.668, 133.677 188, 135.161 188 C 136.246 188, 147.900 179.567, 152.608 175.376 C 153.767 174.344, 157.586 171.025, 161.094 168 C 164.602 164.975, 172.428 157.982, 178.486 152.459 C 184.544 146.937, 191.075 140.996, 193 139.258 C 194.925 137.519, 200.728 132.033, 205.895 127.067 C 211.063 122.101, 217.225 117.101, 219.589 115.957 L 223.888 113.876 308.694 114.948 C 355.337 115.538, 423.200 116.455, 459.500 116.986 C 495.800 117.517, 553.401 118.255, 587.503 118.625 C 657.233 119.383, 651.500 120.019, 652.652 111.399 C 653.013 108.705, 653.730 106.223, 654.246 105.884 C 654.763 105.545, 658.358 105.872, 662.236 106.611 C 669.491 107.993, 697.937 115.470, 701.500 116.930 C 702.600 117.381, 706.200 118.531, 709.500 119.486 C 712.800 120.440, 717.525 122.143, 720 123.270 C 724.300 125.228, 724.389 125.352, 722 126.059 C 711.705 129.107, 647.341 147, 646.673 147 C 646.450 147, 646.489 143.892, 646.761 140.093 L 647.255 133.187 640.378 132.448 C 630.903 131.430, 590.231 131.345, 556 132.271 C 516.242 133.347, 377.948 134.906, 327.500 134.847 C 285.949 134.798, 259.301 135.884, 249.268 138.036 C 242.998 139.381, 242.957 139.412, 219.158 160.900 C 208.480 170.540, 192.731 185.303, 182.722 195.052 C 169.633 207.802, 170.445 205.969, 174.108 214.500 C 174.580 215.600, 179.928 229.775, 185.991 246 C 192.054 262.225, 197.459 276.400, 198.001 277.500 C 199.527 280.598, 202 288.096, 202 289.626 C 202 290.754, 197.664 290.996, 177.750 290.978 L 153.500 290.955 150.111 282.228 C 148.247 277.427, 145.720 271.250, 144.496 268.500 C 141.066 260.799, 134.464 244.081, 132.596 238.368 C 131.673 235.545, 130.040 232.441, 128.968 231.471 C 127.074 229.757, 126.961 229.834, 125.067 234.116 C 123.026 238.729, 119.952 253.537, 118.033 268 C 115.922 283.908, 112.220 291.764, 104.474 296.778 C 103.388 297.481, 98.225 300.864, 93 304.297 C 76.319 315.255, 62.264 323, 59.057 323 C 58.503 323, 58.251 321.762, 58.497 320.250 C 60.304 309.133, 63.374 292.501, 64.542 287.500 C 65.313 284.200, 66.407 279.025, 66.973 276 C 68.896 265.725, 69.963 260.868, 70.485 260.024 C 71.198 258.870, 77.594 226.419, 79.117 216.227 C 79.898 210.999, 80.003 207.603, 79.403 207.003 C 76.940 204.540, 59.725 219.565, 45.670 236.443 C 36.578 247.361, 23 266.596, 23 268.557 C 23 268.989, 22.372 270.053, 21.604 270.921 C 20.836 271.790, 18.637 275.650, 16.717 279.500 C 9.929 293.113, 6.734 301.538, 3.341 314.776 C 0.992 323.939, 0.589 327.538, 0.572 339.500 C 0.549 355.190, 2.368 363.805, 8.129 375.299 C 11.415 381.855, 20.231 393.598, 25.409 398.317 C 41.426 412.912, 62.927 424.153, 87.798 430.936 C 97.208 433.503, 100.740 434.317, 112 436.517 C 138.784 441.749, 188.249 444.790, 217.500 443.001 C 236.430 441.844, 235.533 441.961, 278 435.098 C 294.775 432.387, 310.975 429.820, 314 429.395 C 317.025 428.969, 319.725 428.571, 320 428.511 C 320.275 428.451, 322.750 428.063, 325.500 427.648 C 346.989 424.408, 399.363 411.563, 412.500 406.311 C 414.700 405.432, 427.975 400.797, 442 396.013 C 474.887 384.794, 512.454 368.865, 547 351.491 C 588.233 330.755, 599.485 325.356, 602.667 324.781 C 603.650 324.603, 605.196 326.334, 606.882 329.500 L 609.545 334.500 629.272 334.811 C 640.123 334.982, 649 334.974, 649 334.793 C 649 334.375, 642.502 312.721, 640.878 307.728 C 639.693 304.084, 639.768 303.834, 643.075 300.397 C 647.085 296.230, 657.427 288.131, 670.393 279 C 681.179 271.405, 690.015 264.555, 702.500 254.111 C 739.827 222.887, 763.786 196.795, 779.194 170.593 C 798.702 137.418, 804.176 107.487, 795.760 80 C 784.772 44.108, 746.203 16.614, 692.500 6.390 C 665.948 1.335, 659.831 0.845, 619.500 0.553 C 598.050 0.397, 577.575 0.431, 574 0.628 M 431 151.101 C 400.859 155.855, 377.197 173.164, 363.129 200.749 C 357.106 212.557, 353.529 232.947, 355.076 246.638 C 357.373 266.957, 366.453 281.842, 381.699 290.282 C 398.142 299.385, 426.663 298.223, 449.500 287.521 C 471.483 277.220, 488.241 257.947, 496.006 234.039 C 506.508 201.705, 500.168 175.084, 478.358 159.931 C 467.235 152.203, 447.430 148.510, 431 151.101 M 263.195 153.971 C 253.127 154.378, 244.522 155.113, 244.073 155.605 C 243.311 156.440, 238.042 177.794, 233.056 200.250 C 224.954 236.746, 217.446 276.351, 216.801 286 L 216.500 290.500 236.483 290.500 L 256.466 290.500 257.095 287 C 258.749 277.790, 265.216 251.445, 266.076 250.408 C 267.368 248.852, 279.523 247.212, 295.430 246.447 C 309.653 245.764, 321.328 243.277, 326.310 239.869 C 342.106 229.063, 353.015 209.398, 353.267 191.273 C 353.529 172.468, 344.034 160.322, 325.429 155.663 C 317.937 153.786, 287.951 152.971, 263.195 153.971 M 625.269 154.427 C 614.930 156.394, 610.721 158.834, 600 169.073 C 590.844 177.818, 580.392 186.017, 576.750 187.314 C 575.378 187.803, 575 187.387, 575 185.391 C 575 182.984, 578.459 162.095, 579.659 157.250 L 580.217 155 556.584 155 L 532.950 155 531.968 157.583 C 530.646 161.062, 525.215 183.688, 523.467 193 C 522.693 197.125, 521.136 204.775, 520.007 210 C 518.877 215.225, 517.787 220.400, 517.584 221.500 C 516.892 225.247, 513.053 244.460, 509.392 262.500 C 507.383 272.400, 505.337 282.750, 504.846 285.500 C 503.265 294.350, 503.014 294.941, 500.236 296.363 C 497.117 297.959, 490.527 298.623, 414.500 305.007 C 401.300 306.116, 381.500 307.934, 370.500 309.048 C 323.433 313.815, 289.168 316.659, 244 319.549 C 230.525 320.411, 216.350 321.527, 212.500 322.029 C 199.752 323.690, 171.742 325.870, 155 326.503 C 128.799 327.494, 105.016 330.547, 103.424 333.123 C 103.114 333.625, 196.804 334, 322.330 334 L 541.778 334 543.374 327.750 C 545.467 319.557, 547.328 311.263, 550.501 296 C 560.167 249.497, 563.145 237.222, 565.331 234.875 C 567.861 232.159, 568.690 233.151, 572.956 244 C 574.795 248.675, 576.888 253.850, 577.608 255.500 C 579.002 258.694, 596.599 302.262, 600.732 312.750 C 602.086 316.188, 603.622 319, 604.145 319 C 604.668 319, 607.558 317.425, 610.567 315.500 C 613.577 313.575, 616.246 312, 616.500 312 C 616.754 312, 619.557 310.325, 622.731 308.278 C 625.904 306.231, 629.850 303.869, 631.500 303.028 C 634.090 301.709, 634.459 301.022, 634.199 298 C 633.745 292.733, 627.062 272.992, 621.504 260.500 C 620.770 258.850, 618.305 253, 616.026 247.500 C 613.747 242, 611.261 236.139, 610.501 234.475 C 606.731 226.219, 603 215.906, 603 213.739 C 603 212.015, 605.247 209.161, 610.750 203.896 C 615.013 199.818, 619.654 195.586, 621.064 194.491 C 622.474 193.396, 625.849 190.604, 628.564 188.286 C 631.279 185.968, 638.009 180.343, 643.521 175.786 C 649.033 171.229, 655.108 166.066, 657.021 164.314 C 660.989 160.681, 664.411 155.372, 663.250 154.654 C 662.819 154.388, 655.725 153.919, 647.484 153.611 C 636.834 153.213, 630.409 153.449, 625.269 154.427 M 430.879 184.965 C 425.450 186.607, 415.047 193.225, 411.012 197.602 C 406.444 202.558, 402.980 209.562, 401.037 217.772 C 399.270 225.240, 399.416 243.459, 401.286 248.785 C 405.519 260.844, 412.044 264.379, 424.735 261.491 C 441.602 257.653, 454.191 238.525, 455.661 214.506 C 456.592 199.290, 453.031 189.653, 444.931 185.464 C 441.909 183.901, 435.183 183.663, 430.879 184.965 M 282.374 185.801 L 278.249 186.103 276.087 193.801 C 273.592 202.688, 271.965 214.860, 273.172 215.606 C 275.220 216.872, 292.764 216.063, 297.500 214.484 C 304.480 212.157, 306.362 210.764, 309.303 205.746 C 314.564 196.768, 313.730 191.282, 306.613 188.067 C 302.539 186.227, 291.140 185.161, 282.374 185.801" stroke="none" fill="#ffffff" fill-rule="evenodd"/>
</svg>