<svg xmlns="http://www.w3.org/2000/svg" width="587" height="352" viewBox="0 0 587 352" version="1.1">
	<path d="M 342 14.585 C 304.369 20.544, 269.680 33.310, 235.698 53.707 C 225.503 59.826, 223.697 61.738, 227.063 62.850 C 228.288 63.255, 228.298 63.081, 227.128 61.663 C 225.394 59.562, 226.310 59.547, 229.785 61.619 L 232.500 63.237 230 61.045 C 228.625 59.839, 228.175 59.038, 229 59.265 C 229.825 59.492, 231.963 59.069, 233.750 58.325 C 235.537 57.582, 237 57.215, 237 57.510 C 237 57.805, 238.017 57.380, 239.260 56.566 C 240.783 55.568, 242.005 55.392, 243.010 56.027 C 244.919 57.234, 246.282 57.265, 245.553 56.085 C 244.788 54.848, 247.140 54.098, 249 54.987 C 251.091 55.986, 264 54.979, 264 53.816 C 264 53.293, 264.922 53.158, 266.048 53.515 C 267.174 53.873, 268.749 53.623, 269.548 52.960 C 270.465 52.199, 271 52.142, 271 52.806 C 271 54.212, 260.170 58.209, 258.676 57.353 C 258.029 56.983, 257.819 57.033, 258.208 57.464 C 258.597 57.896, 253.422 61.035, 246.708 64.441 C 225.126 75.387, 210.170 86.045, 192.680 102.943 C 166.863 127.886, 149.239 154.683, 142 180 C 140.978 183.575, 140.110 185.686, 140.071 184.691 C 140.030 183.658, 139.536 183.169, 138.917 183.551 C 138.322 183.919, 138.565 182.807, 139.458 181.081 C 140.953 178.190, 140.788 175.395, 139.181 176.388 C 138.052 177.087, 138.596 171.004, 139.767 169.833 C 140.478 169.122, 140.539 167.919, 139.944 166.353 C 139.444 165.038, 139.207 162.057, 139.418 159.730 C 139.629 157.404, 139.846 154.727, 139.901 153.781 C 139.961 152.739, 140.551 152.274, 141.399 152.600 C 142.168 152.895, 143.063 152.706, 143.388 152.181 C 143.713 151.656, 143.196 151.288, 142.239 151.363 C 140.981 151.462, 140.586 150.878, 140.813 149.250 C 141.377 145.194, 140.120 146.868, 135.932 155.750 C 130.377 167.533, 126.498 179.558, 124.586 190.926 C 122.518 203.217, 122.601 210.441, 124.941 221.777 C 129.885 245.736, 146.015 264.766, 170.227 275.204 C 199.361 287.764, 239.695 288.802, 281.719 278.072 C 286.182 276.932, 290.096 276, 290.417 276 C 290.737 276, 291.036 292.087, 291.079 311.750 C 291.122 331.413, 291.420 346.833, 291.740 346.017 C 292.060 345.201, 295.512 327.916, 299.411 307.605 L 306.500 270.677 315 267.301 C 319.675 265.445, 330.250 260.643, 338.500 256.630 C 404.673 224.444, 454.931 171.516, 469.714 118.446 C 472.194 109.542, 472.484 106.877, 472.484 93 C 472.484 79.667, 472.167 76.493, 470.214 70.299 C 461.326 42.099, 439.599 24.224, 404 15.823 C 392.384 13.082, 356.070 12.357, 342 14.585 M 277 51 C 275.172 52.181, 276.751 52.181, 279.500 51 C 280.819 50.433, 280.989 50.122, 280 50.086 C 279.175 50.055, 277.825 50.467, 277 51 M 283.441 52.555 C 281.577 54.049, 281.589 54.067, 283.750 53.020 C 284.988 52.420, 286 51.720, 286 51.465 C 286 50.700, 285.481 50.921, 283.441 52.555 M 272.813 52.683 C 273.534 52.972, 274.397 52.936, 274.729 52.604 C 275.061 52.272, 274.471 52.036, 273.417 52.079 C 272.252 52.127, 272.015 52.364, 272.813 52.683 M 257.762 53.707 C 259.006 53.946, 260.806 53.937, 261.762 53.687 C 262.718 53.437, 261.700 53.241, 259.500 53.252 C 257.300 53.263, 256.518 53.468, 257.762 53.707 M 250.813 54.683 C 251.534 54.972, 252.397 54.936, 252.729 54.604 C 253.061 54.272, 252.471 54.036, 251.417 54.079 C 250.252 54.127, 250.015 54.364, 250.813 54.683 M 266.040 60.089 C 230.697 78.763, 199.729 108.309, 185.949 136.500 C 180.405 147.841, 178.036 156.613, 178.015 165.877 L 178 172.254 188.360 162.275 C 204.386 146.839, 235.780 123.895, 254.558 113.895 C 258.926 111.568, 262.685 109.518, 262.910 109.339 C 263.136 109.160, 262.777 107.199, 262.112 104.981 C 261.448 102.764, 260.895 97.807, 260.882 93.967 C 260.827 76.312, 274.709 62.430, 292.967 61.882 C 297.910 61.733, 298.632 61.489, 297.495 60.353 C 295.968 58.825, 294.589 58.526, 295.442 59.907 C 295.751 60.405, 295.064 60.568, 293.917 60.268 C 292.418 59.876, 292.188 59.502, 293.099 58.939 C 293.797 58.507, 292.373 58.310, 289.934 58.500 C 287.495 58.690, 286.063 58.618, 286.750 58.340 C 288.855 57.487, 288.137 56.088, 285.824 56.534 C 284.627 56.764, 282.966 56.401, 282.132 55.726 C 280.929 54.753, 280.771 54.758, 281.367 55.750 C 281.780 56.438, 281.690 57, 281.166 57 C 280.642 57, 279.955 56.325, 279.638 55.500 C 279.322 54.675, 278.711 54.007, 278.281 54.017 C 277.852 54.026, 272.343 56.758, 266.040 60.089 M 240.813 57.683 C 241.534 57.972, 242.397 57.936, 242.729 57.604 C 243.061 57.272, 242.471 57.036, 241.417 57.079 C 240.252 57.127, 240.015 57.364, 240.813 57.683 M 220.500 63.588 L 217.500 66.165 220.750 64.015 C 222.537 62.832, 224 61.669, 224 61.432 C 224 60.683, 223.577 60.944, 220.500 63.588 M 199.872 78.750 C 198.629 80.336, 198.664 80.371, 200.250 79.128 C 201.213 78.373, 202 77.585, 202 77.378 C 202 76.555, 201.179 77.084, 199.872 78.750 M 324.083 82.283 C 324.313 82.439, 325.400 83.226, 326.500 84.033 C 328.350 85.390, 328.397 85.369, 327.128 83.750 C 326.373 82.787, 325.285 82, 324.711 82 C 324.137 82, 323.854 82.127, 324.083 82.283 M 325.500 87 C 326.070 89.959, 327.145 91.035, 326.715 88.215 C 326.533 87.025, 326.087 85.754, 325.724 85.390 C 325.360 85.027, 325.259 85.751, 325.500 87 M 325.769 98.294 C 324.580 113.098, 312.523 125.542, 297.433 127.539 C 287.860 128.805, 275.726 124.203, 268.881 116.708 L 266.112 113.677 262.306 116.567 C 249.212 126.509, 224.481 149.580, 212.117 163.387 C 201.926 174.767, 190 189.313, 190 190.362 C 190 190.685, 191.280 191.610, 192.844 192.419 C 208.884 200.714, 241.174 187.088, 280.825 155.293 C 285.953 151.181, 290.317 147.983, 290.521 148.187 C 290.725 148.392, 291.250 160.246, 291.687 174.529 C 292.124 188.813, 292.631 198.987, 292.813 197.138 C 293.045 194.773, 293.741 193.619, 295.156 193.249 C 296.696 192.846, 296.855 192.524, 295.835 191.877 C 294.887 191.276, 295.184 191.026, 296.857 191.015 C 298.573 191.004, 299.052 190.578, 298.618 189.448 C 298.291 188.594, 298.355 188.097, 298.761 188.343 C 299.731 188.930, 302.060 186.393, 301.273 185.607 C 300.940 185.273, 301.411 185, 302.320 185 C 303.270 185, 304.608 183.482, 305.466 181.428 C 306.417 179.151, 307.384 178.119, 308.134 178.583 C 308.883 179.046, 309.042 178.876, 308.571 178.116 C 308.125 177.394, 309.348 175.477, 311.667 173.265 C 313.775 171.254, 314.804 170.034, 313.953 170.554 C 312.713 171.312, 312.728 171.198, 314.030 169.980 C 314.923 169.144, 315.483 167.948, 315.274 167.322 C 315.065 166.696, 315.438 165.848, 316.102 165.437 C 316.931 164.925, 317.058 165.131, 316.508 166.095 C 315.901 167.160, 316.001 167.229, 316.923 166.381 C 317.591 165.765, 318.242 164.640, 318.367 163.881 C 318.493 163.121, 319.234 161.375, 320.013 160 C 320.792 158.625, 321.482 157.275, 321.546 157 C 322.547 152.720, 323.393 151.116, 324.357 151.667 C 324.986 152.027, 325.200 151.986, 324.833 151.576 C 324.466 151.167, 324.961 148.507, 325.933 145.666 C 326.906 142.825, 328.014 138.813, 328.396 136.750 C 328.778 134.688, 329.408 133, 329.795 133 C 331.033 133, 331.546 115.554, 330.427 111.515 C 329.976 109.886, 330.070 109.787, 330.919 111 C 331.744 112.178, 331.973 111.790, 331.985 109.191 C 331.994 107.236, 331.591 106.135, 331 106.500 C 330.427 106.854, 330 105.953, 330 104.388 C 330 102.886, 329.253 100.832, 328.339 99.823 C 327.426 98.813, 327.001 97.666, 327.394 97.273 C 327.787 96.880, 328.527 97.220, 329.039 98.029 C 329.819 99.263, 329.972 99.218, 329.985 97.750 C 329.993 96.787, 329.339 96, 328.531 96 C 327.684 96, 327.290 95.408, 327.600 94.601 C 327.895 93.832, 327.716 92.943, 327.203 92.626 C 326.681 92.303, 326.049 94.801, 325.769 98.294 M 281.615 105.465 C 280.727 106.820, 280 108.395, 280 108.965 C 280 110.442, 283.754 114, 285.311 114 C 287.329 114, 291 110.148, 291 108.032 C 291 103.112, 284.349 101.292, 281.615 105.465 M 168.872 107.750 C 167.629 109.336, 167.664 109.371, 169.250 108.128 C 170.213 107.373, 171 106.585, 171 106.378 C 171 105.555, 170.179 106.084, 168.872 107.750 M 146.303 137.198 C 143.402 141.683, 141.607 145.612, 141.540 147.623 C 141.399 151.870, 142.591 151.024, 143.459 146.261 C 143.836 144.192, 145.895 139.688, 148.036 136.250 C 150.176 132.813, 151.710 130, 151.444 130 C 151.177 130, 148.864 133.239, 146.303 137.198 M 140.031 156.500 C 140.031 157.050, 140.467 158.175, 141 159 C 141.533 159.825, 141.969 160.050, 141.969 159.500 C 141.969 158.950, 141.533 157.825, 141 157 C 140.467 156.175, 140.031 155.950, 140.031 156.500 M 140.446 174.087 C 140.077 174.685, 140.179 175.579, 140.673 176.073 C 141.204 176.604, 141.571 176.160, 141.571 174.986 C 141.571 172.713, 141.386 172.566, 140.446 174.087 M 139.079 188.583 C 139.127 189.748, 139.364 189.985, 139.683 189.188 C 139.972 188.466, 139.936 187.603, 139.604 187.271 C 139.272 186.939, 139.036 187.529, 139.079 188.583 M 150.250 296.662 C 149.294 297.048, 149 303.386, 149 323.583 L 149 350 155 350 L 161 350 161 340.613 L 161 331.226 167.750 330.843 C 175.834 330.384, 181.534 327.738, 184.835 322.913 C 186.860 319.954, 187.124 318.543, 186.819 312.313 C 186.527 306.336, 186.050 304.673, 183.984 302.431 C 179.372 297.427, 174.658 296.038, 162.500 296.101 C 156.450 296.132, 150.938 296.385, 150.250 296.662 M 242.500 323.500 L 242.500 350 259.750 350 L 277 350 277 345 L 277 340 266 340 L 255 340 255 333.500 L 255 327 265.055 327 L 275.110 327 274.805 322.250 L 274.500 317.500 264.750 317.214 L 255 316.928 255 311.964 L 255 307 265.500 307 L 276 307 276 302 L 276 297 259.250 297 L 242.500 297 242.500 323.500 M 162.250 305.662 C 161.395 306.007, 161 308.712, 161 314.213 L 161 322.260 165.562 321.746 C 173.217 320.883, 177.176 314.935, 174.021 309.039 C 172.494 306.186, 165.748 304.251, 162.250 305.662 M 207.378 314.437 C 201.714 316.902, 199.665 321.976, 202.141 327.410 C 203.148 329.620, 202.913 330.335, 200.141 333.492 C 196.016 338.190, 195.905 342.743, 199.809 347.113 C 203.291 351.009, 210.401 352.113, 216.257 349.666 C 218.435 348.756, 220.195 348.507, 220.537 349.060 C 220.857 349.577, 223.445 350, 226.290 350 L 231.462 350 228.341 346.880 L 225.221 343.759 227.571 339.130 C 228.864 336.583, 230.221 333.232, 230.587 331.682 C 231.234 328.934, 231.157 328.872, 227.453 329.182 C 223.936 329.476, 223.545 329.830, 222.177 333.951 L 220.699 338.402 217.843 334.981 L 214.987 331.561 217.917 329.268 C 223.519 324.884, 222.791 317.064, 216.538 314.452 C 212.333 312.695, 211.385 312.693, 207.378 314.437 M 209.361 320.502 C 208.613 322.451, 209.758 327, 210.996 327 C 212.604 327, 215.085 322.386, 214.416 320.641 C 213.627 318.586, 210.133 318.490, 209.361 320.502 M 206.218 336.182 C 201.948 340.452, 208.791 347.336, 214 344.012 C 215.241 343.220, 214.804 342.357, 211.468 339.010 C 208.299 335.831, 207.175 335.225, 206.218 336.182" stroke="none" fill="#ffffff" fill-rule="evenodd"/>
</svg>