<svg xmlns="http://www.w3.org/2000/svg" width="357" height="185" viewBox="0 0 357 185" version="1.1">
	<path d="M 73.916 24.468 C 55.292 29.172, 36.390 43.357, 28.187 58.784 C 25.157 64.483, 25.029 65.065, 26.687 65.606 C 38.358 69.413, 48.329 77.756, 53.535 88.070 L 56.639 94.218 59.479 90.859 C 62.301 87.521, 65.152 81.782, 70.521 68.634 C 75.123 57.362, 82.923 48.169, 91.738 43.629 L 94.976 41.961 99.315 47.855 C 101.701 51.097, 104.218 55.113, 104.909 56.779 C 106.300 60.138, 108.327 60.978, 115 60.962 C 124.459 60.939, 135.555 56.695, 141.758 50.727 L 145.016 47.592 140.758 43.226 C 134.544 36.855, 124.215 30.315, 114.773 26.775 C 107.274 23.964, 105.236 23.645, 93 23.366 C 83.751 23.154, 77.742 23.502, 73.916 24.468 M 183.469 93.500 C 183.469 126.500, 183.596 139.855, 183.750 123.178 C 183.904 106.501, 183.903 79.501, 183.749 63.178 C 183.595 46.855, 183.469 60.500, 183.469 93.500 M 143.447 54.056 C 136.924 60.863, 121.698 65.817, 111.292 64.517 C 106.228 63.885, 106.001 63.956, 106.022 66.178 C 106.057 69.849, 109.371 76.041, 114.426 81.881 C 125.317 94.462, 131.031 105.702, 131.767 115.990 L 132.253 122.781 127.877 123.548 C 125.469 123.969, 120.478 124.360, 116.784 124.416 C 110.339 124.515, 109.966 124.658, 107.532 127.956 C 103.204 133.823, 100.715 141.739, 100.602 150 C 100.411 164.008, 101.342 164.778, 113.349 160.541 C 154.724 145.940, 173.306 95.255, 151.217 57.250 C 149.219 53.813, 147.312 51, 146.979 51 C 146.646 51, 145.057 52.375, 143.447 54.056 M 210.162 65.517 C 206.382 68.698, 205.246 74.261, 207.349 79.293 C 211.207 88.527, 224.326 86.447, 225.675 76.388 C 227.078 65.930, 217.580 59.275, 210.162 65.517 M 233.667 63.667 C 233.300 64.033, 233 68.983, 233 74.667 L 233 85 241 85 C 248.867 85, 249 85.042, 249 87.500 C 249 88.875, 249.450 90, 250 90 C 250.550 90, 251 88.200, 251 86 C 251 83.800, 250.567 82, 250.038 82 C 249.508 82, 248.946 77.838, 248.788 72.750 C 248.623 67.442, 248.074 63.500, 247.500 63.500 C 246.926 63.500, 246.377 67.442, 246.212 72.750 L 245.925 82 240.962 82 L 236 82 236 72.500 C 236 63.792, 235.486 61.847, 233.667 63.667 M 258.639 63.694 C 258.288 64.046, 258 68.983, 258 74.667 C 258 83.185, 258.263 85, 259.500 85 C 260.633 85, 261 83.778, 261 80 C 261 73.404, 262.937 73.398, 267.242 79.982 C 269.205 82.983, 271.241 84.971, 272.365 84.982 C 274.157 84.999, 274.161 84.892, 272.483 82.250 C 271.522 80.737, 269.641 78.030, 268.304 76.233 L 265.873 72.967 269.436 68.803 C 271.396 66.513, 273 64.255, 273 63.785 C 273 62.146, 269.173 64.994, 266.013 68.983 C 264.264 71.192, 262.420 73, 261.916 73 C 261.412 73, 261 71.002, 261 68.559 C 261 64.326, 260.022 62.311, 258.639 63.694 M 283.957 64.070 C 280.497 65.374, 278 69.949, 278 74.981 C 278 81.040, 282.120 85, 288.423 85 C 291.736 85, 293 84.603, 293 83.563 C 293 82.485, 292.144 82.265, 289.573 82.682 C 286.763 83.138, 285.662 82.753, 283.452 80.543 C 281.090 78.181, 280.821 77.277, 281.277 73.235 C 281.894 67.760, 283.840 66, 289.274 66 C 291.940 66, 293.037 65.606, 292.756 64.750 C 292.242 63.183, 287.320 62.802, 283.957 64.070 M 211.612 67.876 C 207.596 72.314, 209.068 80.597, 214.194 82.399 C 221.291 84.895, 226.113 73.256, 220.363 67.506 C 218.281 65.424, 213.654 65.620, 211.612 67.876 M 21.383 74.333 C 18.556 83.841, 18.779 102.192, 21.842 112 C 25.930 125.093, 30.517 132.600, 40.478 142.500 C 47.999 149.975, 51.155 152.308, 59.103 156.268 C 69.978 161.687, 79.102 163.958, 90.098 163.983 L 97.696 164 97.223 154.185 C 96.659 142.465, 98.259 135.788, 103.498 128.003 C 105.424 125.141, 107 122.383, 107 121.875 C 107 120.416, 102.282 119, 97.424 119 C 94.979 119, 88.596 119.720, 83.239 120.599 C 70.880 122.629, 59.297 121.975, 51.413 118.804 C 42.879 115.370, 42.736 114.685, 48.279 103.799 L 53.002 94.524 50.433 89.273 C 46.023 80.260, 37.763 73.297, 26.956 69.484 L 23.217 68.165 21.383 74.333 M 83.241 80.935 C 70.742 88.784, 75.896 107.993, 90.500 107.993 C 104.090 107.993, 109.834 91.641, 99.603 82.083 C 95.951 78.671, 87.761 78.097, 83.241 80.935 M 206 116.583 C 206 123.002, 206.315 125.063, 207.250 124.756 C 207.938 124.530, 208.642 123.143, 208.816 121.673 C 209.074 119.493, 209.645 119, 211.911 119 C 214.940 119, 218 116.322, 218 113.671 C 218 110.633, 214.286 108, 210 108 L 206 108 206 116.583 M 225.712 109.420 C 221.497 112.617, 221.575 120.734, 225.855 124.101 C 231.168 128.280, 238 124.197, 238 116.844 C 238 109.890, 230.815 105.549, 225.712 109.420 M 246.278 109.956 C 239.845 115.949, 245.208 127.670, 253.437 125.605 C 256.796 124.762, 255.996 123.586, 251.924 123.381 C 247.729 123.170, 246 121.318, 246 117.033 C 246 112.666, 248.400 110, 252.329 110 C 253.798 110, 255 109.550, 255 109 C 255 107.206, 248.460 107.923, 246.278 109.956 M 263.358 116.250 C 260.220 124.607, 259.974 127.351, 262.731 123.250 C 264.982 119.902, 270.705 120.093, 272.023 123.560 C 272.558 124.968, 273.430 125.852, 273.960 125.525 C 274.527 125.175, 273.703 121.620, 271.962 116.896 C 270.333 112.478, 269 108.669, 269 108.432 C 269 108.194, 268.427 108, 267.728 108 C 267.028 108, 265.061 111.713, 263.358 116.250 M 277 109 C 277 109.550, 278.125 110, 279.500 110 C 281.944 110, 282 110.167, 282 117.500 C 282 121.833, 282.422 125, 283 125 C 283.578 125, 284 121.833, 284 117.500 C 284 110.167, 284.056 110, 286.500 110 C 287.875 110, 289 109.550, 289 109 C 289 108.444, 286.333 108, 283 108 C 279.667 108, 277 108.444, 277 109 M 296.262 109.529 C 293.532 111.441, 292.382 117.095, 293.953 120.887 C 295.079 123.605, 298.573 126, 301.412 126 C 303.971 126, 307.931 121.883, 308.551 118.578 C 310.038 110.652, 302.541 105.131, 296.262 109.529 M 314.609 116.132 C 313.980 123.676, 314.234 126.100, 315.517 124.816 C 315.802 124.532, 316.369 121.644, 316.777 118.399 L 317.520 112.500 319.402 118.698 C 321.957 127.107, 323.503 127.403, 325.612 119.888 C 327.479 113.231, 328.959 113.583, 328.985 120.691 C 328.993 122.996, 329.450 125.160, 330 125.500 C 330.609 125.876, 331 124.390, 331 121.699 C 331 114.608, 329.823 108, 328.561 108 C 327.919 108, 326.337 111.263, 325.044 115.250 L 322.695 122.500 320.264 115.250 C 317.019 105.573, 315.470 105.815, 314.609 116.132 M 208.914 110.250 C 208.867 110.388, 208.720 111.985, 208.588 113.800 C 208.360 116.927, 208.509 117.085, 211.424 116.800 C 216.680 116.287, 216.062 110.062, 210.750 110.015 C 209.787 110.007, 208.961 110.112, 208.914 110.250 M 226.698 111.781 C 225.754 112.825, 225 115.277, 225 117.306 C 225 124.650, 233.923 126.178, 235.478 119.100 C 236.934 112.472, 230.742 107.312, 226.698 111.781 M 297.862 111.018 C 295.681 112.291, 294.771 116.268, 295.950 119.370 C 298.480 126.023, 306 124.286, 306 117.048 C 306 111.193, 302.280 108.437, 297.862 111.018 M 266.237 114.221 C 264.574 118.819, 264.622 119, 267.500 119 C 270.263 119, 270.508 117.900, 268.692 113.650 L 267.474 110.799 266.237 114.221" stroke="none" fill="#ffffff" fill-rule="evenodd"/>
</svg>