<svg xmlns="http://www.w3.org/2000/svg" width="270" height="284" viewBox="0 0 270 284" version="1.1">
	<path d="M 73.728 106.054 C 40.869 156.007, 13.714 197.581, 13.385 198.439 C 12.844 199.848, 24.526 200, 133.500 200 C 243.074 200, 254.158 199.854, 253.608 198.421 C 253.145 197.215, 152.753 44.049, 136.574 19.864 L 133.473 15.229 73.728 106.054 M 121.500 76.659 C 94.759 82.367, 74.961 106.771, 75.015 133.960 C 75.046 150.095, 80.819 163.870, 92.459 175.588 C 115.534 198.815, 151.654 198.594, 174.978 175.083 C 183.424 166.568, 187.975 158.488, 190.591 147.356 C 192.728 138.263, 192.067 123.746, 189.144 115.568 C 182.437 96.806, 166.976 82.354, 148.448 77.528 C 143.018 76.114, 126.542 75.583, 121.500 76.659 M 105.630 88.020 C 101.243 91.872, 99.497 98.476, 100.467 107.540 C 100.847 111.084, 101.234 114.235, 101.329 114.543 C 101.423 114.851, 98.945 116.141, 95.822 117.411 C 88.078 120.558, 82.554 125.157, 80.574 130.107 C 78.996 134.050, 79.016 134.402, 81.063 138.630 C 83.391 143.440, 88.912 147.821, 96.306 150.725 C 98.792 151.701, 100.888 152.950, 100.965 153.500 C 101.043 154.050, 100.807 157.291, 100.441 160.702 C 99.149 172.773, 103.386 181.377, 111.251 182.653 C 115.444 183.334, 123.834 179.883, 130.148 174.883 L 134.125 171.733 138.312 174.880 C 151.863 185.063, 161.788 185.288, 166.425 175.516 C 167.823 172.572, 168.118 169.831, 167.845 162.361 L 167.500 152.926 174.500 149.532 C 183.774 145.035, 188.070 140.555, 188.731 134.691 C 189.201 130.525, 188.945 129.896, 185.083 125.706 C 181.520 121.840, 174.196 117.319, 169 115.777 C 167.775 115.413, 167.564 113.663, 167.848 106.227 C 168.048 100.989, 167.701 95.625, 167.031 93.594 C 165.406 88.670, 160.761 84.998, 156.173 85.010 C 151.817 85.021, 144.029 88.507, 138.612 92.869 C 136.474 94.591, 134.509 96, 134.245 96 C 133.980 96, 132.159 94.591, 130.197 92.868 C 125.409 88.664, 117.338 85.022, 112.785 85.010 C 110.068 85.003, 108.145 85.812, 105.630 88.020 M 105.684 92.396 C 102.266 96.084, 101.027 103.883, 102.605 111.775 C 103.177 114.633, 103.383 114.750, 106.355 113.890 C 108.085 113.389, 112.200 112.541, 115.500 112.006 C 118.800 111.470, 121.962 110.401, 122.527 109.630 C 123.091 108.859, 125.116 106.311, 127.027 103.967 C 128.937 101.624, 130.500 99.286, 130.500 98.773 C 130.500 98.260, 127.897 96.225, 124.715 94.250 C 120.496 91.630, 117.469 90.538, 113.528 90.211 C 108.681 89.809, 107.873 90.034, 105.684 92.396 M 147.446 92.521 C 144.726 93.908, 141.305 96.045, 139.844 97.271 L 137.188 99.500 142.435 105.236 C 147.523 110.800, 147.919 111.018, 155.590 112.486 C 159.941 113.319, 164.011 114, 164.635 114 C 166.272 114, 167.264 104.129, 166.133 99.096 C 164.070 89.915, 157.261 87.519, 147.446 92.521 M 130.705 105.790 C 128.667 107.877, 127 109.903, 127 110.292 C 127 110.681, 130.375 111, 134.500 111 C 138.625 111, 142 110.641, 142 110.203 C 142 109.765, 140.292 107.738, 138.205 105.701 L 134.411 101.995 130.705 105.790 M 119.624 120.250 C 117.781 123.138, 115.054 127.914, 113.562 130.863 C 111.156 135.624, 110.990 136.561, 112.085 139.204 C 113.650 142.983, 120.893 154.263, 122.377 155.235 C 122.995 155.639, 128.484 155.976, 134.576 155.985 C 147.387 156.002, 147.094 156.175, 153.572 144.779 C 155.673 141.083, 157.595 138.262, 157.843 138.510 C 158.092 138.758, 156.253 142.458, 153.758 146.731 C 151.264 151.004, 149.377 154.667, 149.566 154.872 C 150.156 155.510, 163 152.814, 163 152.052 C 163 147.985, 152.602 124.496, 147.815 117.750 C 145.881 115.024, 145.764 115, 134.419 115 L 122.975 115 119.624 120.250 M 110.500 117.114 C 103.729 118.660, 103.908 118.339, 106.140 124.950 C 107.264 128.277, 108.480 130.985, 108.842 130.966 C 109.204 130.947, 111.364 127.572, 113.642 123.466 C 118.132 115.373, 118.131 115.372, 110.500 117.114 M 128.250 117.031 C 127.013 117.529, 126 118.202, 126 118.527 C 126 118.852, 126.496 118.812, 127.101 118.437 C 127.707 118.063, 130.519 117.418, 133.351 117.003 C 138.192 116.295, 138.261 116.246, 134.500 116.188 C 132.300 116.154, 129.488 116.534, 128.250 117.031 M 155.251 123.933 C 157.588 128.296, 159.778 131.558, 160.117 131.183 C 160.920 130.294, 164 120.996, 164 119.460 C 164 118.503, 155.197 116, 151.834 116 C 151.376 116, 152.914 119.570, 155.251 123.933 M 95.011 122.670 C 87.305 126.638, 83 131.236, 83 135.500 C 83 139.476, 87.296 144.370, 93.828 147.835 C 100.181 151.206, 103 151.395, 103 148.452 C 103 147.566, 104.166 143.925, 105.592 140.362 L 108.184 133.882 106.002 128.191 C 104.802 125.061, 103.512 121.677, 103.135 120.670 C 102.506 118.991, 101.837 119.156, 95.011 122.670 M 127.513 120.777 C 122.534 123.649, 120.117 128, 123.500 128 C 124.325 128, 125 127.550, 125 127 C 125 125.328, 128.496 125.882, 130.660 127.897 C 131.780 128.941, 133.552 129.962, 134.598 130.167 C 135.928 130.427, 136.441 131.285, 136.303 133.019 C 135.714 140.442, 135.538 141, 133.787 141 C 132.804 141, 132 141.713, 132 142.583 C 132 143.454, 132.563 143.965, 133.250 143.718 C 133.938 143.472, 135.254 143.658, 136.176 144.131 C 137.242 144.678, 138.881 144.462, 140.676 143.537 C 144.247 141.699, 150.192 139, 150.673 139 C 151.306 139, 149.782 144.456, 148.871 145.450 C 148.392 145.973, 148.014 146.873, 148.031 147.450 C 148.048 148.028, 149.171 146.700, 150.526 144.500 C 154.662 137.785, 153.581 127.106, 148.343 122.927 C 147.092 121.929, 147.222 122.368, 148.777 124.385 C 151.065 127.354, 151.752 131, 150.023 131 C 149.486 131, 148.314 129.883, 147.420 128.518 C 145.390 125.420, 139.310 121.568, 136.014 121.292 C 134.647 121.177, 133.372 120.615, 133.181 120.042 C 132.688 118.564, 130.959 118.788, 127.513 120.777 M 163.522 126.529 L 160.824 133.925 163.662 142.213 C 165.223 146.771, 166.640 150.715, 166.812 150.979 C 167.449 151.955, 180.116 144.669, 182.044 142.217 C 188.635 133.838, 183.755 125.800, 168.576 120.029 C 166.349 119.182, 166.071 119.539, 163.522 126.529 M 118.944 124.078 C 108.240 139.112, 124.447 159.690, 141.410 152.602 C 145.816 150.761, 146.486 149.475, 143.178 149.210 C 141.705 149.092, 140.023 148.353, 139.440 147.567 C 138.857 146.781, 136.475 145.948, 134.147 145.715 C 128.630 145.163, 124.460 141.277, 123.598 135.885 C 123.249 133.706, 122.300 131.669, 121.488 131.357 C 120.676 131.045, 120.273 130.368, 120.592 129.851 C 120.911 129.335, 120.702 128.346, 120.127 127.654 C 119.390 126.765, 119.494 125.601, 120.482 123.697 C 122.344 120.108, 121.649 120.280, 118.944 124.078 M 129.597 130.844 C 129.251 131.404, 129.455 132.163, 130.050 132.531 C 131.588 133.481, 132.580 132.180, 131.296 130.896 C 130.578 130.178, 130.019 130.161, 129.597 130.844 M 109.129 141.160 C 107.210 146.207, 105.696 152.029, 106.177 152.510 C 106.871 153.204, 117.937 155.194, 118.980 154.812 C 119.450 154.641, 117.636 150.945, 114.949 146.601 C 110.327 139.126, 110.014 138.833, 109.129 141.160 M 104.625 157.125 C 102.903 165.736, 104.664 174.804, 108.669 177.955 C 113.433 181.701, 122.304 179.851, 129.763 173.555 L 133.025 170.801 127.821 164.650 C 124.959 161.268, 122.300 158.119, 121.912 157.654 C 121.376 157.010, 113.807 155.347, 105.375 154.020 C 105.306 154.009, 104.969 155.406, 104.625 157.125 M 158 155 C 156.625 155.440, 153.986 155.845, 152.135 155.900 C 149.310 155.984, 147.692 157.149, 142.042 163.169 L 135.314 170.337 138.412 173.057 C 143.119 177.189, 149.664 180.248, 154.049 180.363 C 161.720 180.564, 165.773 172.728, 164.439 160.275 C 163.723 153.591, 163.352 153.286, 158 155 M 128 163 C 130.859 166.300, 133.602 169, 134.096 169 C 135.195 169, 145 158.938, 145 157.809 C 145 157.364, 140.005 157, 133.901 157 L 122.802 157 128 163 M 16.766 215.918 C 13.765 218.599, 13.500 219.323, 13.500 224.837 C 13.500 229.779, 13.920 231.286, 15.876 233.368 C 18.994 236.687, 22.938 237.471, 27.316 235.641 C 30.321 234.386, 33.875 230.453, 32.831 229.539 C 31.697 228.545, 28 228.026, 28 228.861 C 28 230.343, 25.065 233, 23.429 233 C 18.561 233, 15.862 222.245, 19.829 218.655 C 22.285 216.432, 25.582 216.565, 27.256 218.955 C 28.172 220.263, 29.328 220.727, 30.746 220.356 C 32.554 219.883, 32.713 219.463, 31.823 217.511 C 29.473 212.352, 21.679 211.528, 16.766 215.918 M 59.631 219.702 C 59.245 220.088, 57.355 220.298, 55.432 220.168 L 51.934 219.933 52.217 231.216 C 52.481 241.739, 52.635 242.500, 54.500 242.500 C 56.084 242.500, 56.564 241.731, 56.808 238.798 C 57.099 235.283, 57.237 235.151, 59.517 236.189 C 64.293 238.366, 69.813 231.979, 68.465 225.838 C 67.532 221.592, 61.755 217.579, 59.631 219.702 M 76.357 219.992 C 71.046 222.135, 69.435 229.110, 73.250 233.445 C 76.695 237.360, 80.957 237.749, 84.818 234.500 C 87.345 232.373, 87.993 231.069, 87.968 228.161 C 87.909 221.376, 82.448 217.533, 76.357 219.992 M 130.315 219.985 C 127.481 221.155, 126 224.016, 126 228.323 C 126 233.230, 128.873 236.400, 133.321 236.400 C 136.932 236.400, 141.439 233.520, 140.417 231.866 C 139.674 230.664, 136 230.775, 136 232 C 136 233.642, 131.264 233.131, 130.607 231.418 C 130.273 230.548, 130 229.648, 130 229.418 C 130 229.188, 132.475 229, 135.500 229 C 140.632 229, 141 228.840, 141 226.611 C 141 221.646, 135.123 218.001, 130.315 219.985 M 188.315 220.007 C 185.507 221.139, 184 224.004, 184 228.212 C 184 232.410, 186.164 235.573, 189.630 236.443 C 194.258 237.605, 200.255 233.839, 198.444 230.910 C 197.565 229.487, 195.275 229.842, 194.638 231.500 C 193.715 233.906, 190.086 233.282, 188.818 230.500 C 187.966 228.630, 187.966 227.370, 188.818 225.500 C 189.965 222.983, 193.323 222.096, 194.500 224 C 195.215 225.157, 199.008 225.368, 198.985 224.250 C 198.957 222.903, 197.542 221.321, 195.316 220.150 C 192.784 218.817, 191.342 218.788, 188.315 220.007 M 241.206 220.010 C 235.315 222.471, 235.300 232.552, 241.181 235.594 C 247.243 238.728, 253.400 234.573, 253.400 227.348 C 253.400 221.526, 246.916 217.624, 241.206 220.010 M 35 221.500 C 35 222.433, 35.944 223, 37.500 223 C 39.910 223, 40 223.233, 40 229.500 C 40 235.767, 40.090 236, 42.500 236 C 44.910 236, 45 235.767, 45 229.500 C 45 223.233, 45.090 223, 47.500 223 C 49.056 223, 50 222.433, 50 221.500 C 50 220.300, 48.500 220, 42.500 220 C 36.500 220, 35 220.300, 35 221.500 M 91.869 223.250 C 91.386 235.216, 91.426 235.486, 93.747 235.817 C 95.468 236.063, 96.589 235.107, 98.727 231.567 C 100.244 229.055, 101.826 227, 102.243 227 C 102.659 227, 103 229.025, 103 231.500 C 103 235.333, 103.296 236, 105 236 C 106.833 236, 107 235.333, 107 228 C 107 220.239, 106.929 220, 104.618 220 C 102.880 220, 101.398 221.283, 99.130 224.750 L 96.024 229.500 96.012 224.750 C 96.002 220.671, 95.718 220, 94 220 C 92.437 220, 91.971 220.710, 91.869 223.250 M 109 221.434 C 109 222.254, 110.176 223.002, 111.750 223.184 C 114.386 223.487, 114.512 223.760, 114.798 229.750 C 115.056 235.181, 115.351 236, 117.048 236 C 118.784 236, 119 235.280, 119 229.500 C 119 223.233, 119.090 223, 121.500 223 C 123.056 223, 124 222.433, 124 221.500 C 124 220.300, 122.500 220, 116.500 220 C 110.654 220, 109 220.316, 109 221.434 M 146 226.500 C 146 231.611, 145.679 233, 144.500 233 C 142.594 233, 142.531 235.883, 144.422 236.608 C 145.204 236.908, 146.757 236.665, 147.872 236.068 C 149.483 235.206, 149.962 233.801, 150.200 229.241 C 150.484 223.807, 150.647 223.483, 153.250 223.184 L 156 222.867 156 229.434 C 156 235.771, 156.087 236, 158.500 236 C 160.958 236, 161 235.867, 161 228 L 161 220 153.500 220 L 146 220 146 226.500 M 165 228 L 165 236 171.800 236 C 178.997 236, 181 235.020, 181 231.500 C 181 228.314, 179.044 227, 174.300 227 C 170.052 227, 170 226.957, 170 223.500 C 170 220.433, 169.690 220, 167.500 220 C 165.042 220, 165 220.133, 165 228 M 201 221.500 C 201 222.433, 201.944 223, 203.500 223 C 205.910 223, 206 223.233, 206 229.500 C 206 235.333, 206.205 236, 208 236 C 209.795 236, 210 235.333, 210 229.500 L 210 223 213 223 C 215 223, 216 222.500, 216 221.500 C 216 220.300, 214.500 220, 208.500 220 C 202.500 220, 201 220.300, 201 221.500 M 218 228 L 218 236 224.800 236 C 228.756 236, 232.102 235.498, 232.800 234.800 C 234.237 233.363, 234.389 229.358, 233.038 228.523 C 232.433 228.150, 232.488 227.023, 233.185 225.494 C 235.040 221.421, 232.891 220, 224.878 220 L 218 220 218 228 M 223.524 222.810 C 222.413 223.921, 223.070 227, 224.418 227 C 226.862 227, 229 225.838, 229 224.510 C 229 223.227, 224.502 221.831, 223.524 222.810 M 57.430 225.421 C 56.597 228.741, 57.187 231.088, 59.166 232.335 C 61.460 233.779, 64 231.542, 64 228.078 C 64 223.035, 58.580 220.843, 57.430 225.421 M 77.200 224.200 C 75.653 225.747, 75.653 230.253, 77.200 231.800 C 79.173 233.773, 81.968 233.165, 83.182 230.500 C 85.404 225.623, 80.715 220.685, 77.200 224.200 M 130.676 224.402 C 129.977 226.225, 130.819 227, 133.500 227 C 134.692 227, 135.936 226.731, 136.264 226.402 C 137.484 225.183, 135.711 223, 133.500 223 C 132.243 223, 130.972 223.631, 130.676 224.402 M 242.050 224.440 C 239.048 228.056, 242.999 234.743, 246.750 232.394 C 250.400 230.108, 249.076 223, 245 223 C 244.035 223, 242.707 223.648, 242.050 224.440 M 170 231.500 C 170 234.232, 171.774 234.726, 175.130 232.930 C 176.726 232.076, 176.890 231.572, 175.942 230.430 C 175.289 229.644, 173.685 229, 172.378 229 C 170.508 229, 170 229.534, 170 231.500 M 223.180 231.250 C 223.431 233.012, 224.043 233.427, 226 233.164 C 231.384 232.439, 230.715 229.052, 225.180 229.015 C 223.344 229.003, 222.927 229.468, 223.180 231.250 M 197.585 249.862 C 197.021 250.775, 189 271.171, 189 271.693 C 189 271.862, 190.116 272, 191.481 272 C 193.293 272, 194.131 271.326, 194.589 269.500 C 195.151 267.261, 195.726 267, 200.089 267 C 204.453 267, 205.027 267.261, 205.589 269.500 C 206.070 271.415, 206.866 272, 208.989 272 L 211.762 272 207.139 260.500 C 203.208 250.722, 202.186 249, 200.317 249 C 199.108 249, 197.878 249.388, 197.585 249.862 M 215.174 251.314 C 213.978 252.587, 213 254.162, 213 254.814 C 213 256.543, 217.683 256.268, 218.362 254.500 C 219.052 252.701, 224.098 252.498, 225.800 254.200 C 226.460 254.860, 227 256.210, 227 257.200 C 227 258.598, 226.201 259, 223.427 259 C 220.564 259, 219.919 259.348, 220.185 260.750 C 220.403 261.903, 221.623 262.607, 223.758 262.813 C 225.541 262.986, 227 263.683, 227 264.363 C 227 268.145, 219.845 269.447, 218 266 C 217.411 264.900, 216.256 264, 215.433 264 C 212.834 264, 212.627 266.974, 215.048 269.551 C 216.861 271.481, 218.352 272, 222.085 272 C 226.147 272, 227.191 271.562, 229.411 268.923 C 231.510 266.429, 232 264.805, 232 260.346 C 232 255.601, 231.599 254.445, 229.077 251.923 C 225.223 248.069, 218.500 247.774, 215.174 251.314 M 239.707 251.016 C 234.377 255.209, 233.885 264.612, 238.742 269.469 C 242.267 272.995, 249.059 273.032, 252.545 269.545 C 255.423 266.668, 255.642 265.184, 253.322 264.293 C 252.222 263.871, 251.148 264.398, 250.200 265.825 C 248.257 268.751, 243.622 268.726, 241.557 265.777 C 237.999 260.698, 240.729 253, 246.088 253 C 247.810 253, 249.305 253.632, 249.638 254.500 C 250.284 256.183, 255 256.583, 255 254.955 C 255 254.380, 253.895 252.805, 252.545 251.455 C 249.410 248.319, 243.396 248.114, 239.707 251.016 M 11.701 255.632 C 11.316 256.018, 11 259.858, 11 264.167 C 11 271.776, 11.069 272, 13.408 272 C 15.174 272, 16.574 270.801, 18.658 267.502 C 20.221 265.028, 21.725 263.003, 22 263.001 C 22.275 263, 22.500 264.912, 22.500 267.250 C 22.500 270.919, 22.813 271.544, 24.792 271.825 C 27.042 272.144, 27.078 272.001, 26.792 263.825 C 26.527 256.264, 26.316 255.500, 24.500 255.500 C 23.225 255.500, 21.343 257.231, 19.306 260.279 L 16.112 265.058 15.806 260.288 C 15.591 256.943, 15.037 255.430, 13.951 255.224 C 13.099 255.063, 12.087 255.246, 11.701 255.632 M 40 266.500 C 40 277.333, 40.116 278, 42 278 C 43.605 278, 44 277.333, 44 274.623 L 44 271.246 48.363 271.737 C 52.106 272.159, 52.959 271.897, 54.363 269.892 C 56.648 266.630, 56.442 260.831, 53.927 257.635 C 51.736 254.850, 49.126 254.327, 45.934 256.035 C 44.601 256.749, 44 256.749, 44 256.035 C 44 255.466, 43.100 255, 42 255 C 40.116 255, 40 255.667, 40 266.500 M 61.789 256.363 C 57.810 259.387, 57.275 266.413, 60.733 270.250 C 63.541 273.366, 73 271.989, 73 268.465 C 73 266.695, 70.670 266.565, 68.068 268.190 C 66.573 269.123, 65.821 269.097, 64.581 268.067 C 61.821 265.776, 62.844 265, 68.625 265 L 74.250 265 73.622 261.750 C 72.508 255.984, 66.118 253.075, 61.789 256.363 M 77.709 255.624 C 77.319 256.014, 77 259.858, 77 264.167 C 77 271.333, 77.170 272, 79 272 C 80.712 272, 81.008 271.315, 81.054 267.250 L 81.109 262.500 82.829 267 C 85.207 273.221, 88.142 273.629, 90.001 267.996 C 91.887 262.283, 93 262.077, 93 267.441 C 93 270.827, 93.386 272, 94.500 272 C 95.717 272, 96 270.382, 96 263.434 L 96 254.867 93.330 255.184 C 91.142 255.443, 90.375 256.345, 89.080 260.179 C 88.211 262.753, 87.224 265.129, 86.886 265.460 C 86.549 265.790, 85.420 263.685, 84.378 260.780 C 83.031 257.025, 81.897 255.416, 80.451 255.208 C 79.333 255.047, 78.099 255.235, 77.709 255.624 M 102.328 257.394 C 98.588 260.611, 98.356 267.250, 101.884 270.107 C 107.692 274.810, 116 271.004, 116 263.640 C 116 256.033, 108.104 252.426, 102.328 257.394 M 120 263.500 C 120 271.333, 120.157 272, 122 272 C 123.619 272, 124 271.333, 124 268.500 C 124 265.278, 124.238 265, 127 265 C 129.762 265, 130 265.278, 130 268.500 C 130 271.582, 130.304 272, 132.540 272 C 135.079 272, 135.081 271.995, 134.790 263.750 C 134.527 256.278, 134.312 255.500, 132.510 255.500 C 131.081 255.500, 130.373 256.346, 130 258.500 C 129.714 260.150, 128.922 261.455, 128.240 261.400 C 127.558 261.345, 126.325 261.233, 125.500 261.150 C 124.533 261.053, 124 259.933, 124 258 C 124 255.667, 123.556 255, 122 255 C 120.157 255, 120 255.667, 120 263.500 M 137.667 255.667 C 136.149 257.185, 137.147 259, 139.500 259 C 141.910 259, 142 259.233, 142 265.500 C 142 271.767, 142.090 272, 144.500 272 C 146.910 272, 147 271.767, 147 265.500 C 147 259.233, 147.090 259, 149.500 259 C 151.333 259, 152 258.467, 152 257 C 152 255.195, 151.333 255, 145.167 255 C 141.408 255, 138.033 255.300, 137.667 255.667 M 155 263.500 L 155 272 161.429 272 C 168.221 272, 171 270.563, 171 267.051 C 171 264.381, 168.558 262.817, 163.499 262.247 C 159.157 261.758, 159 261.622, 159 258.370 C 159 255.667, 158.604 255, 157 255 C 155.157 255, 155 255.667, 155 263.500 M 173.701 255.632 C 173.316 256.018, 173 259.858, 173 264.167 C 173 271.889, 173.036 272, 175.540 272 C 178.079 272, 178.081 271.994, 177.790 263.761 C 177.562 257.271, 177.171 255.459, 175.951 255.226 C 175.099 255.064, 174.087 255.246, 173.701 255.632 M 198.261 259.500 C 197.205 262.944, 197.234 263, 200.094 263 C 203.440 263, 203.328 263.238, 201.902 259.149 C 200.486 255.087, 199.589 255.173, 198.261 259.500 M 64.739 259.126 C 62.066 260.622, 62.671 262, 66 262 C 69.170 262, 69.832 260.935, 67.739 259.199 C 66.906 258.507, 65.889 258.483, 64.739 259.126 M 45.011 260.979 C 42.513 265.647, 47.677 271.530, 50.674 267.431 C 52.269 265.250, 52.347 263.517, 50.965 260.934 C 49.623 258.427, 46.364 258.452, 45.011 260.979 M 104.628 260.528 C 102.767 265.378, 105.122 269.731, 108.950 268.516 C 111.348 267.755, 112.730 263.386, 111.296 261.095 C 109.895 258.856, 105.416 258.475, 104.628 260.528 M 159 266.937 C 159 268.636, 159.630 269, 162.573 269 C 165.436 269, 166.081 268.652, 165.815 267.250 C 165.597 266.097, 164.377 265.393, 162.242 265.187 C 159.532 264.925, 159 265.212, 159 266.937" stroke="none" fill="#ffffff" fill-rule="evenodd"/>
</svg>