<svg xmlns="http://www.w3.org/2000/svg" width="587" height="352" viewBox="0 0 587 352" version="1.1">
	<path d="M 272.097 23.055 C 248.171 28.231, 228.578 39.261, 211.453 57.192 C 194.209 75.246, 184.270 95.617, 180.500 120.629 C 179.681 126.058, 179.009 132.412, 179.006 134.750 L 179 139 210 139 L 241 139 241 145.500 L 241 152 238 152 C 234.546 152, 234.250 153.270, 236.466 158.573 L 237.932 162.082 246.216 161.791 L 254.500 161.500 254.500 142.500 L 254.500 123.500 227.142 123.234 L 199.784 122.967 200.455 119.234 C 201.904 111.168, 205.400 101.113, 209.576 93 C 222.902 67.105, 246.743 48.745, 275.385 42.320 C 284.801 40.207, 306.103 40.169, 315.517 42.246 C 342.690 48.244, 366.218 65.478, 379.879 89.391 C 384.659 97.759, 389.469 110.774, 390.544 118.250 L 391.227 123 364.614 123 L 338 123 338 164.500 C 338 194.446, 338.312 206, 339.119 206 C 341.214 206, 351.975 198.876, 357.482 193.842 C 366.933 185.204, 377.427 167.071, 379.527 155.750 L 380.223 152 372.709 152 L 365.195 152 363.139 158.750 C 361 165.774, 355.810 175, 353.999 175 C 353.301 175, 353.045 169.101, 353.227 157.250 L 353.500 139.500 382.900 139.235 L 412.300 138.969 411.677 128.735 C 409.033 85.280, 379.267 44.589, 338.673 28.934 C 323.254 22.988, 316.949 21.805, 298.500 21.396 C 284.174 21.079, 280.021 21.340, 272.097 23.055 M 276.500 55.038 C 260.010 59.171, 243.203 69.745, 232.499 82.723 C 227.448 88.846, 218 105.811, 218 108.758 C 218 109.714, 223.749 110, 243 110 L 268 110 268 169.979 L 268 229.957 260.750 227.355 C 230.021 216.324, 208.993 194.709, 200.509 165.435 C 199.129 160.673, 198 155.702, 198 154.388 C 198 152.039, 197.845 152, 188.563 152 L 179.126 152 179.702 155.750 C 180.857 163.269, 185.162 176.698, 189.019 184.815 C 202.438 213.055, 228.073 235.096, 259.509 245.423 C 266.970 247.874, 281.891 251, 286.131 251 C 287.940 251, 288 248.500, 288 172.520 L 288 94.041 267.306 93.770 L 246.612 93.500 251.825 88.450 C 258.375 82.104, 265.763 77.601, 275.165 74.224 C 281.569 71.923, 284.086 71.583, 295 71.544 C 305.224 71.508, 308.775 71.904, 314.500 73.718 C 323.415 76.543, 332.525 81.959, 339.233 88.424 L 344.500 93.500 323.250 93.770 L 302 94.040 302 172.520 L 302 251 304.390 251 C 309.180 251, 323.340 247.824, 331.814 244.849 C 369.945 231.462, 399.680 200.466, 409.478 163.893 C 410.863 158.727, 411.996 153.938, 411.997 153.250 C 411.999 152.345, 409.575 152, 403.200 152 L 394.400 152 393.200 157.811 C 388.303 181.520, 370.489 205.369, 346.889 219.812 C 340.303 223.842, 326.519 230, 324.083 230 C 323.318 230, 323 212.413, 323 170 L 323 110 348 110 C 368.550 110, 373 109.755, 373 108.624 C 373 107.868, 371.862 104.677, 370.472 101.533 C 360.750 79.550, 340.125 61.924, 316.500 55.409 C 306.886 52.757, 286.361 52.567, 276.500 55.038 M 210 153.096 C 210 156.255, 213.766 166.548, 217.832 174.500 C 223.979 186.524, 236.118 199.067, 246.772 204.404 C 252.150 207.099, 254.175 207.707, 254.547 206.739 C 254.823 206.019, 254.926 197.571, 254.775 187.965 L 254.500 170.500 248 170.500 L 241.500 170.500 241.563 175.250 C 241.597 177.863, 241.270 180, 240.836 180 C 239.444 180, 231.785 169.668, 229.348 164.500 C 228.051 161.750, 226.709 157.813, 226.367 155.750 L 225.744 152 217.872 152 C 212.831 152, 210 152.394, 210 153.096 M 41 288.175 C 35.857 289.636, 31.037 293.708, 28.913 298.384 C 25.377 306.170, 27.214 318.389, 32.645 323.212 C 40.124 329.853, 56.973 329.380, 63.212 322.355 C 66.015 319.198, 68.231 312.821, 68.231 307.911 C 68.231 293.606, 55.178 284.146, 41 288.175 M 125 287.622 C 117.821 290.413, 114.757 292.563, 112.564 296.346 C 105.869 307.899, 109.834 321.692, 121.218 326.447 C 126.520 328.662, 136.179 328.460, 140.933 326.034 C 145.738 323.583, 150 315.719, 150 309.304 L 150 305 139.500 305 L 129 305 129 309 L 129 313 134 313 C 139.487 313, 139.944 313.613, 137.088 317.139 C 134.616 320.192, 127.282 320.470, 124.143 317.629 C 119.333 313.276, 119.013 303.896, 123.521 299.388 C 126.591 296.318, 132.641 296.143, 136.298 299.020 L 138.865 301.039 143.351 298.860 C 147.591 296.800, 147.760 296.563, 146.427 294.530 C 143.284 289.732, 130.322 285.554, 125 287.622 M 308.620 288.233 C 306.425 288.814, 303.082 290.918, 300.923 293.077 C 291.404 302.596, 293.836 320.354, 305.427 325.965 C 310.115 328.234, 319.939 328.730, 324.685 326.936 C 331.039 324.536, 336 316.153, 336 307.818 L 336 305 325.500 305 L 315 305 315 309 L 315 313 319.441 313 C 324.370 313, 325.392 313.750, 323.661 316.098 C 321.643 318.835, 317.968 320.217, 314.455 319.558 C 306.234 318.015, 302.848 305.998, 308.923 299.923 C 312.640 296.207, 318.837 295.837, 322.134 299.134 L 324.268 301.268 328.634 299.147 C 331.035 297.980, 333 296.654, 333 296.200 C 333 294.268, 326.907 289.776, 322.477 288.443 C 317.041 286.807, 314.174 286.764, 308.620 288.233 M 354.764 287.937 C 340.427 292.560, 335.403 310.417, 345.276 321.662 C 349.393 326.351, 353.485 328, 361 328 C 368.515 328, 372.607 326.351, 376.724 321.662 C 384.964 312.277, 382.732 296.444, 372.308 290.335 C 367.697 287.633, 359.278 286.482, 354.764 287.937 M 394.415 288.421 C 389.169 290.705, 386.731 294.738, 387.256 300.260 C 387.826 306.262, 389.904 308.552, 396.727 310.703 C 402.588 312.551, 404.948 315.153, 402.947 317.564 C 401.179 319.695, 397.738 319.311, 393.635 316.527 L 389.991 314.054 387.373 318.201 C 384.841 322.212, 384.817 322.395, 386.628 323.781 C 395.350 330.455, 409.424 329.017, 412.726 321.113 C 416.030 313.206, 411.893 305.395, 403.156 303.042 C 398.191 301.705, 396.246 299.614, 398 297.500 C 399.621 295.547, 402.971 295.591, 405.842 297.602 C 407.100 298.483, 408.268 299.046, 408.437 298.852 C 409.065 298.135, 412 292.079, 412 291.501 C 412 290.340, 403.462 287.044, 400.500 287.061 C 398.850 287.071, 396.112 287.683, 394.415 288.421 M 497.637 288.405 C 487.730 292.090, 482.271 302.794, 485.023 313.137 C 487.591 322.784, 494.652 328, 505.144 328 C 518.984 328, 527.106 319.004, 525.686 305.248 C 524.625 294.964, 517.523 288.315, 506.622 287.399 C 503.574 287.143, 499.936 287.550, 497.637 288.405 M 74.667 288.667 C 74.300 289.033, 74 297.808, 74 308.167 L 74 327 79.500 327 L 85 327 85 321.500 C 85 318.475, 85.345 316, 85.766 316 C 86.188 316, 88.013 318.475, 89.822 321.500 L 93.112 327 99.556 327 C 103.100 327, 106 326.764, 106 326.475 C 106 326.187, 103.809 322.951, 101.131 319.285 L 96.262 312.618 99.563 309.506 C 107.236 302.269, 104.450 291.285, 94.347 288.940 C 89.841 287.895, 75.636 287.697, 74.667 288.667 M 156.698 288.636 C 156.314 289.019, 156 297.808, 156 308.167 L 156 327 168.057 327 L 180.115 327 179.807 322.750 L 179.500 318.500 173.250 318.202 C 167.062 317.908, 167 317.875, 167 314.952 C 167 312.040, 167.075 312, 172.500 312 L 178 312 178 307.500 L 178 303 172.500 303 C 167.329 303, 167 302.854, 167 300.548 C 167 298.238, 167.363 298.078, 173.250 297.798 L 179.500 297.500 179.500 293 L 179.500 288.500 168.448 288.219 C 162.369 288.065, 157.081 288.252, 156.698 288.636 M 186.667 288.667 C 186.300 289.033, 186 297.808, 186 308.167 L 186 327 191.500 327 L 197 327 197 315.821 L 197 304.642 203.769 315.571 L 210.538 326.500 216.269 326.800 L 222 327.100 222 307.495 L 222 287.890 217.250 288.195 L 212.500 288.500 212 299.500 C 211.517 310.125, 211.444 310.415, 209.858 308 C 208.955 306.625, 205.703 301.563, 202.631 296.750 L 197.045 288 192.189 288 C 189.518 288, 187.033 288.300, 186.667 288.667 M 230.667 288.667 C 230.300 289.033, 230 297.808, 230 308.167 L 230 327 241.500 327 L 253 327 253 322.500 L 253 318 247 318 L 241 318 241 315 C 241 312.030, 241.056 312, 246.500 312 L 252 312 252 307.500 L 252 303 246.500 303 C 241.300 303, 241 302.864, 241 300.500 C 241 298.111, 241.267 298, 247 298 L 253 298 253 293 L 253 288 242.167 288 C 236.208 288, 231.033 288.300, 230.667 288.667 M 260.750 288.552 C 260.337 288.982, 260 297.808, 260 308.167 L 260 327 265.450 327 L 270.900 327 271.200 321.250 L 271.500 315.500 275.238 321.250 L 278.975 327 285.541 327 L 292.106 327 286.876 319.510 C 284 315.390, 281.839 311.879, 282.073 311.707 C 282.308 311.535, 283.720 310.632, 285.211 309.700 C 288.892 307.399, 290.462 301.538, 288.760 296.453 C 286.691 290.274, 283.798 288.874, 271.876 288.284 C 266.169 288.001, 261.163 288.122, 260.750 288.552 M 417 292.972 L 417 298 421 298 L 425 298 425 312.500 L 425 327 430.500 327 L 436 327 436 312.500 L 436 298 440.555 298 L 445.110 298 444.805 293.250 L 444.500 288.500 430.750 288.222 L 417 287.944 417 292.972 M 449.667 288.667 C 449.300 289.033, 449 297.808, 449 308.167 L 449 327 454.500 327 L 460 327 460 321.500 C 460 318.475, 460.345 316, 460.766 316 C 461.188 316, 463.013 318.475, 464.822 321.500 L 468.112 327 474.556 327 C 478.100 327, 481 326.764, 481 326.475 C 481 326.187, 478.809 322.951, 476.131 319.285 L 471.262 312.618 474.563 309.506 C 482.439 302.077, 479.327 290.953, 468.803 288.919 C 463.591 287.911, 450.593 287.740, 449.667 288.667 M 529 288.914 C 529 289.417, 531.925 294.996, 535.500 301.313 C 541.824 312.487, 542 312.992, 542 319.951 L 542 327.105 547.180 326.802 L 552.360 326.500 552.140 320 C 551.925 313.637, 552.067 313.241, 558.903 301.197 C 566.471 287.862, 566.470 287.641, 558.864 288.187 C 554.676 288.487, 554.378 288.730, 551.479 294.187 C 549.818 297.315, 548.157 300.176, 547.788 300.545 C 547.419 300.914, 545.769 298.242, 544.122 294.608 L 541.125 288 535.063 288 C 531.728 288, 529 288.411, 529 288.914 M 40.803 300.043 C 37.976 302.871, 37.793 303.486, 38.226 308.713 C 38.786 315.468, 41.970 319, 47.500 319 C 53.030 319, 56.214 315.468, 56.774 308.713 C 57.207 303.486, 57.024 302.871, 54.197 300.043 C 51.917 297.763, 50.238 297, 47.500 297 C 44.762 297, 43.083 297.763, 40.803 300.043 M 85 301.500 C 85 305.762, 85.148 306, 87.800 306 C 91.131 306, 93 304.383, 93 301.500 C 93 298.617, 91.131 297, 87.800 297 C 85.148 297, 85 297.238, 85 301.500 M 271 301.434 C 271 305.610, 271.209 306, 273.443 306 C 274.828 306, 276.555 305.045, 277.430 303.796 C 278.743 301.922, 278.772 301.287, 277.623 299.546 C 276.881 298.421, 275.087 297.358, 273.637 297.184 C 271.127 296.882, 271 297.086, 271 301.434 M 355.251 298.537 C 352.584 300.405, 350.768 306.591, 351.627 310.884 C 352.415 314.827, 357.235 319, 361 319 C 365.171 319, 369.696 314.757, 370.481 310.110 C 371.255 305.530, 369.151 299.686, 366.150 298.080 C 363.242 296.524, 357.800 296.752, 355.251 298.537 M 461 301.500 C 461 306.296, 462.132 307.070, 466.066 304.965 C 470.068 302.823, 467.509 297, 462.566 297 C 461.377 297, 461 298.083, 461 301.500 M 499.237 298.993 C 494.372 303.526, 494.599 312.966, 499.669 316.955 C 502.734 319.365, 507.686 319.609, 510.701 317.497 C 515.606 314.061, 516.040 303.950, 511.479 299.388 C 508.407 296.317, 502.321 296.120, 499.237 298.993" stroke="none" fill="#ffffff" fill-rule="evenodd"/>
</svg>