<svg xmlns="http://www.w3.org/2000/svg" width="712" height="653" viewBox="0 0 712 653" version="1.1">
	<path d="M 12.463 12.250 C 12.202 12.938, 12.103 155.025, 12.244 328 L 12.500 642.500 355.750 642.751 L 699 643.003 699 327.001 L 699 11 355.969 11 C 82.463 11, 12.841 11.253, 12.463 12.250 M 292.686 157.243 C 293.204 157.934, 293.748 160.300, 293.895 162.500 C 294.201 167.100, 296.880 176, 297.957 176 C 298.356 176, 299.223 177.800, 299.882 180 C 300.569 182.293, 301.703 184, 302.540 184 C 303.420 184, 304 184.967, 304 186.433 C 304 188.015, 304.724 189.095, 306.072 189.523 C 307.318 189.918, 307.929 190.743, 307.604 191.590 C 307.295 192.395, 307.672 193, 308.482 193 C 309.262 193, 310.267 193.654, 310.714 194.454 C 311.918 196.605, 352.790 198.079, 377.500 196.862 C 387.950 196.347, 397.512 195.895, 398.750 195.857 C 399.988 195.819, 401 195.161, 401 194.394 C 401 193.627, 401.675 193, 402.500 193 C 403.325 193, 404 192.355, 404 191.567 C 404 190.779, 404.900 189.849, 406 189.500 C 407.278 189.094, 408 187.987, 408 186.433 C 408 184.967, 408.580 184, 409.460 184 C 410.297 184, 411.431 182.293, 412.118 180 C 412.777 177.800, 413.644 176, 414.043 176 C 415.055 176, 417.777 167.259, 418.135 162.862 C 418.619 156.909, 417.528 156.380, 406.324 157.139 C 373.978 159.329, 316.894 158.972, 295.622 156.447 C 292.624 156.091, 291.957 156.271, 292.686 157.243 M 419.164 157.698 C 419.749 158.402, 420.626 158.731, 421.113 158.430 C 422.701 157.449, 422.048 156.121, 420.051 156.271 C 418.586 156.381, 418.366 156.736, 419.164 157.698 M 289 157.393 C 289 157.609, 289.698 158.054, 290.552 158.382 C 291.442 158.723, 291.843 158.555, 291.493 157.989 C 290.906 157.038, 289 156.583, 289 157.393 M 402 194.393 C 402 194.609, 402.698 195.054, 403.552 195.382 C 404.442 195.723, 404.843 195.555, 404.493 194.989 C 403.906 194.038, 402 193.583, 402 194.393 M 302.726 220.608 C 302.391 220.942, 302.486 221.955, 302.936 222.858 C 304.370 225.735, 306 231.568, 306 233.821 C 306 235.019, 306.441 236, 306.981 236 C 307.520 236, 308.265 237.238, 308.636 238.750 C 309.008 240.262, 310.413 242.534, 311.759 243.799 C 313.213 245.163, 314.017 246.826, 313.738 247.892 C 312.589 252.289, 321.819 253.500, 356.500 253.500 C 387.573 253.500, 397.719 252.668, 398.083 250.089 C 398.129 249.765, 398.285 248.401, 398.430 247.058 C 398.575 245.714, 399.663 243.972, 400.847 243.186 C 402.031 242.399, 403 240.943, 403 239.949 C 403 238.956, 403.610 237.533, 404.355 236.788 C 406.407 234.736, 407.697 226.953, 406.889 221.500 C 406.621 219.692, 405.006 219.480, 404.985 221.250 C 404.975 222.073, 404.719 222.140, 404.235 221.446 C 403.730 220.722, 399.424 220.664, 390.500 221.261 C 380.457 221.933, 309.500 221.702, 309.500 220.997 C 309.500 220.914, 308.767 220.704, 307.871 220.530 C 306.688 220.299, 306.349 220.799, 306.633 222.356 C 306.847 223.535, 306.755 223.938, 306.428 223.250 C 306.101 222.563, 305.083 221.993, 304.167 221.985 C 302.725 221.971, 302.703 221.838, 304 221 C 304.825 220.467, 305.012 220.024, 304.417 220.015 C 303.821 220.007, 303.060 220.274, 302.726 220.608 M 393.042 249.551 C 393.559 250.174, 393.663 251.004, 393.272 251.395 C 392.881 251.786, 393.372 251.794, 394.364 251.414 C 395.636 250.926, 395.815 250.503, 394.971 249.982 C 394.072 249.427, 394.114 249.113, 395.137 248.723 C 395.887 248.437, 395.510 248.252, 394.301 248.311 C 392.782 248.385, 392.393 248.768, 393.042 249.551 M 319.335 276.144 C 319.426 278.699, 319.805 280.605, 320.178 280.380 C 320.551 280.155, 321.144 280.877, 321.495 281.985 C 321.847 283.093, 322.554 284, 323.067 284 C 323.580 284, 324 284.546, 324 285.212 C 324 285.879, 325.238 287.487, 326.750 288.785 C 328.262 290.083, 328.943 290.864, 328.261 290.520 C 327.465 290.119, 327.224 290.420, 327.586 291.365 C 328.401 293.488, 340.563 294.259, 365 293.734 C 385.806 293.287, 388.332 293.062, 389.721 291.535 C 390.149 291.065, 389.938 291.003, 389.250 291.399 C 388.563 291.794, 388 291.641, 388 291.059 C 388 290.477, 388.788 289.993, 389.750 289.985 C 391.246 289.972, 391.282 289.828, 390 289 C 388.718 288.172, 388.754 288.028, 390.250 288.015 C 391.328 288.006, 392 287.232, 392 286 C 392 284.900, 392.502 284, 393.117 284 C 393.741 284, 394.003 283.118, 393.710 281.999 C 393.422 280.898, 393.595 280.250, 394.095 280.559 C 394.973 281.101, 396.390 278.281, 397.538 273.706 L 398.091 271.500 358.630 271.500 L 319.170 271.500 319.335 276.144 M 385.333 290.456 C 385.333 291.257, 385.716 291.676, 386.183 291.387 C 386.650 291.098, 386.774 290.443, 386.457 289.931 C 385.649 288.623, 385.333 288.770, 385.333 290.456 M 332.707 309.677 C 333.008 310.463, 332.384 310.662, 330.829 310.276 C 328.573 309.717, 328.586 309.780, 331.250 312.302 C 332.762 313.733, 334 315.943, 334 317.212 C 334 318.481, 334.947 320.110, 336.105 320.833 C 337.646 321.796, 338.006 321.819, 337.450 320.919 C 336.944 320.101, 337.106 319.947, 337.933 320.458 C 338.616 320.880, 338.960 322.044, 338.698 323.045 C 338.289 324.612, 339.076 324.955, 344.361 325.516 C 349.623 326.074, 366.818 325.684, 370.793 324.916 C 371.504 324.779, 371.865 324.090, 371.594 323.384 C 371.302 322.624, 371.640 322.308, 372.422 322.608 C 373.148 322.887, 374.022 322.386, 374.364 321.494 C 374.715 320.579, 375.492 320.186, 376.147 320.591 C 376.853 321.027, 377.040 320.873, 376.623 320.199 C 376.245 319.588, 376.626 317.438, 377.468 315.422 C 379.322 310.985, 379.342 310.708, 377.750 311.517 C 377.063 311.867, 377.424 311.331, 378.553 310.326 C 380.547 308.552, 379.921 308.500, 356.431 308.500 C 338.301 308.500, 332.369 308.794, 332.707 309.677 M 344 345 C 344 346.100, 344.337 346.887, 344.750 346.750 C 345.163 346.613, 345.596 346.854, 345.714 347.286 C 346.388 349.756, 349.283 351, 354.361 351 C 358.987 351, 359.967 350.681, 360.500 349 C 360.849 347.900, 361.684 347, 362.355 347 C 363.025 347, 363.642 346.100, 363.725 345 C 363.866 343.124, 363.259 343, 353.938 343 C 344.667 343, 344 343.134, 344 345 M 248 437.729 C 244.010 439.248, 244.102 442.905, 248.250 447.641 C 255.764 456.219, 264.918 459.154, 272.300 455.352 C 280.251 451.257, 286.699 443.985, 285.394 440.585 C 284.753 438.913, 281.942 437, 280.127 437 C 279.574 437, 277.045 438.797, 274.508 440.993 C 265.978 448.376, 264.976 448.401, 256.814 441.434 C 251.620 437, 250.809 436.659, 248 437.729 M 62.889 467.614 C 59.252 468.696, 59 472.013, 59 518.856 C 59 568.586, 58.963 568.250, 64.500 568.250 C 69.545 568.250, 70 566.413, 69.999 546.059 L 69.997 527.500 81.958 527.833 C 98.366 528.289, 103.362 526.798, 110.992 519.168 C 118.232 511.928, 120.453 505.963, 119.785 495.554 C 119.226 486.837, 115.622 479.463, 109.452 474.407 C 102 468.301, 99.258 467.622, 81 467.366 C 71.925 467.239, 63.775 467.350, 62.889 467.614 M 159.718 468.098 C 158.738 468.668, 147.368 490.269, 134.450 516.099 C 109.853 565.285, 109.899 565.165, 114.654 567.826 C 118.314 569.875, 120.063 567.848, 127.566 552.868 L 135.013 538 161.974 538 L 188.935 538 196.475 552.885 C 204.028 567.798, 205.774 569.825, 209.346 567.826 C 214.101 565.165, 214.147 565.286, 189.539 516.078 C 168.950 474.908, 164.359 466.785, 161.816 467.030 C 161.642 467.047, 160.698 467.527, 159.718 468.098 M 226.441 468.419 C 224.578 469.780, 224.488 471.627, 224.197 514.169 C 224.030 538.551, 224.174 560.439, 224.517 562.808 C 225.174 567.353, 227.495 569.206, 231.289 568.214 C 232.313 567.946, 246.955 549.977, 263.826 528.282 L 294.500 488.837 295 527.370 C 295.358 554.959, 295.834 566.236, 296.675 567.076 C 298.459 568.858, 303.176 568.479, 304.672 566.434 C 305.732 564.985, 306 555.085, 306 517.464 C 306 471.346, 305.955 470.270, 303.970 468.473 C 302.397 467.049, 301.376 466.845, 299.438 467.568 C 297.850 468.159, 285.620 483.065, 265.968 508.363 L 235 548.225 235 509.184 C 235 475.025, 234.803 469.946, 233.429 468.571 C 231.478 466.621, 228.976 466.566, 226.441 468.419 M 366.202 467.678 C 364.328 468.430, 318 561.506, 318 564.521 C 318 566.315, 318.745 567.333, 320.565 568.025 C 323.348 569.083, 411.901 569.401, 415.761 568.367 C 421.210 566.907, 420.536 565.111, 396.403 516.762 C 383.806 491.526, 372.695 470.005, 371.711 468.939 C 369.920 466.998, 368.633 466.704, 366.202 467.678 M 433 469 C 431.057 470.943, 431 472.323, 431.015 517.750 C 431.024 543.462, 431.361 564.995, 431.765 565.600 C 433.768 568.599, 437.309 569, 461.684 568.985 C 488.674 568.969, 491.257 568.529, 491.804 563.853 C 492.453 558.304, 491.081 558, 465.429 558 L 442 558 442 540.500 L 442 523 460.429 523 C 475.848 523, 479.114 522.743, 480.429 521.429 C 482.255 519.602, 482.417 517.647, 480.965 514.934 C 479.997 513.126, 478.691 513, 460.965 513 L 442 513 442 495.500 L 442 478 464.777 478 C 483.774 478, 487.924 477.742, 489.777 476.443 C 492.473 474.555, 492.658 470.905, 490.171 468.655 C 488.566 467.202, 485.086 467, 461.671 467 C 436.333 467, 434.900 467.100, 433 469 M 505.750 468.080 C 504.121 469.029, 504 472.486, 504 518.074 L 504 567.050 506.491 567.997 C 509.108 568.992, 511.996 568.382, 513.235 566.573 C 513.639 565.983, 513.976 555.379, 513.985 543.008 L 514 520.516 537.250 543.652 C 550.038 556.377, 561.516 567.303, 562.757 567.933 C 564.683 568.910, 565.377 568.714, 567.497 566.594 C 569.119 564.972, 569.764 563.485, 569.358 562.306 C 569.016 561.312, 559.237 550.938, 547.627 539.250 L 526.518 518 547.153 497.250 C 558.502 485.838, 568.232 475.600, 568.776 474.500 C 570.789 470.424, 568.052 467.319, 563 467.950 C 562.175 468.054, 550.813 478.791, 537.750 491.811 L 514 515.484 514 492.277 C 514 470.357, 513.893 469.013, 512.066 468.035 C 509.670 466.753, 508.009 466.765, 505.750 468.080 M 605.500 468.039 C 594.312 470.333, 585.781 475.229, 577.624 484.039 C 571.137 491.046, 567.516 498.066, 565.514 507.517 C 563.673 516.208, 563.662 519.741, 565.449 528.174 C 569.834 548.862, 587.093 565.077, 607.826 567.986 C 622.026 569.979, 638.101 565.324, 648.045 556.340 C 652.298 552.498, 653.094 549.237, 650.429 546.571 C 648.004 544.147, 645.577 544.674, 640.845 548.653 C 638.455 550.662, 634.025 553.475, 631 554.902 C 626.168 557.183, 624.225 557.498, 615 557.498 C 605.687 557.498, 603.850 557.194, 598.747 554.803 C 590.728 551.046, 582.681 543.129, 578.734 535.112 C 575.709 528.968, 575.500 527.864, 575.500 518.005 C 575.500 508.146, 575.709 507.040, 578.734 500.893 C 582.680 492.872, 590.723 484.956, 598.747 481.196 C 603.922 478.771, 605.606 478.503, 615.500 478.531 C 627.802 478.566, 630.696 479.561, 640.700 487.197 C 644.736 490.278, 646.415 491.006, 648.200 490.448 C 653.512 488.790, 653.280 484.434, 647.599 479.198 C 641.966 474.006, 636.714 471.357, 627.259 468.938 C 619.388 466.925, 612.352 466.634, 605.500 468.039 M 70 498.405 L 70 518.810 73.750 518.439 C 75.813 518.235, 81.623 517.859, 86.663 517.604 C 96.934 517.085, 100.195 515.820, 104.809 510.564 C 113.129 501.089, 110.325 486.261, 99.093 480.328 C 95.167 478.254, 93.336 478, 82.343 478 L 70 478 70 498.405 M 150.742 506.500 L 140.006 528 162 528 L 183.994 528 173.258 506.500 C 167.353 494.675, 162.287 485, 162 485 C 161.713 485, 156.647 494.675, 150.742 506.500 M 350.003 520.995 C 340.101 540.792, 332 557.217, 332 557.495 C 332 557.773, 348.425 558, 368.500 558 C 388.575 558, 405 557.773, 405 557.495 C 405 556.522, 368.990 485, 368.500 485 C 368.228 485, 359.904 501.198, 350.003 520.995" stroke="none" fill="#ffffff" fill-rule="evenodd"/>
</svg>