<svg xmlns="http://www.w3.org/2000/svg" width="313" height="154" viewBox="0 0 313 154" version="1.1">
	<path d="M 38.686 2.647 C 38.309 3.024, 38 29.602, 38 61.707 L 38 120.081 46.250 119.790 C 50.788 119.631, 54.388 119.162, 54.250 118.750 C 54.112 118.338, 54 103.205, 54 85.123 L 54 52.245 48.486 49.373 L 42.971 46.500 43.236 27 L 43.500 7.500 59.500 7.500 L 75.500 7.500 76 39.832 L 76.500 72.163 78.764 69.752 L 81.028 67.341 80.764 34.921 L 80.500 2.500 59.936 2.230 C 48.626 2.082, 39.064 2.269, 38.686 2.647 M 26.739 54.521 L 20 59.042 20 87.021 L 20 115 11.500 115 C 3.100 115, 3 115.029, 3 117.500 L 3 120 14 120 L 25 120 25 91.048 L 25 62.096 29.500 59 C 33.118 56.511, 34 55.325, 34 52.952 C 34 51.328, 33.883 50, 33.739 50 C 33.596 50, 30.446 52.034, 26.739 54.521 M 43 84 L 43 115 46 115 L 49 115 49 85.161 L 49 55.321 46.453 54.161 C 45.052 53.522, 43.702 53, 43.453 53 C 43.204 53, 43 66.950, 43 84 M 83.363 70.127 C 78.488 74.046, 72.139 79.109, 69.254 81.377 L 64.008 85.500 64.004 102.750 L 64 120 72.500 120 L 81 120 81.008 98.750 L 81.016 77.500 86.990 72.736 L 92.964 67.973 96.732 71.343 C 98.804 73.197, 103.875 77.525, 108 80.961 L 115.500 87.208 116 103.354 L 116.500 119.500 212.750 119.755 L 309 120.010 309 117.482 L 309 114.954 217.750 115.009 C 167.563 115.040, 125.263 115.050, 123.750 115.032 L 121 115 121 100.560 L 121 86.119 116 81.903 C 111.599 78.192, 111 77.227, 111 73.843 C 111 70.667, 110.653 70, 109 70 C 107.889 70, 107 70.667, 107 71.500 C 107 73.765, 106.301 73.424, 99.809 68 C 96.518 65.250, 93.465 63, 93.025 63 C 92.586 63, 88.237 66.207, 83.363 70.127 M 71.167 85.750 L 67.909 88.500 68.204 101.918 L 68.500 115.337 71 115.530 C 75.964 115.913, 76 115.791, 76 98.893 C 76 90.152, 75.646 83, 75.212 83 C 74.779 83, 72.958 84.237, 71.167 85.750 M 128.278 91.956 C 122.259 97.563, 126.065 110, 133.799 110 C 135.094 110, 137.469 108.685, 139.077 107.077 C 142.634 103.520, 142.997 98.148, 140.011 93.250 C 138.331 90.495, 137.447 90, 134.203 90 C 131.788 90, 129.603 90.721, 128.278 91.956 M 147.073 92.635 C 143.836 96.750, 144.226 103.380, 147.923 107.077 C 152.794 111.948, 158.758 110.294, 161.019 103.444 C 162.396 99.271, 161.830 96.325, 158.949 92.662 C 155.999 88.913, 150.011 88.899, 147.073 92.635 M 167.008 92.492 C 165.280 94.330, 164.667 96.145, 164.667 99.413 C 164.667 107.320, 169.676 111.619, 175.890 109.046 C 181.130 106.875, 182.752 98.269, 178.932 92.904 C 176.159 89.010, 170.464 88.813, 167.008 92.492 M 186.326 93.624 C 186.650 95.617, 187.159 97.492, 187.457 97.791 C 188.372 98.705, 189.059 97.414, 189.674 93.624 C 190.204 90.354, 190.041 90, 188 90 C 185.959 90, 185.796 90.354, 186.326 93.624 M 192 94.083 C 192 99.294, 194.365 98.948, 194.810 93.673 C 195.046 90.879, 194.747 90, 193.560 90 C 192.401 90, 192 91.050, 192 94.083 M 199.214 99.750 C 199.478 108.738, 199.656 109.500, 201.500 109.500 C 203.089 109.500, 203.564 108.730, 203.810 105.750 C 204.101 102.241, 204.332 102, 207.405 102 C 211.262 102, 214 99.436, 214 95.826 C 214 91.796, 211.113 90, 204.635 90 L 198.928 90 199.214 99.750 M 217.214 99.750 C 217.478 108.738, 217.656 109.500, 219.500 109.500 C 220.925 109.500, 221.589 108.730, 221.809 106.823 C 221.980 105.351, 222.741 103.630, 223.501 102.999 C 224.610 102.079, 225.295 102.658, 226.962 105.926 C 228.336 108.619, 229.711 110, 231.020 110 C 233.570 110, 233.520 109.377, 230.429 102.625 L 227.857 97.009 229.929 94.100 C 232.497 90.493, 232.507 90, 230.014 90 C 228.788 90, 226.971 91.605, 225.264 94.193 L 222.500 98.387 222.193 94.193 C 221.920 90.479, 221.602 90, 219.406 90 L 216.928 90 217.214 99.750 M 239.229 90.669 C 237.191 91.489, 235 96.597, 235 100.527 C 235 104.726, 239.439 110, 242.973 110 C 246.240 110, 250.683 107.319, 251.295 104.979 C 252.086 101.956, 249.363 101.310, 246.635 103.873 C 245.390 105.043, 243.853 106, 243.221 106 C 240.397 106, 238.822 97.578, 241.200 95.200 C 243.060 93.340, 245.796 93.782, 246.519 96.058 C 247.414 98.880, 251.648 98.371, 251.160 95.500 C 250.567 92.015, 247.934 89.995, 244.095 90.079 C 242.118 90.122, 239.928 90.388, 239.229 90.669 M 264.214 99.750 C 264.445 107.623, 264.789 109.500, 266 109.500 C 266.981 109.500, 267.673 108.191, 268 105.717 C 268.275 103.636, 268.837 101.949, 269.250 101.967 C 269.663 101.985, 270.873 102, 271.940 102 C 273.459 102, 273.946 102.812, 274.190 105.750 C 274.436 108.730, 274.911 109.500, 276.500 109.500 C 278.344 109.500, 278.522 108.738, 278.786 99.750 L 279.072 90 276.536 90 C 274.237 90, 274 90.380, 274 94.066 C 274 97.913, 273.851 98.116, 271.250 97.816 C 268.862 97.542, 268.459 97.006, 268.190 93.750 C 267.944 90.787, 267.465 90, 265.903 90 C 264.051 90, 263.945 90.610, 264.214 99.750 M 283.214 99.750 C 283.483 108.912, 283.632 109.519, 285.686 109.811 C 287.563 110.078, 287.916 109.584, 288.186 106.311 C 288.484 102.698, 288.694 102.484, 292.235 102.191 C 298.346 101.684, 301.003 96.003, 297 92 C 295.442 90.442, 293.667 90, 288.964 90 L 282.928 90 283.214 99.750 M 301 93.368 C 301 95.301, 301.480 97.179, 302.067 97.541 C 303.554 98.460, 303.898 97.893, 304.219 93.986 C 304.432 91.404, 304.076 90.490, 302.750 90.215 C 301.347 89.925, 301 90.549, 301 93.368 M 306.587 93.750 C 307.386 98.168, 307.534 98.406, 308.933 97.541 C 309.520 97.179, 310 95.334, 310 93.441 C 310 90.641, 309.619 90, 307.955 90 C 306.137 90, 305.985 90.418, 306.587 93.750 M 131.200 95.200 C 129.553 96.847, 129.691 102.202, 131.441 104.559 C 134.465 108.631, 138.154 102.734, 136.559 96.379 C 135.914 93.808, 133.191 93.209, 131.200 95.200 M 150.667 94.667 C 150.300 95.033, 150 97.228, 150 99.544 C 150 104.004, 151.905 106.634, 154.432 105.664 C 156.409 104.906, 157.459 98.726, 156.056 96.105 C 154.969 94.074, 152.041 93.292, 150.667 94.667 M 170.104 96.250 C 168.971 99.260, 169.909 105.028, 171.638 105.691 C 174.961 106.966, 177.322 100.609, 175.393 95.582 C 174.490 93.229, 171.079 93.660, 170.104 96.250 M 204 96.500 C 204 99.071, 204.676 99.445, 207.418 98.393 C 210.081 97.371, 209.376 94, 206.500 94 C 204.500 94, 204 94.500, 204 96.500 M 288 96.031 C 288 98.693, 290.742 99.686, 292.696 97.733 C 294.658 95.770, 293.589 94, 290.441 94 C 288.654 94, 288 94.544, 288 96.031 M 253.500 101 C 252.447 102.704, 253.985 104, 257.059 104 C 259.333 104, 260 103.547, 260 102 C 260 100.453, 259.333 100, 257.059 100 C 255.441 100, 253.840 100.450, 253.500 101 M 3.432 128.318 C 3.154 129.042, 3.055 134.330, 3.213 140.068 L 3.500 150.500 6.250 150.816 C 8.895 151.121, 9 150.958, 9 146.566 L 9 142 12.566 142 C 17.141 142, 19.852 140.521, 21.050 137.370 C 22.434 133.728, 21.179 130.144, 17.932 128.465 C 14.315 126.595, 4.133 126.491, 3.432 128.318 M 26 139 L 26 151 28.500 151 C 30.590 151, 31 150.526, 31 148.111 C 31 146.522, 31.799 144.234, 32.776 143.028 L 34.553 140.834 36.772 145.917 C 38.733 150.407, 39.342 151, 41.996 151 C 43.648 151, 45 150.764, 45 150.475 C 45 150.186, 43.396 146.765, 41.435 142.872 L 37.871 135.794 40.435 131.918 C 43.560 127.197, 43.572 127, 40.750 127.002 C 39.162 127.003, 37.470 128.519, 35 132.152 L 31.500 137.301 31.198 132.150 C 30.921 127.435, 30.689 127, 28.448 127 L 26 127 26 139 M 51.750 128.080 C 47.365 130.634, 45.556 140.307, 48.425 145.855 C 50.885 150.612, 56.722 152.229, 61.855 149.575 C 64.607 148.152, 67.401 143.734, 66.266 142.600 C 64.857 141.190, 61.102 142.102, 60.500 144 C 59.788 146.244, 56.111 146.711, 54.200 144.800 C 52.644 143.244, 52.644 134.756, 54.200 133.200 C 56.111 131.289, 59.788 131.756, 60.500 134 C 61.108 135.916, 64.861 136.805, 66.293 135.373 C 67.248 134.419, 64.233 129.195, 62.055 128.030 C 59.615 126.724, 54.032 126.751, 51.750 128.080 M 81 139 L 81 151.133 83.744 150.816 C 86.126 150.542, 86.504 150.038, 86.606 147 C 86.813 140.864, 86.818 140.855, 90.184 141.187 C 93.234 141.487, 93.371 141.691, 93.434 146 C 93.495 150.147, 93.716 150.525, 96.250 150.816 L 99 151.133 99 139 L 99 126.867 96.250 127.184 C 93.761 127.470, 93.500 127.880, 93.500 131.500 C 93.500 135.368, 93.382 135.510, 89.909 135.801 L 86.318 136.102 86.405 131.801 C 86.485 127.829, 86.281 127.476, 83.746 127.184 L 81 126.867 81 139 M 106.923 129.923 C 104.110 132.736, 103.486 135.094, 103.993 141 C 105.031 153.087, 119.878 154.594, 123.019 142.931 C 126.234 130.990, 114.964 121.882, 106.923 129.923 M 128.218 138.750 L 128.500 150.500 134.169 150.797 C 137.591 150.977, 141.256 150.502, 143.419 149.598 C 146.540 148.294, 147 147.661, 147 144.673 C 147 142.788, 146.342 140.699, 145.537 140.031 C 144.256 138.968, 144.270 138.517, 145.647 136.416 C 147.700 133.282, 146.747 129.661, 143.477 128.171 C 142.063 127.527, 137.988 127, 134.421 127 L 127.937 127 128.218 138.750 M 155.750 128.080 C 153.080 129.635, 151 134.437, 151 139.046 C 151 149.034, 159.873 154.343, 166.811 148.506 C 171.834 144.279, 172.156 134.618, 167.443 129.533 C 164.920 126.811, 159.158 126.095, 155.750 128.080 M 175.432 128.318 C 175.154 129.042, 175.055 134.330, 175.213 140.068 L 175.500 150.500 178.250 150.816 C 180.895 151.121, 181 150.958, 181 146.566 L 181 142 184.889 142 C 190.334 142, 193.400 139.299, 193.400 134.500 C 193.400 128.973, 190.495 127, 182.358 127 C 177.968 127, 175.777 127.417, 175.432 128.318 M 199.923 129.923 C 197.345 132.501, 197 133.551, 197 138.817 C 197 144.026, 197.370 145.185, 199.901 147.894 C 207.585 156.120, 218.672 147.383, 215.947 135.250 C 214.133 127.175, 205.531 124.315, 199.923 129.923 M 223.766 129.918 C 220.747 132.615, 220.500 133.302, 220.500 139 C 220.500 144.698, 220.747 145.385, 223.766 148.082 C 228.229 152.070, 233.086 152.068, 237.077 148.077 C 238.685 146.469, 240 144.444, 240 143.577 C 240 141.232, 235.304 141.563, 234 144 C 232.361 147.062, 228.189 146.621, 226.894 143.250 C 225.545 139.736, 226.467 133.863, 228.615 132.292 C 230.595 130.845, 234 132.263, 234 134.535 C 234 135.496, 235.032 136, 237 136 C 240.755 136, 240.880 134.199, 237.411 130.077 C 233.843 125.836, 228.405 125.773, 223.766 129.918 M 246.766 129.918 C 243.747 132.615, 243.500 133.302, 243.500 139 C 243.500 144.698, 243.747 145.385, 246.766 148.082 C 251.229 152.070, 256.086 152.068, 260.077 148.077 C 261.685 146.469, 263 144.444, 263 143.577 C 263 141.194, 258.300 141.571, 256.968 144.060 C 255.188 147.386, 250.792 146.301, 249.637 142.250 C 248.198 137.200, 249.905 132.576, 253.356 132.176 C 255.493 131.929, 256.276 132.340, 256.691 133.926 C 257.082 135.420, 258.040 136, 260.117 136 C 263.251 136, 263.629 135.050, 261.837 131.684 C 258.850 126.077, 251.968 125.270, 246.766 129.918 M 267.218 138.680 C 267.490 150.088, 267.579 150.511, 269.756 150.820 C 271.227 151.029, 272.271 150.492, 272.756 149.275 C 273.749 146.784, 279.365 138.083, 280.010 138.037 C 280.290 138.016, 280.515 140.813, 280.510 144.250 C 280.500 150.253, 280.599 150.500, 283 150.500 L 285.500 150.500 285.782 138.750 L 286.063 127 283.500 127 C 281.998 127, 280.638 127.725, 280.218 128.750 C 278.946 131.851, 273.831 140, 273.155 140.002 C 272.795 140.003, 272.500 137.190, 272.500 133.752 C 272.500 127.657, 272.430 127.492, 269.718 127.180 L 266.935 126.861 267.218 138.680 M 293.455 129.455 C 290.454 132.455, 290.321 135.649, 293.075 138.579 L 295.149 140.788 293.075 144.854 C 290.362 150.171, 290.457 151.198, 293.627 150.816 C 295.702 150.567, 296.622 149.554, 298.001 146 C 299.183 142.953, 300.415 141.399, 301.816 141.188 C 303.631 140.914, 303.923 141.466, 304.193 145.688 C 304.475 150.105, 304.726 150.526, 307.250 150.816 L 310 151.133 310 139.066 L 310 127 302.955 127 C 296.808 127, 295.596 127.313, 293.455 129.455 M 112.124 131.923 C 110.257 133.077, 109.219 139.011, 110.219 142.812 C 110.959 145.630, 111.482 146.078, 113.718 145.812 C 115.570 145.592, 116.620 144.673, 117.274 142.696 C 119.187 136.918, 115.733 129.693, 112.124 131.923 M 134 133.587 C 134 135.607, 134.494 136, 137.031 136 C 138.841 136, 140.301 135.378, 140.655 134.457 C 141.411 132.487, 141.173 132.293, 137.250 131.681 C 134.341 131.228, 134 131.428, 134 133.587 M 9 135 C 9 137.492, 9.402 138, 11.378 138 C 12.685 138, 14.311 137.331, 14.989 136.513 C 16.898 134.213, 15.447 132, 12.031 132 C 9.330 132, 9 132.326, 9 135 M 158.200 133.200 C 157.540 133.860, 157 136.470, 157 139 C 157 143.869, 158.268 146, 161.165 146 C 163.513 146, 165 143.002, 165 138.266 C 165 134.160, 163.621 132, 161 132 C 160.120 132, 158.860 132.540, 158.200 133.200 M 181 135 C 181 137.492, 181.402 138, 183.378 138 C 184.685 138, 186.311 137.331, 186.989 136.513 C 188.898 134.213, 187.447 132, 184.031 132 C 181.330 132, 181 132.326, 181 135 M 203.552 133.250 C 202.269 137.415, 202.150 140.132, 203.128 142.937 C 204.042 145.560, 204.691 146.057, 206.867 145.805 C 209.051 145.552, 209.642 144.818, 210.330 141.500 C 211.475 135.983, 209.867 132, 206.493 132 C 205.087 132, 203.764 132.563, 203.552 133.250 M 297.380 133.452 C 296.512 135.714, 297.846 137, 301.059 137 C 303.529 137, 304 136.600, 304 134.500 C 304 132.383, 303.535 132, 300.969 132 C 299.241 132, 297.698 132.625, 297.380 133.452 M 69 142 C 69 143.667, 69.667 144, 73 144 C 76.333 144, 77 143.667, 77 142 C 77 140.333, 76.333 140, 73 140 C 69.667 140, 69 140.333, 69 142 M 134 143.500 C 134 145.675, 134.440 146, 137.393 146 C 140.748 146, 142.116 144.676, 141.269 142.250 C 141.030 141.563, 139.296 141, 137.417 141 C 134.439 141, 134 141.321, 134 143.500" stroke="none" fill="#ffffff" fill-rule="evenodd"/>
</svg>