<svg xmlns="http://www.w3.org/2000/svg" width="800" height="207" viewBox="0 0 800 207" version="1.1">
	<path d="M 93.500 4.008 C 85.489 5.224, 76.068 7.874, 68 11.181 C 60.319 14.329, 46.258 22.336, 41.924 26.029 C 31.894 34.577, 22.409 46.238, 16.989 56.685 C 13.492 63.423, 13.294 65, 15.941 65 C 17.009 65, 18.160 65.450, 18.500 66 C 18.840 66.550, 19.879 67.004, 20.809 67.009 C 22.782 67.020, 30.313 70.619, 34.392 73.500 C 43.720 80.088, 51.036 89.012, 56.290 100.209 C 57.506 102.799, 58.786 104.936, 59.136 104.959 C 59.486 104.982, 61.428 103.312, 63.452 101.250 C 67.990 96.624, 73.003 87.746, 76.297 78.500 C 79.413 69.751, 83.826 59.739, 84.877 59.034 C 85.314 58.740, 87.254 56.008, 89.188 52.962 C 93.234 46.589, 102.211 38.220, 108.637 34.832 L 113.059 32.500 116.831 36.698 C 118.906 39.008, 122.830 44.726, 125.552 49.405 L 130.500 57.914 139 58.058 C 154.518 58.322, 156.560 57.975, 166.894 53.324 C 172.145 50.960, 182.233 43.834, 184.932 40.582 C 186.092 39.184, 185.784 38.492, 182.636 35.435 C 180.636 33.493, 179 31.531, 179 31.075 C 179 30.619, 175.738 27.836, 171.750 24.890 C 163.465 18.771, 148.417 10.843, 139.543 7.924 C 126.582 3.660, 106.853 1.982, 93.500 4.008 M 239 103.500 C 239 159.167, 239.341 188, 240 188 C 240.659 188, 241 159.167, 241 103.500 C 241 47.833, 240.659 19, 240 19 C 239.341 19, 239 47.833, 239 103.500 M 185 45.500 C 183.708 46.875, 182.303 48, 181.877 48 C 181.451 48, 179.895 49.120, 178.417 50.489 C 170.335 57.979, 154.156 62.575, 138.838 61.731 L 129 61.189 129 64.505 C 129 68.239, 132.815 79, 134.139 79 C 134.612 79, 135 79.675, 135 80.500 C 135 81.325, 135.450 82, 136 82 C 136.550 82, 137 82.653, 137 83.450 C 137 84.248, 137.569 85.260, 138.264 85.700 C 138.960 86.140, 141.547 88.975, 144.014 92 C 146.481 95.025, 148.838 97.650, 149.250 97.833 C 149.662 98.017, 150 98.804, 150 99.583 C 150 100.362, 150.374 101, 150.831 101 C 151.288 101, 152.296 102.237, 153.071 103.750 C 153.845 105.263, 155.686 108.597, 157.161 111.160 C 161.795 119.214, 164.978 129.505, 165.250 137.309 L 165.500 144.500 160 145.654 C 156.975 146.288, 150 146.854, 144.500 146.912 L 134.500 147.017 130.716 152.891 C 125.177 161.489, 122.979 166.486, 121.941 172.841 C 120.414 182.186, 120.817 199.277, 122.634 202.216 C 123.399 203.454, 132.391 202.491, 137.734 200.599 C 141.955 199.105, 150.653 194.901, 160.905 189.400 C 166.733 186.273, 189 164.898, 189 162.431 C 189 161.644, 189.475 161, 190.056 161 C 190.637 161, 192.026 158.935, 193.142 156.411 C 194.259 153.888, 196.146 150.176, 197.336 148.163 C 199.402 144.667, 203.155 134.473, 205.127 127 C 205.635 125.075, 206.273 118.100, 206.545 111.500 C 206.817 104.900, 207.236 97.665, 207.477 95.422 C 208.149 89.160, 204.646 74.211, 200.053 63.737 C 195.809 54.060, 189.432 43, 188.097 43 C 187.686 43, 186.292 44.125, 185 45.500 M 273.250 61.662 C 272.563 61.940, 272 62.986, 272 63.988 C 272 65.531, 272.602 65.729, 275.940 65.281 C 278.106 64.991, 280.928 65.016, 282.209 65.338 C 285.396 66.138, 289 69.669, 289 71.991 C 289 73.640, 288.135 73.946, 282.750 74.202 C 277.993 74.429, 276.500 74.858, 276.500 76 C 276.500 77.142, 277.993 77.571, 282.750 77.798 C 288.532 78.073, 289 78.269, 289 80.411 C 289 81.685, 287.814 83.914, 286.364 85.364 C 283.756 87.971, 281.573 88.502, 275.250 88.067 C 272.618 87.886, 272 88.214, 272 89.794 C 272 91.278, 272.906 91.889, 275.788 92.350 C 283.676 93.611, 292.016 88.669, 293.363 81.935 C 295.929 69.105, 290.486 60.917, 279.500 61.083 C 276.750 61.124, 273.938 61.385, 273.250 61.662 M 305 76.500 C 305 91.333, 305.086 92, 307 92 C 308.810 92, 309 91.333, 309 85 L 309 78 316.500 78 L 324 78 324 85 C 324 91.333, 324.190 92, 326 92 C 327.914 92, 328 91.333, 328 76.500 C 328 61.667, 327.914 61, 326 61 C 324.205 61, 324 61.667, 324 67.500 L 324 74 316.500 74 L 309 74 309 67.500 C 309 61.667, 308.795 61, 307 61 C 305.086 61, 305 61.667, 305 76.500 M 340 76.461 L 340 92 349.073 92 C 357.175 92, 358.111 91.813, 357.813 90.250 C 357.542 88.826, 356.223 88.445, 350.740 88.204 L 344 87.909 344 82.954 L 344 78 350 78 C 355.333 78, 356 77.778, 356 76 C 356 74.220, 355.333 74, 349.943 74 L 343.885 74 344.193 69.750 L 344.500 65.500 351 65 C 355.889 64.624, 357.500 64.128, 357.500 63 C 357.500 61.803, 355.733 61.442, 348.750 61.211 L 340 60.922 340 76.461 M 368.750 61.561 C 368.337 61.986, 368 69.008, 368 77.167 L 368 92 370.500 92 C 372.864 92, 373 91.700, 373 86.500 L 373 81 376.532 81 C 381.957 81, 386.476 78.679, 387.942 75.140 C 389.714 70.862, 388.547 65.404, 385.422 63.357 C 382.777 61.624, 370.024 60.250, 368.750 61.561 M 399 76.500 C 399 91.333, 399.086 92, 401 92 C 402.901 92, 403 91.333, 403 78.500 L 403 65 409 65 C 414.333 65, 415 64.778, 415 63 C 415 61.167, 414.333 61, 407 61 L 399 61 399 76.500 M 428.304 62.956 C 423.256 66.034, 421.494 69.552, 421.542 76.456 C 421.592 83.737, 423.759 88.307, 428.266 90.638 C 432.573 92.865, 439.590 92.687, 442.893 90.267 C 448.557 86.119, 450.716 76.042, 447.560 68.490 C 444.706 61.658, 435.005 58.871, 428.304 62.956 M 466.034 62.752 C 457.275 67.170, 456.041 82.297, 463.862 89.375 C 467.948 93.073, 480.500 93.490, 480.500 89.928 C 480.500 88.887, 479.092 88.473, 475.301 88.399 C 472.320 88.340, 469.032 87.596, 467.593 86.653 C 462.680 83.434, 461.751 72.999, 465.919 67.852 C 467.464 65.944, 468.754 65.556, 473.637 65.530 C 479.647 65.499, 482.722 63.705, 479.866 61.896 C 477.546 60.426, 469.679 60.913, 466.034 62.752 M 491.667 61.667 C 491.300 62.033, 491 69.008, 491 77.167 L 491 92 493.500 92 L 496 92 496 78.454 L 496 64.909 502.750 65.204 L 509.500 65.500 509.779 78.750 C 510.041 91.174, 510.181 92, 512.029 92 C 513.906 92, 514 91.257, 514 76.500 L 514 61 503.167 61 C 497.208 61, 492.033 61.300, 491.667 61.667 M 526 76.500 L 526 92 534.906 92 C 543.320 92, 543.784 91.889, 543.290 90 C 542.836 88.263, 541.926 88, 536.383 88 L 530 88 530 83 L 530 78 536 78 C 541.333 78, 542 77.778, 542 76 C 542 74.220, 541.333 74, 535.943 74 L 529.885 74 530.193 69.750 L 530.500 65.500 536.750 65.202 C 542.181 64.944, 543 64.649, 543 62.952 C 543 61.169, 542.264 61, 534.500 61 L 526 61 526 76.500 M 554.667 61.667 C 554.300 62.033, 554 68.993, 554 77.133 L 554 91.932 564.750 92.216 L 575.500 92.500 575.500 95.500 C 575.500 97.850, 575.988 98.569, 577.750 98.820 C 579.852 99.118, 580 98.773, 580 93.570 C 580 88.667, 579.761 88, 578 88 C 576.099 88, 576 87.333, 576 74.500 C 576 61.667, 575.901 61, 574 61 C 572.098 61, 572 61.667, 572 74.546 L 572 88.091 565.250 87.796 L 558.500 87.500 558.221 74.250 C 558.009 64.165, 557.630 61, 556.638 61 C 555.920 61, 555.033 61.300, 554.667 61.667 M 590.522 62.250 C 590.082 63.578, 588 86.414, 588 89.922 C 588 91.283, 588.643 92, 589.864 92 C 591.891 92, 592.985 87.176, 593.015 78.110 C 593.043 69.768, 594.444 70.750, 597.922 81.550 C 600.867 90.698, 601.565 92, 603.523 92 C 605.487 92, 606.159 90.721, 609.055 81.475 C 612.589 70.190, 613.950 69.508, 613.996 79 C 614.039 88.047, 614.992 92, 617.131 92 C 619.341 92, 619.385 90.379, 617.649 73 C 616.533 61.832, 616.428 61.492, 614 61.209 C 611.883 60.963, 611.323 61.499, 610.341 64.709 C 609.703 66.794, 607.965 72.515, 606.477 77.423 C 604.724 83.208, 603.504 85.846, 603.008 84.923 C 602.587 84.140, 601.007 79.225, 599.496 74 C 597.986 68.775, 596.340 63.712, 595.840 62.750 C 594.793 60.737, 591.139 60.393, 590.522 62.250 M 635.314 62.950 C 627.141 67.933, 626.189 82.447, 633.607 88.960 C 640.095 94.656, 650.908 92.929, 654.365 85.643 C 656.678 80.769, 656.512 71.351, 654.040 67.299 C 650.291 61.150, 641.583 59.128, 635.314 62.950 M 667 76.500 C 667 91.333, 667.086 92, 669 92 C 670.811 92, 671 91.333, 671 84.958 L 671 77.916 678.750 78.208 L 686.500 78.500 686.796 85.250 C 687.057 91.211, 687.323 92, 689.072 92 C 690.971 92, 691.041 91.376, 690.776 76.763 C 690.530 63.174, 690.311 61.489, 688.750 61.189 C 687.226 60.897, 687 61.707, 687 67.469 L 687 74.084 679.250 73.792 L 671.500 73.500 671.202 67.250 C 670.944 61.819, 670.649 61, 668.952 61 C 667.100 61, 667 61.793, 667 76.500 M 700 62.943 C 700 64.513, 700.814 64.944, 704.250 65.193 L 708.500 65.500 708.779 78.750 C 709.041 91.174, 709.181 92, 711.029 92 C 712.893 92, 713 91.267, 713 78.500 L 713 65 717.500 65 C 721.333 65, 722 64.704, 722 63 C 722 61.121, 721.333 61, 711 61 C 700.775 61, 700 61.137, 700 62.943 M 735.919 63.750 C 732.439 73.026, 727.748 84.970, 726.480 87.784 C 724.578 92.003, 724.578 92, 727.342 92 C 729.207 92, 729.927 91.187, 730.882 88 L 732.080 84 738.548 84 L 745.016 84 746.617 88 C 747.694 90.693, 748.835 92, 750.109 92 C 751.149 92, 752 91.644, 752 91.208 C 752 90.772, 749.935 85.035, 747.411 78.458 C 744.888 71.881, 742.369 65.263, 741.814 63.750 C 741.190 62.051, 740.068 61, 738.877 61 C 737.692 61, 736.553 62.058, 735.919 63.750 M 759 61.611 C 759 61.946, 761.056 65.163, 763.570 68.758 C 766.152 72.452, 767.707 75.563, 767.145 75.910 C 766.599 76.248, 764.339 80.007, 762.124 84.262 L 758.096 92 760.798 91.997 C 763.120 91.995, 763.992 91.046, 767 85.247 C 769.540 80.351, 771.117 78.412, 772.750 78.180 C 774.901 77.875, 775 78.171, 775 84.930 C 775 91.333, 775.189 92, 777 92 C 778.810 92, 779 91.333, 779 85 C 779 78.994, 779.249 78.002, 780.750 78.015 C 783.618 78.040, 784.642 79.191, 787.633 85.750 C 790.143 91.254, 790.818 92, 793.289 92 L 796.094 92 791.465 83.037 L 786.836 74.075 790.918 68.375 C 795.624 61.802, 795.827 60.991, 792.750 61.026 C 791.067 61.045, 789.383 62.809, 786.070 68.026 C 780.319 77.080, 779 77.075, 779 68 C 779 61.667, 778.810 61, 777 61 C 775.190 61, 775 61.667, 775 68 C 775 72.939, 774.632 74.997, 773.750 74.989 C 773.063 74.983, 770.475 71.838, 768 68 C 764.633 62.779, 762.933 61.019, 761.250 61.011 C 760.013 61.005, 759 61.275, 759 61.611 M 373 70.868 L 373 77 376.277 77 C 380.806 77, 384 74.546, 384 71.066 C 384 67.502, 382.150 65.964, 377.039 65.278 L 373 64.737 373 70.868 M 428.589 68.077 C 426.578 70.466, 426 72.243, 426 76.030 C 426 82.417, 427.532 85.550, 431.600 87.481 C 439.877 91.408, 446.893 82.743, 444.033 72.124 C 442.022 64.656, 433.374 62.390, 428.589 68.077 M 637.750 66.080 C 632.692 69.026, 631.422 79.242, 635.455 84.531 C 638.403 88.395, 642.352 89.377, 646.703 87.326 C 652.784 84.460, 653.935 71.922, 648.543 67.283 C 645.725 64.859, 640.791 64.309, 637.750 66.080 M 11.689 67.709 C 10.392 69.851, 7.720 80.438, 6.510 88.227 C 4.991 98.005, 5.888 116.224, 8.368 126 C 11.191 137.125, 20.079 157, 22.231 157 C 22.654 157, 23.002 157.563, 23.005 158.250 C 23.015 160.868, 37.485 176.101, 46.298 182.772 C 57.958 191.598, 67.115 196.560, 78.500 200.224 C 86.384 202.761, 89.535 203.194, 103.918 203.719 C 119.733 204.297, 120.310 204.249, 119.611 202.429 C 119.212 201.390, 118.388 197.017, 117.779 192.711 C 115.721 178.160, 120.171 161.078, 129.100 149.251 C 131.297 146.342, 132.847 143.562, 132.546 143.074 C 131.505 141.390, 122.627 139, 117.412 139 C 114.534 139, 106.177 139.897, 98.840 140.993 C 76.466 144.337, 61.619 143.168, 48.298 137.015 C 42.235 134.214, 42.116 134.083, 42.954 131.162 C 43.979 127.587, 50.847 112.753, 51.817 112.018 C 53.040 111.091, 55 107.065, 55 105.480 C 55 103.651, 51.017 95.587, 47.697 90.695 C 44.940 86.633, 37.108 79.248, 31.474 75.400 C 25.401 71.252, 12.566 66.262, 11.689 67.709 M 736.597 72.276 C 735.577 75.149, 734.527 78.063, 734.264 78.750 C 733.924 79.638, 735.119 80, 738.393 80 C 740.927 80, 743 79.630, 743 79.178 C 743 77.896, 739.810 68.585, 739.093 67.776 C 738.740 67.377, 737.617 69.402, 736.597 72.276 M 101.453 83.270 C 92.150 87.026, 87.902 92.100, 86.609 101 C 85.183 110.818, 91.662 121.755, 100.278 124.075 C 106.755 125.819, 114.171 124.802, 119.624 121.421 C 126.403 117.219, 128.424 113.221, 128.466 103.927 C 128.496 97.301, 128.155 95.832, 125.740 92.183 C 124.222 89.889, 121.203 86.891, 119.031 85.520 C 114.330 82.552, 105.903 81.473, 101.453 83.270 M 271.948 124.807 C 271.556 130.052, 271.419 146.809, 271.761 147.750 C 272.010 148.438, 272.841 149, 273.607 149 C 274.591 149, 275 147.680, 275 144.500 L 275 140 278.865 140 C 284.264 140, 288 136.903, 288 132.427 C 288 128.481, 285.153 125.052, 281.750 124.899 C 280.512 124.843, 277.813 124.643, 275.750 124.455 C 273.688 124.267, 271.977 124.426, 271.948 124.807 M 301.096 125.217 C 294.963 128.491, 292.505 138.543, 296.389 144.470 C 300.154 150.218, 308.608 151.120, 313.438 146.290 C 317.914 141.813, 317.774 130.820, 313.186 126.669 C 310.741 124.456, 304.031 123.650, 301.096 125.217 M 330.213 125.507 C 323.823 128.283, 321.965 140.141, 327.069 145.574 C 330.050 148.747, 336.492 150.553, 339.668 149.105 C 343.480 147.369, 342.336 146, 337.073 146 C 330.814 146, 328 143.012, 328 136.365 C 328 130.474, 330.497 128, 336.441 128 C 341.036 128, 343.287 126.429, 340.878 124.904 C 338.835 123.609, 333.942 123.886, 330.213 125.507 M 356.103 126.250 C 350.892 140.081, 348 148.008, 348 148.456 C 348 148.755, 348.698 149, 349.552 149 C 350.406 149, 351.575 147.650, 352.150 146 C 353.135 143.175, 353.505 143, 358.500 143 C 363.495 143, 363.865 143.175, 364.850 146 C 365.745 148.568, 369 150.366, 369 148.292 C 369 146.511, 360.569 125.418, 359.596 124.765 C 357.784 123.550, 356.993 123.887, 356.103 126.250 M 371.690 125.365 C 370.913 127.391, 371.833 128, 375.667 128 L 379 128 379 138.500 C 379 147.167, 379.262 149, 380.500 149 C 381.738 149, 382 147.173, 382 138.560 L 382 128.121 385.750 127.810 C 388.279 127.601, 389.500 127.011, 389.500 126 C 389.500 123.832, 372.511 123.227, 371.690 125.365 M 401.500 124.945 C 394.062 127.990, 392.226 140.681, 398.339 146.794 C 400.182 148.636, 401.884 149.273, 404.970 149.273 C 410.343 149.273, 413.534 147.502, 415.455 143.454 C 420.641 132.526, 411.759 120.746, 401.500 124.945 M 426.626 124.796 C 425.852 126.049, 423.822 148.155, 424.425 148.759 C 425.859 150.192, 428 147.743, 428 144.671 C 428 142.805, 428.297 139.115, 428.659 136.470 L 429.318 131.661 431.964 140.080 C 434.057 146.744, 435.038 148.563, 436.665 148.801 C 438.442 149.062, 439.035 148.011, 441.047 141.051 C 442.326 136.623, 443.739 133, 444.187 133 C 444.634 133, 445 135.194, 445 137.875 C 445 144.712, 446.012 149, 447.625 149 C 449.214 149, 449.315 145.530, 448.072 133.676 C 446.719 120.776, 444.072 120.884, 440.126 134 C 438.885 138.125, 437.610 142.175, 437.292 143 C 436.968 143.840, 435.302 140.103, 433.504 134.500 C 430.507 125.164, 428.312 122.068, 426.626 124.796 M 402.282 128.232 C 397.852 130.320, 396.873 139.992, 400.667 144.184 C 403.097 146.869, 409.446 146.629, 411.443 143.777 C 413.589 140.715, 413.475 132.766, 411.250 130.216 C 409.069 127.717, 405.194 126.859, 402.282 128.232 M 275 132.500 C 275 136.924, 275.056 137, 278.300 137 C 282.304 137, 284 135.484, 284 131.907 C 284 128.973, 282.486 128, 277.918 128 C 275.126 128, 275 128.195, 275 132.500 M 300.573 129.570 C 297.036 133.107, 297.438 141.792, 301.262 144.471 C 304.289 146.591, 308.619 146.381, 311 144 C 313.490 141.510, 313.747 133.512, 311.443 130.223 C 309.552 127.522, 303.013 127.129, 300.573 129.570 M 356.678 133.431 C 355.755 136.140, 355 138.636, 355 138.977 C 355 139.319, 356.589 139.413, 358.531 139.186 C 362.354 138.740, 362.378 138.563, 359.554 131.503 L 358.356 128.507 356.678 133.431" stroke="none" fill="#ffffff" fill-rule="evenodd"/>
</svg>