<svg xmlns="http://www.w3.org/2000/svg" width="600" height="600" viewBox="0 0 600 600" version="1.1">
	<path d="M 240.162 248.003 C 207.073 305.246, 180 352.288, 180 352.541 C 180 352.793, 190.238 353, 202.751 353 L 225.502 353 250.349 310 L 275.197 267 296.098 267 C 307.594 267, 317 266.824, 317 266.609 C 317 266.395, 312.348 258.169, 306.663 248.329 L 296.326 230.440 309.642 207.470 C 316.966 194.836, 322.968 183.970, 322.979 183.323 C 322.999 182.206, 302.676 146.375, 301.080 144.712 C 300.664 144.278, 273.250 190.759, 240.162 248.003 M 316.228 210.791 L 304.956 230.402 317.361 251.951 L 329.765 273.500 304.633 273.797 L 279.500 274.094 268.750 292.899 C 262.837 303.242, 258 312.221, 258 312.852 C 258 313.699, 270.510 314.011, 305.750 314.043 L 353.500 314.086 364.500 333.293 L 375.500 352.500 398.364 352.769 C 418.380 353.005, 421.157 352.851, 420.651 351.534 C 419.714 349.091, 329.814 193.609, 328.605 192.340 C 327.785 191.479, 324.591 196.241, 316.228 210.791 M 243.604 336.531 C 238.711 345.061, 234.927 352.260, 235.194 352.528 C 235.462 352.795, 265.201 352.899, 301.281 352.757 L 366.880 352.500 357.797 336.750 L 348.715 321 300.607 321.010 L 252.500 321.020 243.604 336.531 M 432.954 332.750 C 427.043 338.032, 428.220 347.994, 435.180 351.593 C 443.025 355.650, 452 350.203, 452 341.384 C 452 337.504, 451.478 336.278, 448.600 333.400 C 445.722 330.522, 444.496 330, 440.616 330 C 437.028 330, 435.363 330.597, 432.954 332.750 M 435.077 334.589 C 432.641 336.638, 432 337.965, 432 340.954 C 432 346.678, 435.084 350, 440.398 350 C 444.795 350, 447.886 347.796, 449.378 343.597 C 450.477 340.507, 448.125 335.116, 444.966 333.483 C 440.890 331.375, 438.591 331.632, 435.077 334.589 M 436.202 341.171 C 436.387 344.991, 436.976 347.498, 437.750 347.754 C 438.534 348.013, 439 347.203, 439 345.583 C 439 342.304, 440.344 342.264, 441.818 345.500 C 442.445 346.875, 443.653 348, 444.504 348 C 445.873 348, 445.886 347.680, 444.620 345.232 C 443.406 342.884, 443.396 342.179, 444.555 340.593 C 446.803 337.519, 444.714 335, 439.917 335 L 435.905 335 436.202 341.171 M 439 339 C 439 340.506, 439.522 341.046, 440.750 340.810 C 441.712 340.624, 442.500 339.810, 442.500 339 C 442.500 338.190, 441.712 337.376, 440.750 337.190 C 439.522 336.954, 439 337.494, 439 339 M 201.450 376.407 C 197.372 378.183, 193.227 383.275, 192.438 387.477 C 192.086 389.357, 191.955 394.856, 192.149 399.698 C 192.562 410.049, 194.687 414.046, 201.401 417.095 C 209.709 420.868, 219.818 418.246, 224.212 411.179 C 226.217 407.955, 226.500 406.201, 226.500 397 C 226.500 387.717, 226.228 386.062, 224.149 382.719 C 219.900 375.884, 209.372 372.956, 201.450 376.407 M 335.077 377.211 C 329.276 380.318, 326.822 385.078, 326.232 394.365 C 325.633 403.796, 327.265 409.500, 331.886 414.121 C 339.847 422.082, 353.952 419.894, 359.047 409.908 C 360.895 406.286, 361.130 404.383, 360.837 395.439 C 360.474 384.359, 359.516 381.968, 353.702 377.627 C 349.460 374.460, 340.585 374.261, 335.077 377.211 M 503.500 376.881 C 495.969 380.339, 492.989 386.124, 493.022 397.218 C 493.056 408.512, 496.584 414.662, 504.684 417.551 C 509.322 419.205, 513.292 419.324, 518.216 417.957 C 524.445 416.227, 525.113 414.924, 524.787 405.141 L 524.500 396.500 519.750 396.195 L 515 395.890 515 402.945 L 515 410 512.082 410 C 505.378 410, 503 406.457, 503 396.473 C 503 390.413, 503.262 389.584, 506.063 386.783 C 509.040 383.806, 509.320 383.737, 516.063 384.302 L 523 384.884 523 381.040 C 523 377.627, 522.647 377.072, 519.851 376.098 C 515.163 374.464, 508.019 374.806, 503.500 376.881 M 82.115 395.755 C 79.153 406.615, 76.520 416.088, 76.263 416.806 C 75.908 417.798, 77.072 418.038, 81.105 417.806 L 86.413 417.500 87.501 413 L 88.588 408.500 94.684 408.205 L 100.779 407.910 101.989 412.955 L 103.199 418 108.100 418 C 110.795 418, 113 417.537, 113 416.971 C 113 416.160, 104.742 385.642, 102.387 377.750 C 101.953 376.294, 100.660 376.001, 94.683 376.005 L 87.500 376.010 82.115 395.755 M 118 397 L 118 418 122.500 418 L 127 418 127 409.500 C 127 397.920, 128.767 397.917, 135.536 409.482 L 140.500 417.964 145.750 417.982 C 148.637 417.992, 150.995 417.663, 150.989 417.250 C 150.983 416.837, 148.450 412.225, 145.359 407 C 142.269 401.775, 139.737 397.050, 139.733 396.500 C 139.728 395.950, 142.037 391.527, 144.862 386.671 C 147.688 381.815, 150 377.428, 150 376.921 C 150 376.415, 147.774 376, 145.054 376 L 140.108 376 135.265 384.250 C 132.601 388.788, 129.764 392.500, 128.961 392.500 C 127.821 392.500, 127.436 390.685, 127.210 384.250 L 126.919 376 122.460 376 L 118 376 118 397 M 156 397.055 L 156 418.110 160.750 417.805 L 165.500 417.500 165.795 410.186 C 166.070 403.364, 166.234 402.894, 168.223 403.186 C 169.654 403.397, 171.709 405.804, 174.466 410.500 L 178.575 417.500 183.788 417.802 C 186.654 417.969, 189 417.787, 189 417.398 C 189 416.666, 182.878 405.816, 180.741 402.761 C 179.720 401.303, 179.902 400.757, 181.868 399.380 C 184.555 397.498, 187 392.283, 187 388.433 C 187 384.403, 184.047 379.076, 180.915 377.456 C 178.948 376.439, 174.767 376, 167.050 376 L 156 376 156 397.055 M 233 397 L 233 418 238.144 418 L 243.287 418 242.755 404.879 L 242.223 391.759 249.160 404.879 L 256.097 418 261.548 418 L 267 418 267 397 L 267 376 261.867 376 L 256.735 376 257.206 389.057 L 257.678 402.114 250.769 389.057 L 243.861 376 238.430 376 L 233 376 233 397 M 286.230 396.750 L 286.500 417.500 291.250 417.805 L 296 418.110 296 409.555 L 296 401 303.250 400.998 L 310.500 400.997 310.500 409.248 L 310.500 417.500 315.250 417.805 L 320 418.110 320 397.055 L 320 376 315 376 L 310 376 310 384 L 310 392 303 392 L 296 392 296 384 L 296 376 290.980 376 L 285.959 376 286.230 396.750 M 367.521 378.250 C 367.236 379.488, 367.115 388.825, 367.252 399 L 367.500 417.500 380.250 417.780 L 393 418.060 393 414.030 L 393 410 385 410 L 377 410 377 393 L 377 376 372.519 376 C 368.692 376, 367.963 376.328, 367.521 378.250 M 398 397.088 L 398 418.177 408.930 417.838 C 420.741 417.473, 422.967 416.604, 427.438 410.615 C 429.224 408.223, 429.500 406.402, 429.500 397 C 429.500 384.951, 428.620 382.749, 422.010 378.250 C 419.108 376.274, 417.441 376, 408.352 376 L 398 376 398 397.088 M 436.230 396.750 L 436.500 417.500 441.250 417.805 L 446 418.110 446 397.055 L 446 376 440.980 376 L 435.959 376 436.230 396.750 M 453 397 L 453 418 457.500 418 L 462 418 462.015 404.750 L 462.030 391.500 468.899 404.500 L 475.768 417.500 481.384 417.800 L 487 418.100 487 397.050 L 487 376 481.870 376 L 476.739 376 477.197 389.511 L 477.656 403.021 470.607 389.511 L 463.558 376 458.279 376 L 453 376 453 397 M 165.402 385.395 C 165.108 386.162, 165.009 388.524, 165.183 390.645 C 165.484 394.300, 165.692 394.516, 169.193 394.807 C 171.873 395.030, 173.450 394.550, 174.943 393.057 C 177.530 390.470, 177.545 388.545, 175 386 C 172.647 383.647, 166.228 383.242, 165.402 385.395 M 203.423 386.478 C 202.147 388.424, 201.874 390.907, 202.150 398.059 C 202.541 408.228, 203.637 410, 209.536 410 C 214.165 410, 216.295 407.069, 216.807 399.997 C 217.653 388.290, 215.547 384, 208.952 384 C 205.899 384, 204.692 384.541, 203.423 386.478 M 338.611 385.532 C 336.549 387.594, 335.675 392.826, 336.193 399.997 C 336.729 407.404, 338.781 410, 344.098 410 C 349.694 410, 351 407.539, 351 397 C 351 386.414, 349.703 384, 344.015 384 C 341.870 384, 339.459 384.684, 338.611 385.532 M 407 396.500 L 407 409 411.500 409 C 418.567 409, 420 406.905, 420 396.573 C 420 388.659, 419.839 388.019, 417.365 386.073 C 415.732 384.788, 413.261 384, 410.865 384 L 407 384 407 396.500 M 93.060 391.101 C 92.400 394.457, 91.618 397.832, 91.323 398.601 C 90.922 399.645, 91.730 400, 94.504 400 L 98.223 400 97.550 396.250 C 96.661 391.289, 95.007 385, 94.592 385 C 94.409 385, 93.720 387.746, 93.060 391.101 M 230 444.500 C 230 451.389, 230.284 453, 231.500 453 C 232.433 453, 233 452.056, 233 450.500 C 233 449.125, 233.374 448, 233.831 448 C 234.288 448, 235.264 449.125, 236 450.500 C 236.736 451.875, 238.175 453, 239.199 453 C 240.946 453, 240.922 452.761, 238.803 449.079 C 236.589 445.232, 236.582 445.119, 238.428 443.079 C 240.232 441.086, 240.234 441, 238.484 441 C 237.479 441, 235.835 441.745, 234.829 442.655 C 233.085 444.233, 233 444.117, 233 440.155 C 233 437.128, 232.593 436, 231.500 436 C 230.284 436, 230 437.611, 230 444.500 M 287 444.500 C 287 451.246, 287.298 453, 288.445 453 C 289.459 453, 289.981 451.586, 290.195 448.259 C 290.425 444.687, 290.931 443.436, 292.250 443.186 C 293.730 442.905, 294 443.635, 294 447.927 C 294 452.333, 294.263 453, 296 453 C 297.672 453, 298 452.333, 298 448.934 C 298 443.272, 296.558 441, 292.965 441 C 290.469 441, 290 440.605, 290 438.500 C 290 436.944, 289.433 436, 288.500 436 C 287.284 436, 287 437.611, 287 444.500 M 314 444.500 C 314 451.389, 314.284 453, 315.500 453 C 316.716 453, 317 451.389, 317 444.500 C 317 437.611, 316.716 436, 315.500 436 C 314.284 436, 314 437.611, 314 444.500 M 328.667 436.667 C 328.300 437.033, 328 438.158, 328 439.167 C 328 440.508, 327.248 441, 325.200 441 C 321.434 441, 320 442.675, 320 447.078 C 320 451.697, 321.599 453.041, 326.851 452.835 L 331 452.672 331 444.336 C 331 436.683, 330.452 434.881, 328.667 436.667 M 334.667 436.667 C 333.516 437.817, 333.938 439, 335.500 439 C 336.325 439, 337 438.325, 337 437.500 C 337 435.938, 335.817 435.516, 334.667 436.667 M 217.667 441.667 C 216.449 442.885, 216.978 445, 218.500 445 C 219.325 445, 220 444.550, 220 444 C 220 443.450, 220.900 443, 222 443 C 225.128 443, 224.345 444.853, 220.832 445.764 C 213.398 447.690, 215.007 453.031, 222.968 452.852 L 227.726 452.745 227.284 448.122 C 227.041 445.580, 226.667 442.938, 226.453 442.250 C 226.047 440.950, 218.861 440.472, 217.667 441.667 M 242 447.100 C 242 451.678, 242.336 453, 243.500 453 C 244.491 453, 245 452.009, 245 450.082 C 245 446.155, 245.924 444, 247.607 444 C 248.373 444, 249 443.370, 249 442.600 C 249 441.667, 247.833 441.200, 245.500 441.200 L 242 441.200 242 447.100 M 251.035 442.934 C 248.371 447.913, 250.880 453, 256 453 C 259.521 453, 262 450.671, 262 447.363 C 262 442.816, 260.287 441, 256 441 C 253.138 441, 251.789 441.526, 251.035 442.934 M 264 447.127 C 264 451.681, 264.337 453, 265.500 453 C 266.575 453, 267 451.902, 267 449.122 C 267 445.186, 269.032 442.284, 270.956 443.473 C 271.530 443.828, 272 446.116, 272 448.559 C 272 451.840, 272.392 453, 273.500 453 C 274.625 453, 274.996 451.812, 274.985 448.250 C 274.964 441.851, 274.254 441.048, 268.711 441.159 L 264 441.254 264 447.127 M 301.200 442.200 C 299.488 443.912, 299.716 449.573, 301.571 451.429 C 303.693 453.550, 308.315 453.415, 310.345 451.171 C 312.435 448.861, 312.477 444.620, 310.429 442.571 C 308.573 440.716, 302.912 440.488, 301.200 442.200 M 334 447 C 334 451.667, 334.333 453, 335.500 453 C 336.667 453, 337 451.667, 337 447 C 337 442.333, 336.667 441, 335.500 441 C 334.333 441, 334 442.333, 334 447 M 340 447.127 C 340 451.681, 340.337 453, 341.500 453 C 342.575 453, 343 451.902, 343 449.122 C 343 445.186, 345.032 442.284, 346.956 443.473 C 347.530 443.828, 348 446.116, 348 448.559 C 348 451.840, 348.392 453, 349.500 453 C 350.625 453, 350.996 451.812, 350.985 448.250 C 350.964 441.851, 350.254 441.048, 344.711 441.159 L 340 441.254 340 447.127 M 354.025 442.953 C 351.323 448.002, 354.584 453.823, 359.433 452.606 C 361.412 452.110, 361.823 452.297, 361.366 453.488 C 360.674 455.292, 357.871 455.471, 356.217 453.817 C 354.743 452.343, 353.551 453.387, 354.345 455.457 C 354.742 456.491, 356.254 457, 358.933 457 C 363.924 457, 365 455.262, 365 447.196 L 365 441.261 360.025 441.149 C 356.076 441.060, 354.839 441.432, 354.025 442.953 M 374 447.100 C 374 451.678, 374.336 453, 375.500 453 C 376.589 453, 377 451.878, 377 448.906 C 377 445.654, 377.411 444.705, 379 444.290 C 382.401 443.400, 381.332 441.200, 377.500 441.200 L 374 441.200 374 447.100 M 383.200 446.750 L 383.500 452.500 388.250 452.679 L 393 452.857 393 446.929 C 393 442.325, 392.665 441, 391.500 441 C 390.394 441, 390 442.155, 390 445.393 C 390 448.239, 389.506 449.975, 388.598 450.324 C 386.516 451.123, 386 450.132, 386 445.333 C 386 442.086, 385.612 441, 384.450 441 C 383.195 441, 382.957 442.094, 383.200 446.750 M 254.200 444.200 C 251.352 447.048, 254.464 452.519, 257.500 450 C 258.325 449.315, 259 448, 259 447.078 C 259 445.443, 257.203 443, 256 443 C 255.670 443, 254.860 443.540, 254.200 444.200 M 303.667 443.667 C 302.462 444.871, 302.970 448.730, 304.500 450 C 307.536 452.519, 310.648 447.048, 307.800 444.200 C 306.472 442.872, 304.691 442.642, 303.667 443.667 M 323.667 443.667 C 322.468 444.865, 322.967 449.773, 324.341 450.300 C 327.138 451.374, 329.392 447.788, 327.830 444.750 C 326.918 442.977, 324.885 442.448, 323.667 443.667 M 357.040 444.452 C 355.293 446.557, 356.176 449.451, 358.674 449.808 C 361.279 450.181, 362.785 446.651, 360.960 444.452 C 359.442 442.622, 358.558 442.622, 357.040 444.452 M 277 446.500 C 277 447.548, 278.056 448, 280.500 448 C 282.944 448, 284 447.548, 284 446.500 C 284 445.452, 282.944 445, 280.500 445 C 278.056 445, 277 445.452, 277 446.500 M 219.496 449.007 C 218.741 450.228, 221.484 451.437, 222.952 450.530 C 223.528 450.173, 224 449.459, 224 448.941 C 224 447.680, 220.282 447.734, 219.496 449.007 M 368 451 C 368 452.111, 368.667 453, 369.500 453 C 370.333 453, 371 452.111, 371 451 C 371 449.889, 370.333 449, 369.500 449 C 368.667 449, 368 449.889, 368 451" stroke="none" fill="#ffffff" fill-rule="evenodd"/>
</svg>