<svg xmlns="http://www.w3.org/2000/svg" width="530" height="301" viewBox="0 0 530 301" version="1.1">
	<path d="M 155.853 37.480 C 154.767 38.567, 156.132 41.910, 157.858 42.392 C 163.127 43.863, 166 44.079, 166 43.004 C 166 42.367, 167.233 41.931, 168.750 42.031 C 176.393 42.535, 175.175 40.465, 166.916 38.916 C 163.937 38.357, 160.372 37.662, 158.994 37.372 C 157.616 37.082, 156.203 37.131, 155.853 37.480 M 144 41.878 C 144 43.156, 146.940 45.393, 147.667 44.667 C 148.393 43.940, 146.156 41, 144.878 41 C 144.395 41, 144 41.395, 144 41.878 M 159.892 46.370 C 160.636 47.266, 162.202 48.014, 163.372 48.032 C 165.354 48.061, 165.380 48.155, 163.750 49.392 C 161.328 51.231, 161.528 51.656, 165.164 52.383 C 168.565 53.063, 173.556 50.709, 172.463 48.940 C 172.132 48.405, 171.456 48.218, 170.959 48.525 C 170.463 48.832, 169.031 48.434, 167.778 47.640 C 166.525 46.846, 163.934 45.869, 162.020 45.468 C 158.878 44.811, 158.671 44.899, 159.892 46.370 M 136.885 49.500 C 136.822 50.600, 136.860 52.349, 136.971 53.388 C 137.082 54.426, 136.626 55.613, 135.958 56.026 C 134.054 57.203, 135.643 58.710, 139.562 59.446 C 142.539 60.004, 142.944 60.362, 141.951 61.559 C 140.368 63.467, 138.363 63.388, 137.595 61.387 C 137.113 60.130, 136.668 60.030, 135.577 60.936 C 134.725 61.643, 133.947 61.724, 133.588 61.142 C 133.264 60.617, 132.137 60.413, 131.085 60.688 C 129.802 61.024, 128.778 60.454, 127.978 58.959 C 127.053 57.230, 126.598 57.033, 125.950 58.081 C 125.472 58.854, 125.566 59.977, 126.169 60.704 C 126.749 61.403, 126.968 62.641, 126.656 63.455 C 125.910 65.398, 127.640 66.440, 128.689 64.681 C 129.620 63.118, 133.779 61.834, 134.441 62.904 C 134.984 63.783, 135.087 71.017, 134.698 81 C 134.537 85.125, 134.774 89.567, 135.224 90.872 C 135.730 92.336, 135.619 93.754, 134.935 94.578 C 134.326 95.312, 134.099 96.351, 134.430 96.887 C 134.762 97.423, 134.568 98.149, 134 98.500 C 133.432 98.851, 133.284 99.651, 133.671 100.277 C 134.058 100.903, 134.283 106.906, 134.170 113.617 L 133.965 125.818 137.983 126.497 C 140.192 126.870, 142 127.503, 142 127.904 C 142 128.304, 140.257 129.611, 138.126 130.809 C 133.971 133.144, 132.990 135.554, 133.011 143.375 C 133.031 150.937, 134.148 155.113, 136.395 156.035 C 138.497 156.897, 138.497 156.899, 136.239 157.568 C 134.886 157.970, 133.748 159.296, 133.406 160.869 C 132.215 166.339, 131.978 166.664, 130.568 164.750 C 129.141 162.812, 127.348 162.455, 126.831 164.007 C 126.615 164.656, 125.349 164.581, 123.264 163.794 C 119.751 162.468, 119.772 162.657, 121.491 148 C 121.730 145.966, 121.322 143.725, 120.517 142.649 C 119.190 140.876, 118.972 140.918, 115.355 143.649 C 111.700 146.409, 111.633 146.421, 113.289 144.027 C 115.514 140.812, 115.467 140.534, 112.478 139.172 C 110.438 138.242, 110.077 137.543, 110.586 135.511 C 111.101 133.463, 110.852 133, 109.238 133 C 107.639 133, 107.133 133.909, 106.593 137.750 C 105.849 143.053, 105.874 142.373, 106.049 152.112 C 106.120 156.081, 105.696 159.704, 105.088 160.312 C 104.490 160.910, 103.995 163.898, 103.989 166.950 C 103.983 170.003, 103.699 174.188, 103.358 176.250 C 102.804 179.604, 102.409 180.016, 99.619 180.150 C 96.597 180.295, 96.586 180.313, 99.250 180.716 C 101.069 180.992, 102 181.738, 102 182.920 C 102 184.461, 101.314 184.640, 97 184.226 C 92.199 183.765, 92 183.845, 92 186.259 C 92 188.296, 92.578 188.858, 95.044 189.220 C 96.718 189.465, 98.320 189.292, 98.603 188.833 C 99.244 187.796, 102.954 187.728, 103.128 188.750 C 103.792 192.656, 103.846 195.381, 103.361 200.621 L 102.795 206.743 95.241 207.427 C 89.853 207.915, 87.477 207.772, 86.955 206.928 C 86.553 206.277, 85.716 206.058, 85.095 206.441 C 84.475 206.824, 84.229 207.561, 84.548 208.078 C 85.733 209.995, 83.864 212.882, 81.202 213.245 L 78.500 213.614 81.250 214.782 C 82.762 215.425, 84 216.599, 84 217.392 C 84 218.185, 84.550 219.017, 85.223 219.241 C 85.896 219.465, 86.520 221.106, 86.609 222.888 C 86.730 225.291, 86.412 225.988, 85.375 225.590 C 84.607 225.296, 82.626 225.325, 80.974 225.655 C 78.206 226.209, 77.999 226.540, 78.341 229.878 C 78.740 233.783, 82 235.877, 82 232.228 C 82 231.173, 82.857 229.534, 83.905 228.586 C 85.732 226.932, 85.833 226.977, 86.343 229.681 C 86.635 231.231, 86.777 233.850, 86.657 235.500 C 86.233 241.331, 89.430 244.391, 90.574 239.250 C 91.807 233.708, 92.166 233, 93.739 233 C 94.621 233, 96.165 233.745, 97.171 234.655 C 98.882 236.203, 98.999 236.187, 98.985 234.405 C 98.961 231.418, 97.561 229.937, 95.039 230.230 C 93.267 230.436, 92.489 229.825, 91.738 227.634 C 91.075 225.699, 91.094 224.560, 91.797 224.126 C 92.369 223.772, 92.986 221.911, 93.169 219.991 C 93.467 216.849, 93.832 216.468, 96.815 216.182 C 102.237 215.661, 102.799 216.831, 102.260 227.530 C 101.932 234.057, 102.155 237.482, 102.975 238.469 C 103.630 239.260, 104.017 241.615, 103.834 243.703 L 103.500 247.500 110.169 247.794 C 118.145 248.145, 117.812 248.723, 118.108 234 C 118.411 218.953, 118.650 218, 122.125 218 C 123.706 218, 125 217.550, 125 217 C 125 216.450, 123.879 216, 122.508 216 C 121.100 216, 119.474 215.131, 118.768 214 C 117.684 212.264, 116.436 212, 109.318 212 C 104.808 212, 100.835 212.457, 100.490 213.016 C 99.828 214.087, 98 213.425, 98 212.115 C 98 211.693, 102.503 210.892, 108.006 210.335 C 113.510 209.777, 118.246 209.088, 118.531 208.803 C 118.816 208.518, 119.324 205.340, 119.660 201.741 C 120.192 196.039, 120.590 195.052, 122.750 194.068 C 124.114 193.447, 126.134 193.225, 127.240 193.576 C 128.452 193.961, 129.591 193.675, 130.110 192.857 C 130.898 191.613, 131.543 199.431, 131.051 204.257 C 130.820 206.528, 133.745 207.640, 136.093 206.174 C 137.098 205.546, 138.559 205.277, 139.338 205.576 C 140.411 205.988, 140.923 204.774, 141.448 200.570 C 141.829 197.518, 141.873 194.175, 141.545 193.142 C 141.217 192.109, 141.378 190.136, 141.902 188.757 C 142.639 186.819, 143.397 186.353, 145.239 186.705 C 146.641 186.973, 148.146 186.529, 148.897 185.624 C 150.780 183.355, 149.277 181.780, 145.930 182.515 L 143.050 183.148 143.153 175.185 C 143.209 170.806, 142.945 166.720, 142.565 166.105 C 141.660 164.641, 145.496 159.295, 148.026 158.492 C 149.112 158.147, 150 157.494, 150 157.041 C 150 156.318, 145.339 154.678, 144 154.931 C 142.986 155.122, 142.533 139.407, 143.475 136.734 C 144.012 135.213, 145.678 133.425, 147.178 132.761 C 149.716 131.638, 149.794 131.430, 148.298 129.777 C 147.414 128.800, 145.925 128, 144.989 128 C 143.651 128, 143.334 127.198, 143.504 124.250 C 143.912 117.172, 143.951 117.044, 145.500 117.638 C 147.397 118.366, 147.458 116.625, 145.589 115.074 C 144.624 114.273, 143.973 114.235, 143.530 114.951 C 143.174 115.528, 142.380 116, 141.766 116 C 140.728 116, 141.327 115.228, 146.439 109.988 C 147.505 108.894, 149.080 107.990, 149.939 107.978 C 151.850 107.951, 147.204 104.057, 145.219 104.022 C 144.372 104.008, 144.020 102.776, 144.180 100.391 C 144.350 97.872, 143.882 96.387, 142.629 95.471 C 140.927 94.226, 140.946 94.099, 142.995 93.003 C 144.314 92.297, 144.931 91.261, 144.578 90.344 C 143.722 88.111, 145.017 84, 146.577 84 C 148.288 84, 147.360 81.352, 145.383 80.594 C 144.579 80.285, 143.050 80.576, 141.985 81.241 C 140.366 82.252, 139.805 82.127, 138.557 80.475 C 136.463 77.706, 136.605 77.329, 140 76.650 C 141.760 76.298, 143 75.419, 143 74.525 C 143 73.686, 143.480 73, 144.067 73 C 144.663 73, 144.867 72.155, 144.528 71.088 C 144.100 69.741, 144.893 68.249, 147.210 66.040 L 150.500 62.905 147.500 63.459 C 145.850 63.763, 145.063 63.747, 145.750 63.423 C 147.423 62.634, 147.350 60, 145.655 60 C 144.915 60, 143.504 59.109, 142.519 58.021 C 140.792 56.112, 140.803 55.978, 142.821 54.271 C 143.973 53.297, 145.190 51.331, 145.528 49.902 C 146.121 47.386, 145.998 47.308, 141.570 47.402 C 137.741 47.484, 136.982 47.824, 136.885 49.500 M 159.250 56.346 C 156.363 56.906, 154 57.733, 154 58.182 C 154 58.632, 154.459 59, 155.019 59 C 155.607 59, 155.772 60.058, 155.411 61.500 C 154.937 63.386, 155.176 64, 156.383 64 C 158.541 64, 164 69.840, 164 72.148 C 164 74.675, 167.626 74.567, 169 72 C 169.589 70.900, 170.730 70, 171.535 70 C 172.532 70, 173 68.923, 173 66.629 C 173 63.901, 172.335 62.804, 169.517 60.879 C 167.602 59.571, 166.139 57.872, 166.267 57.104 C 166.576 55.251, 165.490 55.134, 159.250 56.346 M 113.086 58.250 C 111.751 61.786, 114.711 65.894, 116.504 62.993 C 116.847 62.439, 116.360 61.692, 115.423 61.332 C 113.826 60.719, 113.828 60.599, 115.460 59.406 C 116.417 58.706, 116.904 57.653, 116.541 57.067 C 115.471 55.335, 113.996 55.840, 113.086 58.250 M 170.543 57.931 C 170.226 58.443, 170.425 59.144, 170.984 59.490 C 171.543 59.835, 172 59.416, 172 58.559 C 172 56.802, 171.400 56.544, 170.543 57.931 M 107 60 C 107 60.550, 107.702 61, 108.559 61 C 109.416 61, 109.840 60.550, 109.500 60 C 109.160 59.450, 108.459 59, 107.941 59 C 107.423 59, 107 59.450, 107 60 M 100.558 61.775 C 99.318 63.016, 100.119 65.993, 101.958 66.978 C 103.541 67.825, 104.124 67.636, 105.004 65.992 C 105.603 64.874, 105.854 63.572, 105.562 63.100 C 104.880 61.997, 101.287 61.046, 100.558 61.775 M 119.192 63.713 C 117.185 64.097, 116.339 66.275, 118.275 66.075 C 118.674 66.034, 120.125 66, 121.500 66 C 123.056 66, 124 65.433, 124 64.500 C 124 62.992, 123.443 62.901, 119.192 63.713 M 112 68.893 C 112 69.934, 111.292 71.058, 110.426 71.390 C 108.993 71.940, 108.993 72.136, 110.426 73.569 C 111.292 74.434, 112 75.561, 112 76.071 C 112 78.149, 115.631 76.799, 117.485 74.032 C 118.760 72.128, 119.814 71.414, 120.435 72.035 C 122.101 73.701, 124 73.088, 124 70.883 C 124 69.272, 123.531 68.889, 122.037 69.280 C 120.957 69.563, 119.552 69.165, 118.914 68.397 C 118.277 67.629, 116.460 67, 114.878 67 C 112.721 67, 112 67.474, 112 68.893 M 106.020 70.524 C 106.716 71.362, 107.491 71.842, 107.743 71.591 C 108.436 70.897, 107.027 69, 105.819 69 C 105.155 69, 105.231 69.574, 106.020 70.524 M 138.500 75 C 138.160 75.550, 138.584 76, 139.441 76 C 140.298 76, 141 75.550, 141 75 C 141 74.450, 140.577 74, 140.059 74 C 139.541 74, 138.840 74.450, 138.500 75 M 168 75.304 C 168 77.486, 163.394 79.016, 158.746 78.379 L 154.500 77.797 154.545 81.148 C 154.575 83.310, 155.040 84.404, 155.857 84.230 C 157.669 83.842, 163 87.191, 163 88.716 C 163 89.422, 163.355 90, 163.789 90 C 164.224 90, 164.561 91.237, 164.539 92.750 C 164.507 94.987, 164.990 95.557, 167.125 95.804 C 169.353 96.063, 169.750 95.722, 169.750 93.554 C 169.750 92.149, 169.356 91, 168.875 91 C 166.831 91, 168.238 89.113, 171 88.150 C 174.457 86.945, 174.829 85.514, 172.070 84.037 C 169.669 82.752, 169 78.877, 170.922 77.382 C 172.135 76.439, 172.018 76.080, 170.180 75.096 C 168.431 74.161, 168 74.202, 168 75.304 M 121.250 76.723 C 118.362 77.082, 116.466 79, 119 79 C 120.609 79, 120.156 80.844, 118.021 82.979 C 116.554 84.446, 115.259 84.802, 113.021 84.354 C 110.934 83.937, 110 84.141, 110 85.015 C 110 85.710, 109.305 86.788, 108.455 87.409 C 107.112 88.391, 107.301 88.915, 109.895 91.400 C 113.553 94.904, 116.564 94.384, 115.569 90.419 C 114.946 87.937, 115.060 87.867, 119.182 88.178 C 122.788 88.451, 123.491 88.195, 123.789 86.500 C 123.983 85.400, 125.325 83.511, 126.772 82.302 C 129.351 80.147, 129.366 80.062, 127.547 78.052 C 126.526 76.923, 125.422 76.072, 125.095 76.160 C 124.768 76.248, 123.037 76.502, 121.250 76.723 M 156.694 79.639 C 155.443 80.890, 157.165 82, 160.309 81.968 C 163.331 81.938, 163.397 81.859, 161.559 80.468 C 159.486 78.900, 157.732 78.602, 156.694 79.639 M 165.390 83.457 C 163.136 85.105, 163.475 85.518, 167.750 86.331 C 170.198 86.797, 171 86.595, 171 85.510 C 171 83.125, 167.564 81.867, 165.390 83.457 M 114.980 94.524 C 114.284 95.362, 113.940 96.273, 114.214 96.548 C 115.120 97.453, 118 95.814, 118 94.393 C 118 92.558, 116.559 92.621, 114.980 94.524 M 120.593 96.487 C 119.794 99.670, 115.743 102.371, 113.050 101.516 C 111.407 100.994, 111.199 100.496, 112.001 98.999 C 113.468 96.256, 113.297 96, 110 96 C 106.839 96, 105.959 97.386, 108.500 98.362 C 110.628 99.178, 110.368 100.441, 107.517 103.145 C 104.811 105.712, 104.151 108.263, 106.419 107.393 C 107.227 107.083, 109.189 108.262, 110.976 110.133 C 113.500 112.774, 114.447 113.209, 115.808 112.356 C 116.738 111.773, 117.641 110.354, 117.812 109.203 C 118.005 107.914, 118.648 107.311, 119.488 107.634 C 120.273 107.935, 121.598 106.957, 122.611 105.328 C 123.579 103.773, 125.210 101.806, 126.234 100.959 C 128.026 99.477, 127.981 99.314, 125.058 96.709 C 123.385 95.219, 121.837 94, 121.617 94 C 121.397 94, 120.936 95.119, 120.593 96.487 M 100 96 C 100 96.550, 100.423 97, 100.941 97 C 101.459 97, 102.160 96.550, 102.500 96 C 102.840 95.450, 102.416 95, 101.559 95 C 100.702 95, 100 95.450, 100 96 M 179.500 96 C 179.160 96.550, 178.009 97, 176.941 97 C 174.635 97, 174.388 99.247, 176.500 101 C 177.325 101.685, 178 102.891, 178 103.681 C 178 104.472, 178.450 104.840, 179 104.500 C 179.550 104.160, 180 104.359, 180 104.941 C 180 106.340, 183.299 106.301, 184.715 104.885 C 186.216 103.384, 194.052 106.377, 197.751 109.863 C 199.263 111.288, 200.930 112.464, 201.455 112.477 C 202.761 112.508, 203.781 116.559, 203.900 122.191 C 203.955 124.771, 204.395 127.126, 204.879 127.425 C 205.362 127.724, 207.267 127.215, 209.113 126.294 C 210.958 125.373, 214.275 124.541, 216.484 124.446 C 222.111 124.201, 222 124.258, 222 121.617 C 222 120.074, 222.706 119.049, 224 118.710 C 225.984 118.191, 226.852 116, 225.073 116 C 224.563 116, 220.626 114.371, 216.323 112.381 C 209.635 109.286, 208.093 108.914, 205.696 109.814 C 203.364 110.690, 202.351 110.500, 199.671 108.683 C 197.899 107.483, 194.541 105.641, 192.208 104.591 C 188.953 103.125, 188.099 102.264, 188.535 100.889 C 188.969 99.524, 188.094 98.609, 184.864 97.048 C 179.914 94.657, 180.285 94.729, 179.500 96 M 165.575 98.878 C 165.241 99.419, 165.416 100.139, 165.963 100.477 C 166.603 100.873, 166.523 101.791, 165.739 103.046 C 164.463 105.089, 158 105.907, 158 104.025 C 158 103.475, 159.308 103.312, 161 103.650 C 162.733 103.997, 164 103.828, 164 103.250 C 164 102.199, 159.404 101, 155.375 101 C 154.069 101, 153 101.450, 153 102 C 153 102.550, 153.445 103, 153.988 103 C 154.532 103, 154.869 104.013, 154.738 105.250 C 154.538 107.138, 154.924 107.451, 157.133 107.194 C 158.952 106.982, 160.344 107.620, 161.633 109.256 C 162.660 110.559, 164.400 112.146, 165.500 112.782 C 166.600 113.419, 166.938 113.953, 166.250 113.970 C 164.478 114.013, 164.689 116, 166.466 116 C 168.125 116, 174 110.595, 174 109.068 C 174 108.519, 172.695 106.734, 171.100 105.102 C 169.505 103.470, 168.267 101.366, 168.350 100.425 C 168.519 98.496, 166.506 97.373, 165.575 98.878 M 181.500 99 C 181.840 99.550, 182.541 100, 183.059 100 C 183.577 100, 184 99.550, 184 99 C 184 98.450, 183.298 98, 182.441 98 C 181.584 98, 181.160 98.450, 181.500 99 M 140.074 104.924 C 138.740 105.271, 137.464 106.109, 137.238 106.786 C 136.934 107.698, 137.463 107.774, 139.287 107.081 C 140.937 106.454, 142.112 106.512, 142.856 107.256 C 143.467 107.867, 144.285 108.048, 144.674 107.660 C 146.007 106.326, 142.561 104.277, 140.074 104.924 M 120.583 109.865 C 120.230 110.437, 119.753 112.793, 119.523 115.100 C 119.014 120.219, 118.084 121.252, 114.372 120.828 C 111.943 120.551, 111.500 120.051, 111.500 117.592 C 111.500 115.992, 110.938 114.492, 110.250 114.258 C 109.563 114.025, 109 114.364, 109 115.012 C 109 115.661, 108.065 117.504, 106.922 119.109 C 105.074 121.704, 104.990 122.355, 106.155 124.989 C 107.651 128.368, 111.838 130.504, 114.999 129.500 C 117.045 128.851, 117.065 128.729, 115.418 126.909 C 113.928 125.263, 113.904 125, 115.238 125 C 116.089 125, 117.016 124.400, 117.298 123.666 C 117.580 122.932, 119.315 122.259, 121.155 122.172 C 122.995 122.084, 126.300 121.354, 128.500 120.550 C 131.815 119.338, 132.063 119.080, 129.949 119.044 C 124.271 118.946, 119.659 114.741, 122.316 112.084 C 123.095 111.305, 123.094 110.694, 122.313 109.913 C 121.568 109.168, 121.024 109.153, 120.583 109.865 M 99 111 C 99 111.550, 99.450 112, 100 112 C 100.550 112, 101 111.550, 101 111 C 101 110.450, 100.550 110, 100 110 C 99.450 110, 99 110.450, 99 111 M 189.079 118.145 C 187.954 119.353, 186.659 119.806, 185.550 119.381 C 183.461 118.579, 182.037 120.452, 182.015 124.027 C 182.007 125.418, 181.253 127.622, 180.339 128.926 C 178.700 131.266, 178.713 131.289, 181.339 130.630 C 184.134 129.928, 185.026 131.574, 182.967 133.633 C 182.256 134.344, 183.192 135.234, 185.967 136.485 C 193.533 139.897, 189.808 140.757, 177.750 138.383 C 174.936 137.829, 173.899 134.798, 176.065 133.460 C 176.767 133.026, 176.570 132.182, 175.488 130.986 C 174.584 129.988, 173.993 128.162, 174.173 126.929 C 174.422 125.220, 173.830 124.460, 171.688 123.739 C 168.278 122.591, 167.227 123.362, 169.107 125.633 C 170.387 127.178, 170.109 127.270, 165.675 126.771 C 162.101 126.369, 160.712 126.588, 160.318 127.614 C 159.603 129.476, 157 129.386, 157 127.500 C 157 126.675, 156.148 126, 155.106 126 C 153.714 126, 153.250 126.662, 153.356 128.499 C 153.477 130.603, 153.996 130.999, 156.639 130.999 C 158.366 131, 160.816 131.840, 162.085 132.867 C 164.093 134.494, 164.462 135.907, 164.945 143.827 L 165.500 152.918 159.500 153.209 C 154.144 153.469, 153.466 153.741, 153.180 155.750 C 152.901 157.714, 153.304 158, 156.349 158 C 163.687 158, 165.213 160.351, 165.472 172.054 C 165.564 176.208, 165.960 180.126, 166.351 180.759 C 166.858 181.579, 164.964 181.996, 159.782 182.206 C 154.107 182.435, 152.500 182.831, 152.500 184 C 152.500 185.037, 153.889 185.654, 156.998 186 C 161.066 186.452, 161.671 186.875, 163.339 190.428 C 164.748 193.428, 165.153 196.497, 165.055 203.428 C 164.890 215.207, 164.741 216.346, 163.250 217.300 C 161.359 218.509, 161.752 220, 163.961 220 C 166.959 220, 168.308 226.631, 167.777 238.750 L 167.328 249 173.539 249 C 181.941 249, 186.241 248.072, 185.598 246.396 C 185.317 245.663, 185.518 244.798, 186.044 244.473 C 187.662 243.473, 187.104 242, 185.107 242 C 182.931 242, 181.698 239.702, 183.115 238.285 C 183.642 237.758, 184.225 234.085, 184.410 230.123 C 184.595 226.161, 185.029 222.638, 185.373 222.293 C 185.718 221.949, 186 218.142, 186 213.833 L 186 206 180.559 206 C 177.566 206, 174.884 205.621, 174.598 205.159 C 173.999 204.189, 173.665 177.454, 174.179 171.536 L 174.523 167.571 179.261 167.571 C 181.868 167.571, 183.887 168.005, 183.750 168.536 C 183.613 169.066, 182.150 169.500, 180.500 169.500 C 178.167 169.500, 177.500 169.944, 177.500 171.500 C 177.500 172.770, 178.048 173.370, 179 173.143 C 179.825 172.947, 182.188 172.550, 184.250 172.261 C 187.266 171.839, 188 172.056, 188 173.368 C 188 174.266, 188.723 175, 189.607 175 C 190.620 175, 191.003 174.449, 190.642 173.510 C 190.250 172.487, 190.921 171.817, 192.785 171.372 C 194.278 171.016, 195.950 170.388, 196.500 169.978 C 198.275 168.652, 204 167.782, 204 168.837 C 204 169.385, 203.485 170.005, 202.857 170.214 C 201.489 170.670, 203.460 175, 205.035 175 C 205.566 175, 206 176.177, 206 177.617 C 206 179.854, 206.355 180.165, 208.450 179.765 C 210.837 179.309, 212.068 180.473, 211.350 182.507 C 211.155 183.061, 209.058 183.360, 206.691 183.172 C 203.720 182.935, 201.994 183.302, 201.120 184.355 C 199.811 185.932, 196.574 185.498, 197.575 183.879 C 197.893 183.364, 196.072 183.102, 193.388 183.277 C 190.533 183.464, 188.459 184.123, 188.190 184.929 C 187.844 185.967, 188.574 186.115, 191.415 185.582 C 196.144 184.695, 199 185.630, 199 188.067 C 199 190.344, 201.803 190.677, 202.638 188.500 C 203.329 186.700, 205.133 186.456, 204.486 188.250 C 204.238 188.938, 204.868 190.580, 205.885 191.900 C 207.639 194.175, 207.854 194.216, 210.051 192.677 C 211.423 191.716, 213.312 191.291, 214.684 191.635 C 216.737 192.151, 217 191.860, 217 189.077 C 217 185.889, 217.273 185.658, 222.384 184.531 L 225.269 183.894 224.488 178.197 C 224.058 175.064, 223.591 168.325, 223.449 163.222 C 223.308 158.119, 222.960 153.337, 222.675 152.596 C 222.373 151.809, 223.228 150.762, 224.731 150.077 C 226.611 149.220, 227.006 148.606, 226.199 147.799 C 225.391 146.991, 223.814 147.181, 220.349 148.504 C 217.148 149.727, 215.486 149.958, 215.238 149.214 C 215.036 148.608, 213.325 147.602, 211.435 146.979 C 208.779 146.102, 208 145.296, 208 143.422 C 208 141.936, 207.421 141, 206.500 141 C 205.675 141, 205 141.675, 205 142.500 C 205 143.325, 204.325 144, 203.500 144 C 201.777 144, 201.497 142.429, 203.049 141.470 C 203.717 141.057, 203.754 140.401, 203.151 139.661 C 202.631 139.022, 202.163 135.380, 202.112 131.566 C 202.014 124.350, 201.602 121.985, 199.803 118.315 C 198.388 115.430, 191.707 115.325, 189.079 118.145 M 139.500 120 C 139.840 120.550, 140.316 121, 140.559 121 C 140.802 121, 141 120.550, 141 120 C 141 119.450, 140.523 119, 139.941 119 C 139.359 119, 139.160 119.450, 139.500 120 M 148.500 120 C 148.840 120.550, 149.316 121, 149.559 121 C 149.802 121, 150 120.550, 150 120 C 150 119.450, 149.523 119, 148.941 119 C 148.359 119, 148.160 119.450, 148.500 120 M 118.496 125.007 C 118.153 125.561, 118.596 126.292, 119.480 126.631 C 121.394 127.365, 122.461 126.556, 121.541 125.067 C 120.711 123.723, 119.306 123.696, 118.496 125.007 M 184.510 125.016 C 184.856 125.575, 185.557 125.774, 186.069 125.457 C 187.456 124.600, 187.198 124, 185.441 124 C 184.584 124, 184.165 124.457, 184.510 125.016 M 119.651 130.709 C 117.463 134.938, 117.126 139.500, 119 139.500 C 119.968 139.500, 120.935 137.735, 121.727 134.527 C 123.174 128.663, 121.910 126.339, 119.651 130.709 M 134 128.969 C 134 129.501, 134.675 129.678, 135.500 129.362 C 136.325 129.045, 137 128.609, 137 128.393 C 137 128.177, 136.325 128, 135.500 128 C 134.675 128, 134 128.436, 134 128.969 M 221.638 130.500 C 221.955 131.325, 222.391 132, 222.607 132 C 222.823 132, 223 131.325, 223 130.500 C 223 129.675, 222.564 129, 222.031 129 C 221.499 129, 221.322 129.675, 221.638 130.500 M 238.500 132 C 238.840 132.550, 239.541 133, 240.059 133 C 240.577 133, 241 132.550, 241 132 C 241 131.450, 240.298 131, 239.441 131 C 238.584 131, 238.160 131.450, 238.500 132 M 265.153 136.250 C 262.737 149.071, 262.217 152.541, 262.614 153.185 C 262.848 153.562, 265.593 152.702, 268.715 151.273 C 279.951 146.129, 294.396 147.488, 303.670 154.562 C 305.574 156.014, 307.276 157.044, 307.452 156.851 C 307.772 156.500, 312 133.167, 312 131.749 C 312 131.337, 301.682 131, 289.071 131 L 266.142 131 265.153 136.250 M 333.606 139.250 C 333.291 143.787, 332.749 159.988, 332.403 175.250 C 332.056 190.512, 331.603 203, 331.397 203 C 331.190 203, 327.979 201.838, 324.261 200.418 C 311.788 195.653, 312.750 196.352, 313.673 192.737 C 314.128 190.956, 314.485 185.675, 314.466 181 C 314.426 171.094, 312.617 166.712, 305.371 158.966 C 290.783 143.370, 264.597 147.737, 254.196 167.500 C 251.872 171.916, 251.560 173.669, 251.532 182.500 C 251.503 191.447, 251.781 193.027, 254.164 197.500 C 260.157 208.750, 268.888 214.040, 283 214.970 C 291.281 215.516, 292.008 215.703, 288.664 216.426 C 279.392 218.430, 266.413 214.283, 259.547 207.122 C 257.373 204.855, 255.299 203, 254.937 203 C 254.260 203, 251.671 215.545, 248.023 236.500 C 246.874 243.100, 245.049 253.225, 243.966 259 C 242.884 264.775, 241.999 270.063, 241.999 270.750 C 242 271.713, 247.171 272, 264.521 272 C 286.924 272, 287.048 271.988, 288.008 269.750 C 288.845 267.800, 292.963 244.681, 296.177 223.899 C 296.738 220.269, 297.524 216.770, 297.924 216.123 C 298.443 215.284, 303.098 215.027, 314.190 215.224 L 329.729 215.500 319.883 242.875 C 314.468 257.932, 310.280 270.644, 310.577 271.125 C 310.875 271.606, 321.001 272, 333.080 272 C 354.913 272, 355.048 271.987, 355.975 269.750 C 356.488 268.512, 358.750 256.475, 361.001 243 C 363.252 229.525, 365.957 213.550, 367.013 207.500 C 368.068 201.450, 370.553 187.050, 372.535 175.500 C 374.517 163.950, 376.990 149.592, 378.032 143.594 C 379.073 137.596, 379.690 132.308, 379.404 131.844 C 379.117 131.380, 368.824 131, 356.531 131 L 334.180 131 333.606 139.250 M 209.750 132.735 C 205.541 133.067, 205 133.376, 205 135.454 C 205 137.178, 206.068 138.355, 209.038 139.903 L 213.076 142.007 215.274 139.959 C 217.032 138.322, 217.199 137.741, 216.108 137.067 C 214.503 136.075, 215.484 134, 217.559 134 C 218.352 134, 219 133.550, 219 133 C 219 132.450, 217.988 132.081, 216.750 132.180 C 215.512 132.279, 212.363 132.529, 209.750 132.735 M 192 135 C 192 135.550, 192.450 136, 193 136 C 193.550 136, 194 135.550, 194 135 C 194 134.450, 193.550 134, 193 134 C 192.450 134, 192 134.450, 192 135 M 236.500 139 C 235.366 140.253, 235.146 141, 235.911 141 C 238.012 141, 241.084 138.944, 240.469 137.950 C 239.579 136.510, 238.494 136.797, 236.500 139 M 122.505 140.992 C 122.300 141.324, 122.440 142.086, 122.816 142.686 C 123.655 144.023, 131.220 142.936, 130.793 141.540 C 130.474 140.495, 123.113 140.008, 122.505 140.992 M 196.543 140.931 C 196.226 141.443, 196.384 142.119, 196.893 142.434 C 198.076 143.165, 201 142.067, 201 140.893 C 201 139.710, 197.278 139.741, 196.543 140.931 M 92.482 144.030 C 91.534 145.564, 92.995 146.881, 96.021 147.221 C 97.926 147.435, 98.500 147.037, 98.500 145.500 C 98.500 144.079, 97.731 143.411, 95.844 143.193 C 94.384 143.024, 92.871 143.400, 92.482 144.030 M 216 146 C 216 146.550, 216.450 147, 217 147 C 217.550 147, 218 146.550, 218 146 C 218 145.450, 217.550 145, 217 145 C 216.450 145, 216 145.450, 216 146 M 112.191 149.270 C 111.567 150.021, 110.932 152.180, 110.778 154.068 C 110.545 156.939, 110.857 157.550, 112.687 157.811 C 115.355 158.191, 118.304 154.173, 117.827 150.808 C 117.447 148.130, 113.933 147.171, 112.191 149.270 M 183 149 C 183.825 149.533, 185.625 149.969, 187 149.969 C 188.979 149.969, 189.187 149.767, 188 149 C 187.175 148.467, 185.375 148.031, 184 148.031 C 182.021 148.031, 181.813 148.233, 183 149 M 181.850 157 C 181.767 158.100, 181.655 159.525, 181.600 160.167 C 181.545 160.808, 182.063 161.521, 182.750 161.750 C 183.595 162.032, 184 161.006, 184 158.583 C 184 154.865, 182.114 153.476, 181.850 157 M 234 157 C 234 157.550, 234.450 158, 235 158 C 235.550 158, 236 157.550, 236 157 C 236 156.450, 235.550 156, 235 156 C 234.450 156, 234 156.450, 234 157 M 208.670 161.727 C 205.463 162.567, 202.595 163.892, 202.296 164.671 C 201.387 167.041, 202.820 167.406, 206.244 165.676 C 208.035 164.772, 211.412 163.557, 213.750 162.977 C 216.088 162.397, 218 161.490, 218 160.961 C 218 159.691, 215.723 159.878, 208.670 161.727 M 93.701 164.708 C 93.050 168.032, 94.610 170.216, 96.047 167.992 C 97.258 166.118, 96.864 162.776, 95.375 162.287 C 94.756 162.083, 94.003 163.173, 93.701 164.708 M 190.813 167.683 C 191.534 167.972, 192.397 167.936, 192.729 167.604 C 193.061 167.272, 192.471 167.036, 191.417 167.079 C 190.252 167.127, 190.015 167.364, 190.813 167.683 M 120.457 170.314 C 120.138 171.587, 119.957 173.050, 120.057 173.564 C 120.156 174.079, 120.184 176.358, 120.118 178.629 C 120.017 182.155, 119.599 182.914, 117.250 183.832 C 115.737 184.423, 113.381 185.040, 112.013 185.203 C 109.967 185.447, 109.407 186.208, 108.849 189.500 C 108.211 193.262, 108.737 204.005, 109.604 204.917 C 110.459 205.816, 111.290 203.892, 111.392 200.774 C 111.452 198.973, 111.921 197.197, 112.436 196.826 C 112.991 196.426, 112.854 195.529, 112.100 194.620 C 110.271 192.417, 111.418 191.272, 116.255 190.471 C 118.590 190.084, 121.319 189.337, 122.321 188.811 C 123.506 188.188, 125.216 188.228, 127.219 188.926 C 132.037 190.606, 132.780 189.249, 132.526 179.232 C 132.404 174.430, 132.235 169.938, 132.152 169.250 C 132.051 168.421, 130.156 168, 126.519 168 C 121.624 168, 120.976 168.247, 120.457 170.314 M 111.597 169.844 C 111.251 170.404, 111.455 171.163, 112.050 171.531 C 113.588 172.481, 114.580 171.180, 113.296 169.896 C 112.578 169.178, 112.019 169.161, 111.597 169.844 M 195.750 171.303 C 191.210 172.574, 190.883 174.596, 195.068 175.515 C 196.755 175.885, 198.378 176.821, 198.675 177.594 C 199.780 180.476, 201 178.853, 201 174.500 C 201 172.025, 200.662 170.057, 200.250 170.126 C 199.838 170.196, 197.813 170.725, 195.750 171.303 M 100.254 173.250 C 100.486 173.938, 99.961 175.080, 99.088 175.790 C 97.676 176.937, 97.722 177.047, 99.500 176.780 C 101.628 176.460, 103.015 172, 100.986 172 C 100.352 172, 100.023 172.563, 100.254 173.250 M 109.610 175.750 C 110.489 179.479, 111.720 180.680, 113.173 179.227 C 114.711 177.689, 112.701 173, 110.502 173 C 109.331 173, 109.117 173.660, 109.610 175.750 M 183 174.917 C 183 175.512, 182.155 176, 181.122 176 C 178.760 176, 176.731 178.370, 177.167 180.619 C 177.657 183.144, 179.103 183.234, 182.816 180.970 C 185.195 179.520, 186.043 178.342, 185.816 176.803 C 185.494 174.615, 183 172.945, 183 174.917 M 146.500 177 C 146.160 177.550, 146.584 178, 147.441 178 C 148.298 178, 149 177.550, 149 177 C 149 176.450, 148.577 176, 148.059 176 C 147.541 176, 146.840 176.450, 146.500 177 M 217.813 177.683 C 218.534 177.972, 219.397 177.936, 219.729 177.604 C 220.061 177.272, 219.471 177.036, 218.417 177.079 C 217.252 177.127, 217.015 177.364, 217.813 177.683 M 228.667 180.667 C 227.516 181.817, 227.938 183, 229.500 183 C 230.325 183, 231 182.325, 231 181.500 C 231 179.938, 229.817 179.516, 228.667 180.667 M 211.500 186 C 211.840 186.550, 212.316 187, 212.559 187 C 212.802 187, 213 186.550, 213 186 C 213 185.450, 212.523 185, 211.941 185 C 211.359 185, 211.160 185.450, 211.500 186 M 176.753 186.580 C 176.161 187.172, 176.805 200.478, 177.536 202.750 C 177.756 203.438, 179.467 204, 181.337 204 C 184.580 204, 184.763 203.804, 185.312 199.750 C 185.696 196.913, 185.416 194.777, 184.470 193.325 C 183.690 192.128, 183.431 191.003, 183.894 190.825 C 184.357 190.646, 185.050 189.488, 185.435 188.250 C 186.088 186.152, 185.838 186, 181.734 186 C 179.314 186, 177.072 186.261, 176.753 186.580 M 95 191.559 C 95 192.416, 95.457 192.835, 96.016 192.490 C 96.575 192.144, 96.774 191.443, 96.457 190.931 C 95.600 189.544, 95 189.802, 95 191.559 M 217.500 195.105 C 214.750 195.583, 209.800 196.134, 206.500 196.330 C 201.135 196.648, 200.464 196.929, 200.163 198.980 C 199.721 201.980, 201.006 202.661, 208.655 203.480 C 212.155 203.855, 214.807 204.503, 214.549 204.921 C 214.291 205.338, 211.318 205.302, 207.943 204.841 C 200.905 203.878, 199.641 204.308, 200.618 207.334 C 201.002 208.525, 201.237 212.773, 201.139 216.774 C 201 222.473, 201.291 224.174, 202.481 224.631 C 204.428 225.378, 204.421 226.972, 202.463 228.403 C 201.134 229.375, 201.071 230.800, 201.996 238.962 C 202.584 244.152, 203.247 248.581, 203.471 248.804 C 203.694 249.028, 206.589 248.896, 209.902 248.511 C 214.522 247.975, 217.149 246.959, 221.161 244.156 C 224.039 242.145, 226.418 240.050, 226.447 239.500 C 226.476 238.950, 224.925 237.983, 223 237.351 C 220.262 236.452, 219.173 236.481, 218 237.483 C 217.175 238.187, 215.488 239.072, 214.250 239.449 C 211.098 240.410, 211.449 241.940, 214.984 242.647 C 218.856 243.421, 217.860 245, 213.500 245 C 209.452 245, 209.427 244.964, 208.584 237.997 C 208.109 234.070, 208.303 231.968, 209.264 230.654 C 210.686 228.709, 210.994 228.681, 223.368 229.373 C 230.507 229.773, 231.283 229.634, 231.742 227.879 C 232.097 226.520, 232.807 226.121, 234.124 226.539 C 235.414 226.949, 236 226.645, 236 225.567 C 236 224.705, 235.186 224, 234.191 224 C 233.196 224, 231.509 223.339, 230.441 222.532 C 227.769 220.510, 222.997 220.626, 221.428 222.750 C 220.392 224.152, 219.883 224.252, 218.867 223.250 C 217.003 221.412, 210 221.609, 210 223.500 C 210 224.325, 209.662 224.996, 209.250 224.992 C 208.169 224.981, 206.053 220.086, 206.902 219.561 C 208.316 218.687, 217.970 217.768, 227.141 217.636 L 236.500 217.500 236.500 214.500 C 236.500 211.848, 236.094 211.433, 233 210.923 L 229.500 210.347 233 209.923 C 236.190 209.537, 236.526 209.187, 236.798 205.958 C 237.004 203.507, 236.465 201.690, 235.048 200.055 C 233.922 198.757, 233 196.863, 233 195.847 C 233 194.271, 232.231 194.017, 227.750 194.118 C 224.863 194.182, 220.250 194.626, 217.500 195.105 M 137.500 202 C 137.160 202.550, 137.332 203, 137.882 203 C 138.432 203, 139.160 202.550, 139.500 202 C 139.840 201.450, 139.668 201, 139.118 201 C 138.568 201, 137.840 201.450, 137.500 202 M 133.250 208.706 C 131.687 209.007, 131 209.848, 131 211.463 C 131 212.740, 130.325 214.045, 129.500 214.362 C 127.051 215.302, 127.780 217.010, 131.250 218.460 C 134.464 219.803, 134.503 219.901, 134.788 227.326 C 134.951 231.556, 134.642 235.103, 134.082 235.449 C 133.535 235.787, 133.323 236.679, 133.612 237.431 C 133.900 238.183, 133.673 239.084, 133.106 239.434 C 132.449 239.840, 132.401 240.924, 132.973 242.428 C 133.466 243.725, 133.621 245.734, 133.318 246.893 C 132.825 248.777, 133.191 249, 136.770 249 C 140.519 249, 140.804 248.794, 141.262 245.750 C 141.531 243.963, 141.830 237.583, 141.926 231.574 C 142.021 225.564, 142.329 220.277, 142.609 219.824 C 142.889 219.371, 144.666 219, 146.559 219 C 150.795 219, 151.083 217.467, 147 216.650 C 145.240 216.298, 144 215.419, 144 214.525 C 144 213.535, 143.053 213, 141.300 213 C 139.200 213, 138.867 212.733, 139.800 211.800 C 142.941 208.659, 140.205 207.366, 133.250 208.706 M 223.500 211 L 219.500 211.716 224.309 211.858 C 227.292 211.946, 228.883 211.620, 228.500 211 C 228.160 210.450, 227.796 210.064, 227.691 210.142 C 227.586 210.220, 225.700 210.606, 223.500 211 M 79 220.417 C 79 223.297, 79.381 224, 80.941 224 C 83.587 224, 84.101 222.831, 82.689 220.023 C 80.750 216.166, 79 216.353, 79 220.417 M 379.554 237.196 C 371.623 257.196, 366.561 268.005, 364.877 268.539 C 360.960 269.782, 363.248 271, 369.500 271 C 375.766 271, 378.139 269.793, 374 268.710 C 371.788 268.132, 371.505 266.432, 372.975 262.565 C 373.894 260.148, 374.356 260, 380.962 260 L 387.973 260 389.480 263.606 C 391.082 267.440, 390.781 269, 388.441 269 C 387.648 269, 387 269.450, 387 270 C 387 270.557, 390.100 271.066, 394 271.150 C 397.850 271.233, 401.525 271.345, 402.167 271.400 C 404.081 271.564, 404.259 269.197, 402.360 268.831 C 401.136 268.595, 398.428 263.226, 393.365 250.997 C 386.997 235.615, 385.827 233.463, 383.691 233.196 C 381.651 232.941, 380.986 233.584, 379.554 237.196 M 406.667 233.667 C 406.300 234.033, 406 236.058, 406 238.167 C 406 242.425, 408.616 243.727, 409.180 239.750 C 409.463 237.759, 410.076 237.500, 414.500 237.500 C 419.312 237.500, 419.513 237.613, 419.848 240.500 C 420.040 242.150, 419.880 249.042, 419.494 255.814 C 418.810 267.793, 418.722 268.155, 416.257 269.092 C 414.863 269.622, 413.898 270.209, 414.111 270.396 C 414.325 270.583, 418.438 270.970, 423.250 271.257 C 430.302 271.677, 432 271.509, 432 270.389 C 432 269.625, 431.314 269, 430.475 269 C 427.704 269, 426.999 264.335, 427.667 250.412 L 428.315 236.903 432.907 237.202 C 436.800 237.455, 437.549 237.843, 437.820 239.750 C 438.341 243.425, 440.734 242.379, 441.251 238.250 C 441.510 236.188, 441.532 234.162, 441.302 233.750 C 440.783 232.823, 407.590 232.743, 406.667 233.667 M 447.137 234.148 C 444.047 235.037, 443.823 235.365, 444.387 238.183 C 444.724 239.870, 445 241.869, 445 242.625 C 445 243.381, 445.675 244, 446.500 244 C 447.441 244, 448 243.050, 448 241.449 C 448 239.451, 448.805 238.562, 451.714 237.346 C 458.548 234.491, 466.165 236.965, 470.058 243.304 C 473.314 248.605, 472.499 249.436, 463.490 250 C 455.659 250.490, 455.494 250.555, 455.184 253.250 C 454.826 256.356, 455.463 256.680, 457.643 254.500 C 458.670 253.473, 461.203 253, 465.680 253 L 472.217 253 471.530 255.750 C 469.398 264.295, 463.209 268.542, 454.116 267.702 C 451.027 267.417, 447.488 266.864, 446.250 266.475 C 443.087 265.479, 443.377 267.546, 446.706 269.727 C 448.802 271.100, 451.489 271.500, 458.620 271.500 C 467.245 271.500, 468.099 271.309, 472.116 268.486 C 478.157 264.240, 480.242 260.216, 480.297 252.692 C 480.367 243.147, 475.619 236.377, 467.219 234.044 C 462.665 232.779, 451.697 232.836, 447.137 234.148 M 485 234.094 C 485 234.695, 485.858 235.412, 486.908 235.686 C 489.499 236.364, 489.970 238.729, 489.986 251.125 C 490.003 264.140, 489.296 268.110, 486.848 268.750 C 485.832 269.016, 485 269.856, 485 270.617 C 485 271.686, 486.930 272, 493.500 272 C 500.389 272, 502 271.716, 502 270.500 C 502 269.667, 501.111 269, 500 269 C 498.178 269, 498 268.333, 498 261.500 C 498 257.375, 498.193 254, 498.429 254 C 498.664 254, 502.321 258.050, 506.555 263 L 514.252 272 519.126 272 C 524.339 272, 525.245 270.860, 522.212 268.117 C 518.635 264.883, 505.958 249.627, 506.225 248.879 C 506.831 247.182, 519.586 236.891, 521.760 236.345 C 525.458 235.417, 523.801 233.692, 519.212 233.692 C 515.647 233.692, 514.616 234.202, 512.263 237.124 C 509.259 240.854, 502.545 247.698, 499.750 249.879 C 498.119 251.152, 498 250.755, 498 244.029 C 498 237.654, 498.233 236.752, 500 236.290 C 501.100 236.002, 502 235.144, 502 234.383 C 502 233.314, 500.070 233, 493.500 233 C 488.015 233, 485 233.388, 485 234.094 M 144.154 238.438 C 144.345 239.355, 144.950 240.082, 145.500 240.053 C 146.984 239.974, 146.712 237.737, 145.154 237.218 C 144.313 236.938, 143.939 237.395, 144.154 238.438 M 378.208 249.626 C 376.948 252.720, 376.123 255.457, 376.376 255.709 C 377.415 256.748, 384.785 257.157, 385.372 256.207 C 386.039 255.127, 382.155 243.999, 381.111 244.001 C 380.775 244.002, 379.469 246.533, 378.208 249.626 M 472.956 284.090 C 470.505 289.090, 467.825 293.576, 467 294.060 C 465.920 294.693, 466.426 294.948, 468.809 294.970 C 470.786 294.988, 471.867 294.594, 471.494 293.991 C 471.152 293.436, 471.155 292.086, 471.503 290.991 C 472.446 288.020, 480.461 288.124, 482.068 291.127 C 482.956 292.786, 482.909 293.443, 481.853 294.112 C 480.981 294.664, 482.066 294.975, 484.905 294.985 C 489.023 294.999, 489.209 294.886, 487.765 293.250 C 486.915 292.288, 484.366 287.788, 482.099 283.250 C 479.832 278.712, 477.850 275, 477.695 275 C 477.539 275, 475.406 279.091, 472.956 284.090 M 242.750 276.662 C 243.610 277.009, 244 279.769, 244 285.500 C 244 291.231, 243.610 293.991, 242.750 294.338 C 242.063 294.615, 243.525 294.842, 246 294.842 C 248.475 294.842, 249.938 294.615, 249.250 294.338 C 248.549 294.055, 248 292.114, 248 289.917 L 248 286 253 286 L 258 286 258 289.917 C 258 292.114, 257.451 294.055, 256.750 294.338 C 256.063 294.615, 257.525 294.842, 260 294.842 C 262.475 294.842, 263.938 294.615, 263.250 294.338 C 262.390 293.991, 262 291.231, 262 285.500 C 262 279.769, 262.390 277.009, 263.250 276.662 C 263.938 276.385, 262.475 276.158, 260 276.158 C 257.525 276.158, 256.063 276.385, 256.750 276.662 C 257.451 276.945, 258 278.886, 258 281.083 L 258 285 253 285 L 248 285 248 281.073 C 248 278.175, 248.458 277.027, 249.750 276.689 C 250.713 276.438, 249.250 276.215, 246.500 276.195 C 243.750 276.175, 242.063 276.385, 242.750 276.662 M 267.750 276.662 C 268.610 277.009, 269 279.769, 269 285.500 C 269 291.231, 268.610 293.991, 267.750 294.338 C 267.063 294.615, 270.422 294.878, 275.215 294.921 C 282.951 294.991, 284.050 294.775, 285 293 C 286.249 290.667, 284.818 290.309, 283 292.500 C 282.240 293.415, 280.049 294, 277.378 294 L 273 294 273 290 C 273 286.141, 273.117 286, 276.300 286 C 278.115 286, 280.140 286.540, 280.800 287.200 C 281.733 288.133, 281.997 287.633, 281.985 284.950 C 281.976 283.053, 281.639 282.016, 281.235 282.648 C 280.560 283.701, 277.311 284.382, 274.250 284.111 C 273.509 284.045, 273 282.574, 273 280.500 C 273 277.024, 273.031 277, 277.450 277 C 280.634 277, 282.191 277.498, 282.920 278.750 C 283.830 280.313, 283.942 280.259, 283.970 278.250 C 283.999 276.080, 283.689 276.003, 275.250 276.079 C 270.438 276.122, 267.063 276.385, 267.750 276.662 M 296.750 276.662 C 298.997 277.569, 298.063 279, 295.223 279 C 290.837 279, 288 281.566, 288 285.534 C 288 289.241, 290.132 291.282, 295.345 292.565 C 297.419 293.075, 297.825 293.496, 296.845 294.117 C 295.995 294.656, 297.155 294.946, 300 294.906 C 302.475 294.871, 303.830 294.579, 303.011 294.258 C 302.064 293.887, 302.935 293.278, 305.405 292.585 C 307.608 291.967, 310.190 290.287, 311.373 288.702 C 313.297 286.125, 313.342 285.700, 311.949 283.217 C 311.118 281.737, 309.102 280.122, 307.469 279.627 C 301.188 277.724, 301.364 277.841, 303.500 276.963 C 304.925 276.377, 304.062 276.143, 300.500 276.149 C 297.750 276.154, 296.063 276.385, 296.750 276.662 M 314 278.155 C 314 280.219, 314.081 280.236, 315.926 278.567 C 316.985 277.609, 318.672 276.984, 319.676 277.179 C 321.218 277.478, 321.520 278.614, 321.632 284.517 C 321.705 288.357, 321.351 292.288, 320.847 293.250 C 320.040 294.789, 320.447 294.996, 324.215 294.970 C 327.612 294.945, 328.137 294.728, 326.750 293.920 C 325.316 293.084, 325 291.467, 325 284.950 C 325 277.458, 325.125 277, 327.171 277 C 328.365 277, 330.165 277.745, 331.171 278.655 C 332.889 280.210, 333 280.179, 333 278.155 C 333 276.100, 332.561 276, 323.500 276 C 314.439 276, 314 276.100, 314 278.155 M 336.250 277.080 C 337.662 277.903, 338 279.500, 338 285.350 C 338 289.655, 337.513 293.087, 336.800 293.800 C 335.867 294.733, 337.533 295, 344.300 295 C 349.085 295, 353 294.587, 353 294.082 C 353 293.577, 353.291 292.339, 353.647 291.332 C 354.169 289.855, 353.861 289.947, 352.059 291.803 C 350.297 293.618, 348.940 294.042, 345.662 293.803 C 341.638 293.510, 341.490 293.376, 341.190 289.750 L 340.879 286 344.856 286 C 347.102 286, 349.053 286.544, 349.338 287.250 C 349.615 287.938, 349.842 286.925, 349.842 285 C 349.842 283.075, 349.615 282.063, 349.338 282.750 C 349.055 283.451, 347.114 284, 344.917 284 C 341.107 284, 341 283.904, 341 280.500 C 341 277.024, 341.031 277, 345.450 277 C 348.641 277, 350.177 277.493, 350.875 278.742 C 352.054 280.847, 353.304 279.956, 352.417 277.643 C 351.898 276.291, 350.256 276.005, 343.143 276.030 C 336.783 276.053, 334.962 276.330, 336.250 277.080 M 357.645 276.992 C 359.897 277.901, 365 283.954, 365 285.717 C 365 286.283, 362.985 288.603, 360.522 290.873 L 356.045 295 359.772 294.985 C 361.823 294.976, 362.985 294.639, 362.355 294.235 C 361.572 293.732, 362.087 292.452, 363.987 290.179 L 366.763 286.859 368.945 289.923 C 370.145 291.608, 370.846 293.439, 370.504 293.993 C 370.118 294.619, 371.703 294.974, 374.691 294.932 C 378.599 294.877, 379.125 294.676, 377.500 293.859 C 376.400 293.306, 374.055 290.903, 372.288 288.519 L 369.076 284.185 373.516 280.092 L 377.955 276 374.228 276.079 C 372.177 276.122, 371.066 276.386, 371.757 276.665 C 372.680 277.037, 372.462 277.947, 370.939 280.086 C 368.423 283.620, 368.013 283.641, 365.620 280.358 C 364.065 278.226, 363.979 277.627, 365.120 276.905 C 366 276.347, 364.508 276.048, 361 276.079 C 356.885 276.115, 356.040 276.345, 357.645 276.992 M 381.750 276.662 C 382.610 277.009, 383 279.769, 383 285.500 C 383 291.231, 382.610 293.991, 381.750 294.338 C 381.063 294.615, 382.525 294.871, 385 294.906 C 387.962 294.948, 389.024 294.668, 388.108 294.088 C 386.958 293.360, 387.072 292.712, 388.767 290.353 C 389.895 288.784, 392.208 286.178, 393.909 284.563 L 397 281.626 397 287.730 C 397 291.677, 396.558 294.012, 395.750 294.338 C 395.063 294.615, 396.525 294.842, 399 294.842 C 401.475 294.842, 402.938 294.615, 402.250 294.338 C 401.390 293.991, 401 291.231, 401 285.500 C 401 279.769, 401.390 277.009, 402.250 276.662 C 402.938 276.385, 401.250 276.175, 398.500 276.195 C 395.750 276.215, 394.288 276.438, 395.250 276.689 C 398.077 277.428, 397.312 279.268, 392 284.500 L 387 289.425 387 283.286 C 387 278.280, 387.323 277.062, 388.750 276.689 C 389.712 276.438, 388.250 276.215, 385.500 276.195 C 382.750 276.175, 381.063 276.385, 381.750 276.662 M 406.250 276.689 C 407.740 277.079, 408 278.385, 408 285.490 C 408 291.229, 407.610 293.991, 406.750 294.338 C 406.063 294.615, 407.075 294.871, 409 294.906 C 411.206 294.946, 412.019 294.664, 411.198 294.144 C 410.298 293.573, 409.989 291.389, 410.198 287.070 L 410.500 280.821 414.320 287.911 C 416.422 291.810, 418.447 294.992, 418.820 294.983 C 419.194 294.974, 421.300 291.711, 423.500 287.733 L 427.500 280.500 427.801 285.720 C 427.967 288.591, 427.614 291.854, 427.016 292.970 C 426.014 294.842, 426.221 295, 429.665 295 C 432.570 295, 433.133 294.733, 432.200 293.800 C 431.487 293.087, 431 289.655, 431 285.350 C 431 279.500, 431.338 277.903, 432.750 277.080 C 434.179 276.248, 433.850 276.055, 430.960 276.030 C 427.591 276.001, 427.237 276.341, 423.584 283.104 C 419.342 290.958, 419.738 291.020, 414.944 281.750 C 412.101 276.251, 411.808 276.005, 408.236 276.116 C 406.181 276.180, 405.288 276.438, 406.250 276.689 M 436.851 276.887 C 438.318 277.817, 438.937 291.675, 437.608 293.826 C 437.119 294.616, 437.784 295, 439.641 295 C 441.787 295, 442.133 294.733, 441.200 293.800 C 440.525 293.125, 440.010 289.952, 440.022 286.550 L 440.044 280.500 441.967 283 C 443.024 284.375, 444.891 287.637, 446.116 290.250 C 447.340 292.863, 448.681 295, 449.095 295 C 449.509 295, 451.671 291.738, 453.900 287.750 L 457.952 280.500 457.976 287.167 C 457.992 291.584, 457.578 294.004, 456.750 294.338 C 456.063 294.615, 457.525 294.842, 460 294.842 C 462.475 294.842, 463.938 294.615, 463.250 294.338 C 462.390 293.991, 462 291.231, 462 285.500 C 462 279.769, 462.390 277.009, 463.250 276.662 C 463.938 276.385, 463.072 276.122, 461.326 276.079 C 458.402 276.006, 457.841 276.561, 454.197 283.133 L 450.240 290.266 447.693 285.883 C 446.292 283.472, 444.591 280.262, 443.913 278.750 C 442.896 276.484, 442.047 276.003, 439.089 276.015 C 436.709 276.025, 435.955 276.319, 436.851 276.887 M 492.750 276.662 C 493.610 277.009, 494 279.769, 494 285.500 C 494 291.231, 493.610 293.991, 492.750 294.338 C 492.063 294.615, 498.678 294.878, 507.450 294.921 C 519.856 294.982, 523.133 294.733, 522.200 293.800 C 521.487 293.087, 521 289.655, 521 285.350 C 521 279.500, 521.338 277.903, 522.750 277.080 C 524.133 276.274, 523.584 276.054, 520.128 276.030 C 516.480 276.005, 515.949 276.233, 516.923 277.408 C 517.647 278.280, 517.979 281.605, 517.796 286.158 L 517.500 293.500 513.500 293.500 L 509.500 293.500 509.202 286.022 C 508.955 279.846, 509.206 278.322, 510.643 277.272 C 512.143 276.175, 511.771 276.011, 507.941 276.079 C 505.499 276.122, 504.063 276.385, 504.750 276.662 C 505.611 277.010, 506 279.786, 506 285.583 L 506 294 502 294 L 498 294 498 285.583 C 498 279.786, 498.389 277.010, 499.250 276.662 C 499.938 276.385, 498.475 276.158, 496 276.158 C 493.525 276.158, 492.063 276.385, 492.750 276.662 M 293.566 281.328 C 290.071 283.884, 291.952 291, 296.122 291 C 297.732 291, 298 290.214, 298 285.500 C 298 279.671, 297.052 278.779, 293.566 281.328 M 302 285.500 C 302 290.179, 302.275 291, 303.845 291 C 306.209 291, 309 287.928, 309 285.326 C 309 282.951, 306.048 280, 303.671 280 C 302.312 280, 302 281.027, 302 285.500 M 475.161 283.547 C 473.418 287.372, 473.713 288.054, 477 287.803 C 478.650 287.677, 480 287.423, 480 287.238 C 480 286.637, 476.959 281, 476.635 281 C 476.462 281, 475.799 282.146, 475.161 283.547" stroke="none" fill="#ffffff" fill-rule="evenodd"/>
</svg>