<svg xmlns="http://www.w3.org/2000/svg" width="714" height="800" viewBox="0 0 714 800" version="1.1">
	<path d="M 51.613 28.502 C 50.511 29.053, 48.761 30.956, 47.725 32.731 C 43.982 39.139, 42.912 49.779, 42.313 86.500 C 41.395 142.880, 44.189 164.840, 52.693 168.073 C 54.122 168.617, 60.513 168.935, 66.895 168.780 L 78.500 168.500 78.767 142.750 L 79.034 117 64.017 117 L 49 117 49 98 L 49 79 68.482 79 L 87.964 79 88.232 103.250 L 88.500 127.500 92 127.500 L 95.500 127.500 95.768 103.250 L 96.036 79 141.018 79 L 186 79 186 97.989 L 186 116.978 145.432 117.239 L 104.865 117.500 104.965 142.398 C 105.020 156.092, 105.302 167.679, 105.591 168.148 C 105.881 168.616, 123.226 169, 144.136 169 L 182.154 169 185.006 166.148 C 191.463 159.691, 192.985 146.787, 192.984 98.500 C 192.983 51.357, 191.458 37.132, 185.684 30.419 L 183.404 27.768 142.472 27.937 C 105.552 28.090, 101.356 28.273, 99.667 29.801 C 96.629 32.551, 95.121 36.337, 93.621 44.980 C 92.113 53.670, 91 56.317, 91 51.216 C 91 43.037, 86.765 31.015, 83.215 29.115 C 80.725 27.782, 54.085 27.266, 51.613 28.502 M 210.779 123.250 C 210.514 175.638, 210.443 218.774, 210.621 219.109 C 210.798 219.444, 218.494 216.686, 227.722 212.981 C 236.950 209.276, 277.125 193.115, 317 177.068 C 356.875 161.021, 429.100 131.976, 477.500 112.522 C 525.900 93.069, 567.675 76.218, 570.333 75.076 C 572.991 73.934, 575.354 73, 575.583 73 C 575.812 73, 576 95.485, 576 122.967 L 576 172.934 565.045 173.217 L 554.090 173.500 571.485 201.494 C 585.124 223.444, 588.569 229.662, 587.440 230.294 C 584.379 232.007, 585.921 234.727, 591.501 237.457 C 601.607 242.401, 605.482 254.066, 600.157 263.517 C 594.413 273.711, 583.139 275.806, 573.523 268.466 C 571.035 266.567, 569 265.250, 569 265.540 C 569 266.893, 574.167 276.046, 576.491 278.806 C 577.921 280.507, 581.611 283.130, 584.689 284.636 C 598.864 291.571, 615.430 285.187, 622.348 270.122 C 623.939 266.658, 624.456 263.621, 624.411 258 C 624.312 245.511, 619.258 237.222, 608.520 231.935 L 602.153 228.801 616.232 207.650 C 623.975 196.018, 632.220 183.575, 634.553 180 L 638.795 173.500 626.897 173.219 L 615 172.938 615 115.076 C 615 69.712, 615.270 57.109, 616.250 56.728 C 625.186 53.257, 685.610 28.680, 685.917 28.392 C 686.146 28.176, 579.442 28, 448.797 28 L 211.261 28 210.779 123.250 M 227 121.117 C 227 201.703, 227.093 206.207, 228.750 205.734 C 229.713 205.460, 251.875 196.610, 278 186.068 C 304.125 175.525, 355.200 154.952, 391.500 140.351 C 427.800 125.749, 482.700 103.648, 513.500 91.238 C 544.300 78.828, 587.725 61.343, 610 52.383 L 650.500 36.091 438.750 36.046 L 227 36 227 121.117 M 234.949 40.250 C 234.922 40.388, 234.640 76.008, 234.323 119.406 C 233.835 186.174, 233.958 198.224, 235.123 197.742 C 238.334 196.414, 386.838 136.632, 486.500 96.547 C 524.450 81.284, 570.575 62.726, 589 55.308 C 607.425 47.890, 622.928 41.411, 623.450 40.910 C 624.021 40.363, 546.716 40, 429.700 40 C 322.615 40, 234.977 40.112, 234.949 40.250 M 260.584 51.947 C 262.016 53.320, 362.131 126, 362.591 126 C 362.816 126, 363 109.118, 363 88.484 L 363 50.968 311.334 51.018 C 281.631 51.047, 260.058 51.442, 260.584 51.947 M 388.073 52.465 C 389.799 54.147, 447.994 96, 448.607 96 C 448.844 96, 448.917 85.988, 448.769 73.750 L 448.500 51.500 417.573 51.287 C 391.149 51.105, 386.854 51.277, 388.073 52.465 M 464 71.920 L 464 92.840 514.653 72.433 C 542.512 61.210, 565.537 51.796, 565.820 51.514 C 566.102 51.231, 543.308 51, 515.167 51 L 464 51 464 71.920 M 278.036 57.416 C 280.830 60.117, 354.098 113, 355.046 113 C 355.629 113, 356 101.911, 356 84.500 L 356 56 316.286 56 C 282.012 56, 276.772 56.194, 278.036 57.416 M 404.057 56.728 C 404.088 57.153, 412.430 63.454, 422.595 70.731 C 435.201 79.755, 441.241 83.535, 441.592 82.620 C 441.875 81.882, 441.971 75.703, 441.804 68.889 L 441.500 56.500 422.750 56.228 C 412.438 56.078, 404.026 56.303, 404.057 56.728 M 471 70 C 471 77.700, 471.257 84, 471.570 84 C 472.726 84, 537.533 57.712, 538.450 56.871 C 538.991 56.375, 524.685 56, 505.200 56 L 471 56 471 70 M 250 119.353 L 250 178.950 252.250 178.065 C 265.639 172.795, 354.502 136.831, 354.753 136.580 C 354.937 136.397, 335.380 121.946, 311.293 104.468 C 271.610 75.671, 254.766 63.395, 251.250 60.710 C 250.253 59.949, 250 71.832, 250 119.353 M 378 93.881 C 378 112.097, 378.247 127, 378.550 127 C 379.213 127, 436.289 104.044, 436.735 103.598 C 436.907 103.426, 425.225 94.817, 410.774 84.467 C 396.323 74.118, 383.038 64.550, 381.250 63.206 L 378 60.763 378 93.881 M 601.250 62.584 L 598 64.006 598 118.503 L 598 173 602.500 173 L 607 173 607 117 C 607 72.823, 606.736 61.017, 605.750 61.082 C 605.063 61.126, 603.038 61.803, 601.250 62.584 M 297.083 64.397 C 297.893 65.169, 338.984 95, 339.240 95.001 C 339.383 95.002, 339.365 88.027, 339.201 79.501 L 338.902 64 317.784 64 C 306.170 64, 296.854 64.179, 297.083 64.397 M 476 67.500 C 476 69.425, 476.138 71, 476.307 71 C 476.476 71, 480.413 69.445, 485.057 67.543 L 493.500 64.087 484.750 64.043 L 476 64 476 67.500 M 586.250 68.584 L 583 70.006 583 121.503 L 583 173 587 173 L 591 173 591 120 C 591 90.850, 590.663 67.037, 590.250 67.082 C 589.837 67.126, 588.038 67.803, 586.250 68.584 M 257 121.500 C 257 148.175, 257.337 169.994, 257.750 169.987 C 259.847 169.951, 342.500 136.011, 342.500 135.187 C 342.500 134.218, 259.157 73.097, 257.750 73.034 C 257.337 73.015, 257 94.825, 257 121.500 M 385.943 74.682 C 385.912 75.132, 385.800 85.062, 385.693 96.749 C 385.566 110.738, 385.851 117.999, 386.526 117.999 C 388.410 118.001, 424.421 103.237, 424.670 102.362 C 424.885 101.602, 417.969 96.460, 392.817 78.682 C 389.068 76.032, 385.974 74.232, 385.943 74.682 M 263 124.454 L 263 157.027 266.250 155.671 C 268.038 154.925, 281.072 149.654, 295.216 143.957 C 309.359 138.260, 320.834 133.528, 320.716 133.442 C 320.597 133.357, 308.125 124.314, 293 113.347 C 277.875 102.380, 264.938 93.064, 264.250 92.644 C 263.260 92.041, 263 98.656, 263 124.454 M 391 99.011 C 391 105.836, 390.679 105.703, 398.894 102.271 L 402.462 100.780 399.746 98.615 C 398.253 97.424, 395.674 95.648, 394.015 94.668 L 391 92.887 391 99.011 M 395.500 155.924 C 352.488 171.745, 297.531 191.855, 244.250 211.268 L 211 223.383 211 427.191 L 211 631 324.500 631 L 438 631 438 595.635 L 438 560.270 445.250 558.522 C 451.723 556.961, 485.123 542.429, 516.830 527.378 C 523.062 524.420, 528.517 522, 528.952 522 C 530.280 522, 544.376 512.445, 546.364 510.198 C 547.928 508.430, 548.053 507.590, 547.142 504.976 L 546.056 501.861 553.059 498.768 C 559.840 495.773, 560.223 495.409, 565.111 487.316 L 570.160 478.957 566.661 474.234 L 563.163 469.511 569.824 466.005 L 576.486 462.500 578.877 453.012 L 581.268 443.524 575.026 437.871 L 568.784 432.219 575.392 428.523 L 582 424.828 582 415.105 C 582 408.829, 581.557 404.827, 580.750 403.815 C 580.063 402.953, 576.237 400.372, 572.250 398.080 C 568.263 395.787, 565.013 393.594, 565.030 393.206 C 565.046 392.818, 567.802 390.929, 571.154 389.009 C 574.506 387.088, 577.451 384.989, 577.699 384.343 C 578.118 383.251, 573.442 364.109, 572.535 363.202 C 572.310 362.977, 568.625 361.783, 564.346 360.548 C 557.530 358.580, 556.412 357.926, 555.326 355.264 C 554.100 352.259, 554.146 352.186, 559.543 348.603 C 562.744 346.478, 564.985 344.260, 564.964 343.240 C 564.944 342.283, 562.806 337.450, 560.214 332.500 L 555.500 323.500 548.099 323.376 C 541.565 323.266, 540.484 322.973, 538.871 320.876 C 536.319 317.556, 536.516 316.427, 540.500 311.565 C 542.425 309.216, 544 306.592, 544 305.734 C 544 304.202, 533.119 288.810, 531.196 287.621 C 530.657 287.288, 527.679 288.137, 524.579 289.507 C 521.479 290.878, 518.590 292, 518.160 292 C 517.729 292, 516.404 290.685, 515.215 289.077 L 513.054 286.155 515.027 280.421 C 516.112 277.267, 517 273.933, 517 273.012 C 517 270.845, 502.742 257, 500.510 257 C 499.573 257, 496.752 258.809, 494.240 261.020 L 489.672 265.041 487.336 262.846 C 485.239 260.876, 485 259.771, 485 252.050 L 485 243.449 476.490 238.224 C 471.809 235.351, 467.282 233, 466.430 233 C 465.578 233, 462.440 235.308, 459.458 238.128 C 453.343 243.911, 453.827 244.267, 451.267 232.105 L 449.500 223.710 443.750 221.661 L 438 219.612 438 180.306 C 438 149.472, 437.731 141.023, 436.750 141.105 C 436.063 141.163, 417.500 147.832, 395.500 155.924 M 387.150 218.646 L 381.952 224.500 379.571 221.805 C 378.261 220.322, 376.478 218.093, 375.608 216.851 L 374.026 214.592 365.476 216.834 C 356.706 219.134, 355.492 219.987, 348.261 228.925 L 346.299 231.349 343.313 229.223 L 340.326 227.096 333.413 232.597 C 329.611 235.623, 326.329 238.638, 326.120 239.299 C 325.910 239.960, 322.310 244.100, 318.120 248.500 C 307.853 259.279, 271.796 301.759, 268.792 306.614 C 267.470 308.752, 265.171 312.614, 263.682 315.198 L 260.976 319.897 263.610 322.339 L 266.243 324.781 261.911 329.640 C 259.528 332.313, 256.733 335.472, 255.699 336.661 C 254.080 338.521, 249.229 358.638, 250.193 359.492 C 250.362 359.641, 253.313 361.173, 256.750 362.896 C 260.188 364.619, 263 366.388, 263 366.827 C 263 367.266, 261.608 368.948, 259.906 370.563 C 258.205 372.178, 255.072 375.567, 252.944 378.094 L 249.075 382.688 250.373 393.380 C 251.088 399.261, 252.083 404.444, 252.586 404.899 C 253.089 405.355, 258.337 406.536, 264.250 407.525 C 273.001 408.989, 275 409.640, 275 411.025 C 275 411.961, 271.140 416.517, 266.423 421.151 L 257.847 429.575 262 440.037 C 264.284 445.792, 266.499 450.858, 266.922 451.296 C 267.345 451.733, 272.495 451.474, 278.367 450.720 L 289.043 449.349 292.083 454.290 L 295.123 459.230 287.482 467.082 C 282.439 472.264, 280.103 475.370, 280.611 476.217 C 283.758 481.465, 294.503 495, 295.522 495 C 296.216 495, 300.385 492.975, 304.786 490.500 C 309.187 488.025, 313.195 486, 313.691 486 C 314.188 486, 316.259 487.705, 318.293 489.788 L 321.992 493.576 317.385 504.038 L 312.779 514.500 318.639 519.768 C 321.863 522.666, 326.164 526.198, 328.198 527.618 L 331.897 530.201 342.085 524.046 C 347.855 520.560, 352.920 518.139, 353.764 518.463 C 355.269 519.041, 355.176 523.300, 353.329 538.252 L 352.742 543.005 362.237 547.502 C 367.459 549.976, 372.354 551.992, 373.116 551.983 C 373.877 551.974, 378.258 549.949, 382.851 547.483 C 387.443 545.017, 391.577 543, 392.035 543 C 392.494 543, 393.432 546.347, 394.119 550.438 C 395.545 558.922, 394.893 558.479, 407.500 559.534 C 415.400 560.195, 415.616 560.150, 424.750 555.959 C 429.837 553.625, 434 551.329, 434 550.858 C 434 549.408, 432.515 549.855, 423.378 554.056 C 415.079 557.872, 414.186 558.072, 408.279 557.439 C 404.825 557.070, 402.014 556.482, 402.031 556.134 C 402.048 555.785, 409.281 552.023, 418.104 547.773 C 427.199 543.393, 433.877 539.610, 433.523 539.037 C 433.148 538.431, 429.829 539.572, 425.200 541.900 C 411.772 548.651, 397.749 555.082, 397.342 554.676 C 396.347 553.680, 394.850 541.756, 395.629 541.027 C 396.108 540.579, 404.061 536.289, 413.301 531.493 C 429.451 523.111, 431.988 521.194, 433.463 516.250 C 434.397 513.122, 432.199 513.345, 431 516.500 C 430.477 517.875, 429.407 519, 428.621 519 C 427.835 519, 423.327 517.146, 418.604 514.879 L 410.015 510.758 410.574 507.129 C 410.882 505.133, 411.216 499.312, 411.317 494.192 L 411.500 484.885 405.642 481.226 L 399.784 477.568 396.642 481.051 C 394.914 482.967, 391.668 486.732, 389.429 489.417 C 386.293 493.179, 384.994 494.093, 383.770 493.400 C 380.321 491.446, 368.038 480.427, 368.019 479.271 C 368.009 478.594, 369.823 473.521, 372.050 467.995 L 376.100 457.950 374.137 455.225 C 373.057 453.726, 370.622 451.010, 368.726 449.189 L 365.278 445.878 355.567 451.067 C 350.023 454.029, 345.484 455.879, 344.989 455.378 C 344.513 454.895, 341.192 450.450, 337.609 445.500 L 331.096 436.500 339.129 428.397 L 347.163 420.295 343.914 414.897 C 338.479 405.866, 339.567 406.346, 327.316 407.567 C 319.620 408.334, 316.178 408.335, 315.384 407.572 C 313.675 405.930, 306.705 388.286, 307.352 387.239 C 307.666 386.732, 311.987 384.632, 316.955 382.573 C 321.923 380.514, 326.195 378.494, 326.448 378.085 C 327.054 377.104, 323.176 364.227, 322.068 363.542 C 321.596 363.250, 316.176 361.923, 310.024 360.592 C 303.873 359.262, 298.707 358.022, 298.544 357.837 C 298.381 357.651, 297.601 352.918, 296.810 347.318 L 295.373 337.136 302.436 336.556 C 306.321 336.237, 311.521 335.869, 313.991 335.738 C 319.169 335.464, 319.567 334.669, 318.553 326.618 L 317.909 321.500 306.955 315.690 C 299.607 311.794, 296.002 309.324, 296.008 308.190 C 296.017 306.127, 297.900 293.943, 298.455 292.357 C 298.729 291.575, 302.423 292.249, 310.177 294.497 C 316.405 296.303, 321.797 297.492, 322.159 297.140 C 322.522 296.788, 323.505 294.154, 324.344 291.287 L 325.870 286.073 316.287 277.208 L 306.703 268.343 310.454 261.921 C 312.517 258.390, 314.327 255.369, 314.477 255.208 C 314.627 255.048, 317.394 256.434, 320.625 258.288 C 323.856 260.143, 328.608 262.863, 331.184 264.333 L 335.868 267.007 339.425 263.253 C 341.382 261.189, 342.987 259.139, 342.991 258.697 C 343.003 257.608, 332.155 242.812, 330.212 241.266 C 328.816 240.155, 328.828 239.847, 330.335 238.182 C 331.256 237.165, 333.998 234.904, 336.429 233.158 L 340.850 229.984 349.469 238.142 L 358.088 246.301 363.044 243.979 C 365.770 242.703, 368 241.317, 368 240.900 C 368 240.482, 365.992 235.814, 363.537 230.525 C 360.513 224.010, 359.465 220.777, 360.287 220.499 C 360.954 220.274, 364.095 219.435, 367.268 218.635 L 373.036 217.181 379.984 226.547 L 386.932 235.914 392.216 235.317 C 395.122 234.988, 397.646 234.599, 397.825 234.452 C 398.003 234.304, 397.262 230.090, 396.178 225.087 C 395.093 220.084, 394.497 215.811, 394.853 215.591 C 395.210 215.370, 398.569 215.437, 402.319 215.738 L 409.137 216.285 413.686 226.085 L 418.234 235.884 423.166 236.942 C 430.118 238.433, 429.994 238.500, 430.058 233.250 C 430.132 227.161, 431.322 220.428, 432.267 220.750 C 432.670 220.887, 433.113 220.662, 433.250 220.250 C 433.387 219.838, 432.531 219.362, 431.347 219.193 C 429.864 218.982, 427.598 220.458, 424.058 223.943 C 421.232 226.724, 418.549 229, 418.094 229 C 417.640 229, 415.876 225.888, 414.176 222.085 C 412.475 218.282, 410.727 214.954, 410.292 214.689 C 409.856 214.425, 405.641 213.890, 400.924 213.500 L 392.348 212.792 387.150 218.646 M 387.196 222.063 L 382.893 226.936 385.135 229.968 C 386.949 232.422, 388.103 233, 391.188 233 C 393.698 233, 395 232.545, 395 231.667 C 395 229.324, 392.741 218.525, 392.109 217.845 C 391.774 217.485, 389.563 219.383, 387.196 222.063 M 352.037 228.071 L 347.762 233.142 350.631 236.162 C 352.209 237.824, 354.759 240.087, 356.297 241.193 C 358.724 242.937, 359.486 243.042, 362.047 241.980 C 363.671 241.308, 365 240.400, 365 239.963 C 365 238.472, 357.715 223, 357.013 223 C 356.628 223, 354.389 225.282, 352.037 228.071 M 423.021 228.479 C 420.603 230.943, 418.897 233.230, 419.230 233.563 C 419.563 233.896, 421.627 234.409, 423.818 234.702 L 427.801 235.237 428.151 229.617 C 428.343 226.526, 428.256 223.998, 427.958 223.999 C 427.660 223.999, 425.438 226.016, 423.021 228.479 M 438 243.983 L 438 262.923 442.966 264.397 C 456.372 268.378, 475.560 279.556, 488.264 290.784 C 531.221 328.752, 551.313 388.495, 535.419 431 C 522.245 466.232, 485.491 482.579, 448.225 469.780 L 437.949 466.251 438.225 481.347 L 438.500 496.443 444.815 498.328 C 452.132 500.511, 452.008 500.305, 454.491 514.500 C 455.452 520, 456.748 525.014, 457.370 525.643 C 457.991 526.271, 461.470 527.087, 465.099 527.456 L 471.699 528.127 472.599 516.313 L 473.500 504.500 478.918 503.839 C 481.898 503.475, 485.273 503.542, 486.418 503.987 C 487.831 504.536, 490.073 508.388, 493.394 515.970 C 497.702 525.808, 498.539 527.084, 500.394 526.641 C 501.552 526.363, 504.192 525.830, 506.261 525.455 C 508.330 525.080, 510.218 524.456, 510.458 524.068 C 510.698 523.680, 509.801 518.668, 508.465 512.931 C 507.129 507.194, 506.028 501.775, 506.018 500.889 C 506.006 499.848, 507.977 498.521, 511.589 497.139 C 514.663 495.962, 517.576 495, 518.063 495 C 518.550 495, 521.921 499.050, 525.554 504 C 529.187 508.950, 532.568 513, 533.067 513 C 534.271 513, 541.914 507.689, 541.962 506.818 C 541.983 506.443, 539.701 501.335, 536.891 495.466 L 531.783 484.797 536.100 480.398 C 538.474 477.979, 540.949 476, 541.600 476 C 542.251 476, 545.195 478.111, 548.142 480.692 C 551.089 483.272, 554.457 486.224, 555.628 487.251 C 557.742 489.107, 557.774 489.089, 560.757 484.240 L 563.759 479.361 559.274 473.430 C 556.807 470.169, 553.690 465.872, 552.348 463.882 L 549.909 460.264 552.399 454.632 C 553.769 451.534, 555.477 449.012, 556.195 449.026 C 556.913 449.041, 560.792 450.800, 564.816 452.936 C 569.475 455.409, 572.272 456.398, 572.517 455.660 C 572.728 455.022, 573.424 452.475, 574.063 450 L 575.224 445.500 567.189 437.954 L 559.153 430.407 559.723 424.116 C 560.097 419.997, 560.788 417.635, 561.724 417.276 C 562.511 416.974, 566.291 417.415, 570.126 418.257 L 577.097 419.786 576.881 413.797 C 576.762 410.498, 576.081 407.224, 575.366 406.508 C 574.651 405.794, 571.195 403.604, 567.686 401.641 C 564.177 399.679, 560.828 397.494, 560.245 396.786 C 559.662 396.079, 559.031 392.584, 558.842 389.019 L 558.500 382.538 564.963 381.723 C 568.518 381.274, 571.521 380.812, 571.638 380.696 C 571.754 380.579, 571.056 377.562, 570.085 373.992 L 568.320 367.500 562.410 365.721 C 553.085 362.915, 551.839 361.995, 549.910 356.500 C 547.237 348.885, 547.403 348.333, 553.250 345.397 C 556.138 343.946, 558.634 342.642, 558.799 342.498 C 558.963 342.354, 557.629 339.258, 555.834 335.618 L 552.571 329 545.035 328.998 L 537.500 328.996 534.870 324.748 C 529.608 316.250, 529.638 316.716, 534.021 311.211 C 536.209 308.463, 538 305.911, 538 305.540 C 538 304.780, 533.605 298.635, 530.675 295.298 L 528.742 293.097 523.904 295.548 C 521.244 296.897, 518.468 298, 517.736 298 C 517.005 298, 514.828 296.313, 512.899 294.250 C 506.471 287.377, 506.595 287.866, 509.353 280.218 L 511.846 273.309 506.042 268.201 L 500.239 263.092 496.064 267.546 C 493.768 269.996, 491.523 272, 491.076 272 C 489.701 272, 480.007 263.905, 479.897 262.665 C 479.840 262.024, 479.846 258.125, 479.911 254 L 480.029 246.500 473.976 242.757 L 467.923 239.014 465.961 243.590 C 464.883 246.107, 464 248.523, 464 248.960 C 464 249.398, 463.388 250.263, 462.640 250.884 C 461.602 251.745, 459.881 251.396, 455.390 249.414 C 452.150 247.985, 449.332 246.652, 449.127 246.452 C 448.923 246.252, 447.961 242.205, 446.991 237.458 C 445.110 228.252, 444.974 228.006, 440.750 226.211 L 438 225.043 438 243.983 M 40.451 236.750 C 41.200 238.813, 48.851 258.275, 57.453 280 C 86.881 354.324, 84.500 347.710, 83.316 351.833 C 82.737 353.850, 73.614 377.325, 63.044 404 C 52.474 430.675, 42.759 455.313, 41.457 458.750 L 39.090 465 116.045 465 L 193 465 193 439.500 L 193 414 131.917 414 C 94.489 414, 70.962 413.638, 71.167 413.066 C 71.350 412.552, 74.875 403.778, 79 393.568 L 86.500 375.005 139.750 375.003 L 193 375 193 349 L 193 323 139.750 322.993 L 86.500 322.985 79 304.411 C 74.875 294.195, 71.350 285.423, 71.167 284.918 C 70.967 284.367, 95.254 284, 131.917 284 L 193 284 193 258.500 L 193 233 116.044 233 L 39.089 233 40.451 236.750 M 321.943 247.558 C 319.014 250.524, 316.839 253.173, 317.111 253.444 C 317.382 253.715, 321.578 256.224, 326.434 259.018 L 335.265 264.100 337.689 261.822 C 339.023 260.569, 339.922 258.811, 339.688 257.915 C 339.138 255.811, 329.846 243.252, 328.384 242.636 C 327.770 242.377, 324.872 244.592, 321.943 247.558 M 405.208 262.138 C 385.649 264.328, 367.242 277.638, 358.299 296.058 C 351.955 309.124, 349.999 317.500, 350.006 331.564 C 350.020 360.635, 357.967 385.885, 375.229 411.706 C 383.084 423.457, 400.161 441.555, 410.500 449.087 C 417.612 454.268, 430.920 462, 432.726 462 C 435.500 462, 433.685 460.341, 427.295 457.036 C 411.293 448.762, 391.493 430.762, 378.776 412.929 C 367.520 397.146, 358.395 376.714, 354.467 358.500 C 352.336 348.615, 351.436 324.924, 352.923 317.824 L 354.111 312.147 360.731 311.438 C 369.741 310.473, 384.141 311.608, 393.638 314.030 C 403.024 316.424, 419.445 324.313, 426.770 329.946 C 432.553 334.394, 433 334.594, 433 332.732 C 433 330.926, 418.919 321.706, 409.698 317.473 C 396.621 311.470, 388.537 309.779, 371 309.379 C 353 308.968, 353.969 310.086, 360.272 297 C 367.760 281.456, 384.269 268.372, 400.706 264.956 C 405.861 263.885, 428.223 264.006, 431.650 265.125 C 432.283 265.331, 432.957 265.062, 433.150 264.528 C 433.883 262.491, 415.839 260.948, 405.208 262.138 M 438 301.089 L 438 333.179 446.578 342.339 C 463.957 360.898, 478.032 386.915, 481.956 407.733 C 485.274 425.340, 483.842 449.168, 478.702 461.890 L 476.119 468.280 482.811 467.719 C 500.773 466.213, 518.604 453.688, 527.255 436.500 C 552.302 386.742, 516.942 305.942, 457.004 275.971 C 450.878 272.908, 440.698 269, 438.843 269 C 438.380 269, 438 283.440, 438 301.089 M 284.262 295.211 C 268.446 314.055, 264.267 319.616, 265.134 320.662 C 265.745 321.398, 266.755 322, 267.378 322 C 268.001 322, 274.204 315.357, 281.163 307.238 C 298.826 286.632, 296.024 288.341, 307.154 291.383 C 312.278 292.783, 316.706 293.608, 316.993 293.215 C 317.280 292.822, 318.769 291.105, 320.300 289.401 L 323.085 286.302 314.509 278.651 C 309.792 274.443, 305.610 271.022, 305.216 271.049 C 304.822 271.075, 295.393 281.948, 284.262 295.211 M 319.500 294 C 319.160 294.550, 319.359 295, 319.941 295 C 320.523 295, 321 294.550, 321 294 C 321 293.450, 320.802 293, 320.559 293 C 320.316 293, 319.840 293.450, 319.500 294 M 284.911 306.287 C 279.638 312.454, 270.892 322.629, 265.477 328.898 C 256.106 339.746, 255.571 340.613, 254.392 346.891 C 253.710 350.518, 253.291 353.624, 253.460 353.793 C 253.629 353.962, 262.762 343.998, 273.756 331.651 L 293.745 309.200 294.464 303.443 C 294.859 300.277, 295.415 297.082, 295.699 296.343 C 297 292.953, 293.760 295.939, 284.911 306.287 M 273.580 335.224 L 252.955 358.449 259.228 361.638 C 262.677 363.392, 265.765 364.528, 266.089 364.163 C 266.412 363.799, 272.590 357.147, 279.817 349.382 L 292.957 335.263 298.791 334.603 C 304.182 333.993, 305.032 333.531, 310.004 328.496 C 312.962 325.501, 315.184 322.861, 314.941 322.631 C 314.192 321.920, 295.369 312, 294.769 312 C 294.458 312, 284.923 322.451, 273.580 335.224 M 312.196 329.298 C 310.438 331.111, 309 332.911, 309 333.298 C 309 333.684, 310.575 334, 312.500 334 C 315.917 334, 316 333.905, 316 330 C 316 327.800, 315.863 326, 315.696 326 C 315.529 326, 313.954 327.484, 312.196 329.298 M 271.966 361.037 C 260.710 373.157, 251.516 383.394, 251.537 383.787 C 251.849 389.882, 253.374 401, 253.898 401 C 254.277 401, 263.937 391.329, 275.365 379.508 L 296.142 358.017 294.898 348.508 C 294.214 343.279, 293.379 339, 293.043 339 C 292.707 339, 283.222 348.917, 271.966 361.037 M 438.033 401.073 L 438 460.647 448.750 464.237 C 454.663 466.211, 461.813 468.126, 464.640 468.492 L 469.780 469.157 472.299 463.829 C 476.196 455.587, 478.001 444.795, 477.992 429.792 C 477.984 415.031, 477.030 407.526, 473.943 397.944 C 468.759 381.853, 455.955 360.199, 444.613 348.343 L 438.067 341.500 438.033 401.073 M 276.750 381.448 C 265.337 393.204, 256 403.046, 256 403.319 C 256 403.592, 260.279 404.586, 265.508 405.527 L 275.017 407.239 279.758 402.912 C 299.035 385.321, 318.849 365.498, 317.753 364.900 C 317.064 364.525, 312.900 363.455, 308.500 362.523 C 304.100 361.591, 299.825 360.659, 299 360.451 C 298.084 360.220, 289.424 368.392, 276.750 381.448 M 299 387.791 C 287.175 399.181, 277.331 408.894, 277.125 409.375 C 276.214 411.500, 279.579 408.721, 291.492 397.513 C 303.163 386.531, 304.998 385.201, 313.366 381.662 C 318.390 379.538, 322.861 377.461, 323.302 377.048 C 324.173 376.232, 322.165 366.974, 321.131 367.041 C 320.784 367.063, 310.825 376.401, 299 387.791 M 282.530 408.964 C 270.997 419.884, 261.396 429.312, 261.195 429.915 C 260.583 431.751, 267.415 448.056, 268.675 447.768 C 269.909 447.487, 313 410.116, 313 409.328 C 313 408.056, 304.663 389.008, 304.126 389.054 C 303.782 389.084, 294.064 398.043, 282.530 408.964 M 322.671 410.156 L 314.842 411.051 294.671 428.682 C 283.577 438.379, 273.825 446.970, 273 447.773 C 271.683 449.055, 272.291 449.149, 278 448.540 C 281.575 448.159, 285.677 447.612, 287.115 447.325 C 289.223 446.905, 324.760 418.373, 332.472 410.909 C 334.797 408.659, 335.381 408.704, 322.671 410.156 M 314.728 428.750 C 302.294 439.063, 292.094 448.037, 292.061 448.693 C 291.977 450.329, 295.994 457, 297.062 457 C 297.537 457, 307.055 449.680, 318.213 440.732 C 329.371 431.785, 339.774 423.479, 341.331 422.274 L 344.163 420.084 341.331 415.043 C 339.774 412.271, 338.238 410.002, 337.918 410.001 C 337.597 410, 327.162 418.438, 314.728 428.750 M 565 425.484 L 565 427.968 568.562 426.269 C 571.555 424.842, 571.835 424.456, 570.312 423.855 C 566.629 422.403, 565 422.902, 565 425.484 M 306.997 456.056 C 295.173 465.437, 284.889 473.714, 284.143 474.449 C 283.003 475.571, 283.813 477.147, 289.189 484.275 L 295.592 492.764 319.248 475.632 C 332.258 466.209, 342.925 458.006, 342.952 457.402 C 343.010 456.086, 330.261 439, 329.220 439 C 328.820 439, 318.820 446.675, 306.997 456.056 M 341.489 465.574 C 328.845 474.694, 317.935 482.701, 317.244 483.369 C 316.244 484.336, 316.753 485.329, 319.744 488.248 L 323.500 491.912 348.289 474.846 L 373.077 457.780 369.705 453.695 C 367.850 451.449, 365.915 449.472, 365.406 449.302 C 364.896 449.132, 354.133 456.454, 341.489 465.574 M 556.955 458.083 C 556.062 459.752, 556.202 460.597, 557.660 462.333 C 558.660 463.525, 559.552 464.644, 559.642 464.820 C 559.733 464.996, 561.742 464.152, 564.108 462.945 L 568.410 460.750 563.955 458.420 C 558.439 455.535, 558.322 455.530, 556.955 458.083 M 347.500 478.023 L 324.500 493.930 320.863 501.715 C 318.863 505.997, 317.388 509.675, 317.586 509.890 C 317.784 510.104, 323.921 506.334, 331.223 501.512 C 338.525 496.689, 349.095 489.770, 354.710 486.136 L 364.921 479.528 368.081 472.014 C 372.402 461.742, 372.320 461.993, 371.357 462.057 C 370.886 462.089, 360.150 469.273, 347.500 478.023 M 392.514 489.447 C 388.778 494.092, 385.173 498.103, 384.505 498.360 C 380.622 499.850, 354.828 516.443, 355.860 516.787 C 357.229 517.243, 408 487.216, 408 485.950 C 408 485.030, 401.720 481, 400.285 481 C 399.747 481, 396.250 484.801, 392.514 489.447 M 340.768 497.826 C 327.716 506.447, 317.037 513.950, 317.037 514.500 C 317.038 516.103, 330.823 527.186, 332.369 526.827 C 334.191 526.403, 382.956 496.658, 382.906 496 C 382.841 495.135, 366.947 482.509, 365.694 482.326 C 365.037 482.230, 353.821 489.205, 340.768 497.826 M 539.773 483.656 C 538.356 485.072, 538.448 485.745, 540.754 490.859 C 542.152 493.962, 543.385 496.618, 543.494 496.762 C 543.602 496.906, 545.813 496.086, 548.407 494.938 C 553.780 492.562, 553.763 492.500, 546.019 486.016 C 541.772 482.460, 541.189 482.240, 539.773 483.656 M 383 504.311 L 357.500 519.585 356.440 529.043 C 355.858 534.244, 355.525 538.803, 355.702 539.173 C 355.878 539.543, 359.955 537.661, 364.761 534.992 C 409.578 510.097, 407.426 511.444, 408.117 507.855 C 409.231 502.067, 410.009 488.999, 409.237 489.018 C 408.832 489.028, 397.025 495.910, 383 504.311 M 42.243 563.250 L 42.500 629.500 117.750 629.756 L 193 630.013 193 604.006 L 193 578 121 578 L 49 578 49 537.500 L 49 497 45.493 497 L 41.986 497 42.243 563.250 M 513.613 502.294 C 511.927 503.526, 511.945 504.020, 514 512.771 L 516.156 521.955 520.828 519.617 C 523.398 518.332, 526.071 517.102, 526.769 516.884 C 528.042 516.486, 517.665 501, 516.125 501 C 515.717 501, 514.586 501.582, 513.613 502.294 M 439 503.969 C 439 504.501, 439.675 504.678, 440.500 504.362 C 441.325 504.045, 442 503.609, 442 503.393 C 442 503.177, 441.325 503, 440.500 503 C 439.675 503, 439 503.436, 439 503.969 M 442.250 509.259 L 438 511.394 438 522.711 L 438 534.029 444.250 530.896 C 447.688 529.173, 450.688 527.591, 450.917 527.381 C 451.521 526.828, 447.777 506.988, 447.083 507.062 C 446.762 507.096, 444.587 508.085, 442.250 509.259 M 480.750 511.572 C 478.132 512.992, 477.995 513.435, 477.900 520.782 C 477.845 525.027, 477.508 529.535, 477.150 530.800 C 476.638 532.611, 472.478 535.006, 457.552 542.081 C 447.130 547.022, 438.420 551.246, 438.197 551.469 C 437.974 551.692, 437.951 552.335, 438.146 552.897 C 438.458 553.800, 490.312 531.006, 492.273 529.104 C 493.059 528.341, 485.175 509.967, 484.092 510.040 C 483.767 510.062, 482.262 510.751, 480.750 511.572 M 383.542 527.046 C 369.815 534.730, 358.210 541.390, 357.753 541.847 C 357.296 542.304, 360.583 544.328, 365.059 546.345 L 373.195 550.012 400.221 535.829 L 427.246 521.646 418.873 517.373 C 414.268 515.023, 410.050 513.095, 409.500 513.088 C 408.950 513.082, 397.269 519.363, 383.542 527.046 M 445.794 535.827 C 438.876 539.124, 438.083 539.792, 438.044 542.357 C 438.015 544.254, 438.420 545.046, 439.250 544.715 C 445.860 542.076, 463 533.515, 463 532.851 C 463 532.383, 460.863 532.035, 458.250 532.077 C 454.962 532.130, 451.129 533.284, 445.794 535.827 M 44 646.021 C 44 646.454, 48.612 650.972, 54.250 656.060 C 59.888 661.147, 67.293 667.959, 70.707 671.197 L 76.914 677.083 73.207 680.398 C 71.168 682.222, 63.425 689.020, 56 695.506 C 48.575 701.993, 42.350 707.682, 42.167 708.150 C 41.983 708.617, 46.631 709, 52.496 709 L 63.158 709 76.128 697.500 C 83.261 691.175, 89.420 686, 89.815 686 C 90.210 686, 95.693 691.175, 102 697.500 L 113.467 709 123.734 709 C 129.380 709, 133.993 708.663, 133.984 708.250 C 133.975 707.837, 126.775 700.813, 117.984 692.639 C 109.193 684.466, 102 677.414, 102 676.968 C 102 676.522, 108.958 669.527, 117.463 661.423 C 125.968 653.320, 132.725 646.365, 132.480 645.968 C 132.235 645.572, 127.592 645.171, 122.163 645.077 L 112.291 644.907 101.483 656.495 C 95.538 662.869, 90.095 667.953, 89.387 667.792 C 88.679 667.631, 84.590 664.118, 80.300 659.986 C 76.010 655.853, 70.567 650.772, 68.203 648.696 L 63.907 644.921 53.953 645.077 C 48.479 645.163, 44 645.588, 44 646.021 M 142 677.464 C 142 695.359, 142.338 709.997, 142.750 709.994 C 143.162 709.990, 155.875 701.479, 171 691.080 L 198.500 672.172 199 690.336 L 199.500 708.500 209.500 708.500 L 219.500 708.500 219.764 676.750 C 219.977 651.094, 219.776 645, 218.717 645 C 217.996 645, 207.977 651.188, 196.453 658.751 C 184.929 666.314, 172.575 674.405, 169 676.731 L 162.500 680.960 162 663.230 L 161.500 645.500 151.750 645.214 L 142 644.928 142 677.464 M 227.467 646.225 C 227.194 646.938, 227.089 661.241, 227.235 678.010 L 227.500 708.500 238 708.500 L 248.500 708.500 249 690.775 L 249.500 673.050 265 681.499 C 273.525 686.146, 281.220 689.960, 282.100 689.974 C 282.981 689.988, 290.631 686.207, 299.100 681.572 L 314.500 673.144 315 690.822 L 315.500 708.500 326 708.500 L 336.500 708.500 336.765 678.010 C 336.911 661.241, 336.818 646.969, 336.560 646.295 C 336.258 645.509, 326.391 650.798, 309.102 661.013 L 282.115 676.957 257.308 662.392 C 243.663 654.381, 231.479 647.175, 230.232 646.379 C 228.414 645.218, 227.865 645.188, 227.467 646.225 M 344.454 646.260 C 344.188 646.953, 344.089 661.241, 344.235 678.010 L 344.500 708.500 355.250 708.784 L 366 709.068 366 690.953 L 366 672.838 374.500 677.419 C 379.175 679.939, 386.712 683.987, 391.250 686.416 L 399.500 690.832 415.500 681.965 L 431.500 673.097 432 690.799 L 432.500 708.500 443.250 708.784 L 454 709.068 454 677.534 C 454 652.102, 453.745 646, 452.682 646 C 451.957 646, 439.618 652.965, 425.262 661.477 L 399.161 676.955 380.330 665.858 C 369.974 659.754, 357.773 652.564, 353.219 649.880 C 347.518 646.520, 344.787 645.392, 344.454 646.260 M 484.693 675.590 C 472.699 692.389, 462.638 706.779, 462.336 707.567 C 461.880 708.755, 463.581 709, 472.278 709 L 482.771 709 487 702 L 491.229 695 508.064 695 L 524.899 695 530.199 701.945 L 535.500 708.890 545.750 708.945 C 551.388 708.975, 556 708.794, 556 708.542 C 556 707.618, 508.395 645.632, 507.464 645.345 C 506.934 645.181, 496.687 658.792, 484.693 675.590 M 564 677.183 L 564 709.016 623.750 708.758 L 683.500 708.500 683.500 677 L 683.500 645.500 673 645.500 L 662.500 645.500 662.234 673.778 L 661.969 702.056 648.234 701.778 L 634.500 701.500 634 673.320 L 633.500 645.139 623.500 645.320 L 613.500 645.500 613.234 673.750 L 612.969 702 598.984 702 L 585 702 585 673.434 L 585 644.868 574.500 645.109 L 564 645.350 564 677.183 M 502.192 679.219 L 496.194 687.500 502.097 687.798 C 505.344 687.961, 510.704 687.961, 514.008 687.798 L 520.016 687.500 514.103 679.219 L 508.190 670.939 502.192 679.219 M 40.390 718.427 C 40.088 719.212, 39.990 720.900, 40.171 722.177 L 40.500 724.500 362.250 724.752 L 684 725.003 684 721.002 L 684 717 362.469 717 C 84.867 717, 40.862 717.195, 40.390 718.427 M 94.001 740.752 C 92.077 741.713, 89.899 743.771, 89.161 745.324 C 86.398 751.142, 90.063 756.114, 98.981 758.645 C 102.016 759.506, 105.124 760.804, 105.887 761.528 C 108.191 763.716, 106.466 766, 102.510 766 C 99.691 766, 98.722 765.484, 97.818 763.500 C 96.861 761.400, 95.994 761, 92.399 761 C 90.044 761, 87.843 761.445, 87.507 761.989 C 86.291 763.956, 90.278 770.218, 93.640 771.623 C 97.908 773.406, 106.144 773.384, 110.466 771.579 C 113.983 770.109, 117 765.687, 117 762 C 117 756.135, 112.777 752.807, 102.068 750.233 C 97.965 749.247, 97.108 747.548, 99.946 746.029 C 101.673 745.105, 102.440 745.349, 104.600 747.509 C 106.879 749.788, 107.712 750.016, 111.623 749.429 C 115.571 748.837, 115.988 748.529, 115.408 746.632 C 114.436 743.458, 112.861 741.841, 109.282 740.345 C 104.838 738.488, 98.177 738.665, 94.001 740.752 M 153.604 740.038 C 144.342 742.810, 140.137 756.652, 145.697 766.064 C 148.178 770.263, 153.877 773, 160.136 772.998 C 170.965 772.995, 177.001 767.126, 176.998 756.602 C 176.996 748.434, 174.770 744.141, 169.038 741.250 C 164.423 738.923, 158.806 738.482, 153.604 740.038 M 247.388 740.581 C 243.559 742.470, 241.545 746.040, 241.545 750.938 C 241.545 758.759, 249.262 764.011, 255.893 760.703 C 259.418 758.945, 259.914 759.900, 257.839 764.453 C 256.509 767.373, 254.435 767.704, 251.891 765.402 C 250.566 764.202, 249.110 763.975, 246.062 764.489 C 243.828 764.867, 242 765.521, 242 765.942 C 242 767.553, 246.947 771.949, 249.474 772.583 C 254.532 773.852, 261.045 772.417, 264.101 769.359 C 269.207 764.250, 269.971 751.183, 265.557 744.447 C 262.268 739.427, 253.505 737.563, 247.388 740.581 M 302.500 739.954 C 297.688 741.944, 295.726 745.590, 295.219 753.482 C 294.608 763.011, 296.689 769.271, 301.254 771.632 C 305.639 773.899, 314.237 773.065, 317.433 770.063 C 322.161 765.621, 323.197 752.150, 319.378 744.765 C 316.942 740.054, 308.249 737.576, 302.500 739.954 M 354.190 741.026 C 349.963 743.603, 348 748.351, 348 756 C 348 763.188, 349.737 767.862, 353.514 770.832 C 358.841 775.023, 370.342 772.878, 372.977 767.202 C 374.897 763.066, 375.311 753.102, 373.775 748.013 C 371.292 739.792, 361.779 736.399, 354.190 741.026 M 412.600 741.487 C 411.704 742.855, 409.177 744.889, 406.985 746.007 C 403.491 747.790, 403 748.470, 403 751.520 C 403 755.405, 403.997 755.771, 408.364 753.494 C 409.940 752.672, 411.515 751.999, 411.864 751.999 C 412.214 751.998, 412.500 756.610, 412.500 762.249 L 412.500 772.500 417 772.500 L 421.500 772.500 421.774 755.750 L 422.048 739 418.139 739 C 415.078 739, 413.876 739.540, 412.600 741.487 M 498.213 740.507 C 496.039 741.451, 494.410 743.169, 493.404 745.576 C 492.567 747.578, 492.022 749.352, 492.191 749.517 C 492.361 749.683, 494.478 749.960, 496.895 750.132 C 500.674 750.402, 501.406 750.133, 502.113 748.223 C 502.659 746.747, 503.766 746, 505.409 746 C 511.396 746, 509.810 751.273, 502 757.339 C 495.526 762.366, 492.010 767.094, 492.004 770.779 C 492 773.051, 492.043 773.057, 505.250 772.779 L 518.500 772.500 518.810 768.750 L 519.121 765 512.310 764.996 L 505.500 764.991 511.673 759.484 C 518.465 753.425, 520.001 749.878, 517.820 745.286 C 515.190 739.745, 505.436 737.368, 498.213 740.507 M 552.500 740.331 C 548.270 742.252, 547.106 743.990, 545.764 750.388 C 544.856 754.716, 544.862 757.309, 545.787 761.721 C 547.376 769.296, 550.220 772.123, 556.899 772.764 C 566.984 773.733, 571.056 769.811, 571.787 758.422 C 572.584 745.998, 568.978 740.017, 560.283 739.340 C 557.569 739.129, 554.202 739.557, 552.500 740.331 M 609.069 742.182 C 607.732 743.871, 605.145 745.877, 603.319 746.640 C 600.460 747.835, 600 748.510, 600 751.513 C 600 755.431, 600.562 755.628, 605.654 753.500 C 607.629 752.675, 609.414 752, 609.622 752 C 609.830 752, 610 756.725, 610 762.500 L 610 773 614.500 773 L 619 773 619 756 L 619 739 615.250 739.055 C 612.294 739.099, 610.985 739.761, 609.069 742.182 M 49 756.500 L 49 773 54 773 L 59 773 59 756.500 L 59 740 54 740 L 49 740 49 756.500 M 654.017 747.250 C 653.376 751.237, 652.773 755.157, 652.676 755.961 C 652.427 758.024, 659.474 759.121, 661.770 757.378 C 664.073 755.628, 665.536 755.679, 667.429 757.571 C 669.288 759.431, 669.499 764.101, 667.800 765.800 C 665.889 767.711, 662.212 767.244, 661.500 765 C 660.845 762.935, 657.768 762.419, 653.281 763.622 C 651.177 764.186, 651.139 764.368, 652.547 767.092 C 654.523 770.911, 658.836 773.003, 664.700 772.985 C 670.304 772.968, 673.541 771.532, 676.273 767.852 C 678.540 764.798, 678.820 758.286, 676.823 755.088 C 674.826 751.890, 669.590 749.799, 665.502 750.566 C 662.398 751.148, 662 750.983, 662 749.111 C 662 747.151, 662.535 747, 669.500 747 L 677 747 677 743.500 L 677 740 666.090 740 L 655.181 740 654.017 747.250 M 252.329 745.775 C 250.059 747.220, 249.774 751.499, 251.783 753.980 C 254.039 756.766, 256.485 756.224, 258.151 752.569 C 259.063 750.566, 258.960 749.587, 257.619 747.541 C 255.921 744.949, 254.417 744.447, 252.329 745.775 M 306.560 746.332 C 304.479 747.854, 303.358 755.765, 304.421 761.432 C 305.237 765.780, 308.144 767.713, 310.431 765.427 C 312.659 763.198, 312.658 748.801, 310.429 746.571 C 308.537 744.680, 308.798 744.696, 306.560 746.332 M 359.347 746.488 C 357.816 747.608, 357.500 749.215, 357.500 755.884 C 357.500 764.490, 358.977 767.714, 362.331 766.426 C 364.369 765.644, 365.443 762.046, 365.443 756 C 365.443 747.205, 363.185 743.682, 359.347 746.488 M 556.529 746.614 C 554.307 748.836, 554.373 763.231, 556.616 765.473 C 559.950 768.807, 562.962 764.477, 562.985 756.315 C 563.010 747.653, 560.005 743.138, 556.529 746.614 M 156 749 C 153.271 751.729, 153.161 760.930, 155.829 763.345 C 158.125 765.423, 163.346 765.493, 165.028 763.467 C 165.727 762.624, 166.502 759.811, 166.748 757.217 C 167.107 753.446, 166.761 751.948, 165.026 749.750 C 162.436 746.469, 158.830 746.170, 156 749 M 455 753.500 L 455 758 460 758 L 465 758 465 753.500 L 465 749 460 749 L 455 749 455 753.500 M 455.195 767.750 L 455.500 772.500 460.250 772.805 L 465 773.110 465 768.055 L 465 763 459.945 763 L 454.890 763 455.195 767.750" stroke="none" fill="#ffffff" fill-rule="evenodd"/>
</svg>