<svg xmlns="http://www.w3.org/2000/svg" width="800" height="239" viewBox="0 0 800 239" version="1.1">
	<path d="M 626.105 57.583 C 623.137 58.381, 618.472 60.251, 615.737 61.740 C 609.275 65.257, 600.684 74.812, 597.862 81.619 L 595.632 87 404.756 87 L 213.879 87 214.190 90.750 L 214.500 94.500 404.613 94.753 L 594.727 95.005 595.252 101.556 C 596.654 119.018, 611.487 134.036, 630.559 137.303 C 653.526 141.237, 677.422 123.437, 678.829 101.348 C 679.246 94.791, 679.521 94.467, 684.250 94.948 C 685.659 95.091, 686 94.333, 686 91.063 C 686 87.022, 685.979 87, 682.184 87 C 678.498 87, 678.290 86.811, 676.070 81.456 C 668.410 62.974, 645.954 52.245, 626.105 57.583 M 631.492 68.445 C 627.808 72.940, 624 81.361, 624 85.011 C 624 86.902, 624.692 87, 638.067 87 L 652.135 87 651.447 84.750 C 648.899 76.422, 639.898 64, 636.411 64 C 635.709 64, 633.495 66, 631.492 68.445 M 649.575 66.176 C 650.006 66.904, 651.462 68.971, 652.812 70.768 C 654.161 72.565, 656.278 76.840, 657.516 80.268 L 659.768 86.500 664.884 86.802 C 668.100 86.992, 670 86.699, 670 86.012 C 670 83.591, 665.917 77.262, 661.833 73.355 C 657.439 69.151, 648.096 63.680, 649.575 66.176 M 617.946 68.866 C 612.853 72.148, 609.117 75.977, 606.106 81 C 602.869 86.399, 603.243 87, 609.836 87 L 615.672 87 617.400 80.750 C 618.350 77.313, 620.243 72.588, 621.606 70.250 C 622.969 67.912, 623.703 66, 623.238 66 C 622.772 66, 620.391 67.290, 617.946 68.866 M 311.200 68.200 C 309.648 69.752, 309.648 76.248, 311.200 77.800 C 314.608 81.208, 318.638 77.213, 317.564 71.491 C 316.786 67.345, 313.668 65.732, 311.200 68.200 M 321.137 68.617 C 319.317 69.892, 318.951 70.971, 319.197 74.344 C 319.466 78.030, 319.783 78.500, 322 78.500 C 324.250 78.500, 324.500 78.100, 324.500 74.500 C 324.500 71.108, 324.196 70.527, 322.500 70.676 C 320.536 70.849, 320.534 70.827, 322.427 69.436 C 325.113 67.463, 323.891 66.687, 321.137 68.617 M 469.500 68 C 467.592 68.820, 467.603 68.863, 469.750 68.930 C 470.988 68.968, 472 68.550, 472 68 C 472 67.450, 471.887 67.032, 471.750 67.070 C 471.613 67.109, 470.600 67.527, 469.500 68 M 312.782 69.750 C 311.957 71.589, 312.618 76.357, 313.750 76.742 C 314.615 77.036, 315 75.910, 315 73.083 C 315 69.498, 313.742 67.608, 312.782 69.750 M 327 74.441 L 327 79 331 79 C 333.444 79, 335 79.467, 335 80.200 C 335 80.952, 335.343 81.046, 335.920 80.450 C 337.034 79.300, 336.099 70, 334.870 70 C 334.391 70, 334 71.575, 334 73.500 C 334 75.425, 333.550 77, 333 77 C 332.450 77, 332 75.335, 332 73.300 C 332 69.015, 330.386 69.867, 329.727 74.500 L 329.300 77.500 329.150 74.309 C 328.908 69.165, 327 69.282, 327 74.441 M 338.667 70.667 C 338.300 71.033, 338 72.847, 338 74.698 C 338 78.708, 340.366 80.096, 342.828 77.529 C 344.401 75.889, 344.366 75.825, 342.250 76.460 C 340.901 76.865, 340 76.708, 340 76.067 C 340 75.480, 340.648 75, 341.441 75 C 343.334 75, 344.155 73.568, 343.396 71.590 C 342.782 69.989, 339.906 69.428, 338.667 70.667 M 345.667 70.667 C 344.302 72.031, 344.988 78.058, 346.578 78.668 C 348.513 79.411, 351.729 76.569, 350.096 75.559 C 349.493 75.187, 349 75.359, 349 75.941 C 349 76.523, 348.550 77, 348 77 C 347.450 77, 347 75.845, 347 74.433 C 347 72.323, 347.355 71.978, 348.994 72.498 C 350.524 72.984, 350.848 72.767, 350.387 71.565 C 349.780 69.985, 346.897 69.436, 345.667 70.667 M 352.693 73.750 C 353.005 75.813, 353.595 77.870, 354.003 78.323 C 354.915 79.333, 356.295 74.286, 355.472 72.954 C 355.147 72.429, 355.359 72, 355.941 72 C 356.523 72, 357 71.550, 357 71 C 357 70.450, 355.903 70, 354.563 70 C 352.312 70, 352.169 70.287, 352.693 73.750 M 358 73.965 C 358 76.700, 358.503 78.256, 359.513 78.643 C 361.877 79.550, 363.779 77.265, 363.606 73.726 C 363.474 71.005, 363.022 70.450, 360.725 70.184 C 358.150 69.885, 358 70.093, 358 73.965 M 365.372 72.655 C 364.580 75.810, 366.019 78.500, 368.500 78.500 C 370.981 78.500, 372.420 75.810, 371.628 72.655 C 371.133 70.681, 370.330 70, 368.500 70 C 366.670 70, 365.867 70.681, 365.372 72.655 M 377.422 71.342 C 377.108 72.161, 376.997 74.107, 377.175 75.666 C 377.564 79.058, 381.234 79.738, 381.852 76.532 C 382.181 74.823, 382.018 74.740, 380.615 75.904 C 379.199 77.080, 379 76.926, 379 74.654 C 379 72.665, 379.381 72.209, 380.636 72.691 C 381.762 73.123, 382.126 72.878, 381.804 71.909 C 381.147 69.938, 378.112 69.545, 377.422 71.342 M 387.388 72.590 C 386.569 75.853, 388.011 78.500, 390.609 78.500 C 392.149 78.500, 392.500 77.756, 392.500 74.500 C 392.500 71.132, 392.150 70.450, 390.285 70.185 C 388.587 69.944, 387.911 70.505, 387.388 72.590 M 395 74.559 C 395 77.344, 395.389 78.878, 396 78.500 C 396.550 78.160, 397 76.721, 397 75.301 C 397 73.882, 397.788 72.123, 398.750 71.392 C 400.341 70.184, 400.250 70.061, 397.750 70.032 C 395.147 70.002, 395 70.245, 395 74.559 M 401 75.434 C 401 78.495, 401.450 81, 402 81 C 402.550 81, 403 80.602, 403 80.117 C 403 79.631, 403.929 78.990, 405.065 78.693 C 406.775 78.246, 407.076 77.496, 406.815 74.327 C 406.540 70.989, 406.149 70.460, 403.750 70.184 C 401.041 69.872, 401 69.951, 401 75.434 M 409.701 70.632 C 408.384 71.950, 408.997 72.938, 410.750 72.321 C 412.111 71.842, 412.008 72.184, 410.284 73.860 C 407.609 76.461, 408.291 79, 411.664 79 C 413.928 79, 414.092 78.677, 413.807 74.759 C 413.514 70.709, 411.574 68.759, 409.701 70.632 M 416 74.500 C 416 76.975, 416.450 79, 417 79 C 417.550 79, 418 78.100, 418 77 C 418 75.900, 418.450 75, 419 75 C 419.550 75, 420 75.927, 420 77.059 C 420 78.191, 420.450 78.840, 421 78.500 C 421.550 78.160, 422 76.360, 422 74.500 C 422 72.640, 421.550 70.840, 421 70.500 C 420.450 70.160, 420 70.584, 420 71.441 C 420 72.298, 419.550 73, 419 73 C 418.450 73, 418 72.325, 418 71.500 C 418 70.675, 417.550 70, 417 70 C 416.450 70, 416 72.025, 416 74.500 M 423 73.833 C 423 78.624, 424.015 79.749, 425.663 76.781 C 426.677 74.953, 426.936 74.848, 426.965 76.250 C 427.040 79.954, 429 77.787, 429 74 C 429 69.548, 427.868 68.835, 426.220 72.250 L 425.135 74.500 425.068 72.250 C 424.950 68.331, 423 69.824, 423 73.833 M 430.723 70.660 C 429.719 72.255, 430.911 75, 432.607 75 C 433.373 75, 434 75.648, 434 76.441 C 434 77.234, 434.450 78.160, 435 78.500 C 435.611 78.878, 436 77.344, 436 74.559 C 436 72.052, 435.550 70, 435 70 C 434.450 70, 434 70.675, 434 71.500 C 434 73.587, 432.223 73.386, 431.800 71.250 C 431.567 70.075, 431.213 69.881, 430.723 70.660 M 438.394 71.416 C 437.257 74.378, 438.434 78.500, 440.417 78.500 C 441.471 78.500, 442.545 77.866, 442.803 77.091 C 443.126 76.122, 442.762 75.877, 441.636 76.309 C 439.352 77.186, 439.588 75.738, 441.972 74.250 C 443.128 73.527, 443.705 72.394, 443.365 71.509 C 442.633 69.601, 439.116 69.535, 438.394 71.416 M 445 74.500 C 445 76.975, 445.450 79, 446 79 C 446.550 79, 447 78.100, 447 77 C 447 75.900, 447.450 75, 448 75 C 448.550 75, 449 75.927, 449 77.059 C 449 78.191, 449.450 78.840, 450 78.500 C 450.550 78.160, 451 76.109, 451 73.941 C 451 71.773, 450.550 70, 450 70 C 449.450 70, 449 70.675, 449 71.500 C 449 72.325, 448.550 73, 448 73 C 447.450 73, 447 72.325, 447 71.500 C 447 70.675, 446.550 70, 446 70 C 445.450 70, 445 72.025, 445 74.500 M 452.750 70.577 C 451.645 71.691, 451.837 77.781, 453 78.500 C 453.550 78.840, 454 78.191, 454 77.059 C 454 75.927, 454.450 75, 455 75 C 455.550 75, 456 75.648, 456 76.441 C 456 77.234, 456.450 78.160, 457 78.500 C 457.611 78.878, 458 77.344, 458 74.559 C 458 72.052, 457.550 70, 457 70 C 456.450 70, 456 70.675, 456 71.500 C 456 73.500, 454.234 73.427, 453.823 71.410 C 453.645 70.536, 453.163 70.161, 452.750 70.577 M 460.394 71.416 C 459.266 74.355, 460.434 78.500, 462.391 78.500 C 464.971 78.500, 466.433 75.860, 465.628 72.655 C 464.900 69.752, 461.354 68.913, 460.394 71.416 M 467 73.833 C 467 78.624, 468.015 79.749, 469.663 76.781 C 470.677 74.953, 470.936 74.848, 470.965 76.250 C 471.040 79.954, 473 77.787, 473 74 C 473 69.548, 471.868 68.835, 470.220 72.250 L 469.135 74.500 469.068 72.250 C 468.950 68.331, 467 69.824, 467 73.833 M 478.388 72.590 C 477.569 75.853, 479.011 78.500, 481.609 78.500 C 483.149 78.500, 483.500 77.756, 483.500 74.500 C 483.500 71.132, 483.150 70.450, 481.285 70.185 C 479.587 69.944, 478.911 70.505, 478.388 72.590 M 485.800 71.200 C 486.460 71.860, 487 73.633, 487 75.141 C 487 76.649, 487.450 78.160, 488 78.500 C 488.595 78.868, 489 77.677, 489 75.559 C 489 73.602, 489.450 72, 490 72 C 490.550 72, 491 71.550, 491 71 C 491 70.450, 489.560 70, 487.800 70 C 485.311 70, 484.867 70.267, 485.800 71.200 M 492 73.965 C 492 76.700, 492.503 78.256, 493.513 78.643 C 495.877 79.550, 497.779 77.265, 497.606 73.726 C 497.474 71.005, 497.022 70.450, 494.725 70.184 C 492.150 69.885, 492 70.093, 492 73.965 M 499.709 70.624 C 498.447 71.886, 498.958 76.720, 500.487 77.989 C 502.125 79.349, 505 78.696, 505 76.964 C 505 76.320, 504.172 76.128, 503 76.500 C 501.900 76.849, 501 76.707, 501 76.184 C 501 75.661, 501.939 74.988, 503.087 74.688 C 504.438 74.334, 505.051 73.499, 504.827 72.321 C 504.475 70.475, 501.008 69.326, 499.709 70.624 M 506 71 C 506 71.550, 506.450 72, 507 72 C 507.550 72, 508 73.323, 508 74.941 C 508 76.559, 508.450 78.160, 509 78.500 C 509.595 78.868, 510 77.677, 510 75.559 C 510 73.602, 510.450 72, 511 72 C 511.550 72, 512 71.550, 512 71 C 512 70.450, 510.650 70, 509 70 C 507.350 70, 506 70.450, 506 71 M 513.422 71.342 C 513.108 72.161, 512.997 74.107, 513.175 75.666 C 513.564 79.058, 517.234 79.738, 517.852 76.532 C 518.181 74.823, 518.018 74.740, 516.615 75.904 C 515.195 77.083, 515 76.915, 515 74.515 C 515 72.436, 515.377 71.931, 516.584 72.394 C 517.589 72.779, 518.015 72.545, 517.751 71.751 C 517.137 69.906, 514.084 69.618, 513.422 71.342 M 519.800 71.200 C 520.460 71.860, 521 73.885, 521 75.700 C 521 77.515, 521.450 79, 522 79 C 522.550 79, 523 77.425, 523 75.500 C 523 73.575, 523.450 72, 524 72 C 524.550 72, 525 71.550, 525 71 C 525 70.450, 523.560 70, 521.800 70 C 519.311 70, 518.867 70.267, 519.800 71.200 M 526 73.965 C 526 76.700, 526.503 78.256, 527.513 78.643 C 529.877 79.550, 531.779 77.265, 531.606 73.726 C 531.474 71.005, 531.022 70.450, 528.725 70.184 C 526.150 69.885, 526 70.093, 526 73.965 M 533.709 70.624 C 532.447 71.886, 532.958 76.720, 534.487 77.989 C 536.125 79.349, 539 78.696, 539 76.964 C 539 76.320, 538.172 76.128, 537 76.500 C 535.900 76.849, 535 76.707, 535 76.184 C 535 75.661, 535.939 74.988, 537.087 74.688 C 538.438 74.334, 539.051 73.499, 538.827 72.321 C 538.475 70.475, 535.008 69.326, 533.709 70.624 M 541 74.559 C 541 77.344, 541.389 78.878, 542 78.500 C 542.550 78.160, 543.029 77.121, 543.063 76.191 C 543.109 74.966, 543.376 75.120, 544.031 76.750 C 545.401 80.158, 546 79.474, 546 74.500 C 546 70.054, 544.576 68.358, 543.689 71.750 C 543.254 73.417, 543.226 73.417, 543.116 71.750 C 542.858 67.856, 541 70.323, 541 74.559 M 548 74.500 C 548 76.975, 548.450 79, 549 79 C 549.550 79, 550 78.100, 550 77 C 550 75.900, 550.450 75, 551 75 C 551.550 75, 552 75.927, 552 77.059 C 552 78.191, 552.450 78.840, 553 78.500 C 553.550 78.160, 554 76.109, 554 73.941 C 554 71.773, 553.550 70, 553 70 C 552.450 70, 552 70.675, 552 71.500 C 552 72.325, 551.550 73, 551 73 C 550.450 73, 550 72.325, 550 71.500 C 550 70.675, 549.550 70, 549 70 C 548.450 70, 548 72.025, 548 74.500 M 555.709 70.624 C 555.319 71.014, 555 72.803, 555 74.599 C 555 77.039, 555.531 78.034, 557.101 78.532 C 559.971 79.443, 561.207 77.897, 560.823 73.877 C 560.583 71.372, 559.973 70.425, 558.459 70.208 C 557.336 70.047, 556.099 70.235, 555.709 70.624 M 563.422 71.342 C 563.108 72.161, 562.997 74.107, 563.175 75.666 C 563.564 79.058, 567.234 79.738, 567.852 76.532 C 568.181 74.823, 568.018 74.740, 566.615 75.904 C 565.199 77.080, 565 76.926, 565 74.654 C 565 72.665, 565.381 72.209, 566.636 72.691 C 567.762 73.123, 568.126 72.878, 567.804 71.909 C 567.147 69.938, 564.112 69.545, 563.422 71.342 M 569 71 C 569 71.550, 569.450 72, 570 72 C 570.550 72, 571 73.602, 571 75.559 C 571 77.677, 571.405 78.868, 572 78.500 C 572.550 78.160, 573 76.649, 573 75.141 C 573 73.633, 573.540 71.860, 574.200 71.200 C 575.133 70.267, 574.689 70, 572.200 70 C 570.440 70, 569 70.450, 569 71 M 576 74.500 C 576 78.236, 576.319 79, 577.878 79 C 578.910 79, 580.367 78.263, 581.114 77.363 C 582.287 75.949, 582.168 75.523, 580.236 74.241 C 579.006 73.424, 578 72.136, 578 71.378 C 578 70.620, 577.550 70, 577 70 C 576.450 70, 576 72.025, 576 74.500 M 583 74.500 C 583 76.975, 583.450 79, 584 79 C 584.550 79, 585 78.100, 585 77 C 585 74.367, 586.617 74.428, 587.312 77.087 C 587.939 79.482, 590.732 79.380, 592.290 76.905 C 593.838 74.447, 592.330 70, 589.950 70 C 588.843 70, 587.678 70.675, 587.362 71.500 C 587.045 72.325, 586.384 73, 585.893 73 C 585.402 73, 585 72.325, 585 71.500 C 585 70.675, 584.550 70, 584 70 C 583.450 70, 583 72.025, 583 74.500 M 340 72 C 340 72.550, 340.477 73, 341.059 73 C 341.641 73, 341.840 72.550, 341.500 72 C 341.160 71.450, 340.684 71, 340.441 71 C 340.198 71, 340 71.450, 340 72 M 367.386 72.437 C 366.598 74.490, 367.708 77.299, 368.993 76.504 C 369.547 76.162, 370 75.035, 370 74 C 370 71.536, 368.155 70.433, 367.386 72.437 M 440 72 C 440 72.550, 440.477 73, 441.059 73 C 441.641 73, 441.840 72.550, 441.500 72 C 441.160 71.450, 440.684 71, 440.441 71 C 440.198 71, 440 71.450, 440 72 M 321 74.500 C 321 75.875, 321.450 77, 322 77 C 322.550 77, 323 75.875, 323 74.500 C 323 73.125, 322.550 72, 322 72 C 321.450 72, 321 73.125, 321 74.500 M 389 74.500 C 389 76.189, 389.458 77.014, 390.250 76.750 C 390.938 76.521, 391.500 75.508, 391.500 74.500 C 391.500 73.492, 390.938 72.479, 390.250 72.250 C 389.458 71.986, 389 72.811, 389 74.500 M 403 74.500 C 403 75.875, 403.450 77, 404 77 C 404.550 77, 405 75.875, 405 74.500 C 405 73.125, 404.550 72, 404 72 C 403.450 72, 403 73.125, 403 74.500 M 462 74.500 C 462 75.875, 462.450 77, 463 77 C 463.550 77, 464 75.875, 464 74.500 C 464 73.125, 463.550 72, 463 72 C 462.450 72, 462 73.125, 462 74.500 M 480 74.500 C 480 75.875, 480.450 77, 481 77 C 481.550 77, 482 75.875, 482 74.500 C 482 73.125, 481.550 72, 481 72 C 480.450 72, 480 73.125, 480 74.500 M 557 74.500 C 557 75.875, 557.450 77, 558 77 C 558.550 77, 559 75.875, 559 74.500 C 559 73.125, 558.550 72, 558 72 C 557.450 72, 557 73.125, 557 74.500 M 589 74.500 C 589 75.875, 589.450 77, 590 77 C 590.550 77, 591 75.875, 591 74.500 C 591 73.125, 590.550 72, 590 72 C 589.450 72, 589 73.125, 589 74.500 M 360 76 C 360 76.550, 360.450 77, 361 77 C 361.550 77, 362 76.550, 362 76 C 362 75.450, 361.550 75, 361 75 C 360.450 75, 360 75.450, 360 76 M 410.500 76 C 410.160 76.550, 410.359 77, 410.941 77 C 411.523 77, 412 76.550, 412 76 C 412 75.450, 411.802 75, 411.559 75 C 411.316 75, 410.840 75.450, 410.500 76 M 494 76 C 494 76.550, 494.450 77, 495 77 C 495.550 77, 496 76.550, 496 76 C 496 75.450, 495.550 75, 495 75 C 494.450 75, 494 75.450, 494 76 M 528 76 C 528 76.550, 528.450 77, 529 77 C 529.550 77, 530 76.550, 530 76 C 530 75.450, 529.550 75, 529 75 C 528.450 75, 528 75.450, 528 76 M 153 110 L 153 133 178.500 133 L 204 133 204 129.500 L 204 126 187.500 126 L 171 126 171 119 L 171 112 186 112 L 201 112 201 108 L 201 104 186 104 L 171 104 171 99 L 171 94 187.500 94 L 204 94 204 90.500 L 204 87 178.500 87 L 153 87 153 110 M 603.619 94.823 C 601.312 95.284, 601.515 101.628, 604.054 108.414 C 607.796 118.416, 618.254 127.474, 628.795 129.843 C 633.774 130.961, 634.402 130.340, 633.528 125.166 C 632.953 121.760, 632.476 121.282, 628.487 120.104 C 622.536 118.347, 621.291 116.731, 623.405 113.505 C 625.293 110.624, 625.616 110.566, 629 112.500 C 632.630 114.575, 632.854 114.428, 633.193 109.750 L 633.500 105.500 643.500 105 L 653.500 104.500 653.500 100 L 653.500 95.500 644.760 95 C 637.046 94.559, 636.079 94.689, 636.532 96.109 C 637.224 98.278, 634.802 100.111, 631.104 100.216 C 627.664 100.314, 624.667 98.311, 625.399 96.403 C 625.772 95.430, 623.432 95.052, 615.563 94.813 C 609.884 94.641, 604.509 94.645, 603.619 94.823 M 660.991 98.250 C 660.987 100.037, 660.699 103.862, 660.352 106.750 L 659.721 112 650.361 112 L 641 112 641 121.394 L 641 130.787 645.250 129.847 C 659.137 126.774, 670.528 114.293, 671.751 100.813 L 672.278 95 666.639 95 L 661 95 660.991 98.250 M 413 102.465 C 413 106.057, 420.633 107.168, 423.506 103.994 C 425.864 101.387, 424.702 100.286, 421.437 102.034 C 419.413 103.117, 418.473 103.152, 416.952 102.202 C 414.378 100.595, 413 100.686, 413 102.465 M 274.325 108.459 C 265.992 112.084, 264.783 124.274, 272.143 130.467 C 274.569 132.509, 276.225 133, 280.677 133 C 285.599 133, 286.561 132.639, 289.521 129.679 C 293.996 125.204, 294.795 120.585, 292.133 114.569 C 289.088 107.683, 281.832 105.194, 274.325 108.459 M 303.207 108.613 C 295.365 112.610, 294.202 124.626, 301.096 130.427 C 303.523 132.469, 305.226 133, 309.354 133 C 315.204 133, 318.245 131.361, 320.506 126.989 C 322.540 123.054, 322.509 123, 318.241 123 C 315.564 123, 314.121 123.576, 313.232 125 C 311.845 127.221, 308.053 127.653, 306.200 125.800 C 304.296 123.896, 304.709 116.573, 306.829 114.655 C 309.208 112.502, 310.299 112.568, 312.500 115 C 313.704 116.330, 315.580 117, 318.103 117 C 321.864 117, 321.887 116.975, 320.873 114.066 C 318.849 108.258, 309.540 105.385, 303.207 108.613 M 383 108.752 C 378.315 111.092, 375.756 116.176, 376.347 121.966 C 376.711 125.534, 377.548 127.114, 380.509 129.828 C 384.033 133.057, 384.514 133.203, 390.257 132.788 C 395.441 132.413, 396.682 131.921, 399.012 129.313 C 402.825 125.045, 403.564 120.062, 401.181 114.676 C 398.070 107.644, 390.292 105.109, 383 108.752 M 441.198 108.673 C 436.932 110.775, 435 114.633, 435 121.050 C 435 125.573, 435.414 126.614, 438.400 129.600 C 441.455 132.655, 442.367 133, 447.384 133 C 452.097 133, 453.427 132.571, 455.906 130.250 C 457.522 128.738, 459.134 126.487, 459.489 125.250 C 460.078 123.196, 459.801 123, 456.308 123 C 453.564 123, 452.128 123.566, 451.232 125 C 449.845 127.221, 446.053 127.653, 444.200 125.800 C 442.296 123.896, 442.709 116.573, 444.829 114.655 C 447.275 112.442, 448.489 112.566, 451.210 115.310 C 452.985 117.100, 454.214 117.494, 456.674 117.060 C 459.844 116.501, 459.846 116.495, 458.457 113.213 C 456.076 107.589, 447.809 105.415, 441.198 108.673 M 577.216 108.505 C 569.833 111.713, 568.464 124.451, 574.886 130.189 C 577.521 132.544, 578.919 133, 583.500 133 C 588.087 133, 589.442 132.557, 591.906 130.250 C 593.522 128.738, 595.134 126.487, 595.489 125.250 C 596.083 123.182, 595.809 123, 592.103 123 C 589.094 123, 587.799 123.508, 587 125 C 585.813 127.218, 582.059 127.659, 580.200 125.800 C 578.449 124.049, 578.700 116.442, 580.571 114.571 C 582.659 112.484, 583.934 112.589, 586.571 115.067 C 588.140 116.540, 589.798 117.043, 592.343 116.817 L 595.914 116.500 594.269 113.121 C 591.559 107.550, 584.076 105.525, 577.216 108.505 M 214.658 108.750 C 214.405 109.162, 214.266 114.675, 214.349 121 L 214.500 132.500 223.852 132.482 C 232.835 132.466, 233.298 132.355, 235.602 129.677 C 238.468 126.344, 238.650 123.650, 236.177 121.177 C 234.556 119.556, 234.513 119.113, 235.789 117.192 C 237.711 114.296, 236.651 110.617, 233.477 109.171 C 230.659 107.887, 215.397 107.546, 214.658 108.750 M 242 120.560 L 242 133.121 245.750 132.810 C 249.296 132.517, 249.517 132.296, 249.810 128.750 C 250.117 125.045, 250.173 125, 254.426 125 C 261.866 125, 266.134 119.551, 263.842 112.977 C 262.527 109.205, 259.164 108, 249.953 108 L 242 108 242 120.560 M 324 111 C 324 113.756, 324.282 114, 327.462 114 L 330.925 114 331.212 123.250 L 331.500 132.500 335.500 132.500 L 339.500 132.500 339.788 123.250 L 340.075 114 343.538 114 C 346.718 114, 347 113.756, 347 111 L 347 108 335.500 108 L 324 108 324 111 M 351 120.500 L 351 133 355 133 L 359 133 359 129 L 359 125 363.444 125 C 369.506 125, 373.144 121.896, 373.295 116.594 C 373.381 113.554, 372.823 112.245, 370.646 110.372 C 368.215 108.281, 366.888 108, 359.444 108 L 351 108 351 120.500 M 406.219 120.250 L 406.500 132.500 410.248 132.810 C 413.895 133.112, 414.112 132.936, 418.248 126.328 L 422.500 119.536 422.797 126.326 L 423.094 133.115 426.797 132.808 L 430.500 132.500 430.781 120.250 L 431.062 108 426.991 108 C 423.065 108, 422.771 108.235, 418.710 114.616 L 414.500 121.231 414.204 114.616 L 413.909 108 409.924 108 L 405.938 108 406.219 120.250 M 463.738 108.750 C 463.528 109.162, 463.408 114.675, 463.470 121 L 463.583 132.500 474.030 132.500 L 484.476 132.500 484.488 130 C 484.499 127.630, 484.174 127.484, 478.250 127.202 C 472.819 126.944, 472 126.649, 472 124.952 C 472 123.276, 472.707 123, 477 123 C 481.889 123, 482 122.933, 482 120 C 482 117.067, 481.889 117, 477 117 C 473.222 117, 472 116.633, 472 115.500 C 472 114.333, 473.333 114, 478 114 L 484 114 484 111 L 484 108 474.059 108 C 468.591 108, 463.947 108.338, 463.738 108.750 M 488.219 120.250 L 488.500 132.500 492.500 132.500 C 496.400 132.500, 496.508 132.407, 496.810 128.750 C 497.119 125.020, 497.145 125, 501.606 125 C 507.601 125, 511 121.786, 511 116.118 C 511 109.767, 507.916 108, 496.834 108 L 487.938 108 488.219 120.250 M 515.219 120.250 L 515.500 132.500 521.500 132.811 C 529.028 133.201, 533.245 132.432, 536.054 130.158 C 538.739 127.983, 538.924 123.678, 536.449 120.943 C 535.068 119.417, 534.922 118.678, 535.824 117.776 C 536.471 117.129, 537 115.366, 537 113.857 C 537 109.386, 533.864 108, 523.747 108 L 514.938 108 515.219 120.250 M 542.219 120.250 L 542.500 132.500 546.248 132.810 C 549.895 133.112, 550.112 132.936, 554.248 126.328 L 558.500 119.536 558.797 126.326 L 559.094 133.115 562.797 132.808 L 566.500 132.500 566.781 120.250 L 567.062 108 562.991 108 C 559.065 108, 558.771 108.235, 554.710 114.616 L 550.500 121.231 550.204 114.616 L 549.909 108 545.924 108 L 541.938 108 542.219 120.250 M 278.313 113.786 C 276.488 114.946, 275.065 119.516, 275.710 122.143 C 276.548 125.557, 277.948 127, 280.422 127 C 283.674 127, 285 125.080, 285 120.371 C 285 114.653, 281.841 111.542, 278.313 113.786 M 386.631 114.280 C 384.537 115.812, 384.122 123.237, 386.004 125.505 C 387.496 127.303, 391.139 127.461, 392.800 125.800 C 394.704 123.896, 394.291 116.573, 392.171 114.655 C 389.972 112.665, 388.937 112.595, 386.631 114.280 M 223 116.066 C 223 117.729, 223.535 118.071, 225.741 117.816 C 227.395 117.626, 228.615 116.805, 228.815 115.750 C 229.073 114.391, 228.460 114, 226.073 114 C 223.634 114, 223 114.426, 223 116.066 M 250 116.500 C 250 118.591, 250.474 119, 252.893 119 C 254.615 119, 256.033 118.356, 256.396 117.410 C 257.301 115.052, 256.236 114, 252.941 114 C 250.471 114, 250 114.400, 250 116.500 M 359 116.500 C 359 118.591, 359.474 119, 361.893 119 C 364.799 119, 366.081 117.576, 365.269 115.250 C 365.030 114.563, 363.521 114, 361.917 114 C 359.472 114, 359 114.405, 359 116.500 M 497 116.434 C 497 118.631, 497.441 119, 500.070 119 C 502.681 119, 503.091 118.664, 502.820 116.750 C 502.591 115.139, 501.719 114.410, 499.750 114.184 C 497.382 113.911, 497 114.224, 497 116.434 M 523.188 115.739 C 523.602 117.887, 526.600 118.577, 528.537 116.969 C 530.566 115.286, 529.410 114, 525.868 114 C 523.543 114, 522.930 114.398, 523.188 115.739 M 223 124.500 C 223 126.617, 223.465 127, 226.031 127 C 227.888 127, 229.301 126.380, 229.677 125.399 C 230.395 123.528, 228.444 122.037, 225.250 122.015 C 223.513 122.003, 223 122.570, 223 124.500 M 523.380 123.452 C 522.565 125.575, 523.793 127, 526.437 127 C 529.467 127, 531.394 124.794, 529.776 123.176 C 528.131 121.531, 524.050 121.707, 523.380 123.452" stroke="none" fill="#ffffff" fill-rule="evenodd"/>
</svg>