<svg xmlns="http://www.w3.org/2000/svg" width="493" height="479" viewBox="0 0 493 479" version="1.1">
	<path d="M 222.747 20.860 C 222.220 22.875, 221.575 23, 211.710 23 C 201.975 23, 201.195 23.146, 200.695 25.059 C 200.200 26.952, 199.670 27.062, 194.078 26.429 C 188.328 25.779, 188 25.857, 188 27.871 C 188 29.825, 187.465 30, 181.500 30 C 175.667 30, 175 30.205, 175 32 C 175 33.795, 174.333 34, 168.500 34 C 162.667 34, 162 34.205, 162 36 C 162 37.657, 161.333 38, 158.117 38 C 155.072 38, 154.120 38.433, 153.709 40.003 C 153.284 41.631, 152.465 41.959, 149.343 41.753 C 146.077 41.538, 145.454 41.823, 145.194 43.648 C 145.025 44.829, 144.013 46.025, 142.944 46.304 C 141.875 46.584, 141 47.530, 141 48.406 C 141 49.591, 140.003 50, 137.117 50 C 134.074 50, 133.120 50.433, 132.710 52 C 132.295 53.589, 131.346 54, 128.094 54 C 124.667 54, 124 54.326, 124 56 C 124 57.130, 123.333 58, 122.467 58 C 121.623 58, 119.427 59.506, 117.586 61.347 C 115.745 63.188, 113.510 64.974, 112.620 65.316 C 111.729 65.658, 111 66.626, 111 67.469 C 111 68.589, 109.925 69, 107 69 C 103.667 69, 103 69.333, 103 71 C 103 72.363, 102.333 73, 100.906 73 C 99.654 73, 98.603 73.803, 98.290 75 C 98.002 76.100, 97.102 77, 96.290 77 C 95.477 77, 94.577 77.900, 94.290 79 C 94 80.107, 92.926 81, 91.883 81 C 90.667 81, 90 81.708, 90 83 C 90 84.333, 89.333 85, 88 85 C 86.667 85, 86 85.667, 86 87 C 86 88.467, 85.333 89, 83.500 89 C 81.250 89, 81 89.400, 81 93 C 81 96.333, 80.667 97, 79 97 C 77.667 97, 77 97.667, 77 99 C 77 100.363, 76.333 101, 74.906 101 C 73.654 101, 72.603 101.803, 72.290 103 C 72 104.107, 70.926 105, 69.883 105 C 68.318 105, 68 105.760, 68 109.500 C 68 113.633, 67.796 114, 65.500 114 C 63.926 114, 63 114.565, 63 115.525 C 63 116.363, 61.875 117.477, 60.500 118 C 58.486 118.766, 58 119.636, 58 122.475 C 58 125.333, 57.622 126, 56 126 C 54.394 126, 54 126.667, 54 129.383 C 54 131.926, 53.503 132.897, 52 133.290 C 50.477 133.688, 50 134.654, 50 137.337 C 50 140.230, 49.597 140.918, 47.750 141.180 C 45.929 141.439, 45.440 142.236, 45.183 145.361 C 44.952 148.177, 44.343 149.359, 42.933 149.728 C 41.503 150.102, 41 151.113, 41 153.617 C 41 155.477, 40.550 157.056, 40 157.125 C 39.450 157.194, 38.438 157.306, 37.750 157.375 C 36.952 157.455, 36.393 159.541, 36.203 163.146 C 35.960 167.764, 35.551 168.884, 33.953 169.302 C 32.219 169.756, 32 170.718, 32 177.906 C 32 185.873, 31.961 186, 29.500 186 C 27.002 186, 27 186.008, 27 195.883 C 27 204.926, 26.830 205.811, 25 206.290 C 23.087 206.790, 23 207.656, 22.996 226.156 C 22.994 236.795, 22.698 251.261, 22.339 258.303 C 21.688 271.063, 21.694 271.107, 23.983 271.706 C 26.239 272.296, 26.269 272.484, 25.642 282.045 L 25.004 291.784 27.502 292.411 C 29.886 293.010, 30 293.377, 30 300.484 C 30 306.906, 30.275 308.077, 32 309 C 33.588 309.850, 34 311.094, 34 315.035 C 34 319.333, 34.269 320, 36 320 C 37.704 320, 38 320.667, 38 324.500 C 38 328.333, 38.296 329, 40 329 C 41.667 329, 42 329.667, 42 333 C 42 336.333, 42.333 337, 44 337 C 45.615 337, 46 337.667, 46 340.465 C 46 342.906, 46.591 344.246, 48 345 C 49.397 345.748, 50 347.094, 50 349.466 C 50 352.225, 50.421 352.921, 52.250 353.180 C 54.120 353.446, 54.552 354.217, 54.807 357.750 C 55.017 360.644, 55.575 362, 56.557 362 C 57.351 362, 58 362.686, 58 363.525 C 58 364.363, 59.125 365.477, 60.500 366 C 62.514 366.766, 63 367.636, 63 370.475 C 63 373.034, 63.437 374, 64.594 374 C 65.470 374, 66.423 374.900, 66.710 376 C 67.011 377.149, 68.074 378, 69.210 378 C 70.314 378, 71.408 378.842, 71.686 379.908 C 71.960 380.957, 73.043 382.040, 74.092 382.314 C 75.523 382.688, 76 383.712, 76 386.406 C 76 389.387, 76.357 390, 78.094 390 C 79.312 390, 80.396 390.797, 80.686 391.908 C 80.960 392.957, 82.043 394.040, 83.092 394.314 C 84.142 394.588, 85 395.530, 85 396.406 C 85 397.333, 85.837 398, 87 398 C 88.363 398, 89 398.667, 89 400.094 C 89 401.346, 89.803 402.397, 91 402.710 C 92.100 402.998, 93 403.867, 93 404.641 C 93 405.416, 94.125 406.477, 95.500 407 C 96.875 407.523, 98 408.637, 98 409.475 C 98 410.551, 99.030 411, 101.500 411 C 103.970 411, 105 411.449, 105 412.525 C 105 413.363, 106.125 414.477, 107.500 415 C 108.875 415.523, 110 416.584, 110 417.359 C 110 418.133, 110.900 419.002, 112 419.290 C 113.100 419.577, 114 420.530, 114 421.406 C 114 422.333, 114.837 423, 116 423 C 117.333 423, 118 423.667, 118 425 C 118 426.657, 118.667 427, 121.892 427 C 125.209 427, 125.876 427.369, 126.411 429.500 C 126.934 431.583, 127.634 432, 130.613 432 C 133.346 432, 134.310 432.471, 134.710 434 C 135 435.107, 136.074 436, 137.117 436 C 138.333 436, 139 436.708, 139 438 C 139 439.615, 139.667 440, 142.465 440 C 144.906 440, 146.246 440.591, 147 442 C 147.763 443.425, 149.094 444, 151.629 444 C 154.318 444, 155.312 444.477, 155.698 445.953 C 156.116 447.551, 157.236 447.960, 161.854 448.203 C 166.598 448.453, 167.658 448.860, 168.487 450.750 C 169.347 452.709, 170.220 453, 175.237 453 C 180.333 453, 181 453.231, 181 455 C 181 456.781, 181.667 457, 187.094 457 C 192.346 457, 193.259 457.276, 193.710 459 C 194.163 460.733, 195.118 461.013, 200.867 461.097 C 204.515 461.150, 209.102 461.122, 211.061 461.034 C 213.971 460.904, 214.830 461.332, 215.764 463.381 L 216.906 465.888 243.944 465.967 C 258.814 466.011, 272.278 466.306, 273.864 466.623 C 276.139 467.078, 277.095 466.704, 278.399 464.850 C 279.969 462.616, 280.543 462.513, 290.025 462.767 C 299.450 463.020, 300 462.923, 300 461.017 C 300 459.221, 300.650 459, 305.933 459 C 310.987 459, 311.959 458.704, 312.500 457 C 313.039 455.302, 314.013 455, 318.951 455 C 324.017 455, 324.837 454.730, 325.316 452.901 C 325.799 451.052, 326.346 450.883, 329.890 451.481 C 334.639 452.284, 338 451.435, 338 449.433 C 338 448.516, 339.052 448, 340.918 448 C 344.845 448, 347 447.076, 347 445.393 C 347 444.470, 348.170 444, 350.465 444 C 352.906 444, 354.246 443.409, 355 442 C 355.589 440.900, 356.902 440, 357.919 440 C 358.935 440, 360.002 439.100, 360.290 438 C 360.691 436.465, 361.654 436, 364.431 436 C 367.371 436, 368.228 435.531, 369 433.500 C 369.757 431.508, 370.643 431, 373.359 431 C 375.926 431, 376.896 430.506, 377.290 429 C 377.603 427.803, 378.654 427, 379.906 427 C 381.058 427, 382 426.377, 382 425.617 C 382 424.856, 382.900 423.998, 384 423.710 C 385.100 423.423, 386 422.470, 386 421.594 C 386 420.643, 386.845 420, 388.094 420 C 389.346 420, 390.397 419.197, 390.710 418 C 391.120 416.433, 392.074 416, 395.117 416 C 398.003 416, 399 415.591, 399 414.406 C 399 413.530, 399.900 412.577, 401 412.290 C 402.100 412.002, 403 411.102, 403 410.290 C 403 409.477, 403.900 408.577, 405 408.290 C 406.100 408.002, 407 407.133, 407 406.359 C 407 405.584, 408.125 404.523, 409.500 404 C 410.875 403.477, 412 402.416, 412 401.641 C 412 400.867, 412.900 399.998, 414 399.710 C 415.100 399.423, 416 398.470, 416 397.594 C 416 396.667, 416.837 396, 418 396 C 419.629 396, 420 395.333, 420 392.406 C 420 389.712, 420.477 388.688, 421.908 388.314 C 422.957 388.040, 424.040 386.957, 424.314 385.908 C 424.604 384.797, 425.688 384, 426.906 384 C 428.155 384, 429 383.357, 429 382.406 C 429 381.530, 429.900 380.577, 431 380.290 C 432.503 379.897, 433 378.926, 433 376.383 C 433 374.523, 433.494 373, 434.099 373 C 435.798 373, 441.260 366.741, 441.516 364.500 C 441.642 363.400, 441.802 361.938, 441.872 361.250 C 441.943 360.563, 442.900 360, 444 360 C 445.629 360, 446 359.333, 446 356.406 C 446 353.654, 446.468 352.690, 448 352.290 C 449.269 351.958, 450 350.926, 450 349.465 C 450 345.851, 451.052 344, 453.107 344 C 454.613 344, 455 343.266, 455 340.406 C 455 337.654, 455.468 336.690, 457 336.290 C 458.559 335.882, 459 334.926, 459 331.953 C 459 328.759, 459.366 328.087, 461.250 327.820 C 463.243 327.536, 463.534 326.844, 463.800 321.750 C 464.057 316.818, 464.377 316, 466.050 316 C 467.812 316, 468 315.269, 468 308.406 C 468 301.654, 468.222 300.755, 470 300.290 C 471.823 299.813, 472 298.926, 472 290.290 C 472 281.707, 472.186 280.764, 473.967 280.298 C 475.049 280.016, 476.137 279.045, 476.386 278.142 C 476.635 277.239, 477.143 262.663, 477.516 245.750 L 478.193 215 476.096 215 C 474.108 215, 474 214.486, 474 205 C 474 195.667, 473.867 195, 472 195 C 469.762 195, 469.803 195.193, 469.988 185.383 C 470.109 178.977, 469.917 178.211, 468.061 177.726 C 466.284 177.262, 466 176.403, 466 171.500 C 466 166.654, 465.704 165.735, 464 165.290 C 462.484 164.893, 462 163.926, 462 161.290 C 462 158.654, 461.516 157.686, 460 157.290 C 458.441 156.882, 458 155.926, 458 152.953 C 458 149.759, 457.634 149.087, 455.750 148.820 C 454.512 148.644, 453.444 147.938, 453.375 147.250 C 453.306 146.563, 453.194 144.927, 453.125 143.617 C 453.048 142.139, 452.240 141.034, 451 140.710 C 449.468 140.310, 449 139.346, 449 136.594 C 449 133.667, 448.629 133, 447 133 C 445.333 133, 445 132.333, 445 129 C 445 126.007, 444.599 125, 443.406 125 C 442.530 125, 441.577 124.100, 441.290 123 C 441 121.893, 439.926 121, 438.883 121 C 437.346 121, 437 120.249, 437 116.906 C 437 113.720, 436.577 112.702, 435.092 112.314 C 434.043 112.040, 432.960 110.957, 432.686 109.908 C 432.396 108.797, 431.312 108, 430.094 108 C 428.710 108, 428 107.361, 428 106.117 C 428 105.074, 427.107 104, 426 103.710 C 424.468 103.310, 424 102.346, 424 99.594 C 424 96.667, 423.629 96, 422 96 C 420.900 96, 420 95.341, 420 94.535 C 420 93.730, 419.100 92.589, 418 92 C 416.900 91.411, 416 90.270, 416 89.465 C 416 88.659, 415.100 88, 414 88 C 412.533 88, 412 87.333, 412 85.500 C 412 83.667, 411.467 83, 410 83 C 408.667 83, 408 82.333, 408 81 C 408 79.837, 407.333 79, 406.406 79 C 405.530 79, 404.577 78.100, 404.290 77 C 403.880 75.433, 402.926 75, 399.883 75 C 397.070 75, 396 74.580, 396 73.475 C 396 72.637, 394.875 71.523, 393.500 71 C 392.125 70.477, 391 69.416, 391 68.641 C 391 67.867, 390.100 66.998, 389 66.710 C 387.900 66.423, 387 65.470, 387 64.594 C 387 63.717, 386.314 63, 385.475 63 C 384.637 63, 383.512 61.847, 382.976 60.437 C 382.389 58.893, 381.306 57.945, 380.251 58.052 C 376.525 58.431, 375.112 57.927, 374.500 56 C 374.007 54.447, 372.987 54, 369.933 54 C 366.667 54, 366 53.661, 366 52 C 366 50.667, 365.333 50, 364 50 C 362.667 50, 362 49.333, 362 48 C 362 46.378, 361.333 46, 358.475 46 C 355.636 46, 354.766 45.514, 354 43.500 C 353.179 41.342, 352.431 41, 348.525 41 C 344.614 41, 344 40.719, 344 38.927 C 344 37.044, 343.484 36.879, 338.342 37.117 C 333.312 37.350, 332.595 37.136, 331.874 35.190 C 331.173 33.292, 330.314 33, 325.439 33 C 320.654 33, 319.735 32.701, 319.290 31 C 318.848 29.311, 317.926 29, 313.359 29 C 308.477 29, 307.856 28.751, 306.978 26.441 C 306.017 23.915, 305.880 23.885, 296.252 24.100 C 287.125 24.304, 286.437 24.179, 285.513 22.159 C 284.609 20.182, 283.765 19.998, 275.513 19.980 C 270.556 19.969, 256.781 19.681, 244.903 19.340 C 223.428 18.723, 223.303 18.732, 222.747 20.860 M 282.674 31.750 C 282.370 33.263, 281.806 35.850, 281.420 37.500 L 280.718 40.500 283.859 37.259 C 287.467 33.536, 288.156 29, 285.113 29 C 283.856 29, 283.043 29.917, 282.674 31.750 M 286.667 65.667 C 286.300 66.033, 286 66.798, 286 67.367 C 286 67.993, 286.466 67.934, 287.183 67.217 C 287.834 66.566, 288.134 65.801, 287.850 65.517 C 287.566 65.233, 287.033 65.300, 286.667 65.667 M 378.667 68.667 C 378.300 69.033, 378.014 70.271, 378.032 71.417 C 378.063 73.464, 378.089 73.466, 379.532 71.559 C 380.339 70.491, 381 69.254, 381 68.809 C 381 67.830, 379.589 67.744, 378.667 68.667 M 284 77.917 C 284 79.145, 284.646 80, 285.573 80 C 286.505 80, 287.015 79.320, 286.823 78.333 C 286.337 75.824, 284 75.480, 284 77.917 M 374 80 C 374 80.550, 374.477 81, 375.059 81 C 375.641 81, 375.840 80.550, 375.500 80 C 375.160 79.450, 374.684 79, 374.441 79 C 374.198 79, 374 79.450, 374 80 M 392.500 102 C 392.840 102.550, 393.316 103, 393.559 103 C 393.802 103, 394 102.550, 394 102 C 394 101.450, 393.523 101, 392.941 101 C 392.359 101, 392.160 101.450, 392.500 102 M 131.290 121 C 131.002 122.100, 129.972 123, 129 123 C 128.028 123, 126.998 123.900, 126.710 125 C 126.423 126.100, 125.539 127, 124.747 127 C 122.985 127, 122 142.128, 122 169.182 L 122 187.050 119.500 188 C 118.125 188.523, 117 189.637, 117 190.475 C 117 191.333, 116.126 192, 115 192 C 113.133 192, 113 192.667, 113 202 C 113 211.333, 113.133 212, 115 212 C 116.333 212, 117 212.667, 117 214 C 117 215.309, 117.667 216, 118.930 216 C 120.171 216, 120.975 216.804, 121.180 218.250 C 121.485 220.393, 121.984 220.514, 131.672 220.784 C 140.971 221.044, 141.896 220.903, 142.455 219.142 C 142.791 218.083, 143.951 216.984, 145.033 216.702 C 146.115 216.419, 147 215.470, 147 214.594 C 147 213.667, 147.837 213, 149 213 C 150.866 213, 151 212.333, 151 203.067 C 151 194.202, 150.797 193.070, 149.108 192.534 C 148.067 192.204, 146.984 191.049, 146.702 189.967 C 146.419 188.885, 145.433 188, 144.511 188 C 142.980 188, 142.871 186.067, 143.252 165.750 C 143.657 144.196, 143.734 143.490, 145.733 143.194 C 146.868 143.025, 148.032 141.986, 148.320 140.885 C 148.788 139.094, 149.461 138.934, 154.672 139.375 C 157.877 139.647, 161.512 139.898, 162.750 139.934 C 164.311 139.980, 165 140.612, 165 142 C 165 143.371, 165.667 144, 167.121 144 C 169.235 144, 169.240 144.075, 168.647 165.250 C 168.319 176.938, 168.039 195.162, 168.025 205.750 C 168.001 224.325, 167.930 225, 166 225 C 164.667 225, 164 225.667, 164 227 C 164 228.333, 163.333 229, 162 229 C 160.874 229, 160 229.667, 160 230.525 C 160 231.363, 158.875 232.477, 157.500 233 C 156.125 233.523, 155 234.637, 155 235.475 C 155 236.333, 154.126 237, 153 237 C 151.667 237, 151 237.667, 151 239 C 151 240.333, 150.333 241, 149 241 C 147.667 241, 147 241.667, 147 243 C 147 244.363, 146.333 245, 144.906 245 C 143.654 245, 142.603 245.803, 142.290 247 C 142 248.107, 140.926 249, 139.883 249 C 138.667 249, 138 249.708, 138 251 C 138 252.333, 137.333 253, 136 253 C 134.900 253, 134 253.434, 134 253.966 C 134 255.535, 128.200 261, 126.534 261 C 125.690 261, 125 261.546, 125 262.212 C 125 262.879, 123.917 264.342, 122.592 265.462 L 120.185 267.500 119.562 312.836 C 118.945 357.813, 118.956 358.176, 120.970 358.702 C 122.104 358.999, 123 360.065, 123 361.117 C 123 362.333, 123.708 363, 125 363 C 126.296 363, 127 363.667, 127 364.893 C 127 365.934, 127.605 367.018, 128.345 367.302 C 129.085 367.586, 140.560 367.875, 153.845 367.944 C 175.116 368.055, 178 367.884, 178 366.510 C 178 365.652, 179.125 364.523, 180.500 364 C 181.875 363.477, 183 362.363, 183 361.525 C 183 360.667, 183.874 360, 185 360 C 186.752 360, 187.017 359.287, 187.140 354.250 C 187.217 351.087, 187.340 346.250, 187.413 343.500 C 187.486 340.750, 187.648 326.913, 187.773 312.750 C 187.993 287.742, 188.058 287, 190 287 C 191.126 287, 192 286.333, 192 285.475 C 192 284.637, 193.125 283.523, 194.500 283 C 195.875 282.477, 197 281.363, 197 280.525 C 197 279.686, 197.717 279, 198.594 279 C 199.470 279, 200.423 278.100, 200.710 277 C 201 275.893, 202.074 275, 203.117 275 C 204.333 275, 205 274.292, 205 273 C 205 271.559, 205.667 271, 207.383 271 C 208.926 271, 209.951 270.294, 210.290 269 C 210.577 267.900, 211.500 267, 212.339 267 C 213.178 267, 214.151 266.100, 214.500 265 C 214.849 263.900, 215.952 263, 216.951 263 C 217.950 263, 219.002 262.100, 219.290 261 C 219.577 259.900, 220.530 259, 221.406 259 C 222.333 259, 223 258.163, 223 257 C 223 255.637, 223.667 255, 225.094 255 C 226.346 255, 227.397 254.197, 227.710 253 C 227.998 251.900, 229.049 251, 230.047 251 C 231.167 251, 231.983 250.139, 232.180 248.750 C 232.386 247.304, 233.304 246.386, 234.750 246.180 C 235.988 246.005, 237 245.217, 237 244.430 C 237 243.644, 237.645 243, 238.433 243 C 239.221 243, 240.151 242.100, 240.500 241 C 240.849 239.900, 242.004 239, 243.067 239 C 244.360 239, 245 238.309, 245 236.913 C 245 234.943, 245.455 234.844, 253.146 235.135 C 260.787 235.425, 261.342 235.307, 262.114 233.222 C 262.777 231.429, 263.715 231, 266.968 231 C 270.898 231, 271 230.913, 271 227.550 C 271 225.356, 271.613 223.756, 272.683 223.157 C 273.849 222.505, 274.462 220.615, 274.676 217.012 C 274.941 212.560, 274.706 211.736, 273.047 211.302 C 271.658 210.939, 271.022 209.762, 270.804 207.148 C 270.516 203.698, 270.291 203.483, 266.639 203.183 C 263.823 202.952, 262.641 202.343, 262.272 200.933 C 261.861 199.360, 260.812 198.979, 256.633 198.886 C 253.810 198.823, 250.214 198.622, 248.643 198.438 C 246.487 198.185, 245.661 198.582, 245.276 200.052 C 244.882 201.561, 243.891 202, 240.883 202 C 237.107 202, 237 202.097, 237 205.525 C 237 208.364, 236.514 209.234, 234.500 210 C 232.255 210.854, 232 211.507, 232 216.408 C 232 220.987, 231.678 221.967, 230 222.500 C 228.900 222.849, 228 223.779, 228 224.567 C 228 225.355, 227.100 226, 226 226 C 224.837 226, 224 226.667, 224 227.594 C 224 228.470, 223.100 229.423, 222 229.710 C 220.893 230, 220 231.074, 220 232.117 C 220 233.459, 219.282 234, 217.500 234 C 215.718 234, 215 234.541, 215 235.883 C 215 236.926, 214.107 238, 213 238.290 C 211.900 238.577, 211 239.530, 211 240.406 C 211 241.428, 210.127 242, 208.567 242 C 207.013 242, 205.906 242.722, 205.500 244 C 205.151 245.100, 204.178 246, 203.339 246 C 202.500 246, 201.577 246.900, 201.290 248 C 201.002 249.100, 200.102 250, 199.290 250 C 198.477 250, 197.577 250.900, 197.290 252 C 197 253.107, 195.926 254, 194.883 254 C 193.848 254, 193 254.472, 193 255.050 C 193 256.489, 186.570 263, 185.149 263 C 184.517 263, 184 263.645, 184 264.433 C 184 265.221, 183.100 266.151, 182 266.500 C 180.900 266.849, 180 267.779, 180 268.567 C 180 269.355, 179.058 270, 177.906 270 C 176.654 270, 175.603 270.803, 175.290 272 C 175.002 273.100, 174.102 274, 173.290 274 C 172.477 274, 171.577 274.900, 171.290 276 C 171.002 277.100, 169.967 278, 168.990 278 C 168.013 278, 166.941 278.712, 166.607 279.582 C 166.273 280.452, 166 295.077, 166 312.082 C 166 342.333, 165.957 343, 164 343 C 162.667 343, 162 343.667, 162 345 C 162 346.843, 161.333 347, 153.500 347 C 145.667 347, 145 346.843, 145 345 C 145 343.696, 144.333 343, 143.083 343 C 142.029 343, 141.017 342.552, 140.833 342.005 C 140.650 341.457, 140.624 326.142, 140.777 307.970 L 141.053 274.930 143.527 273.990 C 144.887 273.473, 146 272.363, 146 271.525 C 146 270.667, 146.874 270, 148 270 C 149.333 270, 150 269.333, 150 268 C 150 266.637, 150.667 266, 152.094 266 C 153.346 266, 154.397 265.197, 154.710 264 C 155 262.893, 156.074 262, 157.117 262 C 158.311 262, 159 261.293, 159 260.070 C 159 258.829, 159.804 258.025, 161.250 257.820 C 162.696 257.614, 163.614 256.696, 163.820 255.250 C 164.025 253.804, 164.829 253, 166.070 253 C 167.131 253, 168 252.325, 168 251.500 C 168 250.675, 168.686 250, 169.525 250 C 170.363 250, 171.477 248.875, 172 247.500 C 172.523 246.125, 173.584 245, 174.359 245 C 175.133 245, 176.003 244.098, 176.291 242.996 C 176.650 241.624, 177.336 241.192, 178.467 241.626 C 179.616 242.067, 180.289 241.611, 180.676 240.130 C 180.983 238.958, 181.870 238, 182.649 238 C 183.427 238, 184.438 236.990, 184.895 235.755 C 185.351 234.521, 186.570 233.508, 187.603 233.505 C 189.316 233.500, 189.486 232.579, 189.549 223 C 189.587 217.225, 189.745 193.600, 189.899 170.500 C 190.180 128.560, 190.178 128.500, 188.090 128.180 C 186.802 127.984, 186 127.120, 186 125.930 C 186 124.667, 185.309 124, 184 124 C 182.723 124, 182 123.333, 182 122.156 C 182 120.480, 180.697 120.252, 167.750 119.659 C 159.912 119.301, 148.620 119.006, 142.656 119.004 C 132.652 119, 131.772 119.155, 131.290 121 M 330 121 C 330 122.292, 329.333 123, 328.117 123 C 327.074 123, 326 123.893, 325.710 125 C 325.423 126.100, 324.470 127, 323.594 127 C 322.269 127, 321.991 128.391, 321.946 135.250 C 321.916 139.787, 321.766 146.425, 321.612 150 C 321.458 153.575, 321.258 166.105, 321.166 177.844 C 321.010 197.926, 320.887 199.217, 319.092 199.686 C 318.043 199.960, 316.960 201.043, 316.686 202.092 C 316.396 203.203, 315.312 204, 314.094 204 C 312.899 204, 312 204.644, 312 205.500 C 312 206.325, 311.283 207, 310.406 207 C 309.530 207, 308.577 207.900, 308.290 209 C 308.002 210.100, 307.133 211, 306.359 211 C 305.584 211, 304.523 212.125, 304 213.500 C 303.477 214.875, 302.363 216, 301.525 216 C 300.686 216, 300 216.675, 300 217.500 C 300 218.333, 299.111 219, 298 219 C 296.705 219, 296 219.667, 296 220.892 C 296 222.075, 295.064 223.018, 293.500 223.411 C 292.125 223.756, 291 224.652, 291 225.402 C 291 226.153, 290.100 227.002, 289 227.290 C 287.900 227.577, 287 228.530, 287 229.406 C 287 230.333, 286.163 231, 285 231 C 283.708 231, 283 231.667, 283 232.883 C 283 233.926, 282.107 235, 281 235.290 C 279.900 235.577, 279 236.530, 279 237.406 C 279 238.357, 278.155 239, 276.906 239 C 275.688 239, 274.604 239.797, 274.314 240.908 C 274.040 241.957, 272.957 243.040, 271.908 243.314 C 270.858 243.588, 270 244.530, 270 245.406 C 270 246.300, 269.173 247, 268.117 247 C 267.074 247, 266 247.893, 265.710 249 C 265.242 250.790, 264.346 251, 257.161 251 C 250.013 251, 249.065 251.219, 248.500 253 C 248.007 254.553, 246.987 255, 243.933 255 C 240.011 255, 240 255.011, 240 259 C 240 261.816, 239.573 263, 238.559 263 C 236.600 263, 236.300 263.673, 235.521 269.824 C 234.908 274.663, 235.035 275.197, 236.923 275.690 C 238.563 276.119, 239 277.028, 239 280.010 C 239 284.169, 240.146 285.077, 244.374 284.269 C 246.534 283.856, 247.233 284.173, 247.646 285.755 C 248.217 287.938, 252.106 288.969, 259.844 288.989 C 263.351 288.998, 264.288 288.615, 264.710 287 C 265.120 285.433, 266.074 285, 269.117 285 C 272.963 285, 273 284.962, 273 281.108 C 273 277.791, 273.369 277.124, 275.500 276.589 C 277.793 276.014, 278 275.500, 278 270.387 C 278 265.654, 278.302 264.734, 280 264.290 C 281.100 264.002, 282 263.153, 282 262.402 C 282 261.652, 283.125 260.756, 284.500 260.411 C 286.064 260.018, 287 259.075, 287 257.892 C 287 256.827, 287.697 256, 288.594 256 C 289.470 256, 290.423 255.100, 290.710 254 C 291 252.893, 292.074 252, 293.117 252 C 294.152 252, 295 251.314, 295 250.475 C 295 249.637, 296.125 248.523, 297.500 248 C 298.875 247.477, 300 246.363, 300 245.525 C 300 244.667, 300.874 244, 302 244 C 303.163 244, 304 243.333, 304 242.406 C 304 241.530, 304.900 240.577, 306 240.290 C 307.107 240, 308 238.926, 308 237.883 C 308 236.667, 308.708 236, 310 236 C 311.333 236, 312 235.333, 312 234 C 312 232.637, 312.667 232, 314.094 232 C 315.312 232, 316.396 231.203, 316.686 230.092 C 316.960 229.043, 318.043 227.960, 319.092 227.686 C 320.142 227.412, 321 226.470, 321 225.594 C 321 224.667, 321.837 224, 323 224 C 324.163 224, 325 223.333, 325 222.406 C 325 221.530, 325.858 220.588, 326.908 220.314 C 327.957 220.040, 329.040 218.957, 329.314 217.908 C 329.604 216.797, 330.688 216, 331.906 216 C 333.333 216, 334 215.363, 334 214 C 334 212.900, 334.659 212, 335.465 212 C 336.270 212, 337.411 211.100, 338 210 C 338.589 208.900, 339.660 208, 340.380 208 C 341.943 208, 342.991 189.437, 342.996 161.656 C 343 144.944, 343.121 143.781, 344.908 143.314 C 345.957 143.040, 347.044 141.938, 347.325 140.867 C 347.782 139.116, 348.668 138.936, 356.046 139.094 C 362.978 139.242, 364.330 139.546, 364.721 141.042 C 364.976 142.017, 366.043 143.040, 367.092 143.314 C 368.884 143.783, 369 144.960, 369 162.747 C 369 173.161, 368.702 188.565, 368.338 196.977 C 367.745 210.666, 367.483 212.322, 365.838 212.753 C 364.827 213.017, 364 213.898, 364 214.710 C 364 215.523, 363.100 216.423, 362 216.710 C 360.900 216.998, 360 217.825, 360 218.549 C 360 219.273, 359.100 220.151, 357.999 220.500 C 356.898 220.850, 355.533 222.005, 354.964 223.068 C 354.395 224.130, 353.270 225, 352.465 225 C 351.659 225, 351 225.460, 351 226.021 C 351 226.583, 349.875 227.555, 348.500 228.182 C 347.125 228.808, 346 229.871, 346 230.544 C 346 231.216, 345.100 232.002, 344 232.290 C 342.900 232.577, 342 233.530, 342 234.406 C 342 235.357, 341.155 236, 339.906 236 C 338.688 236, 337.604 236.797, 337.314 237.908 C 337.040 238.957, 335.957 240.040, 334.908 240.314 C 333.858 240.588, 333 241.530, 333 242.406 C 333 243.283, 332.341 244, 331.535 244 C 330.730 244, 329.589 244.900, 329 246 C 328.411 247.100, 327.270 248, 326.465 248 C 325.659 248, 325 248.869, 325 249.930 C 325 251.171, 324.196 251.975, 322.750 252.180 C 320.659 252.477, 320.459 253.134, 319.916 261.500 C 319.596 266.450, 319.249 290.188, 319.147 314.250 C 318.963 357.537, 318.982 358, 320.980 358 C 322.292 358, 323 358.661, 323 359.883 C 323 360.926, 323.893 362, 325 362.290 C 326.197 362.603, 327 363.654, 327 364.906 C 327 366.927, 327.468 367, 340.343 367 C 347.682 367, 359.091 367.291, 365.698 367.646 L 377.710 368.292 378.374 365.646 C 378.813 363.899, 379.711 363, 381.019 363 C 382.165 363, 383 362.328, 383 361.406 C 383 360.530, 383.900 359.577, 385 359.290 C 387.103 358.740, 387.033 359.196, 387.434 343.500 C 387.518 340.200, 387.680 328.837, 387.794 318.250 C 387.988 300.137, 388.111 299, 389.883 299 C 390.926 299, 392 298.107, 392.290 297 C 392.577 295.900, 393.530 295, 394.406 295 C 395.754 295, 396 293.518, 396 285.410 C 396 276.324, 395.856 275.667, 393.253 272.910 C 391.743 271.310, 389.943 270, 389.253 270 C 388.564 270, 388 269.100, 388 268 C 388 266.134, 387.333 266, 378.035 266 C 369.094 266, 367.960 266.205, 367 268 C 366.411 269.100, 365.323 270, 364.581 270 C 363.840 270, 362.998 270.900, 362.710 272 C 362.423 273.100, 361.470 274, 360.594 274 C 358.785 274, 358.868 273.557, 358.499 285.218 C 358.258 292.842, 358.447 294.007, 360.004 294.501 C 360.983 294.812, 362.016 295.951, 362.298 297.033 C 362.607 298.213, 363.666 299, 364.945 299 C 367.049 299, 367.075 299.241, 366.953 317.750 C 366.813 338.978, 366.441 342.072, 363.951 342.723 C 362.980 342.977, 361.959 344.048, 361.684 345.102 C 361.238 346.807, 360.279 347.006, 353.025 346.900 C 345.394 346.789, 344.809 346.627, 343.958 344.391 C 343.459 343.076, 342.384 342, 341.570 342 C 340.304 342, 340.153 339.444, 340.522 324.250 C 340.759 314.488, 340.964 296.488, 340.977 284.250 C 340.999 262.746, 341.066 262, 342.981 262 C 344.260 262, 345.184 261.114, 345.589 259.500 C 345.982 257.936, 346.925 257, 348.108 257 C 349.333 257, 350 256.295, 350 255 C 350 253.533, 350.667 253, 352.500 253 C 354.333 253, 355 252.467, 355 251 C 355 249.637, 355.667 249, 357.094 249 C 358.346 249, 359.397 248.197, 359.710 247 C 359.998 245.900, 360.898 245, 361.710 245 C 362.523 245, 363.423 244.100, 363.710 243 C 364 241.893, 365.074 241, 366.117 241 C 367.333 241, 368 240.292, 368 239 C 368 237.667, 368.667 237, 370 237 C 371.333 237, 372 236.333, 372 235 C 372 233.637, 372.667 233, 374.094 233 C 375.312 233, 376.396 232.203, 376.686 231.092 C 376.960 230.043, 378.043 228.960, 379.092 228.686 C 380.142 228.412, 381 227.470, 381 226.594 C 381 225.667, 381.837 225, 383 225 C 384.333 225, 385 224.333, 385 223 C 385 221.667, 385.667 221, 387 221 C 388.871 221, 389.005 220.309, 389.072 210.250 C 389.112 204.338, 389.267 197.700, 389.417 195.500 C 389.567 193.300, 389.808 177.325, 389.953 160 C 390.183 132.604, 390.021 128.460, 388.711 128.196 C 387.883 128.029, 386.976 127.017, 386.696 125.946 C 386.416 124.876, 385.459 124, 384.569 124 C 383.679 124, 382.523 122.875, 382 121.500 L 381.050 119 355.525 119 C 330.667 119, 330 119.052, 330 121 M 301.667 124.667 C 301.300 125.033, 301 125.798, 301 126.367 C 301 126.993, 301.466 126.934, 302.183 126.217 C 302.834 125.566, 303.134 124.801, 302.850 124.517 C 302.566 124.233, 302.033 124.300, 301.667 124.667 M 204.500 149 C 204.160 149.550, 204.359 150, 204.941 150 C 205.523 150, 206 149.550, 206 149 C 206 148.450, 205.802 148, 205.559 148 C 205.316 148, 204.840 148.450, 204.500 149 M 111 169 C 111 170.100, 111.633 171, 112.406 171 C 113.320 171, 113.630 170.300, 113.290 169 C 113.002 167.900, 112.369 167, 111.883 167 C 111.398 167, 111 167.900, 111 169 M 224 188.441 C 224 189.234, 224.450 190.160, 225 190.500 C 225.550 190.840, 226 190.191, 226 189.059 C 226 187.927, 225.550 187, 225 187 C 224.450 187, 224 187.648, 224 188.441 M 292.527 200.044 C 292.882 200.618, 292.652 201.714, 292.017 202.480 C 291.165 203.506, 291.151 204.414, 291.966 205.936 C 293.243 208.322, 293.442 208.369, 296.160 206.915 C 298.173 205.837, 298.171 205.811, 295.870 203.362 C 293.911 201.276, 293.780 200.750, 295.026 199.963 C 296.186 199.229, 296.008 199.027, 294.191 199.015 C 292.839 199.006, 292.149 199.433, 292.527 200.044 M 390.543 230.931 C 390.226 231.443, 390.425 232.144, 390.984 232.490 C 391.543 232.835, 392 232.416, 392 231.559 C 392 229.802, 391.400 229.544, 390.543 230.931 M 389 389.059 C 389 389.641, 389.450 389.840, 390 389.500 C 390.550 389.160, 391 388.684, 391 388.441 C 391 388.198, 390.550 388, 390 388 C 389.450 388, 389 388.477, 389 389.059 M 289 392.559 C 289 393.416, 289.457 393.835, 290.016 393.490 C 290.575 393.144, 290.774 392.443, 290.457 391.931 C 289.600 390.544, 289 390.802, 289 392.559 M 370.556 394.910 C 370.247 395.410, 370.253 396.495, 370.569 397.320 C 370.886 398.144, 370.437 400.188, 369.572 401.860 C 367.605 405.665, 367.586 407, 369.500 407 C 370.433 407, 371 407.944, 371 409.500 C 371 411.961, 372.471 412.676, 374.569 411.235 C 375.978 410.266, 375.536 401.364, 373.874 397.250 C 372.542 393.951, 371.571 393.267, 370.556 394.910 M 256 427 C 256 427.550, 256.675 428, 257.500 428 C 258.325 428, 259 427.550, 259 427 C 259 426.450, 258.325 426, 257.500 426 C 256.675 426, 256 426.450, 256 427 M 269.469 448.050 C 268.519 449.588, 269.820 450.580, 271.104 449.296 C 271.822 448.578, 271.839 448.019, 271.156 447.597 C 270.596 447.251, 269.837 447.455, 269.469 448.050 M 260 451.941 C 260 452.459, 260.450 453.160, 261 453.500 C 261.550 453.840, 262 453.416, 262 452.559 C 262 451.702, 261.550 451, 261 451 C 260.450 451, 260 451.423, 260 451.941" stroke="none" fill="#ffffff" fill-rule="evenodd"/>
</svg>