<svg xmlns="http://www.w3.org/2000/svg" width="800" height="222" viewBox="0 0 800 222" version="1.1">
	<path d="M 25 87 L 25 128 30 128 L 35 128 35 93.550 L 35 59.100 50.250 58.800 C 58.638 58.635, 66.063 58.661, 66.750 58.857 C 67.719 59.134, 68 66.950, 68 93.607 L 68 128 73 128 L 78 128 78 87 L 78 46 51.500 46 L 25 46 25 87 M 304.599 47.211 C 304.396 47.920, 302.793 64.700, 301.037 84.500 C 299.280 104.300, 297.596 122.188, 297.294 124.250 L 296.744 128 303.659 128 L 310.573 128 313.931 96.750 C 315.778 79.563, 317.568 65.179, 317.908 64.786 C 318.395 64.226, 327.266 94.923, 335.093 124.250 C 335.960 127.497, 336.485 128, 339.008 128 C 341.599 128, 342.045 127.527, 343.018 123.750 C 343.620 121.412, 345.855 112.975, 347.984 105 C 350.113 97.025, 353.288 84.875, 355.040 78 C 356.792 71.125, 358.526 65.171, 358.893 64.769 C 359.261 64.367, 361.052 77.642, 362.873 94.269 C 364.695 110.896, 366.399 125.287, 366.660 126.250 C 367.058 127.717, 368.337 128, 374.579 128 L 382.024 128 381.502 124.250 C 380.991 120.576, 379.430 103.945, 376.504 71 C 375.698 61.925, 374.778 52.587, 374.458 50.250 L 373.877 46 365.006 46 C 357.426 46, 356.057 46.255, 355.604 47.750 C 355.312 48.712, 351.662 63.882, 347.494 81.459 C 343.326 99.037, 339.731 113.602, 339.506 113.827 C 339.019 114.314, 339.518 116.224, 330.023 77.500 L 322.422 46.500 313.695 46.211 C 307.230 45.997, 304.872 46.256, 304.599 47.211 M 543 53 L 543 60 554.500 60 L 566 60 566 94 L 566 128 573.500 128 L 581 128 581 94 L 581 60 591.833 60 C 597.792 60, 602.854 59.814, 603.083 59.587 C 603.313 59.360, 603.349 56.210, 603.165 52.587 L 602.829 46 572.915 46 L 543 46 543 53 M 759 56.672 C 752.125 59.691, 743.556 63.414, 739.959 64.947 L 733.418 67.733 721.560 64.849 C 715.038 63.262, 709.497 62.170, 709.246 62.421 C 708.995 62.671, 710.515 64.367, 712.623 66.188 C 714.731 68.010, 720.463 73.069, 725.360 77.431 C 733.823 84.968, 734.378 85.291, 736.540 83.931 C 738.440 82.735, 766.016 58.877, 772.472 52.843 C 775.704 49.823, 772.573 50.713, 759 56.672 M 165.500 70.322 C 159.340 73.310, 155.798 76.990, 152.819 83.500 C 150.901 87.689, 150.527 90.202, 150.515 99 C 150.501 108.504, 150.767 110.043, 153.314 115.230 C 156.762 122.253, 161.776 126.564, 168.928 128.657 C 183.008 132.777, 197.169 126.183, 202.006 113.253 C 204.776 105.851, 204.766 92.121, 201.985 84.689 C 199.871 79.038, 194.570 72.899, 189.500 70.228 C 187.751 69.307, 183.165 68.492, 178.500 68.272 C 171.605 67.948, 169.809 68.232, 165.500 70.322 M 405.250 69.152 L 399 70.175 399 75.087 C 399 77.789, 399.393 80, 399.874 80 C 400.355 80, 402.718 79.284, 405.124 78.410 C 410.143 76.586, 423.133 76.258, 427.198 77.852 C 430.440 79.124, 432.718 82.422, 433.169 86.496 L 433.500 89.492 423.500 90.595 C 406.087 92.516, 400.757 94.520, 396.534 100.735 C 394.483 103.754, 394 105.668, 394 110.782 C 394 118.060, 395.439 121.422, 400.428 125.802 C 406.646 131.262, 416.929 131.355, 426.744 126.039 C 432.920 122.694, 434.168 122.383, 433.925 124.250 C 433.505 127.487, 434.130 128, 438.500 128 L 443 128 443 105.696 C 443 83.805, 442.953 83.298, 440.455 78.285 C 438.407 74.176, 436.990 72.744, 433.205 70.957 C 427.664 68.341, 415.147 67.533, 405.250 69.152 M 623.994 68.934 C 615.796 71.428, 608.334 78.811, 605.668 87.065 C 603.604 93.456, 603.519 104.016, 605.477 110.612 C 610.180 126.448, 628.492 133.462, 648.750 127.188 L 656 124.942 656 119.971 C 656 117.237, 655.826 115, 655.612 115 C 655.399 115, 652.206 116.412, 648.517 118.139 C 635.133 124.402, 621.492 121.395, 616.250 111.026 C 615.013 108.579, 614 105.097, 614 103.288 L 614 100 635.643 100 L 657.286 100 656.749 92.168 C 655.644 76.040, 647.244 67.869, 632 68.092 C 628.975 68.136, 625.372 68.515, 623.994 68.934 M 679.500 69.779 C 672.472 72.106, 665.646 79.100, 663.542 86.127 C 661.454 93.104, 661.420 105.738, 663.472 111.916 C 665.572 118.239, 670.809 124.213, 676.723 127.031 C 683.508 130.264, 694.275 130.296, 702.750 127.107 C 709.339 124.629, 710.029 123.438, 708.400 117.367 C 707.834 115.256, 707.767 115.265, 701.914 118.284 C 692.046 123.373, 681.434 122.181, 676.086 115.382 C 673.627 112.257, 671 103.998, 671 99.395 C 671 79.802, 685.896 70.742, 702.735 80.093 C 705.614 81.692, 708.225 83, 708.537 83 C 708.849 83, 708.969 80.638, 708.802 77.750 L 708.500 72.500 702 70.285 C 694.285 67.657, 686.442 67.480, 679.500 69.779 M 93 109.374 L 93 150 99.500 150 L 106 150 106 139.616 L 106 129.233 115.750 128.835 C 128.019 128.334, 133.497 125.984, 137.901 119.335 C 142.779 111.971, 144.237 106.174, 143.845 95.706 C 143.552 87.888, 143.048 85.595, 140.500 80.500 C 137.970 75.440, 136.726 74.117, 132.561 72.053 C 128.031 69.808, 126.187 69.570, 110.311 69.177 L 93 68.748 93 109.374 M 453 98.452 L 453 128 492.500 128 L 532 128 532 98.452 L 532 68.905 525.750 69.202 L 519.500 69.500 519.233 94.750 L 518.966 120 509 120 L 499.034 120 498.767 94.750 L 498.500 69.500 492.500 69.500 L 486.500 69.500 486.233 94.750 L 485.966 120 476.090 120 C 467.798 120, 466.111 119.733, 465.575 118.335 C 465.224 117.419, 464.983 106.056, 465.041 93.085 L 465.147 69.500 459.073 69.202 L 453 68.905 453 98.452 M 214.697 97.250 C 213.734 112.238, 212.958 125.534, 212.973 126.798 C 212.999 128.979, 213.317 129.080, 219.250 128.798 L 225.500 128.500 227.567 105 L 229.635 81.500 231.178 86.500 C 232.026 89.250, 235.111 99.732, 238.034 109.793 L 243.347 128.086 249.377 127.793 L 255.406 127.500 262.262 106 C 266.032 94.175, 269.389 83.825, 269.721 83 C 270.052 82.175, 271.300 91.657, 272.493 104.071 C 273.685 116.486, 274.989 127.173, 275.390 127.821 C 276.185 129.108, 286.627 129.484, 287.277 128.250 C 287.567 127.698, 283.514 71.774, 283.072 70.250 C 283.033 70.112, 278.985 70, 274.078 70 L 265.155 70 264.136 73.250 C 258.100 92.491, 249.809 118, 249.591 118 C 249.439 118, 246.230 107.200, 242.459 94 L 235.602 70 226.025 70 L 216.448 70 214.697 97.250 M 623.379 77.383 C 619.316 79.221, 615.057 84.875, 614.321 89.407 L 613.738 93 630.869 93 C 642.241 93, 648 92.645, 648 91.943 C 648 88.194, 645.384 81.784, 642.872 79.377 C 640.339 76.951, 639.004 76.521, 633.216 76.267 C 628.977 76.081, 625.349 76.492, 623.379 77.383 M 171.415 78.367 C 161.806 82.721, 158.132 99.633, 164.158 111.779 C 169.785 123.122, 185.073 123.463, 190.580 112.368 C 193.286 106.916, 193.314 91.138, 190.627 85.730 C 187.078 78.588, 178.328 75.235, 171.415 78.367 M 109.250 80.119 L 106 81.057 106 99.483 L 106 117.909 109.556 118.577 C 123.576 121.207, 131.928 113.901, 131.978 98.962 C 132.027 84.267, 122.433 76.312, 109.250 80.119 M 727 105.941 L 727 128 734.500 128 L 742 128 742 105.949 L 742 83.898 738.454 86.603 L 734.908 89.308 732.204 87.340 C 730.717 86.257, 728.938 85.037, 728.250 84.627 C 727.265 84.040, 727 88.563, 727 105.941 M 428.500 97.744 C 420.172 98.314, 411.386 100.216, 408.314 102.115 C 401.804 106.138, 401.779 116.283, 408.269 119.639 C 414.954 123.096, 431.675 118.751, 433.471 113.090 C 434.173 110.881, 433.795 97.924, 433.021 97.653 C 432.735 97.553, 430.700 97.594, 428.500 97.744 M 26.655 160.829 C 24.634 163.062, 24.557 164, 26.393 164 C 27.159 164, 28.045 163.325, 28.362 162.500 C 29.194 160.332, 33.732 160.630, 34.965 162.934 C 36.472 165.750, 36.311 166, 33 166 C 31.350 166, 30 166.450, 30 167 C 30 167.550, 31.350 168, 33 168 C 36.311 168, 36.472 168.250, 34.965 171.066 C 33.568 173.677, 29.377 173.573, 27.943 170.893 C 27.133 169.379, 26.509 169.091, 25.731 169.869 C 24.953 170.647, 25.163 171.523, 26.479 172.976 C 28.864 175.612, 34.106 175.645, 36.463 173.040 C 38.768 170.494, 38.735 163.469, 36.406 160.896 C 34.196 158.454, 28.838 158.417, 26.655 160.829 M 60.851 163.250 C 60.357 169.234, 60.951 175, 62.060 175 C 62.577 175, 63 173.425, 63 171.500 C 63 169.575, 63.465 168, 64.034 168 C 64.602 168, 65.997 169.575, 67.133 171.500 C 68.268 173.425, 69.813 175, 70.565 175 C 71.589 175, 71.413 174.119, 69.866 171.497 C 68.729 169.570, 67.399 167.747, 66.910 167.445 C 65.940 166.845, 68.567 162.229, 70.986 160.282 C 72.314 159.213, 72.281 159.060, 70.716 159.032 C 69.717 159.014, 68.024 160.540, 66.867 162.500 C 65.732 164.425, 64.397 166, 63.901 166 C 63.406 166, 63 164.425, 63 162.500 C 63 157.540, 61.272 158.143, 60.851 163.250 M 95.400 159.765 C 94.795 160.169, 93.782 161.483, 93.150 162.684 C 90.205 168.278, 93.680 175, 99.516 175 C 103.015 175, 106.560 171.715, 105.286 169.654 C 104.923 169.066, 104.041 169.559, 103.206 170.817 C 101.480 173.415, 96.524 173.808, 95.607 171.418 C 94.589 168.765, 94.929 163.471, 96.200 162.200 C 97.885 160.515, 101.949 160.704, 102.638 162.500 C 103.377 164.424, 105 164.448, 105 162.535 C 105 159.789, 98.271 157.848, 95.400 159.765 M 127 167 C 127 176.705, 128.789 177.720, 129.204 168.250 L 129.500 161.500 133.250 161.190 L 137 160.879 137 167.940 C 137 171.980, 137.428 175, 138 175 C 138.583 175, 139 171.667, 139 167 L 139 159 133 159 L 127 159 127 167 M 163.875 160.900 C 162.053 162.375, 161.553 163.724, 161.637 166.931 C 161.772 172.081, 164.230 175, 168.432 175 C 172.466 175, 176.640 172.235, 175.022 170.634 C 174.166 169.787, 173.626 169.943, 172.888 171.250 C 171.058 174.494, 164 172.946, 164 169.300 C 164 168.378, 165.744 168, 170 168 C 175.189 168, 176 167.748, 176 166.135 C 176 165.109, 175.067 163.084, 173.927 161.635 C 171.428 158.457, 167.267 158.153, 163.875 160.900 M 198 170.301 C 198 178.448, 198.307 181.064, 199.229 180.757 C 199.904 180.532, 200.416 178.971, 200.367 177.288 C 200.279 174.324, 200.393 174.243, 203.979 174.724 C 207.134 175.147, 208.001 174.815, 209.841 172.475 C 212.562 169.016, 212.595 165.026, 209.930 161.638 C 208.138 159.360, 207.196 159.035, 202.930 159.220 L 198 159.435 198 170.301 M 232 160 C 232 160.550, 233.125 161, 234.500 161 C 236.929 161, 237 161.200, 237 168 C 237 176.964, 238.814 177.170, 239.204 168.250 C 239.473 162.117, 239.706 161.471, 241.750 161.180 C 246.389 160.522, 243.773 159, 238 159 C 234.667 159, 232 159.444, 232 160 M 266 167 C 266 171.667, 266.417 175, 267 175 C 267.550 175, 268 173.425, 268 171.500 C 268 168.083, 268.095 168, 272 168 C 275.905 168, 276 168.083, 276 171.500 C 276 173.987, 276.446 175, 277.542 175 C 278.823 175, 279.035 173.700, 278.792 167.330 C 278.601 162.303, 278.069 159.518, 277.250 159.247 C 276.406 158.968, 276 159.996, 276 162.417 C 276 165.931, 275.922 166, 272 166 C 268.095 166, 268 165.917, 268 162.500 C 268 160.575, 267.550 159, 267 159 C 266.417 159, 266 162.333, 266 167 M 302.655 160.829 C 300.634 163.062, 300.557 164, 302.393 164 C 303.159 164, 304.056 163.296, 304.386 162.436 C 305.228 160.242, 311.367 160.886, 311.808 163.214 C 312.035 164.411, 311.282 165.101, 309.316 165.501 C 302.519 166.883, 301.505 167.494, 301.170 170.410 C 300.983 172.037, 301.417 173.649, 302.170 174.126 C 304.141 175.376, 309.424 175.176, 310.800 173.800 C 311.733 172.867, 312 172.867, 312 173.800 C 312 174.460, 312.584 175, 313.297 175 C 314.857 175, 314.396 162.276, 312.763 160.250 C 311.210 158.323, 304.579 158.703, 302.655 160.829 M 338.750 160.080 C 336.498 161.392, 336.435 166.584, 338.656 167.827 C 340.159 168.668, 340.106 169.042, 338.088 171.877 C 336.340 174.331, 336.185 175, 337.364 175 C 338.189 175, 339.825 173.650, 341 172 C 342.175 170.350, 344.006 169, 345.068 169 C 346.548 169, 347 169.702, 347 172 C 347 174, 347.500 175, 348.500 175 C 349.708 175, 350 173.444, 350 167 L 350 159 345.250 159.030 C 342.637 159.047, 339.712 159.519, 338.750 160.080 M 382.073 161.635 C 377.779 167.094, 381.032 175, 387.573 175 C 393.768 175, 396.998 168.664, 393.850 162.684 C 392.294 159.727, 391.060 159.033, 387.323 159.015 C 385.070 159.004, 383.542 159.767, 382.073 161.635 M 417 170.212 C 417 176.737, 417.395 181, 418 181 C 418.833 181, 419.501 177.377, 419.141 174.816 C 419.088 174.441, 420.620 174.389, 422.545 174.701 C 428.595 175.683, 432.214 170.207, 429.983 163.447 C 428.733 159.661, 427.314 158.978, 421.250 159.241 L 417 159.425 417 170.212 M 453 167 C 453 176.705, 454.789 177.720, 455.204 168.250 L 455.500 161.500 458.750 161.187 C 463.637 160.715, 462.656 159, 457.500 159 L 453 159 453 167 M 483.750 160.080 C 482.788 160.641, 482 161.752, 482 162.550 C 482 164.482, 483.631 164.404, 484.386 162.436 C 485.228 160.242, 491.367 160.886, 491.808 163.214 C 492.035 164.410, 491.281 165.104, 489.316 165.508 C 482.464 166.916, 479.372 170.333, 482.040 173.548 C 483.517 175.328, 489.117 175.456, 490.925 173.750 C 491.985 172.750, 492.342 172.750, 492.708 173.750 C 493.878 176.939, 495 174.403, 495 168.571 C 495 164.061, 494.531 161.674, 493.429 160.571 C 491.661 158.804, 486.400 158.537, 483.750 160.080 M 518 167 C 518 171.667, 518.417 175, 519 175 C 519.550 175, 520 173.425, 520 171.500 C 520 168.083, 520.095 168, 524 168 C 527.905 168, 528 168.083, 528 171.500 C 528 173.425, 528.450 175, 529 175 C 529.583 175, 530 171.667, 530 167 C 530 162.333, 529.583 159, 529 159 C 528.450 159, 528 160.575, 528 162.500 C 528 165.917, 527.905 166, 524 166 C 520.095 166, 520 165.917, 520 162.500 C 520 160.575, 519.550 159, 519 159 C 518.417 159, 518 162.333, 518 167 M 553 167 C 553 173.206, 553.315 175, 554.406 175 C 555.733 175, 562 166.606, 562 164.829 C 562 164.373, 562.450 164, 563 164 C 563.550 164, 564 166.475, 564 169.500 C 564 172.525, 564.450 175, 565 175 C 565.583 175, 566 171.667, 566 167 C 566 157.361, 564.629 156.590, 560.613 163.969 C 556.828 170.925, 556 171.031, 556 164.559 C 556 160.284, 555.653 159, 554.500 159 C 553.292 159, 553 160.556, 553 167 M 589.980 160.524 C 588.446 162.372, 589.548 163.852, 591.217 162.183 C 592.730 160.670, 595.671 160.658, 596.600 162.162 C 597.004 162.816, 596.374 164.088, 595.159 165.072 C 592.473 167.247, 592.432 168, 595 168 C 596.467 168, 597 168.667, 597 170.500 C 597 172.591, 596.526 173, 594.107 173 C 592.329 173, 590.967 172.357, 590.574 171.333 C 590.100 170.098, 589.643 169.957, 588.810 170.790 C 586.921 172.679, 589.782 175, 594 175 C 598.638 175, 600.504 173.038, 599.458 169.263 C 599.036 167.743, 598.796 165.464, 598.924 164.197 C 599.052 162.930, 598.617 161.243, 597.956 160.447 C 596.379 158.547, 591.583 158.593, 589.980 160.524 M 623.200 160.200 C 621.796 161.604, 621.602 164, 622.893 164 C 623.384 164, 624.045 163.325, 624.362 162.500 C 625.151 160.443, 630.879 160.522, 631.677 162.601 C 632.422 164.541, 630.415 165.964, 626.905 165.985 C 624.087 166.001, 621 168.731, 621 171.206 C 621 173.921, 623.536 174.996, 629.346 174.745 L 634.999 174.500 635 168.321 C 635 164.037, 634.518 161.661, 633.429 160.571 C 631.576 158.719, 624.922 158.478, 623.200 160.200 M 658 167 L 658 175 664 175 C 669.273 175, 670 175.235, 670 176.941 C 670 178.009, 670.450 179.160, 671 179.500 C 671.594 179.867, 672 178.697, 672 176.618 C 672 174.693, 671.550 172.840, 671 172.500 C 670.450 172.160, 670 168.984, 670 165.441 C 670 161.814, 669.563 159, 669 159 C 668.429 159, 668 162, 668 166 L 668 173 664 173 L 660 173 660 166 C 660 162, 659.571 159, 659 159 C 658.417 159, 658 162.333, 658 167 M 694 167 C 694 176.838, 695.122 177.240, 700.279 169.250 L 703.990 163.500 703.995 169.250 C 703.999 173.692, 704.341 175, 705.500 175 C 706.708 175, 707 173.444, 707 167 C 707 156.984, 705.747 156.652, 700.392 165.250 L 696.500 171.500 696.202 165.250 C 695.770 156.172, 694 157.578, 694 167 M 730.571 160.571 C 728.432 162.711, 728.595 165.730, 730.929 167.187 C 732.833 168.377, 732.833 168.425, 730.929 171.100 C 728.663 174.282, 728.544 175, 730.284 175 C 730.991 175, 732.366 173.650, 733.341 172 C 734.541 169.969, 735.902 169, 737.557 169 C 739.605 169, 740 169.485, 740 172 C 740 173.650, 740.450 175, 741 175 C 741.583 175, 742 171.667, 742 167 L 742 159 737.071 159 C 733.924 159, 731.575 159.568, 730.571 160.571 M 165.035 162.934 C 163.474 165.851, 163.643 166, 168.500 166 C 171.526 166, 173 165.574, 173 164.700 C 173 161.002, 166.804 159.628, 165.035 162.934 M 202.282 161.652 C 200.508 162.371, 199.630 168.439, 200.944 170.895 C 202.184 173.212, 205.898 173.702, 207.800 171.800 C 208.460 171.140, 209 168.980, 209 167 C 209 161.929, 206.503 159.941, 202.282 161.652 M 339.910 162.608 C 338.776 163.975, 338.862 164.426, 340.479 165.608 C 341.526 166.374, 343.421 167, 344.691 167 C 346.590 167, 347 166.467, 347 164 C 347 161.362, 346.653 161, 344.122 161 C 342.540 161, 340.644 161.724, 339.910 162.608 M 384.243 162.157 C 382.538 163.862, 382.675 170.485, 384.445 171.954 C 388.679 175.468, 394.326 169.550, 391.797 164.250 C 390.348 161.213, 386.307 160.093, 384.243 162.157 M 420.035 162.934 C 417.720 167.261, 419.601 173, 423.335 173 C 424.581 173, 426.140 172.460, 426.800 171.800 C 428.352 170.248, 428.352 163.752, 426.800 162.200 C 424.963 160.363, 421.192 160.772, 420.035 162.934 M 732.714 161.619 C 731.104 163.229, 732.093 165.985, 734.498 166.589 C 738.122 167.498, 740.195 166.395, 739.820 163.754 C 739.580 162.064, 738.740 161.426, 736.464 161.203 C 734.794 161.039, 733.107 161.227, 732.714 161.619 M 306.185 168.136 C 301.971 169.350, 302.145 172.343, 306.459 172.836 C 309.435 173.175, 312 171.080, 312 168.309 C 312 166.817, 310.878 166.783, 306.185 168.136 M 487.500 167.875 C 485.400 168.321, 484.404 169.186, 484.180 170.756 C 483.913 172.634, 484.329 173, 486.730 173 C 488.309 173, 490.140 172.460, 490.800 171.800 C 492.113 170.487, 492.455 166.928, 491.250 167.118 C 490.837 167.183, 489.150 167.524, 487.500 167.875 M 627.500 167.875 C 625.400 168.321, 624.404 169.186, 624.180 170.756 C 623.913 172.634, 624.329 173, 626.730 173 C 628.309 173, 630.140 172.460, 630.800 171.800 C 632.113 170.487, 632.455 166.928, 631.250 167.118 C 630.837 167.183, 629.150 167.524, 627.500 167.875" stroke="none" fill="#ffffff" fill-rule="evenodd"/>
</svg>