<svg xmlns="http://www.w3.org/2000/svg" width="416" height="312" viewBox="0 0 416 312" version="1.1">
	<path d="M 76.266 11.762 C 74.574 15.583, 50.081 66.734, 39.760 88 C 21.142 126.362, 10.237 149.080, 4.070 162.356 L -0.044 171.212 0.228 189.347 L 0.500 207.482 3.500 208.123 C 9.123 209.323, 213.458 209.095, 219.116 207.882 C 222.770 207.098, 225.494 205.676, 228.216 203.132 C 231.585 199.982, 232.173 198.769, 232.645 194 C 233.097 189.422, 232.686 187.243, 230.190 181 C 226.941 172.872, 220.653 158.618, 214.201 144.750 L 210.129 136 177.065 136 C 158.879 136, 144 136.151, 144 136.335 C 144 136.519, 144.863 139.332, 145.918 142.585 C 146.972 145.838, 148.347 150.441, 148.973 152.813 C 149.599 155.184, 150.359 157.772, 150.662 158.563 C 151.135 159.795, 146.354 160, 117.107 160 C 78.170 160, 80.920 160.832, 86.119 150.624 C 87.834 147.256, 92.059 138.425, 95.507 131 C 98.955 123.575, 106.270 108.275, 111.762 97 C 117.254 85.725, 123.875 72, 126.476 66.500 C 129.077 61, 133.363 52, 136 46.500 C 138.638 41, 143.598 30.650, 147.023 23.500 C 150.447 16.350, 153.445 10.162, 153.684 9.750 C 153.923 9.337, 136.876 9, 115.803 9 L 77.488 9 76.266 11.762 M 166 9.359 C 166 9.557, 167.520 13.044, 169.377 17.109 C 171.235 21.174, 176.804 33.725, 181.754 45 C 190.570 65.085, 207.328 103.192, 225.290 144 C 230.252 155.275, 238.889 174.850, 244.483 187.500 L 254.654 210.500 282.827 210.766 C 298.322 210.912, 311 210.766, 311 210.441 C 311 209.885, 298.894 182.091, 282.497 145 C 278.485 135.925, 269.942 116.575, 263.513 102 C 257.083 87.425, 249.822 71.095, 247.376 65.712 C 244.931 60.328, 243.127 55.603, 243.368 55.212 C 243.610 54.820, 257.651 54.725, 274.571 55 L 305.334 55.500 311.008 68.500 C 319.422 87.778, 340.928 136.750, 343.505 142.500 C 345.679 147.351, 349.131 155.182, 356.620 172.250 C 358.610 176.787, 363.110 186.887, 366.620 194.692 C 370.129 202.498, 373 209.361, 373 209.942 C 373 210.653, 380.053 211, 394.500 211 L 416 211 416.003 194.250 L 416.007 177.500 409.540 163 C 403.589 149.655, 388.318 114.959, 380.491 97 C 374.951 84.287, 369.719 72.455, 358.602 47.500 C 352.721 34.300, 346.468 20.238, 344.705 16.251 L 341.500 9.002 253.750 9.001 C 205.487 9, 166 9.162, 166 9.359 M 314.292 230.968 C 309.978 231.993, 304.702 236.663, 302.665 241.257 C 300.611 245.891, 300.428 258.696, 302.351 263.298 C 304.204 267.733, 310.110 272.678, 315.237 274.088 C 320.343 275.492, 329.079 274.055, 333 271.165 C 339.246 266.563, 342.383 254.933, 340.028 245.115 C 337.330 233.872, 326.686 228.021, 314.292 230.968 M 7.447 232.278 C 7.177 232.981, 7.079 242.544, 7.228 253.528 L 7.500 273.500 23.596 273.774 L 39.693 274.048 39.089 270.334 L 38.485 266.619 27.243 266.875 L 16 267.131 16 261.100 L 16 255.070 26.250 254.785 L 36.500 254.500 36.500 251 L 36.500 247.500 26.250 247.215 L 16 246.930 16 242.465 L 16 238 27.250 237.999 L 38.500 237.997 38.619 234.499 L 38.739 231 23.338 231 C 11.759 231, 7.816 231.317, 7.447 232.278 M 44 234.500 L 44 238 50 238 L 56 238 56 256.057 L 56 274.115 60.250 273.807 L 64.500 273.500 64.500 255.749 L 64.500 237.998 70.750 237.999 L 77 238 77 234.500 L 77 231 60.500 231 L 44 231 44 234.500 M 82.681 250.750 C 78.490 261.613, 74.774 271.288, 74.423 272.250 C 73.876 273.753, 74.426 274, 78.313 274 L 82.839 274 84.500 269 L 86.161 264 94.539 264 L 102.918 264 104.694 269 C 106.448 273.941, 106.520 274, 110.735 274 C 113.081 274, 115 273.588, 115 273.084 C 115 272.580, 111.350 262.905, 106.889 251.584 L 98.778 231 94.540 231 L 90.302 231 82.681 250.750 M 124 248.500 L 124 266 121 266 C 118.167 266, 118 266.222, 118 270 C 118 273.890, 118.094 274, 121.435 274 C 125.974 274, 129.645 272.532, 130.881 270.223 C 131.432 269.192, 132.201 261.521, 132.590 253.175 L 133.297 238 139.148 238 L 145 238 145 256.057 L 145 274.115 149.250 273.807 L 153.500 273.500 153.770 252.250 L 154.040 231 139.020 231 L 124 231 124 248.500 M 163 252.598 L 163 274.196 176.428 273.848 C 188.157 273.544, 190.214 273.235, 192.678 271.409 C 196.799 268.356, 198.704 262.294, 197.162 257.145 C 195.237 250.723, 191.623 248.806, 180.322 248.215 L 170.861 247.720 171.180 239.358 L 171.500 230.995 167.250 230.998 L 163 231 163 252.598 M 222 251.500 C 222 262.775, 221.992 272.337, 221.982 272.750 C 221.973 273.163, 223.773 273.638, 225.982 273.807 L 230 274.115 230 256.057 L 230 238 238 238 L 246 238 246 256 L 246 274 250.500 274 L 255 274 255 252.500 L 255 231 238.500 231 L 222 231 222 251.500 M 264 252.500 L 264 274 268 274 L 272 274 272 266.144 L 272 258.289 279.383 257.730 C 291.944 256.780, 296.683 252.459, 295.755 242.802 C 294.875 233.646, 289.966 231.015, 273.750 231.006 L 264 231 264 252.500 M 348.788 252.499 L 349.076 274 365.098 274 L 381.121 274 380.810 270.250 L 380.500 266.500 371.867 266.855 C 367.119 267.051, 361.832 266.902, 360.117 266.526 C 357.095 265.862, 357 265.676, 357 260.421 L 357 255 364.750 254.800 C 369.012 254.691, 373.738 254.644, 375.250 254.698 C 377.796 254.788, 378 254.506, 378 250.897 L 378 247 367.500 247 L 357 247 357 242.500 L 357 238 368.500 238 L 380 238 380 234.500 L 380 231 364.250 230.999 L 348.500 230.998 348.788 252.499 M 388 252.443 L 388 274 392.500 274 L 397 274 397 264.927 C 397 256.829, 397.188 255.888, 398.750 256.177 C 399.801 256.371, 402.268 259.993, 404.929 265.250 C 409.134 273.558, 409.523 274, 412.622 274 C 415.734 274, 415.903 274.196, 416.268 278.250 C 416.478 280.587, 416.722 278.450, 416.810 273.500 C 416.898 268.550, 416.607 265.071, 416.164 265.768 C 415.619 266.628, 414.600 265.417, 413.005 262.010 C 411.710 259.246, 409.451 255.784, 407.984 254.318 C 405.546 251.880, 405.450 251.497, 406.857 249.854 C 407.704 248.865, 409.103 246.131, 409.966 243.778 C 410.873 241.306, 412.478 239.083, 413.768 238.513 C 415.420 237.782, 416 236.677, 416 234.263 C 416 230.587, 415.393 230.391, 410.426 232.466 C 407.490 233.693, 406.357 235.162, 403.484 241.466 C 398.750 251.854, 397.163 251.565, 396.789 240.250 L 396.500 231.500 392.250 231.193 L 388 230.885 388 252.443 M 315.294 238.724 C 311.474 240.627, 309 246.025, 309 252.455 C 309 261.739, 313.379 267, 321.107 267 C 328.812 267, 332.005 262.509, 331.993 251.685 C 331.981 239.924, 324.517 234.131, 315.294 238.724 M 272 244 L 272 250 277.566 250 C 284.966 250, 287 248.819, 287 244.522 C 287 239.942, 284.104 238, 277.277 238 L 272 238 272 244 M 94 242.214 C 94 242.515, 92.879 245.740, 91.509 249.381 L 89.017 256 94.464 256 L 99.910 256 97.370 249.250 C 95.013 242.984, 94 240.870, 94 242.214 M 171.196 261.148 L 171.500 266.379 176.897 266.750 C 185.960 267.373, 191.142 263.931, 188.659 258.937 C 187.541 256.689, 186.804 256.477, 179.170 256.209 L 170.893 255.917 171.196 261.148" stroke="none" fill="#ffffff" fill-rule="evenodd"/>
</svg>