<svg xmlns="http://www.w3.org/2000/svg" width="800" height="435" viewBox="0 0 800 435" version="1.1">
	<path d="M 102.478 89.988 C 88.122 92.098, 69.540 99.492, 56.714 108.197 C 13.904 137.251, -3.432 192.348, 14.908 241.060 C 16.059 244.118, 17.564 247.364, 18.251 248.275 C 19.046 249.328, 33.686 253.966, 58.500 261.025 C 79.950 267.127, 98.513 272.778, 99.750 273.583 C 101.367 274.634, 102 276.018, 102 278.500 C 102 284.271, 100.228 284.772, 77 285.569 C 65.725 285.956, 54.563 286.549, 52.195 286.886 L 47.890 287.500 53.195 291.457 C 60.244 296.714, 75.133 304.484, 83.821 307.439 C 117.089 318.754, 155.029 313.308, 184.405 293.001 C 192.955 287.090, 207.854 272.053, 213.138 264 C 221.393 251.420, 227.821 235.664, 230.579 221.250 C 231.363 217.152, 231.996 207.926, 231.991 200.662 C 231.981 185.749, 229.314 171.429, 224.305 159.381 L 221.448 152.510 181.361 141.005 C 159.314 134.677, 140.516 128.864, 139.587 128.086 C 137.044 125.955, 137.836 119.875, 140.851 118.380 C 142.270 117.677, 151.794 116.940, 164.851 116.522 C 176.758 116.142, 187.797 115.516, 189.383 115.132 C 192.223 114.444, 192.151 114.354, 184.610 109.141 C 171.585 100.137, 155.697 93.537, 139.776 90.517 C 131.447 88.937, 111.547 88.655, 102.478 89.988 M 231.091 145.500 C 239.990 163.345, 243.993 180.566, 243.992 201 C 243.992 236.056, 231 266.404, 205.522 290.863 C 200.861 295.339, 197.276 299, 197.557 299 C 197.837 299, 200.414 297.822, 203.283 296.382 C 221.061 287.459, 234.465 274.521, 246.334 254.827 L 247.945 252.154 255.336 255.978 C 266.751 261.886, 275.032 263.324, 294.319 262.750 C 307.118 262.369, 311.654 261.850, 316.022 260.266 C 325.114 256.970, 331.460 253.362, 338.164 247.674 L 344.513 242.288 350.839 247.672 C 358.517 254.204, 366.346 258.278, 376.666 261.109 C 383.084 262.870, 386.256 263.154, 394.965 262.750 C 412.199 261.950, 427.083 255.158, 438.409 242.925 L 443.936 236.955 444.218 248.529 L 444.500 260.103 462.500 260.105 L 480.500 260.106 480.794 253.053 L 481.088 246 489.794 245.983 C 505.928 245.950, 520.592 241.104, 529.556 232.842 C 531.848 230.729, 534.011 229, 534.362 229 C 534.713 229, 535.003 236.088, 535.006 244.750 L 535.012 260.500 553.006 260.599 L 571 260.698 571 238.149 C 571 225.314, 571.375 216.009, 571.869 216.550 C 572.347 217.073, 575.148 223.912, 578.093 231.750 L 583.447 246 599.974 246.077 C 609.063 246.119, 617.175 246.285, 618 246.446 C 622.103 247.249, 623.495 245.247, 629 230.630 C 632.025 222.598, 634.725 216.020, 635 216.012 C 635.275 216.005, 635.500 225.930, 635.500 238.070 L 635.500 260.141 660.384 260.136 C 674.070 260.134, 685.588 259.765, 685.978 259.316 C 686.369 258.867, 687.711 255.912, 688.960 252.750 L 691.232 247 717.003 247 L 742.773 247 745.203 253.573 L 747.632 260.146 767.316 260.323 C 778.143 260.420, 787.002 260.275, 787.003 260 C 787.005 259.725, 784.324 252.525, 781.045 244 C 774.178 226.142, 757.969 183.582, 748.206 157.773 L 741.500 140.047 716.978 140.023 L 692.456 140 682.478 166.250 L 672.500 192.500 672.233 166.250 L 671.967 140 648.087 140 L 624.207 140 620.478 149.750 C 607.814 182.865, 603.679 193.544, 603.386 193.889 C 603.204 194.102, 602.581 192.977, 602 191.389 C 601.419 189.800, 596.794 177.591, 591.722 164.257 L 582.500 140.014 558.750 140.007 L 535 140 535 148.512 L 535 157.023 529.256 152.344 C 526.097 149.771, 521.107 146.565, 518.167 145.219 C 507.645 140.402, 504.391 140.025, 473.250 140.012 L 444 140 444 151.614 L 444 163.228 438.250 157.278 C 427.940 146.608, 416.175 140.338, 402.066 137.993 C 383.849 134.965, 363.718 140.960, 350.260 153.420 L 344.329 158.911 339.914 154.391 C 334.134 148.472, 326.354 143.805, 316.490 140.340 C 308.914 137.678, 307.593 137.532, 291 137.517 C 276.814 137.505, 272.372 137.850, 267.543 139.339 C 261.946 141.065, 252 145.586, 252 146.405 C 252 146.609, 253.326 149.638, 254.947 153.138 C 258.250 160.268, 261.454 171.785, 262.530 180.392 C 263.233 186.018, 263.276 186.081, 265.093 184.130 C 268.023 180.985, 274.002 176.668, 274.599 177.266 C 275.729 178.396, 275.535 223, 274.400 223 C 272.416 223, 264.953 216.990, 263.803 214.467 C 263.185 213.110, 262.373 212, 261.999 212 C 261.624 212, 260.752 214.529, 260.061 217.619 C 259.369 220.710, 258.174 224.647, 257.405 226.369 C 256.066 229.366, 256.039 229.264, 256.753 224 C 258.175 213.528, 257.339 193.111, 255.149 184.825 C 250.777 168.284, 242.375 152.810, 231.461 141.199 L 226.105 135.500 231.091 145.500 M 98.580 158.097 C 95.324 158.577, 89.761 160.327, 86.218 161.985 C 82.675 163.643, 79.601 165, 79.388 165 C 79.174 165, 79 163.509, 79 161.686 L 79 158.372 70.250 158.436 L 61.500 158.500 61.222 200 C 61.069 222.825, 61.190 242.512, 61.491 243.750 C 62.004 245.861, 62.556 246, 70.431 246 L 78.823 246 79.192 220.750 C 79.588 193.659, 79.920 191.727, 85.411 184.528 C 89.029 179.784, 97.151 175.838, 104.512 175.247 C 109.901 174.814, 110.950 174.405, 111.876 172.373 C 112.470 171.070, 114.765 168.040, 116.978 165.640 C 119.190 163.240, 121 161.007, 121 160.677 C 121 159.883, 114.622 158.302, 109 157.703 C 106.525 157.439, 101.836 157.616, 98.580 158.097 M 147.135 158.057 C 144.184 158.471, 138.482 160.435, 134.463 162.421 C 125.722 166.741, 119.457 173.236, 114.749 182.859 C 111.657 189.179, 111.500 190.056, 111.500 201 C 111.500 212.052, 111.633 212.771, 114.907 219.472 C 121.387 232.733, 133.637 241.756, 148.504 244.219 C 159.781 246.088, 173.041 242.305, 182.564 234.501 C 187.058 230.819, 194.625 220.292, 193.551 219.217 C 193.195 218.862, 189.903 216.680, 186.236 214.369 L 179.568 210.168 176.406 214.863 C 166.029 230.273, 144.628 231.023, 133.451 216.369 C 129.227 210.831, 127.328 201.968, 128.933 195.280 C 131.653 183.940, 142.125 175.500, 153.473 175.500 C 159.221 175.500, 166 177.391, 166 178.995 C 166 179.409, 159.025 184.376, 150.500 190.032 C 138.649 197.895, 135.005 200.809, 135.022 202.408 C 135.053 205.400, 138.346 212.169, 140.855 214.402 C 142.969 216.282, 143.047 216.269, 147.746 213.305 C 150.361 211.656, 161.275 204.779, 172 198.023 C 182.725 191.266, 191.895 185.380, 192.377 184.942 C 193.633 183.802, 189.490 177.456, 183.043 170.643 C 173.346 160.396, 161.091 156.101, 147.135 158.057 M 383.627 176.407 C 377.918 178.532, 372.837 183.075, 370.004 188.586 C 366.676 195.062, 366.536 205.532, 369.698 211.500 C 374.177 219.954, 382.533 224.941, 392.282 224.978 C 399.347 225.005, 403.471 223.374, 409.046 218.347 C 414.629 213.313, 416.956 208.062, 416.956 200.500 C 416.956 190.525, 411.994 182.127, 403.529 177.776 C 398.432 175.155, 388.774 174.491, 383.627 176.407 M 480.998 192.844 L 481 209.187 490.930 208.844 C 501.898 208.464, 504.436 207.348, 508.750 201.010 C 513.015 194.743, 511.021 184.230, 504.682 179.571 C 502.397 177.891, 499.895 177.406, 491.430 177 L 480.996 176.500 480.998 192.844 M 306 200 C 306 218.384, 306.265 223, 307.320 223 C 309.917 223, 317.315 215.520, 319.626 210.556 C 324.550 199.982, 321.425 187.358, 312.130 180.268 C 309.773 178.471, 307.430 177, 306.922 177 C 306.386 177, 306 186.626, 306 200 M 711.153 194.473 C 708.211 202.423, 705.736 209.270, 705.653 209.689 C 705.492 210.490, 725.683 211.307, 727.628 210.579 C 728.357 210.306, 726.762 204.819, 723.128 195.095 C 720.033 186.812, 717.275 180.031, 717 180.026 C 716.725 180.022, 714.094 186.523, 711.153 194.473 M 573.523 284.964 C 573.195 285.493, 573.843 286.843, 574.964 287.964 C 578.784 291.784, 588 289.810, 588 285.171 C 588 283.458, 584.038 283.739, 583.362 285.500 C 583.045 286.325, 581.757 287, 580.500 287 C 579.243 287, 577.955 286.325, 577.638 285.500 C 576.993 283.819, 574.436 283.486, 573.523 284.964 M 255.735 292.248 C 255.449 292.993, 255.279 297.854, 255.358 303.051 C 255.499 312.413, 255.523 312.500, 257.988 312.500 C 259.995 312.500, 261.153 311.299, 263.988 306.277 C 265.919 302.854, 267.837 300.041, 268.250 300.027 C 268.663 300.012, 269 302.925, 269 306.500 C 269 312.767, 269.090 313, 271.500 313 L 274 313 274 302.559 C 274 296.816, 273.588 291.863, 273.084 291.552 C 271.046 290.292, 267.333 293.073, 264.500 297.981 L 261.500 303.177 261 297.339 C 260.572 292.340, 260.194 291.456, 258.377 291.197 C 257.210 291.031, 256.021 291.504, 255.735 292.248 M 278.529 291.805 C 278.238 292.095, 278 297.013, 278 302.733 L 278 313.133 280.710 312.816 C 283.202 312.526, 283.424 312.137, 283.460 308 C 283.500 303.530, 283.525 303.498, 287.250 303.190 L 291 302.879 291 307.940 C 291 312.671, 291.163 313, 293.500 313 L 296 313 296 301.930 C 296 291.023, 295.967 290.866, 293.750 291.180 C 291.943 291.437, 291.439 292.238, 291.190 295.250 C 290.891 298.859, 290.739 299, 287.141 299 C 283.484 299, 283.402 298.917, 283.417 295.250 C 283.430 292.089, 283.089 291.482, 281.245 291.388 C 280.042 291.326, 278.820 291.514, 278.529 291.805 M 298.588 291.745 C 297.054 293.280, 298.309 294.903, 301.250 295.187 L 304.500 295.500 304.789 304.250 C 305.070 312.762, 305.144 313, 307.500 313 C 309.856 313, 309.930 312.762, 310.211 304.250 L 310.500 295.500 313.250 295.539 C 315.423 295.571, 316 295.120, 316 293.393 C 316 291.319, 315.565 291.205, 307.588 291.182 C 302.961 291.168, 298.911 291.422, 298.588 291.745 M 318.788 293.500 C 318.630 294.600, 318.645 299.457, 318.822 304.294 L 319.144 313.088 325.812 312.794 C 331.227 312.555, 332.542 312.171, 332.813 310.750 C 333.091 309.290, 332.389 309, 328.573 309 C 324.159 309, 324 308.896, 324 306 C 324 303.167, 324.222 303, 328 303 C 331.333 303, 332 302.667, 332 301 C 332 299.327, 331.333 299, 327.927 299 C 324.588 299, 323.913 298.685, 324.185 297.250 C 324.428 295.968, 325.669 295.417, 328.820 295.189 C 332.234 294.943, 333.055 294.530, 332.792 293.189 C 332.520 291.805, 331.252 291.500, 325.768 291.500 C 319.839 291.500, 319.043 291.728, 318.788 293.500 M 339.545 292.228 C 339.321 292.928, 338.961 296.363, 338.747 299.861 C 338.451 304.685, 337.875 306.619, 336.363 307.861 C 333.645 310.096, 333.919 312.500, 336.892 312.500 C 340.355 312.500, 342.897 308.429, 343.760 301.500 C 344.450 295.969, 344.704 295.500, 347.004 295.500 C 349.453 295.500, 349.505 295.664, 349.789 304.250 C 350.072 312.835, 350.125 313, 352.573 313 L 355.068 313 354.784 302.295 L 354.500 291.589 347.227 291.273 C 341.995 291.046, 339.839 291.314, 339.545 292.228 M 363.750 291.688 C 362.487 292.019, 361.997 293.169, 361.989 295.823 C 361.968 302.779, 360.793 307.241, 358.847 307.750 C 356.277 308.422, 356.313 313, 358.889 313 C 362.720 313, 365.001 309.783, 366.336 302.500 C 367.402 296.678, 367.944 295.500, 369.559 295.500 C 371.289 295.500, 371.554 296.424, 372 304 C 372.486 312.267, 372.569 312.500, 375 312.500 L 377.500 312.500 377.500 302.118 L 377.500 291.737 371.500 291.483 C 368.200 291.343, 364.712 291.435, 363.750 291.688 M 382.339 292.575 C 382.109 293.166, 382.051 297.891, 382.210 303.075 L 382.500 312.500 389.486 312.500 C 395.255 312.500, 396.529 312.205, 396.799 310.807 C 397.062 309.438, 396.205 309.056, 392.312 308.807 C 387.928 308.527, 387.500 308.278, 387.500 306 C 387.500 303.774, 387.965 303.466, 391.750 303.193 C 395.186 302.944, 396 302.513, 396 300.943 C 396 299.302, 395.288 299, 391.427 299 C 387.606 299, 386.910 298.712, 387.199 297.250 C 387.462 295.914, 388.543 295.500, 391.773 295.500 C 394.491 295.500, 396.002 295.053, 396.001 294.250 C 396.001 293.563, 395.994 292.663, 395.987 292.250 C 395.967 291.056, 382.808 291.369, 382.339 292.575 M 400.597 291.736 C 400.269 292.065, 400 296.983, 400 302.667 L 400 313 402.500 313 C 404.796 313, 405 312.633, 405 308.500 C 405 306.025, 405.374 304, 405.830 304 C 406.287 304, 408.115 306.025, 409.893 308.500 C 412.204 311.719, 413.818 313, 415.562 313 C 418.666 313, 418.631 312.659, 414.939 306.905 C 411.979 302.292, 411.931 302.035, 413.465 299.068 C 414.337 297.381, 415.715 296, 416.526 296 C 417.337 296, 418.007 295.212, 418.015 294.250 C 418.025 293.126, 418.293 292.911, 418.765 293.649 C 419.169 294.281, 420.625 294.956, 422 295.149 C 424.423 295.489, 424.509 295.769, 424.789 304.250 C 425.070 312.762, 425.144 313, 427.500 313 C 429.856 313, 429.930 312.762, 430.211 304.250 C 430.491 295.769, 430.577 295.489, 433 295.149 C 434.375 294.956, 435.813 294.294, 436.196 293.678 C 437.095 292.229, 437.132 292.281, 440.919 300.398 C 443.314 305.531, 443.823 307.491, 442.910 308.056 C 442.234 308.473, 441.078 308.583, 440.341 308.300 C 439.431 307.951, 439 308.624, 439 310.393 C 439 312.601, 439.442 313, 441.889 313 C 443.478 313, 445.673 312.212, 446.766 311.250 C 449.054 309.235, 456.272 292.286, 455.140 291.587 C 453.040 290.289, 450.567 291.992, 449.098 295.748 C 448.219 297.995, 447.227 300.107, 446.893 300.441 C 446.559 300.774, 445.370 298.843, 444.250 296.148 L 442.215 291.250 427.857 291.474 C 419.961 291.597, 413.168 291.766, 412.763 291.849 C 412.357 291.932, 410.889 293.800, 409.500 296 C 408.111 298.200, 406.531 300, 405.987 300 C 405.444 300, 405 298.071, 405 295.713 C 405 292.215, 404.649 291.399, 403.097 291.282 C 402.051 291.203, 400.926 291.408, 400.597 291.736 M 463.102 292.810 C 462.225 294.448, 456 311.848, 456 312.660 C 456 312.847, 457.136 313, 458.525 313 C 460.298 313, 461.333 312.256, 462 310.500 C 462.727 308.588, 463.667 308, 466 308 C 468.333 308, 469.273 308.588, 470 310.500 C 470.816 312.646, 471.576 313, 475.364 313 C 481.809 313, 483.795 310.908, 485.336 302.500 C 486.402 296.678, 486.944 295.500, 488.559 295.500 C 490.289 295.500, 490.554 296.424, 491 304 C 491.486 312.267, 491.569 312.500, 494 312.500 L 496.500 312.500 496.500 302 L 496.500 291.500 489 291.500 C 482.232 291.500, 481.481 291.695, 481.305 293.500 C 480.090 305.954, 479.783 307.244, 477.914 307.733 C 476.861 308.008, 475.965 308.968, 475.921 309.867 C 475.878 310.765, 474.416 307.440, 472.671 302.478 C 470.927 297.515, 469.136 292.903, 468.691 292.228 C 467.487 290.401, 464.208 290.743, 463.102 292.810 M 501.568 291.765 C 501.256 292.078, 501 297.036, 501 302.783 L 501 313.233 507.443 312.823 C 514.791 312.355, 518 310.281, 518 306 C 518 302.488, 515.493 300.380, 510.306 299.530 C 506.369 298.885, 506.093 298.623, 505.806 295.261 C 505.597 292.817, 504.966 291.603, 503.818 291.438 C 502.893 291.306, 501.881 291.453, 501.568 291.765 M 521 302.125 L 521 313 523.500 313 C 525.837 313, 526 312.671, 526 307.940 L 526 302.879 529.750 303.190 C 533.464 303.497, 533.503 303.546, 533.805 308.250 C 534.081 312.557, 534.341 313, 536.589 313 L 539.068 313 538.784 302.348 C 538.513 292.169, 538.400 291.680, 536.250 291.354 C 534.235 291.048, 534 291.430, 534 295.006 C 534 298.999, 533.999 299, 530 299 C 526.022 299, 526 298.979, 526 295.125 C 526 291.658, 525.737 291.250, 523.500 291.250 L 521 291.250 521 302.125 M 543.456 292.255 C 543.161 293.022, 543.051 297.891, 543.210 303.075 L 543.500 312.500 549.651 312.494 C 556.772 312.488, 560 310.436, 560 305.916 C 560 302.258, 557.916 300.331, 553.076 299.513 C 549.376 298.888, 549.091 298.598, 548.806 295.172 C 548.561 292.237, 548.048 291.436, 546.246 291.180 C 544.991 291.002, 543.754 291.478, 543.456 292.255 M 562 302.167 L 562 313 564.534 313 L 567.068 313 566.784 302.331 C 566.511 292.074, 566.413 291.656, 564.250 291.498 C 562.045 291.338, 562 291.551, 562 302.167 M 571.914 291.887 C 571.867 292.224, 571.795 297, 571.754 302.500 C 571.680 312.407, 571.702 312.500, 574.077 312.500 C 575.975 312.500, 577.208 311.201, 579.988 306.277 C 581.919 302.854, 583.837 300.041, 584.250 300.027 C 584.663 300.012, 585 302.956, 585 306.570 C 585 312.810, 585.113 313.123, 587.250 312.820 C 589.419 312.512, 589.500 312.124, 589.500 302.100 C 589.500 292.051, 589.423 291.688, 587.226 291.352 C 585.387 291.072, 584.204 292.164, 581.029 297.077 L 577.104 303.149 576.802 297.324 C 576.530 292.081, 576.276 291.489, 574.250 291.387 C 573.013 291.324, 571.961 291.549, 571.914 291.887 M 605.477 292.449 C 605.307 293.027, 604.923 295.893, 604.623 298.819 C 604.323 301.744, 603.385 305.526, 602.539 307.222 C 601.693 308.919, 601 312.069, 601 314.223 C 601 317.712, 601.245 318.104, 603.250 317.820 C 604.696 317.614, 605.614 316.696, 605.820 315.250 C 606.110 313.206, 606.681 313, 612.070 313 C 617.729 313, 618 313.114, 618 315.500 C 618 317.289, 618.540 318, 619.899 318 C 621.430 318, 621.868 317.129, 622.155 313.513 C 622.391 310.553, 622.085 308.863, 621.256 308.545 C 620.385 308.210, 620 305.469, 620 299.594 L 620 291.126 612.892 291.262 C 608.905 291.339, 605.649 291.860, 605.477 292.449 M 625.390 292.427 C 625.132 293.100, 625.051 297.891, 625.210 303.075 L 625.500 312.500 632.486 312.500 C 638.345 312.500, 639.527 312.218, 639.810 310.750 C 640.089 309.297, 639.399 309, 635.740 309 C 630.529 309, 630.139 308.724, 630.760 305.476 C 631.167 303.348, 631.778 303, 635.117 303 C 638.295 303, 639 302.647, 639 301.057 C 639 299.487, 638.186 299.056, 634.750 298.807 C 631.776 298.592, 630.500 298.050, 630.500 297 C 630.500 295.891, 631.674 295.496, 635 295.484 C 638.816 295.470, 639.500 295.166, 639.500 293.484 C 639.500 291.714, 638.765 291.484, 632.680 291.352 C 628.107 291.252, 625.704 291.607, 625.390 292.427 M 643.429 292.325 C 643.149 293.054, 643.051 297.891, 643.210 303.075 C 643.482 311.924, 643.635 312.519, 645.703 312.813 C 647.762 313.106, 647.927 312.683, 648.235 306.313 L 648.564 299.500 650.434 303.750 C 651.602 306.405, 652.956 308, 654.043 308 C 655.132 308, 656.479 306.409, 657.641 303.750 L 659.500 299.500 659.796 306.250 C 660.078 312.696, 660.204 313, 662.580 313 L 665.068 313 664.784 302.300 L 664.500 291.599 661.712 291.452 C 659.283 291.324, 658.657 291.928, 656.839 296.152 C 655.692 298.819, 654.472 300.989, 654.127 300.976 C 653.782 300.963, 652.516 298.713, 651.314 295.976 C 649.500 291.848, 648.685 291, 646.532 291 C 645.105 291, 643.708 291.596, 643.429 292.325 M 671.766 293.918 C 669.009 296.382, 668.500 297.526, 668.500 301.267 C 668.500 306.580, 670.345 310.381, 673.657 311.890 C 683.569 316.406, 692.279 306.713, 687.452 296.540 C 684.543 290.409, 677.087 289.163, 671.766 293.918 M 692.597 291.736 C 692.269 292.065, 692 296.983, 692 302.667 C 692 312.960, 692.009 313, 694.445 313 C 696.653 313, 696.920 312.539, 697.195 308.250 C 697.497 303.546, 697.534 303.500, 701 303.500 C 704.466 303.500, 704.503 303.546, 704.805 308.250 C 705.081 312.557, 705.341 313, 707.589 313 L 710.068 313 709.784 302.250 C 709.510 291.892, 709.418 291.496, 707.250 291.387 C 705.285 291.287, 705 291.763, 705 295.137 C 705 298.977, 704.976 299, 701 299 C 697.037 299, 697 298.965, 697 295.213 C 697 292.207, 696.607 291.396, 695.097 291.282 C 694.051 291.203, 692.926 291.408, 692.597 291.736 M 712.289 292.689 C 711.557 294.597, 712.573 295.400, 715.788 295.454 L 718.500 295.500 718.789 304.250 C 719.070 312.762, 719.144 313, 721.500 313 C 723.856 313, 723.930 312.762, 724.211 304.250 C 724.499 295.529, 724.509 295.499, 727.250 295.184 C 729.036 294.978, 730 294.277, 730 293.184 C 730 291.744, 728.754 291.485, 721.412 291.396 C 714.911 291.318, 712.695 291.632, 712.289 292.689 M 737.490 292.016 C 736.475 293.658, 731 310.254, 731 311.688 C 731 314.079, 735.001 313.128, 736 310.500 C 736.727 308.588, 737.667 308, 740 308 C 742.333 308, 743.273 308.588, 744 310.500 C 744.854 312.747, 745.505 313, 750.433 313 C 755.874 313, 755.936 312.965, 758.553 308.500 C 760.003 306.025, 761.597 304, 762.095 304 C 762.593 304, 763 306.025, 763 308.500 C 763 312.633, 763.204 313, 765.500 313 C 767.796 313, 768 312.633, 768 308.500 C 768 306.025, 768.407 304, 768.905 304 C 769.403 304, 770.997 306.025, 772.447 308.500 C 774.660 312.277, 775.576 313, 778.141 313 L 781.198 313 779.272 309.750 C 778.213 307.962, 776.742 305.539, 776.004 304.365 C 774.899 302.606, 774.890 301.680, 775.952 299.115 C 776.662 297.402, 777.863 296, 778.621 296 C 780.149 296, 780.526 292.443, 779.092 291.557 C 777.279 290.436, 773.679 292.727, 772.108 296.002 C 769.626 301.178, 768 300.985, 768 295.514 C 768 291.261, 767.807 290.888, 765.750 291.180 C 763.880 291.446, 763.448 292.217, 763.193 295.750 C 763.023 298.087, 762.470 300, 761.963 300 C 761.456 300, 760.122 298.200, 759 296 C 757.657 293.368, 756.283 292, 754.980 292 C 753.891 292, 752.663 291.976, 752.250 291.947 C 750.410 291.818, 751.121 295.030, 753.446 297.355 C 756.711 300.620, 756.656 302.499, 753.138 307.801 L 750.285 312.102 749.212 309.301 C 748.622 307.760, 747.151 303.575, 745.943 300 C 744.736 296.425, 743.299 292.938, 742.751 292.250 C 741.552 290.745, 738.363 290.603, 737.490 292.016 M 610.584 296.176 C 610.358 296.904, 609.931 298.910, 609.635 300.633 C 609.339 302.357, 608.801 304.944, 608.440 306.383 C 607.821 308.848, 607.995 309, 611.437 309 L 615.091 309 614.796 302.260 C 614.555 296.773, 614.174 295.459, 612.747 295.186 C 611.783 295.003, 610.809 295.448, 610.584 296.176 M 675.571 296.571 C 673.786 298.357, 673.489 304.176, 675.035 307.066 C 675.623 308.163, 677.121 309, 678.500 309 C 681.349 309, 683 306.431, 683 302 C 683 295.751, 679.182 292.961, 675.571 296.571 M 464.630 301.250 C 463.715 304.665, 463.838 305, 466 305 C 467.100 305, 467.994 304.663, 467.986 304.250 C 467.952 302.338, 466.689 299, 466 299 C 465.578 299, 464.962 300.012, 464.630 301.250 M 739 300.418 C 739 301.198, 738.727 302.548, 738.393 303.418 C 737.958 304.552, 738.383 305, 739.893 305 C 742.164 305, 742.289 304.682, 741.370 301.250 C 740.705 298.770, 739 298.172, 739 300.418 M 506.667 303.667 C 506.300 304.033, 506 305.383, 506 306.667 C 506 308.457, 506.553 309, 508.378 309 C 511.663 309, 513.668 306.509, 512 304.500 C 510.712 302.949, 507.834 302.499, 506.667 303.667 M 549 306 C 549 308.268, 549.458 309, 550.878 309 C 553.737 309, 555.558 306.377, 554 304.500 C 553.315 303.675, 551.910 303, 550.878 303 C 549.458 303, 549 303.732, 549 306" stroke="none" fill="#ffffff" fill-rule="evenodd"/>
</svg>