<svg xmlns="http://www.w3.org/2000/svg" width="323" height="81" viewBox="0 0 323 81" version="1.1">
	<path d="M 34 22.120 L 34 27.241 29.750 23.800 C 27.413 21.907, 24.938 20.026, 24.250 19.620 C 23.266 19.039, 23 23.467, 23 40.441 C 23 58.938, 23.213 62, 24.500 62 C 25.433 62, 26 62.944, 26 64.500 L 26 67 54.250 66.995 L 82.500 66.990 79.500 64.531 C 77.118 62.578, 76.873 62.065, 78.309 62.036 C 79.304 62.016, 79.829 61.532, 79.475 60.959 C 79.121 60.387, 77.974 60.191, 76.926 60.523 C 75.864 60.860, 74.020 60.412, 72.760 59.511 L 70.500 57.893 73 58.102 C 74.375 58.217, 77.188 58.241, 79.250 58.156 C 82.839 58.007, 83 57.850, 83 54.500 L 83 51 77.500 51 L 72 51 72 34 L 72 17 68 17 L 64 17 64 33.122 L 64 49.244 61.750 47.752 C 59.611 46.333, 59.486 45.540, 59.223 31.630 L 58.947 17 55.473 17 L 52 17 52 28.700 C 52 35.770, 51.639 40.024, 51.089 39.450 C 50.587 38.928, 48.290 33.663, 45.983 27.750 L 41.789 17 37.894 17 L 34 17 34 22.120 M 98.607 18.582 C 98.273 19.452, 98 24.365, 98 29.500 C 98 40.855, 98.376 42, 102.107 42 C 104.912 42, 105 41.848, 105 37 L 105 32 109.500 32 L 114 32 114 37.063 L 114 42.127 117.250 41.813 L 120.500 41.500 120.500 29.500 L 120.500 17.500 117.250 17.187 C 114.012 16.874, 114 16.891, 114 21.437 L 114 26 109.500 26 L 105 26 105 21.500 C 105 17.204, 104.869 17, 102.107 17 C 100.391 17, 98.967 17.644, 98.607 18.582 M 130.299 18.960 C 122.924 23.456, 122.030 32.890, 128.424 38.749 C 131.516 41.584, 132.667 42, 137.409 42 C 143.844 42, 148.159 39.077, 150.012 33.464 C 153.664 22.399, 140.519 12.728, 130.299 18.960 M 154.667 17.667 C 154.300 18.033, 154 23.658, 154 30.167 L 154 42 161.365 42 C 167.302 42, 169.241 41.598, 171.365 39.927 C 174.514 37.451, 174.895 32.895, 172.180 30.180 C 170.766 28.766, 170.581 27.866, 171.349 26.144 C 172.567 23.414, 169.603 18.907, 165.910 17.873 C 162.675 16.969, 155.497 16.837, 154.667 17.667 M 183.035 18.842 C 175.353 22.961, 174.144 32.344, 180.479 38.679 C 183.466 41.666, 184.375 42, 189.518 42 C 194.826 42, 195.513 41.722, 199.118 38.118 C 202.292 34.944, 202.999 33.530, 202.996 30.368 C 202.986 20.039, 192.304 13.870, 183.035 18.842 M 208.698 24.759 C 208.004 33.757, 207.345 36, 205.393 36 C 204.512 36, 204 37.102, 204 39 C 204 41.630, 204.351 42, 206.845 42 C 208.410 42, 210.390 41.212, 211.246 40.250 C 213.208 38.043, 214.987 31.635, 214.994 26.750 C 214.999 23.418, 215.279 23, 217.500 23 C 219.991 23, 220 23.033, 220 32.500 L 220 42 223.531 42 L 227.062 42 226.781 29.750 L 226.500 17.500 217.901 17.213 L 209.302 16.927 208.698 24.759 M 232 29.460 L 232 42 240.500 42 L 249 42 249 39 C 249 36.030, 248.944 36, 243.500 36 C 238.667 36, 238 35.758, 238 34 C 238 32.328, 238.667 32, 242.066 32 C 245.913 32, 246.116 31.851, 245.816 29.250 C 245.542 26.862, 245.006 26.459, 241.750 26.190 C 239.297 25.987, 238 25.381, 238 24.440 C 238 23.359, 239.389 23, 243.566 23 C 249.049 23, 249.128 22.959, 248.816 20.250 C 248.503 17.525, 248.425 17.497, 240.250 17.210 L 232 16.919 232 29.460 M 253 29.437 L 253 42 256.450 42 L 259.900 42 260.200 36.473 L 260.500 30.945 264.809 36.473 C 268.549 41.270, 269.572 42, 272.559 42 C 274.451 42, 276 41.741, 276 41.424 C 276 41.107, 273.935 38.164, 271.410 34.884 L 266.821 28.919 270.910 23.502 C 273.160 20.523, 275 17.842, 275 17.543 C 275 17.244, 273.424 17, 271.498 17 C 268.420 17, 267.544 17.632, 264.248 22.232 L 260.500 27.464 260 22.482 C 259.521 17.713, 259.361 17.487, 256.250 17.187 L 253 16.873 253 29.437 M 282.299 18.900 C 278.350 21.381, 276 25.734, 276 30.568 C 276 33.495, 276.784 35.019, 279.882 38.118 C 283.331 41.566, 284.309 42, 288.632 41.996 C 293.932 41.992, 300 39.085, 300 36.550 C 300 35.736, 299.063 34.569, 297.917 33.955 C 296.278 33.078, 295.461 33.177, 294.088 34.420 C 291.733 36.551, 286.688 36.418, 284.655 34.171 C 282.228 31.490, 282.526 26.446, 285.223 24.557 C 288.093 22.546, 290.496 22.589, 294.095 24.715 C 296.839 26.336, 297.093 26.336, 298.720 24.709 C 300.349 23.080, 300.300 22.845, 297.810 20.355 C 294.201 16.747, 286.827 16.055, 282.299 18.900 M 24 40.965 C 24 53.347, 24.373 61, 24.977 61 C 25.568 61, 26.063 53.856, 26.227 42.958 L 26.500 24.915 29.928 27.446 C 34.543 30.852, 35.397 29.567, 31 25.833 C 23.554 19.510, 24 18.545, 24 40.965 M 133.223 24.557 C 130.421 26.519, 130.201 31.967, 132.829 34.345 C 139.075 39.998, 147.952 30.952, 142 25 C 139.602 22.602, 136.254 22.433, 133.223 24.557 M 161 25 C 161 26.506, 161.522 27.046, 162.750 26.810 C 163.713 26.624, 164.500 25.810, 164.500 25 C 164.500 24.190, 163.713 23.376, 162.750 23.190 C 161.522 22.954, 161 23.494, 161 25 M 185 25 C 180.896 29.104, 183.655 36, 189.402 36 C 193.465 36, 196 33.398, 196 29.228 C 196 23.650, 189.029 20.971, 185 25 M 161 34 C 161 35.547, 161.667 36, 163.941 36 C 167.266 36, 168.955 34.219, 166.878 32.904 C 164.263 31.247, 161 31.855, 161 34 M 41 34.941 C 41 35.459, 41.445 36.157, 41.989 36.493 C 42.555 36.843, 42.723 36.442, 42.382 35.552 C 41.717 33.820, 41 33.503, 41 34.941 M 60.500 50 C 61.495 51.100, 62.760 52, 63.310 52 C 63.860 52, 63.495 51.100, 62.500 50 C 61.505 48.900, 60.240 48, 59.690 48 C 59.140 48, 59.505 48.900, 60.500 50 M 99 57.071 C 99 63.600, 99.400 66.543, 100.429 67.571 C 101.648 68.791, 116.600 69, 202.429 69 L 303 69 303 59.929 C 303 53.400, 302.600 50.457, 301.571 49.429 C 300.352 48.209, 285.400 48, 199.571 48 L 99 48 99 57.071 M 301 58 C 301 61.850, 301 65.338, 301 65.750 C 301 66.162, 256.113 66.728, 201.250 67.007 L 101.500 67.514 201.750 67.757 L 302 68 302 59.500 C 302 54.825, 301.775 51, 301.500 51 C 301.225 51, 301 54.150, 301 58 M 106 52.351 C 106 52.780, 106.482 54.032, 107.071 55.133 C 107.888 56.660, 107.765 57.710, 106.548 59.567 C 105.228 61.582, 105.197 62, 106.370 62 C 107.149 62, 108.072 61.256, 108.421 60.347 C 108.992 58.857, 109.193 58.881, 110.446 60.595 C 111.211 61.641, 112.162 62.171, 112.561 61.773 C 112.959 61.374, 112.705 60.349, 111.995 59.495 C 110.981 58.272, 110.959 57.386, 111.890 55.341 C 113.292 52.265, 112.377 50.764, 110.589 53.209 C 109.424 54.802, 109.233 54.804, 107.671 53.243 C 106.752 52.323, 106 51.922, 106 52.351 M 116.008 53.707 C 113.540 55.436, 113.590 59.729, 116.095 61.296 C 118.653 62.897, 122.886 61.303, 123.596 58.472 C 124.724 53.978, 119.924 50.964, 116.008 53.707 M 126.667 52.667 C 126.300 53.033, 126 54.743, 126 56.467 C 126 58.190, 125.460 60.140, 124.800 60.800 C 123.867 61.733, 123.974 62, 125.281 62 C 126.302 62, 127.198 60.920, 127.564 59.250 C 128.556 54.727, 128.888 54, 129.969 54 C 130.536 54, 131 55.800, 131 58 C 131 60.200, 131.450 62, 132 62 C 132.550 62, 133 59.750, 133 57 C 133 52.176, 132.900 52, 130.167 52 C 128.608 52, 127.033 52.300, 126.667 52.667 M 136 55.378 C 136 57.305, 135.550 59.160, 135 59.500 C 134.450 59.840, 134 60.991, 134 62.059 C 134 63.127, 134.450 64, 135 64 C 135.550 64, 136 63.550, 136 63 C 136 61.544, 141.752 61.773, 142.280 63.250 C 143.345 66.234, 143.963 62.851, 143.255 57.903 C 142.516 52.728, 142.346 52.487, 139.242 52.187 C 136.143 51.887, 136 52.028, 136 55.378 M 145.750 52.574 C 144.795 53.541, 144.761 62, 145.712 62 C 146.104 62, 147.438 60.763, 148.676 59.250 L 150.928 56.500 150.964 59.250 C 151.007 62.559, 152.753 62.906, 153.481 59.750 C 154.112 57.014, 153.803 53, 152.962 53 C 152.624 53, 151.258 54.166, 149.924 55.591 L 147.500 58.182 147 54.998 C 146.725 53.247, 146.162 52.156, 145.750 52.574 M 155.661 53.735 C 154.630 57.504, 155.123 62, 156.567 62 C 157.355 62, 158 61.100, 158 60 C 158 58.667, 158.667 58, 160 58 C 161.333 58, 162 58.667, 162 60 C 162 61.100, 162.450 62, 163 62 C 163.550 62, 164 60.002, 164 57.559 C 164 55.116, 163.550 52.840, 163 52.500 C 162.450 52.160, 162 52.809, 162 53.941 C 162 55.333, 161.352 56, 160 56 C 158.900 56, 158 55.352, 158 54.559 C 158 52.365, 156.209 51.734, 155.661 53.735 M 166 57 C 166 59.750, 166.450 62, 167 62 C 167.550 62, 168 60.200, 168 58 C 168 54.628, 168.323 54, 170.059 54 C 171.191 54, 171.840 53.550, 171.500 53 C 171.160 52.450, 169.784 52, 168.441 52 C 166.178 52, 166 52.366, 166 57 M 175.389 53.046 C 172.449 54.142, 171.673 56.851, 173.500 59.641 C 175.441 62.603, 179.379 62.725, 181.368 59.885 C 184.189 55.857, 180.173 51.264, 175.389 53.046 M 184 57.063 L 184 62.127 187.250 61.813 C 190.361 61.513, 190.490 61.332, 190.258 57.564 C 190.010 53.520, 188.809 52.042, 185.750 52.015 C 184.312 52.003, 184 52.902, 184 57.063 M 203.441 53.439 C 201.860 54.611, 201.712 55.226, 202.643 56.754 C 203.391 57.983, 203.461 59.212, 202.843 60.315 C 202.215 61.437, 202.262 62, 202.982 62 C 203.576 62, 204.322 61.325, 204.638 60.500 C 204.955 59.675, 205.616 59, 206.107 59 C 206.598 59, 207 59.675, 207 60.500 C 207 61.325, 207.450 62, 208 62 C 208.550 62, 209 59.750, 209 57 C 209 52.843, 208.695 52, 207.191 52 C 206.196 52, 204.509 52.648, 203.441 53.439 M 215.750 52.571 C 214.626 53.713, 214.846 62, 216 62 C 216.550 62, 217 61.022, 217 59.826 L 217 57.651 219.314 59.826 C 222.452 62.773, 223.603 62.569, 221.546 59.430 C 219.999 57.069, 219.992 56.662, 221.454 54.430 C 223.566 51.207, 221.696 51.300, 219.143 54.545 L 217.142 57.090 216.821 54.449 C 216.644 52.997, 216.162 52.151, 215.750 52.571 M 226.351 53.066 C 221.818 54.743, 223.591 62, 228.534 62 C 231.786 62, 234.546 57.888, 233.103 55.192 C 231.855 52.861, 229.181 52.019, 226.351 53.066 M 246.360 53.505 C 245.500 55.746, 246.440 61.326, 247.750 61.756 C 248.613 62.040, 249 60.902, 249 58.083 C 249 55.120, 249.412 54, 250.500 54 C 251.583 54, 252 55.111, 252 58 C 252 62.525, 253.578 63.445, 254.144 59.250 C 254.909 53.584, 254.169 52.200, 250.374 52.200 C 248.407 52.200, 246.640 52.774, 246.360 53.505 M 266 57 C 266 59.750, 266.450 62, 267 62 C 267.550 62, 268 61.100, 268 60 C 268 58.667, 268.667 58, 270 58 C 271.333 58, 272 58.667, 272 60 C 272 61.100, 272.450 62, 273 62 C 273.550 62, 274 59.750, 274 57 C 274 54.250, 273.550 52, 273 52 C 272.450 52, 272 52.900, 272 54 C 272 55.333, 271.333 56, 270 56 C 268.667 56, 268 55.333, 268 54 C 268 52.900, 267.550 52, 267 52 C 266.450 52, 266 54.250, 266 57 M 276 57.187 L 276 62.374 279 59.500 L 282 56.626 282 59.313 C 282 60.791, 282.450 62, 283 62 C 283.550 62, 284 59.891, 284 57.313 L 284 52.626 281 55.500 L 278 58.374 278 55.187 C 278 53.434, 277.550 52, 277 52 C 276.450 52, 276 54.334, 276 57.187 M 287.441 53.439 C 285.860 54.611, 285.712 55.226, 286.643 56.754 C 287.391 57.983, 287.461 59.212, 286.843 60.315 C 285.640 62.466, 286.811 62.481, 289.171 60.345 C 290.873 58.805, 291 58.805, 291 60.345 C 291 61.255, 291.450 62, 292 62 C 292.550 62, 293 59.750, 293 57 C 293 52.843, 292.695 52, 291.191 52 C 290.196 52, 288.509 52.648, 287.441 53.439 M 195.093 54.825 C 194.493 55.947, 193.605 57.908, 193.121 59.183 C 192.286 61.379, 192.460 61.500, 196.464 61.500 L 200.689 61.500 199.252 58 C 197.258 53.145, 196.360 52.459, 195.093 54.825 M 235 57.500 C 235 59.975, 235.450 62, 236 62 C 236.550 62, 237 61.045, 237 59.878 C 237 58.059, 237.225 57.942, 238.576 59.063 C 239.883 60.147, 240.308 60.126, 241.061 58.936 C 241.763 57.827, 241.973 58.012, 241.985 59.750 C 241.993 60.987, 242.450 62, 243 62 C 243.550 62, 244 59.897, 244 57.326 L 244 52.651 241.574 54.931 L 239.148 57.210 237.833 55.105 C 235.817 51.877, 235 52.568, 235 57.500 M 258.200 55.750 C 257.653 57.263, 256.929 59.175, 256.592 60 C 256.104 61.192, 256.885 61.519, 260.400 61.594 L 264.822 61.688 262.712 57.344 C 261.551 54.955, 260.285 53, 259.899 53 C 259.512 53, 258.748 54.237, 258.200 55.750 M 117.152 54.885 C 115.127 56.168, 116.202 59.455, 118.765 59.820 C 121.452 60.203, 122.771 57.634, 120.989 55.487 C 119.575 53.783, 119.026 53.697, 117.152 54.885 M 137.793 56.957 C 137.430 59.433, 137.699 60, 139.240 60 C 140.704 60, 141.061 59.395, 140.816 57.327 C 140.371 53.562, 138.328 53.312, 137.793 56.957 M 175.390 55.426 C 174.480 57.797, 175.767 60.191, 177.747 59.810 C 180.125 59.352, 180.125 54.648, 177.747 54.190 C 176.783 54.004, 175.722 54.560, 175.390 55.426 M 186 55 C 186 55.550, 186.450 56, 187 56 C 187.550 56, 188 55.550, 188 55 C 188 54.450, 187.550 54, 187 54 C 186.450 54, 186 54.450, 186 55 M 204.694 54.639 C 203.895 55.438, 204.798 57, 206.059 57 C 206.577 57, 207 56.325, 207 55.500 C 207 53.954, 205.820 53.513, 204.694 54.639 M 226.390 55.426 C 225.480 57.797, 226.767 60.191, 228.747 59.810 C 231.125 59.352, 231.125 54.648, 228.747 54.190 C 227.783 54.004, 226.722 54.560, 226.390 55.426 M 288.694 54.639 C 287.895 55.438, 288.798 57, 290.059 57 C 290.577 57, 291 56.325, 291 55.500 C 291 53.954, 289.820 53.513, 288.694 54.639 M 195.500 58 C 195.160 58.550, 195.359 59, 195.941 59 C 196.523 59, 197 58.550, 197 58 C 197 57.450, 196.802 57, 196.559 57 C 196.316 57, 195.840 57.450, 195.500 58 M 259.500 58 C 259.160 58.550, 259.359 59, 259.941 59 C 260.523 59, 261 58.550, 261 58 C 261 57.450, 260.802 57, 260.559 57 C 260.316 57, 259.840 57.450, 259.500 58 M 186 59 C 186 59.550, 186.675 60, 187.500 60 C 188.325 60, 189 59.550, 189 59 C 189 58.450, 188.325 58, 187.500 58 C 186.675 58, 186 58.450, 186 59" stroke="none" fill="#ffffff" fill-rule="evenodd"/>
</svg>