<svg xmlns="http://www.w3.org/2000/svg" width="800" height="269" viewBox="0 0 800 269" version="1.1">
	<path d="M 116.641 56.071 C 108.305 65.035, 105.910 69.066, 101.462 81.619 C 99.537 87.054, 97.740 92.113, 97.469 92.863 C 97.080 93.939, 96.670 93.971, 95.521 93.017 C 94.409 92.094, 94.117 89.650, 94.283 82.655 C 94.517 72.789, 93.009 68.388, 88.337 65.300 C 86.227 63.907, 86.185 63.966, 86.659 67.685 C 86.964 70.073, 85.996 76.168, 84.073 83.975 C 82.383 90.836, 81 98.374, 81 100.725 C 81 105.299, 80.509 105.644, 76.561 103.846 C 72.990 102.219, 70.843 98.491, 70.121 92.665 L 69.500 87.654 66.750 92.712 C 61.750 101.909, 62.988 111.066, 71.436 127.382 C 76.061 136.313, 76.073 137.479, 71.519 135.308 C 68.553 133.893, 67.285 133.822, 62.943 134.824 C 60.140 135.471, 56.462 136, 54.769 136 C 51.764 136, 51.733 136.047, 53.482 137.980 C 54.468 139.069, 58.925 141.360, 63.387 143.071 C 74.762 147.432, 79.482 152, 72.612 152 C 70.749 152, 66.211 153.410, 62.528 155.134 C 56.520 157.945, 55.205 158.202, 49.735 157.630 C 46.382 157.280, 42.594 156.309, 41.319 155.473 C 38.159 153.403, 38.406 154.451, 42.235 159.356 C 49.466 168.621, 51.929 169.464, 72 169.537 C 85.530 169.587, 89.220 169.917, 92.500 171.371 L 96.500 173.143 93.524 174.722 C 91.887 175.590, 88.962 177.817, 87.024 179.669 C 85.086 181.522, 82.491 183.302, 81.257 183.626 C 78.013 184.476, 79.391 185.786, 84.305 186.523 C 87.159 186.951, 91.587 186.452, 97.731 185.009 C 102.773 183.826, 108.158 183.002, 109.699 183.179 L 112.500 183.500 108.766 185.821 C 106.713 187.098, 103.113 190.657, 100.766 193.729 C 95.536 200.577, 92.717 202.726, 85.966 205.011 C 80.947 206.711, 80.825 206.836, 83.036 208.019 C 86.086 209.651, 94.104 209.402, 100.755 207.469 C 107.587 205.483, 114.289 201.278, 120 195.396 C 124.930 190.318, 131.115 186.956, 134.094 187.735 C 136.400 188.338, 136.480 189.337, 134.468 192.408 C 133.087 194.516, 130.597 205.930, 131.353 206.687 C 131.524 206.857, 133.158 204.860, 134.986 202.248 C 139.826 195.331, 145.143 190, 147.203 190 C 149.535 190, 149.467 190.958, 146.463 200.364 C 143.807 208.680, 143.870 213.116, 146.713 218 C 148.451 220.984, 151.921 223.706, 154.577 224.167 C 156.301 224.465, 156.565 223.671, 157.131 216.500 C 157.592 210.659, 158.739 206.105, 161.381 199.624 C 163.831 193.616, 165 189.174, 165 185.874 C 165 183.185, 165.463 181, 166.034 181 C 166.602 181, 168.051 182.666, 169.252 184.703 L 171.437 188.406 172.224 184.953 C 172.657 183.054, 172.743 179.074, 172.416 176.109 C 171.888 171.325, 172.011 170.790, 173.511 171.366 C 177.080 172.735, 180.973 176.733, 184.475 182.624 C 188.964 190.174, 191.532 193, 193.903 193 C 195.610 193, 195.585 192.718, 193.513 188.625 C 191.888 185.415, 191.245 182.214, 191.096 176.593 C 190.916 169.804, 188.705 158.697, 186.549 153.750 C 185.574 151.514, 187.721 151.416, 190.777 153.557 C 192.896 155.041, 193 154.997, 193 152.622 C 193 151.251, 192.537 148.913, 191.972 147.426 C 191.407 145.939, 191.115 144.552, 191.323 144.344 C 191.532 144.135, 193.682 144.863, 196.101 145.960 C 198.979 147.266, 202.681 147.964, 206.807 147.978 C 213.401 148.001, 221.614 149.595, 223.750 151.267 C 225.642 152.748, 225.316 149.998, 223.222 146.823 C 220.891 143.290, 217.040 140.335, 209.607 136.379 C 203.063 132.896, 190.183 122.289, 190.069 120.289 C 190.031 119.622, 191.912 118.588, 194.250 117.989 C 201.726 116.075, 201.738 116.066, 199.121 114.092 C 197.820 113.110, 194.559 111.517, 191.874 110.552 C 186.177 108.503, 184.822 107.052, 188.441 106.875 C 189.848 106.806, 191.450 106.638, 192 106.500 C 192.550 106.362, 194.174 106.194, 195.608 106.125 C 197.340 106.042, 199.656 104.433, 202.496 101.339 C 206.594 96.876, 207.067 96.650, 213.638 96.026 L 220.500 95.374 215.500 93.077 C 210.820 90.927, 209.571 90.812, 196 91.269 C 181.825 91.747, 174.326 90.745, 174.611 88.411 C 174.673 87.910, 176.473 86.646, 178.611 85.603 L 182.500 83.706 179.880 82.813 C 177.437 81.980, 174.457 82.636, 167.699 85.492 C 166.130 86.155, 165.987 85.883, 166.587 83.376 C 167.580 79.235, 167.824 78.966, 172.441 76.923 C 177.446 74.709, 179.593 72.505, 180.575 68.573 L 181.306 65.646 178.403 67.644 C 176.806 68.743, 170.884 70.593, 165.242 71.755 C 159.023 73.036, 153.950 74.681, 152.357 75.934 C 150.912 77.070, 149.341 78, 148.865 78 C 147.732 78, 147.746 73.674, 148.883 72.450 C 149.368 71.927, 150.666 69.424, 151.766 66.888 L 153.766 62.275 145.133 65.012 C 132.879 68.896, 131.296 69.621, 127.703 72.988 C 125.941 74.640, 123.973 75.993, 123.329 75.995 C 120.854 76.005, 120.916 70.461, 123.466 63.686 C 126.317 56.113, 126.591 53.191, 124.695 50.598 C 123.502 48.966, 122.811 49.436, 116.641 56.071 M 725 71.855 C 718.896 73.166, 711.770 77.354, 708.886 81.326 C 704.056 87.977, 702.694 92.986, 703.201 102.226 C 703.724 111.770, 705.908 116.956, 711.455 121.826 C 716.545 126.295, 719.841 127.776, 727.374 128.980 C 739.814 130.967, 752.817 127.389, 759.081 120.255 C 763.346 115.397, 765.031 111.020, 765.698 103.064 C 766.556 92.829, 764.158 85.791, 757.664 79.486 C 754.762 76.668, 750.748 73.906, 748.500 73.178 C 743.632 71.604, 729.799 70.825, 725 71.855 M 239 100.530 L 239 129.060 251.656 128.780 L 264.312 128.500 270.906 113.822 C 274.533 105.748, 277.837 98.811, 278.250 98.405 C 278.663 97.999, 279 104.732, 279 113.368 L 279 129.070 289.250 128.785 L 299.500 128.500 299.766 100.220 L 300.031 71.940 287.320 72.220 L 274.609 72.500 268.054 87.490 L 261.500 102.479 261.224 87.240 L 260.948 72 249.974 72 L 239 72 239 100.530 M 308.452 73.265 C 308.185 73.961, 308.086 86.673, 308.233 101.515 L 308.500 128.500 319 128.500 L 329.500 128.500 329.785 118.250 L 330.070 108 337 108 L 343.930 108 344.215 118.250 L 344.500 128.500 355.500 128.500 L 366.500 128.500 366.500 100.500 L 366.500 72.500 355.500 72.500 L 344.500 72.500 344.212 81.750 L 343.925 91 336.962 91 L 330 91 330 81.500 L 330 72 319.469 72 C 311.900 72, 308.801 72.356, 308.452 73.265 M 371 80.500 L 371 89 380.479 89 L 389.958 89 390.229 108.750 L 390.500 128.500 401 128.500 L 411.500 128.500 411.771 108.750 L 412.042 89 421.521 89 L 431 89 431 80.500 L 431 72 401 72 L 371 72 371 80.500 M 436.234 100.250 L 436.500 128.500 461 128.500 L 485.500 128.500 485.796 121.750 L 486.091 115 472.046 115 L 458 115 458 111 L 458 107 471 107 L 484 107 484 100 L 484 93 471 93 L 458 93 458 89.500 L 458 86 471.500 86 L 485 86 485 79 L 485 72 460.484 72 L 435.969 72 436.234 100.250 M 492.480 73.192 C 492.197 73.928, 492.086 86.673, 492.233 101.515 L 492.500 128.500 503 128.500 L 513.500 128.500 514 120.500 L 514.500 112.500 525 111.926 C 536.390 111.303, 537.854 110.921, 542.759 107.294 C 547.822 103.551, 550.298 97.793, 549.801 90.919 C 549.254 83.365, 545.786 78.057, 539.316 74.871 C 534.799 72.647, 533.213 72.480, 513.746 72.178 C 497.116 71.919, 492.891 72.121, 492.480 73.192 M 575.234 100.179 L 575.500 128.500 586 128.500 L 596.500 128.500 596.790 120.250 L 597.081 112 606.391 112 C 616.592 112, 620.813 110.977, 625.759 107.304 C 630.825 103.543, 633.298 97.790, 632.801 90.919 C 632.254 83.365, 628.786 78.057, 622.316 74.871 C 617.785 72.640, 616.242 72.481, 596.234 72.179 L 574.969 71.857 575.234 100.179 M 643.717 99.676 C 638.251 115.169, 634.332 127.732, 634.815 128.215 C 635.289 128.689, 640.082 128.947, 645.467 128.788 L 655.257 128.500 657.379 122.603 L 659.500 116.707 667.330 116.597 C 671.636 116.537, 675.514 116.941, 675.948 117.494 C 676.381 118.047, 677.506 120.862, 678.448 123.750 L 680.161 129 691.021 129 C 696.995 129, 702.079 128.662, 702.319 128.250 C 702.692 127.610, 698.269 114.786, 685.419 79.250 L 682.797 72 668.140 72 L 653.482 72 643.717 99.676 M 514 91.861 L 514 99 518.066 99 C 524.641 99, 527.957 96.628, 527.985 91.905 C 528.006 88.215, 525.070 86.033, 519.137 85.330 L 514 84.721 514 91.861 M 597 91.861 L 597 99 601.365 99 C 606.883 99, 611 96.044, 611 92.082 C 611 88.215, 608.148 86.042, 602.137 85.330 L 597 84.721 597 91.861 M 729.541 86.602 C 726.849 89.294, 726 92.584, 726.002 100.315 C 726.003 105.156, 726.574 108.638, 727.752 110.989 C 731.324 118.119, 739.216 117.264, 741.827 109.464 C 743.805 103.559, 743.004 91.825, 740.384 88.301 C 737.821 84.854, 732.174 83.969, 729.541 86.602 M 665.057 93.273 C 663.779 97.248, 662.521 101.063, 662.260 101.750 C 661.916 102.658, 663.321 103, 667.393 103 C 670.477 103, 673 102.629, 673 102.175 C 673 101.230, 668.171 86.838, 667.694 86.361 C 667.521 86.187, 666.334 89.298, 665.057 93.273 M 118.265 91.025 C 110.676 93.506, 100.868 100.801, 96.394 107.293 C 90.539 115.789, 88.616 122.261, 88.606 133.500 C 88.599 142.234, 88.959 144.368, 91.446 150.352 C 100.097 171.165, 123.994 182.570, 145.217 176.015 C 164.427 170.081, 177 153.306, 177 133.608 C 177 115.566, 167.525 100.652, 151.069 92.792 C 145.317 90.044, 143.256 89.612, 134.500 89.321 C 126.492 89.054, 123.258 89.393, 118.265 91.025 M 134.813 92.683 C 135.534 92.972, 136.397 92.936, 136.729 92.604 C 137.061 92.272, 136.471 92.036, 135.417 92.079 C 134.252 92.127, 134.015 92.364, 134.813 92.683 M 119.250 94.247 C 117.463 94.820, 116 95.674, 116 96.145 C 116 96.615, 115.282 97, 114.404 97 C 112.863 97, 107.898 100.077, 105.179 102.717 C 104.083 103.780, 104.083 104.005, 105.179 104.030 C 105.905 104.047, 105.600 104.559, 104.500 105.167 C 101.250 106.964, 98.046 110.202, 96.551 113.199 C 94.914 116.480, 96.200 116.949, 99.842 114.398 C 101.100 113.517, 102.372 113.038, 102.667 113.334 C 102.963 113.630, 104.323 113.447, 105.689 112.928 C 107.520 112.232, 108.066 112.302, 107.769 113.194 C 107.334 114.499, 109.901 118, 111.294 118 C 111.761 118, 112.877 117.266, 113.775 116.368 C 115.284 114.859, 115.241 114.789, 113.203 115.435 C 110.960 116.147, 110.444 115.405, 111.765 113.366 C 112.471 112.276, 120.889 111.918, 120.805 112.981 C 120.512 116.644, 121.231 117.807, 124.044 118.220 C 125.718 118.465, 127.324 118.284, 127.613 117.817 C 127.902 117.350, 128.577 117.238, 129.113 117.570 C 130.792 118.608, 132.995 115.890, 133.118 112.628 L 133.237 109.500 134 112.500 C 134.420 114.150, 134.817 115.107, 134.882 114.628 C 134.947 114.148, 135.563 114.181, 136.250 114.701 C 138.161 116.146, 142 116.048, 142 114.554 C 142 113.828, 142.898 112.999, 143.995 112.712 C 145.092 112.425, 146.297 111.360, 146.672 110.345 C 147.995 106.765, 149.432 107.106, 151.551 111.503 C 152.715 113.918, 154.256 116.604, 154.976 117.471 C 156.807 119.677, 155.321 120.750, 153.272 118.701 C 151.698 117.127, 151.520 117.194, 150.454 119.760 C 149.459 122.155, 149.610 122.777, 151.658 124.702 C 153.992 126.897, 154.820 131.375, 153.089 132.445 C 152.053 133.086, 152.171 134.884, 153.378 136.817 C 153.830 137.541, 153.906 138.428, 153.546 138.788 C 153.186 139.148, 152.490 138.793, 152 138 C 150.549 135.652, 149.855 137.487, 151.027 140.572 C 152.644 144.825, 151.435 147.700, 146.797 150.628 C 143.086 152.971, 142.815 153.392, 144.316 154.489 C 146.402 156.014, 146.477 157.603, 144.500 158.362 C 142.679 159.060, 140.399 158.298, 136.750 155.769 L 134 153.864 134 163.932 L 134 174 136.757 174 C 142.789 174, 149.312 170.529, 158.250 162.560 C 159.213 161.702, 160.465 161, 161.034 161 C 162.526 161, 168 155.176, 168 153.588 C 168 152.849, 168.675 151.685, 169.500 151 C 170.325 150.315, 170.986 149.023, 170.968 148.128 C 170.941 146.760, 170.702 146.810, 169.468 148.441 C 168.279 150.014, 168 150.082, 168 148.798 C 168 147.927, 168.621 146.976, 169.380 146.685 C 171.258 145.964, 174.003 137.560, 173.988 132.572 C 173.962 123.449, 167.741 108.613, 163.222 106.894 C 161.934 106.405, 161.134 105.592, 161.445 105.090 C 161.755 104.587, 160.320 102.851, 158.255 101.232 C 152.717 96.892, 150.712 96.022, 148.759 97.115 C 146.440 98.413, 148.358 102.622, 151.643 103.447 C 153.479 103.907, 153.769 104.332, 152.890 105.273 C 151.742 106.502, 147.815 106.714, 145 105.699 C 144.175 105.402, 142.825 104.933, 142 104.658 C 140.834 104.269, 140.890 104.140, 142.250 104.079 C 143.213 104.036, 144 103.536, 144 102.969 C 144 100.933, 140.805 100.767, 138.178 102.666 C 136.705 103.730, 134.288 104.494, 132.806 104.365 C 130.973 104.204, 130.268 104.535, 130.600 105.400 C 130.986 106.405, 129.843 106.470, 125.137 105.712 C 119.957 104.878, 119.125 104.436, 118.717 102.298 C 118.412 100.707, 118.774 99.640, 119.745 99.267 C 121.480 98.602, 131.146 101.814, 132.235 103.418 C 132.639 104.013, 132.976 103.268, 132.985 101.762 C 132.996 99.760, 132.530 99.063, 131.250 99.170 C 126.818 99.542, 124.796 98.975, 125.354 97.519 C 125.764 96.452, 125.304 96.102, 123.711 96.269 C 122.495 96.396, 121.169 96.950, 120.765 97.500 C 120.324 98.100, 120.025 97.944, 120.015 97.110 C 120.007 96.346, 120.787 95.123, 121.750 94.392 C 123.775 92.855, 123.618 92.846, 119.250 94.247 M 127.670 95.417 C 126.948 97.298, 129.874 98.349, 131.674 96.856 C 132.822 95.903, 132.846 95.519, 131.797 94.854 C 129.849 93.618, 128.278 93.832, 127.670 95.417 M 134 100.333 C 134 103.471, 134.935 104.207, 136.690 102.452 C 137.960 101.183, 137.954 100.811, 136.643 99.500 C 134.575 97.433, 134 97.614, 134 100.333 M 115.667 103.667 C 114.711 104.622, 114.845 106, 115.893 106 C 116.384 106, 117.045 105.325, 117.362 104.500 C 117.947 102.976, 116.881 102.452, 115.667 103.667 M 140.733 109.124 C 141.412 109.808, 142.219 110.115, 142.526 109.807 C 142.834 109.499, 142.279 108.940, 141.293 108.564 C 139.868 108.022, 139.753 108.136, 140.733 109.124 M 99.507 122.254 C 99.514 127.966, 102.092 134, 104.526 134 C 106.417 134, 106.415 132.589, 104.521 131.017 C 103.383 130.073, 103.291 129.325, 104.121 127.774 C 104.958 126.210, 104.918 125.932, 103.942 126.536 C 102.652 127.333, 102.847 125.762, 104.556 121.586 C 105.109 120.237, 104.994 119.885, 104.170 120.395 C 103.421 120.858, 103 120.376, 103 119.059 C 103 117.763, 102.351 117.001, 101.250 117.004 C 99.805 117.007, 99.501 117.923, 99.507 122.254 M 106 126.772 C 106 127.277, 106.946 128.546, 108.102 129.592 C 110.187 131.479, 110.201 131.474, 109.852 129.007 C 109.528 126.715, 106 124.667, 106 126.772 M 114.933 128.750 C 114.895 129.162, 114.674 130.963, 114.441 132.750 C 114.208 134.537, 114.388 136, 114.841 136 C 115.856 136, 117.992 129.325, 117.223 128.556 C 116.420 127.753, 115.011 127.873, 114.933 128.750 M 156.079 129.583 C 156.127 130.748, 156.364 130.985, 156.683 130.188 C 156.972 129.466, 156.936 128.603, 156.604 128.271 C 156.272 127.939, 156.036 128.529, 156.079 129.583 M 156.429 134 C 156.429 135.100, 156.782 136, 157.214 136 C 157.646 136, 158 135.100, 158 134 C 158 132.900, 157.646 132, 157.214 132 C 156.782 132, 156.429 132.900, 156.429 134 M 167.141 140 C 167.141 140.825, 167.527 142.400, 168 143.500 C 168.542 144.761, 168.859 144.945, 168.859 144 C 168.859 143.175, 168.473 141.600, 168 140.500 C 167.458 139.239, 167.141 139.055, 167.141 140 M 102 143.500 C 102 144.875, 102.388 146, 102.861 146 C 103.335 146, 103.508 144.875, 103.245 143.500 C 102.982 142.125, 102.594 141, 102.383 141 C 102.173 141, 102 142.125, 102 143.500 M 109.015 142.691 C 109.007 143.896, 109.480 145.179, 110.067 145.541 C 111.704 146.553, 111.793 145.745, 110.347 143 C 109.083 140.602, 109.029 140.590, 109.015 142.691 M 239 143.502 C 239 144.835, 268.650 144.975, 502.167 144.752 C 711.632 144.551, 765.418 144.245, 765.750 143.250 C 766.083 142.252, 713.006 142, 502.583 142 C 268.808 142, 239 142.170, 239 143.502 M 112.473 150.700 C 111.553 156.192, 111.169 156.925, 111.079 153.359 C 111.008 150.534, 110.649 150.178, 107.500 149.810 C 103.597 149.355, 102.762 150.418, 106.250 151.401 L 108.500 152.035 106.085 154.061 C 104.757 155.176, 103.064 155.855, 102.323 155.570 C 101.309 155.181, 101.136 155.727, 101.626 157.777 C 102.488 161.390, 104.016 163.208, 105.660 162.577 C 106.495 162.256, 107 162.791, 107 163.996 C 107 165.060, 107.954 166.440, 109.121 167.065 C 110.836 167.982, 111.093 167.941, 110.466 166.850 C 110.040 166.107, 110.998 166.693, 112.595 168.152 C 116.079 171.332, 123.578 174, 129.035 174 L 133 174 133 163.417 C 133 157.596, 132.662 152.998, 132.250 153.199 C 127.336 155.593, 126.099 156.512, 125.691 158.074 C 125.428 159.081, 125.727 160.115, 126.356 160.373 C 127.190 160.715, 127.181 160.863, 126.321 160.921 C 124.556 161.039, 122.090 158.206, 121.333 155.190 C 120.964 153.721, 120.104 151.961, 119.421 151.278 C 118.737 150.595, 118.026 149.637, 117.839 149.150 C 117.653 148.663, 116.512 147.957, 115.305 147.582 C 113.370 146.981, 113.034 147.351, 112.473 150.700 M 152.329 152.094 C 152.683 153.417, 152.979 155.089, 152.986 155.809 C 152.994 156.529, 153.390 156.877, 153.866 156.583 C 154.965 155.904, 154.102 151.181, 152.723 150.329 C 152.056 149.916, 151.915 150.546, 152.329 152.094 M 163.250 153.662 C 162.563 153.940, 162 155.084, 162 156.205 C 162 158.080, 162.176 158.127, 164.195 156.786 C 168.081 154.206, 167.408 151.984, 163.250 153.662 M 159.459 157.067 C 159.096 157.653, 159.014 158.348, 159.276 158.610 C 159.538 158.872, 160.019 158.392, 160.345 157.543 C 161.021 155.781, 160.445 155.471, 159.459 157.067 M 342.448 158.731 C 342.709 159.407, 345.640 164.003, 348.961 168.942 C 352.283 173.882, 355 178.181, 355 178.495 C 355 178.809, 351.931 183.664, 348.180 189.283 C 344.429 194.903, 341.028 200.063, 340.621 200.750 C 340.049 201.717, 342.237 202, 350.297 202 L 360.713 202 365.303 192.250 L 369.893 182.500 369.946 192.083 C 369.976 197.354, 370.185 201.854, 370.412 202.083 C 370.639 202.312, 374.464 202.353, 378.912 202.174 L 387 201.848 387.038 192.174 L 387.076 182.500 392.288 192.376 L 397.500 202.252 407.250 202.376 C 412.613 202.444, 417 202.129, 417 201.676 C 417 201.222, 413.602 195.846, 409.448 189.729 L 401.897 178.606 408.854 168.303 L 415.811 158 406.446 158 L 397.082 158 392.057 167.250 L 387.032 176.500 387.016 167.250 L 387 158 378.539 158 L 370.078 158 369.789 166.553 L 369.500 175.106 365 166.617 L 360.500 158.128 351.236 157.814 C 344.212 157.576, 342.088 157.798, 342.448 158.731 M 109.115 158.908 C 107.993 159.618, 108.095 159.980, 109.651 160.813 C 111.235 161.661, 111.571 161.505, 111.571 159.921 C 111.571 157.790, 111.153 157.617, 109.115 158.908 M 147.992 161.011 C 144.436 164.050, 141.799 164.906, 142.250 162.875 C 142.387 162.256, 141.875 161.523, 141.111 161.245 C 140.202 160.915, 139.986 161.168, 140.486 161.977 C 141.053 162.895, 140.639 163.020, 138.883 162.463 C 136.687 161.766, 136.623 161.844, 138.008 163.543 C 139.354 165.195, 139.332 165.312, 137.782 164.731 C 136.837 164.377, 135.856 164.424, 135.602 164.834 C 135.348 165.245, 136.796 165.652, 138.820 165.739 C 142.236 165.885, 144.373 165.417, 149.500 163.401 C 150.600 162.968, 152.175 162.589, 153 162.557 C 153.839 162.525, 154.622 161.399, 154.777 160 C 155.036 157.664, 154.976 157.629, 153.862 159.456 C 152.786 161.222, 152.613 161.248, 152.077 159.719 C 151.563 158.253, 151.017 158.425, 147.992 161.011 M 239 180.035 L 239 202.070 249.116 201.785 L 259.233 201.500 264.366 190.159 L 269.500 178.819 269.781 190.337 L 270.062 201.855 278.619 202.177 C 283.325 202.355, 287.361 202.313, 287.588 202.083 C 287.815 201.854, 288 191.842, 288 179.833 L 288 158 277.604 158 L 267.207 158 261.854 169.966 L 256.500 181.932 256.219 169.966 L 255.938 158 247.469 158 L 239 158 239 180.035 M 292 180 L 292 202 300.500 202 L 309 202 309 193.950 L 309 185.900 314.750 186.200 L 320.500 186.500 320.500 194 L 320.500 201.500 328.500 202 C 332.900 202.275, 336.837 202.361, 337.250 202.191 C 337.663 202.021, 338 192.009, 338 179.941 L 338 158 329.250 157.998 L 320.500 157.997 320.500 165.248 L 320.500 172.500 314.750 172.800 L 309 173.100 309 165.550 L 309 158 300.500 158 L 292 158 292 180 M 419 180 L 419 202 429.360 202 L 439.720 202 444.552 191.250 C 447.210 185.338, 449.748 180.072, 450.192 179.550 C 450.636 179.028, 451 183.832, 451 190.227 L 451 201.853 459.502 202.177 L 468.005 202.500 468.002 180.215 L 468 157.930 457.875 158.215 L 447.750 158.500 442.403 170.500 L 437.056 182.500 437.028 170.250 L 437 158 428 158 L 419 158 419 180 M 473 180 L 473 202 481.500 202 L 490 202 490 194 L 490 186 495.500 186 L 501 186 501 193.927 L 501 201.853 509.588 202.177 C 514.311 202.354, 518.361 202.313, 518.588 202.083 C 518.815 201.854, 519 191.842, 519 179.833 L 519 158 510 158 L 501 158 501 165.500 L 501 173 495.500 173 L 490 173 490 165.500 L 490 158 481.500 158 L 473 158 473 180 M 523.231 180.093 L 523.500 202.185 533.342 202.167 C 538.755 202.158, 543.354 201.979, 543.562 201.771 C 543.770 201.564, 546.016 196.692, 548.552 190.947 C 551.089 185.201, 553.578 180.072, 554.082 179.550 C 554.641 178.972, 555 183.177, 555 190.300 L 555 202 563.500 202 L 572 202 572 180 L 572 158 561.750 158.018 L 551.500 158.036 546.500 169.746 L 541.500 181.455 541.218 169.727 L 540.937 158 531.949 158 L 522.962 158 523.231 180.093 M 576.500 180 L 576.500 202 585.250 202 L 594 202 594 196 C 594 192.700, 594.112 189.973, 594.250 189.941 C 594.388 189.908, 598.100 189.644, 602.500 189.354 C 612.166 188.718, 617.685 186.118, 620.248 180.995 C 624.175 173.147, 621.427 164.077, 613.964 160.250 C 609.936 158.184, 608.222 158, 593.038 158 L 576.500 158 576.500 180 M 625.231 180.121 L 625.500 202.242 635.372 202.166 C 640.801 202.124, 645.474 201.859, 645.755 201.578 C 646.037 201.297, 648.670 195.764, 651.608 189.283 L 656.949 177.500 656.974 189.677 L 657 201.853 665.502 202.177 L 674.005 202.500 674.002 180.215 L 674 157.930 663.875 158.215 L 653.750 158.500 648.403 170.500 L 643.056 182.500 643.028 170.250 L 643 158 633.981 158 L 624.962 158 625.231 180.121 M 679 180 L 679 202 687.500 202 L 696 202 696 194 L 696 186 701.500 186 L 707 186 707 193.927 L 707 201.853 715.588 202.177 C 720.311 202.354, 724.361 202.313, 724.588 202.083 C 724.815 201.854, 725 191.842, 725 179.833 L 725 158 716 158 L 707 158 707 165.500 L 707 173 701.500 173 L 696 173 696 165.500 L 696 158 687.500 158 L 679 158 679 180 M 729.231 180.096 L 729.500 202.192 738 202.192 L 746.500 202.192 746.775 186.633 L 747.050 171.074 756.275 170.787 L 765.500 170.500 765.798 164.250 L 766.095 158 747.529 158 L 728.962 158 729.231 180.096 M 593.760 168.750 C 593.562 169.162, 593.423 171.525, 593.451 174 C 593.498 178.354, 593.608 178.510, 596.821 178.819 C 600.813 179.202, 605 176.723, 605 173.977 C 605 170.865, 601.434 168, 597.559 168 C 595.666 168, 593.957 168.338, 593.760 168.750" stroke="none" fill="#ffffff" fill-rule="evenodd"/>
</svg>