<svg xmlns="http://www.w3.org/2000/svg" width="255" height="69" viewBox="0 0 255 69" version="1.1">
	<path d="M -0 34.504 L -0 69.008 127.750 68.754 L 255.500 68.500 255.763 34.250 L 256.026 0 128.013 0 L 0 0 -0 34.504 M 0.450 35 C 0.450 53.975, 0.584 61.737, 0.748 52.250 C 0.913 42.762, 0.913 27.237, 0.748 17.750 C 0.584 8.262, 0.450 16.025, 0.450 35 M 44.762 10.913 C 39.809 13.778, 40.488 15, 47.031 15 C 53.617 15, 54.388 14.097, 50.250 11.232 C 47.696 9.464, 47.305 9.441, 44.762 10.913 M 30.975 16.565 C 30.439 17.976, 30 20.001, 30 21.065 C 30 22.129, 29.438 23.016, 28.750 23.036 C 28.063 23.056, 26.228 24.113, 24.673 25.385 C 21.893 27.659, 21.872 27.757, 23.372 31.349 C 24.211 33.357, 25.114 35, 25.378 35 C 25.642 35, 26.547 32.631, 27.389 29.735 C 28.918 24.476, 32.964 19.543, 37.778 17.070 C 40.833 15.501, 39.678 14, 35.416 14 C 32.616 14, 31.763 14.493, 30.975 16.565 M 86.701 18.632 C 86.316 19.018, 86 22.858, 86 27.167 C 86 34.856, 86.046 35, 88.500 35 C 90.611 35, 91 34.533, 91 32 C 91 30.350, 91.438 29, 91.974 29 C 92.510 29, 93.647 30.350, 94.500 32 C 95.590 34.107, 96.788 35, 98.526 35 C 101.587 35, 101.616 34.188, 98.705 29.890 L 96.410 26.500 98.705 23.102 C 101.597 18.820, 101.584 18, 98.621 18 C 96.921 18, 95.888 18.856, 95 21 C 93.447 24.749, 91.235 24.886, 90.816 21.259 C 90.514 18.638, 88.183 17.150, 86.701 18.632 M 113.993 18.187 C 113.989 18.359, 112.864 21.806, 111.493 25.846 C 108.436 34.853, 108.434 35, 111.383 35 C 112.926 35, 113.951 34.294, 114.290 33 C 114.599 31.817, 115.654 31, 116.871 31 C 118.003 31, 119.411 31.900, 120 33 C 120.589 34.100, 121.990 35, 123.115 35 C 124.888 35, 125.067 34.582, 124.466 31.846 C 124.085 30.111, 122.997 26.398, 122.048 23.596 C 120.508 19.048, 119.982 18.466, 117.161 18.187 C 115.422 18.014, 113.997 18.014, 113.993 18.187 M 138 18.776 C 135.310 19.590, 134 22.296, 134 27.036 C 134 33.053, 136.036 35, 142.329 35 C 144.898 35, 147 34.605, 147 34.122 C 147 32.722, 144.709 31.221, 142 30.846 C 139.909 30.557, 139.449 29.887, 139.190 26.750 C 138.894 23.175, 139.020 23, 141.904 23 C 144.441 23, 147 20.897, 147 18.811 C 147 18.303, 139.657 18.274, 138 18.776 M 157 26.500 C 157 34.887, 157.066 35.130, 159.250 34.820 C 160.874 34.589, 161.500 33.828, 161.500 32.083 C 161.500 28.533, 163.535 28.462, 164.984 31.962 C 165.986 34.380, 166.848 35, 169.207 35 L 172.171 35 169.762 30.690 L 167.353 26.380 169.560 22.940 C 171.991 19.150, 171.853 18, 168.967 18 C 167.850 18, 166.405 19.251, 165.500 21 C 163.905 24.084, 162.089 24.963, 161.885 22.750 C 161.821 22.063, 161.709 20.825, 161.635 20 C 161.561 19.175, 160.488 18.356, 159.250 18.180 C 157.066 17.870, 157 18.113, 157 26.500 M 183.030 24.691 C 181.882 28.436, 180.701 32.288, 180.404 33.250 C 179.992 34.587, 180.443 35, 182.316 35 C 183.926 35, 184.946 34.314, 185.290 33 C 185.639 31.666, 186.654 31, 188.339 31 C 189.987 31, 191.086 31.695, 191.500 33 C 192.295 35.504, 196.036 35.715, 195.913 33.250 C 195.865 32.288, 194.852 28.575, 193.663 25 C 191.653 18.959, 191.275 18.478, 188.308 18.191 C 185.173 17.887, 185.080 18.002, 183.030 24.691 M 205.338 20.129 C 205.687 21.433, 205.979 25.313, 205.986 28.750 L 206 35 212.477 35 C 218.296 35, 219.122 34.744, 220.605 32.480 C 222.433 29.690, 222.115 21.715, 220.095 19.695 C 219.472 19.072, 215.755 18.382, 211.833 18.160 C 204.743 17.760, 204.707 17.771, 205.338 20.129 M 211.667 22.667 C 211.300 23.033, 211 25.088, 211 27.233 C 211 30.897, 211.166 31.114, 213.750 30.816 C 215.927 30.566, 216.567 29.914, 216.822 27.690 C 217.288 23.629, 213.953 20.380, 211.667 22.667 M 65 23.386 C 65 23.598, 65.672 25.060, 66.494 26.636 C 67.315 28.211, 67.997 30.175, 68.009 31 C 68.021 31.825, 68.453 33.168, 68.969 33.984 C 69.710 35.155, 70.232 34.689, 71.453 31.766 C 72.304 29.730, 73 27.861, 73 27.614 C 73 27.062, 66.513 23, 65.632 23 C 65.284 23, 65 23.174, 65 23.386 M 116.719 23.615 C 115.419 24.914, 115.969 28, 117.500 28 C 119.129 28, 119.236 27.454, 118.148 24.698 C 117.757 23.707, 117.114 23.219, 116.719 23.615 M 187.682 24.652 C 186.451 25.882, 186.969 28, 188.500 28 C 190.166 28, 190.374 27.138, 189.166 25.235 C 188.725 24.539, 188.057 24.277, 187.682 24.652 M 23.424 39.527 C 21.993 42.952, 22.031 43.124, 24.725 45.495 C 26.251 46.838, 28.035 47.951, 28.688 47.968 C 29.341 47.986, 29.842 48.788, 29.802 49.750 C 29.761 50.712, 30.228 52.737, 30.839 54.250 C 31.751 56.507, 32.572 57, 35.416 57 C 39.678 57, 40.833 55.499, 37.778 53.930 C 32.964 51.457, 28.918 46.524, 27.389 41.265 C 26.547 38.369, 25.642 36, 25.378 36 C 25.114 36, 24.235 37.587, 23.424 39.527 M 68.415 38.605 C 68.032 40.197, 67.074 42.779, 66.286 44.343 C 64.331 48.220, 65.308 48.732, 69.360 45.956 C 72.520 43.790, 72.691 43.403, 71.746 40.561 C 70.223 35.985, 69.191 35.379, 68.415 38.605 M 61.945 50.566 C 61.230 51.427, 59.361 52.796, 57.790 53.609 C 54.273 55.427, 55.019 57, 59.399 57 C 61.943 57, 62.939 56.429, 63.839 54.453 C 66.006 49.699, 64.770 47.163, 61.945 50.566 M 43.306 58.532 C 44.849 59.889, 46.736 61, 47.500 61 C 48.264 61, 50.151 59.889, 51.694 58.532 L 54.500 56.063 47.500 56.063 L 40.500 56.063 43.306 58.532" stroke="none" fill="#ffffff" fill-rule="evenodd"/>
</svg>