<svg xmlns="http://www.w3.org/2000/svg" width="272" height="45" viewBox="0 0 272 45" version="1.1">
	<path d="M 24.714 4.714 C 23.154 6.275, 23.153 6.512, 24.704 8.225 C 26.254 9.938, 26.253 10.176, 24.683 11.745 C 23.106 13.323, 22.894 13.322, 21.306 11.735 C 19.734 10.163, 19.482 10.159, 17.798 11.683 C 16.092 13.227, 16.084 13.436, 17.675 15.193 C 19.248 16.931, 19.250 17.178, 17.714 18.714 C 16.178 20.250, 15.931 20.248, 14.193 18.675 C 12.436 17.084, 12.227 17.092, 10.683 18.798 C 9.160 20.481, 9.162 20.733, 10.714 22.286 C 12.275 23.846, 12.512 23.847, 14.225 22.296 C 15.933 20.750, 16.178 20.750, 17.714 22.286 C 19.250 23.822, 19.248 24.069, 17.675 25.807 C 16.081 27.568, 16.099 27.780, 17.992 29.493 C 19.875 31.197, 20.115 31.206, 21.857 29.630 C 23.525 28.120, 23.843 28.106, 24.995 29.494 C 26.050 30.765, 25.985 31.359, 24.630 32.856 C 23.095 34.552, 23.122 34.800, 25.023 36.521 C 26.919 38.237, 27.178 38.250, 28.714 36.714 C 30.250 35.178, 30.248 34.931, 28.675 33.193 C 27.084 31.436, 27.092 31.227, 28.798 29.683 C 30.482 28.159, 30.734 28.163, 32.306 29.735 C 33.894 31.322, 34.106 31.323, 35.683 29.745 C 37.261 28.168, 37.260 27.945, 35.675 26.193 C 34.084 24.436, 34.092 24.227, 35.798 22.683 C 37.482 21.159, 37.734 21.163, 39.306 22.735 C 40.898 24.327, 41.103 24.325, 42.714 22.714 C 44.333 21.095, 44.332 20.904, 42.698 19.270 C 41.218 17.789, 40.662 17.730, 38.857 18.857 C 37.070 19.973, 36.505 19.933, 35.169 18.597 C 33.732 17.160, 33.764 16.893, 35.532 15.600 C 37.440 14.205, 37.441 14.144, 35.574 12.082 C 33.783 10.103, 33.569 10.080, 31.807 11.675 C 30.069 13.248, 29.822 13.250, 28.286 11.714 C 26.750 10.178, 26.752 9.931, 28.325 8.193 C 29.916 6.436, 29.908 6.227, 28.202 4.683 C 26.519 3.160, 26.267 3.162, 24.714 4.714 M 20.958 15.550 C 19.896 16.831, 19.961 17.390, 21.336 18.764 C 22.888 20.317, 23.112 20.317, 24.664 18.764 C 26.039 17.390, 26.104 16.831, 25.042 15.550 C 24.334 14.698, 23.415 14, 23 14 C 22.585 14, 21.666 14.698, 20.958 15.550 M 28 15.500 C 27.007 16.697, 27.007 17.303, 28 18.500 C 29.632 20.466, 31.629 20.409, 32.410 18.373 C 33.022 16.779, 31.491 14, 30 14 C 29.585 14, 28.685 14.675, 28 15.500 M 50 15 C 50 15.550, 50.900 16, 52 16 C 53.778 16, 54 16.667, 54 22 C 54 26.667, 54.333 28, 55.500 28 C 56.667 28, 57 26.667, 57 22 C 57 16.667, 57.222 16, 59 16 C 60.100 16, 61 15.550, 61 15 C 61 14.450, 58.525 14, 55.500 14 C 52.475 14, 50 14.450, 50 15 M 63.571 18.571 C 59.311 22.832, 63.770 29.560, 69.418 27.393 C 71.971 26.413, 71.233 24.899, 68.355 25.212 C 66.900 25.370, 65.513 24.938, 65.272 24.250 C 64.983 23.426, 65.883 23, 67.917 23 C 70.219 23, 71 22.544, 71 21.200 C 71 17.265, 66.478 15.665, 63.571 18.571 M 73 17.453 C 73 17.702, 73.514 19.034, 74.142 20.412 C 75.065 22.438, 74.965 23.405, 73.619 25.459 C 72.209 27.611, 72.180 28, 73.427 28 C 74.238 28, 75.373 27.212, 75.950 26.250 C 76.950 24.583, 77.050 24.583, 78.050 26.250 C 78.627 27.212, 79.762 28, 80.573 28 C 81.820 28, 81.791 27.611, 80.381 25.459 C 79.014 23.373, 78.927 22.455, 79.896 20.330 C 81.308 17.229, 80.365 15.780, 78.550 18.263 C 77.411 19.820, 77.120 19.849, 76.009 18.511 C 74.832 17.093, 73 16.448, 73 17.453 M 83 22.500 C 83 26.722, 83.348 28, 84.500 28 C 85.433 28, 86 27.056, 86 25.500 C 86 23.944, 86.567 23, 87.500 23 C 88.805 23, 89.501 24.827, 89.118 27.250 C 89.053 27.663, 89.675 28, 90.500 28 C 91.652 28, 92 26.722, 92 22.500 C 92 18.278, 91.652 17, 90.500 17 C 89.675 17, 89.053 17.337, 89.118 17.750 C 89.444 19.813, 88.853 21, 87.500 21 C 86.667 21, 86 20.111, 86 19 C 86 17.889, 85.333 17, 84.500 17 C 83.348 17, 83 18.278, 83 22.500 M 94.129 22.500 C 94.339 28.922, 95.777 29.603, 98.885 24.750 L 100.966 21.500 100.983 24.750 C 100.995 26.965, 101.478 28, 102.500 28 C 103.652 28, 104 26.722, 104 22.500 C 104 15.993, 102.096 15.086, 99.278 20.250 L 97.505 23.500 97.189 20.250 C 96.991 18.209, 96.329 17, 95.411 17 C 94.284 17, 93.990 18.259, 94.129 22.500 M 106.179 20.143 C 106.449 22.966, 106.938 23.550, 109.250 23.816 C 111.193 24.040, 112 24.700, 112 26.066 C 112 27.130, 112.675 28, 113.500 28 C 114.652 28, 115 26.722, 115 22.500 C 115 18.278, 114.652 17, 113.500 17 C 112.555 17, 112 17.953, 112 19.573 C 112 21.487, 111.551 22.060, 110.250 21.807 C 109.287 21.620, 108.498 20.612, 108.496 19.566 C 108.493 18.520, 107.899 17.466, 107.174 17.225 C 106.221 16.907, 105.946 17.713, 106.179 20.143 M 118.054 18.435 C 117.399 19.224, 117.007 21.353, 117.182 23.167 C 117.429 25.730, 118.116 26.679, 120.266 27.431 C 122.483 28.206, 123.375 28.036, 124.766 26.574 C 126.426 24.830, 126.387 24.778, 123.864 25.366 C 122.130 25.771, 120.806 25.471, 119.992 24.490 C 118.935 23.217, 119.281 23, 122.378 23 C 125.199 23, 126 22.602, 126 21.200 C 126 17.343, 120.538 15.442, 118.054 18.435 M 128.333 19.615 C 126.797 21.959, 126.772 22.504, 128.093 24.865 C 129.823 27.957, 133.129 28.754, 134.980 26.524 C 136.633 24.532, 135.540 23.307, 133.568 24.944 C 131.614 26.565, 130 25.460, 130 22.500 C 130 19.683, 131.718 18.318, 133.287 19.887 C 134.808 21.408, 136 21.285, 136 19.607 C 136 18.182, 133.933 17, 131.441 17 C 130.674 17, 129.275 18.177, 128.333 19.615 M 138.320 22.500 C 138.191 26.673, 138.494 28, 139.575 28 C 140.359 28, 141 27.100, 141 26 C 141 24.900, 141.420 24, 141.933 24 C 142.446 24, 143.151 24.900, 143.500 26 C 143.863 27.142, 145.013 28, 146.182 28 C 148.129 28, 148.150 27.878, 146.615 25.535 C 144.576 22.424, 144.584 21.117, 146.655 18.829 C 148.198 17.123, 148.192 17, 146.565 17 C 145.606 17, 143.976 18.012, 142.944 19.250 L 141.067 21.500 141.033 19.250 C 141.015 18.012, 140.435 17, 139.745 17 C 138.910 17, 138.432 18.844, 138.320 22.500 M 149.120 22.500 C 148.855 29.044, 150.606 29.870, 153.885 24.750 L 155.966 21.500 155.983 24.750 C 155.995 26.965, 156.478 28, 157.500 28 C 158.652 28, 159 26.722, 159 22.500 C 159 15.993, 157.096 15.086, 154.278 20.250 L 152.505 23.500 152.189 20.250 C 151.650 14.698, 149.368 16.371, 149.120 22.500 M 161.333 19.615 C 159.795 21.961, 159.771 22.502, 161.098 24.865 C 162.161 26.759, 163.386 27.500, 165.455 27.500 C 167.038 27.500, 168.537 26.890, 168.785 26.145 C 169.104 25.188, 168.656 24.974, 167.259 25.418 C 166.057 25.799, 164.788 25.449, 164.019 24.523 C 162.927 23.207, 163.247 23, 166.378 23 C 170.358 23, 171.149 21.292, 168.429 18.571 C 166.101 16.244, 163.269 16.660, 161.333 19.615 M 177.333 19.615 C 175.797 21.959, 175.772 22.504, 177.093 24.865 C 178.823 27.957, 182.129 28.754, 183.980 26.524 C 185.633 24.532, 184.540 23.307, 182.568 24.944 C 180.614 26.565, 179 25.460, 179 22.500 C 179 19.540, 180.614 18.435, 182.568 20.056 C 184.514 21.671, 185.643 20.480, 184.020 18.524 C 182.110 16.223, 179.249 16.690, 177.333 19.615 M 187 22.500 C 187 28.666, 188.672 29.850, 191.066 25.377 L 192.470 22.754 193.012 25.053 C 193.311 26.317, 194.105 27.535, 194.778 27.759 C 195.643 28.048, 196 26.538, 196 22.583 C 196 16.073, 194.291 15.136, 191.745 20.250 L 190.128 23.500 190.064 20.250 C 190.021 18.056, 189.513 17, 188.500 17 C 187.348 17, 187 18.278, 187 22.500 M 199.571 18.571 C 196.394 21.749, 198.633 28, 202.949 28 C 204.933 28, 207.652 25.318, 206.667 24.333 C 206.327 23.993, 205.382 24.268, 204.568 24.944 C 202.614 26.565, 201 25.460, 201 22.500 C 201 19.540, 202.614 18.435, 204.568 20.056 C 206.514 21.671, 207.643 20.480, 206.020 18.524 C 204.388 16.558, 201.564 16.579, 199.571 18.571 M 208 18 C 208 18.550, 208.675 19, 209.500 19 C 210.611 19, 211 20.167, 211 23.500 C 211 26.833, 211.389 28, 212.500 28 C 213.611 28, 214 26.833, 214 23.500 C 214 20.167, 214.389 19, 215.500 19 C 216.325 19, 217 18.550, 217 18 C 217 17.450, 214.975 17, 212.500 17 C 210.025 17, 208 17.450, 208 18 M 219.557 19.223 C 217.476 22.192, 217.595 24.324, 219.960 26.464 C 221.293 27.670, 222.731 28.033, 224.460 27.599 C 227.806 26.760, 227.732 25.071, 224.359 25.312 C 222.907 25.415, 221.519 24.938, 221.276 24.250 C 220.974 23.397, 221.994 23, 224.484 23 C 227.811 23, 228.073 22.801, 227.433 20.750 C 226.099 16.476, 222.033 15.688, 219.557 19.223 M 229.303 22.500 C 229.151 26.724, 229.441 28, 230.553 28 C 231.498 28, 232.035 26.873, 232.102 24.750 L 232.204 21.500 233.247 24.750 C 234.521 28.724, 236.251 28.918, 237.701 25.250 L 238.787 22.500 238.894 25.250 C 238.961 26.980, 239.556 28, 240.500 28 C 241.652 28, 242 26.722, 242 22.500 C 242 17.871, 241.715 17, 240.201 17 C 239.034 17, 237.916 18.319, 237.019 20.750 L 235.637 24.500 234.183 20.750 C 231.914 14.900, 229.545 15.750, 229.303 22.500 M 245 22.560 L 245 28.121 248.649 27.810 C 255.115 27.260, 255.944 20.936, 249.649 20.184 C 248.163 20.006, 247 19.238, 247 18.434 C 247 17.645, 246.550 17, 246 17 C 245.450 17, 245 19.502, 245 22.560 M 256 22.500 C 256 25.525, 256.450 28, 257 28 C 257.550 28, 258.031 27.438, 258.068 26.750 C 258.516 18.508, 258.389 16.999, 257.250 16.999 C 256.402 17, 256 18.767, 256 22.500 M 65.500 20 C 65.160 20.550, 65.835 21, 67 21 C 68.165 21, 68.840 20.550, 68.500 20 C 68.160 19.450, 67.485 19, 67 19 C 66.515 19, 65.840 19.450, 65.500 20 M 120.500 20 C 120.160 20.550, 120.584 21, 121.441 21 C 122.298 21, 123 20.550, 123 20 C 123 19.450, 122.577 19, 122.059 19 C 121.541 19, 120.840 19.450, 120.500 20 M 163.500 20 C 163.160 20.550, 163.835 21, 165 21 C 166.165 21, 166.840 20.550, 166.500 20 C 166.160 19.450, 165.485 19, 165 19 C 164.515 19, 163.840 19.450, 163.500 20 M 221.500 20 C 221.160 20.550, 221.835 21, 223 21 C 224.165 21, 224.840 20.550, 224.500 20 C 224.160 19.450, 223.485 19, 223 19 C 222.515 19, 221.840 19.450, 221.500 20 M 20.958 22.550 C 19.896 23.831, 19.961 24.390, 21.336 25.764 C 22.888 27.317, 23.112 27.317, 24.664 25.764 C 26.039 24.390, 26.104 23.831, 25.042 22.550 C 24.334 21.698, 23.415 21, 23 21 C 22.585 21, 21.666 21.698, 20.958 22.550 M 28.658 22.825 C 27.108 24.538, 27.096 24.834, 28.525 26.021 C 29.838 27.111, 30.377 27.051, 31.764 25.664 C 33.259 24.170, 33.272 23.844, 31.897 22.469 C 30.523 21.094, 30.192 21.130, 28.658 22.825 M 247 24 C 247 25.333, 247.667 26, 249 26 C 250.333 26, 251 25.333, 251 24 C 251 22.667, 250.333 22, 249 22 C 247.667 22, 247 22.667, 247 24" stroke="none" fill="#ffffff" fill-rule="evenodd"/>
</svg>