<svg xmlns="http://www.w3.org/2000/svg" width="800" height="676" viewBox="0 0 800 676" version="1.1">
	<path d="M 360 62.522 C 340.123 64.567, 319.129 68.356, 299.871 73.372 C 289.241 76.141, 264.314 84.096, 256.500 87.213 C 242.048 92.979, 236.681 95.308, 222.750 101.862 L 212 106.919 212 167.078 L 212 227.237 215.250 224.777 C 272.651 181.320, 340.785 159.009, 409 161.330 C 429.483 162.027, 438.179 163.044, 458.311 167.100 C 499.886 175.475, 541.763 193.958, 577.295 219.618 L 587.500 226.987 587.759 168.243 C 587.902 135.935, 587.810 108.953, 587.554 108.283 C 587.298 107.614, 583.407 105.216, 578.907 102.953 C 535.742 81.250, 482.627 66.245, 434 62.017 C 418.330 60.655, 375.287 60.948, 360 62.522 M 376 73.968 C 337.689 76.697, 293.912 86.814, 256 101.702 C 243.369 106.662, 228.484 113.238, 227.239 114.408 C 226.255 115.333, 226.035 124.932, 226.239 158.168 L 226.500 200.742 239.500 192.796 C 277.387 169.639, 316.509 155.716, 361.500 149.375 C 379.745 146.804, 421.136 146.779, 439.500 149.328 C 466.007 153.008, 494.983 160.881, 518 170.658 C 531.922 176.571, 554.612 188.452, 564.284 194.892 C 568.565 197.743, 572.461 199.833, 572.940 199.537 C 573.883 198.955, 574.276 121.229, 573.358 116.844 C 572.907 114.685, 571.373 113.537, 565.151 110.704 C 536.620 97.712, 501.360 86.417, 469.500 80.064 C 442.958 74.771, 402.115 72.108, 376 73.968 M 389 172.894 C 379.723 175.427, 373.071 179.114, 366.043 185.621 C 347.375 202.904, 343.168 229.900, 355.620 252.508 C 359.778 260.057, 370.584 270.222, 378.435 273.969 C 394.434 281.605, 411.365 281.642, 426.500 274.073 C 430.900 271.873, 436.590 268.262, 439.145 266.049 C 444.198 261.670, 451.449 251.536, 450.559 250.095 C 449.975 249.150, 421.598 232.551, 418.599 231.400 C 417.343 230.917, 416.020 231.733, 413.912 234.290 C 408.462 240.902, 399.978 241.554, 393.493 235.859 C 387.095 230.242, 386.914 221.240, 393.075 215.079 C 398.815 209.339, 408.423 210.051, 413.836 216.617 L 416.777 220.185 433.639 210.447 C 442.912 205.090, 450.687 200.549, 450.916 200.354 C 451.790 199.612, 443.475 188.708, 439.089 184.843 C 425.439 172.814, 406.152 168.213, 389 172.894 M 212 344.500 L 212 458 249 458 L 286 458 286 361.527 L 286 265.055 276.250 260.404 C 270.887 257.846, 262.675 253.947, 258 251.740 C 253.325 249.533, 244.775 245.489, 239 242.755 C 218.363 232.982, 213.978 231, 212.996 231 C 212.341 231, 212 269.821, 212 344.500 M 582.500 232.541 C 580.850 233.299, 564.875 240.834, 547 249.285 L 514.500 264.651 514.245 361.325 L 513.990 458 550.995 458 L 588 458 588 344.500 C 588 254.323, 587.743 231.017, 586.750 231.082 C 586.063 231.126, 584.150 231.783, 582.500 232.541 M 226 348.500 L 226 444 249 444 L 272 444 272 359.038 L 272 274.076 262.250 269.435 C 245.150 261.295, 227.135 253, 226.558 253 C 226.251 253, 226 295.975, 226 348.500 M 568.500 255.046 C 566.300 256.045, 556.400 260.645, 546.500 265.268 L 528.500 273.673 528.244 358.855 L 527.989 444.038 550.744 443.769 L 573.500 443.500 573.755 349.055 C 573.895 297.110, 573.670 254.300, 573.255 253.921 C 572.840 253.541, 570.700 254.048, 568.500 255.046 M 311.245 367.750 L 311.500 457.500 349.257 457.762 L 387.013 458.024 386.757 385.300 L 386.500 312.577 384 311.270 C 382.625 310.551, 375.650 307.213, 368.500 303.853 C 361.350 300.492, 346.090 293.301, 334.588 287.871 C 323.087 282.442, 313.072 278, 312.333 278 C 311.216 278, 311.032 293.154, 311.245 367.750 M 451 294.642 C 432.025 303.707, 415.712 311.373, 414.750 311.678 C 413.104 312.200, 413 316.583, 413 385.129 L 413 458.024 450.750 457.762 L 488.500 457.500 488.755 367.750 C 488.997 282.713, 488.919 278.004, 487.255 278.081 C 486.290 278.126, 469.975 285.578, 451 294.642 M 325 372 L 325 444 349.008 444 L 373.015 444 372.758 382.772 L 372.500 321.543 350 310.845 C 337.625 304.960, 326.938 300.113, 326.250 300.073 C 325.261 300.015, 325 315.028, 325 372 M 451 310.340 C 439.175 315.947, 428.938 320.891, 428.250 321.326 C 427.272 321.946, 427 335.399, 427 383.077 L 427 444.036 450.750 443.768 L 474.500 443.500 474.757 371.750 C 474.961 314.648, 474.757 300.015, 473.757 300.073 C 473.065 300.113, 462.825 304.733, 451 310.340 M 336 484.892 C 336 485.382, 337.135 486.068, 338.523 486.416 L 341.046 487.050 340.773 504.775 C 340.503 522.301, 340.475 522.504, 338.250 522.820 C 337.012 522.995, 336 523.558, 336 524.070 C 336 524.581, 339.600 525, 344 525 C 348.400 525, 352 524.581, 352 524.070 C 352 523.558, 350.988 522.995, 349.750 522.820 C 347.652 522.522, 347.480 521.942, 347.210 514.250 L 346.919 506 355.960 506 L 365 506 365 512.918 C 365 521.131, 364.424 523, 361.893 523 C 360.852 523, 360 523.450, 360 524 C 360 524.583, 363.333 525, 368 525 C 372.400 525, 376 524.581, 376 524.070 C 376 523.558, 374.988 522.995, 373.750 522.820 C 371.512 522.502, 371.500 522.405, 371.500 504.500 C 371.500 486.595, 371.512 486.498, 373.750 486.180 C 374.988 486.005, 376 485.442, 376 484.930 C 376 484.419, 372.400 484, 368 484 C 359.873 484, 358.195 484.734, 362.250 486.513 C 364.263 487.396, 364.531 488.315, 364.792 495.250 L 365.084 503 356.042 503 L 347 503 347 495.019 C 347 487.340, 347.095 487.014, 349.500 486.411 C 354.478 485.161, 351.828 484, 344 484 C 339.600 484, 336 484.401, 336 484.892 M 379 484.892 C 379 485.382, 380.135 486.068, 381.523 486.416 L 384.046 487.050 383.773 504.775 C 383.503 522.301, 383.475 522.504, 381.250 522.820 C 380.012 522.995, 379 523.558, 379 524.070 C 379 524.581, 382.900 525, 387.667 525 C 396.337 525, 397.004 524.684, 392.777 522.576 C 391.534 521.957, 390.382 520.745, 390.216 519.883 C 390.050 519.022, 393.871 513.408, 398.707 507.408 L 407.500 496.500 407.783 508.442 C 407.939 515.010, 407.841 520.972, 407.565 521.692 C 407.289 522.411, 406.149 523, 405.031 523 C 403.914 523, 403 523.450, 403 524 C 403 524.590, 406.567 525, 411.700 525 C 416.911 525, 420.019 524.638, 419.450 524.097 C 418.928 523.600, 417.600 523.032, 416.500 522.833 C 414.590 522.489, 414.500 521.686, 414.500 504.986 C 414.500 487.812, 414.540 487.482, 416.750 486.513 C 420.805 484.734, 419.127 484, 411 484 C 406.333 484, 403 484.417, 403 485 C 403 485.550, 403.891 486, 404.981 486 C 406.251 486, 407.183 486.882, 407.579 488.458 C 408.087 490.481, 406.631 492.911, 399.348 502.198 L 390.500 513.479 390.218 501.130 C 389.923 488.201, 390.500 486, 394.181 486 C 395.247 486, 395.840 485.550, 395.500 485 C 394.735 483.762, 379 483.659, 379 484.892 M 422 485 C 422 485.550, 422.911 486, 424.025 486 C 425.278 486, 426.421 486.977, 427.025 488.565 C 428.099 491.390, 428.379 517.848, 427.364 520.495 C 427.014 521.407, 425.551 522.676, 424.114 523.315 C 421.953 524.276, 424.387 524.565, 438.172 524.988 C 453.930 525.472, 454.982 525.629, 457.338 527.845 C 458.709 529.134, 460.102 531.272, 460.434 532.595 C 461.595 537.218, 463.105 535.108, 462.800 529.291 C 462.529 524.134, 462.258 523.525, 460 522.997 L 457.500 522.412 457.225 505.588 C 456.939 488.033, 457.349 486, 461.181 486 C 462.247 486, 462.840 485.550, 462.500 485 C 461.720 483.738, 446 483.672, 446 484.930 C 446 485.442, 447.012 486.005, 448.250 486.180 C 450.475 486.496, 450.503 486.697, 450.773 504.289 L 451.046 522.079 442.273 521.789 L 433.500 521.500 433.225 505.133 C 432.937 488.051, 433.361 486, 437.181 486 C 438.247 486, 438.840 485.550, 438.500 485 C 438.160 484.450, 434.309 484, 429.941 484 C 425.314 484, 422 484.417, 422 485 M 226.530 555.594 C 211.882 560.957, 208.007 582.158, 219.658 593.191 C 223.182 596.527, 230.318 598.538, 235.310 597.602 C 239.200 596.872, 245.290 592.253, 247.164 588.613 C 247.971 587.044, 247.381 587.306, 244.875 589.630 C 238.540 595.505, 233.325 596.527, 226.984 593.137 C 221.434 590.169, 219.508 585.873, 219.525 576.500 C 219.537 569.970, 219.969 567.744, 221.879 564.383 C 224.244 560.222, 229.161 557, 233.148 557 C 236.743 557, 242.652 561.059, 244.590 564.859 L 246.446 568.500 246.800 565.067 C 246.995 563.179, 246.868 560.109, 246.518 558.244 C 245.996 555.461, 245.628 555.064, 244.465 556.029 C 243.369 556.939, 241.985 556.842, 238.346 555.602 C 232.755 553.697, 231.714 553.696, 226.530 555.594 M 282.500 569.984 C 281.400 570.451, 279.600 571.141, 278.500 571.517 C 276.567 572.177, 276.575 572.229, 278.750 573.068 C 280.954 573.918, 281 574.262, 281 590.061 C 281 605.346, 280.896 606.215, 279 606.710 C 277.900 606.998, 277 607.631, 277 608.117 C 277 609.343, 289.738 609.233, 290.500 608 C 290.840 607.450, 290.240 607, 289.166 607 C 286.811 607, 286 605.158, 286 599.811 C 286 596.355, 286.247 595.893, 287.750 596.545 C 288.712 596.963, 290.855 597.498, 292.511 597.734 C 297.710 598.475, 303.490 592.342, 304.055 585.484 C 304.653 578.233, 304.015 575.815, 300.600 572.400 C 296.552 568.352, 294.491 568.177, 289.640 571.470 L 286 573.940 286 571.470 C 286 568.826, 285.614 568.663, 282.500 569.984 M 316.270 570.483 C 310.368 573.048, 306.792 581.809, 308.962 588.385 C 310.513 593.084, 316.200 598, 320.084 598 C 333.912 598, 339.117 577.182, 326.854 570.926 C 322.418 568.662, 320.629 568.587, 316.270 570.483 M 404.304 570.956 C 399.535 573.864, 397.567 577.515, 397.598 583.402 C 397.653 594.125, 405.257 600.574, 413.447 596.842 C 417.124 595.167, 421.732 587, 419 587 C 418.450 587, 418 587.659, 418 588.465 C 418 590.393, 414.873 592, 411.122 592 C 406.958 592, 403.067 588.346, 402.335 583.750 L 401.738 580 410.869 580 C 419.478 580, 420 579.880, 420 577.900 C 420 576.745, 418.470 574.270, 416.600 572.400 C 412.639 568.439, 409.112 568.024, 404.304 570.956 M 488.062 570.827 C 479.463 575.439, 478.587 589.597, 486.514 595.832 C 489.754 598.381, 492.977 598.581, 497.033 596.483 C 500.129 594.882, 503.054 590.321, 502.921 587.300 C 502.860 585.905, 502.718 585.837, 502.291 587 C 501.080 590.293, 498.616 592, 495.095 591.985 C 490.985 591.967, 490.044 591.464, 487.692 588.027 C 483.836 582.393, 486.992 572, 492.559 572 C 494.373 572, 495.337 572.870, 496.436 575.500 C 497.937 579.093, 499.984 579.957, 501.762 577.750 C 503.296 575.847, 501.496 572.308, 498.101 570.552 C 494.211 568.541, 492.224 568.595, 488.062 570.827 M 569.362 570.692 C 562.609 574.059, 559.896 584.859, 564.097 591.656 C 571.379 603.440, 587.316 597.460, 587.368 582.924 C 587.387 577.651, 584.527 572.841, 579.971 570.485 C 576.380 568.628, 573.385 568.687, 569.362 570.692 M 250.560 573.618 C 249.764 576.788, 250.773 578.157, 252.125 575.742 C 252.757 574.611, 254.310 574, 256.550 574 L 260 574 260 582.918 C 260 592.856, 259.508 595, 257.226 595 C 256.369 595, 255.978 595.311, 256.358 595.691 C 256.924 596.257, 268.253 596.472, 270 595.950 C 270.275 595.868, 269.375 595.489, 268 595.107 C 265.568 594.433, 265.492 594.138, 265.215 584.207 L 264.930 574 268.415 574 C 270.689 574, 272.240 574.606, 272.875 575.742 C 274.227 578.157, 275.236 576.788, 274.440 573.618 L 273.783 571 262.500 571 L 251.217 571 250.560 573.618 M 338.750 572.031 C 340.885 572.889, 341 573.477, 341 583.561 C 341 593.326, 340.839 594.229, 339.011 594.707 C 337.917 594.993, 337.257 595.607, 337.544 596.072 C 338.128 597.017, 347.683 596.650, 348.689 595.644 C 349.043 595.290, 348.808 595, 348.167 595 C 345.479 595, 347.313 590.177, 351.968 585 L 356.913 579.500 356.957 586.782 C 356.996 593.420, 356.801 594.145, 354.750 594.969 C 351.969 596.086, 352.131 596.135, 359.346 596.336 C 365.124 596.498, 367.393 595.749, 364.494 594.636 C 363.300 594.178, 363 591.958, 363 583.581 C 363 574.653, 363.259 572.948, 364.750 572.080 C 366.067 571.313, 364.893 571.061, 360 571.061 C 355.107 571.061, 353.933 571.313, 355.250 572.080 C 356.212 572.641, 357 573.782, 357 574.616 C 357 576.582, 347.947 587.086, 346.842 586.403 C 345.810 585.765, 345.746 574.926, 346.765 573.400 C 347.169 572.795, 348.175 572.043, 349 571.729 C 349.825 571.415, 347.350 571.151, 343.500 571.142 C 338.346 571.131, 337.093 571.365, 338.750 572.031 M 369.469 572.500 C 369.211 573.325, 368.789 574.675, 368.531 575.500 C 367.883 577.576, 369.623 577.377, 371.884 575.116 C 373.147 573.853, 374.640 573.400, 376.418 573.740 L 379.069 574.246 378.785 583.846 C 378.515 592.951, 378.371 593.511, 376 594.708 C 373.199 596.122, 373.108 596.096, 381.831 596.357 C 387.956 596.540, 391.374 595.476, 386.765 594.821 C 384.602 594.514, 384.487 594.039, 384.215 584.250 C 383.958 575.008, 384.106 573.988, 385.715 573.882 C 388.997 573.664, 390.491 574.126, 391.740 575.746 C 393.375 577.868, 393.946 577.136, 393.295 573.750 L 392.767 571 381.352 571 C 372.080 571, 369.849 571.282, 369.469 572.500 M 426.784 572.236 C 428.960 573.284, 429.055 573.792, 428.784 582.918 L 428.500 592.500 425.353 592.260 C 421.700 591.982, 420.060 594.488, 422.379 596.807 C 424.324 598.752, 428.599 597.619, 430.134 594.750 C 430.789 593.526, 431.364 588.360, 431.412 583.270 L 431.500 574.015 435.785 574.008 L 440.070 574 439.785 584.207 C 439.508 594.138, 439.432 594.433, 437 595.107 C 434.144 595.899, 434.398 595.960, 442.289 596.378 C 445.473 596.546, 448.312 596.305, 448.598 595.842 C 448.884 595.379, 448.465 595, 447.666 595 C 445.499 595, 445 592.747, 445 582.975 C 445 574.951, 445.210 573.966, 447.223 572.557 C 449.283 571.113, 448.536 571.005, 436.973 571.068 C 427.146 571.121, 424.985 571.369, 426.784 572.236 M 453.777 572.557 C 455.790 573.966, 456 574.951, 456 582.975 C 456 592.857, 455.506 595, 453.226 595 C 452.369 595, 451.990 595.323, 452.385 595.719 C 453.357 596.690, 468.676 596.074, 471.649 594.943 C 475.014 593.664, 476.646 589.713, 475.158 586.448 C 473.843 583.562, 468.584 581, 463.975 581 C 460.962 581, 460.893 580.895, 461.193 576.790 C 461.449 573.274, 461.912 572.466, 464 571.890 C 465.557 571.460, 463.681 571.162, 459.027 571.100 C 451.992 571.006, 451.685 571.091, 453.777 572.557 M 505.560 573.618 C 504.688 577.091, 505.404 577.596, 507.800 575.200 C 509.129 573.871, 510.617 573.395, 512.384 573.733 C 514.969 574.227, 515 574.336, 515 583.035 C 515 592.748, 514.498 595, 512.334 595 C 511.535 595, 511.108 595.365, 511.383 595.811 C 511.969 596.760, 523.711 596.622, 524.678 595.656 C 525.038 595.295, 524.406 595, 523.274 595 C 520.466 595, 520 593.279, 520 582.918 L 520 574 523.450 574 C 525.690 574, 527.243 574.611, 527.875 575.742 C 529.227 578.157, 530.236 576.788, 529.440 573.618 L 528.783 571 517.500 571 L 506.217 571 505.560 573.618 M 534.777 572.557 C 536.790 573.966, 537 574.951, 537 582.975 C 537 592.684, 536.498 595, 534.393 595 C 533.627 595, 532.999 595.337, 532.998 595.750 C 532.997 596.163, 537.760 596.275, 543.581 596 C 552.558 595.576, 554.382 595.205, 555.583 593.559 C 558.299 589.838, 556.466 583, 552.754 583 C 552.148 583, 552.630 581.958, 553.826 580.686 C 556.530 577.807, 556.581 575.581, 554 573 C 552.274 571.274, 550.667 571, 542.277 571 C 533.193 571, 532.701 571.102, 534.777 572.557 M 316.050 574.447 C 314.044 576.582, 313.808 577.664, 314.191 582.960 C 314.918 593.018, 320.921 598.079, 326.046 592.954 C 327.941 591.059, 328.165 589.926, 327.827 583.942 C 327.515 578.423, 326.977 576.604, 325.046 574.549 C 322.032 571.341, 319 571.306, 316.050 574.447 M 404.189 574.039 C 400.247 577.711, 401.291 579.137, 407.671 578.800 C 413.990 578.466, 415.181 577.181, 412.063 574.063 C 409.452 571.452, 406.973 571.445, 404.189 574.039 M 570.736 573.250 C 564.385 578.073, 568.105 595, 575.516 595 C 578.765 595, 582.001 590.561, 581.994 586.115 C 581.978 575.726, 576.188 569.110, 570.736 573.250 M 287.655 575.829 C 285.105 578.646, 285.340 590.340, 288 593 C 292.887 597.887, 298.152 594.085, 298.787 585.213 C 299.126 580.475, 298.825 579.030, 297.025 576.750 C 294.462 573.502, 290.145 573.077, 287.655 575.829 M 542 577.500 C 542 580.703, 542.248 581, 544.929 581 C 548.872 581, 551.344 578.511, 549.963 575.931 C 549.247 574.593, 547.865 574, 545.465 574 C 542.172 574, 542 574.173, 542 577.500 M 461 588.406 C 461 591.819, 461.443 593.233, 462.657 593.699 C 464.951 594.579, 469.437 591.866, 469.798 589.379 C 470.165 586.856, 468.307 585.211, 464.155 584.381 L 461 583.750 461 588.406 M 542.189 588.609 C 542.458 592.846, 542.809 593.544, 544.808 593.827 C 547.790 594.250, 552 591.483, 552 589.099 C 552 586.580, 549.890 585.019, 545.529 584.311 L 541.879 583.719 542.189 588.609" stroke="none" fill="#ffffff" fill-rule="evenodd"/>
</svg>