<svg xmlns="http://www.w3.org/2000/svg" width="800" height="449" viewBox="0 0 800 449" version="1.1">
	<path d="M 388.558 20.431 C 381.008 23.238, 374.482 30.010, 372.945 36.631 C 372.452 38.759, 372.037 53.918, 372.024 70.317 L 372 100.135 374.250 99.448 C 375.488 99.070, 378.075 98.088, 380 97.267 C 385.677 94.845, 401.671 94.406, 408.110 96.495 C 425.933 102.279, 440.303 117.121, 443.455 133 C 443.837 134.925, 444.354 137.233, 444.604 138.130 C 444.854 139.026, 448.083 141.678, 451.779 144.022 C 455.476 146.367, 462.775 150.985, 468 154.284 C 473.225 157.584, 479.750 161.730, 482.500 163.498 C 485.250 165.266, 490.525 168.610, 494.221 170.928 C 497.918 173.246, 502.051 176.461, 503.407 178.071 C 504.762 179.682, 506.125 181, 506.435 181 C 507.524 181, 507.029 90.646, 505.919 86.645 C 503.576 78.209, 497.175 73.474, 448.500 44.171 C 412.319 22.390, 407.164 19.796, 399.154 19.342 C 394.894 19.101, 391.081 19.493, 388.558 20.431 M 332.028 52.603 C 311.464 64.988, 293.360 76.032, 291.797 77.145 C 283.717 82.898, 282.662 92.218, 283.204 153 C 283.654 203.324, 283.593 202.840, 290.301 209.838 C 295.359 215.115, 300.548 217.339, 308 217.425 C 314.291 217.498, 314.919 217.263, 327.500 210.132 C 334.650 206.080, 346.679 199.330, 354.232 195.132 C 361.785 190.935, 367.972 187.190, 367.982 186.812 C 367.992 186.434, 365.939 184.645, 363.421 182.836 C 357.771 178.779, 349.789 167.078, 347.357 159.289 C 344.925 151.499, 344.932 136.382, 347.371 129.500 C 350.261 121.345, 354.566 114.718, 360.898 108.679 L 366.856 102.995 367.211 69.748 C 367.463 46.132, 367.926 35.663, 368.811 33.611 C 369.496 32.023, 369.912 30.579, 369.737 30.404 C 369.562 30.228, 352.593 40.218, 332.028 52.603 M 387 100.645 C 363.568 105.098, 347.208 127.932, 350.922 150.999 C 355.134 177.151, 380.762 194.040, 406.223 187.442 C 423.395 182.992, 436.220 168.743, 439.089 150.926 C 441.662 134.953, 433.550 116.695, 420.025 108.016 C 410.871 102.142, 396.272 98.884, 387 100.645 M 391.076 108.914 C 385.230 110.958, 382.134 114.022, 381.893 118 C 381.472 124.953, 382.418 130.937, 384.660 135.500 C 387.980 142.258, 388.766 143.149, 394.178 146.287 C 397.952 148.476, 400.078 148.993, 405.178 148.965 C 411.592 148.929, 413.102 148.387, 418.735 144.104 C 423.098 140.786, 426.467 132.281, 425.623 126.714 C 425.272 124.396, 424.875 121.667, 424.742 120.648 C 424.497 118.774, 417.631 110.535, 416.250 110.458 C 415.837 110.435, 414.150 109.710, 412.500 108.846 C 408.169 106.580, 397.657 106.614, 391.076 108.914 M 444.514 149.750 C 441.748 167.744, 432.304 181.192, 416.923 189.039 C 406.188 194.516, 392.420 195.609, 380.509 191.930 C 376.823 190.792, 373.063 190.144, 372.154 190.491 C 371.244 190.839, 358.575 197.815, 344 205.994 C 329.425 214.173, 315.538 221.376, 313.140 222 L 308.780 223.136 314.140 226.430 C 317.088 228.241, 326.250 233.678, 334.500 238.511 C 342.750 243.344, 352.650 249.195, 356.500 251.512 C 360.350 253.829, 367.924 258.327, 373.331 261.508 C 395.111 274.320, 393.751 274.617, 443.500 246.214 C 498.019 215.088, 501.653 212.500, 504.461 202.804 C 507.030 193.933, 504.957 186.177, 498.325 179.850 C 495.091 176.765, 481.676 167.936, 458.500 153.643 C 455.750 151.947, 451.975 149.534, 450.110 148.280 C 448.246 147.026, 446.354 146, 445.906 146 C 445.457 146, 444.831 147.688, 444.514 149.750 M 247.195 315.750 L 247.500 320.500 259.250 320.782 L 271 321.063 271 316.032 L 271 311 258.945 311 L 246.890 311 247.195 315.750 M 70.395 316.946 C 66.034 317.988, 62.368 320.908, 60.283 325 C 58.877 327.761, 58.500 330.945, 58.500 340.073 C 58.500 350.930, 58.665 351.895, 61.161 355.667 C 65.365 362.020, 68.538 363, 84.901 363 L 99 363 99 358 L 99 353 89.250 352.996 C 76.704 352.991, 73.478 351.370, 72.456 344.557 C 71.435 337.744, 72.661 331.668, 75.619 328.886 C 77.896 326.744, 79.223 326.465, 88.578 326.159 L 99 325.818 99 320.909 L 99 316 86.250 316.102 C 79.237 316.159, 72.103 316.538, 70.395 316.946 M 285 321 L 285 326 293.500 326 L 302 326 302 344.500 L 302 363 308.977 363 L 315.955 363 316.227 344.750 L 316.500 326.500 325.250 326.211 L 334 325.922 334 320.961 L 334 316 309.500 316 L 285 316 285 321 M 435.771 317.198 C 427.468 319.404, 423.157 329.448, 424.365 343.768 C 425.181 353.446, 427.830 358.566, 433.309 361.053 C 436.768 362.624, 439.901 362.960, 451.250 362.978 L 465 363 465 358 L 465 353 455.450 353 C 444.946 353, 440.656 351.599, 439.405 347.761 C 438.260 344.250, 438.610 333.596, 439.953 331.087 C 441.794 327.649, 446.984 326, 455.968 326 L 464 326 464 321 L 464 316 451.750 316.103 C 445.012 316.160, 437.822 316.653, 435.771 317.198 M 204.380 324.868 C 198.840 325.852, 195.126 328.453, 193.416 332.546 C 191.469 337.206, 191.587 349.927, 193.624 355.018 C 196.107 361.223, 199.329 362.500, 212.500 362.500 C 230.416 362.500, 233.447 359.433, 232.838 341.924 C 232.474 331.468, 231.530 329.360, 225.910 326.454 C 222.732 324.810, 209.988 323.871, 204.380 324.868 M 267.108 325.331 C 264.243 326.318, 262.766 328.163, 257.608 337.198 L 251.500 347.895 251.218 336.448 L 250.937 325 244.968 325 L 239 325 239 342 C 239 357.667, 239.157 359.157, 241 361 C 243.406 363.406, 249.577 363.685, 252.659 361.526 C 253.817 360.715, 257.404 355.548, 260.632 350.044 C 263.859 344.540, 266.821 340.028, 267.213 340.018 C 267.606 340.008, 267.649 345.175, 267.310 351.500 L 266.694 363 273.431 363 L 280.169 363 279.834 346.026 C 279.530 330.600, 279.318 328.878, 277.500 327.147 C 274.783 324.560, 271.172 323.929, 267.108 325.331 M 343.500 324.710 C 339.184 325.800, 339 326.568, 339 343.500 C 339 355.413, 339.339 360.036, 340.269 360.808 C 341.007 361.421, 348.010 361.960, 357.019 362.097 L 372.500 362.333 372.803 357.701 L 373.107 353.069 362.303 352.784 L 351.500 352.500 351.184 349.750 L 350.867 347 361.434 347 L 372 347 372 343 L 372 339 361.500 339 C 353.758 339, 351.004 338.672, 351.015 337.750 C 351.053 334.661, 352.767 334.072, 362.535 333.789 L 372.500 333.500 372.500 329 L 372.500 324.500 359 324.352 C 351.575 324.271, 344.600 324.432, 343.500 324.710 M 377 324.327 C 377 324.506, 380.125 328.826, 383.944 333.926 L 390.889 343.198 383.944 352.437 C 380.125 357.518, 377 361.881, 377 362.131 C 377 362.487, 383.391 362.444, 391.164 362.035 C 391.530 362.016, 393.249 359.691, 394.986 356.868 L 398.143 351.737 401.253 356.794 L 404.363 361.850 411.280 362.175 C 415.084 362.354, 418.397 362.173, 418.643 361.774 C 418.888 361.374, 416.144 357.143, 412.544 352.371 C 408.945 347.599, 406.004 343.426, 406.008 343.098 C 406.013 342.769, 408.938 338.557, 412.508 333.738 C 416.079 328.918, 419 324.756, 419 324.488 C 419 324.219, 415.862 324, 412.027 324 L 405.053 324 401.582 329.155 L 398.110 334.310 394.906 329.155 L 391.701 324 384.351 324 C 380.308 324, 377 324.147, 377 324.327 M 498.406 325.413 C 496.037 326.454, 493.872 329.313, 489.156 337.631 C 485.770 343.603, 482.941 348.042, 482.868 347.495 C 482.796 346.948, 482.836 341.663, 482.957 335.750 L 483.177 325 476.523 325 L 469.868 325 470.184 342.090 C 470.490 358.664, 470.571 359.239, 472.861 361.090 C 475.689 363.378, 481.696 363.602, 484.655 361.529 C 485.810 360.720, 489.398 355.432, 492.628 349.779 L 498.500 339.500 498.782 351.297 L 499.064 363.094 505.282 362.797 L 511.500 362.500 511.500 345.777 C 511.500 330.363, 511.343 328.902, 509.500 327.124 C 506.772 324.494, 502.130 323.778, 498.406 325.413 M 643.259 324.696 C 638.626 325.607, 638 328.176, 638 346.270 L 638 363.095 644.250 362.798 L 650.500 362.500 650.214 350.750 C 650.056 344.288, 650.140 339, 650.400 339 C 650.660 339, 652.293 343.542, 654.029 349.092 C 657.581 360.452, 659.471 363, 664.345 363 C 668.950 363, 670.476 360.945, 674.446 349.397 L 677.848 339.500 677.924 351.298 L 678 363.095 684.250 362.798 L 690.500 362.500 690.805 348 C 691.188 329.793, 690.365 326.445, 685.164 325.044 C 681.257 323.992, 676.060 324.875, 673.461 327.032 C 672.721 327.646, 670.477 333.068, 668.473 339.081 C 666.470 345.094, 664.442 349.773, 663.968 349.480 C 663.493 349.187, 661.908 345.021, 660.446 340.223 C 657.220 329.638, 655.573 326.297, 653.261 325.646 C 649.813 324.674, 645.467 324.261, 643.259 324.696 M 714.225 324.679 C 712.974 324.936, 711.312 326.125, 710.532 327.323 C 708.769 330.029, 696 360.420, 696 361.911 C 696 362.577, 698.363 363, 702.080 363 L 708.161 363 709.732 359 L 711.303 355 718 355 L 724.697 355 726.268 359 L 727.839 363 733.920 363 C 738.163 363, 740 362.617, 740 361.732 C 740 359.693, 726.370 327.938, 724.868 326.476 C 723.304 324.955, 717.588 323.990, 714.225 324.679 M 104 329.500 L 104 334 110.473 334 L 116.945 334 117.223 348.250 L 117.500 362.500 123.500 362.500 L 129.500 362.500 129.777 348.250 L 130.055 334 136.527 334 L 143 334 143 329.500 L 143 325 123.500 325 L 104 325 104 329.500 M 150.441 326.418 C 148.649 327.727, 148.500 329.165, 148.500 345.168 L 148.500 362.500 154.500 362.500 L 160.500 362.500 160.799 357.342 L 161.098 352.184 171.137 351.842 C 180.544 351.522, 181.319 351.334, 183.445 348.861 C 187.802 343.792, 187.497 330.443, 182.939 326.750 C 181.108 325.267, 178.613 325, 166.580 325 C 155.905 325, 151.901 325.352, 150.441 326.418 M 524.452 326.406 C 519.299 328.650, 517.639 332.355, 517.238 342.500 C 516.953 349.739, 517.237 352.171, 518.692 354.929 C 522.054 361.305, 524.588 362.340, 538 362.819 L 550 363.247 550 358.123 L 550 353 542.223 353 C 531.640 353, 530 351.806, 530 344.098 C 530 336.032, 531.719 334.618, 542.102 334.147 L 550 333.788 550 329.394 L 550 325 538.750 325.039 C 531.680 325.064, 526.368 325.572, 524.452 326.406 M 555 329.500 L 555 334 561.473 334 L 567.945 334 568.223 348.250 L 568.500 362.500 574.750 362.798 L 581 363.095 581 348.548 L 581 334 587.500 334 L 594 334 594 329.500 L 594 325 574.500 325 L 555 325 555 329.500 M 601.441 326.417 C 599.698 327.690, 599.468 329.349, 599.181 342.721 C 598.741 363.235, 597.960 362.396, 617.909 362.822 L 633 363.144 633 358.072 L 633 353 622.500 353 L 612 353 612 350.500 C 612 348.001, 612.006 348, 621.917 348 C 628.290 348, 631.965 347.604, 632.203 346.891 C 632.406 346.281, 632.395 344.256, 632.177 342.391 L 631.781 339 621.891 339 C 612.853 339, 612 338.837, 612 337.107 C 612 334.475, 613.848 334, 624.082 334 L 633 334 633 329.500 L 633 325 618.191 325 C 606.992 325, 602.909 325.345, 601.441 326.417 M 162.250 334.662 C 161.563 334.940, 161 336.726, 161 338.631 L 161 342.095 167.250 341.798 C 173.019 341.523, 173.527 341.312, 173.845 339.056 C 174.057 337.554, 173.502 336.109, 172.404 335.306 C 170.660 334.031, 164.745 333.656, 162.250 334.662 M 207.223 335.557 C 205.326 336.885, 205 338.037, 205 343.402 C 205 350.995, 206.620 353, 212.757 353 C 217.253 353, 219.637 351.295, 220.621 347.376 C 221.605 343.454, 220.259 337.662, 217.920 335.750 C 215.266 333.582, 210.174 333.490, 207.223 335.557 M 716.609 340.218 C 714.394 345.335, 714.554 346, 718 346 C 721.324 346, 721.511 345.265, 719.532 340 L 718.217 336.500 716.609 340.218 M 61.337 391.159 C 58.978 392.325, 58.035 394.750, 58.014 399.703 C 57.990 405.332, 59.808 407.849, 64.392 408.532 C 70.257 409.405, 74.439 408.648, 74.828 406.642 C 75.107 405.204, 74.568 405.045, 71.211 405.582 C 65.302 406.527, 62.997 404.877, 63.015 399.715 C 63.037 393.645, 63.903 392.781, 69.611 393.132 C 73.377 393.364, 74.500 393.096, 74.500 391.967 C 74.500 390.143, 64.618 389.537, 61.337 391.159 M 76 391.437 C 76 392.327, 77.237 392.993, 79.250 393.187 L 82.500 393.500 82.792 401.250 C 83.051 408.118, 83.302 409, 85 409 C 86.698 409, 86.949 408.118, 87.208 401.250 L 87.500 393.500 90.750 393.187 C 92.763 392.993, 94 392.327, 94 391.437 C 94 390.294, 92.157 390, 85 390 C 77.843 390, 76 390.294, 76 391.437 M 97 399.570 C 97 408.922, 97.051 409.132, 99.250 408.820 C 100.836 408.594, 101.590 407.719, 101.807 405.851 C 102.060 403.664, 102.759 403.087, 105.807 402.547 C 112.887 401.294, 113 401.198, 113 396.468 C 113 391.017, 111.438 390, 103.066 390 L 97 390 97 399.570 M 118.561 391.332 C 115.774 393.370, 115.339 402.963, 117.892 406.112 C 119.574 408.187, 120.674 408.498, 126.281 408.483 C 134.902 408.460, 136 407.438, 136 399.434 C 136 394.036, 135.676 392.886, 133.777 391.557 C 131.013 389.620, 121.102 389.473, 118.561 391.332 M 140 399.500 C 140 408.977, 140.006 409, 142.510 409 C 144.433 409, 146.011 407.610, 149.260 403.054 C 151.592 399.784, 153.838 397.084, 154.250 397.054 C 154.662 397.024, 155 399.731, 155 403.070 C 155 408.792, 155.129 409.121, 157.250 408.820 C 159.387 408.516, 159.507 408.035, 159.631 399.250 L 159.761 390 156.944 390 C 154.627 390, 153.363 391.092, 149.814 396.161 L 145.500 402.321 145.202 396.161 C 144.922 390.369, 144.758 390, 142.452 390 C 140.021 390, 140 390.083, 140 399.500 M 162.638 391.500 C 162.195 392.656, 162.859 393, 165.531 393 L 169 393 169 401 C 169 408.867, 169.042 409, 171.500 409 C 173.958 409, 174 408.867, 174 401 L 174 393 177 393 C 179 393, 180 392.500, 180 391.500 C 180 390.286, 178.401 390, 171.607 390 C 165.069 390, 163.087 390.332, 162.638 391.500 M 183 399.500 L 183 409 191 409 C 198.333 409, 199 408.833, 199 407 C 199 405.240, 198.333 405, 193.437 405 L 187.873 405 188.187 401.750 C 188.487 398.634, 188.695 398.487, 193.250 398.195 C 196.585 397.981, 198 397.460, 198 396.445 C 198 395.378, 196.694 395, 193 395 C 190.250 395, 188 394.550, 188 394 C 188 393.450, 190.475 393, 193.500 393 C 197.722 393, 199 392.652, 199 391.500 C 199 390.292, 197.444 390, 191 390 L 183 390 183 399.500 M 204.667 390.667 C 204.300 391.033, 204 394.633, 204 398.667 C 204 404.519, 203.697 406, 202.500 406 C 201.675 406, 201 406.675, 201 407.500 C 201 409.337, 206.041 409.559, 207.800 407.800 C 208.498 407.102, 209 403.756, 209 399.800 L 209 393 212.958 393 L 216.916 393 217.208 400.750 C 217.478 407.922, 217.668 408.524, 219.750 408.820 C 221.949 409.132, 222 408.922, 222 399.570 L 222 390 213.667 390 C 209.083 390, 205.033 390.300, 204.667 390.667 M 227 399.634 L 227 409.269 234.087 408.762 C 241.963 408.198, 244.250 406.770, 244.250 402.417 C 244.250 398.795, 241.619 397, 236.309 397 C 232.051 397, 232 396.958, 232 393.500 C 232 390.433, 231.690 390, 229.500 390 C 227.006 390, 227 390.024, 227 399.634 M 248 399.570 C 248 408.922, 248.051 409.132, 250.250 408.820 C 252.057 408.563, 252.561 407.762, 252.810 404.750 C 253.119 401.026, 253.152 401, 257.560 401 L 262 401 262 405 C 262 408.600, 262.250 409, 264.500 409 C 266.991 409, 267 408.967, 267 399.500 C 267 390.033, 266.991 390, 264.500 390 C 262.310 390, 262 390.433, 262 393.500 C 262 396.981, 261.976 397, 257.500 397 C 253.024 397, 253 396.981, 253 393.500 C 253 390.433, 252.690 390, 250.500 390 C 248.007 390, 248 390.029, 248 399.570 M 271.424 391.338 C 271.141 392.075, 271.043 396.237, 271.205 400.588 L 271.500 408.500 278.669 408.440 C 286.980 408.370, 289 407.192, 289 402.413 C 289 398.329, 286.928 397, 280.566 397 C 276.014 397, 276 396.989, 276 393.500 C 276 390.649, 275.624 390, 273.969 390 C 272.851 390, 271.706 390.602, 271.424 391.338 M 292 399.570 C 292 408.922, 292.051 409.132, 294.250 408.820 C 296.374 408.518, 296.516 407.980, 296.788 399.250 L 297.075 390 294.538 390 L 292 390 292 399.570 M 301.424 391.338 C 301.141 392.075, 301.043 396.237, 301.205 400.588 L 301.500 408.500 309.250 408.792 C 316.482 409.065, 317 408.948, 317 407.042 C 317 405.231, 316.372 405, 311.437 405 L 305.873 405 306.187 401.750 C 306.487 398.634, 306.695 398.487, 311.250 398.195 C 314.585 397.981, 316 397.460, 316 396.445 C 316 395.378, 314.694 395, 311 395 C 308.250 395, 306 394.550, 306 394 C 306 393.450, 308.475 393, 311.500 393 C 315.722 393, 317 392.652, 317 391.500 C 317 389.446, 302.209 389.292, 301.424 391.338 M 327 391.461 C 327 392.499, 327.962 393, 329.958 393 L 332.916 393 333.208 400.750 C 333.476 407.875, 333.678 408.525, 335.707 408.814 C 337.801 409.112, 337.929 408.727, 338.207 401.314 L 338.500 393.500 341.811 393.182 C 343.809 392.990, 344.966 392.396, 344.730 391.682 C 344.479 390.925, 341.223 390.396, 335.669 390.211 C 328.407 389.969, 327 390.172, 327 391.461 M 348 399.500 L 348 409 356 409 C 362.322 409, 364 408.696, 364 407.550 C 364 406.486, 362.469 406.020, 358.250 405.800 L 352.500 405.500 352.500 402 C 352.500 398.534, 352.546 398.497, 357.250 398.195 C 360.585 397.981, 362 397.460, 362 396.445 C 362 395.375, 360.686 395, 356.941 395 C 353.823 395, 352.119 394.616, 352.500 394 C 352.840 393.450, 355.552 393, 358.528 393 C 362.925 393, 363.830 392.719, 363.362 391.500 C 362.922 390.354, 361.042 390, 355.393 390 L 348 390 348 399.500 M 366.041 390.750 C 366.063 391.163, 367.413 393.058, 369.041 394.962 C 370.668 396.866, 372 398.827, 372 399.318 C 372 399.810, 370.650 401.917, 369 404 C 365.371 408.582, 365.323 409, 368.432 409 C 369.993 409, 371.629 407.925, 373 406 C 374.175 404.350, 375.459 403, 375.852 403 C 376.246 403, 377.366 404.350, 378.341 406 C 379.697 408.295, 380.833 409, 383.177 409 L 386.241 409 382.620 404.582 C 380.629 402.152, 379 399.772, 379 399.294 C 379 398.816, 380.332 396.866, 381.959 394.962 C 385.587 390.719, 385.675 390, 382.568 390 C 380.989 390, 379.361 391.089, 377.925 393.105 L 375.715 396.209 373.285 393.105 C 371.756 391.152, 369.955 390, 368.428 390 C 367.092 390, 366.018 390.337, 366.041 390.750 M 388.838 396.192 C 388.278 406.648, 388.774 409.173, 391.318 408.811 C 393.523 408.497, 393.650 408.220, 393.875 403.224 C 393.993 400.604, 394.226 400.469, 398 400.829 C 401.917 401.202, 402 401.291, 402 405.105 C 402 408.593, 402.261 409, 404.500 409 C 406.993 409, 407 408.971, 407 399.430 C 407 390.078, 406.949 389.868, 404.750 390.180 C 402.936 390.438, 402.439 391.237, 402.186 394.304 L 401.873 398.109 397.686 397.804 C 393.627 397.509, 393.500 397.394, 393.500 394 C 393.500 391.174, 393.084 390.441, 391.338 390.192 C 389.347 389.908, 389.149 390.382, 388.838 396.192 M 414.268 391.157 C 410.709 392.963, 409.839 404.239, 413.014 407.414 C 414.614 409.014, 427.342 408.791, 429.346 407.128 C 431.639 405.225, 431.691 393.818, 429.416 391.930 C 427.356 390.221, 417.141 389.699, 414.268 391.157 M 437 398 C 437 404.444, 436.708 406, 435.500 406 C 434.675 406, 434 406.675, 434 407.500 C 434 409.337, 439.041 409.559, 440.800 407.800 C 441.498 407.102, 442 403.756, 442 399.800 L 442 393 446 393 L 450 393 450 401 C 450 408.867, 450.042 409, 452.500 409 C 454.991 409, 455 408.967, 455 399.500 L 455 390 446 390 L 437 390 437 398 M 463 390.694 C 460.148 391.713, 459 394.405, 459 400.069 C 459 407.066, 460.192 408.243, 467.834 408.790 C 472.521 409.125, 473.975 408.820, 476.250 407.025 C 478.590 405.178, 479 404.114, 479 399.882 C 479 392.974, 476.024 389.968, 469.295 390.079 C 466.658 390.122, 463.825 390.399, 463 390.694 M 483 399.570 C 483 408.922, 483.051 409.132, 485.250 408.820 C 487.332 408.524, 487.522 407.922, 487.792 400.750 L 488.084 393 492.042 393 C 494.894 393, 496 392.581, 496 391.500 C 496 390.321, 494.611 390, 489.500 390 L 483 390 483 399.570 M 499 399.430 L 499 409 501.890 409 C 504.325 409, 505.387 408.058, 508.640 403.009 C 510.763 399.714, 512.837 397.014, 513.250 397.009 C 513.663 397.004, 514 399.731, 514 403.070 C 514 408.792, 514.129 409.121, 516.250 408.820 C 518.393 408.515, 518.500 408.072, 518.500 399.500 C 518.500 390.604, 518.471 390.497, 515.957 390.204 C 513.850 389.958, 512.651 390.963, 508.957 396.074 L 504.500 402.241 504 396.371 C 503.562 391.225, 503.222 390.461, 501.250 390.180 C 499.051 389.868, 499 390.078, 499 399.430 M 523 399.500 L 523 409 525.750 408.976 C 527.983 408.956, 529.252 407.832, 532.500 403 C 534.700 399.727, 536.837 397.037, 537.250 397.024 C 537.663 397.011, 538 399.700, 538 403 C 538 408.757, 538.103 409, 540.538 409 L 543.075 409 542.788 399.750 C 542.502 390.551, 542.485 390.498, 539.827 390.191 C 537.536 389.926, 536.536 390.784, 532.827 396.191 L 528.500 402.500 528.202 396.250 C 527.922 390.363, 527.762 390, 525.452 390 C 523.021 390, 523 390.083, 523 399.500 M 554.667 390.667 C 554.300 391.033, 554 395.308, 554 400.167 L 554 409 556.855 409 C 559.222 409, 560.462 407.931, 564.105 402.750 L 568.500 396.500 568.798 402.750 C 569.078 408.637, 569.238 409, 571.548 409 C 573.979 409, 574 408.917, 574 399.500 L 574 390 571.250 390.029 C 569.043 390.053, 567.611 391.284, 564 396.264 L 559.500 402.470 559.202 396.235 C 558.954 391.027, 558.610 390, 557.119 390 C 556.137 390, 555.033 390.300, 554.667 390.667 M 588.337 391.158 C 585.871 392.378, 585.033 394.749, 585.014 400.559 C 584.992 407.114, 586.677 408.500, 594.669 408.500 C 600.005 408.500, 601.500 408.179, 601.500 407.033 C 601.500 405.917, 600.407 405.634, 596.926 405.848 C 591.117 406.205, 589.784 404.717, 590.192 398.328 L 590.500 393.500 595.784 393.545 C 600.023 393.580, 601.010 393.284, 600.774 392.045 C 600.415 390.153, 591.634 389.527, 588.337 391.158 M 605 399.566 L 605 409.133 607.721 408.816 C 609.717 408.584, 611.460 407.037, 614.269 403 C 616.374 399.975, 618.525 397.350, 619.048 397.167 C 619.583 396.979, 620 399.500, 620 402.917 C 620 408.333, 620.219 409, 622 409 C 623.860 409, 624 408.333, 624 399.500 C 624 390.031, 623.992 390, 621.498 390 C 619.581 390, 618.001 391.398, 614.748 395.973 C 612.411 399.259, 610.163 401.959, 609.750 401.973 C 609.337 401.988, 609 399.300, 609 396 C 609 390.667, 608.778 390, 607 390 C 605.139 390, 605 390.667, 605 399.566 M 631.693 390.700 C 629.396 391.296, 628 394.953, 628 400.374 C 628 407.127, 629.633 408.500, 637.669 408.500 C 643.074 408.500, 644.500 408.187, 644.500 407 C 644.500 405.847, 643.508 405.579, 640.211 405.840 C 634.479 406.294, 633 404.869, 633 398.897 C 633 394.529, 633.257 393.974, 635.537 393.401 C 636.932 393.051, 639.407 393.031, 641.037 393.357 C 643.521 393.854, 644 393.631, 644 391.975 C 644 390.244, 643.350 390.014, 638.750 390.116 C 635.862 390.180, 632.687 390.443, 631.693 390.700 M 646 391.437 C 646 392.322, 647.231 392.994, 649.206 393.187 L 652.412 393.500 652.456 401 C 652.499 408.322, 652.559 408.500, 655 408.500 C 657.444 408.500, 657.500 408.333, 657.500 401 L 657.500 393.500 660.750 393.187 C 662.763 392.993, 664 392.327, 664 391.437 C 664 390.294, 662.157 390, 655 390 C 647.843 390, 646 390.294, 646 391.437 M 667 399.500 L 667 409 675 409 C 681.444 409, 683 408.708, 683 407.500 C 683 406.348, 681.722 406, 677.500 406 L 672 406 672 402 L 672 398 676.500 398 C 679.833 398, 681 397.611, 681 396.500 C 681 395.389, 679.833 395, 676.500 395 C 674.025 395, 672 394.550, 672 394 C 672 393.450, 674.250 393, 677 393 C 680.778 393, 682 392.633, 682 391.500 C 682 390.300, 680.500 390, 674.500 390 L 667 390 667 399.500 M 686.714 390.619 C 686.321 391.012, 686 395.340, 686 400.236 C 686 408.897, 686.061 409.130, 688.250 408.820 C 690.230 408.538, 690.560 407.781, 691 402.500 L 691.500 396.500 693.891 402.801 C 695.884 408.054, 696.633 409.052, 698.391 408.801 C 699.967 408.576, 701.001 407.046, 702.480 402.750 C 703.569 399.587, 704.806 397, 705.230 397 C 705.653 397, 706 399.700, 706 403 C 706 408.333, 706.222 409, 708 409 C 709.861 409, 710 408.333, 710 399.437 L 710 389.873 706.753 390.187 C 703.882 390.464, 703.273 391.084, 701.503 395.539 C 700.401 398.311, 699.050 400.718, 698.500 400.888 C 697.950 401.058, 696.581 398.790, 695.457 395.849 C 693.677 391.190, 693.027 390.462, 690.421 390.203 C 688.775 390.039, 687.107 390.227, 686.714 390.619 M 714.451 391.268 C 714.153 392.043, 714.043 396.237, 714.205 400.588 L 714.500 408.500 720.849 408.800 C 728.960 409.184, 732 407.470, 732 402.512 C 732 398.416, 729.978 397, 724.129 397 C 720.345 397, 720.110 396.823, 719.813 393.750 C 719.573 391.257, 718.975 390.425, 717.246 390.180 C 715.983 390.001, 714.753 390.479, 714.451 391.268 M 735.667 390.667 C 735.300 391.033, 735 395.308, 735 400.167 C 735 408.922, 735.022 409, 737.500 409 C 739.991 409, 740 408.967, 740 399.500 C 740 390.955, 739.816 390, 738.167 390 C 737.158 390, 736.033 390.300, 735.667 390.667 M 102 396.500 C 102 399.173, 102.414 399.996, 103.750 399.985 C 107.049 399.956, 108.481 398.076, 108.118 394.250 C 108.053 393.554, 106.670 393, 105 393 C 102.238 393, 102 393.278, 102 396.500 M 121.621 394.697 C 120.779 397.473, 121.149 403.356, 122.254 404.750 C 123.374 406.163, 127.832 406.393, 129.808 405.140 C 130.690 404.580, 131.015 402.553, 130.808 398.905 L 130.500 393.500 126.334 393.197 C 123.027 392.956, 122.056 393.265, 121.621 394.697 M 417.453 394.077 C 417.087 394.669, 416.607 397.086, 416.386 399.448 C 415.904 404.602, 417.427 406.275, 422.185 405.818 C 425.446 405.505, 425.505 405.412, 425.808 400.095 C 426.015 396.447, 425.690 394.420, 424.808 393.860 C 422.932 392.670, 418.236 392.809, 417.453 394.077 M 465.192 393.860 C 464.310 394.420, 463.985 396.447, 464.192 400.095 C 464.495 405.412, 464.554 405.505, 467.815 405.818 C 469.639 405.993, 471.776 405.601, 472.565 404.946 C 474.317 403.492, 474.483 395.883, 472.800 394.200 C 471.426 392.826, 467.126 392.634, 465.192 393.860 M 232 402.437 C 232 404.709, 232.405 405, 235.570 405 C 238.699 405, 239.100 404.723, 238.820 402.750 C 238.575 401.025, 237.741 400.427, 235.250 400.187 C 232.347 399.907, 232 400.147, 232 402.437 M 276.386 401.436 C 275.253 404.390, 276.608 405.644, 280.451 405.196 C 283.511 404.838, 284.059 404.420, 283.804 402.634 C 283.418 399.923, 277.343 398.941, 276.386 401.436 M 720 403 C 720 405.291, 720.454 406, 721.918 406 C 725.110 406, 727 404.884, 727 403 C 727 401.116, 725.110 400, 721.918 400 C 720.454 400, 720 400.709, 720 403" stroke="none" fill="#ffffff" fill-rule="evenodd"/>
</svg>