<svg xmlns="http://www.w3.org/2000/svg" width="800" height="185" viewBox="0 0 800 185" version="1.1">
	<path d="M 44.736 42.764 L 32 55.528 32 100.764 C 32 125.644, 32.279 146, 32.621 146 C 32.962 146, 40.162 139.063, 48.621 130.585 L 64 115.171 64 96.585 L 64 78 57 78 L 50 78 50 73 L 50 68 74.250 68.021 L 98.500 68.043 101.465 72.271 C 103.096 74.597, 108.046 81.409, 112.465 87.409 L 120.500 98.317 120.770 78.375 L 121.040 58.432 134.520 44.980 C 141.934 37.581, 148 31.184, 148 30.764 C 148 30.344, 127.631 30, 102.736 30 L 57.471 30 44.736 42.764 M 143.750 50.749 L 132 62.530 132 89.765 L 132 117 127.055 117 L 122.109 117 111.905 102.967 C 106.293 95.249, 101.319 88.697, 100.851 88.408 C 100.383 88.119, 100 94.434, 100 102.441 L 100 117 94.500 117 L 89 117 89 97.500 L 89 78 82 78 L 75 78 75 98.787 L 75 119.575 57.676 136.797 C 48.148 146.269, 40.573 154.239, 40.843 154.509 C 41.112 154.779, 61.586 155, 86.339 155 L 131.344 155 143.688 142.750 L 156.033 130.500 155.766 84.734 L 155.500 38.968 143.750 50.749 M 403.493 69.351 C 398.038 71.891, 392.540 77.463, 390.375 82.645 C 388.604 86.883, 388.604 98.117, 390.375 102.355 C 396.825 117.792, 418.477 123.145, 432.182 112.692 C 447.113 101.303, 444.540 77.283, 427.541 69.367 C 420.552 66.112, 410.462 66.106, 403.493 69.351 M 600.926 67.789 L 593.352 68.078 585.426 77.437 L 577.500 86.795 577.214 77.398 L 576.928 68 569.964 68 L 563 68 563 92.500 L 563 117 570 117 L 577 117 577 110.965 C 577 104.908, 578.979 99.956, 581.365 100.040 C 581.989 100.062, 585.106 103.887, 588.292 108.540 L 594.084 117 602.125 117 C 606.548 117, 610.017 116.616, 609.833 116.147 C 609.650 115.678, 605.479 109.384, 600.564 102.160 L 591.627 89.025 593.607 86.763 C 594.696 85.518, 598.643 81.015, 602.379 76.755 C 606.114 72.496, 609.019 68.671, 608.835 68.255 C 608.651 67.840, 605.092 67.630, 600.926 67.789 M 625.220 69.578 C 606.338 78.987, 606.143 105.417, 624.882 115.207 C 635.540 120.775, 650.200 118.231, 657.882 109.481 C 662.490 104.233, 664.241 99.584, 664.277 92.500 C 664.312 85.498, 662.561 80.848, 657.882 75.519 C 650.340 66.928, 635.832 64.289, 625.220 69.578 M 181 74 L 181 80 188.500 80 L 196 80 196 98.500 L 196 117 203 117 L 210 117 210 98.500 L 210 80 217.500 80 L 225 80 225 74 L 225 68 203 68 L 181 68 181 74 M 232 92.500 L 232 117 252.550 117 L 273.100 117 272.800 111.250 C 272.455 104.636, 274.231 105.295, 256.250 105.107 L 246 105 246 101.532 L 246 98.063 257.750 97.782 L 269.500 97.500 269.802 92.250 L 270.105 87 257.992 87 L 245.879 87 246.190 83.250 L 246.500 79.500 259.250 79.220 L 272 78.940 272 73.470 L 272 68 252 68 L 232 68 232 92.500 M 287.006 80.009 L 295.051 92.017 287.026 103.902 C 282.611 110.438, 279 116.059, 279 116.393 C 279 116.727, 282.353 117, 286.452 117 L 293.903 117 298.556 109.807 L 303.210 102.614 307.786 109.807 L 312.363 117 320.296 117 L 328.230 117 326.441 114.250 C 325.457 112.737, 321.736 107.112, 318.173 101.749 L 311.693 91.997 319.347 80.506 C 323.556 74.186, 327 68.786, 327 68.507 C 327 68.228, 323.609 68, 319.464 68 L 311.928 68 307.852 74.500 C 305.611 78.075, 303.642 81, 303.478 81 C 303.314 81, 301.332 78.075, 299.074 74.500 L 294.969 68 286.965 68 L 278.961 68 287.006 80.009 M 335 92.500 L 335 117 342 117 L 349 117 349 108.083 C 349 103.173, 349.439 99.017, 349.977 98.833 C 350.514 98.650, 354.339 98.648, 358.477 98.829 L 366 99.158 366 108.079 L 366 117 373 117 L 380 117 380 92.500 L 380 68 373 68 L 366 68 366 77 L 366 86 357.500 86 L 349 86 349 77 L 349 68 342 68 L 335 68 335 92.500 M 450 92.500 L 450 117 457 117 L 464 117 464 108 L 464 99 473 99 L 482 99 482 108 L 482 117 489 117 L 496 117 496 92.500 L 496 68 489 68 L 482 68 482 77 L 482 86 473 86 L 464 86 464 77 L 464 68 457 68 L 450 68 450 92.500 M 506 92.500 L 506 117 512.793 117 L 519.586 117 528.543 104.101 L 537.500 91.201 537.779 104.101 L 538.058 117 545.029 117 L 552 117 552 92.500 L 552 68 545.541 68 L 539.081 68 530.369 80.547 C 525.577 87.448, 521.283 93.325, 520.828 93.606 C 520.373 93.888, 520 88.241, 520 81.059 L 520 68 513 68 L 506 68 506 92.500 M 676.797 83.250 C 676.269 100.387, 675.173 104.047, 670.030 105.840 C 667.103 106.860, 667 107.104, 667 112.993 L 667 119.091 670.750 118.431 C 684.501 116.012, 688.743 109.825, 689.728 90.750 L 690.283 80 695.642 80 L 701 80 701 98.500 L 701 117 708 117 L 715 117 715 92.500 L 715 68 696.134 68 L 677.268 68 676.797 83.250 M 726 92.500 L 726 117 740.288 117 C 753.134 117, 755.021 116.773, 758.980 114.750 C 764.907 111.721, 767.231 108.257, 767.780 101.634 C 768.709 90.440, 761.449 83.908, 747.250 83.162 L 740 82.781 740 75.391 L 740 68 733 68 L 726 68 726 92.500 M 409.299 80.960 C 399.878 86.704, 401.323 101.325, 411.667 104.930 C 415.224 106.169, 416.269 106.169, 419.527 104.929 C 429.856 100.998, 430.729 85.776, 420.915 80.752 C 416.491 78.486, 413.260 78.544, 409.299 80.960 M 632.452 80.406 C 626.051 83.194, 623.382 91.908, 626.848 98.702 C 630.769 106.387, 639.661 107.955, 646.198 102.114 C 648.801 99.788, 649.373 98.454, 649.709 93.918 C 650.201 87.294, 647.698 82.607, 642.510 80.440 C 638.317 78.688, 636.412 78.681, 632.452 80.406 M 740 100.124 L 740 106.248 745.439 105.797 C 751.847 105.265, 754 103.791, 754 99.934 C 754 96.108, 750.725 94, 744.777 94 L 740 94 740 100.124" stroke="none" fill="#ffffff" fill-rule="evenodd"/>
</svg>