<svg xmlns="http://www.w3.org/2000/svg" width="283" height="69" viewBox="0 0 283 69" version="1.1">
	<path d="M 28.305 8.468 C 23.190 10.692, 16.268 17.733, 14.408 22.601 C 13.475 25.045, 12.924 27.258, 13.185 27.518 C 13.445 27.778, 15.647 28.235, 18.079 28.532 C 22.466 29.068, 22.516 29.040, 24.549 24.820 C 26.062 21.682, 27.830 19.934, 31.299 18.149 C 35.813 15.826, 36 15.556, 36 11.365 C 36 7.493, 35.746 7.004, 33.750 7.039 C 32.513 7.061, 30.062 7.703, 28.305 8.468 M 39.250 10.662 C 38.563 10.940, 38 12.696, 38 14.564 C 38 17.443, 37.580 18.063, 35.250 18.627 C 30.787 19.706, 27.336 22.702, 25.622 26.987 C 24.175 30.603, 23.669 31, 20.508 31 C 17.667 31, 17 31.380, 17 33 C 17 34.755, 17.667 35, 22.453 35 L 27.906 35 29.885 30.527 C 31.981 25.788, 36.797 22.010, 40.750 22.004 C 42.604 22.001, 43.014 21.428, 43.082 18.750 C 43.127 16.962, 43.368 14.262, 43.616 12.750 C 44.072 9.980, 42.639 9.295, 39.250 10.662 M 45.630 13.250 C 45.299 14.488, 45.021 16.962, 45.014 18.750 C 45.003 21.260, 45.425 22, 46.865 22 C 47.891 22, 49.866 22.893, 51.254 23.985 L 53.777 25.970 58.138 22.061 C 62.415 18.228, 62.461 18.120, 60.500 16.521 C 57.526 14.096, 50.799 11.047, 48.367 11.022 C 46.989 11.008, 46.020 11.797, 45.630 13.250 M 59.750 23.040 C 56.122 26.044, 54.694 30.013, 57.250 29.987 C 57.938 29.980, 60.641 28.968, 63.259 27.737 L 68.018 25.500 65.759 22.717 L 63.500 19.934 59.750 23.040 M 73.633 36.785 C 72.544 38.546, 66 57.267, 66 58.619 C 66 60.862, 71.740 60.354, 73 58 C 73.751 56.597, 75.094 56, 77.500 56 C 79.906 56, 81.249 56.597, 82 58 C 83.247 60.329, 89 60.864, 89 58.651 C 89 57.910, 87.271 52.622, 85.159 46.901 C 81.328 36.530, 81.307 36.499, 77.752 36.195 C 75.790 36.028, 73.937 36.293, 73.633 36.785 M 96.655 37.829 C 95.439 39.173, 95 41.559, 95 46.829 C 95 52.537, 94.694 54, 93.500 54 C 92.500 54, 92 55, 92 57 L 92 60 105 60 L 118 60 118 57.107 C 118 55.458, 117.355 53.966, 116.500 53.638 C 115.329 53.189, 115 51.192, 115 44.531 L 115 36 106.655 36 C 99.840 36, 98.006 36.335, 96.655 37.829 M 121 48 L 121 60 123.948 60 C 126.799 60, 126.905 59.828, 127.198 54.750 L 127.500 49.500 129.330 54.750 C 130.949 59.391, 131.484 60, 133.950 60 C 136.418 60, 136.899 59.452, 138.120 55.250 L 139.500 50.500 140 55 C 140.469 59.222, 140.685 59.500, 143.500 59.500 L 146.500 59.500 146.782 47.750 L 147.063 36 142.103 36 L 137.143 36 135.902 41.546 C 135.220 44.596, 134.347 47.286, 133.963 47.523 C 133.578 47.761, 132.693 45.265, 131.995 41.978 L 130.727 36 125.863 36 L 121 36 121 48 M 17 40.304 C 17 42.121, 18.166 45.947, 19.591 48.807 L 22.182 54.006 24.841 52.111 C 30.703 47.933, 31.104 46.979, 29.213 41.721 L 27.516 37 22.258 37 L 17 37 17 40.304 M 102 47.937 C 102 53.998, 102.001 54, 104.981 54 C 108.298 54, 109.126 52.216, 108.693 46 C 108.474 42.849, 108.128 42.469, 105.225 42.187 L 102 41.873 102 47.937 M 230.168 44.784 C 227.282 45.250, 224.971 50.235, 225.941 53.901 C 226.923 57.609, 231.177 59.510, 234.676 57.805 C 242.086 54.192, 238.370 43.460, 230.168 44.784 M 160 45.883 C 160 46.369, 160.900 47.002, 162 47.290 C 163.670 47.726, 164 48.654, 164 52.906 C 164 56.767, 164.363 58, 165.500 58 C 166.325 58, 166.947 57.663, 166.882 57.250 C 166.816 56.837, 166.816 54.362, 166.882 51.750 C 166.967 48.336, 167.405 47, 168.441 47 C 169.234 47, 170.160 46.550, 170.500 46 C 170.884 45.379, 169.010 45, 165.559 45 C 162.502 45, 160 45.398, 160 45.883 M 173.655 46.829 C 171.957 48.705, 171.456 53.640, 172.765 55.600 C 175.015 58.970, 183 59.612, 183 56.423 C 183 55.624, 182.380 55.301, 181.498 55.639 C 179.184 56.527, 175 55.138, 175 53.481 C 175 52.392, 176.192 52, 179.500 52 C 183.278 52, 184 51.690, 184 50.071 C 184 45.425, 176.930 43.209, 173.655 46.829 M 188 49.277 C 188 51.630, 187.299 54.555, 186.443 55.777 C 184.988 57.855, 185.019 58, 186.908 58 C 189.460 58, 191 55.174, 191 50.492 C 191 47.567, 191.343 46.919, 192.750 47.186 C 194.103 47.443, 194.569 48.709, 194.802 52.759 C 194.969 55.642, 195.531 58, 196.052 58 C 197.090 58, 197.182 57.691, 197.243 54 C 197.393 45.021, 197.382 45, 192.500 45 L 188 45 188 49.277 M 200.442 48.484 C 199.188 51.486, 199.150 52.535, 200.217 54.731 C 201.575 57.525, 205.628 59.171, 208.987 58.293 C 212.218 57.448, 211.312 56.147, 207.258 55.810 C 204.643 55.593, 203.417 54.973, 203.185 53.750 C 202.914 52.319, 203.585 52, 206.868 52 C 211.596 52, 212.303 51.245, 210.666 47.944 C 209.759 46.116, 208.508 45.421, 205.702 45.188 C 202.227 44.899, 201.838 45.143, 200.442 48.484 M 214 51.500 C 214 56.611, 214.321 58, 215.500 58 C 216.433 58, 217 57.056, 217 55.500 C 217 54.125, 217.440 53, 217.977 53 C 218.514 53, 219.691 54.125, 220.592 55.500 C 221.493 56.875, 222.811 58, 223.521 58 C 225.289 58, 224.284 54.567, 221.880 52.391 C 219.994 50.685, 220.009 50.600, 222.666 47.826 C 225.028 45.361, 225.135 45, 223.502 45 C 222.472 45, 220.587 45.978, 219.314 47.174 L 217 49.349 217 47.174 C 217 45.908, 216.373 45, 215.500 45 C 214.321 45, 214 46.389, 214 51.500 M 241 46.860 C 241 47.884, 240.714 50.809, 240.364 53.360 C 239.831 57.248, 239.993 58, 241.364 58 C 242.571 58, 243.025 57.016, 243.096 54.250 L 243.192 50.500 244.846 54.245 C 246.912 58.922, 248.508 59.002, 250.133 54.510 C 251.463 50.830, 252.956 51.479, 252.985 55.750 C 252.993 56.987, 253.450 58, 254 58 C 254.564 58, 255 55.167, 255 51.500 C 255 45.791, 254.770 45, 253.109 45 C 251.822 45, 250.663 46.359, 249.484 49.250 L 247.750 53.500 246.168 49.250 C 244.511 44.797, 241 43.174, 241 46.860 M 76.639 47.498 C 75.646 50.085, 75.871 51, 77.500 51 C 79.151 51, 79.438 49.239, 78.124 47.166 C 77.449 46.102, 77.149 46.169, 76.639 47.498 M 175.709 47.624 C 174.223 49.110, 175.112 50, 178.083 50 C 180.103 50, 181.025 49.569, 180.755 48.750 C 180.288 47.332, 176.783 46.550, 175.709 47.624 M 203.667 47.667 C 202.307 49.026, 203.072 50, 205.500 50 C 207.056 50, 208 49.433, 208 48.500 C 208 47, 204.925 46.409, 203.667 47.667 M 229.394 48.416 C 228.213 51.494, 229.450 55.493, 231.682 55.811 C 234.617 56.229, 236.337 53.016, 235.025 49.565 C 233.957 46.757, 230.316 46.013, 229.394 48.416 M 28.472 51.462 C 25.998 53.540, 24.865 55.205, 25.247 56.202 C 25.989 58.135, 35.615 63, 38.696 63 C 40.809 63, 41 62.565, 40.997 57.750 C 40.994 52.546, 40.955 52.481, 36.640 50.380 L 32.287 48.259 28.472 51.462 M 50.016 50.086 C 48.099 51.139, 45.737 52, 44.766 52 C 43.292 52, 43 52.910, 43 57.500 L 43 63 46.750 62.978 C 50.990 62.953, 57.789 60.176, 59.924 57.597 C 61.196 56.060, 60.929 55.466, 57.424 52.024 L 53.500 48.171 50.016 50.086 M 151.500 50 C 151.138 50.585, 152.176 51, 154 51 C 155.824 51, 156.862 50.585, 156.500 50 C 156.160 49.450, 155.035 49, 154 49 C 152.965 49, 151.840 49.450, 151.500 50" stroke="none" fill="#ffffff" fill-rule="evenodd"/>
</svg>