<svg xmlns="http://www.w3.org/2000/svg" width="800" height="435" viewBox="0 0 800 435" version="1.1">
	<path d="M 350.748 35.158 C 325.034 54.422, 304.263 70.617, 304.591 71.147 C 305.403 72.462, 348.950 105, 349.897 105 C 350.313 105, 354.844 101.862, 359.965 98.026 C 365.086 94.191, 369.664 91.292, 370.138 91.585 C 370.612 91.878, 371.017 98.729, 371.037 106.809 L 371.074 121.500 383.897 131 C 391.281 136.470, 397.688 140.500, 399 140.500 C 400.312 140.500, 406.719 136.470, 414.103 131 L 426.926 121.500 426.963 106.809 C 426.983 98.729, 427.388 91.878, 427.862 91.585 C 428.336 91.292, 432.933 94.205, 438.078 98.058 C 443.222 101.911, 447.942 104.937, 448.567 104.782 C 450.781 104.232, 493.909 71.485, 493.642 70.556 C 493.192 68.992, 400.619 0.087, 399 0.111 C 398.175 0.123, 376.461 15.895, 350.748 35.158 M 274.045 12.025 C 255.169 16.012, 245.729 31.087, 248.930 52.130 C 252.040 72.579, 264.098 97.312, 284.369 124.820 L 290.500 133.140 290.796 127.148 C 291.090 121.176, 291.068 121.121, 283.729 110.328 C 254.541 67.399, 248.193 34.558, 266.907 23.308 C 278.648 16.250, 297.933 17.860, 324.924 28.151 C 338.678 33.395, 339.861 33.555, 343.347 30.646 L 346.195 28.270 335.347 23.747 C 322.160 18.249, 313.886 15.539, 304 13.480 C 294.541 11.510, 279.858 10.797, 274.045 12.025 M 500.609 12.104 C 490.880 13.523, 476.235 17.871, 463.250 23.195 C 456.512 25.958, 451 28.371, 451 28.558 C 451 28.745, 452.497 30.040, 454.327 31.436 L 457.654 33.973 468.817 29.486 C 486.870 22.229, 497.568 19.723, 511 19.603 C 524.015 19.486, 528.302 20.571, 533.753 25.356 C 538.904 29.879, 541.111 35.557, 541.111 44.291 C 541.111 48.279, 540.647 53.613, 540.080 56.145 C 536.910 70.289, 528.158 88.477, 514.870 108.532 C 506.388 121.334, 506 122.163, 506 127.460 C 506 130.507, 506.337 132.988, 506.750 132.974 C 507.795 132.938, 521.734 113.259, 527.981 103 C 549.968 66.895, 555.091 36.817, 541.723 22.316 C 532.862 12.702, 519.408 9.360, 500.609 12.104 M 300 151.886 L 300 223.986 316.032 235.993 C 324.849 242.597, 332.479 248, 332.986 248 C 333.493 248, 334.042 245.086, 334.204 241.525 L 334.500 235.051 346 243.776 L 357.500 252.500 357.791 259.614 C 358.031 265.474, 358.472 267.074, 360.291 268.691 C 364.630 272.545, 392.976 293, 393.978 293 C 395.119 293, 395.480 153.413, 394.346 150.460 C 393.744 148.890, 304.344 81.453, 301.334 80.298 C 300.230 79.874, 300 92.196, 300 151.886 M 467.449 101.652 C 451.527 113.580, 430.625 129.239, 421 136.450 L 403.500 149.561 403.243 221.280 C 403.080 266.831, 403.339 293, 403.951 293 C 405.585 293, 497.455 223.980, 498.208 222.186 C 499.072 220.129, 498.985 156.108, 498.117 155.575 C 497.778 155.367, 485.163 164.377, 470.084 175.598 C 455.005 186.819, 442.517 196, 442.334 196 C 442.150 196, 442 193.630, 442 190.733 L 442 185.467 469.910 164.567 C 496.157 144.913, 497.849 143.454, 498.313 140.084 C 499.290 132.971, 498.535 80.678, 497.449 80.316 C 496.872 80.124, 483.372 89.725, 467.449 101.652 M 506.005 164.750 C 506 170.822, 506.188 171.272, 512.552 180.464 C 524.975 198.407, 535.239 218.558, 539.074 232.536 C 540.703 238.475, 541.107 242.356, 540.843 249.533 C 540.533 257.949, 540.215 259.245, 537.500 263.166 C 535.421 266.169, 532.657 268.421, 528.500 270.500 C 522.848 273.326, 521.862 273.492, 511.500 273.361 C 498.974 273.202, 487.261 270.528, 470.815 264.071 L 461.106 260.260 458.072 262.380 C 456.403 263.546, 455.178 264.950, 455.350 265.500 C 455.838 267.056, 476.443 274.969, 487 277.654 C 504.848 282.194, 521.772 282.406, 531.259 278.210 C 537.364 275.509, 542.676 270.539, 545.813 264.590 C 548.305 259.866, 548.495 258.637, 548.452 247.500 C 548.410 236.338, 548.148 234.743, 544.701 224.660 C 542.663 218.698, 538.657 209.267, 535.799 203.704 C 530.936 194.237, 514.108 168.210, 508.512 161.500 L 506.010 158.500 506.005 164.750 M 283.871 168.539 C 259.689 201.229, 246.369 232.943, 248.492 252.774 C 249.910 266.010, 257.904 275.815, 270.275 279.489 C 276.851 281.442, 292.429 281.446, 302.702 279.497 C 312.721 277.597, 338.979 268.735, 342 266.234 C 342.604 265.735, 336.859 261.012, 335.638 261.005 C 335.164 261.002, 330.439 262.627, 325.138 264.616 C 309.353 270.537, 297.776 273.146, 286.500 273.322 C 274.279 273.514, 269.670 272.222, 263.644 266.918 C 260.009 263.718, 258.656 261.625, 257.375 257.217 C 252.827 241.572, 262.141 214.613, 282.555 184.332 L 291.087 171.676 290.794 165.627 L 290.500 159.579 283.871 168.539 M 334 168.447 L 334 173.957 345.219 182.402 C 351.389 187.047, 356.789 190.630, 357.219 190.365 C 357.649 190.099, 358 187.897, 358 185.472 L 358 181.062 346 172 L 334 162.938 334 168.447 M 757.002 331.250 L 757.005 339.500 764.156 343.500 C 768.089 345.700, 771.736 347.372, 772.259 347.215 C 772.782 347.058, 776.088 345.275, 779.605 343.252 L 786 339.574 786 331.287 C 786 326.729, 785.738 323, 785.418 323 C 785.098 323, 782.061 324.640, 778.668 326.645 C 775.276 328.649, 772.050 330.289, 771.500 330.289 C 770.950 330.289, 767.724 328.649, 764.332 326.645 C 760.939 324.640, 757.902 323, 757.582 323 C 757.262 323, 757.001 326.712, 757.002 331.250 M 500.270 338.054 C 486.932 340.687, 477.226 349.536, 473.457 362.501 C 471.391 369.606, 471.971 378.886, 474.894 385.494 C 477.858 392.193, 485.067 399.297, 492.266 402.611 C 497.874 405.192, 499.554 405.480, 509 405.480 C 518.409 405.480, 520.138 405.187, 525.637 402.654 C 529.012 401.100, 533.287 398.251, 535.137 396.323 L 538.500 392.818 532 386.925 C 528.425 383.685, 525.144 381.025, 524.708 381.016 C 524.273 381.007, 522.923 381.953, 521.708 383.118 C 511.182 393.211, 495 386.669, 495 372.320 C 495 365.570, 496.904 360.916, 500.803 358.140 C 507.127 353.637, 514.436 354.113, 520.650 359.433 L 524.626 362.836 531.563 356.526 L 538.500 350.215 536 347.512 C 528.379 339.274, 513.734 335.397, 500.270 338.054 M 0 347.500 L 0 356 8.982 356 L 17.964 356 18.232 380.058 L 18.500 404.117 29.250 404.308 L 40.001 404.500 40 380.286 L 40 356.072 49.750 355.786 L 59.500 355.500 59.790 347.250 L 60.081 339 30.040 339 L 0 339 0 347.500 M 214.697 339.718 C 213.484 341.777, 187 402.908, 187 403.649 C 186.999 404.596, 207.334 404.530, 208.873 403.578 C 209.409 403.247, 210.593 400.732, 211.504 397.988 L 213.161 393 225.886 393 L 238.612 393 240.633 398.661 L 242.654 404.321 254.077 404.315 C 260.365 404.312, 265.411 403.903, 265.301 403.405 C 265.192 402.907, 258.880 388.325, 251.273 371 L 237.443 339.500 226.300 339.218 C 220.172 339.063, 214.950 339.288, 214.697 339.718 M 81.500 353.399 C 72.621 356.207, 66.352 361.521, 63.299 368.826 C 61.171 373.920, 61.383 383.823, 63.734 389.104 C 66.382 395.054, 73.444 401.323, 79.925 403.475 C 87.306 405.927, 102.790 405.272, 108.567 402.264 C 115.999 398.394, 116.088 397.609, 109.806 391.328 C 104.462 385.984, 104.175 385.838, 101.881 387.293 C 96.306 390.830, 88.319 390.220, 84.466 385.962 C 82.708 384.019, 82.869 384, 100.845 384 L 119 384 119 378.866 C 119 370.703, 117.113 366.047, 111.534 360.446 C 107.530 356.426, 105.259 355.045, 100.434 353.696 C 93.367 351.720, 87.118 351.622, 81.500 353.399 M 345.383 352.890 C 332.305 356.258, 324.071 365.893, 324.022 377.884 C 323.988 386.271, 325.832 390.896, 331.475 396.574 C 337.602 402.739, 343.502 405.002, 353.428 404.994 C 362.069 404.988, 366.168 403.913, 372.235 400.066 C 389.293 389.248, 386.688 363.178, 367.727 354.961 C 362.094 352.520, 350.863 351.479, 345.383 352.890 M 633 353.348 C 631.075 354.108, 628.712 355.064, 627.750 355.472 C 626.501 356.001, 626 355.753, 626 354.607 C 626 353.238, 624.518 353, 616 353 L 606 353 606 388 L 606 423 616.500 423 L 627 423 627 412.500 C 627 406.725, 627.337 402.016, 627.750 402.035 C 628.163 402.055, 629.625 402.714, 631 403.500 C 635.264 405.938, 646.233 405.422, 651.971 402.515 C 660.714 398.084, 664.897 390.335, 664.934 378.500 C 664.969 367.496, 660.356 359.314, 651.572 354.797 C 646.567 352.224, 637.616 351.525, 633 353.348 M 692.630 353.575 C 679.811 357.669, 672.985 366.686, 673.010 379.493 C 673.030 389.626, 680.750 400.023, 690.795 403.446 C 696.990 405.557, 709.211 405.462, 715.500 403.255 C 733.055 397.093, 738.573 374.238, 725.704 360.986 C 718.395 353.460, 703.465 350.114, 692.630 353.575 M 125.630 354.250 C 126.042 354.938, 130.118 360.614, 134.689 366.865 C 139.260 373.116, 143 378.552, 143 378.944 C 143 379.337, 138.950 384.962, 134 391.445 C 129.050 397.928, 125 403.517, 124.999 403.866 C 124.999 404.215, 130.061 404.406, 136.249 404.291 L 147.500 404.082 151 399.081 C 152.925 396.330, 154.744 394.062, 155.043 394.040 C 155.342 394.018, 156.917 396.241, 158.543 398.980 C 160.169 401.719, 162.063 404.005, 162.750 404.059 C 163.438 404.113, 167.217 404.193, 171.148 404.237 L 178.296 404.316 179.753 400.663 L 181.209 397.011 174.605 388.141 C 170.972 383.262, 168 378.721, 168 378.050 C 168 377.380, 171.679 372.031, 176.174 366.165 C 180.670 360.299, 184.775 354.938, 185.297 354.250 C 186.042 353.267, 183.812 353.006, 174.872 353.026 L 163.500 353.052 160.126 358.026 C 158.270 360.762, 156.404 363, 155.980 363 C 155.556 363, 153.765 360.750, 152 358 L 148.792 353 136.837 353 C 127.540 353, 125.048 353.278, 125.630 354.250 M 266 361.500 L 266 370 273.976 370 L 281.953 370 282.226 387.134 L 282.500 404.267 292.500 404.359 L 302.500 404.451 302.774 387.225 L 303.047 370 311.024 370 L 319 370 319 361.500 L 319 353 292.500 353 L 266 353 266 361.500 M 394.233 378.629 L 394.500 404.258 404 404.323 L 413.500 404.388 413.500 393.694 C 413.500 387.812, 413.762 382.999, 414.082 383 C 414.402 383, 416.652 386.820, 419.082 391.488 L 423.500 399.976 428.500 399.960 L 433.500 399.944 438.500 391.222 L 443.500 382.500 444 393.450 L 444.500 404.401 453.500 404.419 L 462.500 404.438 462.767 378.684 L 463.034 352.930 452.906 353.215 L 442.778 353.500 436.385 364.500 C 432.869 370.550, 429.649 375.615, 429.229 375.756 C 428.809 375.896, 425.888 370.834, 422.738 364.506 L 417.011 353 405.489 353 L 393.966 353 394.233 378.629 M 543.210 361.250 L 543.500 369.500 551.227 369.792 L 558.953 370.083 559.227 387.126 L 559.500 404.168 569.500 404.168 L 579.500 404.168 579.774 387.084 L 580.047 370 588.024 370 L 596 370 596 361.500 L 596 353 569.460 353 L 542.919 353 543.210 361.250 M 741.233 378.610 L 741.500 404.289 751.421 404.210 L 761.342 404.130 769.921 392.847 L 778.500 381.564 778.779 393.032 L 779.057 404.500 787.779 404.281 C 792.575 404.160, 797.288 404.047, 798.250 404.031 C 799.870 404.002, 800 402.107, 800 378.500 L 800 353 790.213 353 L 780.426 353 771.963 363.997 L 763.500 374.994 763 364.247 L 762.500 353.500 751.733 353.216 L 740.966 352.932 741.233 378.610 M 222.658 368.775 C 221.196 372.501, 220 375.876, 220 376.275 C 220 376.674, 222.748 377, 226.107 377 C 231.503 377, 232.139 376.796, 231.567 375.250 C 228.316 366.457, 226.415 362, 225.913 362 C 225.585 362, 224.120 365.049, 222.658 368.775 M 85 369 C 81.630 372.370, 82.575 373, 91 373 C 95.400 373, 99 372.628, 99 372.174 C 99 371.720, 97.958 370.370, 96.686 369.174 C 93.661 366.333, 87.755 366.245, 85 369 M 348.282 371.250 C 345.340 374.454, 344.599 379.104, 346.359 383.316 C 349.009 389.658, 354.390 390.764, 359.200 385.954 C 361.990 383.163, 362.204 382.477, 361.752 377.768 C 361.394 374.041, 360.642 372.128, 359.018 370.814 C 355.880 368.272, 350.828 368.478, 348.282 371.250 M 630.025 370.975 C 625.883 375.117, 626.220 383.455, 630.672 386.957 C 634.101 389.654, 637.264 389.537, 640.694 386.587 C 643.074 384.540, 643.500 383.412, 643.500 379.167 C 643.500 375.245, 642.975 373.602, 641.076 371.581 C 638.071 368.382, 632.901 368.099, 630.025 370.975 M 697.073 371.635 C 694.781 374.549, 694.243 381.716, 696.061 385.114 C 697.450 387.710, 701.629 389.240, 705.191 388.458 C 711.020 387.178, 713.203 376.112, 708.545 371.455 C 705.104 368.014, 699.856 368.096, 697.073 371.635" stroke="none" fill="#ffffff" fill-rule="evenodd"/>
</svg>