<svg xmlns="http://www.w3.org/2000/svg" width="647" height="167" viewBox="0 0 647 167" version="1.1">
	<path d="M 127.192 22.201 C 119.444 35.839, 71.045 126.379, 71.344 126.678 C 71.530 126.864, 98.510 126.900, 131.299 126.758 L 190.915 126.500 161.588 72.043 C 145.457 42.092, 131.797 17.432, 131.232 17.244 C 130.666 17.055, 128.848 19.286, 127.192 22.201 M 178 20 C 173.800 24.200, 176.802 31.043, 182.922 31.217 C 187.431 31.345, 190.423 27.889, 189.569 23.537 C 189.241 21.867, 188.218 19.938, 187.295 19.250 C 184.782 17.377, 180.258 17.742, 178 20 M 181.507 19.989 C 181.171 20.532, 181.522 20.737, 182.288 20.443 C 184.378 19.641, 186.539 22.646, 185.110 24.367 C 184.253 25.400, 184.307 26.010, 185.330 26.859 C 186.075 27.477, 186.980 27.687, 187.342 27.325 C 188.773 25.893, 187.880 22.030, 185.777 20.557 C 183.188 18.743, 182.346 18.631, 181.507 19.989 M 178.667 21.667 C 177.642 22.692, 177.877 26.806, 179 27.500 C 179.595 27.868, 180 26.677, 180 24.559 C 180 20.904, 179.820 20.514, 178.667 21.667 M 181.500 23 C 181.160 23.550, 181.584 24, 182.441 24 C 183.298 24, 184 23.550, 184 23 C 184 22.450, 183.577 22, 183.059 22 C 182.541 22, 181.840 22.450, 181.500 23 M 181 28 C 181 29.345, 181.667 30, 183.035 30 C 184.760 30, 184.907 29.695, 184 28 C 183.411 26.900, 182.495 26, 181.965 26 C 181.434 26, 181 26.900, 181 28 M 108 75.102 C 95.625 98.157, 85.350 117.465, 85.167 118.010 C 84.950 118.654, 100.940 119, 130.917 119 C 156.262 119, 177 118.801, 177 118.558 C 177 117.838, 132.020 34.616, 131.227 33.869 C 130.827 33.492, 120.375 52.047, 108 75.102 M 114 78.125 C 104.925 95.779, 97.350 110.623, 97.167 111.112 C 96.976 111.619, 111.506 112, 131 112 C 149.792 112, 165.017 111.660, 164.833 111.244 C 162.745 106.509, 131.369 46.032, 131 46.030 C 130.725 46.028, 123.075 60.471, 114 78.125 M 23 79 L 23 99 47.923 99 L 72.847 99 83.423 79.525 C 89.240 68.813, 94 59.813, 94 59.525 C 94 59.236, 78.025 59, 58.500 59 L 23 59 23 79 M 168.005 59.748 C 168.008 60.161, 172.675 69.050, 178.375 79.500 L 188.739 98.500 393.120 98.500 L 597.500 98.500 597.500 79 L 597.500 59.500 382.750 59.248 C 264.637 59.109, 168.002 59.334, 168.005 59.748 M 119.750 82.959 C 113.838 94.462, 109 104.127, 109 104.437 C 109 104.746, 118.900 105, 131 105 C 143.100 105, 153 104.811, 153 104.579 C 153 104.348, 148.631 95.685, 143.290 85.329 C 137.950 74.973, 133.112 65.491, 132.540 64.258 C 131.968 63.025, 131.275 62.022, 131 62.030 C 130.725 62.039, 125.662 71.457, 119.750 82.959 M 212 77.573 C 212 85.198, 212.194 86.110, 213.750 85.815 C 214.903 85.597, 215.607 84.377, 215.813 82.242 C 216.235 77.885, 218 78.093, 218 82.500 C 218 85.333, 218.381 86, 220 86 C 221.843 86, 222 85.333, 222 77.500 C 222 69.667, 221.843 69, 220 69 C 218.444 69, 218 69.667, 218 72 C 218 73.650, 217.550 75, 217 75 C 216.450 75, 216 73.650, 216 72 C 216 69.667, 215.556 69, 214 69 C 212.156 69, 212 69.667, 212 77.573 M 392.333 70.500 C 392.517 71.050, 393.717 71.500, 395 71.500 C 396.283 71.500, 397.483 71.050, 397.667 70.500 C 397.850 69.950, 396.650 69.500, 395 69.500 C 393.350 69.500, 392.150 69.950, 392.333 70.500 M 465.639 74.750 C 465.343 77.912, 464.806 82.412, 464.445 84.750 C 463.850 88.612, 463.982 89, 465.895 89 C 467.099 89, 468 88.358, 468 87.500 C 468 86.567, 468.944 86, 470.500 86 C 472.056 86, 473 86.567, 473 87.500 C 473 88.366, 473.904 89, 475.139 89 C 477.133 89, 477.236 88.644, 476.648 83.750 C 476.301 80.862, 476.013 76.362, 476.009 73.750 L 476 69 471.089 69 L 466.178 69 465.639 74.750 M 470 75.418 C 470 77.298, 469.727 79.548, 469.393 80.418 C 468.995 81.456, 469.338 82, 470.393 82 C 471.655 82, 472 80.926, 472 77 C 472 74.250, 471.550 72, 471 72 C 470.450 72, 470 73.538, 470 75.418 M 224.980 74.524 C 223.261 76.595, 224.633 77.710, 227.045 76.204 C 228.645 75.205, 229 75.245, 229 76.424 C 229 77.217, 228.101 78.151, 227.002 78.499 C 224.942 79.153, 223.340 83.123, 224.426 84.880 C 224.764 85.427, 226.831 85.849, 229.020 85.819 L 233 85.764 233 80.964 C 233 78.324, 232.727 75.452, 232.393 74.582 C 231.613 72.549, 226.651 72.510, 224.980 74.524 M 235.024 75.250 C 235.038 76.487, 235.501 79.463, 236.054 81.861 C 236.777 84.994, 236.738 86.611, 235.917 87.599 C 235.033 88.665, 235.154 89.122, 236.455 89.621 C 238.948 90.578, 240.058 88.889, 241.569 81.846 C 243.314 73.709, 243.308 73, 241.500 73 C 240.576 73, 240 73.938, 240 75.441 C 240 76.784, 239.550 78.160, 239 78.500 C 238.417 78.861, 238 77.844, 238 76.059 C 238 74.007, 237.506 73, 236.500 73 C 235.604 73, 235.010 73.906, 235.024 75.250 M 245.190 76.750 C 245.439 79.762, 245.943 80.563, 247.750 80.820 C 249.379 81.051, 250 81.810, 250 83.570 C 250 85.063, 250.578 86, 251.500 86 C 252.679 86, 253 84.611, 253 79.500 C 253 74.389, 252.679 73, 251.500 73 C 250.567 73, 250 73.944, 250 75.500 C 250 76.875, 249.550 78, 249 78 C 248.450 78, 248 76.875, 248 75.500 C 248 73.901, 247.437 73, 246.440 73 C 245.248 73, 244.953 73.886, 245.190 76.750 M 256 79.500 C 256 84.611, 256.321 86, 257.500 86 C 258.433 86, 259 85.056, 259 83.500 C 259 82.125, 259.450 81, 260 81 C 260.550 81, 261 82.125, 261 83.500 C 261 85.056, 261.567 86, 262.500 86 C 263.679 86, 264 84.611, 264 79.500 C 264 74.389, 263.679 73, 262.500 73 C 261.567 73, 261 73.944, 261 75.500 C 261 76.875, 260.550 78, 260 78 C 259.450 78, 259 76.875, 259 75.500 C 259 73.944, 258.433 73, 257.500 73 C 256.321 73, 256 74.389, 256 79.500 M 267.200 74.200 C 265.646 75.754, 265.646 83.246, 267.200 84.800 C 270.499 88.099, 275 85.041, 275 79.500 C 275 73.959, 270.499 70.901, 267.200 74.200 M 286.496 74.007 C 286.153 74.561, 286.577 75.284, 287.437 75.614 C 288.560 76.045, 289 77.592, 289 81.107 C 289 84.790, 289.371 86, 290.500 86 C 291.633 86, 292 84.778, 292 81 C 292 78.250, 292.450 76, 293 76 C 293.550 76, 294 75.325, 294 74.500 C 294 72.765, 287.526 72.339, 286.496 74.007 M 296.667 73.667 C 296.300 74.033, 296 76.725, 296 79.648 C 296 84.490, 296.223 85.018, 298.513 85.593 C 301.225 86.273, 304 84.647, 304 82.378 C 304 81.620, 303.325 81, 302.500 81 C 301.675 81, 301 81.450, 301 82 C 301 82.550, 300.550 83, 300 83 C 299.450 83, 299 82.325, 299 81.500 C 299 80.567, 299.944 80, 301.500 80 C 303.442 80, 304 79.487, 304 77.700 C 304 76.435, 303.460 74.860, 302.800 74.200 C 301.506 72.906, 297.753 72.580, 296.667 73.667 M 306.464 76.261 C 307.617 79.018, 307.614 79.905, 306.449 82.011 C 304.580 85.388, 304.664 86, 307 86 C 308.227 86, 309.012 85.323, 309.030 84.250 C 309.059 82.583, 309.109 82.583, 310.080 84.250 C 310.641 85.213, 311.800 86, 312.657 86 C 313.777 86, 313.990 85.509, 313.417 84.250 C 312.978 83.287, 312.619 81.150, 312.619 79.500 C 312.619 77.850, 312.978 75.713, 313.417 74.750 C 313.990 73.491, 313.777 73, 312.657 73 C 311.800 73, 310.641 73.787, 310.080 74.750 C 309.109 76.417, 309.059 76.417, 309.030 74.750 C 309.012 73.692, 308.229 73, 307.051 73 C 305.239 73, 305.198 73.229, 306.464 76.261 M 315.409 74.377 C 315.118 75.134, 315.020 77.943, 315.190 80.618 C 315.425 84.305, 315.923 85.562, 317.250 85.814 C 318.549 86.061, 319 85.484, 319 83.573 C 319 82.158, 319.450 81, 320 81 C 320.550 81, 321 82.125, 321 83.500 C 321 85.056, 321.567 86, 322.500 86 C 323.679 86, 324 84.611, 324 79.500 C 324 74.389, 323.679 73, 322.500 73 C 321.675 73, 321 73.873, 321 74.941 C 321 76.009, 320.550 77.160, 320 77.500 C 319.433 77.851, 319 77.010, 319 75.559 C 319 72.803, 316.348 71.930, 315.409 74.377 M 326.202 79.171 C 326.548 86.337, 328.300 87.841, 330.472 82.837 L 331.922 79.500 331.961 82.750 C 331.987 84.955, 332.482 86, 333.500 86 C 334.679 86, 335 84.611, 335 79.500 C 335 72.047, 333.050 70.612, 330.584 76.250 L 329.163 79.500 329.082 76.250 C 329.026 74.018, 328.515 73, 327.452 73 C 326.190 73, 325.960 74.139, 326.202 79.171 M 337.187 76.250 C 337.400 78.459, 338.208 79.811, 339.709 80.470 C 340.924 81.003, 342.049 82.348, 342.209 83.459 C 342.369 84.570, 343.288 85.630, 344.250 85.813 C 345.775 86.104, 346 85.291, 346 79.500 C 346 73.773, 345.764 72.899, 344.294 73.182 C 343.355 73.363, 342.275 74.633, 341.894 76.005 L 341.199 78.500 341.100 75.750 C 341.024 73.671, 340.497 73, 338.937 73 C 337.211 73, 336.925 73.532, 337.187 76.250 M 348.430 74.322 C 348.124 75.119, 348.015 77.689, 348.187 80.034 C 348.548 84.955, 350.878 87.196, 353.750 85.388 C 356.057 83.935, 356.608 81, 354.573 81 C 353.708 81, 353 81.450, 353 82 C 353 82.550, 352.550 83, 352 83 C 351.450 83, 351 82.325, 351 81.500 C 351 80.557, 351.951 80, 353.563 80 C 355.853 80, 356.093 79.653, 355.813 76.750 C 355.538 73.891, 355.108 73.462, 352.243 73.186 C 350.096 72.979, 348.797 73.366, 348.430 74.322 M 359.200 74.200 C 357.646 75.754, 357.646 83.246, 359.200 84.800 C 361.103 86.703, 364.816 86.212, 366.057 83.893 C 367.630 80.955, 365.480 78.669, 363.572 81.250 C 361.661 83.837, 361 83.402, 361 79.559 C 361 75.876, 362.419 74.043, 363.364 76.506 C 363.898 77.897, 367 78.689, 367 77.434 C 367 73.804, 361.767 71.633, 359.200 74.200 M 369 79.500 C 369 84.611, 369.321 86, 370.500 86 C 371.460 86, 372.014 85.010, 372.040 83.250 L 372.080 80.500 373.572 83.250 C 374.393 84.763, 375.725 86, 376.532 86 C 378.379 86, 378.367 85.611, 376.403 81.812 C 375.155 79.400, 375.046 78.195, 375.903 76.314 C 377.313 73.220, 377.289 73, 375.550 73 C 374.752 73, 373.641 73.787, 373.080 74.750 C 372.109 76.417, 372.059 76.417, 372.030 74.750 C 372.014 73.787, 371.325 73, 370.500 73 C 369.321 73, 369 74.389, 369 79.500 M 379.552 74.167 C 379.305 74.900, 379.193 77.744, 379.302 80.487 C 379.537 86.402, 382.106 88.004, 383.820 83.304 L 384.842 80.500 384.921 83.250 C 384.971 84.993, 385.549 86, 386.500 86 C 387.681 86, 388 84.603, 388 79.427 C 388 73.706, 387.773 72.897, 386.250 73.187 C 385.288 73.370, 384.356 74.528, 384.180 75.760 C 384.005 76.992, 383.414 78, 382.868 78 C 382.321 78, 382.015 77.029, 382.187 75.843 C 382.531 73.470, 380.271 72.032, 379.552 74.167 M 391 79.417 C 391 84.564, 391.323 86, 392.481 86 C 393.295 86, 394.280 84.763, 394.669 83.250 L 395.376 80.500 395.966 82.926 C 397.512 89.289, 400.082 83.557, 399.184 75.750 C 398.784 72.278, 396.253 72.142, 395.399 75.547 C 394.732 78.202, 393.535 78.024, 393.513 75.266 C 393.506 74.389, 392.938 73.483, 392.250 73.253 C 391.334 72.945, 391 74.593, 391 79.417 M 407.917 73.413 C 407.688 73.641, 407.652 76.566, 407.839 79.913 C 408.172 85.891, 408.230 86, 411.089 86 C 412.690 86, 414 86.450, 414 87 C 414 87.550, 414.734 88, 415.631 88 C 416.959 88, 417.147 87.304, 416.642 84.250 C 416.301 82.188, 416.017 78.813, 416.011 76.750 C 416.003 74.088, 415.565 73, 414.500 73 C 413.367 73, 413 74.222, 413 78 C 413 80.750, 412.550 83, 412 83 C 411.450 83, 411 80.750, 411 78 C 411 74.500, 410.600 73, 409.667 73 C 408.933 73, 408.146 73.186, 407.917 73.413 M 419.200 74.200 C 417.727 75.673, 417.630 81.441, 419.035 84.066 C 420.426 86.665, 424.622 86.574, 426.046 83.914 C 427.463 81.266, 426.472 80.224, 424.001 81.767 C 422.784 82.527, 421.872 82.601, 421.483 81.972 C 420.934 81.084, 421.653 80.657, 425.750 79.435 C 427.340 78.961, 427.370 75.770, 425.800 74.200 C 425.140 73.540, 423.655 73, 422.500 73 C 421.345 73, 419.860 73.540, 419.200 74.200 M 429 79.500 C 429 84.611, 429.321 86, 430.500 86 C 431.433 86, 432 85.056, 432 83.500 C 432 82.125, 432.450 81, 433 81 C 433.550 81, 434 82.125, 434 83.500 C 434 85.056, 434.567 86, 435.500 86 C 436.679 86, 437 84.611, 437 79.500 C 437 74.389, 436.679 73, 435.500 73 C 434.567 73, 434 73.944, 434 75.500 C 434 76.875, 433.550 78, 433 78 C 432.450 78, 432 76.875, 432 75.500 C 432 73.944, 431.433 73, 430.500 73 C 429.321 73, 429 74.389, 429 79.500 M 439 74.500 C 439 75.325, 439.450 76, 440 76 C 440.550 76, 441 78.250, 441 81 C 441 84.778, 441.367 86, 442.500 86 C 443.629 86, 444 84.790, 444 81.107 C 444 77.680, 444.449 76.042, 445.500 75.638 C 448.401 74.525, 446.956 73, 443 73 C 440.111 73, 439 73.417, 439 74.500 M 448 81.600 C 448 89.333, 448.159 90, 450 90 C 451.479 90, 452 89.333, 452 87.441 C 452 85.918, 452.423 85.143, 453.044 85.527 C 455.031 86.755, 457 83.807, 456.985 79.628 C 456.964 74.142, 456.195 73.198, 451.750 73.199 L 448 73.200 448 81.600 M 479 79.500 C 479 84.574, 479.325 86, 480.481 86 C 481.295 86, 482.280 84.763, 482.669 83.250 L 483.376 80.500 483.966 82.926 C 484.290 84.260, 485.105 85.535, 485.778 85.759 C 486.658 86.053, 487 84.326, 487 79.583 C 487 74.570, 486.662 73, 485.583 73 C 484.804 73, 483.715 74.237, 483.162 75.750 L 482.158 78.500 482.079 75.750 C 482.029 74.007, 481.451 73, 480.500 73 C 479.321 73, 479 74.389, 479 79.500 M 490.031 74.942 C 489.094 76.693, 489.221 77, 490.881 77 C 491.955 77, 493.034 76.438, 493.280 75.750 C 493.525 75.063, 494.097 74.847, 494.550 75.271 C 495.004 75.695, 493.881 77.289, 492.054 78.814 C 489.484 80.959, 488.888 82.070, 489.414 83.730 C 489.965 85.464, 490.857 85.863, 494.092 85.818 L 498.089 85.763 497.795 79.632 C 497.502 73.543, 497.478 73.498, 494.316 73.192 C 491.930 72.960, 490.857 73.399, 490.031 74.942 M 500.202 79.250 C 500.429 84.007, 500.858 85.500, 502 85.500 C 503.067 85.500, 503.644 84.056, 504 80.500 C 504.313 77.370, 504.808 75.977, 505.324 76.775 C 505.778 77.476, 506.005 79.720, 505.829 81.762 C 505.580 84.655, 505.894 85.549, 507.255 85.811 C 508.772 86.103, 509 85.289, 509 79.573 L 509 73 504.452 73 L 499.905 73 500.202 79.250 M 511 81.560 C 511 89.333, 511.158 90, 513 90 C 514.446 90, 515 89.333, 515 87.594 C 515 85.698, 515.415 85.296, 516.955 85.698 C 519.293 86.310, 520.308 83.372, 519.820 77.405 C 519.505 73.562, 519.432 73.497, 515.250 73.310 L 511 73.121 511 81.560 M 522.714 73.619 C 522.321 74.012, 522 76.453, 522 79.044 C 522 84.519, 523.712 86.540, 527.536 85.580 C 529.960 84.972, 530.082 84.628, 529.799 79.219 C 529.508 73.658, 529.416 73.492, 526.464 73.203 C 524.794 73.039, 523.107 73.227, 522.714 73.619 M 532.725 73.750 C 532.128 74.892, 532.587 84.920, 533.268 85.602 C 534.286 86.619, 536.167 84.877, 535.612 83.431 C 535.323 82.679, 535.518 81.798, 536.044 81.473 C 536.570 81.148, 537 81.734, 537 82.774 C 537 86.172, 538.424 86.190, 539.649 82.809 L 540.848 79.500 540.924 82.750 C 540.975 84.938, 541.490 86, 542.500 86 C 543.681 86, 544 84.603, 544 79.430 C 544 73.195, 543.886 72.877, 541.756 73.180 C 540.182 73.405, 539.327 74.394, 538.890 76.500 L 538.266 79.500 537.508 76.250 C 536.996 74.055, 536.161 73, 534.934 73 C 533.935 73, 532.941 73.338, 532.725 73.750 M 202.200 76.200 C 200.408 77.992, 200.748 80.361, 203 81.768 C 204.617 82.778, 205 82.767, 205 81.708 C 205 80.989, 204.511 79.911, 203.913 79.313 C 203.130 78.530, 203.130 78.038, 203.913 77.554 C 205.175 76.774, 205.374 75, 204.200 75 C 203.760 75, 202.860 75.540, 202.200 76.200 M 207.200 76.200 C 205.408 77.992, 205.748 80.361, 208 81.768 C 209.617 82.778, 210 82.767, 210 81.708 C 210 80.989, 209.511 79.911, 208.913 79.313 C 208.130 78.530, 208.130 78.038, 208.913 77.554 C 210.175 76.774, 210.374 75, 209.200 75 C 208.760 75, 207.860 75.540, 207.200 76.200 M 299 76.559 C 299 77.416, 299.457 77.835, 300.016 77.490 C 300.575 77.144, 300.774 76.443, 300.457 75.931 C 299.600 74.544, 299 74.802, 299 76.559 M 351.500 76 C 351.160 76.550, 351.359 77, 351.941 77 C 352.523 77, 353 76.550, 353 76 C 353 75.450, 352.802 75, 352.559 75 C 352.316 75, 351.840 75.450, 351.500 76 M 421.553 75.915 C 421.231 76.436, 421.394 77.125, 421.915 77.447 C 422.436 77.769, 423.125 77.606, 423.447 77.085 C 423.769 76.564, 423.606 75.875, 423.085 75.553 C 422.564 75.231, 421.875 75.394, 421.553 75.915 M 546 75.858 C 546 76.421, 546.472 77.174, 547.049 77.530 C 547.763 77.972, 547.718 78.635, 546.906 79.613 C 545.144 81.736, 546.765 82.663, 548.757 80.672 C 550.049 79.380, 550.209 78.554, 549.412 77.291 C 548.162 75.309, 546 74.401, 546 75.858 M 551 75.941 C 551 76.459, 551.472 77.174, 552.049 77.530 C 552.763 77.972, 552.718 78.635, 551.906 79.613 C 550.441 81.378, 551.153 82.262, 553.357 81.417 C 555.455 80.611, 555.500 76.406, 553.418 75.607 C 551.301 74.795, 551 74.836, 551 75.941 M 269 78.941 C 269 80.559, 269.450 82.160, 270 82.500 C 270.595 82.868, 271 81.677, 271 79.559 C 271 77.602, 270.550 76, 270 76 C 269.450 76, 269 77.323, 269 78.941 M 451.810 78.213 C 451.531 79.675, 451.622 81.388, 452.012 82.020 C 453.035 83.675, 453.857 79.943, 453.004 77.512 C 452.397 75.781, 452.260 75.862, 451.810 78.213 M 515 79.500 C 515 81.425, 515.450 83, 516 83 C 516.550 83, 517 81.425, 517 79.500 C 517 77.575, 516.550 76, 516 76 C 515.450 76, 515 77.575, 515 79.500 M 525 79.500 C 525 81.425, 525.450 83, 526 83 C 526.550 83, 527 81.425, 527 79.500 C 527 77.575, 526.550 76, 526 76 C 525.450 76, 525 77.575, 525 79.500 M 276 80 C 276 80.550, 278.250 81, 281 81 C 283.750 81, 286 80.550, 286 80 C 286 79.450, 283.750 79, 281 79 C 278.250 79, 276 79.450, 276 80 M 123.546 80.787 C 123.246 81.088, 123 85.758, 123 91.167 L 123 101 129.326 101 C 136.670 101, 139.371 99.032, 140.512 92.847 C 141.321 88.462, 138.826 82.397, 135.821 81.443 C 133.121 80.586, 124.222 80.111, 123.546 80.787 M 227.583 80.866 C 227.152 81.563, 227.070 82.403, 227.400 82.733 C 228.295 83.628, 229.271 82.312, 228.787 80.862 C 228.449 79.846, 228.213 79.846, 227.583 80.866 M 493 81.500 C 493 82.325, 493.450 83, 494 83 C 494.550 83, 495 82.325, 495 81.500 C 495 80.675, 494.550 80, 494 80 C 493.450 80, 493 80.675, 493 81.500 M 127.667 84.667 C 127.300 85.033, 127 87.972, 127 91.198 C 127 97.727, 128.217 99.009, 132.867 97.383 C 135.148 96.585, 135.541 95.819, 135.808 91.653 C 135.980 88.966, 135.595 86.217, 134.936 85.422 C 133.730 83.969, 128.869 83.464, 127.667 84.667 M 70 138.500 C 70 140.975, 70.450 143, 71 143 C 71.550 143, 72 141.425, 72 139.500 C 72 136.667, 72.381 136, 74 136 C 75.625 136, 76 136.667, 76 139.559 C 76 141.677, 76.405 142.868, 77 142.500 C 77.550 142.160, 78 140.109, 78 137.941 C 78 134.010, 77.990 134, 74 134 L 70 134 70 138.500 M 80 138.496 C 80 141.323, 80.388 142.878, 81 142.500 C 81.550 142.160, 82 141.265, 82 140.511 C 82 139.756, 83.013 138.995, 84.250 138.820 C 85.727 138.610, 86.500 137.813, 86.500 136.500 C 86.500 134.975, 85.729 134.426, 83.250 134.187 C 80.007 133.874, 80 133.883, 80 138.496 M 89.200 135.200 C 85.626 138.774, 89.929 144.265, 94.626 142.124 C 97.446 140.840, 97.998 135.597, 95.418 134.607 C 92.944 133.658, 90.510 133.890, 89.200 135.200 M 99 138.500 C 99 142.959, 100.942 145.076, 101.063 140.750 L 101.127 138.500 102.031 140.750 C 103.052 143.290, 105 143.782, 105 141.500 C 105 140.675, 105.450 140, 106 140 C 106.550 140, 107 140.702, 107 141.559 C 107 142.416, 107.353 142.900, 107.784 142.634 C 108.215 142.367, 108.392 140.316, 108.179 138.075 C 107.752 133.605, 105.666 132.552, 104.561 136.250 L 103.890 138.500 102.792 136.250 C 100.900 132.373, 99 133.500, 99 138.500 M 110 138.500 C 110 142.124, 110.341 142.997, 111.750 142.986 C 115.504 142.957, 118 141.718, 118 139.883 C 118 138.070, 116.995 137.560, 114.172 137.943 C 113.442 138.042, 112.602 137.196, 112.306 136.062 C 111.355 132.425, 110 133.857, 110 138.500 M 119 137.941 C 119 140.109, 119.450 142.160, 120 142.500 C 120.611 142.878, 121 141.344, 121 138.559 C 121 136.052, 120.550 134, 120 134 C 119.450 134, 119 135.773, 119 137.941 M 123 138.550 L 123 143.100 128.750 142.800 L 134.500 142.500 134.807 138.250 C 134.989 135.735, 134.683 134, 134.057 134 C 133.476 134, 133 135.575, 133 137.500 C 133 139.944, 132.548 141, 131.500 141 C 130.452 141, 130 139.944, 130 137.500 C 130 135.575, 129.550 134, 129 134 C 128.450 134, 128 135.575, 128 137.500 C 128 139.944, 127.548 141, 126.500 141 C 125.452 141, 125 139.944, 125 137.500 C 125 135.575, 124.550 134, 124 134 C 123.450 134, 123 136.047, 123 138.550 M 136.766 138.250 C 136.269 143, 136.402 143.488, 137.933 142.541 C 138.520 142.179, 139 140.559, 139 138.941 C 139 136.993, 139.507 136, 140.500 136 C 141.493 136, 142 136.993, 142 138.941 C 142 140.559, 142.450 142.160, 143 142.500 C 143.611 142.878, 144 141.344, 144 138.559 C 144 134.042, 143.969 134, 140.605 134 C 137.347 134, 137.192 134.172, 136.766 138.250 M 146 138.500 C 146 142.976, 146.019 143, 149.500 143 C 151.425 143, 153 142.550, 153 142 C 153 141.450, 151.875 141, 150.500 141 C 149.125 141, 148 140.550, 148 140 C 148 139.450, 149.125 139, 150.500 139 C 153.879 139, 153.686 137.237, 150.250 136.716 L 147.500 136.300 150.250 136.150 C 154.283 135.930, 153.610 134, 149.500 134 C 146.019 134, 146 134.024, 146 138.500 M 155 138.500 C 155 140.975, 155.450 143, 156 143 C 156.550 143, 157 142.100, 157 141 C 157 139.667, 157.667 139, 159 139 C 160.352 139, 161 139.667, 161 141.059 C 161 142.191, 161.450 142.840, 162 142.500 C 162.550 142.160, 163 140.109, 163 137.941 C 163 135.773, 162.550 134, 162 134 C 161.450 134, 161 134.627, 161 135.393 C 161 137.748, 157.881 138.262, 157.291 136.004 C 156.353 132.417, 155 133.890, 155 138.500 M 165 138.500 C 165 141.324, 165.388 142.878, 166 142.500 C 166.550 142.160, 167 141.234, 167 140.441 C 167 139.648, 167.675 139, 168.500 139 C 169.325 139, 170 139.648, 170 140.441 C 170 141.234, 170.450 142.160, 171 142.500 C 171.611 142.878, 172 141.344, 172 138.559 C 172 133.903, 170.652 132.397, 169.710 136 C 169.111 138.291, 167 138.726, 167 136.559 C 167 135.766, 166.550 134.840, 166 134.500 C 165.388 134.122, 165 135.676, 165 138.500 M 175.449 137.468 C 173.455 142.240, 173.588 143.274, 176 141.768 C 177.593 140.773, 178.404 140.771, 179.986 141.759 C 182.775 143.501, 184.409 143.310, 186.500 141 C 188.817 138.440, 190 138.460, 190 141.059 C 190 142.191, 190.450 142.840, 191 142.500 C 191.550 142.160, 192 140.081, 192 137.881 L 192 133.879 188.250 134.190 C 185.035 134.456, 184.485 134.857, 184.392 137 C 184.205 141.302, 184.026 142, 183.109 142 C 182.618 142, 181.497 140.200, 180.617 138 C 178.652 133.089, 177.335 132.954, 175.449 137.468 M 82 136.969 C 82 137.501, 82.675 137.678, 83.500 137.362 C 84.325 137.045, 85 136.609, 85 136.393 C 85 136.177, 84.325 136, 83.500 136 C 82.675 136, 82 136.436, 82 136.969 M 90.336 137.567 C 90.005 138.429, 90.214 139.614, 90.800 140.200 C 92.355 141.755, 95 140.390, 95 138.031 C 95 135.565, 91.247 135.192, 90.336 137.567 M 186.750 136.662 C 187.438 136.940, 188.563 136.940, 189.250 136.662 C 189.938 136.385, 189.375 136.158, 188 136.158 C 186.625 136.158, 186.063 136.385, 186.750 136.662 M 112 140 C 112 140.550, 112.900 141, 114 141 C 115.100 141, 116 140.550, 116 140 C 116 139.450, 115.100 139, 114 139 C 112.900 139, 112 139.450, 112 140 M 81.919 148.250 C 81.874 148.387, 81.681 149.625, 81.490 151 C 81.299 152.375, 80.829 154.850, 80.446 156.500 C 79.873 158.968, 79.984 159.278, 81.075 158.250 C 81.804 157.563, 83.345 157, 84.500 157 C 85.655 157, 87.200 157.563, 87.932 158.250 C 89.032 159.281, 89.154 158.910, 88.632 156.125 C 88.285 154.269, 88 151.681, 88 150.375 C 88 148.403, 87.491 148, 85 148 C 83.350 148, 81.963 148.113, 81.919 148.250 M 90.750 148.572 C 89.631 149.708, 89.844 155.786, 91.028 156.517 C 91.593 156.867, 92.928 156.106, 93.995 154.826 L 95.933 152.500 95.967 154.750 C 95.985 155.988, 96.450 157, 97 157 C 97.550 157, 98 154.975, 98 152.500 C 98 147.689, 96.794 146.756, 94.768 150 C 93.165 152.567, 92.221 152.536, 91.820 149.905 C 91.644 148.753, 91.162 148.153, 90.750 148.572 M 101.010 152.226 C 99.058 156.585, 99.145 158.255, 101.217 156.183 C 102.770 154.630, 105.715 154.669, 106.280 156.250 C 106.525 156.938, 107.032 157.219, 107.405 156.875 C 108.295 156.055, 105.062 148, 103.843 148 C 103.325 148, 102.051 149.902, 101.010 152.226 M 110 152.500 C 110 154.975, 110.450 157, 111 157 C 111.550 157, 112 155.425, 112 153.500 C 112 150.667, 112.381 150, 114 150 C 115.100 150, 116 149.550, 116 149 C 116 148.450, 114.650 148, 113 148 C 110.111 148, 110 148.167, 110 152.500 M 117.711 148.622 C 116.617 149.716, 116.868 157, 118 157 C 118.550 157, 119 156.100, 119 155 C 119 153.667, 119.667 153, 121 153 C 122.333 153, 123 153.667, 123 155 C 123 156.100, 123.450 157, 124 157 C 124.550 157, 125 154.975, 125 152.500 C 125 150.025, 124.550 148, 124 148 C 123.450 148, 123 148.900, 123 150 C 123 152.627, 120.155 152.594, 119.179 149.955 C 118.763 148.831, 118.103 148.231, 117.711 148.622 M 128.250 148.662 C 127.563 148.940, 127 150.389, 127 151.883 C 127 157.071, 131.361 158.675, 134.961 154.811 C 136.082 153.608, 137 153.142, 137 153.776 C 137 155.496, 140.795 157.200, 143.038 156.488 C 145.947 155.565, 145.415 154.095, 142.251 154.312 C 140.046 154.463, 139.435 154.026, 139.163 152.107 C 138.851 149.911, 139.083 149.767, 141.992 150.348 C 144.280 150.806, 145.047 150.637, 144.753 149.741 C 144.042 147.574, 139.225 147.667, 137.846 149.874 C 136.615 151.845, 136.581 151.846, 135.243 149.936 C 133.956 148.098, 130.987 147.558, 128.250 148.662 M 147 149 C 147 149.550, 147.450 150, 148 150 C 148.550 150, 149 151.575, 149 153.500 C 149 155.425, 149.450 157, 150 157 C 150.550 157, 151 155.425, 151 153.500 C 151 151.056, 151.452 150, 152.500 150 C 153.325 150, 154 149.550, 154 149 C 154 148.450, 152.425 148, 150.500 148 C 148.575 148, 147 148.450, 147 149 M 155.750 148.572 C 154.633 149.706, 154.842 157, 155.992 157 C 156.537 157, 157.545 156.100, 158.232 155 C 158.919 153.900, 159.823 153, 160.241 153 C 160.658 153, 161 153.900, 161 155 C 161 156.100, 161.450 157, 162 157 C 162.550 157, 163 154.975, 163 152.500 C 163 147.689, 161.794 146.756, 159.768 150 C 158.165 152.567, 157.221 152.536, 156.820 149.905 C 156.644 148.753, 156.162 148.153, 155.750 148.572 M 165 152.500 C 165 154.975, 165.450 157, 166 157 C 166.550 157, 167 156.255, 167 155.345 C 167 153.805, 167.127 153.805, 168.829 155.345 C 170.879 157.201, 173.566 157.511, 174.500 156 C 175.376 154.582, 178.747 154.758, 179.280 156.250 C 179.525 156.938, 180.032 157.219, 180.405 156.875 C 181.262 156.085, 178.085 148, 176.917 148 C 176.441 148, 175.308 149.463, 174.399 151.250 C 172.223 155.528, 172.287 155.483, 170.502 154.001 C 169.106 152.843, 169.106 152.487, 170.501 150.359 C 172.295 147.620, 171.464 147.270, 168.829 149.655 C 167.127 151.195, 167 151.195, 167 149.655 C 167 148.745, 166.550 148, 166 148 C 165.450 148, 165 150.025, 165 152.500 M 84 150.918 C 84 151.423, 83.727 152.548, 83.393 153.418 C 82.995 154.456, 83.338 155, 84.393 155 C 85.440 155, 86 154.130, 86 152.500 C 86 151.125, 85.550 150, 85 150 C 84.450 150, 84 150.413, 84 150.918 M 129.170 152.170 C 129.390 153.723, 130.167 154.500, 131.500 154.500 C 134.478 154.500, 134.181 150.596, 131.170 150.170 C 129.231 149.895, 128.895 150.231, 129.170 152.170" stroke="none" fill="#ffffff" fill-rule="evenodd"/>
</svg>