<svg xmlns="http://www.w3.org/2000/svg" width="600" height="600" viewBox="0 0 600 600" version="1.1">
	<path d="M 277 94.902 C 240.541 102.907, 210.002 124.903, 193.176 155.276 C 190.329 160.415, 188 165.073, 188 165.627 C 188 166.181, 190.588 167.446, 193.750 168.438 C 215.384 175.222, 232.790 191.802, 240.974 213.419 L 242.079 216.339 246.405 212.094 C 252.245 206.362, 258.329 195.426, 262.607 182.967 C 269.280 163.539, 276.783 151.156, 288.656 139.975 C 292.438 136.414, 298.296 132.033, 301.673 130.241 L 307.814 126.982 312.009 131.741 C 317.190 137.618, 325.645 150.375, 327.188 154.643 C 328.582 158.498, 330.507 159, 343.895 159 C 354.969 159, 364.638 156.724, 374.329 151.837 C 380.649 148.650, 389.983 141.933, 393.434 138.090 L 395.368 135.936 389.934 130.366 C 374.262 114.302, 353.564 102.073, 332.500 96.434 C 323.745 94.090, 320.197 93.712, 304 93.396 C 288.685 93.098, 284.036 93.357, 277 94.902 M 395.744 142.955 C 391.621 148.841, 376.169 158.313, 364.500 162.106 C 358.565 164.036, 355.219 164.396, 342.500 164.477 L 327.500 164.572 327.712 169.017 C 328.027 175.616, 333.821 186.200, 342.482 196 C 354.965 210.123, 364.159 225.011, 368.826 238.654 C 371.511 246.505, 373.294 257.585, 372.531 261.674 C 371.994 264.547, 371.444 264.961, 366.719 266.043 C 363.849 266.700, 355.486 267.415, 348.135 267.631 C 340.784 267.848, 334.396 268.255, 333.940 268.537 C 333.484 268.819, 331.018 272.408, 328.460 276.513 C 319.556 290.799, 315.871 306.929, 317.948 322.535 C 318.575 327.246, 319.491 332.162, 319.984 333.458 C 320.819 335.654, 321.173 335.750, 325.190 334.873 C 348.355 329.813, 368.608 318.665, 385.593 301.625 C 403.730 283.430, 414.270 264.051, 419.679 238.953 C 422.147 227.496, 422.133 200.124, 419.652 188.218 C 417.740 179.044, 413.521 166.935, 409.404 158.810 C 405.612 151.324, 398.982 141, 397.967 141 C 397.498 141, 396.497 141.880, 395.744 142.955 M 183.052 178.054 C 177.380 196.027, 176.498 222.828, 180.981 240.969 C 192.847 288.979, 230.468 324.572, 280.500 335.124 C 286.459 336.381, 313.312 337.020, 314.402 335.931 C 314.715 335.618, 314.311 332.243, 313.503 328.431 C 311.601 319.452, 311.611 307.880, 313.528 298.208 C 315.309 289.225, 322.190 274.440, 327.428 268.341 C 329.393 266.054, 331 263.891, 331 263.536 C 331 263.180, 328.504 261.747, 325.453 260.350 C 320.469 258.068, 318.970 257.855, 310.703 258.252 C 305.641 258.495, 295.875 259.712, 289 260.955 C 278.416 262.870, 274.201 263.141, 261.500 262.723 C 252.055 262.412, 244.294 261.616, 240.542 260.573 C 234.996 259.031, 223.585 253.861, 221.650 252.012 C 219.950 250.388, 226.847 233.869, 233.717 223.105 L 237.161 217.710 235.544 213.476 C 230.519 200.318, 218.090 186.183, 204.894 178.619 C 201.465 176.653, 187.048 171, 185.464 171 C 185.362 171, 184.277 174.174, 183.052 178.054 M 293.293 190.389 C 282.759 193.831, 275.630 203.945, 275.737 215.295 C 275.887 231.221, 290.630 243.203, 306.016 239.903 C 320.765 236.740, 329.786 222.036, 325.649 207.902 C 321.615 194.115, 306.660 186.021, 293.293 190.389 M 225 406.500 L 225 425 238 425 L 251 425 251 429 C 251 432.600, 251.250 433, 253.500 433 C 255.893 433, 256 432.740, 256 426.906 C 256 421.654, 255.724 420.741, 254 420.290 C 252.106 419.794, 252 418.926, 252 403.883 L 252 388 249.021 388 L 246.041 388 246.156 403.750 L 246.271 419.500 238.136 419.790 L 230 420.081 230 404.040 L 230 388 227.500 388 L 225 388 225 406.500 M 268 406.500 L 268 425 270.500 425 L 273 425 273 408.682 L 273 392.364 281.500 392.290 L 290 392.215 290 408.608 L 290 425 292.500 425 L 295 425 295 406.500 L 295 388 281.500 388 L 268 388 268 406.500 M 307.180 390.250 C 307.468 392.276, 308.024 392.488, 312.750 392.379 L 318 392.258 318 408.629 L 318 425 320.475 425 L 322.950 425 323.225 408.757 L 323.500 392.513 328.500 392.475 C 332.888 392.442, 333.539 392.165, 333.820 390.219 C 334.136 388.020, 334.016 388, 320.500 388 C 306.928 388, 306.862 388.011, 307.180 390.250 M 346 406.500 L 346 425 348.758 425 C 351.250 425, 352.363 423.572, 360.258 410.250 L 369 395.500 369 410.250 L 369 425 371.500 425 L 374 425 374 406.500 L 374 388 371.113 388 C 368.461 388, 367.543 389.152, 359.863 402.116 L 351.500 416.233 351.223 402.116 L 350.945 388 348.473 388 L 346 388 346 406.500 M 177.250 451.250 C 177.580 452.241, 203.022 452.500, 300 452.500 C 396.978 452.500, 422.420 452.241, 422.750 451.250 C 423.082 450.255, 398.089 450, 300 450 C 201.911 450, 176.918 450.255, 177.250 451.250 M 193.599 477.834 C 192.063 478.134, 191.905 479.671, 192.084 492.584 C 192.268 505.895, 192.426 507, 194.142 507 C 195.727 507, 196 506.193, 196 501.500 L 196 496 200.550 496 C 205.563 496, 210.416 493.963, 211.379 491.455 C 211.720 490.565, 212 488.278, 212 486.373 C 212 482.559, 208.419 478.050, 205.295 477.932 C 204.308 477.895, 201.658 477.782, 199.407 477.682 C 197.155 477.582, 194.542 477.650, 193.599 477.834 M 227.288 478.629 C 218.955 482.738, 217.651 498.163, 225.106 504.436 C 227.601 506.535, 229.192 507, 233.881 507 C 239.115 507, 239.900 506.698, 243.007 503.493 C 246.006 500.398, 246.448 499.252, 246.763 493.743 C 247.197 486.156, 245.005 481.358, 239.915 478.752 C 235.702 476.595, 231.497 476.554, 227.288 478.629 M 262.898 479.270 C 254.404 484.944, 253.661 498.656, 261.514 504.832 C 265.218 507.746, 277 508.064, 277 505.250 C 277 503.796, 276.073 503.500, 271.523 503.500 C 266.940 503.500, 265.615 503.070, 263.413 500.868 C 258.499 495.953, 259.389 485.003, 264.945 482.030 C 266.003 481.463, 269.148 481, 271.934 481 C 275.598 481, 277 480.614, 277 479.607 C 277 476.248, 267.752 476.027, 262.898 479.270 M 321.750 477.792 C 315.912 478.012, 314 478.430, 314 479.485 C 314 480.417, 315.420 480.988, 318.250 481.193 L 322.500 481.500 322.500 494.249 C 322.500 505.725, 322.675 506.999, 324.250 506.999 C 325.827 507, 326 505.715, 326 494 L 326 481 330.500 481 C 333.670 481, 335 480.590, 335 479.613 C 335 477.881, 331.644 477.419, 321.750 477.792 M 348.299 478.960 C 343.953 481.609, 342 485.807, 342 492.500 C 342 502.591, 345.953 507, 355 507 C 364.108 507, 368.003 502.595, 367.996 492.300 C 367.992 485.211, 365.449 480.503, 360.510 478.440 C 355.818 476.479, 352.107 476.637, 348.299 478.960 M 290.584 491.265 C 287.880 498.544, 285.470 505.063, 285.227 505.750 C 284.972 506.473, 285.607 507, 286.735 507 C 288.142 507, 289.017 505.888, 289.882 503 L 291.080 499 297.500 499 L 303.920 499 305.118 503 C 305.953 505.785, 306.876 507, 308.158 507 C 309.171 507, 310 506.571, 310 506.047 C 310 505.284, 303.621 487.662, 300.481 479.750 C 300.099 478.788, 298.822 478.007, 297.643 478.015 C 295.811 478.028, 294.786 479.953, 290.584 491.265 M 379.618 482.750 C 379.304 485.363, 378.784 490.650, 378.463 494.500 C 378.141 498.350, 377.645 502.738, 377.360 504.250 C 376.938 506.487, 377.205 507, 378.790 507 C 380.914 507, 381.880 503.487, 382.089 495 C 382.337 484.898, 383.342 485.183, 386.961 496.380 C 389.903 505.482, 390.699 507, 392.527 507 C 394.366 507, 395.124 505.513, 398.005 496.250 C 400.972 486.714, 401.430 485.839, 402.057 488.500 C 402.445 490.150, 402.823 493.975, 402.895 497 C 403.070 504.285, 403.883 507, 405.888 507 C 407.406 507, 407.443 505.898, 406.339 493.750 C 405.676 486.462, 405.104 479.938, 405.067 479.250 C 405.030 478.563, 403.902 478, 402.561 478 C 400.360 478, 399.865 478.857, 397.503 486.750 C 393.600 499.798, 392.878 502, 392.504 502 C 392.317 502, 390.478 496.600, 388.418 490 C 385.093 479.348, 384.421 478, 382.430 478 C 380.502 478, 380.108 478.665, 379.618 482.750 M 196.200 486.750 L 196.500 492.500 200.695 492.418 C 205.803 492.318, 208 490.668, 208 486.934 C 208 483.320, 204.766 481, 199.728 481 L 195.900 481 196.200 486.750 M 227.521 483.388 C 224.514 486.395, 223.520 491.504, 224.926 496.724 C 226.257 501.668, 227.789 503.028, 232.780 503.697 C 235.864 504.111, 237.184 503.742, 239.353 501.857 C 243.889 497.918, 244.213 487.753, 239.949 483.175 C 237.063 480.078, 230.723 480.186, 227.521 483.388 M 350.229 481.669 C 347.940 482.590, 346 487.801, 346 493.027 C 346 497.360, 346.453 498.606, 348.923 501.077 C 352.896 505.050, 357.143 505.011, 361.191 500.963 C 364.077 498.077, 364.207 497.596, 363.808 491.329 C 363.465 485.946, 362.964 484.390, 361.083 482.866 C 358.901 481.099, 353.207 480.471, 350.229 481.669 M 295.170 488.263 C 293.965 491.694, 292.984 494.837, 292.990 495.250 C 292.995 495.663, 295.025 496, 297.500 496 C 300.434 496, 302 495.565, 301.999 494.750 C 301.999 493.651, 298.198 482.882, 297.592 482.263 C 297.465 482.133, 296.375 484.833, 295.170 488.263" stroke="none" fill="#ffffff" fill-rule="evenodd"/>
</svg>