<svg xmlns="http://www.w3.org/2000/svg" width="389" height="74" viewBox="0 0 389 74" version="1.1">
	<path d="M 51.286 15.606 C 48.834 18.257, 43.794 19.158, 45.951 16.559 C 46.608 15.767, 47.743 15.348, 48.472 15.628 C 49.201 15.907, 50.056 15.719, 50.371 15.209 C 51.361 13.606, 45.925 14.758, 43.916 16.576 C 42.862 17.530, 42 17.960, 42 17.533 C 42 15.760, 38.676 19.706, 36.422 24.154 C 32.471 31.950, 33.969 42.166, 39.827 47.376 C 41.433 48.805, 41.705 49.682, 40.968 51.060 C 40.436 52.055, 40 53.720, 40 54.761 C 40 56.295, 39.432 56.570, 37 56.213 C 35.199 55.949, 34 56.218, 34 56.887 C 34 57.499, 35.575 58, 37.500 58 C 40.681 58, 41.514 57.252, 41.118 54.750 C 41.053 54.338, 41.450 54, 42 54 C 42.550 54, 43.045 55.013, 43.100 56.250 C 43.195 58.409, 43.232 58.398, 44 56 C 44.768 53.602, 44.805 53.591, 44.900 55.750 C 44.955 56.987, 45.408 58, 45.906 58 C 46.405 58, 46.577 57.100, 46.290 56 C 45.997 54.882, 46.259 54, 46.883 54 C 47.498 54, 48.045 55.013, 48.100 56.250 C 48.195 58.409, 48.232 58.398, 49 56 C 49.498 54.444, 49.838 54.138, 49.900 55.191 C 49.955 56.121, 50.408 57.134, 50.907 57.442 C 51.405 57.751, 51.578 57.102, 51.290 56.001 C 50.698 53.738, 51.939 53.387, 53.947 55.250 C 55.024 56.250, 55.152 56.250, 54.588 55.250 C 54.161 54.494, 54.470 54, 55.371 54 C 56.191 54, 57.056 55.013, 57.294 56.250 L 57.728 58.500 57.864 56.250 C 58.040 53.337, 59.733 53.337, 60.294 56.250 L 60.728 58.500 60.864 56.250 C 60.939 55.013, 61.419 54, 61.930 54 C 62.442 54, 63.056 55.013, 63.294 56.250 L 63.728 58.500 63.864 56.250 C 63.939 55.013, 64.450 54, 65 54 C 65.550 54, 66.045 55.013, 66.100 56.250 C 66.195 58.392, 66.234 58.381, 66.923 56 L 67.647 53.500 68.391 55.750 L 69.135 58 199.817 57.985 C 284.946 57.975, 329.977 57.630, 329 56.996 C 328.047 56.377, 280.823 56.021, 199.500 56.018 C 129.100 56.016, 70.982 56.012, 70.348 56.007 C 69.714 56.003, 68.706 54.597, 68.109 52.882 C 67.145 50.118, 67.322 49.407, 69.662 46.632 C 75.208 40.055, 76.415 32.695, 73.129 25.500 C 71.234 21.351, 65.413 14.980, 63.560 15.027 C 62.977 15.042, 63.917 16.279, 65.649 17.777 C 69.482 21.091, 71.971 26.359, 71.811 30.820 C 71.705 33.773, 71.435 34.075, 69.368 33.556 C 67.480 33.082, 66.924 33.454, 66.400 35.543 L 65.755 38.114 63.838 36.057 C 62.784 34.926, 60.823 34, 59.480 34 C 57.709 34, 56.866 33.313, 56.411 31.500 C 55.423 27.563, 54.004 28.579, 53.965 33.250 C 53.930 37.439, 53.909 37.464, 52.500 35 C 50.543 31.576, 50.620 33.364, 52.594 37.182 C 53.912 39.730, 53.955 40.413, 52.844 41.117 C 51.832 41.759, 51.974 41.973, 53.417 41.985 C 54.471 41.993, 54.996 42.337, 54.583 42.750 C 53.834 43.499, 53.324 43.640, 50.500 43.875 C 49.675 43.944, 49 44.706, 49 45.570 C 49 46.625, 48.263 47.034, 46.750 46.820 C 45.513 46.644, 44.495 46.050, 44.488 45.500 C 44.462 43.173, 41.651 38, 40.414 38 C 39.675 38, 38.573 37.070, 37.964 35.933 C 37.106 34.330, 37.203 33.375, 38.395 31.683 C 41.454 27.338, 42.741 26, 43.860 26 C 44.487 26, 45 25.387, 45 24.639 C 45 23.744, 45.816 23.433, 47.383 23.733 C 48.693 23.983, 50.113 23.626, 50.537 22.940 C 51.019 22.161, 50.901 21.943, 50.224 22.362 C 49.627 22.731, 48.885 22.622, 48.575 22.121 C 47.976 21.152, 50.185 20, 52.641 20 C 53.460 20, 53.815 20.490, 53.438 21.100 C 52.551 22.536, 55.604 20.799, 58.868 18.011 C 60.812 16.350, 61.014 15.722, 59.995 14.494 C 58.177 12.304, 53.826 12.859, 51.286 15.606 M 78.750 20.662 C 79.549 20.985, 80 23.269, 80 27 C 80 30.731, 79.549 33.015, 78.750 33.338 C 78.063 33.615, 79.075 33.842, 81 33.842 C 82.925 33.842, 83.938 33.615, 83.250 33.338 C 82.563 33.060, 82 31.521, 82 29.917 C 82 27.343, 82.352 27, 85 27 C 87.648 27, 88 27.343, 88 29.917 C 88 31.521, 87.438 33.060, 86.750 33.338 C 86.063 33.615, 87.075 33.842, 89 33.842 C 90.925 33.842, 91.938 33.615, 91.250 33.338 C 90.451 33.015, 90 30.731, 90 27 C 90 23.269, 90.451 20.985, 91.250 20.662 C 91.938 20.385, 90.925 20.158, 89 20.158 C 87.075 20.158, 86.063 20.385, 86.750 20.662 C 87.438 20.940, 88 22.254, 88 23.583 C 88 25.602, 87.506 26, 85 26 C 82.494 26, 82 25.602, 82 23.583 C 82 22.254, 82.563 20.940, 83.250 20.662 C 83.938 20.385, 82.925 20.158, 81 20.158 C 79.075 20.158, 78.063 20.385, 78.750 20.662 M 94.750 20.662 C 95.549 20.985, 96 23.269, 96 27 C 96 30.731, 95.549 33.015, 94.750 33.338 C 94.063 33.615, 95.075 33.842, 97 33.842 C 98.925 33.842, 99.938 33.615, 99.250 33.338 C 98.448 33.014, 98 30.714, 98 26.917 C 98 21.009, 98.005 21, 101 21 C 103.995 21, 104 21.009, 104 26.917 C 104 30.714, 103.552 33.014, 102.750 33.338 C 102.063 33.615, 103.075 33.842, 105 33.842 C 106.925 33.842, 107.938 33.615, 107.250 33.338 C 106.451 33.015, 106 30.731, 106 27 C 106 23.269, 106.451 20.985, 107.250 20.662 C 107.938 20.385, 105.125 20.158, 101 20.158 C 96.875 20.158, 94.063 20.385, 94.750 20.662 M 112.061 21.939 C 110.927 23.073, 110 25.250, 110 26.777 C 110 30.041, 112.498 34, 114.557 34 C 115.629 34, 115.486 33.486, 114 32 C 111.818 29.818, 111.409 25.974, 113.035 22.934 C 114.202 20.754, 116.998 20.398, 118.800 22.200 C 120.522 23.922, 120.281 30.576, 118.429 32.429 C 117.564 33.293, 117.307 34, 117.857 34 C 119.469 34, 121.946 31.063, 122.629 28.343 C 123.059 26.631, 122.628 24.975, 121.281 23.163 C 118.748 19.755, 114.773 19.227, 112.061 21.939 M 135.750 20.662 C 136.549 20.985, 137 23.269, 137 27 C 137 30.731, 136.549 33.015, 135.750 33.338 C 135.063 33.615, 136.075 33.842, 138 33.842 C 139.925 33.842, 140.938 33.615, 140.250 33.338 C 139.448 33.014, 139 30.714, 139 26.917 C 139 21.009, 139.005 21, 142 21 C 144.995 21, 145 21.009, 145 26.917 C 145 30.714, 144.552 33.014, 143.750 33.338 C 143.063 33.615, 144.075 33.842, 146 33.842 C 147.925 33.842, 148.938 33.615, 148.250 33.338 C 147.451 33.015, 147 30.731, 147 27 C 147 23.269, 147.451 20.985, 148.250 20.662 C 148.938 20.385, 146.125 20.158, 142 20.158 C 137.875 20.158, 135.063 20.385, 135.750 20.662 M 151.750 20.662 C 152.549 20.985, 153 23.269, 153 27 C 153 30.731, 152.549 33.015, 151.750 33.338 C 151.063 33.615, 152.075 33.842, 154 33.842 C 155.925 33.842, 156.938 33.615, 156.250 33.338 C 155.563 33.060, 155 31.746, 155 30.417 C 155 28.562, 155.534 28, 157.300 28 C 161.792 28, 163.771 23.018, 160.066 21.035 C 159.002 20.466, 156.414 20.036, 154.316 20.079 C 152.217 20.122, 151.063 20.385, 151.750 20.662 M 166 22 C 164.900 23.100, 164 25.250, 164 26.777 C 164 29.721, 166.437 34, 168.113 34 C 168.663 34, 168.413 33, 167.557 31.777 C 163.613 26.147, 168.260 17.660, 172.800 22.200 C 174.522 23.922, 174.281 30.576, 172.429 32.429 C 171.564 33.293, 171.227 33.993, 171.679 33.985 C 174.468 33.933, 177.392 28.849, 176.437 25.712 C 174.720 20.074, 169.709 18.291, 166 22 M 178.750 20.610 C 179.543 20.963, 180 23.297, 180 27 C 180 30.731, 179.549 33.015, 178.750 33.338 C 178.063 33.615, 178.850 33.842, 180.500 33.842 C 182.150 33.842, 182.938 33.615, 182.250 33.338 C 181.460 33.019, 181.030 30.932, 181.083 27.667 L 181.165 22.500 183.327 28.250 C 184.515 31.413, 185.752 34, 186.076 34 C 186.819 34, 189.082 26.749, 188.516 26.183 C 188.286 25.952, 187.786 27.006, 187.405 28.524 C 186.742 31.164, 186.617 31.049, 184.549 25.892 C 182.827 21.598, 181.889 20.454, 179.943 20.276 C 178.599 20.153, 178.063 20.303, 178.750 20.610 M 190 20.918 C 190 21.423, 189.733 22.661, 189.406 23.668 C 188.911 25.192, 188.993 25.248, 189.890 24 C 190.717 22.850, 190.973 23.707, 190.985 27.667 C 190.994 30.877, 190.527 33.024, 189.750 33.338 C 189.063 33.615, 190.075 33.842, 192 33.842 C 193.925 33.842, 194.938 33.615, 194.250 33.338 C 193.451 33.015, 193 30.731, 193 27 C 193 23.269, 193.451 20.985, 194.250 20.662 C 194.938 20.385, 194.262 20.122, 192.750 20.079 C 191.238 20.036, 190 20.413, 190 20.918 M 196.750 20.662 C 197.549 20.985, 198 23.269, 198 27 C 198 30.731, 197.549 33.015, 196.750 33.338 C 196.063 33.615, 197.773 33.878, 200.550 33.921 C 203.327 33.964, 206.140 33.460, 206.800 32.800 C 209.691 29.909, 206.969 26, 202.066 26 C 200.548 26, 200 25.359, 200 23.583 C 200 22.254, 200.563 20.940, 201.250 20.662 C 201.938 20.385, 200.925 20.158, 199 20.158 C 197.075 20.158, 196.063 20.385, 196.750 20.662 M 209.845 26.130 C 210.091 30.488, 209.801 32.511, 208.845 33.117 C 207.984 33.662, 208.940 33.933, 211.500 33.869 C 213.700 33.813, 214.713 33.562, 213.750 33.311 C 212.365 32.949, 212 31.764, 212 27.627 C 212 24.752, 212.540 21.860, 213.200 21.200 C 214.133 20.267, 213.856 20, 211.950 19.998 C 209.579 19.996, 209.511 20.193, 209.845 26.130 M 216.750 20.662 C 217.549 20.985, 218 23.269, 218 27 C 218 30.731, 217.549 33.015, 216.750 33.338 C 216.063 33.615, 220 33.842, 225.500 33.842 C 231 33.842, 234.938 33.615, 234.250 33.338 C 233.451 33.015, 233 30.731, 233 27 C 233 23.269, 233.451 20.985, 234.250 20.662 C 234.938 20.385, 234.375 20.121, 233 20.077 C 230.548 19.997, 230.506 20.122, 230.835 26.498 C 231.150 32.607, 231.039 33, 229 33 C 226.961 33, 226.850 32.607, 227.165 26.498 C 227.494 20.122, 227.452 19.997, 225 20.077 C 223.625 20.121, 223.063 20.385, 223.750 20.662 C 224.552 20.986, 225 23.286, 225 27.083 C 225 32.780, 224.904 33, 222.415 33 C 219.865 33, 219.834 32.911, 220.165 26.498 C 220.494 20.122, 220.452 19.997, 218 20.077 C 216.625 20.121, 216.063 20.385, 216.750 20.662 M 239.750 20.662 C 240.438 20.940, 241.064 23.042, 241.142 25.333 L 241.284 29.500 241.892 25.500 C 242.372 22.340, 242.973 21.433, 244.750 21.180 C 246.850 20.882, 247 21.228, 247 26.381 C 247 30.583, 246.582 32.144, 245.250 32.920 C 243.779 33.777, 243.978 33.944, 246.500 33.970 L 249.500 34 249.500 27 L 249.500 20 244 20.079 C 240.975 20.122, 239.063 20.385, 239.750 20.662 M 253.653 21.192 C 255.132 23.137, 255.340 30.886, 253.958 32.551 C 252.932 33.787, 253.581 34, 258.378 34 C 263.860 34, 263.998 33.931, 263.937 31.250 C 263.874 28.550, 263.856 28.543, 262.944 30.817 C 262.240 32.572, 261.367 33.057, 259.347 32.817 C 256.570 32.487, 255.567 30.318, 257.069 27.889 C 257.758 26.774, 258.210 26.892, 259.429 28.505 C 260.869 30.411, 260.938 30.350, 260.968 27.128 C 260.996 24.218, 260.791 23.929, 259.476 25.020 C 257.715 26.481, 257.320 26.253, 256.845 23.500 C 256.328 20.503, 260.371 20.282, 262.472 23.193 L 264.137 25.500 263.819 23 C 263.529 20.726, 263.011 20.472, 258.079 20.192 C 253.742 19.945, 252.857 20.145, 253.653 21.192 M 266.750 20.662 C 267.549 20.985, 268 23.269, 268 27 C 268 30.731, 267.549 33.015, 266.750 33.338 C 266.063 33.615, 267.075 33.842, 269 33.842 C 270.925 33.842, 271.938 33.615, 271.250 33.338 C 270.563 33.060, 270 31.521, 270 29.917 C 270 27.343, 270.352 27, 273 27 C 275.648 27, 276 27.343, 276 29.917 C 276 31.521, 275.438 33.060, 274.750 33.338 C 274.063 33.615, 275.075 33.842, 277 33.842 C 278.925 33.842, 279.938 33.615, 279.250 33.338 C 278.451 33.015, 278 30.731, 278 27 C 278 23.269, 278.451 20.985, 279.250 20.662 C 279.938 20.385, 279.340 20.122, 277.923 20.079 C 275.616 20.008, 275.393 20.314, 275.787 23 C 276.195 25.785, 276.004 26, 273.113 26 C 270.488 26, 270 25.621, 270 23.583 C 270 22.254, 270.563 20.940, 271.250 20.662 C 271.938 20.385, 270.925 20.158, 269 20.158 C 267.075 20.158, 266.063 20.385, 266.750 20.662 M 282.750 20.662 C 283.549 20.985, 284 23.269, 284 27 C 284 30.731, 283.549 33.015, 282.750 33.338 C 282.063 33.615, 283.075 33.842, 285 33.842 C 286.925 33.842, 287.938 33.615, 287.250 33.338 C 286.563 33.060, 286 31.521, 286 29.917 C 286 27.343, 286.352 27, 289 27 C 291.648 27, 292 27.343, 292 29.917 C 292 31.521, 291.438 33.060, 290.750 33.338 C 290.063 33.615, 291.075 33.842, 293 33.842 C 294.925 33.842, 295.938 33.615, 295.250 33.338 C 294.451 33.015, 294 30.731, 294 27 C 294 23.269, 294.451 20.985, 295.250 20.662 C 295.938 20.385, 294.925 20.158, 293 20.158 C 291.075 20.158, 290.063 20.385, 290.750 20.662 C 291.438 20.940, 292 22.254, 292 23.583 C 292 25.621, 291.512 26, 288.887 26 C 285.996 26, 285.805 25.785, 286.213 23 C 286.607 20.314, 286.384 20.008, 284.077 20.079 C 282.660 20.122, 282.063 20.385, 282.750 20.662 M 298.750 20.662 C 299.549 20.985, 300 23.269, 300 27 C 300 30.731, 299.549 33.015, 298.750 33.338 C 298.063 33.615, 299.525 33.871, 302 33.906 C 307.555 33.984, 309.274 32.974, 308.837 29.887 C 308.597 28.188, 307.563 27.224, 305.250 26.543 C 302.852 25.837, 302 25.007, 302 23.377 C 302 22.161, 302.563 20.940, 303.250 20.662 C 303.938 20.385, 302.925 20.158, 301 20.158 C 299.075 20.158, 298.063 20.385, 298.750 20.662 M 310.750 20.662 C 311.549 20.985, 312 23.269, 312 27 C 312 30.731, 311.549 33.015, 310.750 33.338 C 310.063 33.615, 311.075 33.842, 313 33.842 C 314.925 33.842, 315.938 33.615, 315.250 33.338 C 314.451 33.015, 314 30.731, 314 27 C 314 23.269, 314.451 20.985, 315.250 20.662 C 315.938 20.385, 314.925 20.158, 313 20.158 C 311.075 20.158, 310.063 20.385, 310.750 20.662 M 318.750 20.630 C 320.376 21.328, 320.416 31.184, 318.800 32.800 C 317.867 33.733, 318.867 34, 323.300 34 C 328.867 34, 328.999 33.936, 328.937 31.250 C 328.876 28.607, 328.838 28.587, 327.969 30.750 C 327.365 32.253, 326.224 33, 324.532 33 C 322.104 33, 322 32.754, 322 27 C 322 21.725, 322.235 21, 323.943 21 C 325.012 21, 326.618 22.012, 327.512 23.250 L 329.137 25.500 328.819 23 C 328.526 20.704, 328.050 20.483, 323 20.297 C 319.975 20.185, 318.063 20.335, 318.750 20.630 M 155 24 C 155 26.683, 155.327 27.093, 157.250 26.820 C 158.898 26.585, 159.500 25.831, 159.500 24 C 159.500 22.169, 158.898 21.415, 157.250 21.180 C 155.327 20.907, 155 21.317, 155 24 M 324.380 25.356 C 323.547 26.309, 323.611 27.116, 324.630 28.509 C 325.895 30.239, 326 30.138, 326 27.191 C 326 23.620, 325.949 23.562, 324.380 25.356 M 45.007 29.222 C 47.563 31.602, 52 32.752, 52 31.034 C 52 30.465, 51.100 30, 50 30 C 48.900 30, 48 29.423, 48 28.718 C 48 28.013, 46.788 27.336, 45.306 27.213 L 42.613 26.990 45.007 29.222 M 200 30 C 200 32.514, 200.395 33, 202.441 33 C 205.360 33, 206.355 31.694, 205.497 28.991 C 205.094 27.722, 203.983 27, 202.433 27 C 200.396 27, 200 27.489, 200 30 M 302 29.930 C 302 32.559, 302.369 33, 304.566 33 C 306.776 33, 307.089 32.618, 306.816 30.250 C 306.590 28.281, 305.861 27.409, 304.250 27.180 C 302.336 26.909, 302 27.319, 302 29.930 M 240 30.740 C 240 31.330, 239.100 31.577, 238 31.290 C 236.609 30.926, 236 31.259, 236 32.383 C 236 34.469, 239.860 34.530, 240.655 32.457 C 240.981 31.608, 240.966 30.633, 240.624 30.290 C 240.281 29.947, 240 30.150, 240 30.740 M 57 36 C 57 36.550, 57.450 37, 58 37 C 58.550 37, 59 36.550, 59 36 C 59 35.450, 58.550 35, 58 35 C 57.450 35, 57 35.450, 57 36 M 79 36.918 C 79 37.423, 78.720 38.661, 78.377 39.668 C 77.912 41.035, 78.180 40.929, 79.434 39.250 C 80.358 38.013, 81.538 37, 82.057 37 C 83.514 37, 83.223 47.743, 81.750 48.338 C 81.063 48.615, 82.075 48.842, 84 48.842 C 85.925 48.842, 86.938 48.615, 86.250 48.338 C 85.466 48.021, 85 45.814, 85 42.417 C 85 36.785, 86.384 35.308, 87.969 39.250 C 88.838 41.413, 88.876 41.393, 88.937 38.750 C 88.998 36.108, 88.803 36, 84 36 C 81.250 36, 79 36.413, 79 36.918 M 91.500 42.455 L 91.500 49 96.250 49 C 100.781 49, 100.997 48.873, 100.937 46.250 C 100.876 43.607, 100.838 43.587, 99.969 45.750 C 99.365 47.253, 98.224 48, 96.532 48 C 94.498 48, 94 47.508, 94 45.500 C 94 42.890, 96.423 41.983, 97.338 44.250 C 97.615 44.938, 97.878 44.172, 97.921 42.550 C 97.982 40.256, 97.733 39.867, 96.800 40.800 C 94.936 42.664, 94 42.230, 94 39.500 C 94 37.612, 94.524 37, 96.140 37 C 97.317 37, 98.910 37.788, 99.680 38.750 C 100.993 40.391, 101.061 40.376, 100.781 38.500 C 100.541 36.895, 99.594 36.442, 95.991 36.205 L 91.500 35.911 91.500 42.455 M 104.411 39.077 C 107.588 42.852, 107.592 43.069, 104.548 46.354 L 102.095 49 104.607 49 C 106.103 49, 106.856 48.576, 106.470 47.952 C 106.114 47.376, 106.093 46.200, 106.423 45.339 C 106.917 44.053, 107.296 44.001, 108.557 45.048 C 109.401 45.748, 109.860 46.923, 109.577 47.660 C 109.231 48.561, 109.887 49, 111.582 49 L 114.102 49 111.430 45.498 C 108.623 41.817, 108.829 40.659, 112.892 37.250 C 114.154 36.192, 113.960 36, 111.632 36 C 110.120 36, 109.135 36.409, 109.444 36.910 C 109.753 37.410, 109.727 38.547, 109.386 39.435 C 108.896 40.712, 108.467 40.803, 107.338 39.865 C 106.552 39.213, 106.140 38.077, 106.423 37.340 C 106.770 36.435, 106.106 36, 104.380 36 L 101.822 36 104.411 39.077 M 115.905 37.823 C 116.787 39.470, 116.572 44.521, 115.484 47.750 C 115.212 48.558, 116.025 48.972, 117.781 48.921 C 119.277 48.878, 119.938 48.615, 119.250 48.338 C 118.563 48.060, 118 46.746, 118 45.417 C 118 43.398, 118.494 43, 121 43 C 123.506 43, 124 43.398, 124 45.417 C 124 46.746, 123.438 48.060, 122.750 48.338 C 122.063 48.615, 122.625 48.878, 124 48.921 C 126.418 48.997, 126.500 48.788, 126.500 42.500 C 126.500 36.212, 126.418 36.003, 124 36.079 C 122.625 36.122, 122.063 36.385, 122.750 36.662 C 123.438 36.940, 124 38.284, 124 39.650 C 124 41.767, 123.596 42.086, 121.259 41.816 C 118.231 41.467, 116.887 38.321, 119.152 36.885 C 120.086 36.293, 119.644 36.026, 117.715 36.015 C 115.328 36.002, 115.069 36.261, 115.905 37.823 M 130.896 38.104 C 127.247 41.753, 130.104 49, 135.191 49 C 137.797 49, 141 45.416, 141 42.500 C 141 39.497, 137.772 36, 135 36 C 133.900 36, 132.053 36.947, 130.896 38.104 M 144.815 36.864 C 145.665 37.403, 146.018 39.255, 145.815 42.099 C 145.561 45.644, 145.159 46.443, 143.750 46.206 C 142.712 46.032, 142 46.541, 142 47.456 C 142 49.307, 144.561 49.512, 145.665 47.750 C 146.096 47.063, 146.685 44.480, 146.974 42.011 C 147.351 38.793, 147.995 37.428, 149.250 37.188 C 150.745 36.902, 151 37.654, 151 42.343 C 151 45.800, 150.537 48.020, 149.750 48.338 C 149.063 48.615, 150.075 48.842, 152 48.842 C 153.925 48.842, 154.938 48.615, 154.250 48.338 C 153.469 48.023, 153 45.831, 153 42.500 C 153 39.169, 153.469 36.977, 154.250 36.662 C 154.938 36.385, 152.800 36.129, 149.500 36.094 C 145.936 36.056, 144.034 36.369, 144.815 36.864 M 158.655 37.829 C 155.098 41.759, 157.703 49, 162.674 49 C 167.713 49, 170.012 40.523, 165.777 37.557 C 162.852 35.507, 160.681 35.590, 158.655 37.829 M 170.750 37.140 C 172.344 38.747, 172.379 46.221, 170.800 47.800 C 169.867 48.733, 170.227 49, 172.422 49 C 174.753 49, 175.039 48.751, 174.061 47.574 C 173.410 46.790, 173.018 44.206, 173.189 41.833 C 173.541 36.948, 176.071 35.469, 178.615 38.662 C 180.023 40.429, 180.068 40.423, 179.781 38.500 C 179.536 36.858, 178.589 36.445, 174.491 36.190 C 170.481 35.941, 169.746 36.128, 170.750 37.140 M 181.500 42.500 C 181.500 48.771, 181.588 48.999, 184 48.985 C 185.820 48.974, 186.124 48.731, 185.116 48.093 C 184.004 47.388, 184.297 46.474, 186.616 43.422 L 189.500 39.626 189.819 43.461 C 190.018 45.852, 189.642 47.611, 188.819 48.133 C 187.907 48.711, 188.271 48.974, 190 48.985 C 192.412 48.999, 192.500 48.771, 192.500 42.500 C 192.500 36.229, 192.412 36.001, 190 36.015 C 188.419 36.025, 187.951 36.317, 188.727 36.810 C 189.630 37.384, 189.235 38.603, 187.227 41.438 L 184.500 45.287 184.181 41.495 C 183.983 39.140, 184.361 37.387, 185.181 36.867 C 186.093 36.289, 185.729 36.026, 184 36.015 C 181.588 36.001, 181.500 36.229, 181.500 42.500 M 195.750 36.662 C 196.531 36.977, 197 39.169, 197 42.500 C 197 45.831, 196.531 48.023, 195.750 48.338 C 195.063 48.615, 195.723 48.878, 197.219 48.921 C 198.999 48.973, 199.775 48.569, 199.468 47.750 C 199.209 47.063, 200.143 45.150, 201.542 43.500 L 204.087 40.500 203.767 44.750 C 203.467 48.730, 203.608 48.995, 205.974 48.921 C 207.363 48.878, 207.938 48.615, 207.250 48.338 C 205.631 47.685, 205.591 38.809, 207.200 37.200 C 208.133 36.267, 207.807 36, 205.731 36 C 204.013 36, 203.230 36.445, 203.532 37.250 C 203.791 37.938, 202.857 39.850, 201.458 41.500 L 198.913 44.500 199.233 40.250 C 199.533 36.270, 199.392 36.005, 197.026 36.079 C 195.637 36.122, 195.063 36.385, 195.750 36.662 M 214.750 36.662 C 215.531 36.977, 216 39.169, 216 42.500 C 216 45.831, 215.531 48.023, 214.750 48.338 C 214.063 48.615, 215.075 48.871, 217 48.906 C 219.372 48.949, 220.054 48.687, 219.116 48.093 C 218.004 47.388, 218.297 46.474, 220.616 43.422 L 223.500 39.626 223.819 43.461 C 224.018 45.852, 223.642 47.611, 222.819 48.133 C 221.907 48.711, 222.271 48.974, 224 48.985 C 226.412 48.999, 226.500 48.771, 226.500 42.500 C 226.500 36.229, 226.412 36.001, 224 36.015 C 222.419 36.025, 221.951 36.317, 222.727 36.810 C 223.630 37.384, 223.235 38.603, 221.227 41.438 L 218.500 45.287 218.181 41.495 C 217.983 39.140, 218.361 37.387, 219.181 36.867 C 220.026 36.331, 219.243 36.053, 217 36.094 C 215.075 36.129, 214.063 36.385, 214.750 36.662 M 234.481 36.969 C 235.533 38.671, 235.763 45.438, 234.830 47.250 C 234.057 48.753, 234.394 48.984, 237.215 48.884 C 239.022 48.820, 239.713 48.562, 238.750 48.311 C 236.234 47.653, 236.382 43, 238.918 43 C 243.924 43, 245.969 39.124, 242.066 37.035 C 239.612 35.722, 233.678 35.670, 234.481 36.969 M 246.500 42.500 L 246.500 49 251.250 49 C 255.781 49, 255.997 48.873, 255.937 46.250 C 255.876 43.607, 255.838 43.587, 254.969 45.750 C 254.365 47.253, 253.224 48, 251.532 48 C 249.498 48, 249 47.508, 249 45.500 C 249 42.890, 251.423 41.983, 252.338 44.250 C 252.615 44.938, 252.878 44.172, 252.921 42.550 C 252.982 40.256, 252.733 39.867, 251.800 40.800 C 249.936 42.664, 249 42.230, 249 39.500 C 249 37.530, 249.507 37, 251.393 37 C 252.709 37, 254.070 37.739, 254.417 38.643 C 254.763 39.547, 255.272 40.061, 255.547 39.786 C 255.822 39.511, 255.763 38.547, 255.417 37.643 C 254.972 36.485, 253.564 36, 250.643 36 L 246.500 36 246.500 42.500 M 258.500 42.500 L 258.500 49 267 48.921 C 271.675 48.878, 274.938 48.615, 274.250 48.338 C 273.469 48.023, 273 45.831, 273 42.500 C 273 39.169, 273.469 36.977, 274.250 36.662 C 274.938 36.385, 274.375 36.122, 273 36.077 C 270.566 35.998, 270.509 36.155, 270.839 41.998 C 271.151 47.527, 271.013 48, 269.089 48 C 267.227 48, 267 47.410, 267 42.583 C 267 39.186, 267.466 36.979, 268.250 36.662 C 268.938 36.385, 268.375 36.122, 267 36.077 C 264.566 35.998, 264.509 36.155, 264.839 41.998 C 265.151 47.527, 265.013 48, 263.089 48 C 261.227 48, 261 47.410, 261 42.583 C 261 39.186, 261.466 36.979, 262.250 36.662 C 262.938 36.385, 262.375 36.122, 261 36.079 C 258.582 36.003, 258.500 36.212, 258.500 42.500 M 277.934 37.877 C 279.365 40.550, 279.287 46.313, 277.800 47.800 C 276.867 48.733, 277.756 49, 281.800 49 C 286.535 49, 286.997 48.799, 286.970 46.750 C 286.942 44.741, 286.830 44.687, 285.920 46.250 C 285.359 47.212, 283.798 48, 282.450 48 C 280.503 48, 280 47.486, 280 45.500 C 280 42.890, 282.423 41.983, 283.338 44.250 C 283.615 44.938, 283.842 44.150, 283.842 42.500 C 283.842 40.850, 283.615 40.063, 283.338 40.750 C 282.423 43.017, 280 42.110, 280 39.500 C 280 37.514, 280.503 37, 282.450 37 C 283.798 37, 285.390 37.788, 285.987 38.750 C 286.980 40.350, 287.048 40.328, 286.778 38.500 C 286.537 36.871, 285.591 36.443, 281.675 36.193 C 277.146 35.903, 276.930 36, 277.934 37.877 M 289.800 37.200 C 291.354 38.754, 291.354 46.246, 289.800 47.800 C 288.867 48.733, 289.244 49, 291.500 49 C 293.756 49, 294.133 48.733, 293.200 47.800 C 292.540 47.140, 292 45.790, 292 44.800 C 292 43.467, 292.778 43, 295 43 C 297.506 43, 298 43.398, 298 45.417 C 298 46.746, 297.438 48.060, 296.750 48.338 C 296.063 48.615, 297.075 48.842, 299 48.842 C 300.925 48.842, 301.938 48.615, 301.250 48.338 C 300.469 48.023, 300 45.831, 300 42.500 C 300 39.169, 300.469 36.977, 301.250 36.662 C 301.938 36.385, 300.925 36.158, 299 36.158 C 297.075 36.158, 296.063 36.385, 296.750 36.662 C 297.438 36.940, 298 38.254, 298 39.583 C 298 41.502, 297.479 42, 295.469 42 C 292.523 42, 291.232 39.630, 293.011 37.487 C 294.053 36.231, 293.807 36, 291.422 36 C 289.227 36, 288.867 36.267, 289.800 37.200 M 303.750 36.662 C 304.531 36.977, 305 39.169, 305 42.500 C 305 45.831, 304.531 48.023, 303.750 48.338 C 303.063 48.615, 304.075 48.871, 306 48.906 C 308.458 48.950, 309.074 48.700, 308.070 48.065 C 306.895 47.321, 307.163 46.478, 309.570 43.330 L 312.500 39.500 312.819 43.398 C 313.019 45.841, 312.646 47.609, 311.819 48.133 C 310.907 48.711, 311.271 48.974, 313 48.985 C 315.412 48.999, 315.500 48.771, 315.500 42.500 C 315.500 36.229, 315.412 36.001, 313 36.015 C 311.518 36.024, 310.977 36.334, 311.671 36.776 C 312.490 37.297, 311.936 38.720, 309.827 41.510 L 306.811 45.500 307.163 40.750 C 307.497 36.236, 307.390 36.004, 305.007 36.079 C 303.628 36.122, 303.063 36.385, 303.750 36.662 M 320.250 36.662 C 318.758 37.265, 318.584 40.625, 320 41.500 C 320.567 41.851, 321 41.010, 321 39.559 C 321 37.667, 321.521 37, 323 37 C 324.467 37, 325 37.667, 325 39.500 C 325 41.066, 324.434 42, 323.485 42 C 322.652 42, 321.127 43.387, 320.096 45.082 C 319.065 46.778, 317.980 47.666, 317.686 47.057 C 317.344 46.351, 317.236 46.389, 317.387 47.163 C 317.883 49.690, 320.084 49.057, 321.118 46.090 C 322.562 41.948, 325.392 41.878, 324.787 46 C 324.393 48.686, 324.616 48.992, 326.923 48.921 C 328.340 48.878, 328.938 48.615, 328.250 48.338 C 327.469 48.023, 327 45.831, 327 42.500 C 327 39.169, 327.469 36.977, 328.250 36.662 C 328.938 36.385, 327.700 36.158, 325.500 36.158 C 323.300 36.158, 320.938 36.385, 320.250 36.662 M 132.091 39.250 C 131.170 41.703, 131.628 46.003, 132.954 47.344 C 134.466 48.874, 137.319 47.545, 138.200 44.901 C 140.131 39.106, 134.204 33.623, 132.091 39.250 M 159.441 39.379 C 157.868 45.646, 160.831 50.045, 164.548 46.960 C 166.304 45.503, 166.466 39.866, 164.800 38.200 C 162.809 36.209, 160.086 36.808, 159.441 39.379 M 237.701 37.632 C 237.316 38.018, 237 39.190, 237 40.236 C 237 41.638, 237.593 42.055, 239.250 41.820 C 240.721 41.611, 241.500 40.812, 241.500 39.514 C 241.500 37.530, 239.028 36.306, 237.701 37.632 M 56 39 C 56 39.550, 56.477 40, 57.059 40 C 57.641 40, 57.840 39.550, 57.500 39 C 57.160 38.450, 56.684 38, 56.441 38 C 56.198 38, 56 38.450, 56 39 M 46.158 50 C 46.158 51.375, 46.385 51.938, 46.662 51.250 C 46.940 50.563, 46.940 49.438, 46.662 48.750 C 46.385 48.063, 46.158 48.625, 46.158 50 M 48.158 50 C 48.158 51.375, 48.385 51.938, 48.662 51.250 C 48.940 50.563, 48.940 49.438, 48.662 48.750 C 48.385 48.063, 48.158 48.625, 48.158 50 M 55.079 50.583 C 55.127 51.748, 55.364 51.985, 55.683 51.188 C 55.972 50.466, 55.936 49.603, 55.604 49.271 C 55.272 48.939, 55.036 49.529, 55.079 50.583" stroke="none" fill="#ffffff" fill-rule="evenodd"/>
</svg>