<svg xmlns="http://www.w3.org/2000/svg" width="500" height="109" viewBox="0 0 500 109" version="1.1">
	<path d="M 110.203 3.075 C 106.833 9.158, 107.604 8.968, 94.500 6.950 C 69.672 3.126, 41.451 5.210, 28.323 11.837 C 5.554 23.331, 18.502 36.659, 55.277 39.582 C 60.104 39.965, 63.896 40.437, 63.703 40.630 C 63.510 40.823, 58.436 41.842, 52.426 42.894 C 13.775 49.660, -4.829 60.047, 1.694 71.217 C 8.050 82.098, 26.142 85.685, 69.500 84.657 C 102.993 83.863, 120.576 81.583, 140.493 75.451 C 149.945 72.541, 151.478 71.688, 150.737 69.757 C 149.406 66.288, 126.120 64.264, 75.249 63.197 C 33.998 62.332, 31.174 63.234, 66.500 65.990 C 81.681 67.175, 127.151 69.975, 131.450 69.990 C 137.274 70.010, 132.357 71.804, 119.500 74.350 C 90.194 80.154, 61.437 82.148, 42.779 79.670 C 21.792 76.883, 10.334 72.706, 11.207 68.159 C 12.693 60.412, 61.383 49.883, 100.250 48.903 C 104.513 48.796, 107.960 48.436, 107.911 48.104 C 107.863 47.772, 105.167 45.138, 101.921 42.250 L 96.019 37 86.259 36.864 C 80.892 36.789, 74.700 36.601, 72.500 36.446 C 70.300 36.291, 63.641 35.894, 57.703 35.562 C 44.607 34.830, 38.006 33.510, 31.786 30.377 C 21.788 25.341, 24.204 21.273, 38.784 18.594 C 53.130 15.957, 70.543 15.530, 86.769 17.418 C 94.618 18.331, 101.615 19.299, 102.320 19.569 C 103.025 19.840, 104.151 22.117, 104.824 24.630 C 107.128 33.246, 113.989 37.263, 126.673 37.422 C 134.299 37.518, 138.325 35.077, 138.820 30.057 C 139.348 24.716, 135.284 19.781, 126.913 15.593 C 122.963 13.617, 118.892 12, 117.866 12 C 114.902 12, 115.644 10.506, 121 5.690 C 123.750 3.217, 126 0.926, 126 0.597 C 126 0.269, 122.829 0, 118.953 0 C 112.122 0, 111.855 0.094, 110.203 3.075 M 170.035 9.934 C 169.466 10.998, 169 13.503, 169 15.500 C 169 20.705, 170.524 23, 173.978 23 C 177.490 23, 180 19.874, 180 15.500 C 180 13.820, 179.299 11.445, 178.443 10.223 C 176.445 7.370, 171.498 7.200, 170.035 9.934 M 181.982 10.034 C 180.337 13.108, 181.155 21.079, 183.250 22.392 C 187.150 24.838, 190.551 18.766, 187.976 13.955 C 187.200 12.505, 186.191 11.978, 184.857 12.327 C 183.623 12.650, 183.032 12.404, 183.276 11.671 C 183.490 11.027, 184.528 10.344, 185.583 10.153 C 189.083 9.519, 189.544 8, 186.235 8 C 184.076 8, 182.724 8.646, 181.982 10.034 M 356.321 9.464 C 356.511 10.034, 357.267 10.500, 358 10.500 C 358.733 10.500, 359.489 10.034, 359.679 9.464 C 359.868 8.895, 359.113 8.429, 358 8.429 C 356.887 8.429, 356.132 8.895, 356.321 9.464 M 170.942 12.651 C 168.947 17.900, 172.869 23.014, 176.548 19.960 C 178.304 18.503, 178.466 12.866, 176.800 11.200 C 174.757 9.157, 172.012 9.838, 170.942 12.651 M 190.428 17.250 L 190.500 22.500 195.686 22.800 C 199.548 23.023, 200.994 23.534, 201.347 24.800 C 201.608 25.735, 201.575 23.350, 201.274 19.500 C 200.631 11.279, 200 9.710, 200 16.333 C 200 19.815, 199.619 21, 198.500 21 C 197.389 21, 197 19.833, 197 16.500 C 197 14.025, 196.550 12, 196 12 C 195.450 12, 195 14.025, 195 16.500 C 195 19.833, 194.611 21, 193.500 21 C 192.389 21, 192 19.833, 192 16.500 C 192 14.025, 191.630 12, 191.178 12 C 190.725 12, 190.388 14.362, 190.428 17.250 M 204.200 13.200 C 202.821 14.579, 202.625 19.860, 203.878 21.837 C 205.139 23.826, 209.414 22.866, 209.837 20.500 C 210.126 18.882, 209.946 18.739, 208.897 19.750 C 207.123 21.459, 205 21.323, 205 19.500 C 205 18.500, 206 18, 208 18 C 211.385 18, 211.352 18.056, 210.025 14.565 C 208.987 11.834, 206.215 11.185, 204.200 13.200 M 212.909 13.610 C 212.338 14.298, 212.012 16.579, 212.185 18.680 C 212.456 21.961, 212.870 22.543, 215.122 22.804 C 217.670 23.100, 219.937 20.531, 218.387 19.107 C 218.023 18.773, 217.525 19.063, 217.280 19.750 C 216.605 21.638, 214.214 21.248, 213.545 19.141 C 212.361 15.411, 215.854 11.901, 217.417 15.250 C 217.883 16.250, 218.117 16.250, 218.583 15.250 C 218.904 14.563, 219.804 14, 220.583 14 C 221.596 14, 222 15.284, 222 18.500 C 222 21.108, 222.463 23, 223.101 23 C 223.792 23, 224.068 21.325, 223.843 18.500 C 223.594 15.363, 223.866 14, 224.743 14 C 225.434 14, 226 13.556, 226 13.014 C 226 11.574, 214.151 12.113, 212.909 13.610 M 227 17.500 L 227 23.127 230.250 22.813 C 233.442 22.506, 233.500 22.410, 233.500 17.500 C 233.500 12.590, 233.442 12.494, 230.250 12.187 L 227 11.873 227 17.500 M 236.054 13.435 C 234.392 15.437, 235.145 21.076, 237.250 22.394 C 239.815 24, 242.433 21.974, 242.818 18.084 C 243.176 14.472, 241.624 12, 239 12 C 238.035 12, 236.709 12.646, 236.054 13.435 M 248.831 14.472 C 247.278 17.880, 248.783 22.391, 251.608 22.798 C 253.785 23.112, 256.780 20.446, 255.588 19.255 C 255.205 18.872, 254.511 19.173, 254.047 19.925 C 252.768 21.993, 250 20.396, 250 17.590 C 250 14.500, 251.601 13.424, 253.659 15.132 C 255.006 16.250, 255.177 16.155, 254.855 14.468 C 254.260 11.348, 250.253 11.350, 248.831 14.472 M 261.036 14.405 C 259.665 18.012, 261.184 22.434, 263.933 22.835 C 265.197 23.019, 266.602 22.794, 267.056 22.335 C 268.373 21.001, 268.828 16.696, 267.909 14.250 C 266.715 11.069, 262.266 11.169, 261.036 14.405 M 270 17.500 C 270 20.757, 270.439 23, 271.075 23 C 271.667 23, 272.069 21.762, 271.969 20.250 C 271.646 15.339, 271.974 14, 273.500 14 C 274.325 14, 275 13.550, 275 13 C 275 12.450, 273.875 12, 272.500 12 C 270.136 12, 270 12.300, 270 17.500 M 275.848 12.968 C 275.212 15.193, 275.456 27, 276.138 27 C 276.612 27, 277 26.100, 277 25 C 277 23.741, 277.667 23, 278.800 23 C 282.600 23, 284.269 18.239, 281.972 13.948 C 281.046 12.218, 276.280 11.456, 275.848 12.968 M 285.074 13.411 C 284.353 14.279, 284.273 15.051, 284.866 15.417 C 285.396 15.745, 286.007 15.479, 286.225 14.826 C 286.478 14.067, 287.318 13.928, 288.560 14.440 C 290.286 15.152, 290.134 15.396, 287.184 16.650 C 284.641 17.731, 283.942 18.576, 284.184 20.280 C 284.440 22.075, 285.196 22.528, 288.141 22.648 L 291.782 22.796 291.309 18.648 C 291.048 16.367, 290.662 13.938, 290.449 13.250 C 289.927 11.562, 286.524 11.664, 285.074 13.411 M 293 17.500 C 293 20.525, 293.450 23, 294 23 C 294.550 23, 295 21.875, 295 20.500 C 295 18.944, 295.567 18, 296.500 18 C 297.805 18, 298.501 19.827, 298.118 22.250 C 298.053 22.663, 298.450 23, 299 23 C 299.550 23, 300 20.525, 300 17.500 C 300 12.220, 298.482 9.811, 297.820 14.040 C 297.644 15.161, 297.050 16.079, 296.500 16.079 C 295.950 16.079, 295.356 15.161, 295.180 14.040 C 294.518 9.811, 293 12.220, 293 17.500 M 302 17.441 C 302 23.774, 302.925 24.430, 305.255 19.750 L 306.872 16.500 306.936 19.750 C 307.047 25.392, 309 23.263, 309 17.500 C 309 11.224, 308.069 10.581, 305.745 15.250 L 304.128 18.500 304.064 15.809 C 304.029 14.329, 303.550 12.840, 303 12.500 C 302.379 12.116, 302 13.990, 302 17.441 M 310.014 13.250 C 310.054 16.904, 311.356 19, 313.585 19 C 315.189 19, 315.767 19.445, 315.400 20.399 C 315.105 21.168, 315.344 22.095, 315.932 22.458 C 316.640 22.896, 317 21.247, 317 17.559 C 317 14.300, 316.560 12, 315.937 12 C 315.353 12, 315.015 13.001, 315.187 14.225 C 315.395 15.706, 314.915 16.567, 313.750 16.799 C 312.447 17.058, 312 16.490, 312 14.573 C 312 13.158, 311.550 12, 311 12 C 310.450 12, 310.006 12.563, 310.014 13.250 M 320.011 13.486 C 318.518 15.286, 318.398 20.798, 319.822 22.222 C 321.110 23.510, 325.243 22.805, 325.770 21.206 C 326.079 20.269, 325.481 20.092, 323.598 20.565 C 321.607 21.064, 321 20.841, 321 19.608 C 321 18.499, 321.903 18, 323.914 18 C 326.602 18, 326.771 17.788, 326.096 15.250 C 325.247 12.053, 321.985 11.108, 320.011 13.486 M 328 17.559 C 328 21.010, 328.379 22.884, 329 22.500 C 329.550 22.160, 330 21.009, 330 19.941 C 330 18.873, 330.675 18, 331.500 18 C 332.433 18, 333 18.944, 333 20.500 C 333 21.875, 333.450 23, 334 23 C 334.550 23, 335 20.525, 335 17.500 C 335 14.475, 334.550 12, 334 12 C 333.450 12, 333 12.900, 333 14 C 333 15.111, 332.333 16, 331.500 16 C 330.667 16, 330 15.111, 330 14 C 330 12.900, 329.550 12, 329 12 C 328.450 12, 328 14.502, 328 17.559 M 337.286 17.500 C 337.294 20.800, 337.487 22.262, 337.716 20.750 C 338.285 16.997, 342 16.831, 342 20.559 C 342 21.966, 342.368 22.890, 342.819 22.612 C 344.065 21.842, 344.278 12, 343.049 12 C 342.472 12, 342 12.900, 342 14 C 342 16.880, 338.267 16.663, 337.706 13.750 C 337.467 12.512, 337.279 14.200, 337.286 17.500 M 346.200 13.200 C 344.919 14.481, 344.607 18.811, 345.607 21.418 C 346.322 23.282, 350.086 23.514, 351.800 21.800 C 353.274 20.326, 353.354 16.530, 351.965 13.934 C 350.798 11.754, 348.002 11.398, 346.200 13.200 M 354 17.500 C 354 23.644, 355.180 24.487, 357.500 20 C 358.353 18.350, 359.178 17, 359.333 17 C 359.488 17, 359.521 18.350, 359.407 20 C 359.293 21.650, 359.604 23, 360.100 23 C 360.595 23, 361 20.525, 361 17.500 C 361 11.224, 360.069 10.581, 357.745 15.250 L 356.128 18.500 356.064 15.250 C 355.953 9.608, 354 11.737, 354 17.500 M 368.054 13.435 C 366.392 15.437, 367.145 21.076, 369.250 22.394 C 373.105 24.808, 376.557 18.778, 374.026 14.049 C 372.754 11.672, 369.772 11.365, 368.054 13.435 M 375 13 C 375 13.550, 375.675 14, 376.500 14 C 377.611 14, 378 15.167, 378 18.500 C 378 20.975, 378.450 23, 379 23 C 379.550 23, 380 20.975, 380 18.500 C 380 16.025, 380.450 14, 381 14 C 381.550 14, 382 13.550, 382 13 C 382 12.450, 380.425 12, 378.500 12 C 376.575 12, 375 12.450, 375 13 M 383 17.563 L 383 23.127 386.250 22.813 C 389.200 22.529, 389.515 22.177, 389.666 19 C 389.932 13.380, 389.196 12, 385.933 12 C 383.041 12, 383 12.077, 383 17.563 M 392.200 13.200 C 391.540 13.860, 391 15.795, 391 17.500 C 391 22.604, 395.190 24.885, 398.108 21.370 C 399.326 19.903, 399.138 19.811, 396.230 20.449 C 393.654 21.015, 393 20.839, 393 19.579 C 393 18.491, 393.933 18, 396 18 C 399.185 18, 399.639 17.062, 397.965 13.934 C 396.798 11.754, 394.002 11.398, 392.200 13.200 M 399 13 C 399 13.550, 399.609 14, 400.354 14 C 401.327 14, 401.639 15.264, 401.465 18.500 C 401.332 20.975, 401.622 23, 402.111 23 C 402.600 23, 403 20.975, 403 18.500 C 403 15.167, 403.389 14, 404.500 14 C 405.325 14, 406 13.550, 406 13 C 406 12.450, 404.425 12, 402.500 12 C 400.575 12, 399 12.450, 399 13 M 406.800 14.540 C 405.277 17.883, 406.811 22.395, 409.608 22.798 C 411.785 23.112, 414.780 20.446, 413.588 19.255 C 413.205 18.872, 412.511 19.173, 412.047 19.925 C 410.746 22.029, 408 20.383, 408 17.500 C 408 14.809, 411.059 12.678, 411.787 14.862 C 412.102 15.806, 412.519 15.814, 413.621 14.899 C 415.549 13.299, 416.200 14.192, 416.200 18.436 C 416.200 20.399, 416.605 22.256, 417.100 22.562 C 417.595 22.868, 418 21.066, 418 18.559 C 418 15.173, 418.386 14, 419.500 14 C 420.325 14, 421 13.550, 421 13 C 421 12.450, 419.425 12, 417.500 12 C 415.444 12, 414 12.495, 414 13.200 C 414 14.133, 413.733 14.133, 412.800 13.200 C 410.817 11.217, 408.030 11.840, 406.800 14.540 M 422 17.563 L 422 23.127 425.250 22.813 C 428.229 22.526, 428.503 22.208, 428.539 19 C 428.593 14.129, 427.354 12, 424.465 12 C 422.140 12, 422 12.317, 422 17.563 M 431.200 13.200 C 429.821 14.579, 429.625 19.860, 430.878 21.837 C 432.139 23.826, 436.414 22.866, 436.837 20.500 C 437.126 18.882, 436.946 18.739, 435.897 19.750 C 434.123 21.459, 432 21.323, 432 19.500 C 432 18.500, 433 18, 435 18 C 438.385 18, 438.352 18.056, 437.025 14.565 C 435.987 11.834, 433.215 11.185, 431.200 13.200 M 439 17.500 C 439 20.525, 439.450 23, 440 23 C 440.550 23, 441 21.875, 441 20.500 C 441 18.944, 441.567 18, 442.500 18 C 443.433 18, 444 18.944, 444 20.500 C 444 21.875, 444.450 23, 445 23 C 445.550 23, 446 20.525, 446 17.500 C 446 14.475, 445.550 12, 445 12 C 444.450 12, 444 13.111, 444 14.469 C 444 16.252, 443.584 16.777, 442.500 16.362 C 441.675 16.045, 441 14.934, 441 13.893 C 441 12.852, 440.550 12, 440 12 C 439.450 12, 439 14.475, 439 17.500 M 448 17.500 C 448 20.525, 448.450 23, 449 23 C 449.550 23, 450 21.875, 450 20.500 C 450 18.944, 450.567 18, 451.500 18 C 452.433 18, 453 18.944, 453 20.500 C 453 21.875, 453.450 23, 454 23 C 454.550 23, 455 20.525, 455 17.500 C 455 14.475, 454.550 12, 454 12 C 453.450 12, 453 13.083, 453 14.406 C 453 16.271, 452.576 16.702, 451.116 16.320 C 449.840 15.986, 449.394 15.210, 449.733 13.914 C 450.008 12.861, 449.731 12, 449.117 12 C 448.430 12, 448 14.117, 448 17.500 M 457.054 13.435 C 455.392 15.437, 456.145 21.076, 458.250 22.394 C 460.815 24, 463.433 21.974, 463.818 18.084 C 464.176 14.472, 462.624 12, 460 12 C 459.035 12, 457.709 12.646, 457.054 13.435 M 466.092 13.308 C 464.802 14.598, 464.669 19.929, 465.878 21.837 C 467.070 23.717, 471.407 22.879, 471.825 20.688 C 472.128 19.101, 471.918 19.034, 470.131 20.150 C 467.678 21.682, 466.750 20.955, 466.750 17.500 C 466.750 14.075, 467.675 13.316, 470.045 14.796 C 471.654 15.801, 472 15.755, 472 14.540 C 472 13.638, 472.584 13.287, 473.500 13.638 C 474.518 14.029, 475 15.625, 475 18.607 C 475 21.023, 475.450 23, 476 23 C 476.550 23, 477 21.023, 477 18.607 C 477 15.625, 477.482 14.029, 478.500 13.638 C 479.962 13.077, 480.577 16.094, 480.052 21.250 C 479.792 23.811, 485.576 23.660, 486.963 21.069 C 488.108 18.930, 486.065 16, 483.429 16 C 482.643 16, 482 15.099, 482 13.997 C 482 12.163, 481.374 12.003, 474.592 12.105 C 470.518 12.166, 466.693 12.707, 466.092 13.308 M 489 17.500 C 489 20.883, 489.430 23, 490.117 23 C 490.741 23, 491.003 22.118, 490.711 21.001 C 490.423 19.902, 490.548 18.780, 490.987 18.508 C 491.427 18.236, 492.068 19.136, 492.412 20.507 C 493.278 23.957, 497.704 24.026, 498.564 20.602 C 499.465 17.011, 498.721 13.839, 496.687 12.602 C 495.223 11.712, 494.526 11.925, 493.061 13.707 C 491.171 16.009, 489.746 15.827, 490.676 13.402 C 490.972 12.631, 490.716 12, 490.107 12 C 489.432 12, 489 14.146, 489 17.500 M 183.688 14.646 C 183.309 15.024, 183 16.641, 183 18.240 C 183 20.470, 183.407 21.068, 184.750 20.810 C 185.937 20.581, 186.500 19.539, 186.500 17.570 C 186.500 14.743, 185.073 13.260, 183.688 14.646 M 205.500 15 C 205.160 15.550, 205.835 16, 207 16 C 208.165 16, 208.840 15.550, 208.500 15 C 208.160 14.450, 207.485 14, 207 14 C 206.515 14, 205.840 14.450, 205.500 15 M 229 15.583 C 229 17.349, 231.153 17.042, 231.771 15.188 C 231.989 14.534, 231.454 14, 230.583 14 C 229.713 14, 229 14.713, 229 15.583 M 237.688 14.646 C 237.309 15.024, 237 16.608, 237 18.167 C 237 20.362, 237.464 21, 239.063 21 C 240.780 21, 241.074 20.467, 240.813 17.827 C 240.508 14.731, 239.068 13.266, 237.688 14.646 M 262.667 14.667 C 261.391 15.942, 262.010 20.067, 263.567 20.664 C 265.856 21.542, 267.350 19.531, 266.608 16.573 C 265.994 14.129, 264.114 13.219, 262.667 14.667 M 277.416 15.358 C 276.468 17.829, 277.387 20.451, 279.331 20.825 C 280.825 21.113, 281.084 20.607, 280.820 17.914 C 280.477 14.421, 278.380 12.847, 277.416 15.358 M 321.192 15.075 C 321.389 15.666, 321.978 16.150, 322.500 16.150 C 323.022 16.150, 323.611 15.666, 323.808 15.075 C 324.005 14.484, 323.417 14, 322.500 14 C 321.583 14, 320.995 14.484, 321.192 15.075 M 347 17.500 C 347 20.435, 347.342 21.081, 348.750 20.810 C 349.949 20.579, 350.500 19.536, 350.500 17.500 C 350.500 15.464, 349.949 14.421, 348.750 14.190 C 347.342 13.919, 347 14.565, 347 17.500 M 369.688 14.646 C 369.309 15.024, 369 16.608, 369 18.167 C 369 20.362, 369.464 21, 371.063 21 C 372.780 21, 373.074 20.467, 372.813 17.827 C 372.508 14.731, 371.068 13.266, 369.688 14.646 M 385 15.469 C 385 16.363, 385.586 16.712, 386.500 16.362 C 387.325 16.045, 388 15.384, 388 14.893 C 388 14.402, 387.325 14, 386.500 14 C 385.675 14, 385 14.661, 385 15.469 M 393.500 15 C 393.160 15.550, 393.835 16, 395 16 C 396.165 16, 396.840 15.550, 396.500 15 C 396.160 14.450, 395.485 14, 395 14 C 394.515 14, 393.840 14.450, 393.500 15 M 423.655 15.542 C 424.310 17.249, 426.154 17.039, 426.771 15.188 C 426.991 14.528, 426.254 14, 425.115 14 C 423.677 14, 423.240 14.461, 423.655 15.542 M 432 14.893 C 432 15.997, 434.595 17.072, 435.375 16.292 C 435.689 15.978, 435.706 15.334, 435.414 14.861 C 434.712 13.725, 432 13.750, 432 14.893 M 458.688 14.646 C 458.309 15.024, 458 16.641, 458 18.240 C 458 20.470, 458.407 21.068, 459.750 20.810 C 460.937 20.581, 461.500 19.539, 461.500 17.570 C 461.500 14.743, 460.073 13.260, 458.688 14.646 M 493.796 16.288 C 493.227 19.262, 493.844 21, 495.467 21 C 496.958 21, 498.124 17.487, 497.325 15.404 C 496.482 13.206, 494.279 13.758, 493.796 16.288 M 286.500 19 C 285.419 20.749, 287.022 22.227, 288.589 20.926 C 289.365 20.282, 290 19.360, 290 18.878 C 290 17.672, 287.262 17.768, 286.500 19 M 385.639 18.694 C 384.513 19.820, 384.954 21, 386.500 21 C 387.325 21, 388 20.577, 388 20.059 C 388 18.798, 386.438 17.895, 385.639 18.694 M 424.639 18.694 C 423.513 19.820, 423.954 21, 425.500 21 C 426.325 21, 427 20.577, 427 20.059 C 427 18.798, 425.438 17.895, 424.639 18.694 M 482 19.500 C 482 20.530, 482.655 21.020, 483.750 20.810 C 485.858 20.404, 485.725 18.629, 483.553 18.177 C 482.647 17.988, 482 18.539, 482 19.500 M 229 20 C 229 20.550, 229.675 21, 230.500 21 C 231.325 21, 232 20.550, 232 20 C 232 19.450, 231.325 19, 230.500 19 C 229.675 19, 229 19.450, 229 20 M 113 23.132 C 113 27.325, 120.303 34, 124.891 34 C 130.633 34, 127.082 27.811, 119.388 24.408 C 113.131 21.641, 113 21.615, 113 23.132 M 316.500 51.605 C 293.541 55.029, 284 60.133, 284 68.989 C 284 78.670, 297.653 84.268, 324.500 85.594 C 338.450 86.284, 356.398 84.916, 364.119 82.575 C 366.659 81.805, 370.709 80.132, 373.119 78.858 L 377.500 76.541 371.500 75.879 C 359.499 74.555, 350.616 74.880, 347.973 76.738 C 344.914 78.888, 326.644 79.789, 320.368 78.099 C 316.145 76.962, 311 73.572, 311 71.927 C 311 71.376, 324.822 71, 345.125 71 L 379.250 71 378.607 67.786 C 377.242 60.960, 369.791 56.070, 356.737 53.433 C 349.564 51.985, 322.271 50.745, 316.500 51.605 M 442.539 52.112 C 439.260 52.590, 434.241 53.660, 431.385 54.490 C 424.868 56.385, 425 56.395, 425 54 C 425 52.107, 424.333 52, 412.500 52 L 400 52 400 75 L 400 98 413.500 98 L 427 98 427 89.393 C 427 81.604, 427.166 80.851, 428.750 81.464 C 448.904 89.277, 485.828 86.172, 496.209 75.791 C 501.470 70.530, 501.476 66.240, 496.228 60.993 C 488.400 53.165, 463.540 49.053, 442.539 52.112 M 171 68.500 L 171 85 184.500 85 L 198 85 198 78 L 198 71 217.500 71 L 237 71 237 78 L 237 85 250.500 85 L 264 85 264 68.500 L 264 52 250.500 52 L 237 52 237 58 L 237 64 217.500 64 L 198 64 198 58 L 198 52 184.500 52 L 171 52 171 68.500 M 319.218 59.417 C 314.279 61.021, 312 62.665, 312 64.622 C 312 65.747, 315.690 66, 332.073 66 C 350.647 66, 352.122 65.869, 351.823 64.250 C 351.645 63.288, 349.700 61.614, 347.500 60.530 C 342.343 57.991, 325.632 57.333, 319.218 59.417 M 437.025 59.540 C 427.281 62.270, 424.043 68.355, 429.597 73.502 C 433.770 77.369, 438.543 78.482, 451 78.491 C 461.428 78.499, 462.912 78.267, 466.927 76 C 474.934 71.478, 474.625 64.494, 466.254 60.784 C 459.947 57.990, 444.853 57.347, 437.025 59.540 M 3.631 90.212 C 3.873 90.604, 6.305 92.179, 9.035 93.712 C 11.765 95.246, 13.998 96.805, 13.999 97.178 C 14 97.550, 11.188 99.575, 7.750 101.678 L 1.500 105.500 5.856 105.813 C 9.263 106.057, 11.111 105.531, 14.336 103.396 C 16.605 101.895, 18.928 100.667, 19.500 100.667 C 20.072 100.667, 22.395 101.895, 24.664 103.396 C 27.889 105.531, 29.737 106.057, 33.144 105.813 L 37.500 105.500 31.583 102 C 28.329 100.075, 25.514 98.041, 25.327 97.481 C 25.140 96.920, 26.453 95.666, 28.244 94.693 C 30.035 93.720, 32.546 92.126, 33.825 91.151 C 36.121 89.401, 36.081 89.386, 30.759 89.971 C 27.437 90.337, 24.294 91.410, 22.567 92.769 C 19.716 95.011, 19.396 94.977, 15 91.952 C 12.575 90.284, 2.746 88.780, 3.631 90.212 M 49.564 90.017 C 42.732 91.222, 39.500 93.820, 39.500 98.108 C 39.500 101.065, 40.013 101.756, 43.500 103.500 C 46.700 105.100, 49.500 105.500, 57.500 105.500 C 71.935 105.500, 77.351 102.518, 75.598 95.533 C 74.483 91.092, 60.396 88.107, 49.564 90.017 M 84 96.500 L 84 103 81 103 C 79 103, 78 103.500, 78 104.500 C 78 106.579, 86.789 106.536, 89.777 104.443 C 91.611 103.159, 92 101.935, 92 97.443 L 92 92 98 92 L 104 92 104 99.060 L 104 106.121 107.750 105.810 L 111.500 105.500 111.792 97.750 L 112.084 90 98.042 90 L 84 90 84 96.500 M 122.658 94.478 C 121.916 99.892, 120.130 103, 117.759 103 C 116.471 103, 116 103.803, 116 106 C 116 108.667, 116.333 109, 119 109 C 121 109, 122 108.500, 122 107.500 C 122 106.247, 124.056 106, 134.500 106 C 144.944 106, 147 106.247, 147 107.500 C 147 108.500, 148 109, 150 109 C 152.667 109, 153 108.667, 153 106 C 153 104, 152.500 103, 151.500 103 C 150.321 103, 150 101.611, 150 96.500 L 150 90 136.636 90 L 123.272 90 122.658 94.478 M 159 98 L 159 106 162.545 106 C 165.145 106, 168.067 104.666, 173.500 101 C 177.575 98.250, 181.380 96, 181.955 96 C 182.542 96, 183 98.189, 183 101 L 183 106 186.500 106 L 190 106 190 98 L 190 90 185.678 90 C 182.126 90, 180.063 90.891, 174.098 95 C 170.106 97.750, 166.651 100, 166.420 100 C 166.189 100, 166 97.750, 166 95 L 166 90 162.500 90 L 159 90 159 98 M 198 98 L 198 106 202 106 C 205.905 106, 206 105.917, 206 102.500 L 206 99 213.500 99 C 219.932 99, 221.016 99.249, 221.115 100.750 C 221.179 101.713, 221.291 103.175, 221.365 104 C 221.453 104.980, 222.800 105.608, 225.250 105.810 L 229 106.121 229 98.060 L 229 90 224.928 90 C 221.075 90, 220.874 90.148, 221.178 92.750 L 221.500 95.500 213.750 95.792 L 206 96.084 206 93.042 C 206 90.160, 205.790 90, 202 90 L 198 90 198 98 M 238 98 L 238 106 241.433 106 C 245.480 106, 246.298 104.377, 245.855 97.229 L 245.562 92.500 254.781 92.212 C 268.980 91.770, 265.955 90, 251 90 L 238 90 238 98 M 49.750 93.572 C 47.923 94.563, 47 95.873, 47 97.475 C 47 101.177, 50.519 103, 57.667 103 C 62.771 103, 64.384 102.574, 66.644 100.630 C 69.294 98.350, 69.337 98.164, 67.768 95.768 C 65.235 91.903, 55.103 90.668, 49.750 93.572 M 130.550 93.250 C 130.337 93.938, 129.959 95.625, 129.710 97 C 129.461 98.375, 128.926 100.287, 128.522 101.250 C 127.861 102.822, 128.511 103, 134.893 103 L 142 103 142 97.500 L 142 92 136.469 92 C 132.917 92, 130.799 92.447, 130.550 93.250" stroke="none" fill="#ffffff" fill-rule="evenodd"/>
</svg>