<svg xmlns="http://www.w3.org/2000/svg" width="525" height="800" viewBox="0 0 525 800" version="1.1">
	<path d="M 240.500 1.013 C 202.370 5.271, 165.676 17.822, 137 36.415 C 116.818 49.501, 103.697 60.140, 91.135 73.602 C 82.063 83.324, 68.828 100.538, 62.059 111.420 C 55.791 121.496, 45.903 141.316, 46.762 142.083 C 47.168 142.444, 50.875 143.744, 55 144.971 C 59.125 146.197, 67.190 149.411, 72.923 152.112 C 106.882 168.115, 133.365 196.197, 148.451 232.201 L 151.259 238.903 155.879 236.531 C 161.057 233.874, 170.063 224.975, 174.961 217.675 C 179.428 211.019, 184.186 200.440, 188.307 188 C 208.037 128.448, 234.786 89.317, 268.748 70.324 L 275.133 66.753 278.161 69.627 C 282.533 73.775, 294.848 89.345, 300.207 97.500 C 302.737 101.350, 307.352 109.314, 310.462 115.198 L 316.118 125.895 320.809 126.698 C 328.518 128.016, 363.762 127.609, 370.500 126.124 C 396.290 120.438, 419.951 108.383, 438.418 91.519 L 444.335 86.115 440.427 81.308 C 434.628 74.176, 419.750 59.747, 410.570 52.353 C 382.466 29.714, 345.842 12.314, 311 5.045 C 291.995 1.080, 257.549 -0.890, 240.500 1.013 M 447 99.697 C 434.045 112.898, 412.044 126.235, 392.328 132.838 C 372.606 139.443, 350.729 141.682, 325.250 139.704 L 315 138.908 315 144.405 C 315 160.458, 323.804 177.058, 344.561 200.139 C 353.393 209.961, 366.746 227.401, 373.548 238 C 386.455 258.110, 397.845 285.456, 401.038 304 C 402.791 314.185, 402.817 330.877, 401.080 331.950 C 399.276 333.066, 386.067 335.826, 377 336.982 C 372.875 337.508, 360.688 337.952, 349.917 337.969 L 330.335 338 327.345 341.750 C 313.267 359.409, 303 381.354, 298.454 403.500 C 296.163 414.661, 295.462 434.691, 296.950 446.509 C 298.213 456.544, 300.549 466.945, 301.827 468.226 C 302.225 468.625, 307.490 467.836, 313.526 466.472 C 362.796 455.342, 407.386 428.682, 440.590 390.500 C 459.851 368.352, 476.044 339.942, 485.333 312 C 493.211 288.300, 496.485 270.740, 497.544 246.500 C 499.356 205.010, 491.341 167.290, 472.895 130.500 C 465.364 115.479, 453.734 96.931, 451.500 96.378 C 450.950 96.242, 448.925 97.736, 447 99.697 M 39.737 157.750 C 35.187 169.279, 30.072 191.262, 27.928 208.500 C 26.345 221.226, 26.318 250.655, 27.877 263 C 35.388 322.469, 63.546 375.805, 107.414 413.653 C 153.866 453.731, 211.295 474.022, 271.462 471.615 C 280.241 471.263, 287.778 470.622, 288.211 470.189 C 288.645 469.755, 288.008 465.148, 286.798 459.951 C 283.796 447.058, 283.521 414.107, 286.306 401 C 291.087 378.507, 301.883 354.868, 315.694 336.656 C 320.720 330.028, 320.696 329.955, 312.133 325.908 C 299.555 319.963, 279.368 319.611, 253.770 324.891 C 215.670 332.749, 183.417 333.746, 154.812 327.950 C 138.542 324.654, 121.603 317.856, 111.840 310.705 L 109.180 308.757 110.700 303.628 C 112.694 296.905, 119.360 280.201, 122.658 273.668 C 124.093 270.826, 128.586 263.016, 132.644 256.313 L 140.021 244.127 138.032 239.082 C 124.784 205.469, 100.666 179.217, 68.714 163.628 C 59.029 158.902, 45.554 154, 42.251 154 C 41.682 154, 40.551 155.688, 39.737 157.750 M 246.500 189.130 C 230.542 194.894, 218.596 207.669, 214.361 223.500 C 212.773 229.438, 212.635 241.701, 214.085 248 C 217.178 261.427, 227.584 274.320, 240.244 280.409 C 260.325 290.068, 281.631 286.527, 297.258 270.934 C 321.732 246.513, 314.706 206.159, 283.390 191.288 C 276.033 187.793, 274.996 187.579, 264.058 187.279 C 254.197 187.009, 251.619 187.281, 246.500 189.130 M 42.703 571.383 C 32.337 575.242, 25.897 582.724, 23.178 594.067 L 21.500 601.064 15.500 600.782 L 9.500 600.500 9.292 588 C 9.177 581.125, 9.064 574.487, 9.042 573.250 C 9.005 571.256, 8.488 571, 4.500 571 L 0 571 0 607.055 L 0 643.110 4.600 642.805 L 9.199 642.500 9.057 626.250 L 8.914 610 15.318 610 L 21.722 610 22.249 615.750 C 24.005 634.913, 40.060 646.668, 59.475 643.005 C 77.568 639.591, 86.525 623.533, 83.901 599.215 C 82.528 586.494, 76.855 577.529, 67.232 572.870 C 61.386 570.040, 48.421 569.254, 42.703 571.383 M 496.324 571.439 C 486.912 574.382, 478.890 581.959, 475.498 591.109 C 473.948 595.290, 473.500 598.968, 473.500 607.500 C 473.500 617.458, 473.766 619.068, 476.304 624.500 C 481.198 634.971, 488.416 640.509, 500.395 642.984 C 506.344 644.213, 517.085 643.679, 521.701 641.924 C 524.054 641.029, 524.563 638.703, 523.376 634.274 C 522.886 632.445, 522.441 632.229, 520.884 633.062 C 517.843 634.689, 506.854 635.324, 502.441 634.127 C 491.304 631.106, 484.263 622.149, 483.267 609.735 C 482.223 596.735, 486.732 586.236, 495.237 581.861 C 500.297 579.259, 512.473 578.208, 518.450 579.859 C 520.616 580.457, 522.563 580.770, 522.778 580.555 C 522.993 580.341, 523.406 578.394, 523.696 576.229 L 524.224 572.294 519.669 571.147 C 513.698 569.643, 501.583 569.795, 496.324 571.439 M 112.580 575.750 C 111.863 581.360, 107 638.290, 107 641.080 C 107 642.684, 107.728 643, 111.421 643 C 116.838 643, 116.317 645.117, 118.617 613.750 C 119.574 600.688, 120.615 590, 120.929 590.001 C 121.243 590.001, 125.316 601.946, 129.979 616.545 L 138.458 643.089 143.431 642.794 L 148.404 642.500 151.952 631.500 C 153.903 625.450, 157.703 613.651, 160.395 605.280 C 163.087 596.910, 165.593 590.249, 165.964 590.478 C 166.335 590.707, 166.757 593.055, 166.904 595.697 C 167.050 598.339, 167.919 609.950, 168.835 621.500 L 170.500 642.500 175.386 642.810 L 180.272 643.121 179.639 637.310 C 179.291 634.115, 178.111 620.925, 177.018 608 C 175.925 595.075, 174.740 581.462, 174.386 577.750 L 173.742 571 167.938 571 C 163.265 571, 162.039 571.341, 161.644 572.750 C 160.217 577.842, 149.668 612.413, 144.840 627.817 C 144.268 629.641, 143.613 630.947, 143.384 630.718 C 143.156 630.489, 138.940 617.389, 134.016 601.607 C 129.093 585.825, 124.798 572.482, 124.473 571.956 C 124.148 571.430, 121.476 571, 118.535 571 L 113.188 571 112.580 575.750 M 219.498 583.750 C 216.877 590.763, 210.969 606.213, 206.367 618.085 C 201.765 629.956, 198 640.419, 198 641.335 C 198 642.630, 198.955 643, 202.300 643 L 206.600 643 210.050 633.479 L 213.500 623.958 228.866 624.229 L 244.232 624.500 247.469 633.500 L 250.705 642.500 255.353 642.805 C 258.109 642.986, 260 642.685, 260 642.066 C 260 641.491, 254.094 625.267, 246.876 606.011 L 233.753 571 229.007 571 L 224.262 571 219.498 583.750 M 268.796 572.750 C 268.604 573.712, 268.622 575.737, 268.836 577.250 L 269.227 580 279.613 580 L 290 580 290 611.500 L 290 643 294.500 643 L 299 643 299 611.500 L 299 580 309.500 580 L 320 580 320 575.500 L 320 571 294.573 571 C 271.158 571, 269.119 571.138, 268.796 572.750 M 341.237 606.750 L 341.500 642.500 361.500 642.500 L 381.500 642.500 381.807 638.250 L 382.115 634 366.557 634 L 351 634 351 622 L 351 610 365 610 L 379 610 379 605.500 L 379 601 365 601 L 351 601 351 590.526 L 351 580.052 366.250 579.776 L 381.500 579.500 381.807 575.250 L 382.115 571 361.545 571 L 340.975 571 341.237 606.750 M 407.775 606.004 C 407.624 625.257, 407.650 641.457, 407.833 642.004 C 408.017 642.552, 410.154 643, 412.583 643 L 417 643 417 626.373 L 417 609.746 422.033 610.229 C 427.813 610.785, 430.627 612.948, 434.667 619.939 C 436.116 622.448, 439.980 628.663, 443.254 633.750 L 449.206 643 454.603 643 C 457.690 643, 460 642.553, 460 641.955 C 460 641.380, 457.831 637.668, 455.179 633.705 C 452.528 629.742, 448.024 622.605, 445.170 617.845 C 442.316 613.085, 438.442 607.840, 436.562 606.189 L 433.144 603.188 439.822 595.206 C 455.913 575.974, 459 572.174, 459 571.605 C 459 571.272, 456.528 571, 453.508 571 L 448.015 571 440.258 580.810 C 435.991 586.205, 430.411 593.344, 427.858 596.673 C 424.861 600.579, 422.299 602.901, 420.631 603.220 C 419.210 603.491, 417.811 603.478, 417.524 603.190 C 417.236 602.902, 417 595.542, 417 586.833 L 417 571 412.525 571 L 408.050 571 407.775 606.004 M 43.496 580.863 C 33.305 585.493, 28.051 603.705, 32.543 618.833 C 37.296 634.838, 55.601 640.258, 67.293 629.122 C 72.118 624.528, 74.181 617.731, 74.150 606.538 C 74.111 592.431, 70.954 585.253, 63.030 581.250 C 57.477 578.445, 49.181 578.280, 43.496 580.863 M 223 597.301 C 219.975 605.654, 217.355 613.053, 217.177 613.744 C 216.931 614.698, 219.634 615, 228.427 615 C 236.999 615, 240 614.677, 240 613.754 C 240 612.289, 229.971 583.823, 229.096 582.806 C 228.768 582.425, 226.025 588.947, 223 597.301 M 26.180 692.250 L 26.500 694.500 262.250 694.752 L 498 695.004 498 692.502 L 498 690 261.930 690 L 25.861 690 26.180 692.250 M 124.511 742.601 C 119.157 744.561, 113.613 750.170, 110.882 756.393 C 107.646 763.763, 107.620 777.460, 110.829 784.500 C 116.046 795.949, 125.620 801.152, 138.506 799.543 C 146.207 798.580, 152.656 794.073, 156.451 787 C 160.186 780.039, 161.167 767.504, 158.649 758.902 C 154.498 744.715, 138.980 737.305, 124.511 742.601 M 194.748 742.427 C 184.012 746.258, 177 757.678, 177 771.331 C 177 780.537, 182.086 790.821, 188.831 795.252 C 195.458 799.606, 206.262 801.166, 214.309 798.931 C 217.809 797.959, 218.092 797.616, 217.809 794.687 C 217.524 791.749, 217.266 791.539, 214.500 792 C 208.847 792.942, 199.440 792.279, 196.470 790.729 C 191.251 788.005, 188.171 783.831, 186.464 777.166 C 183.976 767.455, 185.948 758.009, 191.475 753.156 C 196.391 748.840, 201.048 747.630, 210.066 748.326 L 217.785 748.921 218.214 745.996 C 218.583 743.484, 218.224 742.925, 215.672 742.036 C 211.528 740.591, 199.249 740.821, 194.748 742.427 M 358.500 742.490 C 352.969 744.429, 345.699 752.480, 343.909 758.647 C 341.701 766.254, 342.148 778.501, 344.853 784.500 C 350.572 797.183, 362.700 802.546, 376.575 798.528 C 388.706 795.014, 394.608 784.604, 393.820 768.112 C 393.207 755.304, 389.156 748.172, 379.783 743.401 C 374.282 740.601, 365.020 740.204, 358.500 742.490 M 55 770.500 L 55 799 58.500 799 L 62 799 62 788.500 L 62 778 69.250 777.956 C 79.009 777.897, 85.494 775.550, 89.418 770.657 C 92.216 767.169, 92.500 766.154, 92.500 759.657 C 92.500 753.703, 92.096 751.934, 90.099 749.133 C 86.098 743.524, 81.353 742.047, 67.250 742.022 L 55 742 55 770.500 M 251.963 747.697 C 250.742 750.889, 248.961 755.525, 248.005 758 C 239.825 779.187, 233 797.484, 233 798.224 C 233 798.717, 234.640 798.981, 236.643 798.810 C 240.199 798.507, 240.348 798.325, 242.824 791.250 L 245.361 784 257.609 784 L 269.856 784 271.801 789.250 C 272.870 792.138, 274.058 795.513, 274.440 796.750 C 275.006 798.584, 275.862 799, 279.067 799 C 281.230 799, 283 798.857, 283 798.681 C 283 798.506, 278.302 785.794, 272.561 770.431 L 262.121 742.500 258.152 742.197 L 254.183 741.894 251.963 747.697 M 289 745.500 L 289 749 297.500 749 L 306 749 306 774 L 306 799 309.500 799 L 313 799 313 774 L 313 749 321.500 749 L 330 749 330 745.500 L 330 742 309.500 742 L 289 742 289 745.500 M 415.966 744.250 C 415.948 745.487, 415.505 751.225, 414.982 757 C 414.460 762.775, 413.571 773.350, 413.006 780.500 C 412.442 787.650, 411.771 794.737, 411.515 796.250 C 411.073 798.867, 411.242 799, 415.025 799 C 418.136 799, 419.004 798.620, 419.021 797.250 C 419.032 796.288, 419.701 787.850, 420.507 778.500 C 421.314 769.150, 421.980 760.398, 421.987 759.050 C 421.994 757.654, 422.357 757.009, 422.830 757.550 C 423.766 758.621, 436 796.052, 436 797.844 C 436 798.540, 437.717 799, 440.317 799 L 444.634 799 451.502 777.750 C 459.459 753.131, 458.928 752.908, 461.029 781.750 L 462.286 799 466.177 799 L 470.069 799 469.542 794.250 C 469.252 791.638, 468.330 781.175, 467.494 771 C 466.658 760.825, 465.720 750.114, 465.409 747.198 L 464.843 741.897 460.185 742.198 L 455.527 742.500 448.830 764 C 445.147 775.825, 442.103 786.288, 442.067 787.250 C 441.893 791.801, 439.978 787.587, 434.794 771.250 C 431.696 761.487, 428.368 750.913, 427.398 747.750 L 425.635 742 420.817 742 C 416.498 742, 415.997 742.233, 415.966 744.250 M 126.149 749.696 C 118.840 753.298, 114.513 765.775, 116.889 776.396 C 119.114 786.338, 124.279 791.653, 132.681 792.649 C 139.744 793.485, 145.710 790.609, 149.066 784.750 C 151.199 781.025, 151.500 779.264, 151.500 770.500 C 151.500 762.369, 151.115 759.753, 149.442 756.500 C 145.631 749.093, 134.169 745.745, 126.149 749.696 M 360.149 749.632 C 348.830 755.426, 346.725 778.743, 356.668 788.191 C 360.240 791.585, 367.307 793.540, 372.489 792.568 C 377.707 791.589, 383.427 785.843, 385 780 C 386.635 773.928, 385.878 761.422, 383.591 756.730 C 380.894 751.197, 376.976 748.834, 369.676 748.337 C 365.154 748.030, 362.603 748.376, 360.149 749.632 M 62.216 759.750 L 62.500 770.500 70.179 770.500 C 76.423 770.500, 78.384 770.107, 80.671 768.398 C 84.326 765.667, 85.643 761.091, 84.181 756.210 C 82.555 750.781, 78.943 749, 69.562 749 L 61.932 749 62.216 759.750 M 252.815 763.750 L 248.231 776.500 257.243 776.789 C 262.200 776.948, 266.459 776.874, 266.709 776.625 C 267.201 776.132, 259.156 752.980, 258.065 751.750 C 257.699 751.337, 255.337 756.737, 252.815 763.750" stroke="none" fill="#ffffff" fill-rule="evenodd"/>
</svg>