<svg xmlns="http://www.w3.org/2000/svg" width="341" height="108" viewBox="0 0 341 108" version="1.1">
	<path d="M 54 7.691 C 45.379 9.134, 33.769 14.638, 27.183 20.404 C 23.122 23.958, 15.714 35.149, 16.783 36.113 C 17.178 36.468, 19.122 37.276, 21.105 37.909 C 26.074 39.495, 32.169 44.957, 35.069 50.425 C 36.404 52.941, 37.750 55, 38.060 55 C 39.365 55, 43.171 48.625, 45.755 42.114 C 49.286 33.215, 53.790 26.829, 58.936 23.424 C 63.656 20.300, 64.224 20.557, 68.979 27.967 C 71.091 31.259, 72.926 32.947, 74.784 33.308 C 78.836 34.096, 86.803 32.305, 91.504 29.550 C 98.581 25.403, 98.656 24.887, 92.958 19.557 C 83.237 10.464, 66.992 5.516, 54 7.691 M 123 54.941 C 123 80.314, 123.350 94, 124 94 C 124.649 94, 125 80.520, 125 55.559 C 125 31.010, 124.639 16.895, 124 16.500 C 123.340 16.092, 123 29.156, 123 54.941 M 304.166 21.700 C 304.759 22.415, 305.810 23, 306.500 23 C 307.190 23, 308.241 22.415, 308.834 21.700 C 309.683 20.677, 309.187 20.400, 306.500 20.400 C 303.813 20.400, 303.317 20.677, 304.166 21.700 M 139 31 C 139 35, 139.429 38, 140 38 C 140.550 38, 141 36.650, 141 35 C 141 30.975, 142.966 31.201, 145.784 35.550 C 147.040 37.489, 148.495 38.812, 149.016 38.490 C 149.538 38.168, 148.780 36.114, 147.332 33.926 L 144.700 29.948 147.021 27.478 C 148.297 26.119, 148.996 24.669, 148.573 24.254 C 148.151 23.839, 146.579 24.962, 145.080 26.750 C 141.707 30.772, 141 30.815, 141 27 C 141 25.350, 140.550 24, 140 24 C 139.429 24, 139 27, 139 31 M 153.359 27.374 C 151.334 31.619, 152.520 35.859, 156.330 38 C 158.703 39.333, 159.297 39.333, 161.670 38 C 165.480 35.859, 166.666 31.619, 164.641 27.374 C 163.207 24.366, 162.595 24, 159 24 C 155.405 24, 154.793 24.366, 153.359 27.374 M 170.989 27.250 C 170.983 29.038, 170.699 32.188, 170.358 34.250 C 169.964 36.632, 170.128 38, 170.808 38 C 171.396 38, 172.201 35.862, 172.596 33.250 L 173.314 28.500 174.993 33.500 C 175.917 36.250, 177.084 38.500, 177.586 38.500 C 178.089 38.500, 179.246 36.250, 180.158 33.500 L 181.816 28.500 182.486 32.500 C 184.082 42.027, 185.505 41.012, 184.506 31.059 C 183.639 22.422, 182.025 21.906, 179.632 29.500 C 178.678 32.525, 177.728 35, 177.520 35 C 177.312 35, 176.422 32.525, 175.543 29.500 C 173.711 23.199, 171.007 21.863, 170.989 27.250 M 190 31 C 190 35, 190.429 38, 191 38 C 191.556 38, 192 35.333, 192 32 L 192 26 195.500 26 L 199 26 199 32 C 199 35.333, 199.444 38, 200 38 C 200.571 38, 201 35, 201 31 L 201 24 195.500 24 L 190 24 190 31 M 208 29.171 C 208 32.460, 207.430 34.972, 206.435 36.072 C 204.414 38.305, 206.273 39.584, 208.419 37.438 C 209.433 36.425, 210 34.088, 210 30.929 C 210 26.338, 210.171 26, 212.500 26 C 214.889 26, 215 26.267, 215 32 C 215 35.333, 215.444 38, 216 38 C 216.571 38, 217 35, 217 31 L 217 24 212.500 24 L 208 24 208 29.171 M 223.206 31.157 L 223.500 38.314 226.845 38.407 C 228.685 38.458, 230.399 38.163, 230.654 37.750 C 230.909 37.338, 229.741 37, 228.059 37 C 225.463 37, 225 36.622, 225 34.500 C 225 32.516, 225.504 32, 227.441 32 C 228.784 32, 230.160 31.550, 230.500 31 C 230.861 30.417, 229.844 30, 228.059 30 C 225.667 30, 225 29.564, 225 28 C 225 26.444, 225.667 26, 228 26 C 229.650 26, 231 25.550, 231 25 C 231 24.450, 229.180 24, 226.956 24 L 222.912 24 223.206 31.157 M 236 31 C 236 35, 236.429 38, 237 38 C 237.550 38, 238 36.650, 238 35 C 238 33.023, 238.503 32, 239.474 32 C 240.285 32, 241.647 33.350, 242.500 35 C 243.353 36.650, 244.720 38, 245.538 38 C 246.675 38, 246.415 37.033, 244.435 33.897 L 241.845 29.794 244.093 27.401 C 245.330 26.085, 246.005 24.671, 245.594 24.260 C 245.183 23.849, 243.643 24.976, 242.173 26.765 C 238.865 30.791, 238 30.839, 238 27 C 238 25.350, 237.550 24, 237 24 C 236.429 24, 236 27, 236 31 M 251.748 25.750 C 248.311 29.601, 249.497 36.135, 253.969 37.987 C 256.983 39.236, 260 38.827, 260 37.170 C 260 36.679, 258.946 36.479, 257.658 36.725 C 254.611 37.308, 252 34.659, 252 30.985 C 252 27.666, 255.124 24.958, 258.065 25.727 C 259.129 26.006, 260 25.731, 260 25.117 C 260 23.314, 253.476 23.814, 251.748 25.750 M 265 31 C 265 35, 265.429 38, 266 38 C 266.550 38, 267 36.650, 267 35 C 267 32.249, 267.285 32, 270.437 32 C 273.583 32, 273.900 32.275, 274.187 35.250 C 274.359 37.038, 274.837 38.388, 275.250 38.250 C 275.663 38.112, 276 37.775, 276 37.500 C 276 37.225, 276 34.075, 276 30.500 C 276 26.833, 275.564 24, 275 24 C 274.450 24, 274 25.350, 274 27 C 274 29.762, 273.722 30, 270.500 30 C 267.278 30, 267 29.762, 267 27 C 267 25.350, 266.550 24, 266 24 C 265.429 24, 265 27, 265 31 M 282 31 L 282 38 285.378 38 C 291.810 38, 293.288 31.321, 287.250 29.543 C 284.806 28.824, 284 28.017, 284 26.293 C 284 25.032, 283.550 24, 283 24 C 282.429 24, 282 27, 282 31 M 293 31 C 293 35, 293.429 38, 294 38 C 294.571 38, 295 35, 295 31 C 295 27, 294.571 24, 294 24 C 293.429 24, 293 27, 293 31 M 301 31 C 301 39.627, 302.328 40.049, 306.500 32.749 L 309.500 27.500 309.802 32.750 C 310.249 40.518, 312 39.124, 312 31 C 312 22.367, 310.719 21.975, 306.275 29.250 L 303.067 34.500 303.034 29.250 C 303.015 26.362, 302.550 24, 302 24 C 301.429 24, 301 27, 301 31 M 155.667 26.667 C 155.300 27.033, 155 29.068, 155 31.188 C 155 34.344, 155.460 35.252, 157.537 36.199 C 159.612 37.144, 160.368 37.061, 161.691 35.738 C 163.272 34.156, 163.753 29.027, 162.508 27.013 C 161.811 25.884, 156.707 25.626, 155.667 26.667 M 97.140 28.332 C 96.532 29.064, 93.664 30.959, 90.767 32.543 C 86.595 34.823, 84.045 35.470, 78.500 35.653 C 73.672 35.812, 71.423 36.289, 71.253 37.192 C 70.952 38.783, 73.943 43.706, 80.188 51.900 C 87.484 61.473, 91.309 73.900, 87.418 75.393 C 86.548 75.727, 83.189 76, 79.954 76 C 74.294 76, 73.977 76.139, 71.566 79.689 C 68.323 84.461, 66.546 92.489, 67.429 98.378 C 67.811 100.920, 68.475 103, 68.905 103 C 69.335 103, 72.309 102.098, 75.513 100.996 C 91.582 95.467, 103.817 81.584, 107.035 65.229 C 107.705 61.824, 108.055 55.277, 107.814 50.680 C 107.447 43.677, 106.786 41.082, 103.737 34.662 C 100.034 26.863, 99.101 25.968, 97.140 28.332 M 284 33.371 C 284 36.281, 285.138 37.268, 287.463 36.376 C 289.896 35.442, 288.992 31.570, 286.250 31.180 C 284.429 30.922, 284 31.340, 284 33.371 M 14.060 41.217 C 12.141 46.659, 11.641 56.490, 12.942 63.200 C 17.235 85.342, 37.862 103, 59.432 103 L 65.500 103 65.500 94.162 C 65.500 85.901, 65.716 84.976, 68.801 80.013 C 73.697 72.137, 73.619 72.106, 52 73.501 C 40.222 74.261, 34.414 73.486, 30.512 70.633 C 28.639 69.263, 28.677 69.047, 31.892 62.712 C 34.004 58.551, 34.969 55.478, 34.564 54.201 C 32.661 48.206, 24.340 40.647, 17.359 38.571 C 15.598 38.047, 15.013 38.516, 14.060 41.217 M 56.595 46.486 C 52.431 48.717, 51.068 50.940, 51.032 55.563 C 51.007 58.766, 51.615 60.215, 53.905 62.409 C 63.077 71.197, 76.792 58.389, 68.250 49.013 C 64.889 45.324, 60.529 44.379, 56.595 46.486 M 173.034 49.273 C 167.804 51.929, 168.103 60.948, 173.488 62.995 C 179.629 65.330, 184.776 58.334, 181.532 52.061 C 180.661 50.378, 179.547 49, 179.056 49 C 178.565 49, 177.564 48.780, 176.832 48.510 C 176.099 48.241, 174.390 48.584, 173.034 49.273 M 139 56 C 139 60, 139.429 63, 140 63 C 140.556 63, 141 60.333, 141 57 L 141 51 144.500 51 L 148 51 148 57 C 148 60.333, 148.444 63, 149 63 C 149.571 63, 150 60, 150 56 L 150 49 144.500 49 L 139 49 139 56 M 155.667 49.667 C 155.300 50.033, 155 53.183, 155 56.667 C 155 61.666, 155.320 63, 156.520 63 C 157.595 63, 157.907 62.269, 157.586 60.500 C 157.226 58.516, 157.545 58, 159.132 58 C 164.082 58, 166.897 53.297, 163.800 50.200 C 162.524 48.924, 156.785 48.548, 155.667 49.667 M 188 56 L 188 63 192 63 C 194.200 63, 196 62.550, 196 62 C 196 61.450, 194.650 61, 193 61 C 190.667 61, 190 60.556, 190 59 C 190 57.533, 190.667 57, 192.500 57 C 193.875 57, 195 56.550, 195 56 C 195 55.450, 193.875 55, 192.500 55 C 190.667 55, 190 54.467, 190 53 C 190 51.546, 190.667 51, 192.441 51 C 193.784 51, 195.160 50.550, 195.500 50 C 195.873 49.396, 194.510 49, 192.059 49 L 188 49 188 56 M 201 56 C 201 60, 201.429 63, 202 63 C 202.550 63, 203 61.650, 203 60 C 203 58.224, 203.524 57, 204.284 57 C 204.991 57, 206.366 58.350, 207.341 60 C 208.316 61.650, 209.769 63, 210.571 63 C 211.652 63, 211.353 61.980, 209.413 59.047 L 206.797 55.094 208.966 52.047 C 211.779 48.098, 209.760 48.053, 206.842 52 C 205.622 53.650, 204.259 55, 203.812 55 C 203.365 55, 203 53.650, 203 52 C 203 50.350, 202.550 49, 202 49 C 201.429 49, 201 52, 201 56 M 215 50 C 215 50.550, 215.900 51, 217 51 C 218.778 51, 219 51.667, 219 57 C 219 60.333, 219.444 63, 220 63 C 220.556 63, 221 60.333, 221 57 C 221 51.667, 221.222 51, 223 51 C 224.100 51, 225 50.550, 225 50 C 225 49.450, 222.750 49, 220 49 C 217.250 49, 215 49.450, 215 50 M 174.185 50.684 C 172.150 51.498, 170.930 55.686, 171.948 58.364 C 173.057 61.280, 175.523 62.326, 178.072 60.961 C 180.790 59.507, 180.785 52.491, 178.066 51.035 C 177.002 50.466, 175.989 50.036, 175.816 50.079 C 175.642 50.122, 174.908 50.395, 174.185 50.684 M 157.171 53.176 C 157.611 56.280, 162.500 56.578, 162.500 53.500 C 162.500 52.048, 161.725 51.411, 159.671 51.176 C 157.211 50.894, 156.884 51.155, 157.171 53.176 M 139 83.500 C 139 86.525, 139.450 89, 140 89 C 140.550 89, 141 88.131, 141 87.070 C 141 85.861, 141.803 85.020, 143.148 84.820 C 148.621 84.005, 147.503 78, 141.878 78 C 139.056 78, 139 78.108, 139 83.500 M 151.571 79.571 C 148.168 82.975, 150.965 90, 155.723 90 C 157.817 90, 161 86.173, 161 83.655 C 161 78.929, 154.869 76.274, 151.571 79.571 M 165.655 79.829 C 163.430 82.288, 163.568 85.568, 166 88 C 168.133 90.133, 171.481 90.649, 172.500 89 C 172.845 88.441, 172.077 88, 170.759 88 C 164.433 88, 164.217 80.268, 170.500 78.724 C 172.103 78.330, 171.985 78.209, 169.905 78.116 C 168.478 78.052, 166.565 78.823, 165.655 79.829 M 178.633 81.337 C 177.866 83.173, 176.900 85.760, 176.486 87.087 C 175.758 89.423, 175.797 89.444, 177.696 87.750 C 180.102 85.604, 182.592 85.494, 183.362 87.500 C 183.678 88.325, 184.360 89, 184.877 89 C 185.394 89, 184.845 86.526, 183.658 83.502 C 182.471 80.478, 181.169 78.003, 180.763 78.002 C 180.358 78.001, 179.399 79.502, 178.633 81.337 M 188.250 78.689 C 189.618 79.047, 190 80.222, 190 84.073 C 190 86.783, 190.450 89, 191 89 C 191.550 89, 192 86.783, 192 84.073 C 192 80.222, 192.382 79.047, 193.750 78.689 C 194.713 78.438, 193.475 78.232, 191 78.232 C 188.525 78.232, 187.287 78.438, 188.250 78.689 M 199.035 79.934 C 197.214 83.338, 197.820 86.836, 200.541 88.619 C 205.721 92.013, 211.034 85.753, 207.523 80.394 C 205.537 77.364, 200.555 77.095, 199.035 79.934 M 212.989 79.750 C 212.983 80.713, 212.699 83.188, 212.358 85.250 C 211.947 87.738, 212.119 89, 212.869 89 C 213.492 89, 214.044 87.315, 214.097 85.250 L 214.194 81.500 215.746 85.284 C 217.575 89.746, 218.902 89.652, 220.605 84.940 L 221.848 81.500 221.924 85.250 C 222.006 89.274, 224 90.595, 224 86.625 C 224 82.852, 222.827 78, 221.915 78 C 221.456 78, 220.541 79.800, 219.882 82 C 219.223 84.200, 218.376 86, 218 86 C 217.624 86, 216.777 84.200, 216.118 82 C 214.899 77.930, 213.009 76.571, 212.989 79.750 M 141 81.500 C 141 83.482, 141.439 84.062, 142.750 83.810 C 143.713 83.624, 144.500 82.585, 144.500 81.500 C 144.500 80.415, 143.713 79.376, 142.750 79.190 C 141.439 78.938, 141 79.518, 141 81.500 M 153.050 80.440 C 152.393 81.231, 152.001 83.144, 152.178 84.690 C 152.451 87.074, 152.955 87.500, 155.500 87.500 C 158.045 87.500, 158.549 87.074, 158.822 84.690 C 159.164 81.707, 157.583 79, 155.500 79 C 154.810 79, 153.707 79.648, 153.050 80.440 M 201.200 80.200 C 199.419 81.981, 199.708 86.951, 201.636 87.691 C 205.313 89.102, 208.584 83.614, 205.954 80.445 C 204.494 78.686, 202.801 78.599, 201.200 80.200 M 180.015 80.668 C 180.007 81.311, 179.727 82.548, 179.393 83.418 C 178.995 84.456, 179.338 85, 180.393 85 C 181.277 85, 181.993 84.438, 181.985 83.750 C 181.965 82.129, 180.036 79.110, 180.015 80.668" stroke="none" fill="#ffffff" fill-rule="evenodd"/>
</svg>