<svg xmlns="http://www.w3.org/2000/svg" width="800" height="571" viewBox="0 0 800 571" version="1.1">
	<path d="M 74.888 122.500 C 71.066 124.577, 69.873 128.493, 70.207 137.868 L 70.500 146.112 74.216 141.128 C 80.942 132.106, 92.316 126.444, 106.025 125.295 C 115.105 124.533, 119.197 126.076, 125.198 132.524 C 133.439 141.378, 139.649 140.762, 149.845 130.080 C 152.971 126.805, 156.872 123.425, 158.514 122.569 C 161.259 121.138, 158.114 121.015, 119.500 121.046 C 85.166 121.074, 77.023 121.339, 74.888 122.500 M 167.994 122.988 C 169.052 124.965, 168.735 125.560, 164.878 128.844 C 156.163 136.264, 149.232 143.748, 144.330 151.027 C 139.948 157.535, 131 172.612, 131 173.487 C 131 173.656, 133.458 173.053, 136.463 172.147 C 141.888 170.511, 141.980 170.417, 149.860 158.353 C 162.302 139.304, 171.406 131.424, 184.335 128.512 L 189.252 127.405 186.713 124.452 C 184.322 121.673, 183.666 121.479, 175.494 121.144 C 166.817 120.787, 166.816 120.788, 167.994 122.988 M 98.734 132.037 C 89.845 134.252, 80.797 141.454, 79.077 147.684 C 77.261 154.261, 81.381 161.418, 87.660 162.596 C 94.134 163.811, 98.073 162.242, 103.610 156.245 C 107.708 151.806, 109.387 150.667, 111.827 150.667 C 115.941 150.667, 118 152.584, 118 156.414 C 118 160.233, 112.004 166.528, 105 170.061 C 98.175 173.504, 87.008 173.920, 80.183 170.983 C 77.307 169.746, 73.839 167.409, 72.477 165.790 L 70 162.847 70.011 185.173 L 70.022 207.500 72.519 204.333 C 78.246 197.067, 95.329 186.133, 109.717 180.524 L 116.934 177.710 124.994 165.105 C 129.427 158.172, 133.729 151.552, 134.553 150.394 C 136.026 148.326, 135.968 148.296, 131.276 148.700 C 125.038 149.237, 120.881 146.672, 117.643 140.286 C 116.308 137.654, 114.286 134.659, 113.149 133.632 C 110.723 131.440, 104.081 130.705, 98.734 132.037 M 180.030 137.113 C 178.671 137.655, 176.100 139.212, 174.316 140.573 C 170.946 143.143, 160.024 156.735, 156.109 163.231 L 153.860 166.962 156.734 165.731 C 171.669 159.333, 189 145.920, 189 140.759 C 189 136.623, 185.164 135.064, 180.030 137.113 M 182 159.726 C 174.666 165.789, 163.209 172.765, 154.206 176.650 C 148.406 179.152, 148.025 179.543, 145.183 185.900 C 139.523 198.558, 137.594 208.194, 140.200 210.800 C 142.245 212.845, 147.407 212.129, 152.054 209.154 C 156.480 206.321, 175.166 187.587, 184.290 176.835 L 189.081 171.190 188.790 162.771 L 188.500 154.353 182 159.726 M 182.628 188.459 C 173.990 199.936, 160.657 215.133, 155.158 219.770 C 148.800 225.131, 141.505 229, 137.755 229 C 133.671 229, 129.319 226.191, 127.516 222.393 C 124.345 215.711, 126.774 202.274, 133.579 188.843 C 134.985 186.070, 135.908 183.575, 135.632 183.299 C 135.356 183.022, 132.875 183.545, 130.120 184.460 C 125.275 186.069, 124.980 186.392, 121.108 194.312 C 115.802 205.163, 106.963 218.335, 99.187 226.981 L 92.873 234 138.013 234 L 183.154 234 186.077 231.077 L 189 228.154 189 204.577 C 189 191.610, 188.830 181, 188.621 181 C 188.413 181, 185.716 184.357, 182.628 188.459 M 102.458 195.616 C 92.159 201.482, 85.425 206.722, 78.046 214.610 C 70.883 222.267, 68.803 227.524, 71.378 231.455 C 74.715 236.547, 81.426 234.063, 89.148 224.878 C 97.165 215.342, 111.913 192.580, 110.797 191.464 C 110.587 191.254, 106.835 193.122, 102.458 195.616 M 154.326 262.110 C 145.117 263.786, 138.320 270.233, 135.621 279.854 C 131.005 296.304, 137.083 313.560, 149.234 318.506 C 159.318 322.611, 172.700 319.826, 178.872 312.339 C 184.881 305.049, 186.909 289.152, 183.271 277.865 C 179.453 266.021, 167.771 259.663, 154.326 262.110 M 383.753 262.087 C 371.247 264.053, 363.881 274.500, 363.722 290.500 C 363.537 309.057, 372.841 320.310, 388.437 320.390 C 399.811 320.449, 407.739 315.538, 412.088 305.742 C 415.473 298.118, 415.492 283.713, 412.127 276.258 C 407.118 265.161, 396.844 260.030, 383.753 262.087 M 558.377 287.276 C 549.922 309.725, 548.173 313.566, 545.785 314.923 C 540.746 317.789, 542.296 319, 551 319 C 557.167 319, 559 318.681, 559 317.608 C 559 316.843, 557.831 315.923, 556.403 315.565 C 553.465 314.828, 553.514 314.047, 557.101 304.459 L 559.144 299 568.322 299.011 L 577.500 299.022 580.250 306.361 C 581.763 310.397, 583 313.948, 583 314.252 C 583 314.556, 581.650 315.275, 580 315.850 C 574.201 317.872, 576.709 319, 587 319 C 592.500 319, 597 318.679, 597 318.288 C 597 317.896, 595.835 316.646, 594.410 315.510 C 592.504 313.990, 589.081 306.603, 581.447 287.537 C 575.089 271.656, 570.518 261.546, 569.635 261.417 C 568.615 261.267, 565.334 268.805, 558.377 287.276 M 704.500 261.798 C 700.922 262.517, 698.213 266.053, 694.500 274.855 C 690.429 284.507, 687.349 288, 682.909 288 L 679.930 288 680.215 277.750 L 680.500 267.500 683.750 266.543 C 685.538 266.017, 687 265.004, 687 264.293 C 687 263.310, 684.223 263, 675.417 263 C 666.955 263, 663.939 263.318, 664.227 264.181 C 664.444 264.831, 666.169 265.883, 668.060 266.520 L 671.500 267.678 671.500 291 L 671.500 314.322 668.060 315.480 C 666.169 316.117, 664.444 317.169, 664.227 317.819 C 663.939 318.682, 666.955 319, 675.417 319 C 684.223 319, 687 318.690, 687 317.707 C 687 316.996, 685.538 315.983, 683.750 315.457 L 680.500 314.500 680.216 303.132 L 679.932 291.765 683.716 292.467 C 685.797 292.853, 688.355 293.919, 689.401 294.835 C 691.508 296.680, 695.806 305.668, 698.446 313.750 L 700.161 319 708.080 319 C 714.453 319, 716 318.707, 716 317.500 C 716 316.504, 715.004 316, 713.039 316 C 709.243 316, 708.731 315.378, 703.155 304 C 699.531 296.604, 697.667 293.963, 694.739 292.076 C 690.995 289.662, 690.987 289.642, 692.912 287.576 C 693.975 286.434, 696.429 282.012, 698.365 277.750 C 701.900 269.969, 703.941 268.341, 706.699 271.099 C 708.233 272.633, 711.770 271.299, 712.532 268.900 C 713.809 264.875, 709.251 260.844, 704.500 261.798 M 200.750 262.743 C 192.357 263.112, 190.351 264.807, 196.250 266.543 L 199.500 267.500 199.500 291 L 199.500 314.500 196.250 315.457 C 194.463 315.983, 193 316.996, 193 317.707 C 193 318.710, 196.543 319, 208.788 319 C 223.175 319, 224.972 318.800, 229.030 316.750 C 235.648 313.407, 238.275 308.904, 237.776 301.764 C 237.321 295.271, 234.875 291.753, 229.106 289.298 L 225.713 287.853 228.808 285.971 C 234.865 282.287, 236.727 274.344, 232.974 268.190 C 229.306 262.174, 226.085 261.629, 200.750 262.743 M 343.794 264.750 C 342.375 266.262, 339.530 271.455, 337.472 276.288 C 333.519 285.571, 331.302 288, 326.777 288 L 324 288 324 277.545 L 324 267.091 327.500 266.434 C 329.505 266.058, 331 265.184, 331 264.389 C 331 263.284, 328.634 263, 319.417 263 C 310.920 263, 307.939 263.316, 308.229 264.188 C 308.447 264.841, 309.947 265.808, 311.563 266.337 C 313.178 266.867, 314.725 267.638, 315 268.051 C 315.275 268.465, 315.371 279.180, 315.214 291.863 L 314.929 314.923 311.464 315.573 C 309.487 315.944, 308 316.819, 308 317.611 C 308 318.716, 310.354 319, 319.500 319 C 328.238 319, 331 318.689, 331 317.707 C 331 316.996, 329.538 315.983, 327.750 315.457 L 324.500 314.500 324.217 303.250 L 323.934 292 326.319 292 C 331.447 292, 335.286 296.046, 339.161 305.535 C 341.175 310.466, 342.862 315.512, 342.911 316.750 C 342.996 318.902, 343.375 319, 351.583 319 C 357.909 319, 360.059 318.678, 359.759 317.776 C 359.534 317.102, 357.880 316.251, 356.083 315.883 C 351.901 315.028, 351.784 314.886, 348.110 306.168 C 344.292 297.109, 341.724 293.426, 337.820 291.407 L 334.798 289.844 336.875 287.634 C 338.017 286.418, 340.220 282.326, 341.771 278.542 C 344.970 270.738, 346.948 268.862, 349.983 270.757 C 352.822 272.530, 353.741 272.324, 355.592 269.500 C 357.109 267.184, 357.109 266.816, 355.592 264.500 C 353.214 260.871, 347.316 260.996, 343.794 264.750 M 70 264.293 C 70 265.004, 71.463 266.017, 73.250 266.543 L 76.500 267.500 76.768 291.201 L 77.036 314.903 73.518 315.563 C 71.500 315.941, 70 316.815, 70 317.611 C 70 318.716, 72.366 319, 81.583 319 C 90.331 319, 93.066 318.698, 92.755 317.765 C 92.529 317.086, 90.916 316.121, 89.172 315.620 C 87.419 315.118, 85.940 313.992, 85.866 313.105 C 85.792 312.222, 85.680 307.113, 85.616 301.751 L 85.500 292.001 98.250 292.001 L 111 292 111 303.455 L 111 314.909 107.500 315.566 C 105.495 315.942, 104 316.816, 104 317.611 C 104 318.716, 106.366 319, 115.583 319 C 124.080 319, 127.061 318.684, 126.771 317.813 C 126.553 317.159, 125.053 316.192, 123.438 315.663 C 121.822 315.133, 120.169 314.205, 119.765 313.600 C 118.906 312.313, 118.756 272.510, 119.599 269.370 C 119.942 268.092, 121.405 266.887, 123.257 266.355 C 124.954 265.868, 126.529 264.914, 126.755 264.235 C 127.066 263.302, 124.331 263, 115.583 263 C 106.366 263, 104 263.284, 104 264.389 C 104 265.184, 105.495 266.058, 107.500 266.434 L 111 267.091 111 277.045 L 111 287 98.576 287 L 86.152 287 85.826 279.250 C 85.348 267.889, 85.556 267.174, 89.565 266.422 C 91.520 266.055, 93 265.179, 93 264.389 C 93 263.284, 90.646 263, 81.500 263 C 72.762 263, 70 263.311, 70 264.293 M 244 264.293 C 244 265.004, 245.463 266.017, 247.250 266.543 L 250.500 267.500 250.500 290.963 L 250.500 314.425 247.250 315.357 C 245.463 315.870, 244 316.899, 244 317.645 C 244 318.706, 246.485 319, 255.469 319 C 265.036 319, 266.846 318.761, 266.385 317.561 C 266.081 316.770, 264.490 315.827, 262.849 315.467 C 256.761 314.130, 257.073 313.537, 276.418 289.687 C 281.688 283.190, 286.032 278.015, 286.070 278.187 C 286.214 278.827, 286.231 286.902, 286.117 300.605 L 286 314.711 282.828 315.620 C 281.084 316.121, 279.471 317.086, 279.245 317.765 C 278.934 318.698, 281.669 319, 290.417 319 C 299.223 319, 302 318.690, 302 317.707 C 302 316.996, 300.538 315.983, 298.750 315.457 L 295.500 314.500 295.500 291 L 295.500 267.500 298.750 266.543 C 300.538 266.017, 302 265.004, 302 264.293 C 302 263.310, 299.223 263, 290.417 263 C 281.669 263, 278.934 263.302, 279.245 264.235 C 279.471 264.914, 281.058 265.872, 282.771 266.363 C 284.483 266.854, 286.117 267.863, 286.402 268.606 C 286.792 269.620, 266.872 295.771, 259.842 303.473 C 259.322 304.043, 259.067 296.803, 259.227 286.010 L 259.500 267.573 262.692 266.659 C 264.448 266.155, 266.121 265.126, 266.411 264.372 C 266.838 263.259, 264.776 263, 255.469 263 C 246.756 263, 244 263.311, 244 264.293 M 421.227 264.181 C 421.444 264.831, 423.169 265.893, 425.060 266.541 L 428.500 267.720 428.309 275.110 C 428.204 279.175, 427.817 289.645, 427.448 298.379 L 426.777 314.258 423.915 315.338 C 422.341 315.932, 420.831 316.999, 420.558 317.709 C 420.175 318.708, 422.208 319, 429.531 319 C 436.608 319, 439 318.673, 439 317.707 C 439 316.996, 437.538 315.983, 435.750 315.457 L 432.500 314.500 432.232 306.500 C 432.084 302.100, 432.309 293.775, 432.732 288 L 433.500 277.500 435.672 283 C 440.810 296.014, 450.872 319.272, 451.740 320.140 C 453.178 321.578, 453.905 320.189, 463.059 298.529 L 471.500 278.558 472.277 285.529 C 472.704 289.363, 472.929 297.450, 472.777 303.500 L 472.500 314.500 469.250 315.457 C 467.462 315.983, 466 316.996, 466 317.707 C 466 318.690, 468.777 319, 477.583 319 C 486.045 319, 489.061 318.682, 488.773 317.819 C 488.556 317.169, 486.831 316.118, 484.940 315.482 L 481.500 314.326 480.677 291.453 C 479.911 270.198, 479.978 268.489, 481.618 267.290 C 482.588 266.581, 484.196 266, 485.191 266 C 486.186 266, 487 265.325, 487 264.500 C 487 263.315, 485.582 263, 480.238 263 L 473.475 263 464.710 283.250 C 459.889 294.387, 455.540 304.149, 455.045 304.942 C 453.997 306.621, 452.705 303.883, 442.939 279.283 L 436.500 263.067 428.667 263.033 C 423.076 263.010, 420.946 263.338, 421.227 264.181 M 495 264.293 C 495 265.004, 496.462 266.017, 498.250 266.543 L 501.500 267.500 501.768 291.201 L 502.036 314.903 498.518 315.563 C 496.500 315.941, 495 316.815, 495 317.611 C 495 318.740, 498.043 318.997, 511.250 318.984 C 526.239 318.968, 527.808 318.793, 531.470 316.718 C 536.947 313.617, 540 308.797, 540 303.253 C 540 291.753, 531.248 285.366, 516.586 286.167 L 510.500 286.500 510.207 279 C 509.732 266.813, 509.588 267, 519.437 267 C 524.057 267, 528.543 267.271, 529.407 267.603 C 530.271 267.934, 531.451 269.959, 532.028 272.103 C 532.640 274.376, 533.686 276, 534.539 276 C 535.671 276, 536 274.535, 536 269.500 L 536 263 515.500 263 C 499.401 263, 495 263.278, 495 264.293 M 601.227 264.181 C 601.444 264.831, 603.169 265.883, 605.060 266.520 L 608.500 267.678 608.500 291.089 L 608.500 314.500 605.044 315.617 C 597.963 317.906, 600.348 319, 612.417 319 C 621.223 319, 624 318.690, 624 317.707 C 624 316.996, 622.538 315.983, 620.750 315.457 L 617.500 314.500 617.217 303.250 L 616.934 292 630 292 L 643.066 292 642.783 303.163 L 642.500 314.325 639.060 315.482 C 637.169 316.117, 635.444 317.169, 635.227 317.819 C 634.939 318.682, 637.955 319, 646.417 319 C 655.223 319, 658 318.690, 658 317.707 C 658 316.996, 656.538 315.983, 654.750 315.457 L 651.500 314.500 651.500 291 L 651.500 267.500 654.750 266.543 C 656.538 266.017, 658 265.004, 658 264.293 C 658 263.310, 655.223 263, 646.417 263 C 637.955 263, 634.939 263.318, 635.227 264.181 C 635.444 264.831, 637.169 265.882, 639.060 266.518 L 642.500 267.674 642.786 277.337 L 643.072 287 630 287 L 616.928 287 617.214 277.285 L 617.500 267.570 620.750 266.641 C 622.538 266.129, 624 265.101, 624 264.355 C 624 263.293, 621.497 263, 612.417 263 C 603.955 263, 600.939 263.318, 601.227 264.181 M 151.799 267.728 C 146.944 270.740, 143.674 278.373, 143.176 287.860 C 142.544 299.904, 144.176 306.105, 149.417 311.575 C 153.348 315.677, 154.030 316, 158.763 316 C 165.740 316, 168.429 314.771, 171.882 310.004 C 175.888 304.474, 177.673 294.099, 176.228 284.739 C 174.245 271.885, 168.996 265.978, 159.602 266.027 C 156.614 266.042, 153.381 266.747, 151.799 267.728 M 209.210 266.849 C 208.271 267.445, 207.999 270.224, 208.210 277.084 L 208.500 286.500 213.063 286.449 C 219.638 286.375, 223.569 284.427, 225.545 280.264 C 227.822 275.465, 226.221 269.683, 222.011 267.506 C 218.890 265.892, 211.330 265.504, 209.210 266.849 M 379.600 269.047 C 374.792 273.268, 372.519 280.314, 372.519 291 C 372.519 308.032, 378.321 316.342, 390.100 316.179 C 396.340 316.093, 399.047 314.103, 403.263 306.500 C 405.194 303.019, 405.482 301.009, 405.482 291 C 405.482 281.074, 405.181 278.935, 403.285 275.376 C 399.604 268.467, 395.834 266, 388.958 266 C 383.821 266, 382.627 266.389, 379.600 269.047 M 564.307 284.500 L 561.178 294 568.089 294 C 571.890 294, 575.005 293.663, 575.011 293.250 C 575.030 291.898, 568.513 275.019, 567.968 275.010 C 567.675 275.004, 566.028 279.275, 564.307 284.500 M 513 290.841 C 510.573 291.564, 510.491 291.888, 510.177 301.853 C 509.771 314.767, 510.154 315.351, 518.676 314.808 C 523.553 314.497, 525.497 313.882, 527.479 312.020 C 532.917 306.911, 532.601 296.992, 526.864 292.736 C 524.001 290.611, 516.988 289.653, 513 290.841 M 208 302.481 C 208 313.958, 208.001 313.962, 210.554 314.603 C 211.959 314.956, 215.420 315.022, 218.245 314.750 C 222.407 314.351, 223.914 313.660, 226.191 311.113 C 228.521 308.504, 228.996 307.076, 228.978 302.734 C 228.941 294.106, 225.126 291, 214.566 291 L 208 291 208 302.481" stroke="none" fill="#ffffff" fill-rule="evenodd"/>
</svg>