<svg xmlns="http://www.w3.org/2000/svg" width="500" height="500" viewBox="0 0 500 500" version="1.1">
	<path d="M 86.455 138.256 C 86.190 138.947, 86.092 155.035, 86.237 174.006 L 86.500 208.500 249.633 208.753 L 412.765 209.006 413.369 206.753 C 413.701 205.514, 413.979 189.852, 413.986 171.950 C 413.996 147.951, 413.685 139.085, 412.800 138.200 C 411.004 136.404, 87.145 136.459, 86.455 138.256 M 85.958 247.750 C 85.574 254.580, 86.060 317.288, 86.503 318.004 C 86.907 318.659, 143.120 319, 250.559 319 L 414 319 414 283 L 414 247 250 247 C 159.800 247, 85.981 247.338, 85.958 247.750 M 0 405.500 L 0 457 42 457 L 84 457 84 448 L 84 439 54.500 439 L 25 439 25 426.500 L 25 414 54.500 414 L 84 414 84 405 L 84 396 54.500 396 L 25 396 25 384.500 L 25 373 36.340 373 C 42.577 373, 55.852 372.704, 65.840 372.342 L 84 371.684 84 362.842 L 84 354 42 354 L 0 354 0 405.500 M 108 405.489 L 108 457.137 143.250 456.797 C 177.366 456.468, 178.677 456.383, 184 454.158 C 191.015 451.227, 195.509 446.888, 197.459 441.165 C 199.237 435.949, 199.470 425.234, 197.928 419.679 C 196.663 415.124, 191.146 408.717, 187.014 407.006 L 184.049 405.778 187.577 403.383 C 195.928 397.716, 199.634 389.482, 198.755 378.543 C 197.876 367.582, 192.608 360.555, 182.434 356.771 C 176.825 354.685, 174.625 354.544, 142.250 354.202 L 108 353.840 108 405.489 M 219 405.399 L 219 457 230 457 L 241 457 241 439.095 L 241 421.190 263.750 420.767 C 291.101 420.259, 294.521 419.436, 302.518 411.439 C 308.485 405.472, 311 398.522, 311 388 C 311 372.496, 303.898 361.305, 291.314 356.983 C 284.835 354.757, 282.891 354.621, 251.750 354.220 L 219 353.797 219 405.399 M 344.525 357.250 C 343.732 359.038, 341.693 363.875, 339.994 368 C 338.296 372.125, 336.042 377.525, 334.986 380 C 333.930 382.475, 330.088 391.475, 326.448 400 C 322.809 408.525, 317.887 420.225, 315.511 426 C 313.135 431.775, 309.349 440.740, 307.096 445.922 C 304.843 451.105, 303 455.732, 303 456.205 C 303 456.678, 307.986 456.938, 314.081 456.783 L 325.161 456.500 329.394 445.174 C 331.722 438.945, 334.138 433.532, 334.764 433.146 C 336.217 432.248, 371.270 431.759, 376.250 432.567 C 378.313 432.902, 380 433.658, 380 434.248 C 380 434.838, 381.888 440.199, 384.196 446.161 L 388.393 457 400.172 457 L 411.950 457 410.926 454.306 C 410 451.871, 407.465 445.831, 401.983 433 C 400.926 430.525, 396.623 420.400, 392.423 410.500 C 388.222 400.600, 383.985 390.700, 383.007 388.500 C 379.267 380.081, 370.226 358.398, 369.561 356.250 C 368.893 354.088, 368.416 354, 357.416 354 L 345.968 354 344.525 357.250 M 418 362.913 L 418 372 442.032 372 C 467.827 372, 471.154 372.526, 474.369 377.117 C 476.443 380.077, 476.528 388.801, 474.512 391.679 C 471.650 395.766, 465.112 397, 446.322 397 L 429 397 429 405.500 L 429 414 447.532 414 C 467.243 414, 470.627 414.623, 474.500 418.967 C 476.027 420.680, 476.500 422.624, 476.500 427.192 C 476.500 432.448, 476.173 433.454, 473.804 435.492 C 469.626 439.086, 462.660 440, 439.451 440 L 418 440 418 448.575 L 418 457.151 449.250 456.820 C 479.603 456.499, 480.651 456.422, 485.742 454.125 C 491.189 451.668, 497.394 445.725, 499.045 441.383 C 499.570 440.001, 499.993 434.512, 499.984 429.185 C 499.964 417.869, 498.223 413.678, 491.367 408.449 L 487.245 405.305 490.671 402.571 C 492.556 401.067, 495.418 397.736, 497.030 395.168 C 499.722 390.882, 499.964 389.739, 499.981 381.210 C 500.009 367.310, 496.395 361.425, 485 356.819 C 479.817 354.724, 477.726 354.574, 448.750 354.211 L 418 353.826 418 362.913 M 242.157 372.903 C 241.304 373.430, 240.872 378.070, 240.719 388.329 L 240.500 403.002 258 402.979 C 273.179 402.959, 276.069 402.698, 279.793 401.008 C 290.566 396.118, 290.211 376.944, 279.296 374.119 C 274.542 372.889, 243.808 371.882, 242.157 372.903 M 129 384.944 L 129 397 146.750 396.994 C 172.058 396.986, 175.065 395.765, 175.747 385.213 C 176.064 380.308, 175.768 379.076, 173.655 376.500 L 171.193 373.500 150.097 373.194 L 129 372.888 129 384.944 M 354.532 378.549 C 353.617 380.722, 351.302 386.775, 349.387 392 C 347.473 397.225, 345.426 402.625, 344.840 404 C 344.253 405.375, 343.169 408.188, 342.431 410.250 L 341.089 414 356.500 414 L 371.911 414 370.518 410.250 C 369.752 408.188, 367.709 402.900, 365.977 398.500 C 364.244 394.100, 361.768 387.696, 360.473 384.268 C 356.664 374.183, 356.455 373.981, 354.532 378.549 M 129.750 414.561 C 129.338 414.986, 129 420.658, 129 427.167 L 129 439 147.250 438.994 C 167.605 438.988, 171.963 438.232, 174.570 434.252 C 176.618 431.127, 176.919 423.587, 175.131 420.244 C 172.619 415.551, 168.841 414.680, 149 414.219 C 138.825 413.983, 130.162 414.137, 129.750 414.561" stroke="none" fill="#ffffff" fill-rule="evenodd"/>
</svg>