<svg xmlns="http://www.w3.org/2000/svg" width="170" height="71" viewBox="0 0 170 71" version="1.1">
	<path d="M 35.857 8.389 C 29.716 10.583, 25.676 13.402, 22.265 17.875 C 18.747 22.487, 18.119 25, 20.482 25 C 22.129 25, 27.644 30.141, 30.127 33.992 L 31.734 36.485 35.809 28.380 C 38.050 23.923, 41.352 19.040, 43.146 17.531 L 46.408 14.786 47.954 16.858 C 48.804 17.997, 50.198 19.910, 51.052 21.108 C 52.398 22.997, 53.196 23.198, 57.068 22.617 C 59.545 22.246, 62.861 20.843, 64.517 19.467 L 67.500 16.987 63.654 13.555 C 56.865 7.495, 44.692 5.233, 35.857 8.389 M 83.432 36 C 83.432 49.475, 83.574 54.987, 83.747 48.250 C 83.920 41.513, 83.920 30.488, 83.747 23.750 C 83.574 17.012, 83.432 22.525, 83.432 36 M 64.102 21.591 C 61.767 23.247, 59.344 24, 56.352 24 C 50.907 24, 50.591 25.975, 55.131 31.612 C 58.806 36.176, 61.947 42.613, 61.978 45.643 C 62.003 48.031, 60.260 49, 55.941 49 C 52.194 49, 49.850 52.502, 49.222 59.040 C 48.634 65.160, 50 65.950, 56.161 63.054 C 66.801 58.053, 72.749 49.228, 73.599 37.183 C 73.983 31.750, 73.643 29.485, 71.786 25.075 C 70.528 22.092, 69.050 19.545, 68.500 19.416 C 67.950 19.287, 65.971 20.266, 64.102 21.591 M 93.168 28.250 C 93.005 32.869, 93.080 33, 95.917 33 C 97.521 33, 99.076 33.563, 99.372 34.250 C 99.669 34.938, 99.645 33.025, 99.320 30 C 98.618 23.468, 98 22.219, 98 27.333 C 98 30.295, 97.627 31, 96.060 31 C 94.555 31, 94.033 30.160, 93.728 27.250 C 93.369 23.814, 93.322 23.898, 93.168 28.250 M 103.236 28.500 C 103.256 31.250, 103.467 32.487, 103.706 31.250 C 104.248 28.435, 105.592 28.369, 107.046 31.086 C 107.660 32.233, 108.412 32.922, 108.716 32.617 C 109.021 32.312, 108.552 30.965, 107.672 29.623 C 106.261 27.469, 106.248 27.039, 107.561 25.949 C 108.379 25.270, 108.802 24.469, 108.501 24.168 C 108.200 23.867, 107.194 24.706, 106.265 26.032 L 104.577 28.443 103.888 25.971 C 103.405 24.239, 103.210 24.996, 103.236 28.500 M 112 27.941 C 112 32.295, 113.014 33.448, 116.009 32.497 C 118.889 31.583, 118.548 28.176, 115.500 27.411 C 112.391 26.630, 112.266 25.280, 115.250 24.706 C 117.179 24.334, 117.108 24.253, 114.750 24.136 C 112.192 24.010, 112 24.275, 112 27.941 M 121.118 28.250 C 121.226 32.121, 121.297 32.233, 121.912 29.500 L 122.588 26.500 123.313 29.250 C 123.712 30.762, 124.442 32, 124.936 32 C 125.429 32, 126.285 30.762, 126.838 29.250 L 127.842 26.500 127.921 29.250 C 127.964 30.762, 128.498 32, 129.107 32 C 129.716 32, 129.941 31.288, 129.607 30.418 C 129.273 29.548, 129 27.748, 129 26.418 C 129 22.926, 127.213 23.446, 126.141 27.250 L 125.225 30.500 124.015 27.250 C 122.330 22.727, 120.978 23.194, 121.118 28.250 M 16.425 28.550 C 15.358 34.238, 16.529 44.157, 18.792 48.592 C 23.431 57.685, 34.300 64.972, 43.250 64.990 L 48 65 48.035 59.750 C 48.055 56.862, 48.714 53.375, 49.500 52 C 52.475 46.796, 51.048 45.950, 41.500 47.257 C 35.609 48.064, 27.620 46.812, 26.436 44.897 C 26.155 44.441, 26.827 42.299, 27.931 40.136 L 29.937 36.203 27.680 32.851 C 26.438 31.008, 23.552 28.467, 21.265 27.205 L 17.108 24.910 16.425 28.550 M 113 30 C 113 30.550, 113.900 31, 115 31 C 116.100 31, 117 30.550, 117 30 C 117 29.450, 116.100 29, 115 29 C 113.900 29, 113 29.450, 113 30 M 41 32 C 37.062 35.938, 39.642 42, 45.257 42 C 48.636 42, 51 39.565, 51 36.084 C 51 30.628, 44.874 28.126, 41 32 M 93 45.493 L 93 48.987 95.425 46.879 C 98.107 44.547, 97.829 42, 94.893 42 C 93.397 42, 93 42.732, 93 45.493 M 100.170 43.750 C 98.418 47.157, 101.082 50.562, 104.196 48.895 C 106.262 47.789, 106.562 44.962, 104.800 43.200 C 103.092 41.492, 101.217 41.715, 100.170 43.750 M 109.200 43.200 C 106.658 45.742, 108.982 50.865, 111.868 49.082 C 112.827 48.489, 112.621 48.134, 111.085 47.732 C 108.323 47.010, 108.423 44.168, 111.250 43.031 C 112.630 42.476, 112.901 42.102, 111.950 42.063 C 111.098 42.029, 109.860 42.540, 109.200 43.200 M 116.616 44.775 C 114.569 48.735, 114.482 48.500, 118 48.500 C 119.650 48.500, 121 48.439, 121 48.365 C 121 48.290, 120.377 46.749, 119.616 44.939 L 118.233 41.649 116.616 44.775 M 122.660 42.769 C 123.298 43.174, 124.018 44.855, 124.260 46.503 L 124.700 49.500 124.850 46.333 C 124.933 44.592, 125.563 42.940, 126.250 42.662 C 126.938 42.385, 126.150 42.129, 124.500 42.094 C 122.850 42.059, 122.022 42.363, 122.660 42.769 M 129.180 43.642 C 127.108 47.346, 130.303 50.961, 133.550 48.587 C 134.814 47.663, 135.111 46.579, 134.628 44.656 C 133.866 41.618, 130.648 41.020, 129.180 43.642 M 137.690 43.366 C 137.310 44.355, 137.045 46.139, 137.100 47.332 C 137.190 49.305, 137.265 49.275, 137.923 47 L 138.647 44.500 139.391 46.750 C 140.258 49.372, 142 49.762, 142 47.333 C 142 46.417, 141.689 45.977, 141.310 46.357 C 140.930 46.737, 140.116 45.814, 139.500 44.308 C 138.533 41.942, 138.286 41.814, 137.690 43.366 M 142.602 42.836 C 142.317 43.295, 142.477 44.983, 142.957 46.586 C 143.823 49.481, 143.829 49.476, 143.914 45.750 C 143.999 42.053, 143.614 41.198, 142.602 42.836 M 94 44.500 C 94 45.325, 94.450 46, 95 46 C 95.550 46, 96 45.325, 96 44.500 C 96 43.675, 95.550 43, 95 43 C 94.450 43, 94 43.675, 94 44.500 M 100.676 44.403 C 100.380 45.174, 100.693 46.565, 101.371 47.493 C 102.491 49.025, 102.726 49.035, 103.914 47.603 C 105.449 45.754, 104.686 43, 102.638 43 C 101.855 43, 100.972 43.631, 100.676 44.403 M 130 45.427 C 130 47.362, 130.513 48, 132.070 48 C 133.641 48, 134.062 47.461, 133.820 45.760 C 133.345 42.436, 130 42.144, 130 45.427 M 117 46 C 117 46.550, 117.450 47, 118 47 C 118.550 47, 119 46.550, 119 46 C 119 45.450, 118.550 45, 118 45 C 117.450 45, 117 45.450, 117 46" stroke="none" fill="#ffffff" fill-rule="evenodd"/>
</svg>