<svg xmlns="http://www.w3.org/2000/svg" width="408" height="216" viewBox="0 0 408 216" version="1.1">
	<path d="M 19.166 22.750 C 17.926 35.263, 16.048 53.825, 14.994 64 C 13.939 74.175, 11.945 93.525, 10.563 107 C 9.181 120.475, 7.596 135.775, 7.042 141 C 6.488 146.225, 6.027 151.993, 6.017 153.819 L 6 157.137 47.750 156.789 C 94.108 156.403, 93.690 156.458, 104.849 149.320 C 115.962 142.211, 125.136 129.453, 128.011 117.110 C 129.530 110.589, 128.819 98.346, 126.552 92 C 122.562 80.828, 112.454 71.198, 102.147 68.749 L 97.274 67.592 101.542 64.764 C 109.244 59.663, 114.752 50.082, 116.824 38.184 C 118.794 26.867, 115.086 16.021, 106.559 8.161 C 97.722 0.016, 97.627 -0, 57.128 -0 L 21.422 -0 19.166 22.750 M 212.500 2.094 C 186.491 8.431, 163.059 29.198, 152.699 55.095 C 146.039 71.741, 144.826 93.146, 149.671 108.500 C 162.909 150.452, 208.912 168.507, 250.106 147.918 L 255.713 145.116 256.817 134.808 C 259.929 105.769, 260.331 100.998, 259.714 100.380 C 259.345 100.012, 256.073 102.918, 252.442 106.840 C 247.392 112.294, 244.051 114.854, 238.222 117.735 C 231.020 121.294, 230.082 121.500, 221.052 121.499 C 212.457 121.498, 210.915 121.202, 205.663 118.544 C 193.593 112.436, 186.191 100.623, 185.251 85.967 C 183.588 60.027, 202.080 36.878, 226.528 34.297 C 239.176 32.961, 251.822 39.285, 259.144 50.607 C 262.057 55.111, 263.644 56.756, 264.373 56.027 C 265.208 55.192, 269.787 19.734, 269.958 12.779 C 270.016 10.425, 255.299 3.382, 246.372 1.491 C 236.790 -0.539, 222.245 -0.280, 212.500 2.094 M 351.500 1.915 C 320.668 9.699, 295.537 34.486, 287.539 65 C 284.928 74.963, 284.371 93.941, 286.426 102.974 C 290.693 121.734, 302.519 138.167, 318.511 147.555 C 338.150 159.085, 365.694 159.260, 388.008 147.996 C 394.601 144.668, 393.770 147.480, 396.639 118.788 C 397.613 109.047, 398.069 100.736, 397.652 100.319 C 397.235 99.902, 395.704 101.122, 394.249 103.030 C 389.259 109.574, 383.492 114.267, 376 117.882 C 368.994 121.262, 367.874 121.500, 359 121.494 C 350.268 121.488, 349.005 121.230, 343.380 118.295 C 319.173 105.667, 316.025 71.081, 337.037 48.619 C 355.965 28.385, 384.339 29.547, 397.642 51.099 C 399.666 54.377, 401.811 56.896, 402.411 56.697 C 403.336 56.388, 407.721 22.392, 407.934 13.874 C 407.991 11.619, 407.019 10.732, 401.050 7.596 C 386.891 0.155, 367.345 -2.086, 351.500 1.915 M 56.575 26.250 C 56.097 27.900, 54 49.981, 54 53.362 L 54 56 63.750 55.996 C 74.829 55.992, 78.199 54.651, 81.810 48.807 C 86.366 41.436, 85.527 32.304, 79.857 27.533 C 77.077 25.194, 76.086 25, 66.892 25 C 59.788 25, 56.834 25.358, 56.575 26.250 M 49.959 90.250 C 49.437 93.410, 47.055 117.419, 47.032 119.750 L 47 123 61.684 123 C 79.193 123, 83.404 121.634, 87.416 114.654 C 92.302 106.154, 91.604 98.494, 85.451 93.091 L 81.930 90 65.965 90 C 57.184 90, 49.981 90.112, 49.959 90.250 M 373.674 172.162 C 372.753 172.678, 372 173.977, 372 175.050 C 372 177.225, 373.043 177.557, 374.693 175.907 C 375.483 175.117, 376.379 175.133, 377.930 175.963 C 380.497 177.336, 383.576 176.547, 384.440 174.295 C 385.284 172.097, 383.226 170.016, 382.066 171.894 C 381.409 172.956, 380.544 173.037, 378.282 172.248 C 376.428 171.602, 374.732 171.570, 373.674 172.162 M 3.600 179.838 C 2.974 180.852, 0.032 206.180, 0.011 210.750 C 0.001 212.836, 0.440 213, 6.032 213 C 16.349 213, 22 209.178, 22 202.202 C 22 199.957, 21.235 198.167, 19.684 196.786 L 17.368 194.723 19.684 192.407 C 22.683 189.408, 22.802 184.036, 19.927 181.434 C 17.542 179.276, 4.722 178.022, 3.600 179.838 M 35.379 180.437 C 30.945 182.366, 27.133 187.863, 25.791 194.262 C 24.798 198.997, 24.887 200.416, 26.434 204.465 C 28.891 210.900, 32.708 213.225, 40.045 212.756 C 49.513 212.152, 55.151 205.986, 55.818 195.511 C 56.290 188.097, 54.419 183.269, 50.080 180.706 C 46.641 178.675, 39.719 178.548, 35.379 180.437 M 64.569 181.250 C 64.311 182.488, 63.652 187.638, 63.104 192.695 C 62.025 202.665, 60.162 207.497, 57.011 208.497 C 54.856 209.180, 54.320 211.462, 56.060 212.537 C 56.644 212.898, 58.426 212.652, 60.022 211.991 C 64.131 210.289, 66.640 204.278, 68.052 192.750 L 69.247 183 74.269 183 L 79.290 183 78.638 190.250 C 76.511 213.912, 76.503 213, 78.852 213 C 80.033 213, 81.042 212.887, 81.093 212.750 C 81.591 211.405, 84.471 179.804, 84.126 179.460 C 83.874 179.207, 79.475 179, 74.352 179 C 65.499 179, 65.015 179.111, 64.569 181.250 M 91.480 180.250 C 91.052 181.418, 88.006 209.006, 88.002 211.750 C 88 213.088, 91.577 213.501, 92.338 212.250 C 92.590 211.838, 93.310 206.325, 93.940 200 C 95.770 181.627, 95.072 183, 102.579 183 C 108.333 183, 109 182.792, 109 181 C 109 179.156, 108.333 179, 100.469 179 C 94.554 179, 91.797 179.383, 91.480 180.250 M 116.028 181.750 C 112.005 190.308, 103 211.258, 103 212.059 C 103 212.577, 103.925 213, 105.055 213 C 106.584 213, 107.732 211.593, 109.542 207.500 L 111.975 202 117.449 202 L 122.923 202 124.011 206.250 C 125.688 212.804, 125.804 213, 127.969 213 C 130.734 213, 130.639 211.932, 126.304 194.250 C 122.666 179.411, 122.495 179, 119.943 179 C 118.063 179, 116.955 179.778, 116.028 181.750 M 144.500 180.417 C 136.891 183.814, 132.224 193.598, 134.141 202.132 C 135.940 210.139, 141.008 213.424, 150.618 212.812 C 157.499 212.373, 158.326 212.014, 157.489 209.832 C 157.060 208.715, 155.557 208.477, 151.006 208.806 C 145.473 209.206, 144.879 209.033, 142.040 206.194 C 139.413 203.567, 139.001 202.431, 139.004 197.827 C 139.011 187.848, 144.829 182.406, 154.622 183.219 C 158.695 183.556, 160.050 183.312, 160.493 182.159 C 160.809 181.334, 160.490 180.293, 159.784 179.845 C 157.767 178.566, 147.814 178.938, 144.500 180.417 M 165.666 179.750 C 165.418 180.162, 164.695 186.350, 164.060 193.500 C 163.426 200.650, 162.667 207.738, 162.374 209.251 C 161.804 212.189, 164.226 214.174, 166.097 212.303 C 166.777 211.623, 169.964 187.889, 169.998 183.250 C 170.003 182.604, 183.929 183.092, 184.264 183.750 C 184.475 184.162, 184.085 189.675, 183.399 196 C 181.562 212.925, 181.576 213.199, 184.250 212.820 C 186.375 212.518, 186.592 211.693, 188.157 198 C 189.069 190.025, 189.856 182.488, 189.907 181.250 C 189.998 179.037, 189.803 179, 178.059 179 C 171.491 179, 165.915 179.338, 165.666 179.750 M 196.557 181.250 C 195.352 186.889, 193.265 211.584, 193.934 212.291 C 194.346 212.726, 198.686 212.951, 203.580 212.791 C 211.122 212.544, 212.528 212.233, 212.812 210.750 C 213.105 209.216, 212.268 209, 206.023 209 L 198.900 209 199.200 203.250 L 199.500 197.500 205.991 197 C 211.138 196.604, 212.551 196.138, 212.814 194.750 C 213.104 193.224, 212.288 193, 206.448 193 L 199.750 193 200.375 189.875 C 200.719 188.156, 201 185.906, 201 184.875 C 201 183.220, 201.822 183, 208 183 C 214.333 183, 215 182.810, 215 181 C 215 179.148, 214.333 179, 206.019 179 C 197.515 179, 197.013 179.119, 196.557 181.250 M 220.949 179.750 C 220.921 180.162, 220.099 187.475, 219.122 196 C 218.145 204.525, 217.519 211.838, 217.732 212.250 C 217.944 212.662, 223.041 213, 229.059 213 C 238.118 213, 240 213.258, 240 214.500 C 240 216.978, 242.977 216.190, 244.025 213.435 C 245.361 209.919, 245.253 209, 243.500 209 C 241.648 209, 241.621 205.549, 243.359 190.728 C 244.054 184.803, 244.407 179.740, 244.144 179.478 C 243.882 179.215, 242.897 179, 241.957 179 C 240.213 179, 240.036 179.948, 237.416 203.250 L 236.770 209 229.885 209 L 223 209 223 205.961 C 223 202.300, 224.838 184.411, 225.539 181.250 C 225.954 179.380, 225.613 179, 223.519 179 C 222.134 179, 220.977 179.338, 220.949 179.750 M 257.748 181.047 C 246.715 186.937, 244.696 205.184, 254.420 211.114 C 256.474 212.367, 259.388 212.994, 263.168 212.996 C 270.091 213.001, 272 212.340, 272 209.940 C 272 208.314, 271.408 208.164, 267.034 208.682 C 255.304 210.072, 249.782 201.684, 254.943 190.316 C 257.457 184.780, 261.458 182.725, 268.865 183.165 C 273.945 183.467, 274.500 183.303, 274.500 181.500 C 274.500 179.729, 273.757 179.474, 268 179.272 C 263.089 179.100, 260.583 179.534, 257.748 181.047 M 278 181 C 278 182.713, 278.667 183, 282.648 183 L 287.296 183 286.655 190.750 C 286.302 195.012, 285.717 201.803, 285.354 205.840 C 284.696 213.168, 284.698 213.179, 287.097 212.840 C 289.423 212.511, 289.541 212.069, 290.788 199 C 291.497 191.575, 292.270 184.938, 292.507 184.250 C 292.774 183.473, 294.840 183, 297.969 183 C 302.333 183, 303 182.735, 303 181 C 303 179.107, 302.333 179, 290.500 179 C 278.667 179, 278 179.107, 278 181 M 306.102 181.139 C 305.166 183.446, 303 203.472, 303 209.809 C 303 212.309, 303.423 213, 304.955 213 C 306.923 213, 307.561 211.154, 308.236 203.507 C 308.480 200.745, 308.870 200.462, 313.313 199.831 C 319.409 198.966, 322.787 196.755, 324.584 192.454 C 326.568 187.706, 326.360 185.531, 323.621 182.345 C 321.522 179.906, 320.404 179.532, 314.150 179.178 C 307.457 178.800, 307.005 178.910, 306.102 181.139 M 336.984 180.856 C 335.068 181.876, 332.218 184.769, 330.650 187.285 C 325.216 196.004, 327.494 208.891, 335.020 212.008 C 339.213 213.745, 347.088 212.786, 350.895 210.075 C 360.232 203.426, 360.937 185.121, 352.033 180.517 C 348.044 178.454, 341.204 178.608, 336.984 180.856 M 364.564 182.250 C 363.834 186.749, 362 206.730, 362 210.174 C 362 212.445, 362.442 212.995, 364.250 212.976 C 366.462 212.953, 368.991 209.860, 381.359 192.055 L 385.217 186.500 384.640 190.500 C 384.322 192.700, 383.787 197.650, 383.451 201.500 C 383.114 205.350, 382.619 209.290, 382.351 210.255 C 381.809 212.201, 384.588 213.819, 386.006 212.383 C 386.778 211.601, 390 186.316, 390 181.043 C 390 179.588, 389.353 179.003, 387.750 179.010 C 386.023 179.018, 383.415 181.911, 376.530 191.457 C 371.596 198.296, 367.404 203.737, 367.214 203.547 C 367.023 203.357, 367.348 198.899, 367.934 193.640 C 369.441 180.122, 369.373 179, 367.045 179 C 365.615 179, 364.949 179.871, 364.564 182.250 M 7.667 183.667 C 7.300 184.033, 7 186.283, 7 188.667 C 7 192.935, 7.051 193, 10.427 193 C 12.939 193, 14.409 192.296, 15.927 190.365 C 18.414 187.204, 18.466 186.609, 16.429 184.571 C 14.865 183.008, 8.938 182.396, 7.667 183.667 M 36.230 184.551 C 29.788 189.064, 28.544 203.466, 34.251 207.463 C 39.325 211.018, 46.832 208.039, 49.621 201.364 C 52.323 194.898, 50.594 185.210, 46.455 183.621 C 43.550 182.507, 38.493 182.967, 36.230 184.551 M 310 184.860 C 310 185.884, 309.704 188.877, 309.343 191.513 L 308.686 196.305 313.083 195.716 C 323.287 194.347, 323.812 183, 313.671 183 C 310.758 183, 310 183.384, 310 184.860 M 338.881 184.503 C 333.599 187.374, 331.176 198.573, 334.463 204.928 C 337.858 211.494, 347.868 210.012, 351.476 202.410 C 353.996 197.098, 353.217 187.404, 350.065 184.851 C 347.364 182.664, 342.542 182.514, 338.881 184.503 M 116.245 191.789 C 115.010 194.974, 114 197.796, 114 198.062 C 114 198.328, 115.800 198.545, 118 198.545 C 120.200 198.545, 122 198.273, 122 197.940 C 122 195.848, 119.614 186, 119.107 186 C 118.767 186, 117.480 188.605, 116.245 191.789 M 5.989 199.250 C 5.983 200.488, 5.699 203.188, 5.358 205.250 L 4.738 209 8.869 209 C 11.667 209, 13.646 208.354, 15 207 C 19.329 202.671, 16.084 197, 9.277 197 C 6.549 197, 5.998 197.377, 5.989 199.250" stroke="none" fill="#ffffff" fill-rule="evenodd"/>
</svg>