<svg xmlns="http://www.w3.org/2000/svg" width="800" height="800" viewBox="0 0 800 800" version="1.1">
	<path d="M 102.500 341.818 C 88.970 345.829, 75.038 355.802, 72.874 363.026 C 70.639 370.487, 76.456 378, 84.468 378 C 88.038 378, 89.621 377.304, 93.641 373.965 C 105.161 364.400, 116.043 362.056, 129.244 366.296 C 137.653 368.997, 145.883 373.765, 149.019 377.751 C 151.410 380.791, 151.454 381.403, 149.429 383.429 C 148.204 384.653, 145.592 385, 137.603 385 C 128.260 385, 127.161 385.200, 125.241 387.250 C 120.965 391.814, 119.727 400.017, 122.361 406.322 C 124.940 412.495, 126.086 413, 137.500 413 C 145.582 413, 148.202 413.345, 149.429 414.571 C 151.749 416.892, 151.416 417.914, 146.948 422.164 C 142.080 426.795, 135.072 430.486, 127.307 432.508 C 114.117 435.944, 106.651 433.878, 91.102 422.489 C 81.901 415.750, 69.435 424.697, 72.995 435.485 C 74.486 440.004, 83.399 447.942, 91.352 451.835 C 114.892 463.359, 141.251 458.898, 159.821 440.248 C 177.835 422.157, 182.176 396.551, 171.143 373.472 C 164.471 359.516, 151.528 347.926, 137 342.896 C 128.077 339.807, 111.074 339.276, 102.500 341.818 M 212 359 C 210.762 360.238, 210 362.333, 210 364.500 C 210 366.667, 210.762 368.762, 212 370 C 213.824 371.824, 215.344 372.001, 229.250 372.014 C 237.637 372.021, 245.531 372.303, 246.790 372.641 C 249.948 373.487, 252 377.942, 252 383.950 L 252 389 237.655 389 C 224.388 389, 223.168 389.157, 221.424 391.084 C 218.935 393.834, 219.021 400.811, 221.567 402.673 C 222.875 403.629, 227.380 404, 237.691 404 L 252 404 252 411.944 C 252 418.896, 251.699 420.239, 249.590 422.694 L 247.180 425.500 230.007 426 C 214.491 426.452, 212.698 426.687, 211.417 428.441 C 209.349 431.274, 209.645 436.645, 212 439 C 213.841 440.841, 215.333 441, 230.822 441 C 250.917 441, 254.892 440.010, 260.878 433.517 C 266.880 427.005, 267.501 423.718, 267.493 398.500 C 267.485 374.210, 266.740 369.566, 261.906 363.702 C 257.248 358.052, 252.528 357, 231.822 357 C 215.333 357, 213.850 357.150, 212 359 M 283 382.694 C 279.239 384.038, 279 385.774, 279 411.691 C 279 435.667, 279.105 437.105, 281 439 C 283.764 441.764, 290.050 441.708, 292.595 438.895 C 294.112 437.220, 294.547 435.027, 294.729 428.145 C 294.855 423.390, 294.967 419.163, 294.979 418.750 C 294.990 418.337, 299.950 418, 306 418 L 317 418 317 427.277 C 317 438.557, 318.217 441, 323.834 441 C 325.881 441, 328.555 440.299, 329.777 439.443 C 331.976 437.903, 332 437.612, 332 412.134 C 332 382.433, 332.017 382.500, 324.500 382.500 C 317.983 382.500, 317 384.164, 317 395.191 L 317 404 306.099 404 L 295.199 404 294.849 394.911 C 294.537 386.788, 294.249 385.619, 292.139 383.911 C 289.865 382.070, 286.136 381.573, 283 382.694 M 358.222 383.470 C 352.155 385.364, 347.608 389.174, 345.134 394.437 C 343.292 398.356, 343 400.786, 343 412.173 C 343 427.505, 344.447 431.958, 350.872 436.411 C 356.457 440.281, 360.105 441, 374.171 441 C 386.799 441, 386.864 440.988, 389.006 438.266 C 390.580 436.264, 390.998 434.723, 390.565 432.516 C 389.627 427.737, 387.718 427, 376.277 427 C 364.838 427, 359.623 425.537, 358.505 422.016 C 358.127 420.824, 358.047 419.619, 358.328 419.339 C 358.750 418.917, 379.009 418.046, 389.250 418.010 C 394.136 417.992, 396 414.943, 396 406.968 C 396 390.702, 386.469 381.890, 369.068 382.067 C 365.456 382.104, 360.575 382.735, 358.222 383.470 M 408.553 384.357 L 406 386.909 406 425.300 C 406 460.610, 406.140 463.813, 407.750 465.227 C 410.625 467.751, 413.640 468.177, 417.427 466.595 L 421 465.102 421 453.051 L 421 441 432.821 441 C 443.734 441, 445.058 440.789, 450.066 438.250 C 454.095 436.207, 456.242 434.269, 458.411 430.715 C 461.030 426.424, 461.380 424.838, 461.801 415.360 C 462.589 397.648, 459.527 389.963, 449.595 384.721 C 445.961 382.803, 443.562 382.517, 428.303 382.182 L 411.105 381.804 408.553 384.357 M 474.513 384.396 L 472 386.909 472 411.955 C 472 435.667, 472.106 437.106, 474 439 C 476.673 441.673, 483.048 441.710, 485.441 439.066 C 486.972 437.373, 487.211 434.650, 487.346 417.316 L 487.500 397.500 502.333 397 C 515.530 396.555, 517.323 396.286, 518.583 394.559 C 520.402 392.066, 520.402 386.933, 518.582 384.441 C 517.275 382.650, 515.610 382.476, 497.095 382.192 L 477.025 381.884 474.513 384.396 M 541 382.870 C 533.143 384.604, 527.348 389.578, 524.855 396.725 C 524.051 399.031, 523.534 405.187, 523.528 412.545 C 523.520 423.498, 523.749 425.038, 526.064 429.536 C 527.864 433.033, 530.025 435.358, 533.444 437.471 C 537.845 440.192, 539.218 440.495, 548.772 440.848 C 560.408 441.279, 565.643 440.207, 570.759 436.345 C 576.214 432.227, 578.262 426.903, 578.784 415.489 C 579.587 397.893, 576.396 389.793, 566.712 384.853 C 562.326 382.615, 547.375 381.462, 541 382.870 M 588.235 383.037 C 585.504 384.134, 583.769 388.231, 584.613 391.593 C 585.627 395.633, 588.687 397, 596.723 397 L 604 397 604 417.345 C 604 435.785, 604.171 437.845, 605.829 439.345 C 608.131 441.429, 612.876 441.476, 615.777 439.443 C 617.951 437.921, 618 437.435, 618 417.443 L 618 397 625.277 397 C 633.515 397, 636.461 395.601, 637.284 391.297 C 637.963 387.744, 635.721 383.426, 632.790 382.641 C 629.201 381.679, 590.764 382.021, 588.235 383.037 M 645.568 384.341 C 642.425 387.484, 642.175 392.175, 645 395 C 646.765 396.765, 648.333 397, 658.365 397 C 668.349 397, 670.051 397.252, 672.365 399.073 C 673.814 400.212, 675 402.012, 675 403.073 C 675 404.843, 674.206 405.001, 665.250 405.015 C 652.980 405.033, 650.609 406.069, 650.201 411.591 C 649.941 415.113, 650.238 415.787, 652.498 416.817 C 653.947 417.477, 659.542 418, 665.155 418 L 675.217 418 674.543 420.750 C 673.264 425.967, 671.945 426.461, 657.882 427 C 646.457 427.438, 644.657 427.742, 643.417 429.441 C 641.409 432.193, 641.659 435.297, 644.144 438.456 L 646.288 441.181 660.394 440.841 C 677.061 440.438, 682.210 438.658, 686.816 431.707 C 689.342 427.894, 689.520 426.857, 689.833 414.078 C 690.198 399.162, 689.386 394.800, 685.348 390.001 C 680.375 384.092, 675.972 382.661, 661.318 382.193 C 648.245 381.776, 648.116 381.793, 645.568 384.341 M 704.500 383.145 C 703.400 383.796, 702.169 384.818, 701.765 385.415 C 701.361 386.012, 701.024 397.863, 701.015 411.750 C 701.001 435.678, 701.105 437.105, 703 439 C 704.238 440.238, 706.333 441, 708.500 441 C 714.706 441, 716 438.584, 716 427 L 716 417 722.365 417 C 731.105 417, 733.096 418.725, 736.521 429.261 C 739.421 438.183, 741.690 441, 745.976 441 C 749.247 441, 754.002 437.548, 753.995 435.177 C 753.982 430.763, 746.018 412.030, 744.135 411.985 C 743.786 411.976, 742.865 411.567, 742.088 411.076 C 740.950 410.355, 741.197 409.729, 743.363 407.841 C 746.183 405.384, 752 392.392, 752 388.551 C 752 381.586, 739.657 380.156, 737.186 386.836 C 732.367 399.864, 731.804 400.865, 728.393 402.484 C 726.404 403.427, 723.180 403.984, 720.730 403.807 L 716.500 403.500 716 394.295 C 715.725 389.233, 715.011 384.604, 714.414 384.009 C 712.743 382.345, 706.735 381.821, 704.500 383.145 M 54.107 391.115 C 51.682 393.718, 50.562 399.719, 51.863 403.140 C 54.072 408.949, 54.295 409, 77.490 409 C 89.230 409, 99.565 408.720, 100.455 408.379 C 102.681 407.525, 105 402.739, 105 399 C 105 395.261, 102.681 390.475, 100.455 389.621 C 99.565 389.280, 89.216 389, 77.457 389 C 56.978 389, 55.995 389.089, 54.107 391.115 M 544.008 396.893 C 540.182 397.958, 539.031 401.466, 539.015 412.115 C 539.002 420.342, 539.299 422.111, 541.073 424.365 C 542.993 426.807, 543.714 427, 550.898 427 C 557.801 427, 558.900 426.735, 560.919 424.586 C 562.986 422.386, 563.178 421.273, 563.083 412.001 C 562.970 400.921, 562.181 398.400, 558.374 396.952 C 555.550 395.879, 547.768 395.846, 544.008 396.893 M 362.364 398.170 C 360.188 399.223, 358 402.923, 358 405.547 C 358 406.733, 360.110 407, 369.500 407 C 380.180 407, 381 406.863, 381 405.077 C 381 404.019, 379.835 401.769, 378.411 400.077 C 376.064 397.287, 375.294 397.006, 370.161 397.068 C 367.047 397.105, 363.539 397.601, 362.364 398.170 M 421 412 L 421 427 430.050 427 C 439.457 427, 444.171 425.602, 445.379 422.455 C 445.720 421.565, 446 416.406, 446 410.991 C 446 401.545, 445.893 401.061, 443.365 399.073 C 441.104 397.294, 439.331 397, 430.865 397 L 421 397 421 412" stroke="none" fill="#ffffff" fill-rule="evenodd"/>
</svg>