<svg xmlns="http://www.w3.org/2000/svg" width="640" height="598" viewBox="0 0 640 598" version="1.1">
	<path d="M 309.500 42.103 C 287.264 43.980, 268.282 49.322, 247.500 59.549 C 232.300 67.029, 224.947 71.555, 213.123 80.707 C 204.037 87.739, 188.568 102.746, 180.865 112 C 169.031 126.219, 154.410 151.827, 147.465 170.500 C 143.753 180.484, 137.486 203.819, 138.300 204.633 C 139.702 206.036, 148.928 206.349, 199.500 206.709 L 255.500 207.107 258.494 201.804 C 260.141 198.887, 261.627 196.204, 261.797 195.842 C 261.966 195.481, 259.986 192.799, 257.397 189.884 C 239.616 169.864, 234.041 151.963, 238.436 129 C 240.174 119.917, 240.303 119.540, 245.115 109.500 C 251.154 96.900, 262.645 86.150, 278.500 78.270 C 291.618 71.749, 302.518 69.587, 321.500 69.739 C 347.862 69.950, 369.168 74.216, 384 82.254 C 415.972 99.579, 434.792 123.337, 444.114 158.139 C 447.192 169.630, 447.965 199.002, 445.189 198.999 C 444.293 198.999, 422.211 172.843, 386.725 129.750 C 384.574 127.138, 382.473 125, 382.056 125 C 380.850 125, 367.075 147.759, 359.460 162.331 C 357.832 165.446, 356.258 167.996, 355.962 167.998 C 354.320 168.005, 335.729 150.448, 324.500 138.285 C 317.350 130.541, 311.050 124.166, 310.500 124.119 C 307.609 123.873, 296.631 142.875, 279.372 178 C 262.805 211.718, 255.195 226.947, 254.493 227.791 C 254.360 227.951, 249.132 227.198, 242.875 226.117 C 213.210 220.992, 199.017 220.942, 182.875 225.905 C 177.719 227.490, 171.534 229.771, 169.131 230.974 C 159.635 235.728, 142.190 250.651, 139.147 256.624 C 136.856 261.119, 143.108 284.960, 153.013 309.500 C 158.587 323.311, 165.969 336, 168.429 336 C 169.033 336, 171.442 333.547, 173.784 330.548 C 180.277 322.235, 194.592 309.537, 203.524 304.167 C 214.392 297.635, 224.223 294.054, 235.798 292.414 C 262.456 288.636, 278.411 291.536, 335.500 310.536 C 381.125 325.721, 396.120 328.555, 426.668 327.766 C 452.016 327.111, 469.733 322.583, 486.299 312.525 C 507.776 299.487, 518.650 281.380, 522.462 252.308 C 526.128 224.355, 522.155 184.592, 513.363 161.232 C 500.356 126.675, 474.056 94.818, 441 73.578 C 438.525 71.988, 435.375 69.941, 434 69.030 C 427.475 64.704, 407.573 55.860, 394.500 51.476 C 371.485 43.759, 336.099 39.857, 309.500 42.103 M 323.750 227.402 C 318.938 237.069, 315 245.233, 315 245.544 C 315 246.543, 325.251 250.684, 335.523 253.834 C 356.847 260.373, 382.144 261.679, 397.211 257.019 C 403.224 255.160, 418 247.570, 418 246.341 C 418 245.246, 390.055 216, 389.009 216 C 388.669 216, 385.595 221.287, 382.178 227.750 C 376.797 237.925, 372.599 245.368, 369.066 251 C 368.454 251.975, 367.814 252.150, 367.238 251.500 C 366.751 250.950, 360.476 243.300, 353.295 234.500 C 346.114 225.700, 338.497 216.548, 336.369 214.163 L 332.500 209.826 323.750 227.402 M 504.099 314.113 C 499.663 319.684, 485.719 330.620, 476.892 335.451 C 467.827 340.411, 453.394 345.725, 442.683 348.044 C 433.570 350.018, 430.662 350.188, 415 349.663 C 399.400 349.141, 396.035 348.700, 384 345.602 C 376.575 343.691, 364.650 340.011, 357.500 337.424 C 321.478 324.392, 308.884 320.585, 294.781 318.467 C 282.354 316.601, 265.645 316.590, 255.965 318.442 C 228.656 323.668, 209.852 333.627, 193.027 351.777 L 185.009 360.425 188.755 364.284 C 194.280 369.978, 204.285 377.939, 214.732 384.955 C 225.067 391.896, 249.337 404.547, 258.500 407.770 C 261.800 408.931, 266.525 410.624, 269 411.533 C 277.839 414.780, 290.665 418.220, 300.919 420.095 C 314.019 422.490, 340.095 422.675, 355.803 420.484 C 387.859 416.013, 420.094 403.811, 444 387.099 C 467.065 370.975, 482.206 355.470, 494.874 335 C 500.305 326.224, 509.132 309.799, 508.668 309.334 C 508.434 309.100, 506.378 311.251, 504.099 314.113 M 124.705 483.750 C 124.385 493.512, 123.560 504.345, 122.872 507.822 C 121.772 513.378, 121.162 514.467, 117.832 516.822 L 114.043 519.500 114.021 535.294 L 114 551.088 121.250 550.794 L 128.500 550.500 128.794 543.250 L 129.088 536 147.544 536 L 166 536 166 543.500 L 166 551 173.500 551 L 181 551 181 535.500 L 181 520 178 520 L 175 520 175 493 L 175 466 150.143 466 L 125.287 466 124.705 483.750 M 188 501 L 188 536 197 536 L 206 536 206.152 523.750 C 206.236 517.013, 206.349 510.825, 206.402 510 C 206.481 508.797, 208.431 508.443, 216.250 508.214 L 226 507.928 226 521.964 L 226 536 235.500 536 L 245 536 245 501 L 245 466 235.497 466 L 225.994 466 226.138 468.750 C 226.217 470.262, 226.219 475.663, 226.141 480.750 L 226 490 216.607 490 C 208.964 490, 207.101 489.705, 206.607 488.418 C 206.273 487.548, 206 482.148, 206 476.418 L 206 466 197 466 L 188 466 188 501 M 257 501.039 L 257 536.078 265.632 535.789 L 274.264 535.500 281.607 523 C 285.645 516.125, 290.424 507.818, 292.225 504.539 L 295.500 498.578 295.772 517.289 L 296.044 536 304.522 536 L 313 536 313 501 L 313 466 304.750 466.032 L 296.500 466.063 293.951 470.282 C 292.549 472.602, 287.599 481.203, 282.951 489.397 L 274.500 504.293 274.228 485.147 L 273.957 466 265.478 466 L 257 466 257 501.039 M 326 501 L 326 536 334.401 536 L 342.802 536 352.999 518.250 C 358.608 508.488, 363.602 500.072, 364.098 499.550 C 364.636 498.984, 365 506.155, 365 517.300 L 365 536 373.500 536 L 382 536 382 500.961 L 382 465.922 373.376 466.211 L 364.752 466.500 360.734 473.500 C 358.525 477.350, 353.743 485.675, 350.109 492 L 343.500 503.500 343.228 484.750 L 342.956 466 334.478 466 L 326 466 326 501 M 394 501 L 394 536 401.500 536 L 409 536 409.103 510.750 L 409.206 485.500 411.083 493.500 C 414.397 507.619, 415.872 514.264, 418.132 525.250 L 420.343 536 427.089 536 L 433.836 536 435.881 526.750 C 437.007 521.663, 439.406 510.525, 441.214 502 L 444.500 486.500 444.767 511.250 L 445.035 536 452.517 536 L 460 536 460 501 L 460 466 448.238 466 L 436.476 466 432.053 486.482 C 429.620 497.746, 427.480 506.814, 427.298 506.631 C 427.116 506.449, 425.170 498.245, 422.975 488.400 C 420.780 478.555, 418.754 469.488, 418.473 468.250 C 417.978 466.070, 417.588 466, 405.981 466 L 394 466 394 501 M 495.816 468.619 C 495.549 470.834, 494.651 471.503, 490 472.948 C 479.582 476.186, 476.091 478.895, 471.897 487 C 469.990 490.685, 469.571 493.039, 469.581 500 C 469.593 507.475, 469.944 509.141, 472.494 513.819 C 476.284 520.773, 480.762 524.584, 487.414 526.518 C 492.247 527.923, 492.988 528.512, 494.417 532.085 L 496.016 536.081 504.225 535.790 L 512.434 535.500 512.587 532.500 C 512.671 530.850, 512.798 529.220, 512.870 528.878 C 512.941 528.536, 514.841 527.961, 517.092 527.601 C 521.833 526.843, 528.473 523.709, 531.847 520.637 C 536.040 516.820, 538.299 511.036, 538.787 502.873 C 539.615 489.021, 534.799 480.185, 523.509 474.844 C 520.204 473.281, 516.992 472.001, 516.371 472.001 C 515.751 472, 514.683 470.650, 514 469 C 512.760 466.007, 512.738 466, 504.445 466 C 496.225 466, 496.129 466.029, 495.816 468.619 M 141.538 491.208 C 141.165 495.769, 140.216 503.658, 139.430 508.739 C 138.643 513.821, 138 518.433, 138 518.989 C 138 519.595, 141.603 520, 147 520 L 156 520 156.125 503.500 C 156.194 494.425, 156.306 486.212, 156.375 485.250 C 156.481 483.760, 155.440 483.457, 149.358 483.208 L 142.216 482.917 141.538 491.208 M 492.281 487.508 C 484.843 495.691, 485.467 507.344, 493.629 512.689 L 495.758 514.083 495.265 500.792 C 494.994 493.481, 494.486 487.200, 494.136 486.834 C 493.786 486.467, 492.952 486.770, 492.281 487.508 M 513.209 497.250 C 513.622 503.438, 514.082 509.555, 514.230 510.845 L 514.500 513.190 516.792 511.191 C 519.422 508.898, 521 504.210, 521 498.691 C 521 494.509, 519.844 491.701, 516.701 488.250 C 512.870 484.044, 512.406 485.240, 513.209 497.250" stroke="none" fill="#ffffff" fill-rule="evenodd"/>
</svg>