<svg xmlns="http://www.w3.org/2000/svg" width="800" height="390" viewBox="0 0 800 390" version="1.1">
	<path d="M 365.500 125.595 C 352.850 129.694, 336.745 134.878, 329.712 137.116 C 317.839 140.894, 316.971 141.340, 317.574 143.343 C 317.932 144.529, 318.512 145.773, 318.862 146.107 C 319.213 146.441, 334.993 141.757, 353.928 135.697 C 387.630 124.913, 388.453 124.706, 392.928 125.885 C 397.047 126.969, 421.805 134.809, 448.500 143.482 C 454 145.269, 458.787 146.454, 459.138 146.116 C 459.488 145.777, 460.067 144.532, 460.424 143.348 C 461.003 141.427, 460.401 140.984, 454.786 139.203 C 443.589 135.651, 403.686 122.939, 397 120.793 C 393.425 119.646, 390.050 118.581, 389.500 118.426 C 388.950 118.271, 378.150 121.497, 365.500 125.595 M 337.971 148.193 C 337.955 148.912, 337.944 162.775, 337.947 179 L 337.951 208.500 342.475 208.805 L 347 209.110 347 196.055 L 347 183 352.470 183 L 357.940 183 358.220 195.750 L 358.500 208.500 363.265 208.805 L 368.029 209.111 367.765 178.305 L 367.500 147.500 363 147.500 L 358.500 147.500 358.221 160.801 L 357.941 174.102 352.721 173.801 L 347.500 173.500 347 160.500 L 346.500 147.500 342.250 147.193 C 339.271 146.977, 337.991 147.276, 337.971 148.193 M 375.500 147.833 C 375.225 148.108, 375 161.983, 375 178.667 L 375 209 379.953 209 C 384.694 209, 384.944 208.861, 385.787 205.750 C 386.272 203.963, 388.880 194.400, 391.584 184.500 L 396.500 166.500 396.770 187.807 L 397.040 209.113 401.270 208.807 L 405.500 208.500 405.500 178 L 405.500 147.500 400.155 147.500 C 397.216 147.500, 394.391 147.759, 393.879 148.075 C 393.366 148.392, 391.394 154.467, 389.496 161.575 C 383.967 182.282, 384.181 182.175, 384.086 164.269 C 384.001 148.270, 383.968 148.032, 381.750 147.583 C 379.040 147.034, 376.184 147.149, 375.500 147.833 M 413.235 147.834 C 412.251 148.458, 412.029 155.288, 412.235 178.568 L 412.500 208.500 417.500 208.500 L 422.500 208.500 428 188.154 L 433.500 167.809 434 188.154 L 434.500 208.500 438.750 208.807 L 443 209.115 443 178.617 C 443 161.842, 442.663 147.936, 442.250 147.714 C 441.837 147.492, 439.051 147.578, 436.057 147.905 L 430.614 148.500 426.364 164.360 C 424.026 173.083, 421.863 180.470, 421.557 180.777 C 421.251 181.083, 421 173.886, 421 164.783 C 421 148.466, 420.968 148.225, 418.750 147.630 C 415.776 146.833, 414.751 146.871, 413.235 147.834 M 455.524 163.050 C 449.563 164.849, 449.047 166.659, 449.022 185.827 L 449 203.154 451.923 206.077 C 454.213 208.367, 455.743 209, 458.989 209 C 461.267 209, 463.997 208.537, 465.055 207.970 C 467.936 206.429, 470 201.662, 470 196.550 C 470 192.030, 469.977 192, 466.555 192 C 463.166 192, 463.105 192.076, 462.805 196.648 C 462.455 201.986, 460.236 204.271, 457.559 202.049 C 456.184 200.908, 455.990 198.451, 456.225 185.107 L 456.500 169.500 459.500 169.500 C 462.315 169.500, 462.519 169.763, 462.807 173.750 C 463.108 177.899, 463.200 178, 466.685 178 L 470.254 178 469.765 172.911 C 468.994 164.878, 463.066 160.773, 455.524 163.050 M 529.255 163.107 C 523.220 164.869, 522.500 167.341, 522.500 186.286 L 522.500 203.162 525.766 206.081 C 530.404 210.227, 536.929 210.225, 541.077 206.077 L 544 203.154 544 186.093 L 544 169.032 541.250 166.088 C 538.131 162.749, 534 161.722, 529.255 163.107 M 221.008 163.750 C 221.013 164.162, 223.283 171.925, 226.053 181 C 228.882 190.268, 230.849 198.457, 230.542 199.684 C 230.175 201.148, 229.090 201.972, 227.248 202.184 C 224.932 202.450, 224.500 202.971, 224.500 205.500 C 224.500 208.060, 224.921 208.548, 227.371 208.828 C 235.430 209.749, 236.876 207.480, 243.540 183.445 C 246.124 174.125, 248.463 165.713, 248.736 164.750 C 249.142 163.320, 248.588 163, 245.711 163 L 242.189 163 239.121 175.639 C 237.435 182.591, 235.858 188.475, 235.619 188.715 C 235.379 188.955, 234.952 188.329, 234.670 187.325 C 234.389 186.321, 232.700 180.438, 230.918 174.250 L 227.678 163 224.339 163 C 222.503 163, 221.004 163.338, 221.008 163.750 M 253 185.957 L 253 209.127 256.250 208.813 L 259.500 208.500 259.789 199.750 L 260.078 191 264.365 191 C 267.680 191, 269.201 190.415, 271.076 188.419 C 273.266 186.088, 273.500 184.981, 273.500 176.947 C 273.500 165.004, 272.283 163.664, 260.979 163.151 L 253 162.788 253 185.957 M 282.553 165.250 C 281.564 169.834, 275.997 205.564, 275.999 207.316 C 276 208.705, 276.643 209.058, 278.732 208.816 C 281.365 208.511, 281.894 207.691, 283.605 201.250 C 283.800 200.516, 285.576 200, 287.910 200 C 291.786 200, 291.903 200.103, 292.717 204.250 C 293.473 208.099, 293.856 208.530, 296.776 208.813 C 300.822 209.207, 300.814 210.054, 296.988 186.244 C 292.836 160.411, 293.837 163, 288 163 C 283.665 163, 282.977 163.284, 282.553 165.250 M 309 181.378 C 309 200.703, 308.759 201.781, 304.300 202.421 C 301.883 202.768, 301.246 207.773, 303.508 208.641 C 304.411 208.988, 306.951 208.732, 309.153 208.072 C 315.146 206.277, 316 203.342, 316 184.532 L 316 169 319.979 169 L 323.958 169 324.229 188.750 L 324.500 208.500 327.750 208.813 L 331 209.127 331 186.063 L 331 163 320 163 L 309 163 309 181.378 M 473 166 C 473 168.758, 473.280 169, 476.479 169 L 479.958 169 480.229 188.750 L 480.500 208.500 483.729 208.812 L 486.957 209.124 487.229 189.312 L 487.500 169.500 491.250 169.190 C 494.663 168.907, 495 168.615, 495 165.940 L 495 163 484 163 L 473 163 473 166 M 498.231 185.750 L 498.500 208.500 501.710 208.810 L 504.920 209.121 505.210 200.310 L 505.500 191.500 510.388 190.939 C 516.134 190.279, 518.493 187.960, 519.504 181.978 C 520.312 177.195, 519.337 169.135, 517.682 166.913 C 515.532 164.027, 512.215 163, 505.047 163 L 497.962 163 498.231 185.750 M 549 186 L 549 209 552 209 L 555 209 555.079 194.250 C 555.122 186.137, 555.377 180.040, 555.645 180.699 C 555.914 181.359, 557.129 187.884, 558.345 195.199 L 560.558 208.500 563.651 208.804 C 565.513 208.987, 566.944 208.588, 567.244 207.804 C 567.519 207.087, 568.546 200.757, 569.526 193.738 C 570.507 186.719, 571.565 181.232, 571.878 181.544 C 572.190 181.857, 572.458 188.050, 572.473 195.306 L 572.500 208.500 575.750 208.813 L 579 209.127 579 186.063 L 579 163 574.125 163 L 569.251 163 567.674 173.250 C 566.806 178.887, 565.785 185.915, 565.404 188.868 C 564.545 195.525, 563.620 194.020, 562.106 183.500 C 561.473 179.100, 560.469 172.688, 559.875 169.250 L 558.795 163 553.897 163 L 549 163 549 186 M 260 177 C 260 184.681, 260.092 185, 262.300 185 C 265.888 185, 267 183.068, 267 176.835 C 267 172.159, 266.635 170.875, 265.066 170.035 C 260.607 167.649, 260 168.483, 260 177 M 505.667 169.667 C 505.300 170.033, 505 173.633, 505 177.667 L 505 185 507.965 185 C 509.942 185, 511.300 184.309, 512.041 182.924 C 513.451 180.290, 512.583 170.985, 510.823 169.870 C 509.224 168.856, 506.582 168.752, 505.667 169.667 M 530.319 170.250 C 529.289 171.863, 528.590 194.003, 529.429 198.471 C 530.138 202.255, 533.135 203.963, 535.548 201.960 C 536.693 201.010, 537 197.737, 537 186.459 C 537 178.597, 536.727 171.452, 536.393 170.582 C 535.671 168.701, 531.456 168.471, 530.319 170.250 M 286.069 181.212 C 285.415 185.770, 284.674 190.512, 284.421 191.750 C 284.012 193.756, 284.357 194, 287.609 194 L 291.256 194 290.546 189.750 C 290.156 187.412, 289.451 182.865, 288.979 179.644 C 288.508 176.424, 287.927 173.594, 287.689 173.356 C 287.451 173.118, 286.722 176.653, 286.069 181.212 M 221 217.997 C 221 219.993, 221.585 220, 400.573 220 C 571.057 220, 580.130 219.911, 579.810 218.250 C 579.490 216.592, 570.027 216.487, 400.236 216.247 C 221.501 215.995, 221 216, 221 217.997 M 214 224.997 C 214 226.994, 214.585 227, 400.573 227 C 577.724 227, 587.130 226.912, 586.810 225.250 C 586.490 223.592, 576.694 223.487, 400.236 223.247 C 214.501 222.995, 214 223, 214 224.997 M 207 232.505 L 207 235.005 400.250 234.753 C 592.749 234.501, 593.500 234.492, 593.500 232.500 C 593.500 230.508, 592.751 230.499, 400.250 230.253 L 207 230.006 207 232.505 M 309.267 244.250 C 306.178 248.198, 308.093 254, 312.485 254 C 315.257 254, 318 251.588, 318 249.151 C 318 244.529, 311.780 241.038, 309.267 244.250 M 411.039 244.928 C 409.573 247.666, 410.793 250, 413.690 250 C 415.236 250, 416.003 250.470, 415.732 251.250 C 415.493 251.938, 414.331 252.464, 413.149 252.421 C 411.967 252.377, 411 252.744, 411 253.237 C 411 253.730, 412.221 253.990, 413.714 253.816 C 415.869 253.565, 416.563 252.837, 417.081 250.283 C 418.208 244.727, 413.418 240.482, 411.039 244.928 M 422.667 243.667 C 422.300 244.033, 422 245.378, 422 246.655 C 422 248.455, 422.496 248.923, 424.209 248.738 C 425.634 248.585, 426.548 249.123, 426.783 250.253 C 427.221 252.355, 424.128 253.825, 423.024 252.039 C 422.471 251.144, 422.053 251.105, 421.562 251.900 C 420.750 253.214, 423.119 254.316, 425.692 253.821 C 426.947 253.579, 427.500 252.574, 427.500 250.531 C 427.500 248.249, 426.940 247.432, 425 246.884 L 422.500 246.178 424.750 245.472 C 425.988 245.084, 427 244.369, 427 243.883 C 427 242.854, 423.647 242.687, 422.667 243.667 M 432.500 244 C 432.149 244.568, 432.998 245, 434.467 245 C 437.007 245, 437.025 245.051, 435.526 247.950 C 434.687 249.573, 434.028 251.711, 434.061 252.700 C 434.095 253.690, 435.156 252.250, 436.419 249.500 C 437.682 246.750, 438.528 244.162, 438.299 243.750 C 437.685 242.645, 433.218 242.837, 432.500 244 M 402.250 244.720 C 401.563 244.966, 401 245.606, 401 246.142 C 401 246.679, 401.450 246.840, 402 246.500 C 402.606 246.125, 403 247.545, 403 250.108 C 403 252.432, 403.307 254.027, 403.682 253.652 C 404.380 252.953, 404.545 245.168, 403.873 244.593 C 403.668 244.418, 402.938 244.475, 402.250 244.720 M 309.667 245.667 C 308.580 246.753, 308.906 250.506, 310.200 251.800 C 313.275 254.875, 317.335 250.921, 315.639 246.502 C 315.061 244.996, 310.917 244.416, 309.667 245.667 M 412 247 C 412 248.506, 412.522 249.046, 413.750 248.810 C 414.712 248.624, 415.500 247.810, 415.500 247 C 415.500 246.190, 414.712 245.376, 413.750 245.190 C 412.522 244.954, 412 245.494, 412 247 M 323.170 246.860 C 322.416 247.345, 321.983 248.970, 322.170 250.609 C 322.432 252.908, 322.994 253.500, 324.917 253.500 C 326.246 253.500, 327.557 252.825, 327.829 252 C 328.250 250.729, 328.078 250.704, 326.706 251.836 C 324.754 253.447, 323 252.578, 323 250 C 323 247.422, 324.754 246.553, 326.706 248.164 C 328.078 249.296, 328.250 249.271, 327.830 248 C 327.239 246.212, 325.018 245.668, 323.170 246.860 M 332.232 250 C 332.232 252.475, 332.438 253.713, 332.689 252.750 C 332.941 251.787, 333.981 251, 335 251 C 336.019 251, 337.059 251.787, 337.311 252.750 C 337.562 253.713, 337.792 252.475, 337.821 250 C 337.863 246.379, 337.698 245.936, 336.975 247.733 C 335.972 250.227, 333.394 249.887, 332.673 247.165 C 332.430 246.249, 332.232 247.525, 332.232 250 M 343.032 247.939 C 340.539 252.598, 346.589 256.223, 349.393 251.750 C 350.189 250.480, 350.189 249.520, 349.393 248.250 C 347.773 245.666, 344.339 245.498, 343.032 247.939 M 354 249.934 C 354 253.790, 354.156 254, 357.017 254 C 359.887 254, 360.020 253.817, 359.752 250.250 C 359.506 246.992, 359.110 246.458, 356.734 246.184 C 354.152 245.885, 354 246.093, 354 249.934 M 365 247.081 C 363.813 247.912, 363.952 248.005, 365.666 247.525 C 368.768 246.657, 369.407 248.493, 366.469 249.832 C 362.688 251.555, 363.293 254, 367.500 254 C 371.283 254, 371.727 253.044, 370.025 248.565 C 368.986 245.834, 367.435 245.376, 365 247.081 M 375.032 249.809 C 375.012 252.480, 375.386 253.879, 376.016 253.490 C 376.575 253.144, 376.774 252.443, 376.457 251.931 C 376.141 251.419, 376.809 251, 377.941 251 C 379.196 251, 380 251.651, 380 252.667 C 380 255.446, 381.374 253.155, 381.617 249.971 C 381.742 248.337, 381.429 247, 380.922 247 C 380.415 247, 380 247.450, 380 248 C 380 249.603, 377.837 249.154, 376.392 247.250 C 375.221 245.708, 375.060 246.012, 375.032 249.809 M 387.681 246.750 C 387.441 247.162, 387.325 248.850, 387.423 250.500 C 387.580 253.114, 387.982 253.500, 390.551 253.500 C 393.027 253.500, 393.502 253.099, 393.513 251 C 393.520 249.625, 393.127 247.938, 392.640 247.250 C 391.673 245.883, 388.379 245.551, 387.681 246.750 M 445.667 246.667 C 444.572 247.761, 444.889 254.187, 446.004 253.498 C 446.556 253.157, 446.743 251.824, 446.420 250.535 C 446.006 248.889, 446.377 247.877, 447.666 247.127 C 449.167 246.255, 449.212 246.055, 447.917 246.030 C 447.046 246.014, 446.033 246.300, 445.667 246.667 M 452.832 248.470 C 451.971 250.359, 452.005 251.301, 452.975 252.470 C 455.969 256.078, 460.621 252.772, 458.914 248.250 C 457.762 245.198, 454.265 245.325, 452.832 248.470 M 464.667 246.667 C 464.300 247.033, 464 248.357, 464 249.608 C 464 250.859, 463.550 252.160, 463 252.500 C 462.450 252.840, 462 253.856, 462 254.759 C 462 256.035, 462.267 256.133, 463.200 255.200 C 464.761 253.639, 468.239 253.665, 469.947 255.250 C 471.049 256.273, 471.177 256.167, 470.647 254.668 C 470.291 253.661, 470 251.298, 470 249.418 C 470 246.504, 469.656 246, 467.667 246 C 466.383 246, 465.033 246.300, 464.667 246.667 M 344.394 248.417 C 343.566 250.574, 344.717 253.261, 346.251 252.750 C 346.938 252.521, 347.500 251.283, 347.500 250 C 347.500 247.259, 345.273 246.124, 344.394 248.417 M 355.553 247.915 C 355.231 248.436, 355.394 249.125, 355.915 249.447 C 356.436 249.769, 357.125 249.606, 357.447 249.085 C 357.769 248.564, 357.606 247.875, 357.085 247.553 C 356.564 247.231, 355.875 247.394, 355.553 247.915 M 389.500 248 C 389.160 248.550, 389.610 249, 390.500 249 C 391.390 249, 391.840 248.550, 391.500 248 C 391.160 247.450, 390.710 247, 390.500 247 C 390.290 247, 389.840 247.450, 389.500 248 M 454.688 247.646 C 454.309 248.024, 454 249.416, 454 250.740 C 454 252.494, 454.475 253.055, 455.750 252.810 C 456.838 252.600, 457.500 251.563, 457.500 250.070 C 457.500 247.664, 455.980 246.354, 454.688 247.646 M 465.667 247.667 C 465.300 248.033, 465 249.416, 465 250.740 C 465 252.494, 465.475 253.055, 466.750 252.810 C 468.305 252.510, 468.572 251.575, 468.125 248 C 467.982 246.859, 466.655 246.679, 465.667 247.667 M 475.601 250.587 C 476.837 253.545, 476.872 254.451, 475.800 255.750 C 474.723 257.054, 474.738 257.247, 475.885 256.868 C 477.449 256.351, 481.443 247, 480.100 247 C 479.623 247, 478.931 248.012, 478.561 249.250 L 477.890 251.500 476.792 249.250 C 474.993 245.562, 473.977 246.702, 475.601 250.587 M 366.750 250.689 C 364.354 251.315, 364.537 253, 367 253 C 368.111 253, 369 252.333, 369 251.500 C 369 250.675, 368.887 250.052, 368.750 250.116 C 368.613 250.180, 367.712 250.438, 366.750 250.689 M 355 252 C 355 252.550, 355.648 253, 356.441 253 C 357.234 253, 358.160 252.550, 358.500 252 C 358.840 251.450, 358.191 251, 357.059 251 C 355.927 251, 355 251.450, 355 252 M 389 252 C 389 252.550, 389.675 253, 390.500 253 C 391.325 253, 392 252.550, 392 252 C 392 251.450, 391.325 251, 390.500 251 C 389.675 251, 389 251.450, 389 252" stroke="none" fill="#ffffff" fill-rule="evenodd"/>
</svg>