<svg xmlns="http://www.w3.org/2000/svg" width="565" height="800" viewBox="0 0 565 800" version="1.1">
	<path d="M 246 78.643 C 244.625 78.848, 238.100 79.739, 231.500 80.624 C 210.501 83.442, 187.052 89.862, 165.500 98.695 C 152.371 104.076, 137 111.846, 137 113.101 C 137 113.596, 136.662 113.906, 136.250 113.791 C 135.838 113.675, 134.150 114.379, 132.500 115.354 C 130.850 116.329, 130.177 116.930, 131.005 116.689 C 131.833 116.448, 133.088 116.869, 133.795 117.625 C 134.537 118.420, 134.640 119, 134.039 119 C 133.468 119, 133 119.643, 133 120.429 C 133 121.214, 132.293 122.564, 131.429 123.429 C 130 124.857, 130 125.143, 131.429 126.571 C 132.293 127.436, 133 128.324, 133 128.546 C 133 129.514, 126.848 132.006, 124.300 132.070 C 121.998 132.128, 121.839 132.274, 123.409 132.889 C 125.143 133.569, 125.028 133.844, 122.166 135.882 C 120.432 137.116, 118.652 137.903, 118.209 137.629 C 117.767 137.356, 116.751 137.595, 115.952 138.160 C 114.781 138.990, 114.848 139.076, 116.302 138.606 C 117.359 138.264, 117.851 138.432, 117.493 139.011 C 117.157 139.555, 116.438 140, 115.896 140 C 115.353 140, 113.784 141.125, 112.409 142.500 C 111.034 143.875, 109.587 145, 109.194 145 C 108.801 145, 107.354 146.012, 105.977 147.250 C 104.601 148.488, 99.692 152.875, 95.067 157 C 90.442 161.125, 84.373 166.928, 81.579 169.896 C 78.786 172.863, 76.032 175.788, 75.460 176.396 C 74.394 177.528, 63.803 190.239, 61.553 193.087 C 60.863 193.959, 58.319 197.559, 55.900 201.087 C 53.480 204.614, 51.163 207.650, 50.750 207.833 C 50.338 208.017, 50 208.719, 50 209.395 C 50 210.070, 49.192 211.495, 48.204 212.561 C 46.200 214.724, 42.124 221.868, 34.885 235.905 C 27.940 249.373, 18.934 272.716, 15.943 285 C 9.976 309.511, 8.285 320.285, 7.074 341.500 C 6.510 351.400, 6.256 361.975, 6.511 365 C 7.846 380.827, 8.171 384.141, 9.109 391.500 C 12.371 417.084, 21.598 447.193, 33.513 471.134 C 38.226 480.604, 38.963 485.150, 37.090 493.214 C 36.469 495.887, 36.600 497.429, 37.557 498.714 C 38.779 500.353, 39.549 499.846, 46.944 492.523 C 51.375 488.136, 55 483.800, 55 482.886 C 55 481.973, 52.955 477.382, 50.456 472.684 C 37.514 448.355, 28.893 422.337, 23.889 392.500 C 22.145 382.099, 21.688 375.101, 21.604 357.500 C 21.547 345.400, 21.853 332.575, 22.284 329 C 28.186 280.083, 45.193 238.306, 74.801 200 C 78.415 195.325, 87.700 185.154, 95.435 177.398 C 134.818 137.909, 183.937 113.797, 239.854 106.503 C 251.486 104.986, 286.203 104.373, 296.091 105.511 C 315.515 107.747, 335.256 112.035, 350.908 117.421 C 356.631 119.389, 361.485 121, 361.695 121 C 361.906 121, 361.131 119.987, 359.974 118.750 C 358.208 116.861, 358.122 116.448, 359.435 116.177 C 361.814 115.685, 361.303 114.009, 358.750 113.930 C 356.588 113.862, 356.578 113.823, 358.500 112.916 C 360.214 112.107, 360.106 112.026, 357.750 112.347 C 354.416 112.802, 354.208 112.254, 357.250 111.031 C 358.880 110.376, 359.034 110.109, 357.809 110.063 C 356.879 110.029, 355.858 109.579, 355.540 109.064 C 355.215 108.539, 356.394 108.597, 358.231 109.198 C 360.029 109.786, 362.967 110.207, 364.760 110.133 C 367.593 110.017, 373.437 112.015, 379.236 115.082 C 380.191 115.587, 381.654 116, 382.486 116 C 383.319 116, 384 116.450, 384 117 C 384 117.550, 384.563 117.994, 385.250 117.986 C 386.810 117.968, 399.379 124.229, 399.833 125.250 C 400.017 125.662, 400.550 126, 401.019 126 C 402.771 126, 433.971 146.745, 437.001 149.925 C 437.827 150.791, 441.416 153.975, 444.976 157 C 452.570 163.452, 461.365 172.288, 467.865 179.996 C 470.414 183.019, 473.980 187.069, 475.790 188.996 L 479.080 192.500 478.421 201.750 C 477.805 210.393, 477.887 211, 479.656 211 C 482.192 211, 496 197.018, 496 194.449 C 496 190.027, 471.299 161.917, 454.267 146.957 C 420.239 117.070, 382.904 97.292, 339.500 86.163 C 316.071 80.155, 297.065 77.978, 269.500 78.145 C 257.950 78.215, 247.375 78.439, 246 78.643 M 352.679 115.250 C 351.184 116.347, 351.375 116.515, 354.238 116.623 C 356.032 116.691, 356.647 116.533, 355.605 116.272 C 354.083 115.891, 353.984 115.624, 355.105 114.914 C 355.872 114.428, 356.024 114.024, 355.441 114.015 C 354.859 114.007, 353.616 114.563, 352.679 115.250 M 362 117 C 362 117.550, 362.450 118, 363 118 C 363.550 118, 364 117.550, 364 117 C 364 116.450, 363.550 116, 363 116 C 362.450 116, 362 116.450, 362 117 M 125.060 119.940 C 124.064 120.936, 122.631 121.996, 121.875 122.296 C 120.746 122.744, 120.757 122.856, 121.936 122.921 C 122.725 122.964, 124.413 122.022, 125.686 120.826 C 127.612 119.015, 128 118.926, 128 120.291 C 128 121.192, 127.061 122.432, 125.914 123.046 C 123.555 124.309, 123.865 125.373, 126.319 124.431 C 127.202 124.092, 128.176 123.021, 128.484 122.051 C 128.792 121.080, 130.037 119.843, 131.250 119.302 C 133.268 118.401, 133.175 118.309, 130.163 118.224 C 128.215 118.168, 126.131 118.869, 125.060 119.940 M 142 121 C 141.099 121.582, 140.975 121.975, 141.691 121.985 C 142.346 121.993, 143.160 121.550, 143.500 121 C 144.267 119.758, 143.921 119.758, 142 121 M 363.507 120.989 C 363.157 121.555, 363.558 121.723, 364.448 121.382 C 366.180 120.717, 366.497 120, 365.059 120 C 364.541 120, 363.843 120.445, 363.507 120.989 M 365 122.393 C 365 122.609, 365.698 123.054, 366.552 123.382 C 367.442 123.723, 367.843 123.555, 367.493 122.989 C 366.906 122.038, 365 121.583, 365 122.393 M 127.063 127.576 C 128.147 128.883, 128.126 129.308, 126.936 130.061 C 124.942 131.322, 126.695 131.234, 129.089 129.952 C 130.801 129.036, 130.865 128.722, 129.595 127.452 C 127.535 125.393, 125.340 125.500, 127.063 127.576 M 110.333 130.456 C 110.333 131.257, 110.716 131.676, 111.183 131.387 C 111.650 131.098, 111.774 130.443, 111.457 129.931 C 110.649 128.623, 110.333 128.770, 110.333 130.456 M 116 133 C 116 133.550, 116.450 134, 117 134 C 117.550 134, 118 133.550, 118 133 C 118 132.450, 117.550 132, 117 132 C 116.450 132, 116 132.450, 116 133 M 559.500 170.414 C 557.300 172.823, 555.050 174.544, 554.500 174.237 C 553.950 173.930, 553.847 174.061, 554.272 174.528 C 555.186 175.534, 501.108 230, 499.195 230 C 498.473 230, 498.129 230.399, 498.430 230.887 C 499.149 232.049, 496.537 234.203, 495.575 233.241 C 495.167 232.834, 494.983 232.981, 495.167 233.570 C 495.640 235.089, 483.923 247.070, 482.702 246.316 C 482.146 245.972, 481.981 246.160, 482.334 246.732 C 483.135 248.028, 480.617 250.256, 479.498 249.241 C 479.048 248.834, 478.956 248.986, 479.293 249.580 C 480.080 250.963, 469.669 261.310, 468.532 260.276 C 468.063 259.849, 467.957 259.988, 468.296 260.584 C 468.636 261.181, 466.969 263.577, 464.593 265.909 L 460.272 270.149 457.599 263.472 C 455.407 257.996, 455.149 256.498, 456.165 255.147 C 457.208 253.760, 457.182 253.697, 456.002 254.750 C 454.900 255.733, 432.826 256, 352.800 256 C 296.810 256, 251 256.160, 251 256.356 C 251 256.552, 254.237 259.923, 258.194 263.849 L 265.388 270.986 262.482 274.019 C 260.884 275.687, 259.020 276.838, 258.339 276.577 C 257.648 276.312, 257.314 276.654, 257.581 277.352 C 257.845 278.039, 256.472 279.926, 254.531 281.545 C 252.589 283.164, 251 284.829, 251 285.244 C 251 285.660, 261.125 286, 273.501 286 L 296.001 286 301.251 280.737 C 304.138 277.842, 307.270 274.876, 308.211 274.147 C 309.822 272.897, 309.925 278.040, 309.979 362.702 C 310.037 452.368, 310.032 452.588, 307.959 454.814 C 306.816 456.041, 305.446 456.776, 304.916 456.448 C 304.385 456.120, 304.074 456.447, 304.225 457.176 C 304.376 457.904, 303.938 458.388, 303.250 458.250 C 302.563 458.113, 302.113 458.563, 302.250 459.250 C 302.388 459.938, 301.904 460.376, 301.176 460.225 C 300.447 460.074, 300.094 460.343, 300.390 460.822 C 300.686 461.302, 299.595 462.972, 297.964 464.534 C 296.334 466.096, 295 467.740, 295 468.187 C 295 468.634, 301.748 469, 309.995 469 L 324.989 469 325.245 377.750 L 325.500 286.500 359.257 286.289 L 393.014 286.077 399.507 279.455 L 406 272.833 406 363.438 L 406 454.043 400.822 459.271 C 397.974 462.147, 394.981 464.502, 394.171 464.505 C 393.361 464.508, 392.544 465.520, 392.355 466.755 C 392.013 468.997, 392.032 469, 407.006 469 C 418.330 469, 422.002 468.694, 422.008 467.750 C 422.012 467.063, 422.125 426, 422.258 376.500 L 422.500 286.500 444.500 286.235 L 466.500 285.970 509.720 242.769 L 552.940 199.568 555.917 202.420 L 558.894 205.272 559.437 202.886 C 559.736 201.574, 561.110 194.133, 562.490 186.350 C 565.064 171.842, 565.570 165.987, 564.250 166.017 C 563.837 166.026, 561.700 168.004, 559.500 170.414 M 531.750 171.662 C 532.438 171.940, 533.563 171.940, 534.250 171.662 C 534.938 171.385, 534.375 171.158, 533 171.158 C 531.625 171.158, 531.063 171.385, 531.750 171.662 M 524.924 185.750 L 522.500 188.500 525.250 186.076 C 526.763 184.742, 528 183.505, 528 183.326 C 528 182.541, 527.190 183.180, 524.924 185.750 M 516.946 193.750 L 513.500 197.500 517.250 194.054 C 520.740 190.846, 521.460 190, 520.696 190 C 520.529 190, 518.842 191.688, 516.946 193.750 M 509.437 201.250 L 506.500 204.500 509.750 201.563 C 511.538 199.948, 513 198.485, 513 198.313 C 513 197.540, 512.175 198.221, 509.437 201.250 M 500.946 209.750 L 497.500 213.500 501.250 210.054 C 503.313 208.158, 505 206.471, 505 206.304 C 505 205.540, 504.154 206.260, 500.946 209.750 M 491.872 218.750 C 490.629 220.336, 490.664 220.371, 492.250 219.128 C 493.212 218.373, 494 217.585, 494 217.378 C 494 216.555, 493.179 217.084, 491.872 218.750 M 484.924 225.750 L 482.500 228.500 485.250 226.076 C 486.762 224.742, 488 223.505, 488 223.326 C 488 222.541, 487.190 223.180, 484.924 225.750 M 469.872 240.750 C 468.629 242.336, 468.664 242.371, 470.250 241.128 C 471.212 240.373, 472 239.585, 472 239.378 C 472 238.555, 471.179 239.084, 469.872 240.750 M 513.727 255.772 C 509.477 260.047, 506 264.052, 506 264.672 C 506 265.293, 508.363 266.335, 511.250 266.988 C 514.138 267.640, 517.239 268.375, 518.142 268.621 C 520.381 269.228, 523.371 277.757, 527.566 295.500 C 536.594 333.685, 536.014 383.201, 526.097 421 C 520.471 442.444, 509.271 469.716, 498.992 487 C 497.193 490.025, 494.837 494.075, 493.757 496 C 488.488 505.391, 472.782 525.370, 461.176 537.447 C 451.298 547.724, 431.837 564.151, 430.256 563.545 C 429.470 563.243, 429.172 563.469, 429.549 564.079 C 429.908 564.659, 429.261 565.380, 428.112 565.681 C 426.963 565.982, 426.316 566.703, 426.675 567.284 C 427.086 567.948, 426.691 568.096, 425.612 567.681 C 424.643 567.309, 424.148 567.431, 424.476 567.961 C 424.795 568.477, 424.143 569.388, 423.028 569.985 C 421.662 570.716, 421 570.732, 421 570.035 C 421 569.466, 420.502 569, 419.893 569 C 419.284 569, 419.054 569.698, 419.382 570.552 C 419.723 571.442, 419.555 571.843, 418.989 571.493 C 418.445 571.157, 417.502 571.190, 416.893 571.566 C 416.122 572.043, 416.197 572.510, 417.143 573.110 C 418.200 573.779, 418.113 573.973, 416.750 573.985 C 414.559 574.004, 414.390 570.448, 416.543 569.622 C 417.829 569.128, 417.881 568.652, 416.855 566.765 C 415.050 563.447, 415.047 561.081, 416.848 561.772 C 417.934 562.188, 418.170 561.885, 417.705 560.674 C 417.110 559.123, 418.060 558.500, 420.375 558.923 C 421.550 559.138, 425 555.954, 425 554.654 C 425 554.084, 424.339 554.491, 423.532 555.559 C 422.662 556.709, 422.051 556.978, 422.032 556.218 C 422.014 555.491, 419.730 556.610, 416.750 558.806 C 413.863 560.934, 409.475 563.941, 407 565.487 C 404.525 567.034, 402.275 568.602, 402 568.973 C 401.725 569.343, 394.300 573.243, 385.500 577.638 C 359.479 590.635, 340.116 597.039, 311.500 602.115 C 300.103 604.136, 295.171 604.425, 271.500 604.454 C 244.804 604.488, 241.619 604.226, 222 600.388 C 176.748 591.536, 133.154 568.860, 99.393 536.612 C 94.356 531.801, 90.668 529.060, 89.202 529.036 C 86.653 528.996, 71.676 543.522, 72.305 545.424 C 72.507 546.036, 76.058 546.628, 80.533 546.796 C 89.112 547.118, 89.989 547.594, 100.808 557.809 C 103.178 560.046, 105.279 561.792, 105.478 561.688 C 105.677 561.585, 107.113 562.610, 108.670 563.967 C 114 568.614, 126.064 576.895, 135.782 582.577 C 141.127 585.703, 146.719 589.101, 148.210 590.130 C 149.700 591.158, 151.303 592, 151.772 592 C 152.241 592, 154.487 592.900, 156.764 594 C 159.041 595.100, 161.361 596, 161.920 596 C 162.480 596, 162.700 596.618, 162.411 597.372 C 162.019 598.392, 162.606 598.629, 164.692 598.294 C 166.879 597.943, 167.168 598.079, 166 598.906 C 164.790 599.764, 165.032 599.972, 167.250 599.985 C 168.762 599.993, 170 600.450, 170 601 C 170 601.550, 171.350 602, 173 602 C 174.907 602, 176 602.511, 176 603.402 C 176 604.173, 177.423 605.300, 179.162 605.907 C 180.901 606.513, 182.065 607.268, 181.748 607.586 C 181.431 607.903, 180.262 607.676, 179.151 607.081 C 176.513 605.669, 172 605.691, 172 607.117 C 172 607.792, 173.072 608.028, 174.712 607.715 C 176.529 607.367, 177.837 607.741, 178.680 608.848 C 180.306 610.985, 180.340 613.695, 178.750 614.341 C 176.890 615.095, 180.043 617.136, 182.251 616.606 C 183.215 616.375, 183.792 616.528, 183.534 616.945 C 183.004 617.802, 199.669 623, 211 625.511 C 244.610 632.960, 285.650 634.050, 318 628.354 C 422.153 610.014, 506.801 534.797, 536.455 434.239 C 544.714 406.229, 548.025 381.484, 547.591 351 C 547.119 317.867, 542.472 291.651, 531.461 260 C 526.288 245.131, 524.685 244.749, 513.727 255.772 M 101.309 259.750 C 101.301 261.813, 101.484 262.488, 101.716 261.250 C 101.949 260.012, 102.382 259, 102.679 259 C 102.976 259, 105.870 261.751, 109.110 265.114 L 115 271.228 115 366.360 L 115 461.493 60.793 515.707 C 30.980 545.524, 6.792 570.108, 7.043 570.338 C 7.552 570.803, 46.252 564.074, 46.927 563.403 C 47.162 563.170, 46.161 561.733, 44.702 560.211 L 42.049 557.442 86.525 512.975 L 131 468.508 131 377.241 L 131 285.973 164.750 286.237 L 198.500 286.500 203.410 281.290 C 206.110 278.424, 208.767 276.356, 209.314 276.694 C 209.861 277.032, 210.019 276.840, 209.666 276.268 C 209.312 275.695, 209.667 274.692, 210.455 274.038 C 211.611 273.078, 211.871 273.201, 211.802 274.674 C 211.755 275.678, 211.834 276.950, 211.977 277.500 C 212.120 278.050, 212.184 317.955, 212.118 366.179 L 212 453.858 208.548 457.518 C 206.446 459.746, 204.626 460.887, 203.894 460.434 C 203.173 459.989, 202.952 460.113, 203.342 460.744 C 203.700 461.323, 202.644 463.240, 200.996 465.004 C 199.348 466.768, 198 468.389, 198 468.606 C 198 468.823, 204.750 469, 213 469 L 228 469 228 362.500 L 228 256 164.662 256 L 101.324 256 101.309 259.750 M 101.480 356 C 101.480 406.875, 101.601 427.688, 101.750 402.250 C 101.898 376.812, 101.898 335.187, 101.750 309.750 C 101.601 284.313, 101.480 305.125, 101.480 356 M 251.355 272.500 C 251.352 277.450, 251.521 279.601, 251.731 277.280 C 251.940 274.959, 251.943 270.909, 251.736 268.280 C 251.530 265.651, 251.358 267.550, 251.355 272.500 M 261.500 272 C 261.840 272.550, 262.316 273, 262.559 273 C 262.802 273, 263 272.550, 263 272 C 263 271.450, 262.523 271, 261.941 271 C 261.359 271, 261.160 271.450, 261.500 272 M 295.245 376.250 C 295.110 425.613, 295.170 466, 295.378 466 C 295.585 466, 296.373 465.239, 297.128 464.308 C 298.049 463.172, 298.091 462.862, 297.255 463.364 C 296.267 463.957, 295.957 445.823, 295.750 375.306 L 295.489 286.500 295.245 376.250 M 245 362.385 C 245 362.596, 248.262 365.954, 252.250 369.847 L 259.500 376.925 252.065 384.423 C 246.676 389.857, 245.037 392.077, 246.113 392.490 C 246.929 392.803, 253.875 392.933, 261.548 392.780 L 275.500 392.500 275.684 377.250 L 275.867 362 260.434 362 C 251.945 362, 245 362.173, 245 362.385 M 101.232 453 C 101.232 454.925, 101.438 455.712, 101.689 454.750 C 101.941 453.788, 101.941 452.212, 101.689 451.250 C 101.438 450.288, 101.232 451.075, 101.232 453 M 14.371 531.750 C 14.650 532.712, 16.143 537.550, 17.689 542.500 L 20.500 551.500 20.790 543.867 C 21.070 536.487, 20.976 536.130, 17.963 533.117 C 14.403 529.557, 13.655 529.272, 14.371 531.750 M 22.459 535.067 C 22.096 535.653, 22.014 536.348, 22.276 536.610 C 22.538 536.872, 23.019 536.392, 23.345 535.543 C 24.021 533.781, 23.445 533.471, 22.459 535.067 M 426.980 551.524 C 426.284 552.362, 425.909 553.242, 426.145 553.479 C 426.382 553.715, 427.125 553.030, 427.796 551.955 C 429.248 549.630, 428.764 549.375, 426.980 551.524 M 412.500 563 C 412.160 563.550, 412.584 564, 413.441 564 C 414.298 564, 415 563.550, 415 563 C 415 562.450, 414.577 562, 414.059 562 C 413.541 562, 412.840 562.450, 412.500 563 M 420 564 C 420 565.111, 420.667 566, 421.500 566 C 422.333 566, 423 565.111, 423 564 C 423 562.889, 422.333 562, 421.500 562 C 420.667 562, 420 562.889, 420 564 M 413 566.500 C 413.685 567.325, 414.626 568, 415.091 568 C 415.556 568, 415.678 567.325, 415.362 566.500 C 415.045 565.675, 414.104 565, 413.271 565 C 412.037 565, 411.987 565.279, 413 566.500 M 173.211 610.849 C 172.379 611.376, 173.001 611.667, 174.961 611.667 C 176.632 611.667, 178 611.292, 178 610.833 C 178 609.769, 174.897 609.779, 173.211 610.849 M 173 613 L 170.500 613.801 173.250 613.900 C 174.762 613.955, 176 613.550, 176 613 C 176 612.450, 175.887 612.045, 175.750 612.100 C 175.613 612.155, 174.375 612.560, 173 613" stroke="none" fill="#ffffff" fill-rule="evenodd"/>
</svg>