<svg xmlns="http://www.w3.org/2000/svg" width="800" height="181" viewBox="0 0 800 181" version="1.1">
	<path d="M 125 48.164 C 114.892 49.224, 104.250 53.781, 97.728 59.840 C 94.523 62.819, 96.696 63.368, 73 53.589 C 60.018 48.231, 59.155 48.018, 50.500 48.031 C 40.893 48.045, 35.840 49.597, 29.396 54.511 C 19.947 61.718, 16.560 79.513, 22.463 90.929 C 25.459 96.722, 35.364 104.253, 41.239 105.204 C 41.933 105.316, 36.679 105.654, 29.563 105.954 L 16.627 106.500 16.873 113 C 17.453 128.344, 24.429 139.601, 36.949 145.394 C 41.470 147.486, 42.179 147.502, 144.050 147.773 L 246.600 148.045 251.050 145.698 C 257.394 142.351, 260.188 137.210, 259.727 129.737 C 259.497 126.023, 258.663 123, 257.380 121.237 C 255.575 118.754, 236.888 106.019, 194.753 78.559 C 186.364 73.092, 174.210 65.136, 167.745 60.879 C 161.279 56.622, 153.404 52.171, 150.245 50.986 C 143.170 48.334, 133.589 47.263, 125 48.164 M 310.316 49.943 C 296.994 55.992, 295.462 81.084, 307.911 89.322 C 318.176 96.115, 330.785 93.222, 336.071 82.860 L 338.055 78.971 335.778 78.119 C 329.558 75.792, 329.317 75.820, 327.994 79.014 C 324.747 86.852, 314.184 87.122, 310.548 79.460 C 308.594 75.341, 308.550 66.013, 310.464 61.432 C 313.427 54.341, 324.095 53.415, 327.477 59.955 C 328.860 62.631, 329.083 62.700, 332.959 61.665 C 335.692 60.936, 337 60.031, 337 58.870 C 337 56.332, 332.069 50.927, 328.329 49.364 C 323.693 47.427, 315.262 47.698, 310.316 49.943 M 348 70 L 348 92 364.500 92 L 381 92 381 88.500 L 381 85 369 85 L 357 85 357 79 L 357 73 368.060 73 L 379.121 73 378.810 69.250 L 378.500 65.500 367.750 65.216 L 357 64.932 357 60.466 L 357 56 368.500 56 L 380 56 380 52 L 380 48 364 48 L 348 48 348 70 M 391 69.856 L 391 92 395.500 92 L 400 92 400 84.143 L 400 76.286 407.846 75.748 C 412.162 75.452, 417.051 74.508, 418.712 73.649 C 424.264 70.778, 426.491 62.503, 423.584 55.546 C 421.185 49.806, 418.572 48.831, 403.998 48.240 L 391 47.713 391 69.856 M 435 70 L 435 92 448.032 92 C 466.629 92, 471.333 89.423, 471.333 79.235 C 471.333 75.245, 470.872 74.217, 467.893 71.564 L 464.453 68.500 466.726 66.286 C 468.423 64.633, 469 62.935, 469 59.591 C 469 50.698, 463.267 48, 444.364 48 L 435 48 435 70 M 481.609 48.824 C 481.329 49.277, 481.093 59.177, 481.085 70.824 L 481.071 92 485.951 92 L 490.832 92 499.166 78.465 L 507.500 64.930 507.778 78.465 L 508.056 92 512.548 92 L 517.039 92 516.770 70.250 L 516.500 48.500 512 48.500 L 507.500 48.500 499 62.500 L 490.500 76.500 490.223 62.250 L 489.945 48 486.032 48 C 483.879 48, 481.889 48.371, 481.609 48.824 M 535.840 50.887 C 529.491 54.913, 526.769 60.760, 526.804 70.295 C 526.835 78.715, 528.499 83.241, 533.172 87.616 C 542.929 96.751, 558.659 93.932, 563.575 82.167 C 564.359 80.291, 565 78.634, 565 78.486 C 565 78.338, 563.763 77.922, 562.250 77.561 C 560.737 77.200, 558.772 76.690, 557.882 76.427 C 556.785 76.103, 555.855 76.937, 554.994 79.014 C 552.274 85.582, 545.282 87.010, 539.805 82.117 C 536.866 79.491, 536.544 78.619, 536.188 72.327 C 535.674 63.227, 537.565 58.498, 542.550 56.415 C 547.293 54.433, 552.412 55.963, 554.491 59.984 C 555.883 62.674, 556.129 62.755, 559.974 61.779 C 564.813 60.550, 565.177 58.552, 561.381 54.041 C 557.551 49.489, 553.944 48, 546.745 48 C 541.459 48, 539.627 48.485, 535.840 50.887 M 41.634 54.972 C 26.204 59.910, 20.768 80.598, 31.803 92.379 C 34.924 95.711, 41.384 98.770, 52 101.943 C 65.919 106.102, 70.932 110.871, 69.655 118.738 C 68.341 126.835, 62.718 130.991, 53.066 130.996 C 42.068 131.003, 35.566 126.531, 33.065 117.241 C 31.934 113.042, 31.878 113, 27.374 113 L 22.824 113 23.519 117.250 C 26.051 132.741, 36.301 141.382, 52.055 141.304 C 67.408 141.228, 76.916 132.949, 78.671 118.130 C 80.310 104.290, 71.087 94.765, 51.500 90.071 C 44.220 88.326, 37.689 84.865, 36.269 82 C 31.281 71.938, 39.900 62.967, 53.317 64.256 C 59.587 64.859, 62.918 67.361, 66 73.783 C 68.432 78.852, 68.615 78.993, 72.750 78.996 C 77.571 79, 77.452 79.288, 75.564 72.194 C 73.786 65.513, 70.218 60.798, 64.333 57.349 C 60.636 55.183, 58.239 54.595, 52.117 54.354 C 47.928 54.189, 43.210 54.467, 41.634 54.972 M 119.813 55.470 C 96.773 61.816, 82.756 83.570, 87.390 105.793 C 92.280 129.248, 113.855 144.199, 137.993 140.860 C 154.650 138.555, 169.836 125.716, 174.412 110.068 C 177.315 100.142, 179.767 101, 148.500 101 L 121 101 121 104.893 C 121 107.612, 121.505 108.980, 122.675 109.429 C 123.597 109.782, 133.159 110.038, 143.925 109.998 C 154.691 109.957, 163.849 109.941, 164.276 109.962 C 165.707 110.032, 161.827 116.270, 157.424 120.978 C 150.755 128.107, 143.544 131.313, 133.091 131.796 C 121.195 132.344, 114.831 129.912, 106.421 121.603 C 98.254 113.534, 95.616 106.869, 96.231 95.853 C 97.809 67.566, 130.684 53.353, 153.770 70.977 C 158.294 74.430, 159.746 75, 164.020 75 C 167.229 75, 169 74.573, 169 73.799 C 169 71.580, 157.554 61.526, 152 58.866 C 141.988 54.071, 129.627 52.767, 119.813 55.470 M 400 62 L 400 68 405.418 68 C 412.133 68, 413.919 67.343, 415.011 64.471 C 417.069 59.057, 413.439 56, 404.953 56 L 400 56 400 62 M 444 61 L 444 66 449.435 66 C 458.875 66, 462.635 63.145, 459.500 58.359 C 458.120 56.253, 457.204 56, 450.977 56 L 444 56 444 61 M 444 79 L 444 85 450.250 84.985 C 458.662 84.965, 461.500 83.455, 461.500 79 C 461.500 74.545, 458.662 73.035, 450.250 73.015 L 444 73 444 79 M 181.354 107.807 C 179.639 116.829, 175.274 124.721, 167.899 132.135 C 164.269 135.785, 160.331 139.077, 159.149 139.453 C 157.967 139.828, 157 140.442, 157 140.817 C 156.999 141.193, 177.464 141.275, 202.478 141 L 247.957 140.500 250.514 137.942 C 251.920 136.535, 253.167 134.074, 253.285 132.474 L 253.500 129.565 218.500 115.837 C 199.250 108.287, 183.265 102.085, 182.979 102.055 C 182.692 102.025, 181.961 104.613, 181.354 107.807 M 301.667 105.667 C 301.300 106.033, 301 115.933, 301 127.667 L 301 149 305.750 149.001 L 310.500 149.002 310.280 133.245 C 310.159 124.579, 310.324 116.479, 310.646 115.244 C 311.205 113.110, 311.716 113, 321.117 113 L 331 113 331 109 L 331 105 316.667 105 C 308.783 105, 302.033 105.300, 301.667 105.667 M 346.094 107.250 C 344.903 110.380, 330.925 146.217, 330.298 147.750 C 329.928 148.652, 331.185 149, 334.813 149 L 339.839 149 341.500 144 L 343.161 139 351.666 139 L 360.172 139 362.284 144 L 364.397 149 369.194 149 L 373.992 149 372 143.750 C 370.904 140.863, 366.969 130.971, 363.254 121.770 L 356.500 105.039 351.725 105.020 C 347.685 105.003, 346.819 105.346, 346.094 107.250 M 385.367 106.863 C 382.041 108.949, 379 112.661, 379 114.635 C 379 115.289, 380.749 116.120, 382.886 116.481 C 386.209 117.042, 387.144 116.766, 389.340 114.569 C 390.947 112.962, 393.023 112, 394.883 112 C 402.713 112, 403.241 122.114, 395.488 123.568 C 392.319 124.163, 392 124.532, 392 127.611 C 392 130.542, 392.332 131, 394.453 131 C 400.770 131, 404.285 135.389, 401.443 139.728 C 400.227 141.584, 399.048 142, 395.007 142 C 390.705 142, 389.780 141.621, 387.911 139.094 C 385.844 136.298, 385.624 136.236, 382.131 137.464 C 379.519 138.382, 378.593 139.242, 378.830 140.527 C 380.904 151.761, 404.127 153.520, 410.390 142.918 C 413.170 138.211, 412.096 132.305, 407.788 128.617 L 404.420 125.733 407.210 122.944 C 411.146 119.008, 411.098 113.260, 407.092 108.777 C 404.343 105.700, 403.758 105.506, 396.342 105.211 C 389.914 104.955, 387.935 105.253, 385.367 106.863 M 422 127 L 422 149 426.797 149 L 431.595 149 438.739 137.250 C 449.773 119.102, 448.931 119.266, 448.968 135.250 L 449 149 453 149 L 457 149 457 127 L 457 105 452.750 105.005 L 448.500 105.010 439.751 119.255 L 431.003 133.500 431.001 119.250 L 431 105 426.500 105 L 422 105 422 127 M 486 107.370 C 486 109.446, 485.427 109.804, 481.386 110.260 C 476.431 110.818, 472.852 112.977, 469.562 117.389 C 466.790 121.106, 466.640 132.275, 469.307 136.345 C 471.711 140.015, 476.486 142.800, 481.717 143.585 C 485.385 144.135, 486 144.570, 486 146.614 C 486 148.775, 486.424 149, 490.500 149 C 494.576 149, 495 148.775, 495 146.614 C 495 144.558, 495.613 144.135, 499.427 143.563 C 511.570 141.742, 517.486 129.833, 511.940 118.376 C 509.632 113.609, 503.706 110, 498.184 110 C 495.454 110, 495 109.643, 495 107.500 C 495 105.204, 494.633 105, 490.500 105 C 486.433 105, 486 105.228, 486 107.370 M 524 127.055 L 524 149.110 528.613 148.805 L 533.226 148.500 541.363 135.209 L 549.500 121.918 549.778 135.459 L 550.056 149 554.528 149 L 559 149 559 126.945 L 559 104.890 554.326 105.195 L 549.652 105.500 541.076 119.500 L 532.500 133.500 532.223 119.250 L 531.945 105 527.973 105 L 524 105 524 127.055 M 570 126.945 L 570 149 574.750 148.998 L 579.500 148.997 579.439 139.941 C 579.350 126.634, 581.467 126.811, 588.078 140.664 L 592.057 149 597.028 149 C 599.763 149, 602 148.539, 602 147.975 C 602 145.911, 594.935 132.995, 591.939 129.583 C 589.540 126.851, 589.114 125.785, 590.021 124.785 C 590.663 124.078, 592.383 121.025, 593.844 118 C 595.994 113.547, 597.024 112.440, 599.250 112.184 C 601.677 111.904, 602 111.448, 602 108.298 L 602 104.728 597.351 105.365 C 591.407 106.180, 590.685 106.838, 586.947 114.853 C 584.162 120.824, 581.751 124, 580.001 124 C 579.662 124, 579.410 119.838, 579.442 114.750 L 579.500 105.500 574.750 105.195 L 570 104.890 570 126.945 M 622.016 107.195 C 620.283 111.226, 606 148.127, 606 148.573 C 606 148.808, 608.171 149, 610.824 149 L 615.649 149 617.124 144.250 L 618.599 139.500 627.521 139.500 L 636.443 139.500 638.100 144 C 639.742 148.457, 639.807 148.503, 644.867 148.802 C 648.745 149.031, 649.854 148.790, 649.466 147.802 C 649.185 147.086, 645.223 137.275, 640.662 126 L 632.370 105.500 627.688 105.195 C 623.605 104.930, 622.880 105.185, 622.016 107.195 M 657 127 L 657 149 672.445 149 L 687.890 149 688.195 153.750 C 688.497 158.454, 688.536 158.503, 692.250 158.810 L 696 159.121 696 150.677 C 696 143.074, 695.801 142.181, 694 141.710 C 692.093 141.212, 692 140.346, 692 123.094 L 692 105 687.500 105 L 683 105 683 123.395 L 683 141.790 674.750 141.645 L 666.500 141.500 666.227 123.250 L 665.955 105 661.477 105 L 657 105 657 127 M 704 127 L 704 149 708.833 149 L 713.665 149 722.083 135.301 L 730.500 121.602 730.778 135.301 L 731.056 149 735.548 149 L 740.039 149 739.770 127.250 L 739.500 105.500 735 105.239 L 730.500 104.977 722 119.058 L 713.500 133.138 713.223 119.069 L 712.945 105 708.473 105 L 704 105 704 127 M 759.256 105.975 C 755.313 106.911, 753.322 108.477, 751.434 112.128 C 748.359 118.073, 750.775 125.569, 756.673 128.381 L 760.278 130.100 757.779 132.800 C 755.174 135.614, 747 147.479, 747 148.445 C 747 148.750, 749.362 148.985, 752.250 148.967 L 757.500 148.934 762.957 140.891 C 768.740 132.369, 770.328 131, 774.434 131 C 776.999 131, 777 131.005, 777 140 L 777 149 781.500 149 L 786 149 786 127 L 786 105 774.250 105.102 C 767.788 105.159, 761.040 105.551, 759.256 105.975 M 761.200 114.200 C 760.540 114.860, 760 116.896, 760 118.725 C 760 122.826, 762.463 124, 771.065 124 L 777 124 777 118.500 L 777 113 769.700 113 C 765.356 113, 761.914 113.486, 761.200 114.200 M 348.789 123.705 C 347.402 127.442, 346.459 130.838, 346.693 131.250 C 347.305 132.329, 357 132.178, 357 131.089 C 357 129.836, 352.825 118.687, 351.988 117.705 C 351.615 117.267, 350.175 119.967, 348.789 123.705 M 480.400 118.428 C 476.825 119.984, 476 121.615, 476 127.127 C 476 131.839, 479.496 136, 483.455 136 L 486 136 486 126.500 C 486 116.186, 485.895 116.036, 480.400 118.428 M 495 126.500 C 495 135.822, 495.044 136, 497.365 136 C 498.666 136, 500.916 135.067, 502.365 133.927 C 504.513 132.238, 505 131.025, 505 127.362 C 505 124.890, 504.559 122.045, 504.021 121.039 C 503.161 119.433, 498.241 117, 495.851 117 C 495.383 117, 495 121.275, 495 126.500 M 624.630 124.020 C 623.183 127.922, 622 131.237, 622 131.386 C 622 131.535, 624.475 131.758, 627.500 131.880 C 630.525 132.003, 633 131.707, 633 131.224 C 633 130.383, 628.090 117.808, 627.530 117.213 C 627.381 117.055, 626.076 120.118, 624.630 124.020" stroke="none" fill="#ffffff" fill-rule="evenodd"/>
</svg>