<svg xmlns="http://www.w3.org/2000/svg" width="800" height="378" viewBox="0 0 800 378" version="1.1">
	<path d="M 665.148 126.351 C 659.211 132.341, 658.891 132.903, 659.518 136.246 C 659.896 138.257, 659.710 140.674, 659.088 141.836 C 658.098 143.686, 657.338 143.828, 651.186 143.312 C 632.005 141.704, 608.451 151.993, 589.266 170.362 C 574.472 184.526, 568.714 196.018, 568.654 211.500 C 568.624 219.285, 568.972 221.184, 571.232 225.563 C 574.320 231.549, 576.706 233.953, 577.483 231.863 C 583.444 215.827, 584.291 212.247, 584.426 202.500 C 584.595 190.241, 585.971 187.195, 596.204 176.423 C 609.334 162.600, 623.808 153.737, 638.639 150.437 C 645.168 148.984, 655 149.051, 655 150.548 C 655 150.782, 653.087 154.183, 650.750 158.105 C 639.795 176.486, 621.667 192.603, 599.296 203.851 L 591.176 207.934 588.153 217.717 C 584.516 229.491, 583.624 233, 584.271 233 C 584.539 233, 587.175 231.894, 590.129 230.542 C 606.834 222.898, 625.014 222.912, 638.876 230.580 C 641.283 231.911, 643.620 233, 644.070 233 C 644.847 233, 652 211.451, 652 209.110 C 652 208.500, 650.620 208, 648.933 208 C 646.490 208, 645.966 207.643, 646.358 206.250 C 646.629 205.287, 647.149 203.018, 647.514 201.206 C 647.981 198.891, 649.266 197.222, 651.839 195.588 C 656.407 192.687, 665.213 183.422, 667.375 179.243 C 672.827 168.698, 672.492 158.551, 666.428 150.609 C 664.542 148.140, 663 145.574, 663 144.906 C 663 144.239, 664.734 142.074, 666.854 140.096 C 670.563 136.636, 670.734 136.187, 671.378 128.250 C 671.746 123.713, 671.911 120, 671.745 120 C 671.578 120, 668.610 122.858, 665.148 126.351 M 183 147.982 C 145.873 148.370, 132.950 148.814, 131.301 149.758 C 127.803 151.759, 126 155.118, 126 159.634 C 126 163.083, 126.543 164.279, 129.077 166.411 C 131.934 168.816, 132.860 169, 142.077 169 C 149.355 169, 151.997 169.333, 151.988 170.250 C 151.982 170.938, 148.607 182.712, 144.488 196.415 C 140.370 210.118, 137 222.178, 137 223.215 C 137 225.962, 139.721 230.780, 141.945 231.970 C 144.846 233.523, 150.754 233.207, 153.593 231.347 C 157.151 229.016, 159.083 224.676, 164.434 207 C 167.015 198.475, 170.698 186.438, 172.619 180.250 L 176.111 169 186.163 169 C 194.521 169, 196.120 169.244, 195.659 170.446 C 192.714 178.121, 180.997 220.383, 180.999 223.327 C 181.001 228.516, 185.042 232.585, 191.087 233.486 C 193.514 233.848, 209.225 233.999, 226 233.822 C 265.191 233.408, 264.109 233.905, 270.512 213.394 L 274.069 202 283.981 202 L 293.892 202 292.478 206.750 C 291.700 209.363, 290.379 213.750, 289.542 216.500 C 287.636 222.767, 287.618 225.360, 289.453 228.909 C 291.270 232.423, 295.907 234.428, 300.308 233.602 C 306.740 232.395, 308.135 229.629, 317.763 199 L 326.721 170.500 348.611 170.500 L 370.500 170.500 370.818 173.815 C 371.368 179.546, 370.253 180, 355.621 180 C 341.276 180, 336.891 180.815, 333.355 184.136 C 330.562 186.760, 329.342 192.260, 330.829 195.524 C 333.089 200.483, 336.279 201.461, 351.951 202 L 366.500 202.500 366.804 205.625 C 367.383 211.572, 365.973 212, 345.829 212 L 327.800 212 324.400 215.400 C 321.973 217.827, 321 219.701, 321 221.950 C 321 225.809, 323.357 230.586, 325.945 231.970 C 327.203 232.644, 348.804 233, 388.424 233 C 456.827 233, 453.566 233.343, 464.648 224.976 C 475.491 216.789, 481.514 204.092, 481.477 189.500 C 481.457 181.878, 481.045 179.620, 478.782 174.750 L 476.111 169 487.055 169 C 496.132 169, 498 169.257, 498 170.505 C 498 171.332, 494.625 183.104, 490.500 196.665 C 486.375 210.226, 483 222.564, 483 224.084 C 483 228.398, 487.458 233, 491.639 233 C 499.708 233, 502.440 229.567, 508.038 212.390 L 511.334 202.280 528.417 201.718 C 547.734 201.084, 552.340 199.969, 558.923 194.334 C 572.161 183.003, 571.217 160.544, 557.095 150.862 L 553.651 148.500 495.075 147.962 C 462.859 147.666, 433.719 147.731, 430.321 148.106 C 413.064 150.012, 399.337 163.940, 395.931 183.001 C 394.478 191.131, 395.693 200.517, 399.050 207.099 C 400.123 209.201, 401 211.163, 401 211.460 C 401 211.757, 398.084 212, 394.519 212 L 388.038 212 388.634 207.654 C 389.078 204.413, 388.687 202.081, 387.096 198.485 L 384.963 193.661 387.374 190.081 C 388.700 188.111, 390.339 184.751, 391.015 182.613 C 392.760 177.099, 391.820 165.482, 389.217 160.405 C 386.953 155.989, 381.205 150.409, 377.449 148.980 C 376.167 148.493, 362.568 148.017, 347.227 147.921 C 310.403 147.692, 311.362 147.236, 304.981 168 C 303.206 173.775, 301.048 179.063, 300.186 179.750 C 298.519 181.079, 281 181.577, 281 180.296 C 281 179.908, 282.388 174.692, 284.084 168.705 C 286.757 159.266, 287.004 157.425, 285.943 154.862 C 283.599 149.202, 274.462 147.111, 269.018 150.987 C 265.522 153.477, 264.991 154.858, 255.460 186.250 L 247.642 212 226.821 212 C 215.369 212, 206 211.855, 206 211.678 C 206 211.501, 206.702 209.295, 207.561 206.775 L 209.122 202.193 222.311 201.791 C 236.772 201.350, 240.262 200.327, 242.575 195.855 C 245.839 189.544, 242.993 182.925, 236.205 181.040 C 234.167 180.474, 228.779 180.009, 224.231 180.006 L 215.962 180 216.603 177.250 C 218.435 169.393, 218.164 169.529, 232.511 169.221 C 239.655 169.068, 246.759 168.442, 248.297 167.830 C 252.095 166.320, 254.355 161.685, 253.695 156.760 C 252.760 149.791, 247.637 146.779, 237.500 147.237 C 234.750 147.361, 210.225 147.696, 183 147.982 M 660.591 155 C 659.038 159.189, 651.167 187.500, 651.470 187.804 C 652.528 188.861, 660.356 179.975, 662.964 174.757 C 666.885 166.909, 667.101 160.384, 663.573 156.306 C 661.672 154.107, 661.026 153.825, 660.591 155 M 520.172 174.076 C 519.527 176.868, 519 179.568, 519 180.076 C 519 181.099, 541.870 181.371, 544.455 180.379 C 547.034 179.389, 549.242 174.321, 548.058 172.109 C 546.572 169.332, 544.922 169, 532.590 169 L 521.343 169 520.172 174.076 M 431.685 171.017 C 423.486 173.478, 417.689 181.835, 417.675 191.213 C 417.649 209.285, 440.054 218.689, 453.376 206.197 C 464.379 195.879, 460.869 177.438, 446.782 171.553 C 442.787 169.884, 436.234 169.651, 431.685 171.017 M 633.499 190.889 C 628.502 194.966, 621.239 200.029, 609.369 207.709 C 607.865 208.682, 610.122 208.877, 620.938 208.709 L 634.376 208.500 635.176 205.405 C 635.851 202.797, 636.925 201.934, 642.008 199.915 C 647.266 197.826, 648.161 197.077, 648.992 194.066 C 649.517 192.166, 649.800 190.467, 649.622 190.288 C 649.444 190.110, 647.318 190.863, 644.899 191.960 C 638.694 194.775, 637.880 194.642, 639.142 191.021 C 640.937 185.873, 639.683 185.844, 633.499 190.889" stroke="none" fill="#ffffff" fill-rule="evenodd"/>
</svg>