<svg xmlns="http://www.w3.org/2000/svg" width="800" height="743" viewBox="0 0 800 743" version="1.1">
	<path d="M 733.568 1.532 C 707.510 8.683, 690.503 34.443, 694.800 60.250 C 698.116 80.162, 711.788 95.723, 732 102.593 C 740.607 105.518, 755.429 105.169, 764.716 101.823 C 786.207 94.082, 800 74.812, 800 52.529 C 800 37.001, 795.641 26.571, 784.524 15.500 C 773.717 4.738, 761.840 -0.081, 746.540 0.089 C 742.118 0.139, 736.281 0.788, 733.568 1.532 M 734.628 5.110 C 727.672 6.744, 717.365 12.936, 711.678 18.898 C 693.255 38.214, 693.392 67.246, 711.996 86.069 C 718.925 93.080, 725.177 96.750, 734.242 99.130 C 751.634 103.696, 768.420 99.417, 781.300 87.134 C 790.157 78.687, 794.241 70.688, 795.918 58.500 C 799.070 35.593, 784.517 12.873, 762.295 6.009 C 755.295 3.847, 741.865 3.411, 734.628 5.110 M 507.996 10.064 C 481.331 12.899, 449.960 23.598, 419 40.416 C 407.455 46.687, 381.295 62.598, 374.337 67.580 C 372.218 69.097, 371.964 68.792, 362 52.814 C 339.140 16.156, 336.812 12.466, 336.043 11.670 C 335.602 11.214, 332.795 14.364, 329.805 18.670 C 326.815 22.977, 309.352 47.875, 290.999 74 C 272.646 100.125, 254.900 125.432, 251.565 130.239 L 245.500 138.977 173.856 138.989 L 102.212 139 88.476 164.250 C 70.175 197.892, 55.391 224.127, 33.671 261.500 C 23.763 278.550, 12.136 298.575, 7.835 306 L 0.014 319.500 47.757 320.106 C 74.016 320.439, 113.725 320.786, 136 320.877 L 176.500 321.042 186.179 335.771 C 211.141 373.754, 259.320 446.581, 259.941 447.268 C 260.323 447.690, 262.149 445.890, 263.998 443.268 C 265.847 440.645, 270.684 433.900, 274.747 428.278 L 282.134 418.057 286.922 423.778 C 306.770 447.493, 334.794 467.012, 365.418 478.453 C 411.812 495.785, 458.373 494.976, 502.430 476.072 C 584.916 440.678, 652.367 341.980, 669.685 231.333 C 672.014 216.456, 672.330 211.420, 672.410 188 C 672.469 170.622, 672.041 158.402, 671.166 152.500 C 664.667 108.640, 650.382 77.486, 625.019 51.861 C 601.537 28.135, 574.765 14.933, 541.022 10.440 C 529.631 8.923, 519.778 8.811, 507.996 10.064 M 308.393 57.210 C 293.620 78.269, 277.561 101.125, 272.708 108 C 267.854 114.875, 260.421 125.549, 256.191 131.719 L 248.500 142.938 176.870 142.969 L 105.240 143 94.120 163.457 C 88.004 174.708, 83 184.155, 83 184.450 C 83 184.745, 115.686 185.102, 155.635 185.243 L 228.271 185.500 241.361 206.750 C 248.561 218.438, 254.748 228, 255.109 228 C 255.471 228, 272.077 203.363, 292.010 173.250 C 311.944 143.137, 328.611 118.107, 329.049 117.628 C 329.487 117.148, 331.259 119.173, 332.988 122.128 C 334.717 125.082, 337.383 129.525, 338.913 132 C 345.224 142.214, 377.700 195.176, 382.895 203.725 L 388.500 212.949 483.205 212.975 L 577.909 213 578.498 209.750 C 578.822 207.963, 578.955 197.950, 578.793 187.500 L 578.500 168.500 503.500 168.215 L 428.500 167.931 417.613 150.440 C 411.625 140.820, 406.407 132.751, 406.016 132.510 C 405.626 132.269, 397.727 136.330, 388.463 141.536 C 379.199 146.741, 371.360 151, 371.043 151 C 370.518 151, 366.539 144.944, 342.792 108.002 L 335.083 96.010 344.792 88.716 C 350.131 84.704, 357.538 79.279, 361.250 76.660 C 364.962 74.041, 368 71.687, 368 71.427 C 368 71.045, 336.361 20.206, 335.503 19.210 C 335.365 19.050, 323.166 36.150, 308.393 57.210 M 723.843 20.995 C 725.681 21.430, 727.706 22.306, 728.343 22.943 C 729.156 23.756, 729.500 31.387, 729.500 48.631 C 729.500 71.759, 729.389 73.242, 727.559 74.581 C 726.491 75.361, 724.504 76, 723.142 76 C 721.781 76, 721.001 76.334, 721.409 76.743 C 722.465 77.798, 746 77.920, 746 76.869 C 746 76.391, 744.907 76, 743.571 76 C 738.861 76, 738 73.827, 738 61.929 L 738 51 740.972 51 C 743.596 51, 744.857 52.249, 751.722 61.656 C 764.204 78.756, 763.037 77.728, 769.712 77.499 C 779.399 77.165, 779.875 76.996, 775.566 75.418 C 773.403 74.626, 770.765 73.195, 769.704 72.239 C 767.695 70.428, 753 50.625, 753 49.729 C 753 49.447, 754.117 48.937, 755.482 48.594 C 759.447 47.599, 764.874 42.180, 765.966 38.127 C 767.205 33.523, 765.864 28.160, 762.738 25.223 C 757.985 20.758, 754.108 19.993, 736.782 20.102 C 726.439 20.167, 721.719 20.493, 723.843 20.995 M 739.750 23.639 C 738.210 24.086, 738 25.575, 738 36.073 C 738 47.782, 738.041 48, 740.250 47.976 C 745.271 47.923, 750.494 45.968, 753.412 43.050 C 756.033 40.429, 756.500 39.211, 756.500 35 C 756.500 28.354, 752.441 23.946, 745.872 23.456 C 743.467 23.277, 740.712 23.359, 739.750 23.639 M 500.609 97.996 C 479.624 100.634, 452.596 109.511, 423.750 123.239 C 416.738 126.576, 411 129.735, 411 130.258 C 411 131.292, 428.422 159.397, 430.832 162.250 C 432.215 163.887, 437.014 164, 505.269 164 L 578.227 164 577.554 159.250 C 576.187 149.600, 572.685 138.250, 568.280 129.192 C 560.567 113.332, 548.980 103.720, 532.500 99.511 C 524.973 97.588, 509.642 96.860, 500.609 97.996 M 329.533 351.946 C 328.612 353.437, 335.334 360.516, 349 372.447 C 373.885 394.171, 395.834 404.519, 419.552 405.708 C 442.091 406.837, 463.242 399.240, 484.635 382.329 C 491.909 376.579, 512.538 356.619, 514.046 353.873 C 514.860 352.390, 512.655 352.235, 489.220 352.129 C 475.074 352.065, 433.531 351.716, 396.903 351.355 C 344.156 350.834, 330.145 350.957, 329.533 351.946 M 98 576.006 C 87.992 578.699, 81.155 582.156, 75.139 587.565 C 70.136 592.063, 64 600.312, 64 602.539 C 64 603.196, 71.171 606.433, 79.935 609.731 L 95.870 615.727 97.052 612.875 C 98.723 608.841, 105.173 603.324, 109.679 602.072 C 122.424 598.533, 134.680 604.184, 138.937 615.562 C 142.301 624.553, 143.313 624, 123.500 624 L 106 624 106 635.063 L 106 646.125 123.020 645.916 C 132.381 645.801, 140.255 645.921, 140.517 646.183 C 140.779 646.445, 140.309 648.965, 139.472 651.783 C 136.392 662.152, 129.030 667.379, 117.500 667.379 C 106.712 667.379, 99.120 662.380, 95.906 653.161 C 95.300 651.422, 94.349 650, 93.792 650 C 93.235 650, 86.867 651.637, 79.640 653.637 C 72.413 655.637, 65.263 657.488, 63.750 657.750 C 60.198 658.366, 60.276 659.855, 64.250 667.347 C 70.707 679.519, 82.874 688.867, 97.275 692.719 C 106.040 695.064, 129.264 695.115, 137.595 692.808 C 157.496 687.298, 170.155 674.690, 175.637 654.920 C 176.955 650.168, 177.428 644.732, 177.458 634 C 177.492 621.556, 177.168 618.437, 175.168 612 C 169.635 594.188, 158.649 582.937, 141.244 577.257 C 130.230 573.662, 108.993 573.048, 98 576.006 M 233.001 576.134 C 222.802 578.871, 216.621 582.373, 209.425 589.491 C 198.418 600.378, 194.048 613.170, 194.017 634.590 C 193.996 649.493, 196.313 659.544, 201.962 669.052 C 207.293 678.026, 217.224 687.185, 224.683 690.007 C 243.109 696.980, 268.846 696.430, 283.292 688.754 C 293.671 683.239, 304.474 668.887, 306.497 657.927 L 307.156 654.353 292.828 650.038 C 284.948 647.665, 277.873 645.673, 277.108 645.612 C 276.261 645.544, 274.940 647.796, 273.739 651.356 C 269.549 663.772, 259.072 669.896, 246.982 666.996 C 240.252 665.381, 234.738 660.522, 232.464 654.205 C 230.172 647.836, 229.344 628.804, 231.015 620.927 C 231.714 617.635, 233.576 612.906, 235.153 610.420 C 240.424 602.109, 253.124 598.602, 262.509 602.865 C 266.580 604.714, 272.987 611.069, 273.015 613.285 C 273.065 617.218, 274.367 617.269, 289.617 613.931 C 297.803 612.140, 304.900 610.325, 305.390 609.897 C 305.888 609.462, 304.696 605.787, 302.682 601.545 C 295.941 587.351, 285.022 578.784, 269.500 575.511 C 259.318 573.364, 242.236 573.655, 233.001 576.134 M 402.504 576.117 C 394.082 577.343, 386.111 581.563, 382.892 586.500 C 381.458 588.700, 378.103 595.862, 375.438 602.416 C 370.071 615.612, 367.070 620, 363.411 620 L 361 620 361 598 L 361 576 343 576 L 325 576 325 634.500 L 325 693 343 693 L 361 693 361 670 C 361 647.423, 361.038 647, 363.066 647 C 368.619 647, 370.928 650.300, 381.791 673.765 C 386.053 682.969, 389.894 691.063, 390.329 691.750 C 390.917 692.682, 396.194 693, 411.059 693 C 422.027 693, 431 692.771, 431 692.490 C 431 691.206, 410.419 651.025, 407.836 647.266 C 403.976 641.650, 399.377 637.341, 394.554 634.821 C 390.800 632.860, 390.703 632.692, 392.554 631.361 C 397.767 627.614, 400.603 623.842, 404.465 615.520 C 410.223 603.115, 413.222 600.757, 424.500 599.764 L 427.500 599.500 427.781 587.250 L 428.062 575 418.281 575.122 C 412.901 575.189, 405.802 575.637, 402.504 576.117 M 444 634.527 L 444 693.053 458.750 692.777 L 473.500 692.500 473.500 649.799 C 473.500 626.314, 473.797 607.414, 474.161 607.799 C 474.525 608.185, 477.113 617.500, 479.912 628.500 C 482.712 639.500, 487.553 658.525, 490.671 670.777 L 496.339 693.054 509.830 692.777 L 523.320 692.500 532.165 658 C 537.029 639.025, 542.091 619.450, 543.414 614.500 L 545.818 605.500 545.909 649.250 L 546 693 561 693 L 576 693 576 634.500 L 576 576 552.039 576 L 528.077 576 527.102 579.750 C 517.405 617.041, 511 642.428, 511 643.569 C 511 644.356, 510.615 645, 510.145 645 C 509.674 645, 507.201 636.788, 504.650 626.750 C 502.098 616.712, 498.141 601.188, 495.856 592.250 L 491.702 576 467.851 576 L 444 576 444 634.527" stroke="none" fill="#ffffff" fill-rule="evenodd"/>
</svg>