<svg xmlns="http://www.w3.org/2000/svg" width="800" height="152" viewBox="0 0 800 152" version="1.1">
	<path d="M 355.568 26.438 C 350.305 33.278, 346 39.092, 346 39.357 C 346 39.623, 353.742 39.890, 363.204 39.952 C 382.372 40.077, 384.019 40.314, 388.982 43.655 C 393.612 46.773, 399.263 46.715, 405.581 43.485 C 424.025 34.054, 440.058 35.081, 445.669 46.053 C 450.581 55.657, 447.579 65, 439.581 65 C 435.720 65, 434 63.017, 434 58.566 C 434 52.717, 426.377 50.144, 418.633 53.380 C 414.747 55.004, 409.204 61.597, 406.199 68.171 C 405.025 70.740, 403.179 73.462, 402.096 74.220 C 400.140 75.590, 400.140 75.606, 402.117 76.841 C 403.212 77.525, 405.009 80.188, 406.111 82.759 C 408.866 89.186, 414.467 95.750, 418.707 97.522 C 426.506 100.781, 434 98.505, 434 92.878 C 434 87.987, 435.612 86, 439.581 86 C 445.080 86, 448 89.566, 448 96.283 C 448 106.649, 440.172 114, 429.136 114 C 423.782 114, 413.174 111.130, 406.590 107.899 C 400.691 105.005, 393.402 104.045, 391.450 105.906 C 390.927 106.404, 388.700 107.828, 386.500 109.070 C 382.886 111.111, 380.733 111.385, 364.196 111.914 L 345.893 112.500 355.600 125.250 L 365.306 138 412.403 137.945 L 459.500 137.890 467.023 127.695 C 471.161 122.088, 480.724 109.346, 488.273 99.381 C 495.823 89.415, 502 80.933, 502 80.531 C 502 80.130, 486.363 80.112, 467.250 80.491 C 429.441 81.241, 429.814 81.178, 428.645 87.024 C 427.685 91.823, 420.926 92.375, 416.268 88.035 C 412.015 84.073, 410.883 72.740, 414.046 65.797 C 415.568 62.458, 420.645 59.720, 424.500 60.158 C 426.877 60.429, 427.720 61.179, 428.558 63.772 C 430.692 70.377, 429.274 70.126, 467.448 70.633 C 497.406 71.031, 502.039 70.898, 501.326 69.659 C 500.872 68.870, 491.275 56.033, 480 41.134 L 459.500 14.043 412.318 14.022 L 365.135 14 355.568 26.438 M 328.346 62.274 L 318.191 75.743 327.946 88.622 L 337.701 101.500 357.100 101.474 C 379.487 101.444, 382.018 100.874, 387.850 94.547 C 391.029 91.098, 392.111 88.922, 393.068 84.058 C 393.884 79.914, 394.953 77.446, 396.360 76.460 C 398.088 75.250, 398.157 75, 396.761 75 C 395.128 75, 394.229 72.738, 392.518 64.317 C 391.618 59.889, 384.976 52.665, 380.336 51.067 C 377.925 50.237, 369.442 49.571, 357.500 49.275 L 338.500 48.804 328.346 62.274 M 122.500 61.537 C 120.300 62.325, 118.399 62.977, 118.276 62.985 C 118.152 62.993, 117.301 64.451, 116.384 66.224 C 114.009 70.818, 114.104 78.780, 116.586 83.040 C 120.633 89.985, 130.932 90.435, 136.426 83.905 C 138.600 81.322, 139 79.859, 139 74.500 C 139 69.160, 138.597 67.674, 136.456 65.130 C 134.157 62.398, 132.805 61.653, 128 60.473 C 127.175 60.270, 124.700 60.749, 122.500 61.537 M 148.921 61.150 C 144.890 61.974, 143 64.332, 143 68.536 C 143 72.288, 144.846 74.148, 151.324 76.925 C 154.847 78.435, 156.055 79.466, 155.803 80.746 C 155.521 82.176, 154.373 82.504, 149.584 82.524 C 144.479 82.545, 143.606 82.833, 142.907 84.723 C 142.048 87.045, 142.296 87.206, 148.747 88.504 C 152.855 89.331, 158.544 87.490, 160.497 84.701 C 164.051 79.627, 161.345 74.687, 153.250 71.471 C 150.215 70.265, 149 69.207, 149 67.768 C 149 65.937, 149.502 65.794, 154.486 66.207 C 159.152 66.594, 160.059 66.390, 160.551 64.840 C 160.869 63.838, 160.878 62.611, 160.571 62.115 C 159.810 60.884, 152.986 60.319, 148.921 61.150 M 532.466 61.229 C 532.174 61.989, 532.062 68.211, 532.218 75.055 L 532.500 87.500 541.250 87.789 L 550 88.078 550 85.039 L 550 82 544 82 C 538.267 82, 538 81.889, 538 79.500 C 538 77.368, 538.478 76.984, 541.250 76.894 C 548.296 76.663, 548.491 76.582, 548.816 73.750 C 549.128 71.041, 549.049 71, 543.566 71 C 538.326 71, 538 70.857, 538 68.550 C 538 66.269, 538.396 66.079, 543.750 65.800 C 549.137 65.519, 549.500 65.342, 549.500 63 C 549.500 60.562, 549.296 60.492, 541.248 60.173 C 534.920 59.923, 532.872 60.169, 532.466 61.229 M 554.667 60.750 C 554.419 61.163, 554.280 67.350, 554.358 74.500 L 554.500 87.500 557.250 87.816 L 560 88.133 560 79.486 L 560 70.839 566.271 79.169 C 570.304 84.526, 573.338 87.614, 574.771 87.820 C 576.986 88.137, 577 88.051, 577 74.003 L 577 59.867 574.250 60.184 L 571.500 60.500 571.500 68.771 C 571.500 74.528, 571.196 76.628, 570.500 75.678 C 559.961 61.306, 556.369 57.919, 554.667 60.750 M 588.108 61.716 C 581.582 64.931, 579.179 76.034, 583.560 82.729 C 585.943 86.370, 590.719 88.281, 596.132 87.761 C 603.016 87.100, 604.150 85.816, 603.795 79.090 L 603.500 73.500 598 73.500 C 593.794 73.500, 592.500 73.851, 592.500 74.990 C 592.500 75.864, 593.741 76.695, 595.500 77 C 597.891 77.414, 598.500 78.025, 598.500 80.010 C 598.500 82.073, 597.959 82.553, 595.342 82.807 C 588.047 83.514, 584.748 72.463, 590.675 67.178 C 592.687 65.384, 594.210 64.929, 597.368 65.178 C 600.719 65.442, 601.524 65.161, 601.827 63.620 C 602.030 62.586, 601.590 61.355, 600.848 60.885 C 598.631 59.480, 591.735 59.930, 588.108 61.716 M 607.542 60.792 C 606.428 61.905, 607.054 64, 608.500 64 C 609.733 64, 610 65.778, 610 74 C 610 82.429, 609.753 84, 608.427 84 C 607.468 84, 606.983 84.684, 607.186 85.750 C 607.449 87.130, 608.732 87.563, 613.260 87.800 C 618.477 88.073, 619 87.913, 619 86.050 C 619 84.894, 618.346 84, 617.500 84 C 616.267 84, 616 82.222, 616 74 C 616 65.571, 616.247 64, 617.573 64 C 618.533 64, 619.016 63.318, 618.810 62.250 C 618.546 60.871, 617.371 60.473, 613.279 60.375 C 610.421 60.306, 607.839 60.494, 607.542 60.792 M 623.436 61.305 C 623.161 62.023, 623.062 68.211, 623.218 75.055 L 623.500 87.500 626 87.500 C 628.465 87.500, 628.500 87.383, 628.500 79.248 C 628.500 74.710, 628.572 70.998, 628.660 70.998 C 628.748 70.999, 631.654 74.825, 635.116 79.500 C 639.832 85.867, 641.987 88, 643.706 88 C 645.985 88, 646 87.910, 646 74.500 C 646 66.250, 645.611 60.951, 645 60.875 C 640.399 60.300, 640.500 60.123, 640.500 68.752 C 640.500 76.266, 640.367 76.827, 639 75.081 C 638.175 74.028, 635.250 70.214, 632.500 66.608 C 627.705 60.318, 624.528 58.460, 623.436 61.305 M 651 74 L 651 88.078 659.750 87.789 C 668.340 87.505, 668.500 87.454, 668.500 85 C 668.500 82.658, 668.137 82.481, 662.750 82.200 C 657.396 81.921, 657 81.731, 657 79.450 C 657 77.374, 657.497 76.984, 660.250 76.894 C 665.863 76.710, 666.974 76.522, 666.987 75.750 C 667.070 70.911, 667.164 71, 662 71 C 657.360 71, 657 70.823, 657 68.550 C 657 66.269, 657.396 66.079, 662.750 65.800 C 668.140 65.519, 668.499 65.343, 668.490 63 C 668.481 60.547, 668.317 60.495, 659.740 60.211 L 651 59.922 651 74 M 673.416 61.359 C 673.152 62.047, 673.062 68.211, 673.218 75.055 L 673.500 87.500 682 87.500 C 690.400 87.500, 690.500 87.471, 690.500 85 C 690.500 82.658, 690.137 82.481, 684.750 82.200 C 679.432 81.923, 679 81.720, 679 79.502 C 679 77.315, 679.460 77.078, 684.250 76.802 C 689.105 76.523, 689.499 76.312, 689.492 74 C 689.485 71.691, 689.084 71.477, 684.242 71.198 C 679.461 70.922, 679 70.685, 679 68.498 C 679 66.280, 679.432 66.077, 684.750 65.800 C 690.137 65.519, 690.500 65.342, 690.500 63 C 690.500 60.550, 690.334 60.496, 682.198 60.303 C 676.319 60.164, 673.756 60.472, 673.416 61.359 M 696.250 60.610 C 695.340 61.015, 695 64.814, 695 74.583 L 695 88 698 88 C 700.970 88, 701 87.944, 701 82.500 C 701 78.533, 701.379 77, 702.358 77 C 703.106 77, 705.360 79.475, 707.369 82.500 C 710.440 87.126, 711.496 88, 714.010 88 C 715.655 88, 717 87.744, 717 87.430 C 717 86.543, 710.711 77.539, 709.838 77.177 C 709.410 76.999, 710.171 75.874, 711.531 74.677 C 715.260 71.392, 715.733 66.964, 712.727 63.469 C 710.568 60.959, 709.493 60.578, 703.885 60.332 C 700.373 60.178, 696.938 60.303, 696.250 60.610 M 720 62.167 C 720 63.175, 720.675 64, 721.500 64 C 722.733 64, 723 65.778, 723 74 C 723 82.222, 722.733 84, 721.500 84 C 720.654 84, 720 84.894, 720 86.050 C 720 87.911, 720.523 88.072, 725.671 87.800 C 731.335 87.500, 734.227 85.393, 730.355 84.385 C 728.677 83.948, 728.530 82.952, 728.816 73.951 C 729.073 65.892, 729.419 64, 730.640 64 C 731.537 64, 732.010 63.291, 731.810 62.250 C 731.538 60.838, 730.365 60.484, 725.737 60.417 C 720.811 60.346, 720 60.594, 720 62.167 M 736 73.997 L 736 88.133 738.660 87.816 L 741.321 87.500 741.097 79 C 740.967 74.067, 741.240 70.920, 741.749 71.500 C 742.230 72.050, 745.246 75.987, 748.451 80.250 C 752.062 85.054, 754.985 88, 756.139 88 C 758.190 88, 758.158 88.275, 758.189 70.500 L 758.207 60.500 755.604 60.184 L 753 59.867 753 68.496 L 753 77.124 746.658 68.812 C 742.754 63.696, 739.486 60.377, 738.158 60.180 C 736.034 59.866, 736 60.084, 736 73.997 M 770.418 60.969 C 769.274 61.432, 767.136 63.238, 765.668 64.982 C 760.662 70.932, 762.538 83.158, 768.967 86.483 C 772.456 88.287, 778.902 88.457, 782.453 86.839 C 784.792 85.774, 785 85.162, 785 79.339 L 785 73 779.500 73 C 774.667 73, 774 73.242, 774 75 C 774 76.565, 774.667 77, 777.066 77 C 779.822 77, 780.101 77.279, 779.816 79.750 C 779.569 81.905, 778.909 82.568, 776.769 82.815 C 769.824 83.615, 766.174 72.735, 771.576 67.333 C 773.768 65.141, 774.799 64.830, 778.494 65.246 C 782.268 65.672, 782.907 65.464, 783.380 63.654 C 783.680 62.509, 783.379 61.225, 782.712 60.801 C 781.119 59.788, 773.065 59.898, 770.418 60.969 M 13 63.500 C 13 65.750, 13.400 66, 17 66 L 21 66 21 77 L 21 88 24 88 L 27 88 27 77 L 27 66 31.500 66 C 35.633 66, 36 65.796, 36 63.500 L 36 61 24.500 61 L 13 61 13 63.500 M 39 74.500 L 39 88 42 88 C 44.973 88, 45 87.950, 45 82.450 C 45 75.776, 46.321 75.960, 50.964 83.282 C 53.452 87.205, 54.465 88, 56.978 88 C 58.640 88, 60 87.654, 60 87.231 C 60 86.809, 58.515 84.264, 56.700 81.577 L 53.400 76.691 55.700 74.391 C 58.986 71.105, 58.829 65.797, 55.365 63.073 C 53.281 61.433, 51.296 61, 45.865 61 L 39 61 39 74.500 M 64 71.889 C 64 80.770, 64.323 83.177, 65.750 84.939 C 69.438 89.491, 80.427 89.343, 83.453 84.700 C 84.429 83.204, 84.950 79.143, 85.083 72 L 85.278 61.500 82.639 61.184 L 80 60.867 80 69.999 C 80 80.547, 79.088 83, 75.165 83 C 70.648 83, 70 81.468, 70 70.800 L 70 61 67 61 L 64 61 64 71.889 M 90.667 61.667 C 90.300 62.033, 90 68.155, 90 75.269 L 90 88.205 98.588 87.853 C 106.180 87.541, 107.399 87.226, 109.088 85.139 C 111.758 81.842, 111.546 77.574, 108.595 75.254 C 106.277 73.430, 106.259 73.319, 108.095 72.173 C 110.868 70.441, 110.675 64.586, 107.777 62.557 C 105.516 60.973, 92.061 60.273, 90.667 61.667 M 166 74.500 L 166 88 169 88 C 171.970 88, 172 87.944, 172 82.500 L 172 77 177 77 L 182 77 182 82.500 C 182 87.944, 182.030 88, 185 88 L 188 88 188 74.434 L 188 60.867 185.250 61.184 C 182.685 61.479, 182.480 61.853, 182.198 66.750 L 181.895 72 176.948 72 L 172 72 172 66.500 C 172 61.056, 171.970 61, 169 61 L 166 61 166 74.500 M 193.702 61.750 C 193.473 62.163, 193.334 68.125, 193.393 75 L 193.500 87.500 196.250 87.816 C 198.885 88.120, 199 87.946, 199 83.694 L 199 79.254 204.191 78.756 C 208.220 78.369, 209.899 77.656, 211.691 75.573 C 215.415 71.243, 214.209 64.328, 209.343 62.110 C 206.615 60.867, 194.349 60.585, 193.702 61.750 M 217.162 71.898 C 217.442 80.913, 217.830 83.160, 219.409 84.902 C 222.106 87.879, 227.703 89.197, 232.280 87.933 C 237.734 86.427, 239 83.234, 239 70.983 L 239 60.867 236.250 61.184 L 233.500 61.500 233 72 L 232.500 82.500 229.044 82.829 C 223.952 83.313, 223 81.341, 223 70.309 L 223 61 219.912 61 L 216.823 61 217.162 71.898 M 244 74.500 L 244 88 247.103 88 L 250.205 88 249.853 79.750 L 249.500 71.500 255.590 79.500 C 260.130 85.463, 262.358 87.581, 264.340 87.816 L 267 88.133 267 74.566 L 267 61 264.040 61 L 261.081 61 260.790 68.940 L 260.500 76.881 254.512 68.940 C 250.126 63.124, 247.919 61, 246.262 61 C 244.024 61, 244 61.145, 244 74.500 M 270 63.500 C 270 65.750, 270.400 66, 274 66 L 278 66 278 77 L 278 88 281 88 L 284 88 284 77 L 284 66 288.500 66 C 292.633 66, 293 65.796, 293 63.500 L 293 61 281.500 61 L 270 61 270 63.500 M 97.750 65.692 C 96.585 65.995, 96 67.126, 96 69.073 C 96 71.612, 96.371 72, 98.800 72 C 100.340 72, 102.140 71.460, 102.800 70.800 C 104.210 69.390, 104.409 66, 103.082 66 C 102.577 66, 101.564 65.828, 100.832 65.619 C 100.099 65.409, 98.713 65.442, 97.750 65.692 M 701 69 C 701 73.271, 702.254 74.005, 706.066 71.965 C 708.398 70.717, 708.634 66.457, 706.418 65.607 C 702.319 64.034, 701 64.860, 701 69 M 45 69.500 C 45 72.519, 45.327 73, 47.378 73 C 50.413 73, 52.351 70.681, 51.515 68.048 C 51.055 66.597, 50.010 66, 47.933 66 C 45.248 66, 45 66.296, 45 69.500 M 122.655 67.829 C 120.289 70.443, 120.401 79.148, 122.829 81.345 C 125.244 83.531, 129.284 83.448, 131.345 81.171 C 133.468 78.825, 133.526 71.196, 131.443 68.223 C 129.521 65.478, 124.967 65.274, 122.655 67.829 M 199.667 66.667 C 198.386 67.947, 198.999 73.062, 200.502 73.639 C 204.840 75.304, 209.651 70.695, 206.960 67.452 C 205.735 65.975, 200.881 65.453, 199.667 66.667 M 96 79.974 C 96 83.578, 98 84.738, 101.867 83.378 C 103.753 82.715, 104.500 81.749, 104.500 79.976 C 104.500 77.778, 104.023 77.465, 100.250 77.193 C 96.101 76.892, 96 76.958, 96 79.974 M 532 108.500 C 532 109.500, 533 110, 535 110 L 538 110 538 118 C 538 124.444, 538.292 126, 539.500 126 C 540.708 126, 541 124.444, 541 118 L 541 110 544 110 C 546 110, 547 109.500, 547 108.500 C 547 107.300, 545.500 107, 539.500 107 C 533.500 107, 532 107.300, 532 108.500 M 576.903 108.250 C 576.215 117.149, 576.627 126, 577.730 126 C 578.580 126, 579 124.413, 579 121.200 C 579 115.945, 580.238 114, 583.583 114 C 586.081 114, 586.777 115.798, 586.613 121.835 C 586.539 124.562, 586.932 126.001, 587.750 126.001 C 588.608 126, 589 124.157, 589 120.122 C 589 113.124, 587.626 111.474, 582.492 112.308 C 579.167 112.847, 579 112.734, 579 109.937 C 579 107.145, 577.107 105.622, 576.903 108.250 M 628.424 108.338 C 628.141 109.075, 628.043 113.237, 628.205 117.588 C 628.496 125.393, 628.537 125.504, 631.250 125.816 C 632.763 125.990, 634 125.653, 634 125.066 C 634 124.480, 633.325 124, 632.500 124 C 631.284 124, 631 122.389, 631 115.500 C 631 110.328, 630.596 107, 629.969 107 C 629.401 107, 628.706 107.602, 628.424 108.338 M 150.500 110 C 150.160 110.550, 150.359 111, 150.941 111 C 152.449 111, 152.321 125.279, 150.800 126.800 C 149.867 127.733, 150.422 128, 153.300 128 C 155.335 128, 157 127.550, 157 127 C 157 126.450, 156.550 126, 156 126 C 155.422 126, 155 122.833, 155 118.500 C 155 114.167, 155.422 111, 156 111 C 156.550 111, 157 110.550, 157 110 C 157 109.450, 155.677 109, 154.059 109 C 152.441 109, 150.840 109.450, 150.500 110 M 254 110.500 C 254 111.325, 254.675 112, 255.500 112 C 256.325 112, 257 111.325, 257 110.500 C 257 109.675, 256.325 109, 255.500 109 C 254.675 109, 254 109.675, 254 110.500 M 243 112.417 C 243 113.196, 242.438 114.096, 241.750 114.417 C 240.750 114.883, 240.750 115.117, 241.750 115.583 C 242.498 115.932, 243 118.113, 243 121.012 C 243 126.190, 245.103 129.558, 247.711 128.558 C 248.510 128.251, 249.352 128, 249.582 128 C 249.812 128, 250 127.550, 250 127 C 250 126.450, 249.100 126, 248 126 C 246.267 126, 246 125.333, 246 121 C 246 116.667, 246.267 116, 248 116 C 249.100 116, 250 115.550, 250 115 C 250 114.450, 249.100 114, 248 114 C 246.889 114, 246 113.333, 246 112.500 C 246 111.675, 245.325 111, 244.500 111 C 243.675 111, 243 111.638, 243 112.417 M 547.655 113.829 C 545.956 115.706, 545.439 121.570, 546.786 123.687 C 547.919 125.470, 552.197 126.749, 554.809 126.086 C 558.174 125.232, 557.045 123.546, 553.323 123.867 C 551.019 124.065, 549.860 123.608, 549.108 122.202 C 547.681 119.536, 548.547 119, 554.275 119 C 559.162 119, 559.209 118.970, 558.529 116.260 C 558.151 114.753, 557.315 113.185, 556.671 112.775 C 554.478 111.380, 549.326 111.982, 547.655 113.829 M 563.571 113.571 C 561.566 115.577, 561.470 123.315, 563.431 124.942 C 565.300 126.494, 570.775 126.625, 572.246 125.154 C 573.118 124.282, 572.490 124, 569.679 124 C 566.679 124, 565.736 123.515, 564.818 121.500 C 563.068 117.659, 565.098 114, 568.979 114 C 570.640 114, 572 113.550, 572 113 C 572 111.395, 565.293 111.849, 563.571 113.571 M 594 119.217 C 594 123.072, 594.432 126, 595 126 C 595.550 126, 596 123.840, 596 121.200 C 596 115.940, 597.238 114, 600.593 114 C 603.229 114, 604 115.717, 604 121.582 C 604 124.012, 604.450 126, 605 126 C 606.184 126, 606.330 115.068, 605.171 113.242 C 604.663 112.442, 602.482 112.066, 599.186 112.209 L 594 112.435 594 119.217 M 611.411 114.496 C 609.521 117.380, 610.137 123.039, 612.561 125.051 C 613.391 125.739, 615.513 126.261, 617.277 126.211 C 623.065 126.047, 625.983 119.276, 622.443 114.223 C 620.139 110.933, 613.640 111.094, 611.411 114.496 M 637.557 114.223 C 636.701 115.445, 636 117.595, 636 119 C 636 123.386, 638.614 126, 643 126 C 647.386 126, 650 123.386, 650 119 C 650 114.614, 647.386 112, 643 112 C 640.117 112, 638.711 112.574, 637.557 114.223 M 655.790 113.058 C 653.161 114.590, 652.435 120.488, 654.488 123.623 C 655.964 125.875, 656.723 126.166, 659.978 125.730 C 663.307 125.283, 663.696 125.447, 663.261 127.112 C 662.763 129.014, 661.387 129.473, 657.250 129.118 C 654.096 128.847, 654.434 130.820, 657.681 131.635 C 659.330 132.049, 661.350 131.754, 662.931 130.869 C 665.342 129.518, 665.518 128.894, 665.789 120.715 L 666.078 112 661.789 112.030 C 659.430 112.047, 656.731 112.509, 655.790 113.058 M 669 112.407 C 669 112.631, 670.334 115.786, 671.964 119.419 C 674.913 125.993, 675.048 129, 672.393 129 C 671.627 129, 671 129.723, 671 130.607 C 671 131.662, 671.544 132.005, 672.582 131.607 C 673.452 131.273, 674.340 131, 674.556 131 C 675.819 131, 682.573 113.240, 681.658 112.325 C 680.486 111.153, 679.136 113.267, 677.981 118.078 C 676.618 123.761, 676.041 123.590, 673.496 116.750 C 672.524 114.138, 671.114 112, 670.364 112 C 669.614 112, 669 112.183, 669 112.407 M 161.426 114.917 C 161.192 115.146, 161 118.183, 161 121.667 C 161 126.528, 161.336 128, 162.448 128 C 163.485 128, 163.981 126.540, 164.198 122.853 C 164.517 117.421, 166.317 115.140, 169.364 116.309 C 170.606 116.786, 171 118.270, 171 122.469 C 171 126.719, 171.347 128, 172.500 128 C 173.636 128, 174 126.770, 174 122.934 C 174 115.234, 172.900 113.888, 166.876 114.222 C 164.113 114.375, 161.660 114.688, 161.426 114.917 M 179.005 121.250 C 179.002 125.087, 179.432 128, 180 128 C 180.550 128, 181 125.840, 181 123.200 C 181 117.945, 182.238 116, 185.583 116 C 188.027 116, 188.965 118.274, 188.986 124.250 C 188.994 126.313, 189.450 128, 190 128 C 191.571 128, 191.235 116.440, 189.625 115.104 C 188.869 114.476, 186.171 114.084, 183.630 114.231 L 179.010 114.500 179.005 121.250 M 196.557 116.223 C 192.945 121.380, 196.070 128.333, 202 128.333 C 207.930 128.333, 211.055 121.380, 207.443 116.223 C 206.289 114.574, 204.883 114, 202 114 C 199.117 114, 197.711 114.574, 196.557 116.223 M 210.997 114.750 C 210.991 116.411, 216.358 128, 217.133 128 C 218.008 128, 222.244 120.105, 223.438 116.250 C 224.836 111.737, 221.866 114.055, 219.761 119.121 L 217.633 124.241 215.373 119.121 C 214.130 116.304, 212.638 114, 212.057 114 C 211.475 114, 210.999 114.338, 210.997 114.750 M 227.667 114.667 C 226.217 116.117, 227.166 116.723, 230.717 116.614 C 233.511 116.528, 234.522 116.934, 234.790 118.250 C 235.075 119.647, 234.452 120, 231.696 120 C 227.718 120, 225.705 121.893, 226.173 125.195 C 226.469 127.285, 227.037 127.508, 232.250 127.585 L 238 127.669 238 122.769 C 238 115.848, 236.763 114, 232.131 114 C 230.043 114, 228.033 114.300, 227.667 114.667 M 254 120.917 C 254 126.639, 254.297 128, 255.546 128 C 256.815 128, 257.039 126.807, 256.796 121.330 C 256.608 117.107, 256.041 114.508, 255.250 114.246 C 254.329 113.942, 254 115.696, 254 120.917 M 262.557 116.223 C 258.945 121.380, 262.070 128.333, 268 128.333 C 273.930 128.333, 277.055 121.380, 273.443 116.223 C 272.289 114.574, 270.883 114, 268 114 C 265.117 114, 263.711 114.574, 262.557 116.223 M 279 121 C 279 125, 279.429 128, 280 128 C 280.550 128, 281 126.170, 281 123.934 C 281 118.661, 282.485 116, 285.428 116 C 288.228 116, 289 117.640, 289 123.582 C 289 129.330, 290.694 129.318, 291.151 123.567 C 291.718 116.436, 290.912 114.548, 287.145 114.182 C 285.344 114.007, 283.224 114.399, 282.435 115.054 C 281.414 115.901, 281 115.921, 281 115.122 C 281 114.505, 280.550 114, 280 114 C 279.429 114, 279 117, 279 121 M 549.535 114.943 C 548.441 116.713, 549.955 118, 553.132 118 C 555.463 118, 556.071 117.603, 555.815 116.250 C 555.441 114.277, 550.573 113.264, 549.535 114.943 M 614.200 115.200 C 612.546 116.854, 612.693 121.500, 614.445 122.954 C 616.770 124.884, 620.452 123.843, 620.833 121.148 C 621.434 116.905, 620.153 114, 617.681 114 C 616.426 114, 614.860 114.540, 614.200 115.200 M 639.607 115.582 C 637.753 120.412, 639.986 124.423, 644.195 123.827 C 646.699 123.472, 647.617 120.594, 646.564 116.398 C 646.103 114.563, 645.287 114, 643.088 114 C 641.390 114, 639.966 114.647, 639.607 115.582 M 657.200 115.200 C 656.540 115.860, 656 117.570, 656 119 C 656 122.018, 657.651 124, 660.165 124 C 662.358 124, 663.839 121.300, 663.457 118 C 663.297 116.625, 663.129 115.162, 663.083 114.750 C 662.950 113.547, 658.514 113.886, 657.200 115.200 M 199.200 117.200 C 197.546 118.854, 197.693 123.500, 199.445 124.954 C 200.240 125.614, 201.927 126.006, 203.195 125.827 C 204.991 125.572, 205.570 124.768, 205.818 122.185 C 206.316 117.002, 202.370 114.030, 199.200 117.200 M 265.200 117.200 C 263.906 118.494, 263.629 121.869, 264.607 124.418 C 264.966 125.353, 266.390 126, 268.088 126 C 270.320 126, 271.102 125.441, 271.589 123.500 C 272.614 119.416, 271.290 116, 268.681 116 C 267.426 116, 265.860 116.540, 265.200 117.200 M 229 124.066 C 229 125.729, 229.535 126.071, 231.741 125.816 C 233.395 125.626, 234.615 124.805, 234.815 123.750 C 235.073 122.391, 234.460 122, 232.073 122 C 229.634 122, 229 122.426, 229 124.066" stroke="none" fill="#ffffff" fill-rule="evenodd"/>
</svg>