<svg xmlns="http://www.w3.org/2000/svg" width="800" height="508" viewBox="0 0 800 508" version="1.1">
	<path d="M 153.500 183 C 152.400 183.473, 150.037 183.891, 148.250 183.930 C 146.463 183.968, 145 184.386, 145 184.858 C 145 185.330, 143.088 186.142, 140.750 186.663 C 137.427 187.404, 135.345 187.225, 131.205 185.844 C 124.864 183.728, 115.578 183.598, 113.915 185.603 C 113.277 186.371, 112.114 187, 111.330 187 C 110.076 187, 105.103 190.022, 97 195.706 C 94.336 197.575, 91.291 200.731, 87.707 205.336 C 86.493 206.896, 84.938 208.777, 84.250 209.515 C 83.563 210.253, 83 211.293, 83 211.826 C 83 212.360, 81.880 214.754, 80.512 217.148 C 79.144 219.542, 78.019 222.512, 78.012 223.750 C 78.005 224.988, 77.550 226, 77 226 C 76.450 226, 76 227.088, 76 228.418 C 76 229.748, 75.712 231.586, 75.361 232.502 C 74.851 233.831, 74.551 233.898, 73.876 232.834 C 73.370 232.036, 73.024 234.436, 73.015 238.809 C 73.007 242.999, 73.392 245.876, 73.919 245.550 C 74.424 245.238, 75.153 246.419, 75.539 248.175 C 76.301 251.647, 87.348 263.341, 90.943 264.482 C 92.074 264.841, 93 265.554, 93 266.067 C 93 266.580, 94.125 267, 95.500 267 C 96.875 267, 98 267.450, 98 268 C 98 268.550, 99.237 268.955, 100.750 268.900 C 103.086 268.816, 103.191 268.703, 101.446 268.150 C 100.317 267.793, 98.742 266.941, 97.946 266.257 C 97.151 265.573, 94.530 263.423, 92.122 261.479 C 83.079 254.177, 79.732 247.259, 79.898 236.209 C 79.960 232.074, 80.397 228.198, 80.868 227.596 C 81.339 226.993, 82.015 225.282, 82.371 223.792 C 82.726 222.303, 84.145 219.828, 85.524 218.292 C 91.934 211.154, 94.117 209, 94.942 209 C 95.432 209, 95.983 208.662, 96.167 208.250 C 96.742 206.955, 104.538 202.002, 106.054 201.968 C 106.849 201.951, 108.374 201.276, 109.441 200.468 C 110.509 199.661, 112.673 199, 114.250 199 C 115.907 199, 116.857 198.578, 116.500 198 C 115.943 197.098, 118.628 196.532, 121.675 196.908 C 122.321 196.988, 123.135 196.591, 123.484 196.027 C 123.833 195.462, 124.991 195, 126.059 195 C 127.912 195, 127.921 195.085, 126.250 196.866 C 120.567 202.925, 117.681 206.601, 116.248 209.607 C 115.358 211.473, 114.263 213, 113.815 213 C 113.367 213, 113 213.873, 113 214.941 C 113 216.009, 112.550 217.160, 112 217.500 C 110.586 218.374, 110.757 227.361, 112.250 230.703 C 113.833 234.245, 118.481 238.612, 123 240.803 C 125.529 242.029, 128.997 242.487, 135.500 242.452 C 143.373 242.409, 145.251 242.035, 150.500 239.465 C 158.197 235.696, 159.867 233.615, 156.250 232.301 C 152.837 231.061, 146.007 222.681, 145.836 219.522 C 145.539 214.054, 146.205 206.509, 147.031 205.990 C 147.477 205.709, 148.151 204.247, 148.529 202.740 C 148.907 201.233, 149.618 200, 150.108 200 C 150.599 200, 151 199.499, 151 198.886 C 151 197.107, 161.049 186, 162.658 186 C 163.461 186, 163.840 185.550, 163.500 185 C 163.160 184.450, 163.584 184, 164.441 184 C 165.298 184, 166 183.550, 166 183 C 166 181.792, 156.311 181.792, 153.500 183 M 191.250 204.706 C 190.012 204.944, 189 205.783, 189 206.570 C 189 207.356, 188.463 208, 187.806 208 C 187.149 208, 187.975 209.012, 189.641 210.250 C 195.544 214.634, 201 221.644, 201 224.844 C 201 225.810, 201.527 227.127, 202.171 227.771 C 203.719 229.319, 204.312 242.689, 202.873 243.579 C 202.121 244.043, 202.177 244.491, 203.055 245.034 C 204.066 245.659, 204.037 246.138, 202.912 247.384 C 202.135 248.245, 200.600 250.121, 199.500 251.553 C 197.203 254.544, 187.598 262, 186.043 262 C 185.469 262, 184.085 262.915, 182.967 264.033 C 181.101 265.899, 181.060 266.248, 182.467 268.256 C 184.147 270.654, 184.602 280.510, 183.077 281.452 C 182.569 281.766, 181.858 283.368, 181.497 285.011 C 181.136 286.655, 180.427 288, 179.921 288 C 179.414 288, 179 288.480, 179 289.067 C 179 291.982, 168.025 303.594, 162.415 306.616 C 160.537 307.627, 159 309.027, 159 309.727 C 159 310.427, 158.550 311, 158 311 C 157.450 311, 157 311.501, 157 312.113 C 157 312.795, 158.066 313.013, 159.750 312.675 C 168.411 310.937, 171.276 310.124, 172.280 309.120 C 172.896 308.504, 174.408 308, 175.641 308 C 176.874 308, 178.128 307.602, 178.429 307.115 C 178.729 306.629, 180.219 306.005, 181.738 305.730 C 184.914 305.154, 191.261 302.786, 192 301.901 C 192.275 301.572, 195.650 299.817, 199.500 298 C 203.350 296.183, 206.725 294.428, 207 294.099 C 207.606 293.373, 210.954 291.242, 212.956 290.308 C 217.718 288.085, 222 281.187, 222 275.740 C 222 273.903, 222.473 271.927, 223.050 271.350 C 223.727 270.673, 223.969 264.817, 223.729 254.900 C 223.384 240.579, 222.139 232.078, 220.012 229.514 C 219.526 228.929, 218.971 227.336, 218.778 225.975 C 217.755 218.751, 209.690 206.973, 204.384 204.956 C 201.879 204.003, 195.525 203.882, 191.250 204.706 M 433.250 239.674 C 432.012 240.538, 431 241.709, 431 242.278 C 431 242.846, 429.875 244.786, 428.500 246.589 C 427.125 248.392, 426 250.347, 426 250.933 C 426 251.520, 425.580 252, 425.067 252 C 424.554 252, 423.819 253.012, 423.433 254.250 C 423.046 255.488, 422.454 256.725, 422.115 257 C 421.777 257.275, 421.018 258.373, 420.429 259.440 C 417.793 264.213, 417 262.273, 417 251.052 C 417 242.053, 416.712 239.827, 415.487 239.357 C 411.938 237.995, 411.247 240.548, 411.449 254.267 C 411.652 268.084, 412.631 272, 415.880 272 C 417.819 272, 420.307 269.598, 421.317 266.750 C 421.658 265.788, 422.401 265, 422.969 265 C 423.536 265, 424 264.148, 424 263.107 C 424 262.066, 424.675 260.955, 425.500 260.638 C 426.325 260.322, 427 259.374, 427 258.531 C 427 257.689, 427.450 257, 428 257 C 428.550 257, 429 256.100, 429 255 C 429 253.900, 429.450 253, 430 253 C 430.550 253, 431 252.395, 431 251.655 C 431 250.305, 434.073 247, 435.329 247 C 435.698 247, 436 252.373, 436 258.941 C 436 265.509, 436.427 271.146, 436.950 271.469 C 439.136 272.820, 439.969 267.620, 439.739 254.050 C 439.548 242.770, 439.198 239.735, 438 238.978 C 436.090 237.772, 435.948 237.793, 433.250 239.674 M 474.007 239.491 C 473.020 240.681, 473.992 242.109, 479.450 247.488 C 483.411 251.391, 485.808 254.502, 485.383 255.189 C 483.656 257.984, 473.393 268, 472.256 268 C 470.929 268, 470.521 261.904, 470.946 248.442 C 471.114 243.104, 470.793 241.073, 469.628 240.106 C 467.088 237.999, 466 239.785, 466 246.059 L 466 252 457.548 252 L 449.095 252 448.798 245.750 C 448.529 240.115, 448.276 239.468, 446.225 239.177 L 443.950 238.854 444.225 255.177 C 444.487 270.742, 444.593 271.500, 446.500 271.500 C 448.273 271.500, 448.534 270.735, 448.796 264.750 L 449.091 258 457.546 258 L 466 258 466 264.393 C 466 268.987, 466.399 270.939, 467.417 271.330 C 468.201 271.631, 469.127 271.120, 469.489 270.187 C 470.097 268.617, 470.233 268.622, 471.432 270.250 C 473.581 273.169, 475.504 272.301, 483.072 264.998 C 487.064 261.147, 490.550 258.216, 490.819 258.486 C 491.089 258.755, 491.242 261.344, 491.160 264.238 C 490.963 271.167, 492.122 273.104, 494.939 270.555 C 496.485 269.156, 497 267.468, 497 263.798 L 497 258.907 499.469 260.703 C 500.826 261.691, 501.951 263.063, 501.969 263.750 C 501.986 264.438, 502.337 265.004, 502.750 265.009 C 503.163 265.013, 505.157 266.588, 507.183 268.509 C 509.209 270.429, 511.572 272, 512.433 272 C 515.652 272, 513.822 267.971, 508 262.238 C 504.700 258.989, 502 255.616, 502 254.742 C 502 252.969, 507.601 246.935, 508.455 247.788 C 508.755 248.088, 509 247.787, 509 247.119 C 509 246.451, 510.166 244.824, 511.591 243.504 C 513.016 242.183, 513.889 240.629, 513.532 240.051 C 512.107 237.745, 508.696 239.265, 503.543 244.500 C 500.566 247.525, 497.901 250, 497.620 250 C 497.339 250, 496.972 247.909, 496.805 245.352 C 496.599 242.216, 495.922 240.346, 494.722 239.602 C 492.207 238.044, 490.983 240.337, 491.169 246.258 C 491.251 248.875, 491.021 251.312, 490.659 251.674 C 490.296 252.037, 490 251.808, 490 251.167 C 490 250.525, 489.325 250, 488.500 250 C 487.675 250, 487 249.481, 487 248.846 C 487 247.627, 479.646 240.440, 476.855 238.931 C 475.744 238.331, 474.820 238.512, 474.007 239.491 M 537.780 240.250 C 534.881 243.058, 528.349 252.896, 524.833 259.750 C 522.657 263.992, 522 261.987, 522 251.107 C 522 240.095, 521.631 239, 517.918 239 C 517.399 239, 517 245.856, 517 254.759 C 517 268.824, 517.193 270.639, 518.791 271.638 C 520.197 272.515, 521.058 272.371, 522.791 270.968 C 524.006 269.984, 525 268.689, 525 268.090 C 525 267.490, 525.348 267, 525.773 267 C 526.198 267, 527.409 265.313, 528.466 263.250 C 529.522 261.188, 531.425 258.068, 532.693 256.317 C 533.962 254.566, 535 252.653, 535 252.067 C 535 251.480, 535.398 251, 535.883 251 C 536.369 251, 537.136 249.988, 537.588 248.750 C 538.130 247.264, 538.508 250.065, 538.702 257 C 539.082 270.620, 539.468 272.216, 542.285 271.815 C 544.444 271.508, 544.507 271.122, 544.778 256.609 C 545.016 243.803, 544.820 241.458, 543.373 239.859 C 541.216 237.476, 540.599 237.519, 537.780 240.250 M 599.390 240.611 C 598.351 242.047, 596.938 243.815, 596.250 244.539 C 595.563 245.264, 595 246.564, 595 247.429 C 595 248.293, 594.652 249, 594.227 249 C 593.802 249, 592.566 250.688, 591.480 252.750 C 590.394 254.813, 588.941 257.095, 588.252 257.821 C 587.564 258.548, 587 259.513, 587 259.964 C 587 260.416, 586.419 261.009, 585.709 261.282 C 584.689 261.673, 584.494 259.503, 584.781 250.979 C 585.124 240.786, 585.029 240.144, 583.081 239.526 C 581.946 239.166, 580.564 239.152, 580.009 239.494 C 578.920 240.168, 578.598 265.897, 579.630 269.750 C 580.410 272.658, 584.052 272.731, 586.029 269.877 C 586.838 268.710, 587.975 267.248, 588.556 266.627 C 589.137 266.007, 590.487 263.925, 591.556 262 C 592.625 260.075, 593.725 258.275, 594 258 C 594.716 257.284, 596.892 253.761, 597.706 252 C 598.087 251.175, 599.209 249.628, 600.200 248.561 C 601.942 246.686, 602 246.994, 602.015 258.061 C 602.032 270.723, 602.770 273.373, 605.514 270.629 C 606.958 269.185, 607.186 266.923, 607.055 255.375 C 606.898 241.510, 606.059 238, 602.900 238 C 602.009 238, 600.430 239.175, 599.390 240.611 M 660.944 241.223 C 659.325 242.995, 658 245.020, 658 245.723 C 658 246.425, 657.602 247, 657.117 247 C 656.631 247, 655.969 247.787, 655.646 248.750 C 654.973 250.753, 653.075 253.789, 651.250 255.779 C 650.563 256.529, 650 257.786, 650 258.571 C 650 259.357, 649.550 260, 649 260 C 648.450 260, 648 260.675, 648 261.500 C 648 262.325, 647.564 263, 647.032 263 C 646.478 263, 645.943 257.966, 645.782 251.250 C 645.512 239.982, 645.409 239.487, 643.285 239.185 C 640.211 238.748, 639.721 241.424, 640.147 256.302 C 640.436 266.398, 640.818 268.962, 642.247 270.391 C 644.831 272.974, 647.399 271.622, 651.141 265.707 C 652.952 262.843, 654.674 260.275, 654.967 260 C 655.893 259.131, 660.105 251.576, 660.681 249.750 C 662.085 245.302, 663 248.937, 663 258.965 C 663 269.125, 663.156 270.013, 665.127 271.068 C 668.475 272.860, 668.968 270.860, 668.985 255.405 C 668.998 243.008, 668.780 241.111, 667.171 239.655 C 664.700 237.419, 664.334 237.511, 660.944 241.223 M 276.865 241.250 C 274.883 244.516, 275.842 269.664, 278 271.024 C 280.214 272.419, 296.197 272.175, 298.046 270.718 C 302.638 267.099, 304.826 258.638, 301.500 257.362 C 300.675 257.045, 300 255.757, 300 254.500 C 300 253.243, 300.675 251.955, 301.500 251.638 C 304.487 250.492, 302.509 242.509, 298.558 239.765 C 297.976 239.361, 293.164 239.024, 287.865 239.015 C 278.936 239.001, 278.130 239.165, 276.865 241.250 M 309.904 240.609 C 305.651 243.340, 304.976 245.414, 304.915 255.937 C 304.863 264.742, 305.094 266.094, 306.968 267.968 C 310.141 271.141, 313.336 272, 321.958 272 C 328.191 272, 329.910 271.676, 330.396 270.410 C 331.489 267.562, 330.012 267, 321.441 267 C 316.480 267, 313 266.588, 313 266 C 313 265.450, 312.325 265, 311.500 265 C 310.675 265, 310 264.137, 310 263.082 C 310 262.027, 309.727 260.452, 309.393 259.582 C 308.866 258.208, 310.030 258, 318.237 258 C 326.636 258, 327.985 257.746, 330.344 255.718 C 333.395 253.097, 333.690 250.234, 331.370 245.749 C 328.548 240.292, 327.195 239.544, 319.582 239.232 C 314.295 239.015, 311.842 239.364, 309.904 240.609 M 342.010 239.761 C 341.190 240.072, 339.277 241.569, 337.760 243.087 C 335.139 245.708, 335 246.318, 335 255.236 C 335 264.177, 335.132 264.751, 337.750 267.249 C 341.536 270.861, 345.058 272, 352.443 272 C 356.969 272, 359.125 271.554, 360.063 270.424 C 362.067 268.010, 359.648 267.038, 351.500 266.984 C 343.259 266.928, 341.599 265.937, 340.038 260.141 C 338.261 253.542, 340.139 245.869, 343.945 244.185 C 346.994 242.835, 367.964 242.242, 369.919 243.450 C 370.603 243.872, 371 248.829, 371 256.937 C 371 267.201, 371.304 270.007, 372.524 271.020 C 373.362 271.716, 374.375 271.960, 374.774 271.563 C 375.173 271.166, 375.725 264.690, 376 257.171 L 376.500 243.500 382.250 243.200 C 387.177 242.943, 388 242.622, 388 240.955 C 388 239.083, 387.157 239.013, 365.750 239.103 C 353.512 239.154, 342.829 239.450, 342.010 239.761 M 549.234 239.835 C 548.320 240.415, 547.936 244.593, 547.852 254.900 C 547.752 266.991, 547.988 269.417, 549.403 270.831 C 550.870 272.298, 551.187 272.318, 552.021 271 C 552.543 270.175, 552.976 266.945, 552.985 263.823 C 553.002 257.261, 552.871 257.338, 563.111 257.832 L 570 258.164 570 264.582 C 570 270.778, 570.087 271, 572.525 271 L 575.051 271 574.775 255.250 C 574.513 240.258, 574.404 239.500, 572.500 239.500 C 570.745 239.500, 570.464 240.266, 570.202 245.750 L 569.905 252 561.500 252 L 553.095 252 552.798 245.829 C 552.502 239.703, 551.665 238.294, 549.234 239.835 M 611.580 241.238 C 610.266 243.243, 610.005 246.814, 610.075 261.839 C 610.154 279.030, 610.268 280.073, 612.187 281.100 C 614.828 282.513, 615.795 281.400, 616.183 276.500 L 616.500 272.500 622.500 271.924 C 631.055 271.103, 636 268.485, 636 264.778 C 636 263.800, 636.450 263, 637 263 C 638.816 263, 638.205 248.250, 636.263 245.215 C 632.812 239.822, 632.116 239.517, 622.408 239.156 C 613.553 238.827, 613.103 238.914, 611.580 241.238 M 673.667 239.667 C 672.661 240.673, 672.897 269.289, 673.925 270.912 C 674.684 272.112, 675.058 272.085, 676.409 270.734 C 677.483 269.660, 678 267.332, 678 263.571 L 678 258 685 258 C 688.850 258, 692.337 257.887, 692.750 257.750 C 693.163 257.613, 693.633 260.274, 693.796 263.665 C 694.088 269.761, 695.746 272.893, 697.956 271.527 C 699.262 270.720, 699.389 240.359, 698.090 239.556 C 695.647 238.046, 694.087 240.329, 693.797 245.839 L 693.500 251.500 685.750 251.792 L 678 252.084 678 246.149 C 678 241.660, 677.615 240.066, 676.418 239.607 C 674.460 238.855, 674.478 238.855, 673.667 239.667 M 704.750 240.080 C 703.212 240.976, 703 242.837, 703 255.427 C 703 270.636, 703.707 273.150, 707.253 270.557 C 708.762 269.453, 709 267.492, 709 256.140 L 709 243 717.750 242.985 C 726.963 242.969, 730.804 241.856, 728 240.015 C 726.024 238.718, 706.997 238.771, 704.750 240.080 M 281.050 244.440 C 280.393 245.231, 280.001 247.144, 280.178 248.690 C 280.492 251.431, 280.668 251.507, 287.340 251.798 C 291.522 251.980, 294.728 251.641, 295.590 250.925 C 297.315 249.494, 297.429 245.829, 295.800 244.200 C 294.051 242.451, 282.546 242.637, 281.050 244.440 M 312.250 244.674 C 310.801 245.685, 310 247.269, 310 249.122 L 310 252 319 252 C 329.327 252, 330.296 250.984, 324.777 245.944 C 321.100 242.585, 315.988 242.067, 312.250 244.674 M 616 255 L 616 267 621.750 266.968 C 627.372 266.937, 631 265.436, 631 263.140 C 631 262.513, 631.450 262, 632 262 C 632.567 262, 633 259.113, 633 255.339 C 633 249.116, 632.791 248.492, 629.820 245.839 C 627.171 243.475, 625.751 243, 621.320 243 L 616 243 616 255 M 388.736 252.598 C 387.969 253.364, 389.032 256.280, 390.427 257.235 C 391.724 258.122, 404.196 258.246, 406.418 257.393 C 407.288 257.059, 408 255.709, 408 254.393 C 408 252.040, 407.844 252, 398.667 252 C 393.533 252, 389.064 252.269, 388.736 252.598 M 280.398 258.405 C 280.102 259.177, 280.003 261.315, 280.180 263.155 L 280.500 266.500 287.340 266.798 C 295.242 267.142, 297 266.177, 297 261.494 C 297 257.660, 295.564 257.035, 286.719 257.014 C 282.666 257.004, 280.776 257.420, 280.398 258.405 M 94.813 304.683 C 95.534 304.972, 96.397 304.936, 96.729 304.604 C 97.061 304.272, 96.471 304.036, 95.417 304.079 C 94.252 304.127, 94.015 304.364, 94.813 304.683 M 100.510 307.016 C 100.856 307.575, 101.557 307.774, 102.069 307.457 C 103.456 306.600, 103.198 306, 101.441 306 C 100.584 306, 100.165 306.457, 100.510 307.016 M 105.500 309 C 105.135 309.591, 106.236 309.994, 108.191 309.985 C 110.695 309.973, 111.135 309.734, 110 309 C 108.056 307.744, 106.276 307.744, 105.500 309 M 114 312 C 115.979 313.279, 123 313.279, 123 312 C 123 311.450, 120.638 311.007, 117.750 311.015 C 113.992 311.026, 112.926 311.306, 114 312 M 131.750 314.737 C 134.637 314.939, 139.363 314.939, 142.250 314.737 C 145.137 314.535, 142.775 314.370, 137 314.370 C 131.225 314.370, 128.863 314.535, 131.750 314.737 M 116 322.250 C 116 322.663, 116.702 323, 117.559 323 C 118.416 323, 118.907 323.342, 118.649 323.759 C 117.581 325.488, 133.668 331.012, 139.750 331.005 C 142.088 331.002, 144 331.450, 144 332 C 144 332.550, 146.502 333, 149.559 333 C 152.616 333, 154.875 332.607, 154.579 332.127 C 154.282 331.647, 157.180 330.945, 161.020 330.567 C 164.859 330.188, 168 329.456, 168 328.939 C 168 328.423, 168.902 328, 170.004 328 C 172.369 328, 178.427 324.820, 178.668 323.452 C 178.771 322.863, 169.101 322.619, 153.320 322.813 C 139.286 322.985, 128.030 322.760, 128.306 322.313 C 128.583 321.866, 125.927 321.500, 122.405 321.500 C 118.882 321.500, 116 321.837, 116 322.250" stroke="none" fill="#ffffff" fill-rule="evenodd"/>
</svg>