<svg xmlns="http://www.w3.org/2000/svg" width="800" height="115" viewBox="0 0 800 115" version="1.1">
	<path d="M -0 56.600 C -0 88.023, 0.381 112.976, 0.853 112.450 C 4.635 108.239, 45 57.984, 45 57.487 C 45 56.878, 19.804 24.419, 6.315 7.650 L -0 -0.200 -0 56.600 M 53.168 15.750 C 59.228 24.413, 64.335 31.653, 64.517 31.840 C 64.779 32.111, 82.366 6.320, 85.376 1.250 C 85.960 0.265, 81.450 -0, 64.134 -0 L 42.150 0 53.168 15.750 M 283.500 1.499 C 280.200 2.237, 275.490 3.565, 273.033 4.452 C 257.822 9.942, 243.683 24.573, 239.031 39.636 C 229.374 70.900, 245.200 101.346, 276.500 111.722 C 283.472 114.033, 286.170 114.378, 297.500 114.409 C 309.478 114.442, 311.171 114.206, 319.044 111.412 C 338.367 104.555, 351.747 90.586, 356.511 72.297 C 358.457 64.826, 358.411 50.381, 356.416 42.644 C 348.814 13.160, 315.487 -5.646, 283.500 1.499 M 419.589 1.645 C 386.458 8.747, 367.667 38.031, 374.578 71.792 C 378.847 92.649, 392.530 106.978, 413.500 112.552 C 427.805 116.354, 449.792 115.177, 463.335 109.885 C 471.754 106.596, 471.712 106.864, 465.789 94.119 C 459.853 81.346, 460.901 81.868, 449.500 86.012 C 445.260 87.554, 441.007 88.226, 435 88.306 C 424.188 88.449, 417.904 85.912, 411.541 78.834 C 405.573 72.197, 403.635 66.062, 404.210 55.633 C 404.926 42.657, 410.630 33.804, 421.500 28.801 C 428.736 25.471, 440.874 25.705, 450.369 29.357 C 454.147 30.811, 457.631 32, 458.111 32 C 459.514 32, 470.028 10.236, 469.407 8.617 C 468.718 6.822, 456.676 2.438, 448.566 1.030 C 440.382 -0.391, 427.843 -0.125, 419.589 1.645 M 523.675 1.627 C 488.245 9.228, 468.807 43.761, 480.445 78.429 C 488.186 101.490, 505.496 113.211, 534 114.692 C 548.688 115.455, 570.177 111.106, 573.903 106.616 C 574.716 105.637, 573.678 102.488, 569.768 94.074 C 563.856 81.352, 564.898 81.869, 553.500 86.012 C 544.812 89.171, 532.265 89.240, 525.500 86.168 C 519.191 83.303, 514.560 78.888, 511.161 72.500 C 508.792 68.047, 508.501 66.406, 508.501 57.500 C 508.500 48.932, 508.838 46.855, 510.858 43 C 514.082 36.847, 518.555 32.319, 524.500 29.190 C 528.866 26.893, 530.642 26.567, 538.500 26.623 C 545.747 26.675, 548.838 27.205, 554.369 29.344 C 558.147 30.805, 561.631 32, 562.111 32 C 563.417 32, 574.207 9.981, 573.633 8.486 C 573.361 7.776, 570.519 6.212, 567.319 5.009 C 554.152 0.064, 537.117 -1.257, 523.675 1.627 M 121.147 2.633 C 119.228 4.038, 117.488 1.526, 141.840 32.493 C 152.478 46.020, 160.953 57.630, 160.675 58.293 C 160.397 58.957, 150.891 70.927, 139.549 84.893 C 128.208 98.859, 119.095 110.784, 119.298 111.393 C 119.550 112.149, 125.502 112.500, 138.054 112.500 L 156.441 112.500 167.471 96.797 C 173.537 88.160, 178.794 80.815, 179.154 80.476 C 179.513 80.137, 183.757 85.628, 188.584 92.680 C 193.410 99.731, 198.667 107.188, 200.264 109.250 L 203.168 113 220.917 113 C 230.679 113, 238.951 112.716, 239.298 112.369 C 240.305 111.362, 238.278 108.231, 229.028 96.500 C 224.257 90.450, 215.335 79.076, 209.201 71.225 L 198.048 56.949 217.378 32.182 C 238.261 5.424, 239.600 3.489, 237.935 2.460 C 237.126 1.960, 211.286 1.591, 202.253 1.950 C 201.568 1.978, 196.220 9.184, 190.369 17.964 C 179.841 33.766, 179.715 33.906, 178.037 31.714 C 177.105 30.497, 172.383 23.770, 167.543 16.766 C 162.704 9.763, 158.190 3.573, 157.512 3.010 C 155.727 1.529, 123.117 1.190, 121.147 2.633 M 595.312 2.830 C 594.233 3.910, 594.031 14.339, 594.241 58.330 L 594.500 112.500 637.631 112.761 L 680.761 113.021 681.367 110.761 C 682.157 107.812, 682.177 91.625, 681.393 89.582 C 680.859 88.191, 677.368 88, 652.466 88 L 624.147 88 623.823 79.412 C 623.646 74.689, 623.688 70.639, 623.917 70.412 C 624.146 70.185, 634.743 70, 647.467 70 C 664.126 70, 670.936 69.664, 671.800 68.800 C 673.554 67.046, 673.442 46.612, 671.670 45.141 C 670.806 44.424, 662.186 43.943, 647.070 43.769 L 623.799 43.500 623.799 35.500 L 623.799 27.500 651.873 27.234 C 678.658 26.981, 679.995 26.878, 681.003 24.994 C 682.145 22.861, 682.219 4.973, 681.094 3.152 C 680.001 1.384, 597.069 1.073, 595.312 2.830 M 706.782 2.045 L 704.500 2.590 704.500 57.545 L 704.500 112.500 718.500 112.500 L 732.500 112.500 732.775 97.363 L 733.051 82.226 750.325 81.849 C 767.371 81.477, 767.683 81.430, 774.060 78.291 C 786.288 72.272, 793.919 61.848, 796.022 48.294 C 798.827 30.216, 790.545 13.336, 775.149 5.750 C 768.578 2.513, 768.487 2.499, 751.526 2.243 C 742.162 2.102, 728.777 1.877, 721.782 1.743 C 714.787 1.609, 708.037 1.745, 706.782 2.045 M 288.500 28.335 C 282.040 30.481, 278.509 32.656, 275.004 36.648 C 269.547 42.864, 267.583 48.391, 267.595 57.500 C 267.608 67.855, 270.306 74.292, 277.250 80.535 C 292.710 94.434, 319.199 87.972, 325.586 68.742 C 328.156 61.002, 327.211 48.996, 323.493 42.164 C 320.372 36.430, 315.370 31.888, 309.454 29.416 C 304.298 27.262, 293.418 26.700, 288.500 28.335 M 733 42.103 L 733 57.206 745.427 56.853 C 756.079 56.550, 758.258 56.204, 760.677 54.429 C 769.292 48.108, 768.915 33.521, 760.016 28.835 C 757.208 27.356, 754.245 27, 744.766 27 L 733 27 733 42.103 M 53.180 97.051 C 47.031 105.879, 42 113.529, 42 114.051 C 42 114.622, 51.015 115, 64.607 115 C 83.828 115, 87.132 114.785, 86.664 113.566 C 86.136 112.192, 64.963 81, 64.558 81 C 64.449 81, 59.329 88.223, 53.180 97.051" stroke="none" fill="#ffffff" fill-rule="evenodd"/>
</svg>