<svg width="185" height="50" viewBox="0 0 185 50" fill="none" xmlns="http://www.w3.org/2000/svg">
<path d="M69.0528 5.20452H74.5358C74.6904 5.20452 74.8141 5.32785 74.9068 5.57452L79.8328 23.3535C79.8538 23.4565 79.8328 23.5385 79.7508 23.5905C79.7159 23.6257 79.674 23.653 79.6278 23.6708C79.5816 23.6885 79.5322 23.6963 79.4828 23.6935H75.9888C75.7928 23.6935 75.6694 23.5698 75.6188 23.3225L74.5358 19.3645H69.0528L67.9708 23.3225C67.9188 23.5692 67.7951 23.6925 67.5998 23.6925H64.1058C64.0565 23.6942 64.0075 23.686 63.9615 23.6685C63.9155 23.651 63.8734 23.6245 63.8378 23.5905C63.7448 23.5385 63.7248 23.4565 63.7558 23.3535L68.6818 5.57552C68.7338 5.32752 68.8574 5.20385 69.0528 5.20452ZM71.8868 8.50252H71.7018L70.4858 13.8095L69.9288 15.7885H73.6388L73.1138 13.8095L71.8978 8.50252H71.8868ZM95.9218 5.62652L90.9638 14.2835L96.2608 23.2605C96.3338 23.3635 96.3438 23.4665 96.2918 23.5485C96.1988 23.6415 96.1168 23.6825 96.0238 23.6825H92.1288C91.9328 23.6825 91.7888 23.5905 91.6748 23.4155L87.3878 16.1995H85.7698V23.3315C85.7698 23.5582 85.6564 23.6715 85.4298 23.6715H81.9868C81.7601 23.6715 81.6468 23.5582 81.6468 23.3315V5.55452C81.6468 5.32785 81.7601 5.21452 81.9868 5.21452H85.4298C85.6564 5.21452 85.7698 5.32785 85.7698 5.55452V12.6545H87.3358L91.4688 5.47252C91.5408 5.29652 91.6848 5.20452 91.9228 5.20452H95.7148C95.8178 5.20452 95.9008 5.24452 95.9518 5.33852C96.0037 5.43052 95.9928 5.52352 95.9218 5.62652ZM98.4668 5.20452H105.063C107.062 5.20452 108.639 5.68852 109.814 6.66752C110.989 7.64652 111.576 9.11052 111.576 11.0675V11.3575C111.576 13.3455 110.958 14.8715 109.721 15.9225C108.484 16.9845 106.846 17.5095 104.815 17.5095H102.249V23.3425C102.249 23.5692 102.135 23.6825 101.909 23.6825H98.4668C98.2401 23.6825 98.1268 23.5692 98.1268 23.3425V5.55452C98.1268 5.32785 98.2401 5.21452 98.4668 5.21452V5.20452ZM107.34 11.5425V11.2745C107.34 9.60518 106.361 8.77052 104.403 8.77052H102.26V14.1085H104.352C106.351 14.1085 107.34 13.2535 107.34 11.5425ZM121.357 4.86352H121.759C124.057 4.86352 125.871 5.59552 127.221 7.06952C128.561 8.54352 129.231 10.4195 129.231 12.7065V16.1905C129.231 18.4785 128.551 20.3545 127.18 21.8275C125.809 23.3015 124.006 24.0335 121.759 24.0335H121.357C119.079 24.0335 117.265 23.2915 115.926 21.7975C114.586 20.3108 113.916 18.4385 113.916 16.1805V12.6965C113.916 10.4085 114.596 8.53252 115.956 7.05952C117.317 5.58552 119.12 4.85352 121.357 4.85352V4.86352ZM121.676 8.42952H121.46C120.326 8.42952 119.491 8.79052 118.956 9.52252C118.42 10.2545 118.152 11.1922 118.152 12.3355V16.5615C118.152 17.7055 118.43 18.6435 118.976 19.3745C119.522 20.1055 120.357 20.4675 121.47 20.4675H121.687C122.8 20.4675 123.624 20.1075 124.181 19.3745C124.727 18.6435 125.005 17.7045 125.005 16.5615V12.3355C125.005 11.1925 124.727 10.2545 124.181 9.52252C123.635 8.79052 122.8 8.42952 121.687 8.42952H121.676ZM142.732 5.20452H146.153C146.4 5.20452 146.524 5.31785 146.524 5.54452V23.3425C146.524 23.5692 146.4 23.6825 146.153 23.6825H142.732C142.505 23.6825 142.392 23.5692 142.392 23.3425V16.0565H135.878V23.3425C135.878 23.5692 135.764 23.6825 135.538 23.6825H132.096C131.869 23.6825 131.756 23.5692 131.756 23.3425V5.55452C131.756 5.32785 131.869 5.21452 132.096 5.21452H135.538C135.764 5.21452 135.878 5.32785 135.878 5.55452V12.5005H142.392V5.55452C142.392 5.32785 142.505 5.21452 142.732 5.21452V5.20452Z" fill="#001829"/>
<path d="M58.9408 39.205C59.6218 39.885 59.9718 40.72 59.9718 41.678C59.9718 42.637 59.6318 43.471 58.9418 44.152C58.2618 44.832 57.4368 45.182 56.4678 45.182C55.4998 45.182 54.6748 44.842 53.9948 44.152C53.3148 43.472 52.9648 42.647 52.9648 41.678C52.9648 40.709 53.3048 39.885 53.9948 39.205C54.3157 38.8746 54.7003 38.6129 55.1254 38.4356C55.5505 38.2584 56.0072 38.1694 56.4678 38.174C57.4268 38.174 58.2618 38.514 58.9418 39.204M58.4478 43.707C58.9938 43.151 59.2618 42.481 59.2618 41.677C59.2618 40.873 58.9938 40.203 58.4478 39.647C58.1932 39.3797 57.8858 39.1683 57.5451 39.0263C57.2044 38.8842 56.8378 38.8147 56.4688 38.822C55.6958 38.822 55.0158 39.101 54.4798 39.647C53.9338 40.193 53.6658 40.873 53.6658 41.677C53.6658 42.481 53.9338 43.151 54.4798 43.707C54.7371 43.9737 55.0466 44.1846 55.3889 44.3266C55.7313 44.4685 56.0992 44.5384 56.4698 44.532C57.2528 44.532 57.9118 44.254 58.4478 43.707ZM57.9838 43.563H57.2008L56.4278 42.069H55.9438V43.563H55.2428V39.781H56.6648C57.0148 39.781 57.3148 39.894 57.5408 40.121C57.7678 40.348 57.8808 40.616 57.8808 40.945C57.8808 41.203 57.8088 41.409 57.6748 41.585C57.5361 41.7603 57.3501 41.8921 57.1388 41.965L57.9838 43.563ZM57.0258 41.347C57.0805 41.2952 57.1242 41.2329 57.1543 41.1638C57.1843 41.0948 57.2002 41.0203 57.2008 40.945C57.2013 40.8695 57.1861 40.7947 57.1559 40.7254C57.1258 40.6562 57.0814 40.594 57.0258 40.543C56.9669 40.4871 56.8972 40.4438 56.8211 40.4156C56.745 40.3874 56.6639 40.3749 56.5828 40.379H55.9428V41.522H56.5828C56.7578 41.522 56.9128 41.471 57.0258 41.357M16.6038 38.463L12.8008 45.048H40.5448L36.7428 38.462L16.6038 38.463Z" fill="#E00613"/>
<path d="M25.7143 19.3856L31.4543 9.46057L26.6723 1.18457L1.32031 45.0476H10.8843L21.3443 26.9396H30.0843L25.7143 19.3856Z" fill="#E00613"/>
<path d="M32.4128 11.1201L27.6308 19.3961L32.9488 28.5891H22.3128L17.5508 36.8131H37.6998L42.4608 45.0481H52.0248L32.4128 11.1201ZM75.4098 26.4151H79.2028C79.3258 26.4151 79.4188 26.4551 79.4708 26.5491C79.5218 26.6411 79.5108 26.7341 79.4398 26.8371L74.6678 35.4941L79.6458 44.4711C79.6968 44.5741 79.6968 44.6771 79.6458 44.7601C79.5924 44.8508 79.5031 44.8955 79.3778 44.8941H75.5648C75.4683 44.8997 75.3726 44.8748 75.2911 44.8229C75.2096 44.7711 75.1465 44.6949 75.1108 44.6051L72.6998 40.3791L71.8238 37.9271H71.6078L70.7108 40.3791L68.3308 44.6051C68.2278 44.8011 68.0728 44.8941 67.8768 44.8941H64.0328C63.9088 44.8941 63.8168 44.8521 63.7648 44.7601C63.7395 44.7161 63.7262 44.6663 63.7262 44.6156C63.7262 44.5649 63.7395 44.5151 63.7648 44.4711L68.7428 35.4941L63.9708 26.8371C63.9198 26.7341 63.9198 26.6311 63.9708 26.5491C64.0018 26.4561 64.0848 26.4151 64.2078 26.4151H67.9998C68.0959 26.4097 68.1914 26.4345 68.2726 26.4862C68.3539 26.5379 68.4169 26.6137 68.4528 26.7031L70.7098 30.6401L71.6068 33.1241H71.8228L72.6998 30.6401L74.9568 26.7031C75.0598 26.5071 75.2138 26.4151 75.4098 26.4151ZM88.7148 26.0751H89.1168C91.4148 26.0751 93.2288 26.8061 94.5788 28.2801C95.9188 29.7541 96.5888 31.6301 96.5888 33.9171V37.4011C96.5888 39.6891 95.9088 41.5651 94.5388 43.0381C93.1678 44.5121 91.3638 45.2441 89.1168 45.2441H88.7148C86.4378 45.2441 84.6238 44.5021 83.2838 43.0081C81.9438 41.5231 81.2738 39.6481 81.2738 37.3911V33.9071C81.2738 31.6191 81.9538 29.7441 83.3138 28.2701C84.6748 26.7961 86.4788 26.0641 88.7148 26.0641V26.0751ZM89.0348 29.6401H88.8178C87.6848 29.6401 86.8498 30.0011 86.3138 30.7331C85.7778 31.4651 85.5098 32.4031 85.5098 33.5471V37.7721C85.5098 38.9161 85.7878 39.8541 86.3348 40.5861C86.8808 41.3171 87.7148 41.6781 88.8288 41.6781H89.0448C90.1578 41.6781 90.9828 41.3181 91.5388 40.5861C92.0848 39.8541 92.3638 38.9161 92.3638 37.7721V33.5471C92.3638 32.4031 92.0848 31.4651 91.5388 30.7331C90.9928 30.0011 90.1588 29.6401 89.0448 29.6401H89.0348ZM102.515 26.4151H113.965C114.191 26.4151 114.305 26.5285 114.306 26.7551V44.5531C114.306 44.7798 114.192 44.8931 113.965 44.8931H110.544C110.296 44.8931 110.173 44.7798 110.173 44.5531V29.9811H106.071L105.36 39.2461C105.04 43.2448 103.308 45.2441 100.165 45.2441H100.031C99.6808 45.2441 99.2788 45.1921 98.8358 45.1001C98.3928 45.0071 98.1758 44.8421 98.1758 44.6151V41.7401C98.1758 41.5231 98.2488 41.4201 98.3928 41.4201C98.4128 41.4201 98.4748 41.4411 98.5778 41.4721C98.8978 41.5955 99.1968 41.6571 99.4748 41.6571H99.5778C100.567 41.6571 101.114 40.9151 101.217 39.4421L102.175 26.7341C102.196 26.5281 102.309 26.4141 102.515 26.4141M132.537 26.7651V41.3381H134.763C135.01 41.3381 135.134 41.4515 135.134 41.6781V47.9341C135.134 48.1608 135.01 48.2741 134.763 48.2741H131.342C131.115 48.2741 131.001 48.1608 131.001 47.9341V44.8941H120.221V47.9341C120.221 48.1608 120.107 48.2741 119.881 48.2741H116.46C116.212 48.2741 116.089 48.1608 116.089 47.9341V41.6781C116.089 41.4515 116.212 41.3381 116.46 41.3381H118.768C119.17 40.9881 119.407 40.3481 119.459 39.4311L120.417 26.7241C120.448 26.5181 120.572 26.4041 120.757 26.4041H132.207C132.433 26.4041 132.547 26.5175 132.547 26.7441L132.537 26.7651ZM128.435 29.9911H124.302L123.591 39.2561C123.54 40.0701 123.406 40.7611 123.189 41.3381H128.435V29.9801V29.9911ZM147.553 26.4151H151.418C151.664 26.4151 151.788 26.5285 151.789 26.7551V44.5531C151.789 44.7798 151.665 44.8931 151.418 44.8931H147.996C147.769 44.8931 147.656 44.7798 147.656 44.5531V36.9481L148.027 32.7221H147.739L145.698 36.9471L141.534 44.6051C141.491 44.6939 141.424 44.7685 141.34 44.8198C141.255 44.871 141.158 44.8969 141.06 44.8941H137.195C136.968 44.8941 136.855 44.7808 136.855 44.5541V26.7541C136.855 26.5275 136.968 26.4141 137.195 26.4141H140.617C140.843 26.4141 140.957 26.5275 140.957 26.7541V34.2061L140.586 38.5861H140.875L143.018 34.2061L147.069 26.7031C147.112 26.6145 147.179 26.5402 147.263 26.489C147.347 26.4379 147.444 26.4123 147.543 26.4151H147.553ZM165.434 26.4151H168.856C169.102 26.4151 169.226 26.5285 169.227 26.7551V44.5531C169.227 44.7798 169.103 44.8931 168.856 44.8931H165.434C165.207 44.8931 165.094 44.7798 165.094 44.5531V37.2671H158.581V44.5531C158.581 44.7798 158.467 44.8931 158.241 44.8931H154.798C154.571 44.8931 154.458 44.7798 154.458 44.5531V26.7551C154.458 26.5285 154.571 26.4151 154.798 26.4151H158.241C158.467 26.4151 158.581 26.5285 158.581 26.7551V33.7001H165.094V26.7541C165.094 26.5275 165.207 26.4141 165.434 26.4141M172.298 26.4151H182.821C183.047 26.4151 183.161 26.5285 183.161 26.7551V29.6301C183.161 29.8568 183.047 29.9701 182.821 29.9701H176.091V44.5431C176.091 44.7698 175.977 44.8831 175.751 44.8831H172.308C172.081 44.8831 171.968 44.7698 171.968 44.5431V26.7441C171.968 26.5175 172.081 26.4041 172.308 26.4041L172.298 26.4151Z" fill="#E00613"/>
</svg>
