<svg width="118" height="40" viewBox="0 0 118 40" fill="none" xmlns="http://www.w3.org/2000/svg">
<path fill-rule="evenodd" clip-rule="evenodd" d="M90.8844 24.4583H84.1681V18.5185C84.1681 17.5867 84.0516 16.8491 83.8575 16.3832C83.6634 15.9173 83.2363 15.6067 82.6928 15.4126C82.1493 15.2185 81.3728 15.1797 80.3246 15.1797H72.6765V9.31746L82.3046 9.27864C82.8481 9.27864 83.314 9.12335 83.6634 8.81276C84.0128 8.50218 84.1681 8.07513 84.1681 7.57044C84.1681 7.06574 84.0128 6.67751 83.6634 6.36693C83.314 6.05635 82.8869 5.90106 82.2657 5.90106H72.6377V0H82.9645C87.8174 0 91.0785 2.63995 90.8844 7.53161C90.8067 9.47275 90.1468 10.948 88.6715 11.9574C89.5256 12.5009 90.0691 13.1221 90.4185 13.8597C90.7291 14.5974 90.8844 15.5291 90.8844 16.7326V24.4583Z" fill="#EB2629"/>
<path fill-rule="evenodd" clip-rule="evenodd" d="M46.0438 24.4585H38.5898L38.6287 9.27881H46.0826L46.0438 24.4585Z" fill="#EB2629"/>
<path fill-rule="evenodd" clip-rule="evenodd" d="M57.4192 24.4583H50.004V9.31746C50.004 8.38571 49.8487 7.64808 49.6158 7.14339C49.3829 6.67751 48.9946 6.32811 48.4511 6.13399C47.9076 5.93988 47.0535 5.86224 46.0053 5.86224H34.5914V24.4195H27.2539V7.53161V0H46.6265H47.83C50.2758 0 52.1781 0.349405 53.6146 1.00939C55.0122 1.7082 56.0216 2.71759 56.6039 4.07639C57.1862 5.43519 57.458 7.22103 57.458 9.31746V24.4583H57.4192Z" fill="#EB2629"/>
<path fill-rule="evenodd" clip-rule="evenodd" d="M7.45397 5.86224L9.5504 0H16.8103L26.5936 24.4583H19.3337L15.6456 15.1797H10.948L7.25985 24.4583H0L6.09517 9.31746H13.2774L11.9186 5.86224H7.45397Z" fill="#EB2629"/>
<path fill-rule="evenodd" clip-rule="evenodd" d="M68.7943 24.4583H61.418V9.31738H68.7943V24.4583Z" fill="#EB2629"/>
<path fill-rule="evenodd" clip-rule="evenodd" d="M61.418 0H68.7943V5.86224H61.418V0Z" fill="#003882"/>
<path fill-rule="evenodd" clip-rule="evenodd" d="M98.8426 5.93987L100.939 0.0776367H108.199L117.982 24.4971H110.722L107.034 15.2185H102.337L98.6485 24.4971H91.3887L97.445 9.35627H104.666L103.268 5.93987H98.8426Z" fill="#EB2629"/>
<path d="M32.3785 35.329C32.4562 35.7948 32.495 36.1442 32.5727 36.416C32.5338 37.1924 32.3009 37.4254 31.5244 37.8913C31.2527 37.5418 30.9809 37.1536 30.515 37.1148L32.3785 35.329ZM34.1644 37.4254C33.5044 37.9301 32.9997 38.3183 32.1456 38.163C32.9997 37.6583 33.8538 36.843 33.8538 35.756C33.8538 35.1737 33.6597 34.7078 33.6209 34.2419C33.582 33.8537 33.5044 33.7372 33.1162 33.7372C32.6503 33.7372 32.3785 34.1643 32.3397 34.5913L29.4668 37.2313C29.3504 37.3477 29.1562 37.5418 29.1562 37.6971C29.1562 37.8136 29.2339 37.9689 29.3892 37.9689C29.5057 37.9689 29.5833 37.8913 29.6998 37.8136C29.9327 38.7842 30.9033 39.2889 31.7962 39.3277C32.8444 39.3665 34.2809 38.163 35.0961 37.3866L34.9797 36.8819L34.1644 37.4254ZM38.7066 36.8819C38.1631 37.2701 37.5031 37.9689 36.8043 37.9689C36.1832 37.9689 35.9891 37.6971 36.1055 37.1536C36.649 36.7654 37.969 35.6007 37.969 34.9407C37.969 34.669 37.6196 34.5525 37.3867 34.5525C36.6102 34.5525 34.9408 36.1442 34.9408 37.736C34.9408 38.396 35.2902 39.3277 36.0667 39.3277C37.0761 39.3277 38.2408 38.1242 38.8231 37.4254L38.7066 36.8819ZM38.1243 34.2807C38.6678 34.2807 39.1725 33.6208 39.1725 33.1161C39.1725 32.8831 38.9784 32.7278 38.7455 32.7278C38.2408 32.7278 37.6196 33.1937 37.6196 33.7372C37.5808 34.0478 37.7749 34.2807 38.1243 34.2807ZM44.1807 37.1536C43.9477 37.3477 43.3654 37.8136 43.0548 37.8136C42.9383 37.8136 42.8219 37.6971 42.8219 37.5807C42.8219 36.6877 44.4524 35.6784 44.4524 35.1348C44.4136 34.8631 44.3359 34.6301 44.2583 34.436C44.1807 34.2419 44.103 34.1643 44.0642 34.1643C43.676 34.1643 41.2301 35.7948 40.1819 37.1536C40.1431 37.2313 39.9878 37.3477 39.9102 37.3477C39.8325 37.3477 39.7549 37.2701 39.7549 37.1924C39.7549 36.8819 41.4242 35.5231 41.4242 35.0184C41.4242 34.9407 41.5019 34.7466 40.6866 34.7078C40.4537 34.7078 40.3372 34.7078 40.1819 34.8631C39.4055 35.4842 38.5902 36.843 38.629 37.7748C38.629 38.2018 38.7843 39.0559 39.3666 39.0559C39.716 39.0559 40.2207 38.3959 40.4148 38.163C40.9972 37.3866 41.696 36.7266 42.4336 36.1442L42.4725 36.1831C42.0454 36.8042 41.3466 37.6583 41.3466 38.4736C41.3466 38.9395 41.5795 39.3277 42.0842 39.3277C43.0548 39.3277 44.4136 37.6971 45.1124 37.076L44.9959 36.4936L44.1807 37.1536ZM47.4418 35.7948C47.4418 36.0666 47.5971 36.3772 47.8688 36.3772C48.2182 36.3772 49.2664 35.3678 49.2664 34.6301C49.2664 34.2419 49.0723 34.009 48.6841 34.009C47.9465 34.009 46.6653 34.7078 46.083 35.1737C45.2289 35.8336 44.8406 36.2219 44.8406 37.3477C44.8406 38.3183 45.3065 39.2889 46.3547 39.2889C47.5971 39.2889 49.1111 37.9689 49.8876 37.1148L49.7323 36.6101C48.9559 37.1924 47.83 38.1242 46.8206 38.1242C46.1218 38.1242 45.8112 37.6971 45.8112 37.4254C45.8112 37.0372 46.0441 36.843 46.3547 36.6489L47.4418 35.7948ZM54.391 36.6101C53.6922 37.1536 52.5664 38.1242 51.6346 38.1242C51.2076 38.1242 50.7805 37.9689 50.8193 37.4642L50.8582 37.1924C53.3816 36.3383 54.0416 35.3678 54.0416 34.7466C54.0416 34.2031 53.4981 34.1254 53.1099 34.1254C51.4017 34.0866 49.4605 35.8725 49.5382 37.6195C49.577 38.4736 50.0041 39.3665 50.9746 39.3665C52.2946 39.3665 53.7311 38.1242 54.5463 37.1924L54.391 36.6101ZM50.9358 36.5325C51.2852 35.6395 52.0617 35.0184 52.7217 34.8631C52.7993 34.8243 52.877 34.9019 52.877 35.0184C52.877 35.2125 52.1005 36.1442 50.9358 36.5325ZM64.1355 32.1455C63.7861 32.689 62.6991 34.0866 61.7285 35.6784C61.3791 36.2995 60.7968 37.736 60.7968 38.3959C60.7968 39.0948 61.3791 39.1724 61.8838 39.4442C61.9615 39.483 62.0779 39.5606 62.1556 39.5606C62.2721 39.5606 62.3497 39.483 62.3497 39.3665C62.3497 39.2112 62.3109 39.0559 62.3109 38.9006C62.3109 38.0077 63.3979 36.1442 63.8638 35.3678C65.9214 31.8349 65.9214 31.8737 65.9214 31.4855C65.9214 31.2914 65.6496 30.5538 65.3002 30.5538C64.912 30.5538 63.4367 31.4467 63.0097 31.6796C62.6991 31.8737 62.4273 31.9902 62.3885 32.3784C62.3497 32.4561 62.3497 32.689 62.505 32.689C62.5438 32.689 62.8156 32.5725 62.8544 32.5725L64.1355 32.1455ZM73.6083 32.5725C73.8412 32.4561 74.3459 32.1843 74.3459 31.8737C74.3459 31.5631 73.5695 30.5538 73.0648 30.5538C70.7742 30.5149 67.6296 32.6114 67.6296 34.2419C67.6296 35.3678 68.8331 36.2607 69.2602 36.2607C69.9201 36.2607 71.3954 35.329 71.9389 34.9407L71.9777 34.9795L69.4931 37.9689C69.0272 37.9301 68.9496 38.2018 68.7555 38.5512C68.6778 38.6677 68.4061 39.0559 68.4061 39.2112C68.4061 39.4053 68.5225 39.483 68.7166 39.4442C69.2602 39.4053 69.726 39.0948 70.5025 38.2018L73.9965 34.1254C74.113 33.9702 74.4236 33.6207 74.4236 33.4266C74.4236 33.2325 73.8801 33.0772 73.7248 33.0772C73.453 33.0772 72.9871 33.4655 72.793 33.6207C72.0166 34.2807 70.3084 35.2901 69.299 35.2901C69.1437 35.2901 69.066 35.2125 69.066 35.0572C69.066 34.2031 70.1531 32.9996 73.2977 32.1843L73.3365 32.2231C72.5989 32.8443 72.6377 32.8831 72.6377 32.9219C72.6377 32.9996 72.7154 33.0772 72.793 33.0772C72.9871 33.0772 73.0648 32.9996 73.2201 32.8831L73.6083 32.5725ZM81.1011 32.5725C81.334 32.4561 81.8387 32.1843 81.8387 31.8737C81.8387 31.5631 81.0623 30.5538 80.5576 30.5538C78.267 30.5149 75.1224 32.6114 75.1224 34.2419C75.1224 35.3678 76.3259 36.2607 76.7529 36.2607C77.4129 36.2607 78.8882 35.329 79.4317 34.9407L79.4705 34.9795L76.9859 37.9689C76.52 37.9301 76.4424 38.2018 76.2094 38.5512C76.1318 38.6677 75.86 39.0559 75.86 39.2112C75.86 39.4053 75.9765 39.483 76.1318 39.4442C76.6753 39.4053 77.1412 39.0948 77.9176 38.2018L81.4117 34.1254C81.5281 33.9702 81.8387 33.6207 81.8387 33.4266C81.8387 33.2325 81.2952 33.0772 81.1399 33.0772C80.8682 33.0772 80.4023 33.4655 80.2082 33.6207C79.4317 34.2807 77.7235 35.2901 76.6753 35.2901C76.52 35.2901 76.4812 35.2125 76.4812 35.0572C76.4812 34.2031 77.5294 32.9996 80.7129 32.1843L80.7517 32.2231C80.0141 32.8443 80.0529 32.8831 80.0529 32.9219C80.0529 32.9996 80.1305 33.0772 80.2082 33.0772C80.3635 33.0772 80.4799 32.9996 80.6352 32.8831L81.1011 32.5725ZM86.5363 32.1455C86.1869 32.689 85.0998 34.0866 84.1293 35.6784C83.7799 36.2995 83.1975 37.736 83.1975 38.3959C83.1975 39.0948 83.7799 39.1724 84.2846 39.4442C84.3622 39.483 84.4787 39.5606 84.5563 39.5606C84.6728 39.5606 84.7504 39.483 84.7504 39.3665C84.7504 39.2112 84.7116 39.0559 84.7116 38.9006C84.7116 38.0077 85.7986 36.1442 86.2645 35.3678C88.3221 31.8349 88.3221 31.8737 88.3221 31.4855C88.3221 31.2914 88.0504 30.5538 87.701 30.5538C87.3127 30.5538 85.8375 31.4467 85.4104 31.6796C85.0998 31.8737 84.8281 31.9902 84.7892 32.3784C84.7504 32.4561 84.7504 32.689 84.9057 32.689C84.9445 32.689 85.2163 32.5725 85.2551 32.5725L86.5363 32.1455Z" fill="#003882"/>
<path d="M3.84375 36.0664C5.86253 36.0664 7.92014 36.0664 9.93892 36.0664H26.128" stroke="#003882" stroke-width="1.55287" stroke-miterlimit="10"/>
<path d="M89.9131 36.0664C91.9319 36.0664 93.9895 36.0664 96.0471 36.0664H112.236" stroke="#003882" stroke-width="1.55287" stroke-miterlimit="10"/>
</svg>
