<?xml version="1.0" encoding="UTF-8"?>
<svg width="354px" height="163px" viewBox="0 0 354 163" version="1.1" xmlns="http://www.w3.org/2000/svg" xmlns:xlink="http://www.w3.org/1999/xlink">
    <!-- Generator: Sketch 52 (66869) - http://www.bohemiancoding.com/sketch -->
    <title>ase-logo-new</title>
    <desc>Created with Sketch.</desc>
    <defs>
        <path d="M29.4509882,28.9901121 C23.2072087,35.9569569 12.5649094,36.4874095 5.67445276,30.1774828 C-1.21809449,23.867556 -1.75257874,13.0997198 4.48005118,6.13076724 C10.7210433,-0.838185345 21.370311,-1.36161207 28.2607677,4.94690948 C35.1512244,11.2568362 35.6829213,22.0211595 29.4509882,28.9901121" id="path-1"></path>
        <radialGradient cx="33.9974516%" cy="22.1347764%" fx="33.9974516%" fy="22.1347764%" r="70.3736284%" gradientTransform="translate(0.339975,0.221348),scale(1.000000,0.988831),rotate(0.056074),scale(1.000000,1.002906),translate(-0.339975,-0.221348)" id="radialGradient-3">
            <stop stop-color="#478ABD" offset="0%"></stop>
            <stop stop-color="#152154" offset="100%"></stop>
        </radialGradient>
        <path d="M52.7048858,23.2640345 C42.0416811,12.6901121 24.8705906,4.33565948 0.0864094488,16.4461379 C31.6746378,-7.36802155 76.5504094,-4.84784483 105.304547,24.0488233 C107.018799,25.7835086 108.598559,27.6025043 110.128843,29.4453879 C109.79087,29.8058147 109.450807,30.1711595 109.110744,30.5140216 C99.213378,40.5167414 88.3871102,43.7380991 80.050689,44.4961897 C79.8256063,44.5144569 79.6200354,44.5418578 79.3949528,44.5608276 C79.1461772,44.5776897 78.9210945,44.5776897 78.6765,44.592444 C74.9107205,44.7800345 70.8717756,44.5566121 66.5499094,43.7479353 C66.5499094,43.7479353 63.3827244,35.7075388 56.607248,27.5231121 C55.4246929,26.0954569 54.1222795,24.6628836 52.7048858,23.2640345 Z" id="path-4"></path>
        <linearGradient x1="5.09920966%" y1="0.918432473%" x2="11.3398213%" y2="5.76783124%" id="linearGradient-6">
            <stop stop-color="#478ABD" offset="0%"></stop>
            <stop stop-color="#152154" offset="100%"></stop>
        </linearGradient>
        <path d="M0.0418110236,31.1394201 L0.0418110236,25.9309254 C0.23658532,19.8393476 1.11733078,13.6730379 2.7393189,7.52821121 C3.37624016,5.16400862 4.14695669,2.87709052 4.96575591,0.618978448 C5.44449213,0.736310345 5.92601575,0.846616379 6.39220866,0.97237931 C19.931315,4.61247845 28.1123386,12.4561509 32.9317559,19.3541422 C33.0585827,19.539625 33.1875,19.7103534 33.3150236,19.8951336 C33.4557874,20.1038017 33.5686772,20.3026336 33.7003819,20.509194 C35.7449409,23.7003405 37.5741732,27.3376293 39.0389528,31.5173147 C39.0389528,31.5173147 33.7171063,38.3028922 30.0732756,48.3105302 C29.4412323,50.0620776 28.8593622,51.9133922 28.3659921,53.8469095 C24.616937,68.4466509 26.0245748,87.6153103 48.8171575,103.200078 C19.8137113,90.6594443 1.0373171,62.2560702 0.0418110236,31.1394201 Z" id="path-7"></path>
        <linearGradient x1="2.38044279%" y1="23.3111312%" x2="1.43639856%" y2="10.4574815%" id="linearGradient-9">
            <stop stop-color="#478ABD" offset="0%"></stop>
            <stop stop-color="#152154" offset="100%"></stop>
        </linearGradient>
        <path d="M36.7421339,42.8289526 C34.8313701,43.3650259 32.9519646,43.7816595 31.1352756,44.1062543 C20.7152717,45.9287629 12.2262402,44.6760517 12.2262402,44.6760517 C9.36706299,48.0428448 7.1601378,51.4609267 5.43612992,54.8389612 C5.33090551,55.0588707 5.2159252,55.2584052 5.10582283,55.4839353 C5.01035433,55.6890905 4.92882283,55.8844095 4.83265748,56.0881595 C1.31356299,63.744944 -1.32959055,74.8099741 2.31424016,88.4534957 C2.43688583,88.9207155 2.58461811,89.3991767 2.72398819,89.8762328 C5.07237402,89.4610043 7.42354724,88.9874612 9.76984252,88.3607543 C48.9662835,77.7032241 73.5741614,39.7776207 68.9073543,0.292275862 C66.9178465,27.9875216 51.1592717,38.8045388 36.7421339,42.8289526" id="path-10"></path>
        <linearGradient x1="94.2946614%" y1="30.4479789%" x2="7.00447794%" y2="83.4625822%" id="linearGradient-12">
            <stop stop-color="#478ABD" offset="0%"></stop>
            <stop stop-color="#152154" offset="100%"></stop>
        </linearGradient>
        <path d="M27.2635748,6.60993103 C62.5917992,-11.4226466 79.8820512,13.4278276 79.8820512,13.4278276 C66.2300551,19.242431 55.7013425,32.6028103 50.1565039,50.7119698 C45.5691378,65.6925129 38.7434882,71.1284224 36.5191417,72.5581853 C27.4259409,45.2128276 3.02014961,40.252569 0.624377953,39.833125 C9.76705512,17.656694 27.2635748,6.60993103 27.2635748,6.60993103 Z" id="path-13"></path>
        <linearGradient x1="2.60281159%" y1="10.1369425%" x2="5.40798194%" y2="1.83047074%" id="linearGradient-15">
            <stop stop-color="#478ABD" offset="0%"></stop>
            <stop stop-color="#152154" offset="100%"></stop>
        </linearGradient>
        <path d="M62.4935433,41.4371293 C62.4886654,32.2578405 65.0168386,20.1073147 75.1295315,8.66078017 L75.2424213,8.48443103 C73.5929764,6.70548276 67.8132992,2.32415517 52.9501772,5.73872414 C34.6257992,9.95353879 14.4045945,9.46453879 2.58252756,0.450357759 C2.58252756,0.450357759 -10.1161772,27.9741724 23.0336929,49.8035259 C23.0336929,49.8035259 41.2451811,59.5434784 64.8398386,56.4605302 C64.4133661,55.2745647 62.4963307,49.4950905 62.4935433,41.4371293" id="path-16"></path>
        <linearGradient x1="85.1353051%" y1="43.9758099%" x2="8.98914358%" y2="54.3508%" id="linearGradient-18">
            <stop stop-color="#478ABD" offset="0%"></stop>
            <stop stop-color="#152154" offset="100%"></stop>
        </linearGradient>
        <path d="M47.4304252,0.479866379 C44.8235079,3.66960776 32.4335079,16.7587888 11.7572598,16.7756509 C8.42979921,16.7756509 4.89607087,16.4355991 1.16164961,15.656431 L0.984649606,15.6149784 C0.30173622,18.1372629 -0.260622047,25.2811595 9.83325591,36.2506379 C22.6079173,50.1470905 32.2997126,68.0468793 30.4704803,82.8763664 C30.4704803,82.8763664 60.464315,80.2023233 62.6357008,40.3396897 C62.6357008,40.3396897 61.8963425,19.5466509 47.4304252,0.479866379" id="path-19"></path>
        <linearGradient x1="45.8971535%" y1="18.5617688%" x2="64.6968017%" y2="90.5255977%" id="linearGradient-21">
            <stop stop-color="#478ABD" offset="0%"></stop>
            <stop stop-color="#152154" offset="100%"></stop>
        </linearGradient>
    </defs>
    <g id="Page-1" stroke="none" stroke-width="1" fill="none" fill-rule="evenodd">
        <g id="ase-logo-new">
            <path d="M217.706645,62.2140086 L226.117258,62.2140086 L222.034097,50.6557629 L221.894502,50.6557629 L217.706645,62.2140086 Z M227.129323,65.0946121 L216.69458,65.0946121 L214.321461,71.6637931 L211.145669,71.6637931 L220.463651,47.0732759 L223.604544,47.0732759 L232.748031,71.6637931 L229.467544,71.6637931 L227.129323,65.0946121 Z" id="Fill-1" fill="#343534"></path>
            <path d="M255.710152,71.3476293 C255.039624,71.6757371 254.254802,71.9272629 253.354992,72.1029095 C252.453797,72.278556 251.472249,72.3663793 250.411042,72.3663793 C248.517216,72.3663793 246.825656,72.0797241 245.336364,71.5057112 C243.847764,70.9324009 242.582904,70.1061595 241.543863,69.0290948 C240.504821,67.9520302 239.708223,66.6578664 239.15476,65.1466034 C238.599912,63.6367457 238.322835,61.9329741 238.322835,60.0359914 C238.322835,57.9514181 238.599912,56.100806 239.15476,54.4855603 C239.708223,52.8696121 240.504821,51.5115129 241.543863,50.4105603 C242.582904,49.3096078 243.835295,48.4784483 245.302422,47.9163793 C246.768163,47.3543103 248.401536,47.0732759 250.202541,47.0732759 C251.587929,47.0732759 252.713557,47.1730431 253.579425,47.371875 C254.445293,47.5714095 255.16708,47.787806 255.744094,48.0210647 L255.155304,50.7969828 C254.394033,50.5159483 253.619601,50.3171164 252.835471,50.1997845 C252.049956,50.0824526 251.276909,50.0241379 250.514946,50.0241379 C247.627796,50.0241379 245.428492,50.844056 243.917033,52.4831897 C242.404189,54.1223233 241.647767,56.5350043 241.647767,59.7198276 C241.647767,61.2423319 241.861117,62.6060517 242.289202,63.8123922 C242.715901,65.0187328 243.322009,66.0374828 244.107524,66.8686422 C244.891654,67.6998017 245.850343,68.3328319 246.981512,68.765625 C248.112682,69.1991207 249.394166,69.4155172 250.825965,69.4155172 C251.587929,69.4155172 252.355434,69.3452586 253.129174,69.2047414 C253.902913,69.0642241 254.589373,68.8415043 255.190632,68.5372845 L255.710152,71.3476293" id="Fill-2" fill="#343534"></path>
            <path d="M266.698528,57.8228448 L276.767122,57.8228448 C276.697712,56.487931 276.451684,55.3349871 276.027664,54.3626078 C275.603643,53.390931 275.025684,52.5829569 274.29241,51.9386853 C273.559137,51.2951164 272.694602,50.8145474 271.698807,50.4983836 C270.701638,50.1822198 269.607569,50.0241379 268.416601,50.0241379 C267.729371,50.0241379 266.916379,50.0824526 265.976937,50.1997845 C265.037495,50.3171164 264.144097,50.5510776 263.296743,50.9023707 L262.712598,48.337931 C263.308426,48.0105259 264.17296,47.7175474 265.306889,47.4596983 C266.440817,47.2018491 267.626287,47.0732759 268.863987,47.0732759 C270.58206,47.0732759 272.139321,47.3135603 273.536458,47.7934267 C274.933595,48.2739957 276.119065,49.0173319 277.092869,50.0241379 C278.066673,51.0316466 278.81644,52.3138664 279.344232,53.8707974 C279.870649,55.428431 280.133858,57.2727198 280.133858,59.4036638 C280.133858,61.4179784 279.881645,63.2271379 279.377906,64.8311422 C278.874167,66.4351466 278.11203,67.7939483 277.092869,68.9061422 C276.073708,70.0183362 274.807832,70.8733836 273.295928,71.4698793 C271.784711,72.0677802 270.019906,72.3663793 268.00495,72.3663793 C266.744572,72.3663793 265.702045,72.2722328 264.87737,72.0846422 C264.053383,71.8984569 263.353783,71.7108664 262.781321,71.5232759 L263.366153,68.7473578 C264.09874,69.0059095 264.889053,69.181556 265.736407,69.2742974 C266.58376,69.368444 267.339713,69.4155172 268.00495,69.4155172 C270.638413,69.4155172 272.746145,68.7009871 274.326772,67.2726293 C275.908086,65.8442716 276.732074,63.6536078 276.800797,60.7034483 L266.698528,60.7034483 L266.698528,57.8228448" id="Fill-3" fill="#343534"></path>
            <polygon id="Fill-4" fill="#343534" points="186.059055 148.948276 187.452756 148.948276 187.452756 13.3491379 186.059055 13.3491379"></polygon>
            <path d="M214.405521,108.422831 L217.480411,108.422831 C219.075088,108.422831 220.285137,108.104945 221.110559,107.467771 C221.93598,106.831298 222.349757,105.857291 222.349757,104.545048 C222.349757,103.195613 221.93598,102.222308 221.110559,101.622326 C220.285137,101.023746 219.075088,100.723404 217.480411,100.723404 L214.405521,100.723404 L214.405521,108.422831 Z M214.405521,118.034483 L211.84252,118.034483 L211.84252,98.362069 L217.707917,98.362069 C218.846871,98.362069 219.867095,98.4799603 220.769299,98.7136378 C221.670082,98.9480169 222.444315,99.3185325 223.089153,99.8237811 C223.734702,100.329731 224.228107,100.966906 224.570077,101.735305 C224.912047,102.503704 225.082677,103.421572 225.082677,104.488909 C225.082677,106.530956 224.412955,108.090911 223.075645,109.168072 C221.736912,110.245936 219.872782,110.784166 217.480411,110.784166 L214.405521,110.784166 L214.405521,118.034483 Z" id="Fill-5" fill="#1C558D"></path>
            <path d="M239.615123,115.656669 C241.428608,115.656669 242.853048,115.001622 243.888443,113.690822 C244.923152,112.379314 245.440507,110.431133 245.440507,107.846276 C245.440507,106.488131 245.299161,105.318657 245.015096,104.337146 C244.730345,103.356342 244.32346,102.54513 243.792383,101.903509 C243.260619,101.263301 242.614956,100.790565 241.855391,100.48954 C241.094455,100.187102 240.238144,100.035883 239.285773,100.035883 C238.442499,100.035883 237.655489,100.196288 236.922684,100.517099 C236.189193,100.837909 235.557939,101.319125 235.026175,101.960039 C234.495098,102.60166 234.073804,103.413579 233.762979,104.394383 C233.450783,105.375894 233.295714,106.525583 233.295714,107.846276 C233.295714,109.148597 233.446666,110.290513 233.74857,111.27061 C234.051161,112.251414 234.477258,113.067573 235.026175,113.719087 C235.576465,114.369187 236.239968,114.85535 237.018745,115.17616 C237.797521,115.496971 238.662752,115.656669 239.615123,115.656669 Z M239.368796,118.034483 C238.030811,118.034483 236.825937,117.797761 235.754863,117.326438 C234.683102,116.855822 233.76641,116.180283 233.007532,115.303354 C232.246596,114.426425 231.664743,113.355879 231.261975,112.091009 C230.858521,110.827553 230.65748,109.412877 230.65748,107.846276 C230.65748,106.261303 230.868127,104.843094 231.289421,103.588117 C231.710715,102.333141 232.302173,101.267541 233.061738,100.389905 C233.822674,99.5122694 234.733191,98.8381434 235.796032,98.3668205 C236.8575,97.8947909 238.021891,97.6594828 239.285773,97.6594828 C240.71433,97.6594828 241.974095,97.9096302 243.064381,98.4085117 C244.153296,98.9088065 245.069988,99.606958 245.812398,100.502966 C246.553436,101.399681 247.117449,102.474467 247.502377,103.728737 C247.887305,104.98442 248.07874,106.356698 248.07874,107.846276 C248.07874,109.525938 247.859173,111.00209 247.42004,112.274733 C246.979533,113.548789 246.375038,114.610149 245.605868,115.459519 C244.836012,116.308183 243.920692,116.949804 242.857851,117.383676 C241.795697,117.81684 240.631992,118.034483 239.368796,118.034483 Z" id="Fill-6" fill="#1C558D"></path>
            <path d="M267.563568,117.212671 C267.02737,117.478364 266.399153,117.680461 265.678225,117.821787 C264.95799,117.96382 264.17341,118.034483 263.323795,118.034483 C261.809294,118.034483 260.456691,117.802708 259.2646,117.341278 C258.073202,116.879141 257.06169,116.213495 256.230755,115.345752 C255.398437,114.478009 254.761917,113.435728 254.319121,112.218909 C253.874941,111.00209 253.653543,109.629813 253.653543,108.100663 C253.653543,106.421708 253.874941,104.931423 254.319121,103.629809 C254.761917,102.328194 255.398437,101.234329 256.230755,100.347507 C257.06169,99.4606853 258.063516,98.7907991 259.236926,98.3378486 C260.409643,97.8848981 261.716584,97.6594828 263.157747,97.6594828 C264.265429,97.6594828 265.166242,97.7393321 265.858803,97.8990307 C266.552056,98.0601426 267.129075,98.2346804 267.590551,98.4226443 L267.119388,100.658425 C266.509852,100.432303 265.890629,100.272604 265.263104,100.177209 C264.634887,100.083227 264.016356,100.035883 263.406128,100.035883 C261.097361,100.035883 259.33863,100.696583 258.128552,102.017277 C256.918473,103.337263 256.313779,105.281205 256.313779,107.846276 C256.313779,109.072281 256.484671,110.172506 256.825762,111.143417 C257.167546,112.115034 257.652546,112.935433 258.280763,113.605319 C258.90898,114.275206 259.674879,114.784687 260.580535,115.133762 C261.4855,115.482131 262.510849,115.656669 263.655893,115.656669 C264.265429,115.656669 264.879809,115.600845 265.49834,115.487784 C266.117562,115.37331 266.666906,115.195239 267.147063,114.949332 L267.563568,117.212671" id="Fill-7" fill="#1C558D"></path>
            <path d="M277.759749,110.474701 L284.542297,110.474701 L281.249061,101.229355 L281.136616,101.229355 L277.759749,110.474701 Z M285.358226,112.778494 L276.943116,112.778494 L275.030144,118.034483 L272.468504,118.034483 L279.983351,98.362069 L282.516176,98.362069 L289.889764,118.034483 L287.244493,118.034483 L285.358226,112.778494 Z" id="Fill-8" fill="#1C558D"></path>
            <polyline id="Fill-9" fill="#1C558D" points="300.193096 118.034483 297.704542 118.034483 297.704542 100.723404 291.980315 100.723404 291.980315 98.362069 305.917323 98.362069 305.917323 100.723404 300.193096 100.723404 300.193096 118.034483"></polyline>
            <path d="M319.056401,115.656669 C320.869815,115.656669 322.293513,115.001622 323.329553,113.690822 C324.364222,112.379314 324.881556,110.431133 324.881556,107.846276 C324.881556,106.488131 324.739529,105.318657 324.455475,104.337146 C324.171422,103.356342 323.764553,102.54513 323.23281,101.903509 C322.701068,101.263301 322.055429,100.790565 321.295895,100.48954 C320.534989,100.187102 319.678712,100.035883 318.726378,100.035883 C317.883823,100.035883 317.096158,100.196288 316.363382,100.517099 C315.630607,100.837909 314.998691,101.319125 314.467634,101.960039 C313.935891,102.60166 313.514614,103.413579 313.203802,104.394383 C312.891618,105.375894 312.736555,106.525583 312.736555,107.846276 C312.736555,109.148597 312.887501,110.290513 313.189393,111.27061 C313.491972,112.251414 313.918052,113.067573 314.467634,113.719087 C315.017216,114.369187 315.680693,114.85535 316.459439,115.17616 C317.238185,115.496971 318.103381,115.656669 319.056401,115.656669 Z M318.809398,118.034483 C317.471465,118.034483 316.267325,117.797761 315.196293,117.326438 C314.124574,116.855822 313.207919,116.180283 312.448384,115.303354 C311.687478,114.426425 311.105649,113.355879 310.702896,112.091009 C310.299458,110.827553 310.098425,109.412877 310.098425,107.846276 C310.098425,106.261303 310.309064,104.843094 310.731027,103.588117 C311.151619,102.333141 311.743054,101.267541 312.502588,100.389905 C313.263494,99.5122694 314.173975,98.8381434 315.23746,98.3668205 C316.298887,97.8947909 317.462546,97.6594828 318.726378,97.6594828 C320.155565,97.6594828 321.41528,97.9096302 322.504838,98.4085117 C323.594395,98.9088065 324.511051,99.606958 325.252746,100.502966 C325.993755,101.399681 326.557746,102.474467 326.942659,103.728737 C327.327572,104.98442 327.519685,106.356698 327.519685,107.846276 C327.519685,109.525938 327.299441,111.00209 326.860324,112.274733 C326.419836,113.548789 325.815364,114.610149 325.046224,115.459519 C324.276398,116.308183 323.361115,116.949804 322.299002,117.383676 C321.236203,117.81684 320.07323,118.034483 318.809398,118.034483 Z" id="Fill-10" fill="#1C558D"></path>
            <polyline id="Fill-11" fill="#1C558D" points="354 118.034483 351.453598 118.034483 350.235877 102.662296 345.225763 118.034483 342.565576 118.034483 337.583025 102.718434 336.33986 118.034483 333.791339 118.034483 335.489646 98.362069 338.602857 98.362069 343.952916 115.280878 349.189188 98.362069 352.302399 98.362069 354 118.034483"></polyline>
            <g id="Group-14" transform="translate(64.110236, 63.935345)">
                <mask id="mask-2" fill="white">
                    <use xlink:href="#path-1"></use>
                </mask>
                <g id="Clip-13"></g>
                <path d="M29.4509882,28.9901121 C23.2072087,35.9569569 12.5649094,36.4874095 5.67445276,30.1774828 C-1.21809449,23.867556 -1.75257874,13.0997198 4.48005118,6.13076724 C10.7210433,-0.838185345 21.370311,-1.36161207 28.2607677,4.94690948 C35.1512244,11.2568362 35.6829213,22.0211595 29.4509882,28.9901121" id="Fill-12" fill="url(#radialGradient-3)" mask="url(#mask-2)"></path>
            </g>
            <g id="Group-17" transform="translate(32.751969, 0.000000)">
                <mask id="mask-5" fill="white">
                    <use xlink:href="#path-4"></use>
                </mask>
                <g id="Clip-16"></g>
                <polygon id="Fill-15" fill="url(#linearGradient-6)" mask="url(#mask-5)" points="-32.7101575 593.64319 1102.93299 593.64319 1102.93299 0.298599138 -32.7101575 0.298599138"></polygon>
            </g>
            <g id="Group-20" transform="translate(0.000000, 51.991379)">
                <mask id="mask-8" fill="white">
                    <use xlink:href="#path-7"></use>
                </mask>
                <g id="Clip-19"></g>
                <polygon id="Fill-18" fill="url(#linearGradient-9)" mask="url(#mask-8)" points="0.0418110236 541.65181 1135.68496 541.65181 1135.68496 -51.6927802 0.0418110236 -51.6927802"></polygon>
            </g>
            <g id="Group-23" transform="translate(91.287402, 71.663793)">
                <mask id="mask-11" fill="white">
                    <use xlink:href="#path-10"></use>
                </mask>
                <g id="Clip-22"></g>
                <path d="M36.7421339,42.8289526 C34.8313701,43.3650259 32.9519646,43.7816595 31.1352756,44.1062543 C20.7152717,45.9287629 12.2262402,44.6760517 12.2262402,44.6760517 C9.36706299,48.0428448 7.1601378,51.4609267 5.43612992,54.8389612 C5.33090551,55.0588707 5.2159252,55.2584052 5.10582283,55.4839353 C5.01035433,55.6890905 4.92882283,55.8844095 4.83265748,56.0881595 C1.31356299,63.744944 -1.32959055,74.8099741 2.31424016,88.4534957 C2.43688583,88.9207155 2.58461811,89.3991767 2.72398819,89.8762328 C5.07237402,89.4610043 7.42354724,88.9874612 9.76984252,88.3607543 C48.9662835,77.7032241 73.5741614,39.7776207 68.9073543,0.292275862 C66.9178465,27.9875216 51.1592717,38.8045388 36.7421339,42.8289526" id="Fill-21" fill="url(#linearGradient-12)" mask="url(#mask-11)"></path>
            </g>
            <g id="Group-26" transform="translate(5.574803, 9.836207)">
                <mask id="mask-14" fill="white">
                    <use xlink:href="#path-13"></use>
                </mask>
                <g id="Clip-25"></g>
                <polygon id="Fill-24" fill="url(#linearGradient-15)" mask="url(#mask-14)" points="-5.53299213 583.806983 1130.11016 583.806983 1130.11016 -9.53760776 -5.53299213 -9.53760776"></polygon>
            </g>
            <g id="Group-29" transform="translate(25.783465, 105.387931)">
                <mask id="mask-17" fill="white">
                    <use xlink:href="#path-16"></use>
                </mask>
                <g id="Clip-28"></g>
                <path d="M62.4935433,41.4371293 C62.4886654,32.2578405 65.0168386,20.1073147 75.1295315,8.66078017 L75.2424213,8.48443103 C73.5929764,6.70548276 67.8132992,2.32415517 52.9501772,5.73872414 C34.6257992,9.95353879 14.4045945,9.46453879 2.58252756,0.450357759 C2.58252756,0.450357759 -10.1161772,27.9741724 23.0336929,49.8035259 C23.0336929,49.8035259 41.2451811,59.5434784 64.8398386,56.4605302 C64.4133661,55.2745647 62.4963307,49.4950905 62.4935433,41.4371293" id="Fill-27" fill="url(#linearGradient-18)" mask="url(#mask-17)"></path>
            </g>
            <g id="Group-32" transform="translate(97.559055, 31.616379)">
                <mask id="mask-20" fill="white">
                    <use xlink:href="#path-19"></use>
                </mask>
                <g id="Clip-31"></g>
                <path d="M47.4304252,0.479866379 C44.8235079,3.66960776 32.4335079,16.7587888 11.7572598,16.7756509 C8.42979921,16.7756509 4.89607087,16.4355991 1.16164961,15.656431 L0.984649606,15.6149784 C0.30173622,18.1372629 -0.260622047,25.2811595 9.83325591,36.2506379 C22.6079173,50.1470905 32.2997126,68.0468793 30.4704803,82.8763664 C30.4704803,82.8763664 60.464315,80.2023233 62.6357008,40.3396897 C62.6357008,40.3396897 61.8963425,19.5466509 47.4304252,0.479866379" id="Fill-30" fill="url(#linearGradient-21)" mask="url(#mask-20)"></path>
            </g>
        </g>
    </g>
</svg>