<svg version="1.0" xmlns="http://www.w3.org/2000/svg" width="342" height="54" viewBox="11 30 500 78" xml:space="preserve"><path clip-path="url(#SVGID_2_)" fill="#D28044" d="M50.129 108.598c-21.607 0-39.123-17.515-39.123-39.122s17.516-39.124 39.123-39.124"/><path clip-path="url(#SVGID_2_)" fill="#002972" d="M57.057 38.221c19.434 0 35.189 15.756 35.189 35.189 0 19.435-15.755 35.188-35.189 35.188m59.902-24.264 12.258-33.51h8.615l12.254 33.51h-9.141l-2.3-6.414h-11.204l-2.247 6.414zm12.93-13.022h6.27l-3.111-9.955zm28.531 13.022V57.908h-10.292v-7.084h29.202v7.084h-10.292v26.426zm37.82.67a20 20 0 0 1-6.25-.979q-2.99-.981-5.242-3.019-2.25-2.034-3.517-5.336-1.269-3.303-1.269-7.851v-.958q0-4.404 1.269-7.587c.845-2.125 2.017-3.845 3.517-5.169 1.502-1.327 3.248-2.313 5.242-2.968a20 20 0 0 1 6.25-.981c2.231 0 4.332.327 6.295.981q2.944.98 5.193 2.968 2.25 1.984 3.545 5.169 1.29 3.184 1.292 7.587v.958q-.002 4.546-1.292 7.851-1.295 3.302-3.545 5.336a14.5 14.5 0 0 1-5.193 3.019q-2.946.978-6.295.979m0-7.23a7.4 7.4 0 0 0 3.565-.882c1.104-.594 2.004-1.596 2.706-3.02q1.051-2.13 1.052-6.054v-.958q-.001-3.734-1.052-5.793c-.702-1.371-1.602-2.332-2.706-2.874a8 8 0 0 0-3.565-.811 8.15 8.15 0 0 0-3.592.811c-1.117.542-2.025 1.503-2.729 2.874q-1.053 2.059-1.053 5.793v.958q0 3.924 1.053 6.054c.704 1.424 1.612 2.426 2.729 3.02a7.6 7.6 0 0 0 3.592.882m21.781 6.56v-33.51h8.807l9.338 16.995 9.143-16.995h8.617v33.51h-8.617V65.138l-6.941 12.733h-4.788l-6.941-12.733v19.196zm42.608 0v-33.51h8.62v20.107l13.161-20.107h7.9v33.51h-8.614V64.228L268.53 84.334zm36.384 0v-33.51h8.619v12.685h12.447V50.824h8.614v33.51h-8.614V70.69h-12.447v13.644zm51.465.67a20 20 0 0 1-6.249-.979q-2.99-.981-5.242-3.019-2.25-2.034-3.518-5.336t-1.268-7.851v-.958q0-4.404 1.268-7.587c.845-2.125 2.019-3.845 3.518-5.169 1.502-1.327 3.248-2.313 5.242-2.968a19.9 19.9 0 0 1 6.249-.981c2.23 0 4.331.327 6.294.981q2.945.98 5.195 2.968 2.249 1.984 3.543 5.169 1.292 3.184 1.293 7.587v.958c0 3.032-.434 5.647-1.293 7.851q-1.295 3.302-3.543 5.336a14.5 14.5 0 0 1-5.195 3.019q-2.948.978-6.294.979m0-7.23a7.4 7.4 0 0 0 3.565-.882c1.104-.594 2.003-1.596 2.705-3.02q1.053-2.13 1.052-6.054v-.958q0-3.734-1.052-5.793c-.702-1.371-1.602-2.332-2.705-2.874a8 8 0 0 0-3.565-.811 8.15 8.15 0 0 0-3.593.811c-1.116.542-2.025 1.503-2.729 2.874q-1.052 2.059-1.052 5.793v.958q.001 3.924 1.052 6.054c.704 1.424 1.613 2.426 2.729 3.02a7.6 7.6 0 0 0 3.593.882m21.781 6.56v-33.51h29.202v33.51h-8.619V57.908h-11.966v26.426zm35.905 0v-33.51h13.644q4.691 0 7.731 1.365 3.042 1.36 4.476 3.927c.958 1.702 1.437 3.755 1.437 6.148q0 3.543-1.437 6.13-1.434 2.581-4.476 3.95-3.04 1.364-7.731 1.365h-5.026v10.625zm8.618-17.714h4.066q3.26.001 4.621-1.076 1.366-1.078 1.365-3.28 0-2.155-1.365-3.254-1.362-1.1-4.621-1.102h-4.066zm38.538 18.384a20 20 0 0 1-6.25-.979q-2.99-.981-5.242-3.019-2.25-2.034-3.518-5.336t-1.268-7.851v-.958q0-4.404 1.268-7.587c.846-2.125 2.019-3.845 3.518-5.169 1.502-1.327 3.248-2.313 5.242-2.968a20 20 0 0 1 6.25-.981c2.231 0 4.332.327 6.294.981q2.946.98 5.194 2.968 2.25 1.984 3.545 5.169 1.29 3.184 1.292 7.587v.958q-.002 4.546-1.292 7.851-1.295 3.302-3.545 5.336a14.5 14.5 0 0 1-5.194 3.019q-2.945.978-6.294.979m0-7.23a7.4 7.4 0 0 0 3.565-.882c1.104-.594 2.004-1.596 2.705-3.02q1.053-2.13 1.052-6.054v-.958q0-3.734-1.052-5.793c-.701-1.371-1.601-2.332-2.705-2.874a8 8 0 0 0-3.565-.811 8.15 8.15 0 0 0-3.592.811c-1.117.542-2.025 1.503-2.73 2.874q-1.051 2.059-1.051 5.793v.958q0 3.924 1.051 6.054c.706 1.424 1.613 2.426 2.73 3.02a7.6 7.6 0 0 0 3.592.882m21.781 6.56v-33.51h8.807l9.338 16.995 9.143-16.995h8.617v33.51h-8.617V65.138l-6.941 12.733h-4.788l-6.941-12.733v19.196z"/></svg>