<svg width="148" height="93" viewBox="0 0 148 93" fill="none" xmlns="http://www.w3.org/2000/svg">
<path d="M26.5 24L31 29.5647C39.0331 25.2218 44.2624 23.2502 56.5 21.5647C54.4174 29.437 53.2827 33.581 51.5 40.5647C37.693 38.6846 28.3483 36.6971 23.4777 30.0771C21.8979 27.9299 21.2487 25.048 22.5006 22.6946C27.4368 13.4154 49.924 7.67096 74 9.06471L64 49.5647H72L83.5 9.06471C97.8941 8.10859 124 12.5647 126.5 24.0647C129 35.5647 102 41.5647 102 41.5647L95 34.0647L116 21.0647L109.5 15.0647L96 24.0647L98 12.5647H88L78 49.5647H87L90.5 41.0647L95 49.5647H99.3281C101.436 49.5647 103.531 49.3355 105.559 48.7584C114.008 46.3531 136.926 38.5461 135 25.0647C133.214 12.5647 116 1.06474 78 0.0647376C37 -1.01425 13 11.5647 13 25.0647C13 37.9577 24.8573 44.407 47.7008 48.9372C49.8871 49.3708 52.1213 49.5647 54.3502 49.5647H58.5L67.5 12.5647C47.5218 13.028 38.6464 14.8495 26.5 24Z" fill="url(#paint0_linear_44_2801)"/>
<path d="M61.7705 63.7344C61.7705 63.7271 61.7705 63.7271 61.7705 63.7197C61.6606 62.3062 60.5913 61.4053 59.0166 61.4053C56.7095 61.4053 54.915 63.7563 54.915 66.8032C54.915 68.7881 56.0283 70.0259 57.7935 70.0259C59.2217 70.0259 60.4082 69.3081 60.7891 68.2168H62.1807C61.6533 70.0991 59.9395 71.249 57.647 71.249C55.186 71.249 53.5454 69.5352 53.5454 66.9424C53.5454 63.0459 55.9185 60.1821 59.1191 60.1821C61.4116 60.1821 63.1108 61.6763 63.1108 63.6904C63.1108 63.7051 63.1108 63.7197 63.1108 63.7344H61.7705ZM66.9209 66.1733L67.1699 64.9868H68.5981C70.085 64.9868 71.1616 64.1152 71.1616 62.9653C71.1616 61.9766 70.5464 61.354 69.3013 61.354C68.0928 61.354 67.0967 62.0205 66.7451 63.1411H65.4634C65.998 61.2588 67.5435 60.1821 69.4697 60.1821C71.4619 60.1821 72.5532 61.3613 72.5532 62.8335C72.5532 64.2251 71.6084 65.2578 70.085 65.5215L70.0557 65.6387C71.2129 65.8804 71.9233 66.6421 71.9233 67.8872C71.9233 69.8428 70.1875 71.249 68.0122 71.249C65.5073 71.249 64.3208 69.8794 64.2402 68.2168H65.5146C65.5586 69.2056 66.3203 70.0918 67.9683 70.0918C69.4258 70.0918 70.5464 69.2422 70.5464 67.9531C70.5464 66.8179 69.77 66.1733 68.3052 66.1733H66.9209ZM79.4688 62.1597L76.8174 66.8545H80.2817L79.5859 62.1597H79.4688ZM80.853 71L80.4282 67.9751H76.1875L74.4883 71H73.0747L79.2637 60.4312H80.4868L82.1421 71H80.853ZM89.834 61.4053C87.4243 61.4053 85.6079 63.7124 85.6079 66.7593C85.6079 68.7075 86.8164 70.0259 88.6108 70.0259C91.0352 70.0259 92.8076 67.77 92.8076 64.6719C92.8076 62.731 91.6064 61.4053 89.834 61.4053ZM88.5083 71.249C86.0327 71.249 84.2163 69.396 84.2163 66.8765C84.2163 63.0312 86.6479 60.1821 89.9365 60.1821C92.4048 60.1821 94.1992 62.0278 94.1992 64.5547C94.1992 68.4292 91.7969 71.249 88.5083 71.249Z" fill="#666C89"/>
<path d="M14.1782 89H9.87158L12.1128 78.4312H18.8877L18.5435 80.0645H13.6875L13.1602 82.4741H14.9766C17.1006 82.4741 18.4995 83.5435 18.4995 85.3013C18.4995 87.3154 16.7783 89 14.1782 89ZM12.1055 87.4326H14.0977C15.5186 87.4326 16.5732 86.5903 16.5732 85.5137C16.5732 84.4956 15.8042 84.0049 14.625 84.0049H12.8452L12.1055 87.4326ZM27.0012 87.3667L26.6643 89H19.8161L22.0646 78.4312H28.9128L28.5686 80.0645H23.632L23.0241 82.8696H27.6896L27.3674 84.4077H22.7019L22.0573 87.3667H27.0012ZM37.268 89H35.3637L37.268 80.0645H33.8842L32.5658 84.8911C31.8627 87.5205 30.9325 89.0806 28.6913 89.0806C28.391 89.0806 28.142 89.0366 28.0175 88.9927L28.369 87.3008C28.4569 87.3228 28.6474 87.3521 28.8158 87.3521C29.8852 87.3521 30.4198 86.2827 30.83 84.7739L32.5219 78.4312H39.5165L37.268 89ZM44.3927 89H42.4884L44.3927 80.0645H41.148L41.485 78.4312H49.8858L49.5489 80.0645H46.297L44.3927 89ZM56.7615 87.3667L56.4246 89H49.5765L51.825 78.4312H58.6731L58.3289 80.0645H53.3924L52.7845 82.8696H57.45L57.1277 84.4077H52.4622L51.8177 87.3667H56.7615ZM67.0283 89H65.124L67.0283 80.0645H63.6445L62.3262 84.8911C61.623 87.5205 60.6929 89.0806 58.4517 89.0806C58.1514 89.0806 57.9023 89.0366 57.7778 88.9927L58.1294 87.3008C58.2173 87.3228 58.4077 87.3521 58.5762 87.3521C59.6455 87.3521 60.1802 86.2827 60.5903 84.7739L62.2822 78.4312H69.2769L67.0283 89ZM76.8703 87.3667L76.5334 89H69.6853L71.9338 78.4312H78.7819L78.4377 80.0645H73.5012L72.8933 82.8696H77.5588L77.2365 84.4077H72.571L71.9265 87.3667H76.8703ZM89.5687 78.4312L83.8705 83.7119L87.4887 89H85.3427L82.1347 84.4443H81.8051L80.831 89H78.9193L81.1679 78.4312H83.0795L82.1127 82.9429H82.4423L87.2763 78.4312H89.5687ZM94.8844 80.46L92.504 84.8032H95.5436L95.0162 80.46H94.8844ZM95.9757 89L95.6607 86.2974H91.7423L90.2555 89H88.2779L94.3497 78.4312H96.4225L97.8946 89H95.9757ZM104.045 89H99.7386L101.98 78.4312H108.755L108.41 80.0645H103.554L103.027 82.4741H104.844C106.968 82.4741 108.367 83.5435 108.367 85.3013C108.367 87.3154 106.645 89 104.045 89ZM101.972 87.4326H103.965C105.386 87.4326 106.44 86.5903 106.44 85.5137C106.44 84.4956 105.671 84.0049 104.492 84.0049H102.712L101.972 87.4326ZM116.868 87.3667L116.531 89H109.683L111.932 78.4312H118.78L118.436 80.0645H113.499L112.891 82.8696H117.557L117.234 84.4077H112.569L111.924 87.3667H116.868ZM127.135 89H125.231L127.135 80.0645H123.751L122.433 84.8911C121.73 87.5205 120.8 89.0806 118.558 89.0806C118.258 89.0806 118.009 89.0366 117.884 88.9927L118.236 87.3008C118.324 87.3228 118.514 87.3521 118.683 87.3521C119.752 87.3521 120.287 86.2827 120.697 84.7739L122.389 78.4312H129.383L127.135 89ZM134.531 83.5288H132.897L132.048 87.4326H134.047C135.461 87.4326 136.523 86.4951 136.523 85.2793C136.523 84.0928 135.732 83.5288 134.531 83.5288ZM129.814 89L132.062 78.4312H133.974L133.22 81.9468H134.926C137.05 81.9468 138.449 83.126 138.449 85.0669C138.449 87.2056 136.728 89 134.128 89H129.814Z" fill="#666C89"/>
<path d="M2.944 87.816L0.672 84.728L2.944 81.624H4.752L2.528 84.728L4.752 87.816H2.944ZM6.272 87.816L4 84.728L6.272 81.624H8.08L5.856 84.728L8.08 87.816H6.272Z" fill="#666C89"/>
<path d="M145.056 87.816L147.328 84.728L145.056 81.624H143.248L145.472 84.728L143.248 87.816H145.056ZM141.728 87.816L144 84.728L141.728 81.624H139.92L142.144 84.728L139.92 87.816H141.728Z" fill="#666C89"/>
<defs>
<linearGradient id="paint0_linear_44_2801" x1="74.0572" y1="0" x2="74.0572" y2="49.5647" gradientUnits="userSpaceOnUse">
<stop stop-color="#5B82B7"/>
<stop offset="1" stop-color="#032D5F"/>
</linearGradient>
</defs>
</svg>
