<?xml version="1.0" encoding="UTF-8"?>
<svg id="Layer_2" data-name="Layer 2" xmlns="http://www.w3.org/2000/svg" viewBox="0 0 549.15 214.74">
  <defs>
    <style>
      .cls-1 {
        fill: #004f6f;
        fill-rule: evenodd;
        stroke-width: 0px;
      }
    </style>
  </defs>
  <g id="_Слой_1" data-name="Слой 1">
    <path class="cls-1" d="m0,0h24.83v50.11h26.05c14.41,0,26.11,11.7,26.11,26.11v71.62c0,14.36-11.7,26.05-26.11,26.05H0V0Zm349.54,118.73v-.06l26.05-7.76v36.92c0,.67-.55,1.22-1.22,1.22h-24.83c-.67,0-1.22-.55-1.22-1.22v-27.88c0-.55.33-1,.83-1.16h.06c.11-.06.22-.06.33-.06h0Zm-7.26-23.84c-10.86,3.16-18.79,13.19-18.79,25.05h0v27.88h0c0,14.36,11.64,26.05,26.05,26.05h24.83c14.41,0,26.05-11.7,26.05-26.05h0v-71.62h0c0-14.41-11.64-26.11-26.05-26.11h-50.88v24.89h50.88c.67,0,1.22.5,1.22,1.22v8.92l-33.31,9.76h0Zm-203.98,10.37v.06l-26.05,7.76v-36.86h0c0-.72.55-1.22,1.22-1.22h24.83c.67,0,1.22.5,1.22,1.22h0v27.83h0c0,.55-.33,1-.83,1.16h-.06v.06h-.33Zm7.21,23.84c10.92-3.16,18.85-13.14,18.85-25.05v-27.83c0-14.41-11.64-26.11-26.05-26.11h-24.83c-14.41,0-26.05,11.7-26.05,26.11v71.62c0,14.36,11.64,26.05,26.05,26.05h50.88v-24.83h-50.88c-.67,0-1.22-.55-1.22-1.22h0v-8.98l33.26-9.76h0ZM524.31,0c-14.41,0-26.05,11.7-26.05,26.05v147.83h24.83v-98.89h26.05v-24.89h-26.05v-24.06c0-.67.55-1.22,1.22-1.22h24.83V0h-24.83Zm-62.53,173.88c14.36,0,26.05-11.7,26.05-26.05V50.11h-24.83v97.72c0,.67-.55,1.22-1.22,1.22h-24.89c-.67,0-1.22-.55-1.22-1.22h0V50.11h-24.83v97.72c0,14.36,11.7,26.05,26.05,26.05h24.89Zm-174.77,16.02h-50.94v24.83h50.94c14.36,0,26.05-11.7,26.05-26.11v-112.41c0-14.41-11.7-26.11-26.05-26.11h-24.83c-14.41,0-26.11,11.7-26.11,26.11v71.62c0,14.36,11.7,26.05,26.11,26.05h26.05v14.74c0,.72-.55,1.27-1.22,1.27h0Zm-26.11-42.07h0c0,.67.55,1.22,1.27,1.22h26.05v-72.84c0-.72-.55-1.22-1.22-1.22h-24.83c-.72,0-1.27.5-1.27,1.22h0v71.62Zm-60.09-97.72c-14.36,0-26.05,11.7-26.05,26.11v97.67h24.83v-97.67h0c0-.72.55-1.22,1.22-1.22h24.83v-24.89h-24.83ZM52.16,147.83v-71.62h0c0-.72-.55-1.22-1.27-1.22h-26.05v74.05h26.05c.72,0,1.27-.55,1.27-1.22h0Z"/>
  </g>
</svg>