<?xml version="1.0" encoding="UTF-8"?>
<svg id="_Слой_1" xmlns="http://www.w3.org/2000/svg" version="1.1" viewBox="0 0 145.71 20.38">
  <!-- Generator: Adobe Illustrator 29.8.2, SVG Export Plug-In . SVG Version: 2.1.1 Build 3)  -->
  <defs>
    <style>
      .st0 {
        fill: #010101;
      }

      .st1 {
        fill: #1f2951;
      }

      .st2 {
        fill: #e95a1a;
      }
    </style>
  </defs>
  <polygon class="st0" points="55.61 16.86 55.25 16.86 55.25 19.37 53.65 19.37 53.65 16.86 53.29 16.86 53.29 19.69 55.28 19.69 55.5 19.69 55.5 20.36 55.89 20.36 55.93 19.36 55.61 19.36 55.61 16.86"/>
  <polygon class="st0" points="57.23 18.42 58.63 18.42 58.63 18.12 57.23 18.12 57.23 17.16 58.73 17.16 58.73 16.86 56.85 16.86 56.85 19.69 58.75 19.69 58.75 19.39 57.23 19.39 57.23 18.42"/>
  <polygon class="st0" points="61.79 18.12 60.13 18.12 60.13 16.86 59.75 16.86 59.75 19.69 60.13 19.69 60.13 18.42 61.79 18.42 61.79 19.69 62.17 19.69 62.17 16.86 61.79 16.86 61.79 18.12"/>
  <polygon class="st0" points="63.09 17.16 64.07 17.16 64.07 19.69 64.45 19.69 64.45 17.16 65.43 17.16 65.43 16.86 63.09 16.86 63.09 17.16"/>
  <path class="st0" d="M68.01,16.98c-.16-.08-.36-.12-.6-.12h-1.05v2.83h.38v-1.03h.68c.24,0,.44-.04.6-.12.16-.08.27-.19.34-.32.08-.14.11-.29.11-.46s-.04-.32-.11-.45c-.07-.14-.19-.24-.35-.32M68.03,18.06c-.05.09-.12.16-.22.21-.1.05-.24.08-.4.08h-.67v-1.19h.66c.17,0,.3.03.41.08.1.05.18.12.22.21.05.09.07.19.07.3s-.02.21-.07.3"/>
  <polygon class="st0" points="72.51 19.21 72.47 19.21 71.41 16.86 70.96 16.86 70.96 19.69 71.32 19.69 71.32 17.54 71.35 17.54 72.32 19.69 72.66 19.69 73.63 17.54 73.66 17.54 73.66 19.69 74.02 19.69 74.02 16.86 73.57 16.86 72.51 19.21"/>
  <path class="st0" d="M77.07,17c-.21-.12-.44-.18-.71-.18s-.5.06-.71.18c-.21.12-.37.29-.49.5-.12.22-.18.48-.18.77s.06.56.18.77c.12.22.28.39.49.5.21.12.44.18.71.18s.5-.06.71-.18c.21-.12.37-.29.49-.5.12-.22.18-.48.18-.77s-.06-.56-.18-.77c-.12-.22-.28-.39-.49-.5M77.24,18.89c-.09.17-.21.3-.36.38-.15.09-.32.13-.51.13s-.36-.04-.51-.13c-.15-.09-.27-.21-.36-.38-.09-.17-.14-.38-.14-.62s.04-.45.14-.62c.09-.17.21-.3.36-.38.15-.09.32-.13.51-.13s.36.04.51.13c.15.09.27.21.36.38.09.17.13.38.13.62s-.04.45-.13.62"/>
  <path class="st0" d="M81,16.86h-1.85l-.07,1.19c-.01.27-.04.49-.09.67-.04.18-.1.32-.16.42-.06.11-.13.19-.2.24h-.2v.99h.36v-.69h2.2v.68h.36v-.98h-.36v-2.53ZM80.64,19.39h-1.55c.06-.09.12-.2.17-.33.05-.13.09-.28.12-.44.03-.17.05-.35.06-.56l.05-.89h1.15v2.22Z"/>
  <path class="st0" d="M83.27,18.62l-.86-1.76h-.41l1.08,2.17-.05.1s-.05.09-.08.13c-.03.04-.08.08-.13.1-.05.03-.11.04-.19.04h-.19v.32h.2c.16,0,.28-.02.38-.07.09-.05.17-.11.22-.18.05-.08.1-.16.14-.25l1.08-2.37h-.4l-.78,1.76Z"/>
  <path class="st0" d="M85.64,18.22c-.01.28-.03.5-.07.67-.03.17-.08.29-.16.37-.07.08-.17.11-.3.11h-.09v.32h.11c.23,0,.4-.06.52-.16.12-.11.2-.27.25-.48.05-.21.08-.46.09-.76l.05-1.13h1.16v2.53h.38v-2.83h-1.9l-.05,1.37Z"/>
  <path class="st0" d="M90.42,18.15c-.15-.07-.34-.1-.57-.1h-.79v-1.19h-.38v2.83h1.17c.22,0,.41-.04.57-.11.15-.07.27-.17.35-.29.08-.13.12-.27.12-.43s-.04-.31-.12-.43c-.08-.12-.2-.21-.35-.28M90.44,19.11c-.05.08-.13.15-.23.2s-.22.08-.36.08h-.79v-1.04h.79c.21,0,.38.05.49.15.11.1.17.22.17.35,0,.09-.03.18-.08.26"/>
  <polygon class="st0" points="93.86 18.12 92.2 18.12 92.2 16.86 91.82 16.86 91.82 19.69 92.2 19.69 92.2 18.42 93.86 18.42 93.86 19.69 94.24 19.69 94.24 16.86 93.86 16.86 93.86 18.12"/>
  <path class="st0" d="M97.3,17c-.21-.12-.44-.18-.71-.18s-.5.06-.71.18c-.21.12-.37.29-.49.5-.12.22-.18.48-.18.77s.06.56.18.77c.12.22.28.39.49.5.21.12.44.18.71.18s.5-.06.71-.18c.21-.12.37-.29.49-.5.12-.22.18-.48.18-.77s-.06-.56-.18-.77c-.12-.22-.28-.39-.49-.5M97.46,18.89c-.09.17-.21.3-.36.38-.15.09-.32.13-.51.13s-.36-.04-.51-.13c-.15-.09-.27-.21-.36-.38-.09-.17-.14-.38-.14-.62s.04-.45.14-.62c.09-.17.21-.3.36-.38.15-.09.32-.13.51-.13s.36.04.51.13c.15.09.27.21.36.38.09.17.13.38.13.62s-.04.45-.13.62"/>
  <polygon class="st0" points="98.94 19.69 99.32 19.69 99.32 17.16 100.82 17.16 100.82 16.86 98.94 16.86 98.94 19.69"/>
  <path class="st0" d="M103.58,17c-.21-.12-.44-.18-.71-.18s-.5.06-.71.18c-.21.12-.37.29-.49.5-.12.22-.18.48-.18.77s.06.56.18.77c.12.22.28.39.49.5.21.12.44.18.71.18s.5-.06.71-.18c.21-.12.37-.29.49-.5.12-.22.18-.48.18-.77s-.06-.56-.18-.77c-.12-.22-.28-.39-.49-.5M103.74,18.89c-.09.17-.21.3-.36.38-.15.09-.32.13-.51.13s-.36-.04-.51-.13c-.15-.09-.27-.21-.36-.38-.09-.17-.14-.38-.14-.62s.04-.45.14-.62c.09-.17.21-.3.36-.38.15-.09.32-.13.51-.13s.36.04.51.13c.15.09.27.21.36.38.09.17.13.38.13.62s-.04.45-.13.62"/>
  <path class="st0" d="M107.51,17.27c.15-.09.32-.13.51-.13.1,0,.2.01.3.04.09.03.18.06.26.11.08.05.15.11.2.19.05.08.09.16.12.26h.38c-.03-.15-.08-.28-.16-.39-.07-.11-.17-.21-.28-.29-.11-.08-.24-.14-.38-.18-.14-.04-.29-.06-.44-.06-.27,0-.5.06-.71.18-.21.12-.37.29-.49.5-.12.22-.18.48-.18.78s.06.56.18.77c.12.22.28.39.49.5.21.12.44.18.71.18.16,0,.3-.02.44-.06.14-.04.26-.1.38-.18.11-.08.2-.18.28-.29.08-.11.13-.24.16-.39h-.38c-.02.1-.06.18-.12.26-.06.08-.12.14-.2.19-.08.05-.16.09-.26.12-.1.03-.2.04-.3.04-.19,0-.36-.04-.51-.13-.15-.09-.27-.21-.36-.38-.09-.17-.13-.38-.13-.62s.05-.45.13-.62c.09-.17.21-.3.36-.38"/>
  <path class="st0" d="M111.22,18.62l-.86-1.76h-.41l1.08,2.17-.05.1s-.05.09-.08.13c-.03.04-.08.08-.13.1-.05.03-.11.04-.19.04h-.19v.32h.2c.16,0,.28-.02.38-.07.09-.05.17-.11.22-.18.05-.08.1-.16.14-.25l1.08-2.37h-.4l-.78,1.76Z"/>
  <path class="st0" d="M115.52,16.86h-1.85l-.07,1.19c-.01.27-.04.49-.09.67-.04.18-.1.32-.16.42-.06.11-.13.19-.2.24h-.2v.99h.36v-.69h2.2v.68h.36v-.98h-.36v-2.53ZM115.16,19.39h-1.55c.06-.09.12-.2.17-.33.05-.13.09-.28.12-.44.03-.17.05-.35.06-.56l.05-.89h1.15v2.22Z"/>
  <path class="st0" d="M118.76,17c-.21-.12-.44-.18-.71-.18s-.5.06-.71.18c-.21.12-.37.29-.49.5-.12.22-.18.48-.18.77s.06.56.18.77c.12.22.28.39.49.5.21.12.44.18.71.18s.5-.06.71-.18c.21-.12.37-.29.49-.5.12-.22.18-.48.18-.77s-.06-.56-.18-.77c-.12-.22-.28-.39-.49-.5M118.92,18.89c-.09.17-.21.3-.36.38-.15.09-.32.13-.51.13s-.36-.04-.51-.13c-.15-.09-.27-.21-.36-.38-.09-.17-.14-.38-.14-.62s.04-.45.14-.62c.09-.17.21-.3.36-.38.15-.09.32-.13.51-.13s.36.04.51.13c.15.09.27.21.36.38.09.17.13.38.13.62s-.04.45-.13.62"/>
  <path class="st0" d="M121.14,17.27c.15-.09.32-.13.51-.13.1,0,.2.01.3.04.09.03.18.06.26.11.08.05.15.11.2.19.06.08.09.16.12.26h.38c-.03-.15-.08-.28-.16-.39-.07-.11-.17-.21-.28-.29-.11-.08-.24-.14-.38-.18-.14-.04-.29-.06-.44-.06-.27,0-.5.06-.71.18-.21.12-.37.29-.49.5-.12.22-.18.48-.18.78s.06.56.18.77c.12.22.28.39.49.5.21.12.44.18.71.18.16,0,.3-.02.44-.06.14-.04.26-.1.38-.18.11-.08.21-.18.28-.29.08-.11.13-.24.16-.39h-.38c-.02.1-.06.18-.12.26-.06.08-.12.14-.2.19-.08.05-.16.09-.26.12-.1.03-.2.04-.3.04-.19,0-.36-.04-.51-.13-.15-.09-.27-.21-.36-.38-.09-.17-.14-.38-.14-.62s.05-.45.14-.62c.09-.17.21-.3.36-.38"/>
  <polygon class="st0" points="123.68 17.16 124.66 17.16 124.66 19.69 125.04 19.69 125.04 17.16 126.02 17.16 126.02 16.86 123.68 16.86 123.68 17.16"/>
  <path class="st0" d="M128.6,16.98c-.16-.08-.36-.12-.6-.12h-1.05v2.83h.38v-1.03h.68c.24,0,.44-.04.6-.12.16-.08.27-.19.35-.32.07-.14.11-.29.11-.46s-.04-.32-.11-.45c-.07-.14-.19-.24-.35-.32M128.62,18.06c-.05.09-.12.16-.22.21-.1.05-.24.08-.4.08h-.67v-1.19h.66c.17,0,.3.03.41.08.1.05.18.12.22.21.05.09.07.19.07.3s-.02.21-.07.3"/>
  <path class="st0" d="M131.97,17c-.21-.12-.44-.18-.71-.18s-.5.06-.71.18c-.21.12-.37.29-.49.5-.12.22-.18.48-.18.77s.06.56.18.77c.12.22.28.39.49.5.21.12.44.18.71.18s.5-.06.71-.18c.21-.12.37-.29.49-.5.12-.22.18-.48.18-.77s-.06-.56-.18-.77c-.12-.22-.28-.39-.49-.5M132.14,18.89c-.09.17-.21.3-.36.38-.15.09-.32.13-.51.13s-.36-.04-.51-.13c-.15-.09-.27-.21-.36-.38-.09-.17-.14-.38-.14-.62s.04-.45.14-.62c.09-.17.21-.3.36-.38.15-.09.32-.13.51-.13s.36.04.51.13c.15.09.27.21.36.38.09.17.13.38.13.62s-.04.45-.13.62"/>
  <polygon class="st0" points="133.99 18.42 135.39 18.42 135.39 18.12 133.99 18.12 133.99 17.16 135.49 17.16 135.49 16.86 133.61 16.86 133.61 19.69 135.51 19.69 135.51 19.39 133.99 19.39 133.99 18.42"/>
  <polygon class="st0" points="138.55 18.12 136.89 18.12 136.89 16.86 136.51 16.86 136.51 19.69 136.89 19.69 136.89 18.42 138.55 18.42 138.55 19.69 138.93 19.69 138.93 16.86 138.55 16.86 138.55 18.12"/>
  <polygon class="st0" points="140.43 19.09 140.4 19.09 140.4 16.86 140.03 16.86 140.03 19.69 140.39 19.69 142.09 17.47 142.12 17.47 142.12 19.69 142.49 19.69 142.49 16.86 142.13 16.86 140.43 19.09"/>
  <path class="st0" d="M144.66,16.86c-.24,0-.44.04-.6.11-.16.07-.27.18-.35.31s-.11.28-.11.45.04.31.11.44.19.23.34.3c.04.02.08.03.12.05l-.7,1.17h.44l.66-1.11s.05,0,.08,0h.68v1.11h.38v-2.83h-1.05ZM144.66,18.27c-.17,0-.3-.02-.4-.07-.1-.05-.18-.11-.22-.19s-.07-.18-.07-.29.02-.21.07-.3c.05-.08.12-.15.22-.2.1-.05.24-.07.41-.07h.66v1.11h-.67Z"/>
  <path class="st1" d="M63.43,6.76h-7.23c-.9,0-1.59-.69-1.59-1.59v-2.22h-1.32v2.44c0,1.47,1.27,2.66,2.73,2.66h7.41v3.78h1.28V2.95h-1.28v3.81Z"/>
  <path class="st1" d="M73.55,5.72v6.08h1.28v-3.79h8.83v3.82h1.28v-7.65h0v-1.28h-8.58c-1.55,0-2.82,1.26-2.82,2.82M83.66,6.73h-8.83v-1.01c0-.85.69-1.53,1.53-1.53h7.3v2.54Z"/>
  <path class="st1" d="M137.13,2.9c-1.55,0-2.82,1.26-2.82,2.82v6.08h1.28v-3.79h8.83v3.82h1.28v-7.65h0v-1.28h-8.58ZM144.42,6.73h-8.83v-1.01c0-.85.69-1.53,1.53-1.53h7.29v2.54Z"/>
  <polygon class="st1" points="95.01 10.15 95.01 2.95 93.79 2.95 93.79 11.83 94.97 11.83 104 4.61 104 11.83 105.22 11.83 105.22 2.95 104.01 2.95 95.01 10.15"/>
  <path class="st1" d="M99.31,2.29c1.37,0,2.58-.78,2.95-1.89l-1.2-.4c-.2.6-.92,1.02-1.74,1.02s-1.54-.43-1.74-1.02l-1.2.4c.37,1.11,1.58,1.89,2.94,1.89"/>
  <polygon class="st1" points="123.57 2.94 119.32 6.78 115.34 6.78 115.34 2.95 114.12 2.95 114.12 11.83 115.34 11.83 115.34 8 119.32 8 123.57 11.83 125.39 11.83 120.47 7.39 125.4 2.94 123.57 2.94"/>
  <polygon class="st1" points="47.18 6.05 45.61 7.85 42.14 11.83 31.19 11.83 29.42 13.86 23.8 13.86 25.57 11.83 29.05 7.85 30.62 6.05 47.18 6.05"/>
  <polygon class="st2" points="27.37 17.86 20.9 17.86 16.73 13.08 14.65 10.71 4.06 10.71 0 6.05 17.07 6.05 21.13 10.71 23.2 13.08 26.04 16.33 27.37 17.86"/>
</svg>