<?xml version="1.0" encoding="UTF-8"?> <svg xmlns="http://www.w3.org/2000/svg" width="103" height="59" viewBox="0 0 103 59" fill="none"> <path d="M0.321413 57.2712H0V55.0809H2.76226V57.2712H2.44279V55.3459H0.321413V57.2712Z" fill="#212121"></path> <path d="M6.62116 55.0813C6.80703 55.0731 6.99194 55.112 7.15881 55.1943C7.28732 55.2622 7.39149 55.3685 7.45685 55.4983C7.51894 55.6376 7.55144 55.7882 7.5523 55.9407V56.418C7.55309 56.5753 7.51777 56.7307 7.44906 56.8721C7.38184 57.0021 7.27556 57.1077 7.14517 57.1741C6.98076 57.2485 6.80155 57.2845 6.62116 57.2793H5.76015C5.60311 57.2909 5.44597 57.2585 5.30626 57.1858C5.23131 57.1486 5.16496 57.0962 5.11146 57.0319V58.1679H4.79004V55.0813H5.11146V55.319C5.16203 55.2587 5.22349 55.2085 5.29263 55.1709C5.4256 55.1013 5.57539 55.0702 5.72508 55.0813H6.62116ZM5.11341 55.9407C5.11341 55.9777 5.11341 56.0206 5.11341 56.0751C5.11126 56.1102 5.11126 56.1453 5.11341 56.1804C5.11138 56.2154 5.11138 56.2505 5.11341 56.2856C5.11341 56.3382 5.11341 56.383 5.11341 56.418C5.11114 56.4973 5.12499 56.5761 5.15412 56.6498C5.18326 56.7235 5.22707 56.7906 5.28289 56.8468C5.35246 56.9067 5.43323 56.9521 5.5205 56.9806C5.60778 57.009 5.69983 57.0199 5.79131 57.0124H6.51012C6.70247 57.0276 6.89437 56.9781 7.05556 56.8721C7.11982 56.8163 7.16992 56.7461 7.20176 56.6671C7.23359 56.5882 7.24624 56.5028 7.23867 56.418V55.9407C7.23867 55.5509 6.99583 55.3528 6.51012 55.3463H5.80105C5.61495 55.3326 5.43074 55.3912 5.28678 55.5099C5.23001 55.5661 5.18534 55.6333 5.15553 55.7074C5.12571 55.7814 5.11138 55.8609 5.11341 55.9407Z" fill="#212121"></path> <path d="M9.49644 55.9286C9.48884 55.6965 9.57361 55.4708 9.73214 55.3011C9.83096 55.216 9.94584 55.1517 10.07 55.1119C10.1941 55.072 10.325 55.0575 10.4549 55.0692H11.3334C11.5253 55.061 11.7162 55.1012 11.8886 55.1862C12.0224 55.2513 12.1302 55.3598 12.1944 55.4941C12.2571 55.6304 12.2896 55.7786 12.2899 55.9286V56.4099C12.2897 56.5622 12.2558 56.7127 12.1905 56.8503C12.1236 56.9836 12.0166 57.0927 11.8847 57.1621C11.7138 57.2472 11.5241 57.2873 11.3334 57.279H10.4549C9.8237 57.279 9.50618 56.9906 9.49644 56.4099C9.49644 56.3748 9.49644 56.33 9.49644 56.2794C9.49644 56.2287 9.49644 56.1936 9.49644 56.1702C9.49644 56.1468 9.49644 56.1137 9.49644 56.0611C9.49644 56.0085 9.49644 55.9637 9.49644 55.9286ZM9.8159 56.4099C9.8159 56.8133 10.036 57.0121 10.4763 57.0121H11.31C11.7522 57.0121 11.9704 56.8172 11.9704 56.4099V55.9286C11.9759 55.8476 11.9636 55.7663 11.9343 55.6906C11.905 55.6148 11.8595 55.5464 11.8009 55.4902C11.6621 55.3795 11.4871 55.3246 11.31 55.3362H10.4763C10.3521 55.3329 10.2285 55.3535 10.112 55.3966C10.0189 55.4343 9.94172 55.5032 9.89383 55.5915C9.84058 55.6965 9.81382 55.8128 9.8159 55.9305V56.4099Z" fill="#212121"></path> <path d="M17.6376 57.2713H17.3181V55.3226H17.2246L16.0558 57.2713H15.8454L14.6766 55.3226H14.5812V57.2713H14.2617V55.0811H14.8461L15.9487 56.9479L17.0629 55.0811H17.6473L17.6376 57.2713Z" fill="#212121"></path> <path d="M22.3961 56.712C22.3961 57.0842 22.1526 57.2712 21.6598 57.2712H19.6826V55.0809H20.0098V55.9286H21.7143C21.8967 55.9157 22.078 55.9651 22.2286 56.0689C22.2839 56.1141 22.3279 56.1717 22.357 56.237C22.3861 56.3023 22.3995 56.3736 22.3961 56.445V56.712ZM20.0098 57.0043H21.5955C21.7265 57.0168 21.8581 56.9874 21.9715 56.9205C22.0068 56.891 22.0347 56.8536 22.0526 56.8112C22.0706 56.7688 22.0782 56.7228 22.0747 56.6769V56.5151C22.079 56.4702 22.0725 56.4249 22.0559 56.3829C22.0393 56.3409 22.0131 56.3034 21.9792 56.2735C21.8634 56.2098 21.731 56.1825 21.5994 56.1955H20.0098V57.0043ZM23.2065 57.2712V55.0809H22.887V57.2712H23.2065Z" fill="#212121"></path> <path d="M25.2344 55.0809H25.5558V57.0043H27.2622V55.0809H27.5817V57.0043H29.2901V55.0809H29.6115V57.2712H25.2344V55.0809Z" fill="#212121"></path> <path d="M34.2107 55.3459H32.3776V56.4547C32.3776 57.0003 32.1147 57.2712 31.5984 57.2712H31.5049V57.0043H31.5984C31.6638 57.0097 31.7296 57.0004 31.7909 56.9772C31.8523 56.9539 31.9076 56.9173 31.953 56.8698C32.0405 56.7464 32.0813 56.5958 32.0679 56.445V55.0809H34.5399V57.2712H34.2205L34.2107 55.3459Z" fill="#212121"></path> <path d="M36.8821 56.1957V56.4101C36.8821 56.8135 37.0769 57.0123 37.4899 57.0123H38.5321C38.6679 57.022 38.8025 56.981 38.91 56.8973C38.9507 56.8625 38.9832 56.8192 39.0051 56.7703C39.0271 56.7215 39.0378 56.6683 39.0366 56.6148V56.57H39.3561V56.6148C39.3561 56.7218 39.3307 56.8273 39.282 56.9226C39.226 57.0305 39.1393 57.1194 39.0327 57.1779C38.892 57.2504 38.735 57.2853 38.5769 57.2792H37.5035C37.2501 57.3 36.998 57.2257 36.7964 57.0707C36.7149 56.9914 36.6517 56.8951 36.6113 56.7887C36.5709 56.6823 36.5543 56.5684 36.5626 56.4549V55.8801C36.5647 55.7427 36.603 55.6082 36.6737 55.4904C36.7509 55.3626 36.8613 55.2582 36.9931 55.1883C37.1483 55.1081 37.3212 55.0686 37.4957 55.0733H38.4171C38.6686 55.0572 38.917 55.1366 39.1126 55.2955C39.1907 55.3642 39.253 55.4492 39.2951 55.5444C39.3371 55.6397 39.3579 55.7429 39.3561 55.847V56.1996L36.8821 56.1957ZM39.0366 55.9288C39.0401 55.8194 39.016 55.7108 38.9665 55.6131C38.9237 55.5268 38.8557 55.4555 38.7717 55.4086C38.674 55.359 38.5656 55.3342 38.4561 55.3364H37.4548C37.3513 55.3344 37.2491 55.36 37.1587 55.4105C37.0748 55.4594 37.0071 55.5319 36.9639 55.6189C36.9152 55.7149 36.8905 55.8212 36.8918 55.9288H39.0366Z" fill="#212121"></path> <path d="M41.6984 57.2713H41.3789V55.0811H41.6984V55.9755H43.8197V55.0811H44.1392V57.2713H43.8197V56.2385H41.6984V57.2713Z" fill="#212121"></path> <path d="M46.5255 57.2713H46.208V55.0811H46.5255V55.9755H48.645V55.0811H48.9644V57.2713H48.645V56.2385H46.5255V57.2713Z" fill="#212121"></path> <path d="M53.735 56.7121C53.735 57.0837 53.4896 57.27 52.9987 57.2713H51.0195V55.0811H51.3468V55.9287H53.0513C53.2337 55.9152 53.4153 55.9647 53.5656 56.069C53.6211 56.1142 53.6654 56.1717 53.6948 56.237C53.7242 56.3023 53.738 56.3736 53.735 56.4451V56.7121ZM51.3468 57.0044H52.9325C53.0641 57.0162 53.1961 56.9869 53.3104 56.9206C53.346 56.8913 53.3741 56.8539 53.3924 56.8115C53.4107 56.7692 53.4187 56.723 53.4156 56.677V56.5152C53.419 56.4702 53.412 56.425 53.3951 56.3831C53.3782 56.3412 53.3519 56.3038 53.3182 56.2737C53.1995 56.2079 53.0634 56.1806 52.9286 56.1956H51.3371L51.3468 57.0044ZM54.5435 57.2713V55.0811H54.224V57.2713H54.5435Z" fill="#212121"></path> <path d="M56.6182 57.2715V55.0813H56.9376V57.0299H57.0389L58.8467 55.0813H59.3785V57.2715H59.059V55.3229H58.9694L57.1636 57.2715H56.6182ZM57.9175 54.6564H57.9584C58.0892 54.6608 58.22 54.649 58.348 54.6214C58.4184 54.6105 58.4819 54.5728 58.5252 54.5162C58.5579 54.4531 58.5734 54.3825 58.5701 54.3115H58.8252C58.831 54.4287 58.8089 54.5455 58.761 54.6525C58.7031 54.7478 58.6112 54.8175 58.5038 54.8474C58.3194 54.8986 58.1282 54.921 57.937 54.9137C57.7502 54.9213 57.5634 54.8988 57.3837 54.8474C57.2756 54.818 57.1829 54.7482 57.1246 54.6525C57.075 54.5467 57.0522 54.4303 57.0584 54.3135H57.3136C57.3109 54.3818 57.3278 54.4494 57.3623 54.5084C57.3821 54.5374 57.4078 54.5619 57.4376 54.5803C57.4675 54.5988 57.5009 54.6108 57.5357 54.6155C57.6608 54.6445 57.789 54.6582 57.9175 54.6564Z" fill="#212121"></path> <path d="M64.5171 57.0044C64.7392 56.8816 64.8522 56.601 64.8522 56.1664V55.0811H67.2872V57.0044H67.5463V58.1054H67.2385V57.2713H64.6613V58.1054H64.3535V57.0044H64.5171ZM66.9599 57.0044V55.346H65.1717V56.1255C65.1717 56.5932 65.0801 56.8855 64.8931 57.0044H66.9599Z" fill="#212121"></path> <path d="M69.76 56.1959V56.4103C69.76 56.8136 69.9548 57.0125 70.3678 57.0125H71.4119C71.5472 57.0222 71.6812 56.9812 71.7879 56.8974C71.8293 56.863 71.8624 56.8198 71.885 56.7709C71.9076 56.722 71.919 56.6688 71.9184 56.6149V56.5701H72.2359V56.6149C72.2353 56.7221 72.2093 56.8276 72.16 56.9227C72.104 57.0307 72.0172 57.1195 71.9106 57.178C71.7699 57.2503 71.6129 57.2852 71.4548 57.2794H70.3814C70.1274 57.3 69.8748 57.2257 69.6724 57.0709C69.5908 56.9915 69.5277 56.8952 69.4873 56.7889C69.4469 56.6825 69.4303 56.5686 69.4386 56.4551V55.8803C69.4407 55.7423 69.4804 55.6075 69.5536 55.4905C69.6299 55.3614 69.7414 55.2566 69.875 55.1884C70.0286 55.1081 70.2003 55.0686 70.3736 55.0735H71.2931C71.5453 55.0567 71.7945 55.1361 71.9905 55.2957C72.0692 55.3641 72.132 55.4488 72.1744 55.5441C72.2168 55.6394 72.2378 55.7429 72.2359 55.8472V56.1998L69.76 56.1959ZM71.9184 55.929C71.9208 55.8192 71.8953 55.7106 71.8444 55.6133C71.7993 55.5253 71.7278 55.4538 71.6399 55.4087C71.543 55.3587 71.4352 55.3339 71.3262 55.3366H70.323C70.2202 55.335 70.1187 55.3605 70.0289 55.4106C69.9449 55.4596 69.8772 55.532 69.8341 55.6191C69.7854 55.715 69.7607 55.8214 69.762 55.929H71.9184Z" fill="#212121"></path> <path d="M77.6121 57.2712H77.2946V55.3225H77.1972L76.0284 57.2712H75.8161L74.6473 55.3225H74.5499V57.2712H74.2304V55.0809H74.8148L75.9154 56.9478L77.0336 55.0809H77.618L77.6121 57.2712Z" fill="#212121"></path> <path d="M79.6049 55.9286C79.6008 55.8136 79.6194 55.6989 79.6599 55.5912C79.7004 55.4835 79.7618 55.3849 79.8407 55.3011C79.9395 55.216 80.0544 55.1517 80.1785 55.1119C80.3026 55.072 80.4335 55.0575 80.5634 55.0692H81.44C81.6331 55.0614 81.8252 55.1016 81.999 55.1862C82.1309 55.2526 82.2371 55.3609 82.301 55.4941C82.3649 55.6301 82.3988 55.7783 82.4003 55.9286V56.4099C82.3986 56.5623 82.364 56.7125 82.299 56.8503C82.2333 56.9845 82.126 57.0939 81.9932 57.1621C81.8216 57.2472 81.6313 57.2873 81.44 57.279H80.5634C79.9322 57.279 79.6127 56.9906 79.6049 56.4099C79.6049 56.3748 79.6049 56.33 79.6049 56.2794C79.6049 56.2287 79.6049 56.1936 79.6049 56.1702C79.6049 56.1468 79.6049 56.1137 79.6049 56.0611C79.6049 56.0085 79.6049 55.9637 79.6049 55.9286ZM79.9244 56.4099C79.9244 56.8133 80.1445 57.0121 80.5828 57.0121H81.4185C81.8588 57.0121 82.0789 56.8172 82.0789 56.4099V55.9286C82.0844 55.8476 82.0721 55.7663 82.0428 55.6906C82.0135 55.6148 81.968 55.5464 81.9094 55.4902C81.7706 55.3795 81.5956 55.3246 81.4185 55.3362H80.5828C80.4593 55.3328 80.3363 55.3533 80.2205 55.3966C80.1266 55.4331 80.0491 55.5023 80.0023 55.5915C79.9482 55.6961 79.9213 55.8127 79.9244 55.9305V56.4099Z" fill="#212121"></path> <path d="M84.714 57.2713H84.3965V55.0811H84.714V55.9755H86.8334V55.0811H87.1568V57.2713H86.8373V56.2385H84.7179L84.714 57.2713Z" fill="#212121"></path> <path d="M90.5936 57.2712H90.2741V55.3459H89.078V55.0809H91.7916V55.3459H90.5936V57.2712Z" fill="#212121"></path> <path d="M93.6948 56.445C93.6919 56.3737 93.7055 56.3025 93.7345 56.2373C93.7636 56.1721 93.8073 56.1144 93.8623 56.0689C94.0139 55.9657 94.1956 55.9164 94.3785 55.9286H95.6564C95.7636 55.9189 95.8712 55.9426 95.9642 55.9968C96.0207 56.0396 96.0499 56.0767 96.0538 56.104V55.8019C96.0563 55.7411 96.0461 55.6805 96.024 55.6238C96.0019 55.5671 95.9683 55.5156 95.9252 55.4726C95.8113 55.3815 95.6675 55.3364 95.522 55.346H94.6766C94.5213 55.3256 94.3639 55.3631 94.2344 55.4512C94.1804 55.4968 94.1451 55.5605 94.135 55.6305V55.7084H93.8039V55.6305C93.8085 55.5631 93.825 55.4972 93.8526 55.4356C93.9015 55.3339 93.9803 55.2496 94.0785 55.194C94.239 55.1074 94.4206 55.0675 94.6025 55.079H95.5649C96.1142 55.079 96.3889 55.3356 96.3889 55.8487V57.2693H96.0694V57.0919C96.0341 57.1362 95.9912 57.1739 95.9428 57.2031C95.8631 57.2513 95.7708 57.2743 95.6778 57.2693H94.437C93.9461 57.2693 93.7006 57.0829 93.7006 56.71L93.6948 56.445ZM94.4915 56.1955C94.3567 56.1812 94.2208 56.2084 94.1019 56.2736C94.0682 56.3037 94.0419 56.3411 94.025 56.383C94.0081 56.4249 94.0011 56.4701 94.0045 56.5152V56.6769C94.0021 56.7223 94.0103 56.7676 94.0286 56.8093C94.0469 56.8509 94.0746 56.8877 94.1097 56.9166C94.2226 56.9809 94.3525 57.0088 94.4818 56.9965H95.5649C95.694 57.0089 95.8234 56.9743 95.9291 56.8991C95.9701 56.8609 96.0018 56.8138 96.0217 56.7614C96.0416 56.709 96.0493 56.6528 96.0441 56.597C96.0441 56.33 95.8863 56.1955 95.5649 56.1955H94.4915Z" fill="#212121"></path> <path d="M100.209 56.1801H99.8953L98.6895 57.2712H98.2492L99.6245 56.0436L98.3836 55.0868H98.8453L99.8855 55.9209H100.209V55.0868H100.526V55.9209H100.842L101.878 55.0868H102.352L101.111 56.0436L102.486 57.2771H102.048L100.84 56.1859H100.53V57.2771H100.209V56.1801Z" fill="#212121"></path> <path d="M1.7671 49.535H0.47168L6.27866 38.3341H8.06887L13.8759 49.535H12.522L11.0883 46.7309H3.19888L1.7671 49.535ZM3.83393 45.5987H10.4805L7.1689 39.1428L3.83393 45.5987Z" fill="#212121"></path> <path d="M19.0312 49.521V38.3338H26.5739C27.3444 38.3073 28.1131 38.4235 28.8414 38.6767C29.3824 38.8761 29.8316 39.2672 30.1037 39.7757C30.3738 40.2863 30.5089 40.9579 30.5089 41.7906C30.5089 42.6227 30.3783 43.2638 30.1193 43.7101C29.8447 44.1681 29.4046 44.5029 28.8901 44.6454C28.14 44.8438 27.365 44.9318 26.5895 44.9066H20.1864V49.521H19.0312ZM20.2 43.7763H26.9421C27.4331 43.7924 27.924 43.7413 28.4011 43.6244C28.5561 43.5845 28.7012 43.5133 28.8275 43.4151C28.9539 43.3169 29.0587 43.1937 29.1355 43.0534C29.3073 42.6556 29.384 42.2232 29.3595 41.7906C29.3595 40.9332 29.1862 40.333 28.8316 39.9881C28.4771 39.6432 27.8868 39.4659 27.057 39.4659H20.2V43.7763Z" fill="#212121"></path> <path d="M36.6109 49.535H35.3232L41.1283 38.3341H42.9068L48.7118 49.535H47.358L45.9242 46.7309H38.0466L36.6109 49.535ZM38.6796 45.5987H45.3243L42.0127 39.1428L38.6796 45.5987Z" fill="#212121"></path> <path d="M62.5876 49.5677H57.6844C56.6773 49.5677 55.8728 49.4372 55.2767 49.178C54.7016 48.9372 54.2383 48.4884 53.9793 47.9211C53.7092 47.3443 53.567 46.559 53.5527 45.5652V42.3051C53.567 41.3126 53.7092 40.5195 53.9793 39.9258C54.2347 39.3418 54.7008 38.8756 55.2845 38.6201C55.8871 38.3473 56.6871 38.2103 57.6844 38.209H62.5876C65.2966 38.209 66.6524 39.2749 66.655 41.4068H65.4862C65.498 41.0181 65.4058 40.6333 65.2193 40.2921C65.0059 39.9599 64.6847 39.7115 64.3096 39.5887C63.7584 39.4035 63.1784 39.319 62.5973 39.3392H57.6961C57.084 39.3132 56.4725 39.4038 55.8942 39.6062C55.6883 39.687 55.501 39.8092 55.3439 39.965C55.1868 40.1208 55.0632 40.307 54.9806 40.5123C54.7751 41.088 54.6832 41.6982 54.7098 42.309V45.5672C54.6993 46.0377 54.7511 46.5075 54.8637 46.9644C54.9483 47.2942 55.1222 47.5942 55.3663 47.8315C55.6251 48.0595 55.9374 48.2184 56.2741 48.2933C56.7405 48.399 57.218 48.4475 57.6961 48.4376H62.6129C63.659 48.4376 64.405 48.2739 64.8433 47.9465C65.2816 47.6191 65.5018 47.0949 65.5018 46.3739H66.6706C66.6914 46.9901 66.5517 47.6012 66.2654 48.1472C65.9668 48.6433 65.5045 49.0195 64.9583 49.2111C64.1969 49.4759 63.393 49.5968 62.5876 49.5677Z" fill="#212121"></path> <path d="M73.0337 49.5349H71.7461L77.555 38.334H79.3316L85.1386 49.5349H83.7847L82.349 46.7307H74.4733L73.0337 49.5349ZM75.1044 45.5986H81.751L78.4297 39.1427L75.1044 45.5986Z" fill="#212121"></path> <path d="M90.3027 49.521V38.3338H97.8532C98.6237 38.3073 99.3924 38.4235 100.121 38.6767C100.662 38.8766 101.111 39.2675 101.385 39.7757C101.679 40.4053 101.817 41.0964 101.788 41.7906C101.788 42.6227 101.658 43.2638 101.399 43.7101C101.124 44.1676 100.685 44.5023 100.171 44.6454C99.4206 44.844 98.6449 44.932 97.8688 44.9066H91.4657V49.521H90.3027ZM91.4715 43.7763H98.2116C98.7032 43.7923 99.1948 43.7412 99.6726 43.6244C99.8276 43.5845 99.9727 43.5133 100.099 43.4151C100.225 43.3169 100.33 43.1937 100.407 43.0534C100.579 42.6556 100.656 42.2232 100.631 41.7906C100.631 40.9332 100.455 40.3324 100.103 39.9881C99.7512 39.6439 99.159 39.4698 98.3265 39.4659H91.4715V43.7763Z" fill="#212121"></path> <path fill-rule="evenodd" clip-rule="evenodd" d="M60.7948 1.97012L59.289 0H60.711L62.2149 1.97012L60.711 3.94409H59.289L60.7948 1.97012ZM55.7086 3.94409H57.1287L58.6345 1.97012L57.1287 0H55.7086L57.2144 1.97012L55.7086 3.94409ZM62.6668 3.94409H64.083L65.5908 1.97012L64.083 0H62.6668L64.1707 1.97012L62.6668 3.94409ZM63.1421 7.75179V13.4964C63.0527 15.3507 62.5888 17.1676 61.7785 18.8378C60.0604 22.2635 57.1033 23.9296 52.7165 23.9296H42.2947V13.5042C42.3781 11.6522 42.8367 9.83636 43.6427 8.16688C45.3589 4.74308 48.3179 3.07695 52.7203 3.07695H53.9378L54.867 1.90775L53.9417 0.738551H52.7203C39.9707 0.738551 39.9707 13.4906 39.9707 13.4906V26.2407H52.7203C65.431 26.2407 65.4661 13.4906 65.4661 13.4906V7.73818L63.1421 7.75179Z" fill="#36A9E1"></path> <path d="M58.3444 7.89062V13.5145C58.289 14.5752 58.0144 15.613 57.5379 16.5622C56.6145 18.316 55.0367 19.1656 52.7108 19.1656H47.0771V13.5417C47.1261 12.4803 47.3983 11.4412 47.8758 10.4921C48.7933 8.73831 50.3751 7.89062 52.7108 7.89062H58.3444Z" fill="#9CC653"></path> </svg> 