<svg width="204" height="74" viewBox="0 0 204 74" fill="none" xmlns="http://www.w3.org/2000/svg">
<path d="M72.3476 36.9891C72.3575 41.8456 71.4029 46.6549 69.5401 51.133C67.6774 55.6112 64.9442 59.6674 61.5019 63.0624L56.5703 59.1363C62.0649 53.9386 65.3915 46.8252 65.8738 39.2419C66.3561 31.6586 63.958 24.1746 59.1669 18.3111L64.443 14.2305C69.5726 20.6858 72.3615 28.7156 72.3476 36.9891Z" fill="url(#paint0_linear_3904_29992)"/>
<path d="M64.4423 14.2325L59.1407 18.3131C54.6348 12.789 48.3168 9.07548 41.3311 7.84522C34.3455 6.61496 27.1541 7.94927 21.0594 11.6065L17.6016 5.67868C25.1136 1.14585 33.9999 -0.48533 42.6131 1.08756C51.2263 2.66045 58.982 7.33072 64.4423 14.2325Z" fill="url(#paint1_linear_3904_29992)"/>
<path d="M6.5823 37.3268C6.57472 42.2837 7.79399 47.1641 10.1295 51.5252L4.11968 53.9195C-0.160491 45.662 -1.14864 36.0658 1.35768 27.097C3.86401 18.1282 9.67505 10.4658 17.6003 5.67969L21.0581 11.6075C16.6411 14.2594 12.984 18.025 10.446 22.5343C7.908 27.0435 6.57649 32.1413 6.5823 37.3268Z" fill="url(#paint2_linear_3904_29992)"/>
<path d="M61.4719 63.0575C57.4409 67.0403 52.5421 70.0166 47.1673 71.7485C41.7925 73.4804 36.0906 73.9199 30.5174 73.0318C24.9442 72.1437 19.6542 69.9527 15.0701 66.6338C10.4861 63.315 6.7352 58.9603 4.11719 53.918L10.127 51.543C12.2866 55.575 15.3351 59.0529 19.0375 61.7087C22.7398 64.3645 26.9972 66.1272 31.4814 66.861C35.9656 67.5947 40.557 67.28 44.9016 65.941C49.2463 64.6019 53.2281 62.2744 56.5403 59.1378L61.4719 63.0575Z" fill="url(#paint3_linear_3904_29992)"/>
<path d="M42.0084 45.4739C40.4053 47.2382 38.946 49.1302 37.6446 51.1314C35.6335 45.7836 32.9627 40.7127 29.6953 36.0383V8.28516C31.8581 20.9389 39.297 39.1149 42.0084 45.4739Z" fill="url(#paint4_linear_3904_29992)"/>
<path d="M42.007 45.4732L42.1409 45.3251L42.2877 45.1771V1.03076C38.1167 0.302077 33.8509 0.323867 29.6875 1.09512V8.28443C31.8566 20.9381 39.2955 39.1141 42.007 45.4732Z" fill="url(#paint5_linear_3904_29992)"/>
<path d="M72.2718 34.6727L71.5573 35.1297L71.4871 35.1683L71.0915 35.4322L70.7853 35.6317C70.1027 36.0951 69.4136 36.565 68.731 37.0541C67.6401 37.8329 66.5491 38.6439 65.4709 39.4935L64.7053 40.092L64.0163 40.6391C63.4932 41.0639 62.97 41.4951 62.4532 41.9264L61.7196 42.57C61.4708 42.7695 61.2219 42.9884 60.9859 43.2136L60.2713 43.8573L59.5632 44.5009C59.0975 44.9192 58.6445 45.3505 58.1915 45.7881C57.9682 45.9941 57.7449 46.2194 57.5535 46.4318L56.9155 47.0754C56.705 47.2878 56.4881 47.5066 56.2776 47.719C56.067 47.9314 55.8629 48.1438 55.6396 48.3626L55.0463 49.0063C54.6571 49.4311 54.2807 49.8494 53.9234 50.2549C53.7448 50.4609 53.5598 50.6668 53.3939 50.8985C53.0494 51.3105 52.724 51.7095 52.4114 52.1086C52.2136 52.366 52.0222 52.617 51.8436 52.8616L51.5373 53.28C51.3651 53.5117 51.2056 53.7498 51.0525 53.9751L49.9934 55.5198C49.7893 55.8287 49.5532 56.1634 49.3172 56.5045V56.5496C49.2805 56.6101 49.24 56.6681 49.1959 56.7234C49.113 56.8585 49.0301 56.9679 48.9726 57.058L48.7366 57.3992C48.66 57.5021 48.5899 57.6051 48.5261 57.7145C48.4623 57.824 48.3283 58.0042 48.2326 58.1522C48.1369 58.3002 48.0157 58.4933 47.9264 58.6285L47.8498 58.7572L47.5691 59.2142C47.5053 59.33 47.4287 59.4395 47.3713 59.5617C47.3139 59.684 47.1161 59.9994 46.9949 60.2054C46.8737 60.4113 46.7333 60.6752 46.6185 60.9069C46.5037 61.1386 46.4654 61.1837 46.4016 61.3253C46.3378 61.4669 46.2229 61.6793 46.14 61.8531C46.0571 62.0268 45.8912 62.3808 45.77 62.6576C45.6488 62.9344 45.4829 63.3012 45.3361 63.6359C45.0873 64.2409 44.8449 64.8588 44.628 65.496C44.5514 65.7019 44.4749 65.9337 44.4111 66.1396C44.3598 66.2659 44.3151 66.3948 44.2771 66.5258C44.226 66.6867 44.1686 66.8412 44.124 67.0085C44.0793 67.1758 44.0028 67.3818 43.9517 67.5685C43.9007 67.7551 43.8369 67.9546 43.7858 68.1542C43.7858 68.2314 43.7348 68.3151 43.7157 68.3859L43.5306 69.1132L43.3967 69.6474C43.3967 69.7761 43.3393 69.8984 43.3137 70.0271C43.2882 70.1558 43.218 70.4326 43.1798 70.6707L43.0649 71.205C42.9501 71.7842 42.8608 72.3764 42.7651 72.9621L42.395 73.0264C42.395 72.8076 42.395 72.5823 42.344 72.3828C42.344 72.3828 42.344 72.3377 42.344 72.312C41.7583 65.0662 40.178 57.9375 37.6484 51.1302C38.9876 49.0764 40.4942 47.1388 42.1526 45.3376L42.2993 45.1896C49.7701 37.1828 59.9779 32.1947 71.8061 30.6758C72.0349 31.9983 72.1904 33.3327 72.2718 34.6727Z" fill="url(#paint6_linear_3904_29992)"/>
<path d="M72.3472 36.9903C72.3472 36.2115 72.3153 35.4456 72.2643 34.6797C71.1095 35.4327 69.8591 36.2759 68.5448 37.1963C67.5113 37.9386 66.4799 38.7131 65.4506 39.5198L64.685 40.1183L63.996 40.6654C63.4686 41.0945 62.9476 41.5236 62.433 41.9527L61.6993 42.5963C61.4568 42.8023 61.208 43.0147 60.972 43.2399L60.2574 43.8836L59.5493 44.5272C59.0835 44.9455 58.6242 45.3768 58.1776 45.8144L57.5396 46.4581L56.9016 47.1017C56.6847 47.3141 56.4742 47.5265 56.2637 47.7453L55.6257 48.3889C55.4215 48.6013 55.2237 48.8137 55.0323 49.0326C54.6453 49.4617 54.271 49.8779 53.9095 50.2812C53.7245 50.4872 53.5522 50.6931 53.38 50.9248C53.0355 51.3303 52.7101 51.7358 52.3975 52.1284C52.1976 52.3859 52.0062 52.6369 51.8233 52.8815C51.7148 53.023 51.6191 53.1582 51.5234 53.2998C51.4277 53.4414 51.1917 53.7632 51.0386 53.9949L49.9859 55.5396L49.2969 56.4278C49.9859 55.5911 50.6366 54.8059 50.7451 54.69C55.6257 49.3479 64.9913 45.1772 71.7411 43.6325C72.1429 41.4416 72.3458 39.2184 72.3472 36.9903Z" fill="url(#paint7_linear_3904_29992)"/>
<path d="M1.5625 26.3777C14.7177 35.2212 23.254 46.3752 27.2733 60.2647C24.2747 46.7485 16.7784 28.727 6.06667 16.7812C4.10732 19.7402 2.58971 22.9735 1.5625 26.3777Z" fill="url(#paint8_linear_3904_29992)"/>
<path d="M37.6484 51.1316C35.6373 45.7838 32.9665 40.7129 29.6992 36.0386V36.1544C24.0913 28.1155 16.6332 21.0163 7.36972 14.9727C6.9444 15.5605 6.51907 16.1634 6.09375 16.7812C6.51907 17.2704 6.9444 17.766 7.36972 18.268C7.90562 18.9117 8.42877 19.5553 8.94554 20.1989C11.9964 24.1625 14.7009 28.3855 17.0288 32.8204C17.2521 33.2452 17.4818 33.67 17.6987 34.1077C17.9156 34.5453 18.2091 35.1117 18.4579 35.6138C18.7067 36.1158 18.9364 36.5856 19.166 37.0748C19.5786 37.963 19.9975 38.8576 20.4229 39.7587C20.7993 40.6083 21.1693 41.4643 21.5266 42.3332L21.9413 43.3437C22.2688 44.1504 22.5856 44.9571 22.8919 45.7638C22.9365 45.8861 22.9812 46.0083 23.0322 46.1242C23.3385 46.9545 23.6383 47.7719 23.9254 48.5893C24.3082 49.692 24.6718 50.784 25.0163 51.8653C25.3013 52.805 25.5714 53.704 25.8266 54.5621C26.052 55.4203 26.2753 56.2463 26.4965 57.0401C26.7772 58.1278 27.0324 59.1963 27.2621 60.2582C27.2621 60.2582 27.2621 60.2582 27.2621 60.2904C28.4564 64.4064 29.2554 68.6287 29.6481 72.8991C33.8236 73.677 38.1028 73.701 42.2866 72.9699V72.2361C42.2888 72.2234 42.2888 72.2103 42.2866 72.1975C41.7089 64.9937 40.1481 57.9048 37.6484 51.1316Z" fill="url(#paint9_linear_3904_29992)"/>
<path d="M95.2232 44.097V36.8175H87.8226V44.097H85.1367V27.7617H87.8226V34.3203H95.2232V27.7617H97.9283V44.097H95.2232Z" fill="#706F6F"/>
<path d="M114.719 27.7617V44.097H112.014V30.2332H104.633V44.097H101.953V27.7617H114.719Z" fill="#706F6F"/>
<path d="M131.519 27.7617V44.097H128.813V30.2332H121.432V44.097H118.746V27.7617H131.519Z" fill="#706F6F"/>
<path d="M141.834 46.5669H139.633V41.7848H141.323L147.129 27.625H148.265L154.281 41.7848H156.042V46.5669H153.866V44.0954H141.834V46.5669ZM144.029 41.7397H151.544L147.716 32.0853L144.029 41.7397Z" fill="#706F6F"/>
<path d="M165.152 44.3782C160.686 44.3782 156.941 41.2502 156.941 35.9274C156.941 30.6046 160.776 27.4766 165.197 27.4766C169.618 27.4766 173.433 30.6046 173.433 35.9274C173.433 40.8962 170.033 44.3782 165.152 44.3782ZM165.197 41.8037C168.227 41.8037 170.747 39.7248 170.747 35.9209C170.747 32.1171 168.246 30.0189 165.216 30.0189C162.186 30.0189 159.666 32.1429 159.666 35.9209C159.666 39.699 162.141 41.8101 165.197 41.8101V41.8037Z" fill="#706F6F"/>
<path d="M175.699 31.6363C175.628 28.6756 178.148 27.4141 180.86 27.4141C184.005 27.4141 186.136 29.1905 186.136 31.9194C186.149 32.6143 185.964 33.2983 185.601 33.8895C185.239 34.4808 184.716 34.9543 184.094 35.2534C184.958 35.5448 185.703 36.1135 186.216 36.8725C186.728 37.6315 186.98 38.539 186.933 39.4563C186.933 42.5586 184.598 44.4766 180.847 44.4766C177.517 44.4766 175.156 42.6101 175.156 39.1088H177.561C177.561 41.0911 179.042 42.0952 180.847 42.0952C182.761 42.0952 184.222 41.1169 184.222 39.3212C184.222 37.5254 182.742 36.4763 180.866 36.4763H179.724V34.2751H180.86C182.314 34.2751 183.59 33.3676 183.59 31.9902C183.59 30.4262 182.27 29.6088 180.86 29.6088C179.45 29.6088 178.199 30.1945 178.199 31.6363H175.699Z" fill="#706F6F"/>
<path d="M192.169 40.709L190.593 44.0945H187.773V43.7469L195.27 27.6562H196.546L203.997 43.7469V44.0945H201.197L199.602 40.709H192.169ZM193.05 38.4241H198.715L195.863 31.8913L193.05 38.4241Z" fill="#706F6F"/>
<defs>
<linearGradient id="paint0_linear_3904_29992" x1="64.443" y1="63.056" x2="64.443" y2="14.2305" gradientUnits="userSpaceOnUse">
<stop offset="0.18" stop-color="#004899"/>
<stop offset="0.39" stop-color="#042859"/>
<stop offset="0.63" stop-color="#042859"/>
<stop offset="0.71" stop-color="#03316C"/>
<stop offset="0.86" stop-color="#004899"/>
</linearGradient>
<linearGradient id="paint1_linear_3904_29992" x1="53.8199" y1="9.41172" x2="22.1057" y2="9.41172" gradientUnits="userSpaceOnUse">
<stop offset="0.13" stop-color="#004899"/>
<stop offset="0.27" stop-color="#023C81"/>
<stop offset="0.47" stop-color="#032D64"/>
<stop offset="0.58" stop-color="#042859"/>
<stop offset="0.66" stop-color="#042A5D"/>
<stop offset="0.74" stop-color="#033068"/>
<stop offset="0.82" stop-color="#02397B"/>
<stop offset="0.89" stop-color="#004796"/>
<stop offset="0.9" stop-color="#004899"/>
</linearGradient>
<linearGradient id="paint2_linear_3904_29992" x1="10.5442" y1="53.9002" x2="10.5442" y2="5.67969" gradientUnits="userSpaceOnUse">
<stop offset="0.13" stop-color="#004899"/>
<stop offset="0.54" stop-color="#052859"/>
<stop offset="0.75" stop-color="#042859"/>
<stop offset="0.8" stop-color="#03316C"/>
<stop offset="0.9" stop-color="#004899"/>
</linearGradient>
<linearGradient id="paint3_linear_3904_29992" x1="4.11719" y1="62.5039" x2="61.4719" y2="62.5039" gradientUnits="userSpaceOnUse">
<stop offset="0.18" stop-color="#004899"/>
<stop offset="0.43" stop-color="#042859"/>
<stop offset="0.65" stop-color="#042859"/>
<stop offset="0.72" stop-color="#03316C"/>
<stop offset="0.86" stop-color="#004899"/>
</linearGradient>
<linearGradient id="paint4_linear_3904_29992" x1="32.7449" y1="30.6061" x2="44.6546" y2="63.0483" gradientUnits="userSpaceOnUse">
<stop offset="0.18" stop-color="#004899"/>
<stop offset="0.55" stop-color="#042859"/>
<stop offset="0.61" stop-color="#042859"/>
<stop offset="0.69" stop-color="#03316C"/>
<stop offset="0.86" stop-color="#004899"/>
</linearGradient>
<linearGradient id="paint5_linear_3904_29992" x1="35.9908" y1="42.6348" x2="35.9908" y2="-1.66604" gradientUnits="userSpaceOnUse">
<stop stop-color="#004899"/>
<stop offset="0.59" stop-color="#23B9D6"/>
<stop offset="0.99" stop-color="#D4EDFC"/>
</linearGradient>
<linearGradient id="paint6_linear_3904_29992" x1="35.6579" y1="63.3012" x2="75.3324" y2="35.7605" gradientUnits="userSpaceOnUse">
<stop offset="0.01" stop-color="#03326C"/>
<stop offset="0.08" stop-color="#033471"/>
<stop offset="0.16" stop-color="#023B7F"/>
<stop offset="0.24" stop-color="#004796"/>
<stop offset="0.25" stop-color="#004899"/>
<stop offset="0.63" stop-color="#23B9D6"/>
<stop offset="0.99" stop-color="#D4EDFC"/>
</linearGradient>
<linearGradient id="paint7_linear_3904_29992" x1="49.2841" y1="45.557" x2="72.3472" y2="45.557" gradientUnits="userSpaceOnUse">
<stop stop-color="#004899"/>
<stop offset="0.35" stop-color="#004695"/>
<stop offset="0.69" stop-color="#014089"/>
<stop offset="0.99" stop-color="#033878"/>
</linearGradient>
<linearGradient id="paint8_linear_3904_29992" x1="1.5625" y1="38.523" x2="27.2733" y2="38.523" gradientUnits="userSpaceOnUse">
<stop stop-color="#004899"/>
<stop offset="0.99" stop-color="#042859"/>
</linearGradient>
<linearGradient id="paint9_linear_3904_29992" x1="14.5279" y1="65.7548" x2="32.7808" y2="26.9385" gradientUnits="userSpaceOnUse">
<stop offset="0.02" stop-color="#033878"/>
<stop offset="0.18" stop-color="#033A7D"/>
<stop offset="0.37" stop-color="#01418B"/>
<stop offset="0.5" stop-color="#004899"/>
<stop offset="0.55" stop-color="#0455A0"/>
<stop offset="0.64" stop-color="#0F77B3"/>
<stop offset="0.77" stop-color="#20AFD0"/>
<stop offset="0.8" stop-color="#23B9D6"/>
<stop offset="0.99" stop-color="#D4EDFC"/>
</linearGradient>
</defs>
</svg>
