<svg width="175" height="32" viewBox="0 0 175 32" fill="none" xmlns="http://www.w3.org/2000/svg">
<path fill-rule="evenodd" clip-rule="evenodd" d="M6.00156 24.7149C8.66134 27.3702 12.2759 29.0042 16.2997 29.0042C24.2791 29.0042 30.8262 22.5362 30.8262 14.5021C30.8262 6.46808 24.3473 0 16.2997 0C12.2759 0 8.59314 1.63404 6.00156 4.28936C4.84216 5.44681 4.84216 7.35319 6.00156 8.51063C7.16095 9.66808 9.07055 9.66808 10.2299 8.51063C11.7985 6.87659 13.9809 5.99149 16.2315 5.9234C17.6637 5.9234 19.6415 6.46808 21.0055 7.08085C22.2331 7.69361 26.3932 10.2128 23.7335 10.9617C22.8469 10.9617 21.4147 10.9617 20.2553 10.9617C18.4821 10.9617 18.2775 11.166 17.7319 12.1872C16.9135 13.617 16.9135 15.3191 17.7319 16.7489C18.2775 17.7702 18.4821 17.9745 20.2553 17.9745C21.4829 17.9745 22.9151 17.9745 23.7335 17.9745C26.3932 18.7234 22.2331 21.2425 21.0055 21.8553C19.7097 22.4681 17.7319 23.0808 16.2315 23.0808C13.9809 23.0808 11.7985 22.1277 10.2299 20.4936C9.07055 19.3362 7.16095 19.3362 6.00156 20.4936C4.84216 21.6511 4.84216 23.5574 6.00156 24.7149ZM13.0943 14.5021C13.0943 15.0468 12.9579 15.5234 12.8215 15.7957C12.5487 16.3404 12.3441 16.5447 12.0713 16.7489C11.7303 16.9532 11.2529 17.0213 10.2981 17.0213H2.79618C1.84138 17.0213 1.36399 16.9532 1.02299 16.7489C0.681996 16.5447 0.477393 16.3404 0.272794 15.7957C0.136395 15.5234 0 15.0468 0 14.5021C0 13.9574 0.136395 13.4808 0.272794 13.2085C0.545593 12.7319 0.750196 12.4596 1.02299 12.2553C1.36399 12.0511 1.84138 11.983 2.79618 11.983H10.2981C11.2529 11.983 11.7303 12.0511 12.0713 12.2553C12.4123 12.4596 12.6169 12.6638 12.8215 13.2085C12.9579 13.4808 13.0943 13.9574 13.0943 14.5021Z" fill="#E2000F"/>
<path d="M66.9039 25.6C68.1996 25.6 68.7452 25.1234 68.7452 23.8298V12.7319C68.7452 11.5745 68.1315 11.0298 66.9039 11.0298C65.6763 11.0298 65.1307 11.5745 65.1307 12.7319V16.2724H59.5383V12.7319C59.5383 11.5745 58.9245 11.0298 57.6969 11.0298C56.4693 11.0298 55.8555 11.5745 55.8555 12.7319V23.8979C55.8555 25.1234 56.4693 25.6681 57.6969 25.6681C58.9245 25.6681 59.5383 25.1915 59.5383 23.8979V19.6766H65.1307V23.8979C65.0625 25.1234 65.6763 25.6 66.9039 25.6ZM77.202 11.166C73.8602 11.166 71.405 13.2766 71.405 16.8851V19.949C71.405 23.4894 73.792 25.4639 77.0656 25.4639H81.5668C82.2488 25.4639 83.0671 24.8511 83.0671 23.6936C83.0671 22.5362 82.2488 22.0596 81.5668 22.0596H77.4748C75.9744 22.0596 75.0196 21.3107 75.0196 20.1532V19.949H82.4534C84.0219 19.949 84.4311 18.7915 84.4311 18.1107V16.8851C84.4311 13.2085 81.9078 11.166 78.6342 11.166H77.202ZM80.7484 17.1575H75.0878V16.9532C75.0878 15.5915 76.0426 14.7745 77.3384 14.7745H78.4296C79.9982 14.7745 80.7484 15.5915 80.7484 16.9532V17.1575ZM88.6595 11.166C87.3637 11.166 86.8863 12.3234 86.8863 13.0724V30.6383C86.8863 31.3192 87.5683 32 88.7277 32C89.9553 32 90.5691 31.3873 90.5691 30.6383V25.5319H94.7293C98.1393 25.5319 100.526 23.6256 100.526 19.8128V16.749C100.526 13.0724 98.0029 11.166 94.6611 11.166H88.6595V11.166ZM96.7753 19.7447C96.7753 21.1745 96.1615 22.0596 94.4565 22.0596H90.5009V14.7064H94.4565C96.0933 14.7064 96.7071 15.5915 96.7071 16.8851V19.7447H96.7753ZM106.801 14.6383H113.007C114.166 14.6383 114.78 14.0256 114.78 12.8681C114.78 11.7107 114.166 11.0979 113.007 11.0979H104.959C103.732 11.0979 103.118 11.7107 103.118 12.8681V23.8298C103.118 25.0553 103.732 25.5319 104.959 25.5319C106.187 25.5319 106.801 25.0553 106.801 23.8298V14.6383ZM123.441 25.4639C126.578 25.4639 129.102 23.6256 129.102 19.8809V16.8851C129.102 13.1405 126.715 11.2341 123.305 11.2341H121.395C117.985 11.2341 115.598 13.1405 115.598 16.8851V19.949C115.598 23.6936 118.122 25.5319 121.259 25.5319H123.441V25.4639ZM123.169 14.5022C124.805 14.5022 125.487 15.3873 125.487 16.817V20.017C125.487 21.3107 124.873 22.1958 123.237 22.1958H121.668C120.031 22.1958 119.418 21.3107 119.418 20.017V16.817C119.418 15.3873 120.031 14.5022 121.736 14.5022H123.169ZM46.9896 25.4639C50.195 25.4639 52.9229 23.4894 52.9229 19.2V11.4383C52.9229 7.14897 51.4225 5.03833 47.1942 5.03833H40.8516C39.6922 5.03833 39.2148 5.71918 39.2148 6.80854C39.2148 7.8979 39.7604 8.57876 40.8516 8.57876H46.8532C48.6264 8.57876 49.2402 9.66812 49.2402 11.3022V12.8H43.034C41.8064 12.8 41.2608 13.3447 41.2608 14.6383C41.2608 16.0681 41.8746 16.4766 43.034 16.4766H49.2402V19.2681C49.2402 20.9022 48.3536 21.9234 46.8532 21.9234H40.5788C39.4876 21.9234 38.942 22.6043 38.942 23.6936C38.942 24.783 39.4876 25.4639 40.5788 25.4639H46.9896Z" fill="white"/>
<path fill-rule="evenodd" clip-rule="evenodd" d="M153.381 25.4639C156.859 25.4639 159.246 23.6256 159.246 19.8809V16.8851C159.246 13.1405 156.859 11.2341 153.449 11.2341H149.085C148.403 11.2341 147.584 11.9149 147.584 13.0043C147.584 14.1617 148.403 14.7745 149.085 14.7745H153.177C154.745 14.7745 155.427 15.4553 155.495 16.817H150.994C149.903 16.817 149.221 17.2936 149.221 18.3149C149.221 19.5404 149.835 19.8809 150.994 19.8809H155.495C155.427 21.1064 154.881 21.9915 153.245 21.9915H148.948C148.266 21.9915 147.448 22.6043 147.448 23.7617C147.448 24.8511 148.198 25.5319 149.016 25.5319H153.381V25.4639ZM174.387 13.0724C174.455 12.8681 174.455 12.7319 174.455 12.5958C174.455 11.5745 173.636 11.0298 172.477 10.9617C171.318 10.8936 170.977 11.6426 170.704 12.3915L170.022 14.5022C169.408 16.0681 168.658 16.4085 167.43 16.4085H165.589V12.8C165.589 11.7107 165.18 10.9617 163.747 10.9617C162.383 10.9617 161.906 11.6426 161.906 12.8V23.8298C161.906 25.1234 162.52 25.6681 163.679 25.6681C165.043 25.6681 165.521 25.0553 165.521 23.7617V19.5405H167.43C168.862 19.5405 169.681 19.8809 170.226 21.6511L171.045 24.2383C171.318 24.9873 171.59 25.7362 172.75 25.7362C173.909 25.7362 174.796 25.1915 174.796 24.1702C174.796 24.0341 174.796 23.8298 174.728 23.6936L173.705 20.766C173.227 19.3362 172.682 18.383 171.249 17.9745C172.477 17.4979 172.954 16.6809 173.432 15.3192L174.387 13.0724ZM144.583 8.57876C145.675 8.57876 146.288 7.8979 146.288 6.80854C146.288 5.71918 145.675 5.03833 144.583 5.03833H132.307C131.216 5.03833 130.671 5.71918 130.671 6.80854C130.671 7.8979 131.216 8.57876 132.307 8.57876H136.672V23.966C136.672 25.1915 137.286 25.6681 138.514 25.6681C139.741 25.6681 140.355 25.1234 140.355 23.966V8.57876H144.583Z" fill="#E2000F"/>
</svg>
