<svg width="76" height="28" viewBox="0 0 76 28" fill="none" xmlns="http://www.w3.org/2000/svg">
<g clip-path="url(#clip0_1419_22)">
<path d="M5.71555 12.0585V13.252H18.1048V19.2029H5.9509C2.67286 19.2029 0 16.5301 0 13.252V7.28433H18.1048V12.0417H5.71555V12.0585ZM0 0.139893V6.09079H12.1539C15.4488 6.09079 18.1048 3.41793 18.1048 0.139893H0Z" fill="white"/>
<path d="M37.4032 6.09079H30.9648V0.139893H37.4032V6.09079ZM19.2984 7.28433V19.2029H25.7368V13.252H25.9721C25.9721 16.5469 28.645 19.2029 31.923 19.2029H37.4032V7.28433H19.2984ZM29.7881 6.09079C29.7881 2.79594 27.1153 0.139893 23.8372 0.139893H19.3152V6.09079H29.7881Z" fill="white"/>
<path d="M56.7016 13.252C56.7016 16.5469 54.0288 19.2029 50.7507 19.2029H39.0843V13.252H51.0029V12.0585H44.0434C41.2528 12.0585 38.9666 9.974 38.6136 7.30114H56.7184L56.7016 13.252ZM57.1891 0.610585C57.1891 0.44248 57.1723 0.291187 57.1723 0.139893H44.0938C41.0679 0.139893 38.6136 2.59422 38.6136 5.6201V6.09079H51.7257C54.7348 6.09079 57.1891 3.63646 57.1891 0.610585Z" fill="white"/>
<path d="M57.8951 6.09079C57.8951 2.79594 60.568 0.139893 63.846 0.139893H76V6.09079H57.8951ZM70.0491 7.28433V11.4533C70.0491 12.4451 69.2422 13.2352 68.2672 13.2352H63.8628V7.28433H57.912V19.2029H70.0659C73.3607 19.2029 76.0168 16.5301 76.0168 13.252V7.28433H70.0491Z" fill="white"/>
<path d="M14.3057 26.9692V27.7761H10.3889V22.5481H14.2048V23.355H11.3639V24.7166H13.8854V25.5235H11.3639V26.9692H14.3057Z" fill="white"/>
<path d="M20.0885 22.5481V27.7761H19.2816L16.407 24.2291V27.7761H15.432V22.5481H16.2389L19.1303 26.0951V22.5481H20.0885Z" fill="white"/>
<path d="M25.1484 25.1033H26.073V27.1878C25.804 27.4064 25.4846 27.5745 25.1316 27.6753C24.7786 27.793 24.4088 27.8435 24.0221 27.8435C23.4842 27.8435 23.0135 27.7258 22.5764 27.4904C22.1394 27.2551 21.8031 26.9357 21.5678 26.5322C21.3156 26.1288 21.198 25.6581 21.198 25.1538C21.198 24.6327 21.3156 24.1788 21.5678 23.7753C21.82 23.3719 22.1562 23.0525 22.5764 22.8171C23.0135 22.5818 23.501 22.4641 24.0389 22.4641C24.476 22.4641 24.8795 22.5314 25.2325 22.6826C25.5855 22.8339 25.8881 23.0357 26.1402 23.3214L25.5351 23.9266C25.1316 23.5232 24.6609 23.3214 24.0894 23.3214C23.7195 23.3214 23.4001 23.4055 23.0975 23.5568C22.8118 23.7081 22.5932 23.9266 22.4251 24.2124C22.257 24.4982 22.1898 24.8176 22.1898 25.1706C22.1898 25.5236 22.2738 25.8262 22.4251 26.112C22.5932 26.3978 22.8118 26.6163 23.0975 26.7676C23.3833 26.9189 23.7027 27.0029 24.0726 27.0029C24.476 27.0029 24.8458 26.9189 25.1484 26.734V25.1033Z" fill="white"/>
<path d="M28.4601 22.5481H27.4851V27.7761H28.4601V22.5481Z" fill="white"/>
<path d="M34.6127 22.5481V27.7761H33.8058L30.9144 24.2291V27.7761H29.9562V22.5481H30.7631L33.6377 26.0951V22.5481H34.6127Z" fill="white"/>
<path d="M40.0929 26.9692V27.7761H36.1592V22.5481H39.992V23.355H37.1342V24.7166H39.6726V25.5235H37.1342V26.9692H40.0929Z" fill="white"/>
<path d="M45.4723 26.9692V27.7761H41.5554V22.5481H45.3714V23.355H42.5304V24.7166H45.052V25.5235H42.5304V26.9692H45.4723Z" fill="white"/>
<path d="M50.2464 27.7761L49.1705 26.2464C49.1201 26.2464 49.0529 26.2464 48.9688 26.2464H47.7921V27.7761H46.8171V22.5481H48.9688C49.4227 22.5481 49.8261 22.6153 50.1624 22.7666C50.4986 22.9179 50.7507 23.1365 50.9356 23.4054C51.1206 23.6912 51.2046 24.0106 51.2046 24.3972C51.2046 24.7839 51.1037 25.1369 50.9188 25.4227C50.7339 25.7085 50.4481 25.927 50.0951 26.0615L51.3055 27.7761H50.2464ZM49.8934 23.6408C49.6749 23.4559 49.3555 23.3718 48.9352 23.3718H47.7921V25.4563H48.9352C49.3555 25.4563 49.6749 25.3722 49.8934 25.1873C50.1119 25.0024 50.2296 24.7503 50.2296 24.4141C50.2296 24.0778 50.1119 23.8089 49.8934 23.6408Z" fill="white"/>
<path d="M53.4572 22.5481H52.4822V27.7761H53.4572V22.5481Z" fill="white"/>
<path d="M59.6266 22.5481V27.7761H58.8366L55.9452 24.2291V27.7761H54.9702V22.5481H55.7771L58.6685 26.0951V22.5481H59.6266Z" fill="white"/>
<path d="M64.7202 25.1033H65.6448V27.1878C65.3758 27.4064 65.0564 27.5745 64.7034 27.6753C64.3504 27.793 63.9805 27.8435 63.5939 27.8435C63.056 27.8435 62.5853 27.7258 62.1482 27.4904C61.7111 27.2551 61.3749 26.9357 61.1396 26.5322C60.8874 26.1288 60.7697 25.6581 60.7697 25.1538C60.7697 24.6327 60.8874 24.1788 61.1396 23.7753C61.3917 23.3719 61.7279 23.0525 62.1482 22.8171C62.5853 22.5818 63.0728 22.4641 63.6107 22.4641C64.0478 22.4641 64.4512 22.5314 64.8043 22.6826C65.1573 22.8339 65.4599 23.0357 65.712 23.3214L65.1068 23.9266C64.7034 23.5232 64.2327 23.3214 63.6611 23.3214C63.2913 23.3214 62.9719 23.4055 62.6693 23.5568C62.3835 23.7081 62.165 23.9266 61.9969 24.2124C61.8288 24.4982 61.7616 24.8176 61.7616 25.1706C61.7616 25.5236 61.8456 25.8262 61.9969 26.112C62.165 26.3978 62.3835 26.6163 62.6693 26.7676C62.9551 26.9189 63.2745 27.0029 63.6443 27.0029C64.0478 27.0029 64.4176 26.9189 64.7202 26.734V25.1033Z" fill="white"/>
</g>
<defs>
<clipPath id="clip0_1419_22">
<rect width="76" height="27.7204" fill="white" transform="translate(0 0.139893)"/>
</clipPath>
</defs>
</svg>
