<svg width="209" height="130" viewBox="0 0 209 130" fill="none" xmlns="http://www.w3.org/2000/svg">
<path d="M142.766 4.64355H6.96206L4.64062 125.358H203.123V90.5366H119.552V39.4651H142.766V4.64355Z" fill="white" stroke="black" stroke-width="3.78573"/>
<path d="M116.323 79.0671V74.3298H104.109V51.3348H98.7267V79.0671H116.323ZM50.7164 51.3348H29.1214V56.072H37.2276V79.0264C39.065 79.1281 40.8376 79.1484 42.6318 79.0264V56.0314H50.7164V51.3348ZM26.9381 52.6157C25.8789 52.2497 24.9494 51.9447 23.9983 51.5991C21.4908 50.7248 18.8968 50.4808 16.2379 50.8061C13.9898 51.0908 12.0011 51.8837 10.7041 53.6932C8.49921 56.7836 9.10448 60.911 12.1308 63.4117C14.1411 65.0789 16.4109 66.4412 18.5293 67.9864C19.4372 68.6573 20.4099 69.3079 21.1233 70.1415C22.7661 72.0527 21.6421 74.0859 19.2643 74.5535C17.0378 75.0008 14.8545 74.5332 12.7793 73.7199C11.7633 73.3336 10.8122 72.8456 9.77459 72.378C8.95316 73.9232 8.15335 75.4481 7.35354 76.9933C7.52647 77.1153 14.1844 79.7177 17.7511 79.6974C19.8695 79.6771 21.9231 79.3517 23.7605 78.3555C26.1383 77.0949 27.3272 75.1228 27.5434 72.561C27.7812 69.9382 27.1327 67.5797 25.0143 65.8312C22.9607 64.1437 20.6477 62.7205 18.4644 61.1346C17.4701 60.4027 16.4541 59.6911 15.6111 58.8168C14.7896 57.9832 14.9626 56.2347 16.7135 55.7874C18.4428 55.3604 20.0857 55.6654 21.7069 56.1737C22.6148 56.4583 23.4795 56.865 24.4522 57.2309C25.2737 55.7671 26.0519 54.2828 26.9381 52.6157ZM71.6844 74.3705H59.4711V66.5225H70.2145V61.9072H59.4711V55.95H71.4682V51.3144H54.1101V79.0061H71.6844V74.3705ZM93.7981 55.95V51.3348H76.4401V79.0264H93.9927V74.4112H81.8658V66.5022H92.5228V61.8665H81.8442V55.95H93.7981ZM124.148 86.5085L0.0255228 86.5288L0.00390625 43.1411H124.148V86.5085Z" fill="#EE7717"/>
<path d="M65.6099 15.6358C65.6099 14.6802 65.6315 13.7246 65.6099 12.769C65.6099 12.5454 65.5451 12.2607 65.5451 12.2607L70.8195 12.2811C71.6193 12.3217 72.5056 12.5047 73.1757 12.891C73.6945 13.196 74.062 13.8873 74.2565 14.4566C74.624 15.4935 74.5808 16.5507 73.9755 17.5673C73.2405 18.8075 72.0732 19.0515 70.7979 19.1328L65.5234 19.1125C65.5234 19.1125 65.5883 18.7872 65.5883 18.6042C65.6099 17.6283 65.6099 16.632 65.6099 15.6358Z" fill="#F8B72A"/>
<path d="M102.559 24.8232C100.16 24.7215 97.7169 24.7012 94.8203 24.8232C96.3551 21.8751 97.5872 18.8863 98.6897 16.0806C99.9002 18.866 101.067 21.8751 102.559 24.8232Z" fill="#F8B72A"/>
<path d="M123.285 30.8431C123.523 30.7211 123.782 30.6601 123.912 30.6398C124.474 30.5178 139.346 30.5991 139.346 30.5991L136.666 35.4787C136.666 35.4787 121.859 35.4787 114.747 35.4787H113.925C115.655 32.6933 128.3 14.9234 130.138 12.2803C130.008 12.382 129.057 12.5446 126.614 12.5446C123.285 12.5446 115.936 12.4633 115.936 12.4633L118.573 7.66502C118.573 7.66502 139.303 7.64469 139.541 7.64469C139.541 7.66502 128.754 22.9951 123.285 30.8431ZM107.397 35.4177C107.246 35.3364 104.306 29.0539 104.198 28.9522C104.047 28.8099 93.3896 28.8099 93.2383 28.8709C93.0221 28.9726 90.1255 35.3567 89.9958 35.438C89.8661 35.5194 84.1161 35.499 84.0512 35.4177C84.008 35.3364 98.0588 7.48204 98.0588 7.48204H99.3774C99.3774 7.48204 113.298 35.2144 113.385 35.4584C112.996 35.4584 107.548 35.499 107.397 35.4177ZM76.68 35.4787L66.8661 23.483H65.5475V35.4787H60.273L60.3379 7.66502C60.3379 7.66502 68.5305 7.5837 72.2054 7.74635C74.7777 7.86834 77.0907 8.80359 78.6903 10.8571C79.5766 11.9957 80.0089 13.3172 80.117 14.6998C80.3332 17.4852 79.4037 19.8233 77.0691 21.6329C76.0315 22.4258 74.7994 22.8324 73.5024 23.0154C73.2862 23.0357 73.0916 23.0764 72.7242 23.1171L83.5757 35.4787H76.68ZM43.8012 35.4787H42.5907C42.5907 35.4787 29.1884 7.88867 29.1236 7.66502C31.2204 7.66502 35.3924 7.66502 35.3924 7.66502L42.9365 25.4959C42.9582 25.5569 42.9149 25.4349 43.2176 26.3091C43.3905 25.6382 43.3689 25.6992 43.4337 25.5162L51.0211 7.66502H57.1386L43.8012 35.4787ZM27.6104 35.3364H10.0145V7.64469H27.3726V12.2803H15.3754V18.2375H26.1189V22.8527H15.397V30.7008H27.6104V35.3364ZM0.0276692 0.0406633C0.0276692 0.0406633 -0.0155639 42.5338 0.00605264 43.1437C0.416767 43.1437 145.464 43.1844 145.464 43.1844L145.486 0L0.0276692 0.0406633Z" fill="#F8B72A"/>
<path d="M132.34 94.2978H127.023V122.071H132.34V94.2978ZM65.5021 122.05H70.863V94.3181H65.5021V122.05ZM76.894 94.2978V122.05H94.425V117.313H82.2117V94.2978H76.894ZM35.8658 94.2978C35.8658 94.6231 35.8442 105.744 35.8874 111.051C35.8874 112.21 35.9739 113.369 36.19 114.507C36.6224 116.642 37.6383 118.533 39.4109 119.997C41.3996 121.644 43.7558 122.396 46.3714 122.599C48.6628 122.762 50.8893 122.62 53.0509 121.847C57.612 120.221 59.7737 116.398 59.8169 112.312C59.9034 106.517 59.8385 94.5621 59.8385 94.3588C58.0011 94.3588 56.207 94.3588 54.3695 94.3588C54.3695 94.6231 54.3695 104.972 54.3695 109.933C54.3695 110.868 54.3263 111.803 54.175 112.718C53.9372 114.141 53.2887 115.382 52.0782 116.317C50.3705 117.618 48.3601 117.821 46.3282 117.476C44.1881 117.11 42.6101 115.931 41.94 113.958C41.5942 112.922 41.3996 111.783 41.3996 110.685C41.3348 105.48 41.3564 94.6434 41.3564 94.3588H35.8658V94.2978ZM97.8188 122.091C98.1863 122.091 104.347 122.172 107.157 122.071C108.93 122.01 110.746 121.827 112.453 121.44C115.609 120.729 118.225 119.123 120.105 116.602C121.705 114.446 122.462 112.027 122.613 109.424C122.764 106.761 122.505 104.138 121.251 101.698C118.809 96.9409 114.485 94.7857 109.124 94.4401C105.514 94.1961 98.597 94.3588 97.7972 94.3791V122.091H97.8188ZM23.9334 107.29C24.2577 107.229 24.4306 107.188 24.5819 107.168C25.9005 106.964 27.1111 106.497 28.0838 105.602C30.1806 103.65 30.4833 99.8686 28.7107 97.4288C27.1111 95.2533 24.7765 94.3994 22.0744 94.3791C18.205 94.3181 10.0556 94.3994 9.88267 94.4197V122.132C10.1637 122.132 16.8216 122.152 19.9344 122.132C21.4475 122.111 22.9607 122.111 24.4522 121.928C26.1816 121.725 27.7596 121.095 29.0998 119.977C31.0453 118.33 31.6722 116.195 31.5208 113.816C31.3479 110.909 29.878 108.876 26.8733 107.961C25.9438 107.676 25.0143 107.534 23.9334 107.29ZM192.067 110.807C191.764 113.206 190.532 115.138 188.241 116.419C186.166 117.557 183.896 117.801 181.561 117.537C178.838 117.232 176.568 116.134 174.99 113.999C173.174 111.58 172.763 108.855 173.369 105.988C173.931 103.284 175.401 101.15 178.038 99.9093C181.972 98.0591 185.841 98.5471 189.581 100.499C190.143 100.784 190.662 101.15 191.224 101.495C192.326 100.092 193.429 98.7504 194.596 97.2662C194.423 97.1645 191.375 95.416 189.862 94.8467C186.317 93.5455 182.642 93.3422 178.924 94.1351C174.32 95.111 170.84 97.5102 168.851 101.576C167.143 105.074 166.949 108.693 167.943 112.393C168.981 116.297 171.402 119.204 175.206 120.993C178.751 122.681 182.534 123.026 186.403 122.355C189.776 121.766 192.521 120.221 194.575 117.638C196.606 115.077 197.45 112.108 197.644 108.957C197.687 108.123 197.644 107.269 197.644 106.395H182.988V110.888C184.523 110.909 190.489 110.848 192.067 110.807ZM139.215 93.9928H138.328V122.071H143.689C143.689 122.071 143.689 111.01 143.689 105.521C143.689 105.175 143.624 104.87 143.538 104.565C144.208 105.338 159.34 119.773 162.128 122.396H163.122V94.3181H157.675V111.092C157.675 111.356 157.783 111.559 157.805 111.824L139.215 93.9928ZM208.928 86.5107V130H0.00390625L0.0255228 86.5311L208.928 86.5107Z" fill="#58064A"/>
<path d="M15.2031 117.661V110.037C15.2464 110.098 15.4193 110.139 15.5922 110.139H21.7962C22.1637 110.139 22.5311 110.22 22.877 110.261C24.6496 110.444 25.752 111.847 25.8385 113.473C25.9466 115.608 24.9306 116.95 23.1148 117.336C22.5744 117.458 22.0123 117.539 21.4719 117.539C19.8723 117.56 17.3432 117.539 15.7435 117.539C15.3761 117.539 15.2896 117.6 15.2031 117.661Z" fill="#58064A"/>
<path d="M15.2266 105.563V98.7319C15.3563 98.7726 15.4427 98.8133 15.7021 98.8336C17.0856 98.8336 19.204 98.8133 20.5875 98.8539C21.1495 98.8743 21.7548 98.9556 22.2736 99.1589C23.8083 99.7485 24.5217 100.968 24.2839 102.514C24.0461 104.16 22.9437 105.279 21.3008 105.421C20.7172 105.482 20.1119 105.523 19.5066 105.523C18.8149 105.523 16.2858 105.502 15.594 105.523C15.3995 105.502 15.2914 105.523 15.2266 105.563Z" fill="#58064A"/>
<path d="M103.203 117.481V99.0198C104.781 99.0198 106.359 98.9994 107.937 99.0198C111.979 99.0808 115.2 101.012 116.324 104.591C117.427 108.149 117.254 111.646 114.66 114.675C113.298 116.261 111.396 117.054 109.277 117.278C107.829 117.42 103.787 117.461 103.203 117.481Z" fill="#58064A"/>
</svg>
