<svg width="160" height="25" viewBox="0 0 160 25" fill="none" xmlns="http://www.w3.org/2000/svg">
<path d="M3.17808 23.8354H0V3.50659H8.43836V6.4107H3.17808V23.8354Z" fill="white"/>
<path d="M22.2464 23.8354H19.0136L18.4656 20.1641H14.5204L13.9725 23.8354H11.0684L14.3012 3.50659H18.9588L22.2464 23.8354ZM14.9588 17.3696H18.0273L16.493 7.06824L14.9588 17.3696Z" fill="white"/>
<path d="M31.7809 8.4938C31.7809 7.56229 31.6165 6.95955 31.3425 6.63078C31.0685 6.30202 30.6302 6.13763 30.137 6.13763C29.6439 6.13763 29.2055 6.30202 28.9315 6.57599C28.6576 6.84996 28.4932 7.39791 28.4932 8.11024V10.302H25.4795V8.32941C25.4795 6.68558 25.8631 5.4253 26.685 4.54859C27.5069 3.67188 28.6576 3.23352 30.2466 3.23352C31.8357 3.23352 32.9863 3.67188 33.8083 4.54859C34.6302 5.4253 35.0137 6.68558 35.0137 8.32941V8.87736C35.0137 11.0691 34.2466 12.439 32.7672 13.0417C33.5891 13.3705 34.137 13.9185 34.5206 14.6308C34.8494 15.3431 35.0137 16.2198 35.0137 17.2609V18.9596C35.0137 20.6034 34.6302 21.8637 33.8083 22.7404C32.9863 23.6171 31.8357 24.0554 30.2466 24.0554C28.6576 24.0554 27.5069 23.6171 26.685 22.7404C25.8631 21.8637 25.4795 20.6034 25.4795 18.9596V16.3842H28.4932V19.1239C28.4932 19.8363 28.6576 20.3842 28.9315 20.6582C29.2055 20.9322 29.6439 21.0965 30.137 21.0965C30.6302 21.0965 31.0685 20.9322 31.3425 20.6582C31.6165 20.3294 31.7809 19.7267 31.7809 18.85V17.2609C31.7809 16.3294 31.6165 15.6719 31.2877 15.2335C30.9589 14.85 30.411 14.6308 29.6987 14.6308H29.1507V11.7267H29.8083C30.411 11.7267 30.9042 11.5623 31.2329 11.2883C31.5617 10.9596 31.7261 10.4116 31.7261 9.58969V8.4938H31.7809Z" fill="white"/>
<path d="M48.2735 16.2751V18.9601C48.2735 20.6039 47.8899 21.8642 47.068 22.7409C46.2461 23.6176 45.0954 24.0559 43.5064 24.0559C41.9173 24.0559 40.7667 23.6176 39.9447 22.7409C39.1228 21.8642 38.7393 20.6039 38.7393 18.9601V8.38471C38.7393 6.74087 39.1228 5.4806 39.9447 4.60389C40.7667 3.72717 41.9173 3.28882 43.5064 3.28882C45.0954 3.28882 46.2461 3.72717 47.068 4.60389C47.8899 5.4806 48.2735 6.74087 48.2735 8.38471V10.3573H45.2598V8.16553C45.2598 7.4532 45.0954 6.90526 44.8215 6.63128C44.5475 6.35731 44.1091 6.19293 43.616 6.19293C43.1228 6.19293 42.6845 6.35731 42.4105 6.63128C42.1365 6.90526 41.9721 7.4532 41.9721 8.16553V19.1244C41.9721 19.8368 42.1365 20.3847 42.4105 20.6587C42.6845 20.9327 43.1228 21.097 43.616 21.097C44.1091 21.097 44.5475 20.9327 44.8215 20.6587C45.0954 20.3847 45.2598 19.8368 45.2598 19.1244V16.2203H48.2735V16.2751Z" fill="white"/>
<path d="M51.4521 3.50659H61.3152V6.4107H57.9727V23.8354H54.7946V6.4107H51.4521V3.50659Z" fill="white"/>
<path d="M69.4799 3.50659C71.069 3.50659 72.2744 3.94495 73.0416 4.76687C73.8087 5.64358 74.1922 6.84906 74.1922 8.4929V11.123C74.1922 12.7669 73.8087 14.0271 73.0416 14.8491C72.2744 15.7258 71.069 16.1093 69.4799 16.1093H67.9457V23.7258H64.7676V3.50659H69.4799ZM68.0005 6.4107V13.3148H69.5347C70.0279 13.3148 70.4114 13.2052 70.6854 12.9313C70.9594 12.6573 71.069 12.1641 71.069 11.397V8.32851C71.069 7.61618 70.9594 7.06824 70.6854 6.79426C70.4114 6.52029 70.0279 6.4107 69.5347 6.4107H68.0005Z" fill="white"/>
<path d="M77.4795 8.38471C77.4795 6.74087 77.9179 5.4806 78.7398 4.60389C79.5617 3.72717 80.7672 3.28882 82.3562 3.28882C83.9453 3.28882 85.1507 3.72717 85.9726 4.60389C86.7946 5.4806 87.2329 6.74087 87.2329 8.38471V18.9601C87.2329 20.6039 86.7946 21.8642 85.9726 22.7409C85.1507 23.6176 83.9453 24.0559 82.3562 24.0559C80.7672 24.0559 79.5617 23.6176 78.7398 22.7409C77.9179 21.8642 77.4795 20.6039 77.4795 18.9601V8.38471ZM80.6576 19.1792C80.6576 19.8916 80.822 20.4395 81.0959 20.7135C81.3699 20.9875 81.8083 21.1518 82.3014 21.1518C82.7946 21.1518 83.2329 20.9875 83.5069 20.7135C83.7809 20.4395 83.9452 19.8916 83.9452 19.1792V8.22033C83.9452 7.508 83.7809 6.96005 83.5069 6.68608C83.2329 6.41211 82.7946 6.24772 82.3014 6.24772C81.8083 6.24772 81.3699 6.41211 81.0959 6.68608C80.822 6.96005 80.6576 7.508 80.6576 8.22033V19.1792Z" fill="white"/>
<path d="M94.5201 23.8356H91.2324V3.50685H94.0817V15.6712L97.3694 3.50685H101.369V23.8356H98.5201V9.09589L94.5201 23.8356ZM99.8352 0V2.35616H92.8215V0H99.8352Z" fill="white"/>
<path d="M108.876 23.8354H105.698V3.50659H115.78V23.8354H112.548V6.4107H108.931V23.8354H108.876Z" fill="white"/>
<path d="M124.822 3.50659C126.411 3.50659 127.616 3.94495 128.383 4.76687C129.15 5.64358 129.534 6.84906 129.534 8.4929V11.123C129.534 12.7669 129.15 14.0271 128.383 14.8491C127.616 15.7258 126.411 16.1093 124.822 16.1093H123.287V23.7258H120.109V3.50659H124.822ZM123.342 6.4107V13.3148H124.877C125.37 13.3148 125.753 13.2052 126.027 12.9313C126.301 12.6573 126.411 12.1641 126.411 11.397V8.32851C126.411 7.61618 126.301 7.06824 126.027 6.79426C125.753 6.52029 125.37 6.4107 124.877 6.4107H123.342Z" fill="white"/>
<path d="M132.822 8.38471C132.822 6.74087 133.261 5.4806 134.083 4.60389C134.904 3.72717 136.11 3.28882 137.699 3.28882C139.288 3.28882 140.494 3.72717 141.315 4.60389C142.137 5.4806 142.576 6.74087 142.576 8.38471V18.9601C142.576 20.6039 142.137 21.8642 141.315 22.7409C140.494 23.6176 139.288 24.0559 137.699 24.0559C136.11 24.0559 134.904 23.6176 134.083 22.7409C133.261 21.8642 132.822 20.6039 132.822 18.9601V8.38471ZM136 19.1792C136 19.8916 136.165 20.4395 136.439 20.7135C136.713 20.9875 137.151 21.1518 137.644 21.1518C138.137 21.1518 138.576 20.9875 138.85 20.7135C139.124 20.4395 139.288 19.8916 139.288 19.1792V8.22033C139.288 7.508 139.124 6.96005 138.85 6.68608C138.576 6.41211 138.137 6.24772 137.644 6.24772C137.151 6.24772 136.713 6.41211 136.439 6.68608C136.165 6.96005 136 7.508 136 8.22033V19.1792Z" fill="white"/>
<path d="M153.37 17.9176L155.561 3.50659H160V23.8354H156.986V9.26002L154.794 23.8354H151.781L149.424 9.4792V23.8354H146.63V3.50659H151.068L153.37 17.9176Z" fill="white"/>
</svg>
