<?xml version="1.0" encoding="UTF-8"?>
<!DOCTYPE svg PUBLIC "-//W3C//DTD SVG 1.1//EN" "http://www.w3.org/Graphics/SVG/1.1/DTD/svg11.dtd">
<!-- Creator: CorelDRAW 2021.5 -->
<svg xmlns="http://www.w3.org/2000/svg" xml:space="preserve" width="25mm" height="4mm" version="1.1" style="shape-rendering:geometricPrecision; text-rendering:geometricPrecision; image-rendering:optimizeQuality; fill-rule:evenodd; clip-rule:evenodd"
viewBox="0 0 2500 400"
 xmlns:xlink="http://www.w3.org/1999/xlink"
 xmlns:xodm="http://www.corel.com/coreldraw/odm/2003">
 <defs>
  <style type="text/css">
   <![CDATA[
    .fil1 {fill:#E6E6E6}
    .fil0 {fill:#E6E6E6;fill-rule:nonzero}
   ]]>
  </style>
 </defs>
 <g id="Layer_x0020_1">
  <metadata id="CorelCorpID_0Corel-Layer"/>
  <g id="_3079086222400">
   <path class="fil0" d="M37.12 358.59l0 -309.3 162.36 0 0 47.12 -103.67 0 0 262.18 -58.69 0zm151.22 0l78.83 -309.3 78.54 0 68.4 309.3 -63.4 0 -14.36 -80.54 -66.25 0 -18.35 80.54 -63.41 0zm89.04 -126.38l51.7 0 -23.57 -143.87 -28.13 143.87zm151.94 44.56l57.4 0c0,12.14 2.93,22.13 8.86,30.06 5.93,7.92 15.57,11.92 29.06,11.92 13.64,0 23.41,-4.35 29.41,-13.06 5.93,-8.72 8.93,-21.5 8.93,-38.35 0,-17.28 -3.85,-29.84 -11.5,-37.77 -7.71,-7.92 -18.06,-11.92 -31.2,-11.92l-12.56 0 0 -44.12 12.56 0c11.5,0 20.85,-3.29 27.85,-9.86 7.07,-6.57 10.56,-16.35 10.56,-29.49 0,-5.42 -0.56,-10.64 -1.64,-15.49 -1.14,-4.86 -2.86,-9.5 -5.21,-13.85 -2.35,-4.28 -5.71,-7.72 -10.07,-10.21 -4.35,-2.5 -9.49,-3.79 -15.49,-3.79 -11.21,0 -19.78,4.29 -25.85,12.85 -6,8.57 -8.99,20 -8.99,34.28l-57.41 0c0,-27.63 8.28,-50.27 24.77,-67.9 16.5,-17.57 38.99,-26.35 67.48,-26.35 11.14,0 21.85,1.43 32.13,4.21 10.28,2.79 20.06,7.21 29.42,13.28 9.28,6.07 16.78,14.64 22.41,25.78 5.65,11.07 8.43,24.06 8.43,39.05 0,16.14 -4.43,30.49 -13.28,42.99 -8.86,12.49 -20.28,20.56 -34.34,24.13 16.06,4.07 28.7,12.71 37.98,26.06 9.28,13.28 13.93,31.13 13.93,53.55 0,30.84 -8.14,54.05 -24.35,69.69 -16.21,15.64 -39.77,23.42 -70.62,23.42 -13.28,0 -25.63,-1.57 -36.98,-4.79 -11.36,-3.21 -21.78,-8.14 -31.21,-14.92 -9.42,-6.71 -16.85,-15.99 -22.34,-27.85 -5.43,-11.85 -8.14,-25.7 -8.14,-41.55zm232.12 -14.21l0 -112.6c0,-35.98 8.07,-62.69 24.13,-80.11 16.14,-17.42 40.2,-26.13 72.26,-26.13 29.7,0 52.55,7.92 68.55,23.85 15.99,15.92 23.99,38.2 23.99,66.9l0 15.49 -58.69 0 0 -6.92c0,-19.21 -2.65,-32.7 -7.93,-40.49 -5.28,-7.78 -14.21,-11.71 -26.77,-11.71 -12.71,0 -21.78,3.93 -27.28,11.78 -5.5,7.93 -8.28,21.43 -8.28,40.49l0 122.09c0,19.85 2.71,33.7 8.07,41.63 5.35,7.92 14.35,11.92 27.05,11.92 12.14,0 21,-4.07 26.64,-12.14 5.64,-8.14 8.5,-21.77 8.5,-41.05l0 -16.64 58.69 0 0 13.14c0,69.19 -31.13,103.82 -93.39,103.82 -14.93,0 -28.07,-1.86 -39.42,-5.65 -11.35,-3.78 -20.56,-8.7 -27.56,-14.84 -7.07,-6.15 -12.78,-13.79 -17.06,-22.92 -4.36,-9.14 -7.28,-18.49 -9,-28.06 -1.64,-9.5 -2.5,-20.14 -2.5,-31.85zm215.84 -166.15l0 -47.12 204.35 0 0 47.12 -72.83 0 0 262.18 -58.69 0 0 -262.18 -72.83 0zm233.34 262.18l0 -309.3 111.02 0c16.29,0 30.71,4.07 43.2,12.21 12.43,8.14 21.92,19.06 28.42,32.63 6.5,13.56 9.71,28.77 9.71,45.48 0,16.99 -3.28,32.56 -9.92,46.62 -6.64,14.07 -16.28,25.35 -28.85,33.77 -12.64,8.43 -27.13,12.64 -43.41,12.64l-51.48 0 0 125.95 -58.69 0zm58.69 -171.79l29.49 0c14.71,0 25.7,-3.99 33.13,-11.92 7.35,-7.92 11.06,-19.35 11.06,-34.2 0,-14.78 -3.71,-26.06 -11.06,-33.84 -7.43,-7.79 -18.42,-11.71 -33.13,-11.71l-29.49 0 0 91.67zm172.21 74.9l0 -112.17c0,-18.92 2.43,-35.34 7.29,-49.19 4.92,-13.92 11.92,-24.92 21.06,-33.06 9.14,-8.21 19.64,-14.13 31.56,-17.92 11.92,-3.78 25.49,-5.64 40.63,-5.64 15.49,0 29.13,1.86 40.91,5.57 11.78,3.64 22.14,9.56 31.13,17.63 8.99,8.14 15.85,19.07 20.49,32.99 4.64,13.85 7,30.42 7,49.62l0 112.17c0,19.21 -2.36,35.71 -7,49.48 -4.64,13.71 -11.56,24.5 -20.56,32.28 -9.07,7.85 -19.5,13.49 -31.2,17.06 -11.71,3.57 -25.28,5.36 -40.77,5.36 -67.05,0 -100.54,-34.71 -100.54,-104.18zm59.98 7.29c0,33.2 13.5,49.76 40.56,49.76 12.71,0 22.49,-4.28 29.27,-12.78 6.85,-8.5 10.28,-20.85 10.28,-36.98l0 -125.46c0,-16.56 -3.43,-29.48 -10.35,-38.76 -6.93,-9.28 -16.64,-13.93 -29.2,-13.93 -27.06,0 -40.56,17.28 -40.56,51.84l0 126.31zm180.65 89.6l0 -309.3 54.83 0 0 116.1c0,50.4 -2.43,86.75 -7.21,108.95l0.42 0 85.47 -225.05 63.55 0 0 309.3 -54.84 0 0 -117.31c0,-48.98 2.43,-84.61 7.22,-107.1l-0.36 0 -85.61 224.41 -63.47 0zm225.98 -262.18l0 -47.12 204.34 0 0 47.12 -72.83 0 0 262.18 -58.68 0 0 -262.18 -72.83 0zm233.33 262.18l0 -309.3 165.37 0 0 47.12 -106.68 0 0 71.97 97.25 0 0 47.13 -97.25 0 0 95.96 106.68 0 0 47.12 -165.37 0zm187.14 0l74.48 -158.93 -71.55 -150.37 68.18 0 39.78 100.81 41.98 -100.81 65.9 0 -76.11 150.37 78.82 158.93 -65.68 0 -44.91 -113.95 -46.7 113.95 -64.19 0z"/>
   <polygon class="fil1" points="1663.14,124.3 1663.06,49.29 1691.63,49.29 "/>
  </g>
 </g>
</svg>
