<svg viewBox="0 0 180 49" fill="none" xmlns="http://www.w3.org/2000/svg"><path d="M8.62 32.928h9.91a1.434 1.434 0 01-.114-.127l-4.803-7.04-4.901 7.04c-.024.05-.064.08-.091.127zM18.18 8.73H8.873c.04.044.064.084.101.131l4.665 6.71 4.435-6.71a.655.655 0 00.1-.13" fill="#DC0D15"/><path d="M3.079 12.558L.024 8.73H0v24.198c-.006-.17.075-.372.247-.57l9.319-11.483-6.487-8.313v-.004zm47.168 19.095c.378.52.243.999-.422.999H43.4c-.554 0-.803-.205-1.077-.587l-4.499-6.59-4.577 6.59c-.246.382-.496.587-1.05.587h-6.453c-.668 0-.844-.516-.418-.999l8.725-10.746-8.479-10.854c-.392-.486-.246-1.002.415-1.002h6.464c.55 0 .8.241 1.046.62l4.357 6.275 4.148-6.275c.287-.379.527-.62 1.09-.62h6.535c.652 0 .8.516.409 1.002l-8.337 10.71 8.553 10.89h-.004z" fill="#194A5B"/><path d="M75.473 20.901c0-7.384-5.967-12.17-12.842-12.17-6.876 0-12.887 4.786-12.887 12.17 0 7.385 5.974 12.094 12.887 12.094 6.875 0 12.842-4.672 12.842-12.094zm-19.198 0c0-3.747 2.657-6.452 6.356-6.452s6.318 2.705 6.318 6.452c0 3.748-2.62 6.413-6.318 6.413-3.7 0-6.356-2.665-6.356-6.413zm22.297-.073c0-7.003 5.65-12.098 12.913-12.098 3.281 0 5.482.731 7.119 1.526.385.214.385.522.243.8l-1.991 4.127c-.176.305-.453.349-.763.241-1.502-.694-2.937-1.18-4.79-1.18-3.419 0-6.308 2.709-6.308 6.584 0 3.848 2.68 6.63 6.352 6.63 1.85 0 3.453-.456 4.985-1.22.348-.171.564-.138.74.208l1.98 4.193c.142.349.072.593-.276.764-1.92.902-4.185 1.592-7.473 1.592-7.989 0-12.734-4.676-12.734-12.167m21.918 0c0-7.003 5.654-12.098 12.907-12.098 3.284 0 5.481.731 7.125 1.526.381.214.381.522.246.8l-1.994 4.127c-.176.305-.453.349-.763.241-1.502-.694-2.933-1.18-4.79-1.18-3.419 0-6.315 2.709-6.315 6.584 0 3.848 2.69 6.63 6.356 6.63 1.849 0 3.456-.456 4.985-1.22.348-.171.564-.138.739.208l1.985 4.193c.145.349.074.593-.277.764-1.92.902-4.189 1.592-7.473 1.592-7.989 0-12.731-4.676-12.731-12.167zM142.92 9.047c.348 0 .631.271.631.62v4.156a.63.63 0 01-.631.627h-11.59v3.607h9.741c.347 0 .631.275.631.623v4.16c0 .345-.28.627-.631.627h-9.741v3.781h11.59c.348 0 .631.275.631.623v4.154a.628.628 0 01-.631.626h-17.105a.628.628 0 01-.631-.627V9.67c0-.348.283-.62.631-.62h17.105v-.003zm11.466 22.978V26.03h4.82c1.849 0 3.699-.345 5.373-1.662 1.958-1.492 3.213-3.915 3.213-6.828 0-2.913-1.154-5.166-2.963-6.657-1.749-1.455-3.841-1.837-5.799-1.837h-10.156a.622.622 0 00-.628.62V32.02c0 .349.284.627.628.627h4.887a.625.625 0 00.628-.627l-.003.004zm0-11.33v-6.309h3.875c.732 0 1.464.131 2.058.517.733.449 1.222 1.283 1.222 2.638 0 1.354-.489 2.215-1.255 2.665-.561.348-1.293.486-2.025.486h-3.875v.003zm14.068-14.963c0-3.12 2.552-5.732 5.788-5.732A5.718 5.718 0 01180 5.732c0 3.12-2.551 5.732-5.788 5.732a5.718 5.718 0 01-5.758-5.732zm10.875-.03c0-2.803-2.184-5.068-5.087-5.068-2.916 0-5.12 2.296-5.12 5.131 0 2.803 2.184 5.069 5.087 5.069 2.919 0 5.12-2.297 5.12-5.132zm-4.753-3.185c.831 0 1.469.238 1.897.664.335.332.51.791.51 1.36 0 .983-.543 1.6-1.323 1.885l1.499 2.185h-1.58l-1.34-1.964h-1.036V8.61h-1.357V2.517h2.73zm-.016 2.977c.685 0 1.053-.366 1.053-.902 0-.586-.415-.888-1.084-.888h-1.323v1.79h1.357-.003z" fill="#194A5B"/><path d="M55.619 47.12c-2.01 0-3.48-1.44-3.48-3.45 0-2.01 1.47-3.45 3.48-3.45 2.02 0 3.49 1.44 3.49 3.45 0 2.01-1.47 3.45-3.49 3.45zm0-1.26c1.23 0 2.03-.95 2.03-2.19 0-1.25-.8-2.19-2.03-2.19-1.23 0-2.02.94-2.02 2.19 0 1.24.79 2.19 2.02 2.19zm7.916 1.26c-2 0-3.55-1.4-3.55-3.45 0-2.05 1.55-3.45 3.55-3.45 1.47 0 2.32.8 2.79 1.63l-1.22.6c-.28-.54-.88-.97-1.57-.97-1.21 0-2.09.93-2.09 2.19 0 1.26.88 2.19 2.09 2.19.69 0 1.29-.42 1.57-.97l1.22.59c-.48.83-1.32 1.64-2.79 1.64zM73.37 47h-1.43v-2.8h-3.15V47h-1.42v-6.67h1.42v2.62h3.15v-2.62h1.43V47zm4.675.12c-2.01 0-3.48-1.44-3.48-3.45 0-2.01 1.47-3.45 3.48-3.45 2.02 0 3.49 1.44 3.49 3.45 0 2.01-1.47 3.45-3.49 3.45zm0-1.26c1.23 0 2.03-.95 2.03-2.19 0-1.25-.8-2.19-2.03-2.19-1.23 0-2.02.94-2.02 2.19 0 1.24.79 2.19 2.02 2.19zM86.351 47h-3.62v-6.67h3.51c1.27 0 1.92.81 1.92 1.7 0 .84-.52 1.4-1.15 1.53.71.11 1.28.8 1.28 1.64 0 1-.67 1.8-1.94 1.8zm-.42-4c.48 0 .78-.3.78-.72s-.3-.73-.78-.73h-1.78V43h1.78zm.05 2.77c.54 0 .86-.29.86-.77 0-.42-.3-.78-.86-.78h-1.83v1.55h1.83zM95.782 47h-1.62l-.41-1.13h-2.86l-.42 1.13h-1.62l2.58-6.67h1.78l2.57 6.67zm-2.42-2.38l-1.04-2.87-1.04 2.87h2.08zm9.236 2.38h-1.43v-2.8h-3.15V47h-1.42v-6.67h1.42v2.62h3.15v-2.62h1.43V47zm7.893 0h-3.62v-6.67h3.51c1.27 0 1.92.81 1.92 1.7 0 .84-.52 1.4-1.15 1.53.71.11 1.28.8 1.28 1.64 0 1-.67 1.8-1.94 1.8zm-.42-4c.48 0 .78-.3.78-.72s-.3-.73-.78-.73h-1.78V43h1.78zm.05 2.77c.54 0 .86-.29.86-.77 0-.42-.3-.78-.86-.78h-1.83v1.55h1.83zm9.13 1.23h-1.42v-4.84l-1.11 1.13-.81-.85 2.1-2.11h1.24V47zm3.491.11c-.81 0-1.49-.27-1.96-.69l.63-1.09c.36.34.74.52 1.33.52 1.1 0 1.67-.92 1.67-1.88v-.15c-.32.45-.99.86-1.72.86-1.2 0-2.28-.75-2.28-2.17 0-1.3 1.04-2.29 2.56-2.29 2.02 0 2.87 1.56 2.87 3.45 0 2.01-1.13 3.44-3.1 3.44zm.35-3.65c.5 0 .99-.23 1.31-.62-.06-.64-.42-1.36-1.36-1.36-.76 0-1.18.52-1.18.98 0 .7.61 1 1.23 1zm5.934 3.65c-.81 0-1.49-.27-1.96-.69l.63-1.09c.36.34.74.52 1.33.52 1.1 0 1.67-.92 1.67-1.88v-.15c-.32.45-.99.86-1.72.86-1.2 0-2.28-.75-2.28-2.17 0-1.3 1.04-2.29 2.56-2.29 2.02 0 2.87 1.56 2.87 3.45 0 2.01-1.13 3.44-3.1 3.44zm.35-3.65c.5 0 .99-.23 1.31-.62-.06-.64-.42-1.36-1.36-1.36-.76 0-1.18.52-1.18.98 0 .7.61 1 1.23 1zM136.13 47h-1.42v-4.84l-1.11 1.13-.81-.85 2.1-2.11h1.24V47zm5.7 0h-1.42v-6.67h4.72v1.25h-3.3V47zm7.409.12c-2.01 0-3.48-1.44-3.48-3.45 0-2.01 1.47-3.45 3.48-3.45 2.02 0 3.49 1.44 3.49 3.45 0 2.01-1.47 3.45-3.49 3.45zm0-1.26c1.23 0 2.03-.95 2.03-2.19 0-1.25-.8-2.19-2.03-2.19-1.23 0-2.02.94-2.02 2.19 0 1.24.79 2.19 2.02 2.19zm3.944 2.37v-2.37c.68-.09 1.06-.36 1.27-2.12l.39-3.41h4.74v5.42h.6v2.48h-1.42V47h-4.16v1.23h-1.42zm2.68-4.39c-.1.9-.39 1.52-.81 1.91h3.1v-4.17h-2.03l-.26 2.26zm6.252 3.28c-.61 0-1.21-.21-1.51-.48l.54-1.14c.23.19.54.36.86.36.49 0 .71-.2.97-.69l-2.46-4.84h1.61l1.65 3.54 1.66-3.54h1.61l-2.75 5.39c-.41.81-.99 1.4-2.18 1.4z" fill="#0E4D5C"/></svg>