<svg xmlns="http://www.w3.org/2000/svg" width="148" height="55" viewBox="0 0 148 55"><defs><clipPath id="srdba"><path d="M0 54.374V0h147.302v54.374z"/></clipPath></defs><g><g><g><path fill="#002d4b" d="M18 24V0h23.999v24z"/></g><g><path fill="#002d4b" d="M18 53.997V30h23.999v23.998z"/></g><g><path fill="#002d4b" d="M0 53.997V0h12v53.997z"/></g><g><g><g/><g clip-path="url(#srdba)"><path fill="#505153" d="M58.396 20.178c1.653 0 2.307-1.205 2.307-3.375 0-2.272-.791-3.545-2.444-3.545h-5.716v6.92zM52.543 9.572h5.648c1.514 0 2.066-1.101 2.066-2.891 0-1.93-.517-2.825-2.066-2.825h-5.648zm7.54 1.723c4.58.206 5.51 2.547 5.51 6.128 0 4.717-2.342 6.577-6.198 6.577H47.998V0h11.191c4.786 0 5.888 2.238 5.888 5.75 0 3.168-.69 5.166-4.993 5.545zm19.94 6.714h-8.057c-.585 2.134-1.17 4.166-1.584 5.991h-4.407c1.894-7.162 4.855-16.838 7.335-24h5.99c2.1 7.713 5.062 17.56 7.335 24h-4.682s-1.24-3.787-1.93-5.991zM75.72 4.614a155.944 155.944 0 0 0-2.755 9.504h5.922a165.895 165.895 0 0 1-2.375-9.504zm16.851 6.474h4.717c1.757 0 2.79-1.17 2.79-3.513 0-2.513-1-3.719-2.687-3.719h-4.82zm6.266 2.478c1.653.586 3.823 3.41 8.024 10.434h-5.613c-3.754-6.577-5.991-9.159-7.54-9.159H92.57V24h-4.544V0H98.46c5.061 0 6.679 3.134 6.679 6.99 0 3.443-1.516 6.405-6.302 6.576zm23.216 4.443h-8.059c-.585 2.134-1.17 4.166-1.583 5.991h-4.408c1.894-7.162 4.855-16.838 7.335-24h5.991c2.1 7.713 5.062 17.56 7.334 24h-4.683s-1.239-3.787-1.927-5.991zm-4.305-13.395a155.939 155.939 0 0 0-2.756 9.504h5.923a165.854 165.854 0 0 1-2.375-9.504zM147.3 24h-4.51c-2.72-5.991-5.027-10.742-8.195-16.7V24h-4.27V0h4.855c2.927 5.475 5.165 10.09 7.781 15.943V0h4.34z"/></g><g clip-path="url(#srdba)"><path fill="#505153" d="M61.658 43.117H55.79V41.14h8.322v12.245c-2.182.58-4.468.99-6.582.99-6.345 0-10.2-2.9-10.2-12.587 0-9.722 3.855-12.245 10.2-12.245 1.773 0 4.127.375 5.969.921l-.785 2.148c-1.432-.546-3.65-.886-5.15-.886-4.98 0-7.572 1.33-7.572 10.062 0 8.698 2.592 10.404 7.571 10.404 1.501 0 3.07-.24 4.094-.512zM74.69 30.122c5.287 0 6.754 3.24 6.754 6.89 0 3.343-1.637 6.276-6.857 6.276 1.707.58 4.708 4.605 8.324 10.608h-3.07c-3.786-6.652-6.925-10.301-8.698-10.301h-2.559v10.301H66.13V30.122zm-6.106 2.046v9.279h5.935c2.798 0 4.196-1.74 4.196-4.47 0-3.103-1.433-4.809-4.025-4.809zM91.42 54.374c-5.697 0-8.733-2.66-8.733-12.484 0-9.688 3.07-12.348 8.733-12.348 5.696 0 8.766 2.66 8.766 12.348 0 9.824-3.036 12.484-8.766 12.484zm0-22.751c-4.435 0-6.004 1.602-6.004 10.335 0 8.289 1.57 10.267 6.004 10.267 4.502 0 6.071-1.978 6.071-10.267 0-8.733-1.569-10.335-6.071-10.335zm26.107 13.336c0 7.232-2.32 9.415-7.845 9.415-5.458 0-7.846-2.183-7.846-9.415V30.123h2.217v14.872c0 5.56 1.501 7.23 5.663 7.23 4.196 0 5.628-1.806 5.628-7.23V30.122h2.183zm11.014-1.978c2.798 0 4.06-2.149 4.06-5.185 0-3.513-1.332-5.628-3.89-5.628h-6.583v10.813zm-8.869 10.915V30.122h8.903c5.287 0 6.754 3.615 6.754 7.709 0 3.718-1.671 7.333-6.583 7.333h-6.618v8.732z"/></g></g></g></g></g></svg>