<?xml version="1.0" encoding="UTF-8"?> <svg xmlns="http://www.w3.org/2000/svg" width="1442" height="895" viewBox="0 0 1442 895" fill="none"> <path d="M1410.31 704.281V686H1382.44V704.281H1351.85V660.229H1440.91V704.281H1410.31ZM1361.69 593.578H1433.67V686H1400.85V619.35H1390.82L1390.25 635.6C1389.95 645.375 1389.36 652.971 1388.47 658.388C1387.63 663.804 1386.38 669.179 1384.73 674.511H1353.88C1355.7 668.586 1357.18 662.916 1358.32 657.499C1359.46 652.082 1360.18 644.169 1360.48 633.759L1361.69 593.578Z" fill="#13757C"></path> <path d="M1260.38 642.265V637.313C1260.38 621.614 1264.32 610.188 1272.19 603.036C1280.06 595.884 1290.07 592.309 1302.21 592.309C1314.4 592.309 1324.41 595.884 1332.24 603.036C1340.11 610.188 1344.05 621.614 1344.05 637.313V642.265C1344.05 657.965 1340.11 669.39 1332.24 676.542C1324.41 683.694 1314.4 687.27 1302.21 687.27C1290.07 687.27 1280.06 683.694 1272.19 676.542C1264.32 669.39 1260.38 657.965 1260.38 642.265ZM1294.66 653.246C1294.66 657.901 1295.3 661.202 1296.56 663.148C1297.83 665.053 1299.72 666.005 1302.21 666.005C1304.71 666.005 1306.59 665.053 1307.86 663.148C1309.13 661.202 1309.77 657.901 1309.77 653.246V626.522C1309.77 621.994 1309.13 618.799 1307.86 616.938C1306.59 615.033 1304.71 614.081 1302.21 614.081C1299.72 614.081 1297.83 615.033 1296.56 616.938C1295.3 618.799 1294.66 621.994 1294.66 626.522V653.246Z" fill="#13757C"></path> <path d="M1173.36 686V593.578H1220.14C1230.3 593.578 1237.49 595.736 1241.73 600.053C1246 604.369 1248.14 610.019 1248.14 617.001C1248.14 622.248 1247.02 626.586 1244.77 630.014C1242.53 633.441 1239.48 635.875 1235.63 637.313V637.567C1240.29 638.668 1244.22 640.974 1247.44 644.486C1250.65 647.956 1252.26 653.098 1252.26 659.911C1252.26 667.994 1249.51 674.363 1244.01 679.018C1238.55 683.673 1230.93 686 1221.16 686H1173.36ZM1205.1 665.497H1211.38C1213.88 665.497 1215.76 664.672 1217.03 663.021C1218.35 661.329 1219 659.171 1219 656.547C1219 653.881 1218.35 651.723 1217.03 650.072C1215.76 648.38 1213.88 647.533 1211.38 647.533H1205.1V665.497ZM1205.1 632.362H1210.81C1213.1 632.362 1214.75 631.601 1215.76 630.077C1216.82 628.554 1217.35 626.438 1217.35 623.729C1217.35 621.021 1216.82 618.926 1215.76 617.445C1214.75 615.964 1213.1 615.224 1210.81 615.224H1205.1V632.362Z" fill="#13757C"></path> <path d="M1072.25 686L1101.77 593.578H1137.31L1165.75 686H1133.82L1120.05 634.584C1119.58 632.849 1119.2 631.347 1118.9 630.077C1118.65 628.765 1118.46 627.877 1118.33 627.411H1118.21C1118.08 627.877 1117.85 628.744 1117.51 630.014C1117.21 631.283 1116.87 632.785 1116.49 634.521L1103.86 686H1072.25ZM1092.31 673.178L1096.12 652.548H1140.87L1145.12 673.178H1092.31Z" fill="#13757C"></path> <path d="M1028.65 666.195C1030.8 666.195 1032.47 665.476 1033.66 664.037C1034.89 662.598 1035.5 660.609 1035.5 658.07C1035.5 655.574 1034.93 653.69 1033.79 652.421C1032.69 651.151 1030.78 650.517 1028.07 650.517H1017.35V628.808H1027.19C1029.72 628.808 1031.52 628.194 1032.58 626.967C1033.68 625.74 1034.23 623.708 1034.23 620.873C1034.23 618.546 1033.77 616.726 1032.83 615.414C1031.9 614.102 1030.36 613.446 1028.2 613.446C1026 613.446 1024.37 614.187 1023.31 615.668C1022.3 617.149 1021.79 619.371 1021.79 622.333V624.237H991.321V622.523C991.321 612.833 994.622 605.385 1001.22 600.18C1007.87 594.932 1017.18 592.309 1029.15 592.309C1040.24 592.309 1049.08 594.657 1055.69 599.354C1062.33 604.009 1065.65 610.04 1065.65 617.445C1065.65 622.058 1064.66 626.036 1062.67 629.379C1060.72 632.722 1057.87 635.367 1054.1 637.313V637.567C1057.4 638.668 1060.45 640.974 1063.24 644.486C1066.08 647.999 1067.49 652.738 1067.49 658.705C1067.49 666.788 1063.75 673.58 1056.26 679.081C1048.77 684.54 1039.56 687.27 1028.65 687.27C1017.43 687.27 1008.21 684.667 1000.97 679.462C993.775 674.257 990.178 666.915 990.178 657.436V655.531H1021.47V657.562C1021.47 660.779 1022.06 663.021 1023.25 664.291C1024.43 665.561 1026.23 666.195 1028.65 666.195Z" fill="#13757C"></path> <path d="M938.582 686H906.273V653.31C906.273 650.728 906.315 648.676 906.4 647.152C906.484 645.629 906.569 644.105 906.654 642.582H906.019C905.765 644.148 905.469 645.608 905.13 646.962C904.834 648.316 904.326 650.305 903.607 652.929L893.45 686H859.554V593.578H891.864L891.8 625.824C891.8 628.575 891.758 630.818 891.673 632.553C891.631 634.245 891.567 635.811 891.483 637.25H892.054C892.35 635.684 892.668 634.097 893.006 632.489C893.387 630.881 893.937 628.744 894.656 626.078L904.686 593.578H938.582V686ZM899.036 573.456C901.872 573.456 904.009 572.525 905.448 570.663C906.929 568.801 908.114 566.029 909.002 562.348L927.22 567.807C925.104 574.704 921.676 580.079 916.937 583.93C912.24 587.738 906.273 589.643 899.036 589.643C891.758 589.643 885.749 587.738 881.009 583.93C876.312 580.079 872.905 574.704 870.789 567.807L889.007 562.348C889.896 566.029 891.059 568.801 892.498 570.663C893.979 572.525 896.159 573.456 899.036 573.456Z" fill="#13757C"></path> <path d="M847.181 686H814.871V653.31C814.871 650.728 814.914 648.676 814.998 647.152C815.083 645.629 815.168 644.105 815.252 642.582H814.618C814.364 644.148 814.067 645.608 813.729 646.962C813.433 648.316 812.925 650.305 812.205 652.929L802.049 686H768.153V593.578H800.462L800.399 625.824C800.399 628.575 800.356 630.818 800.272 632.553C800.23 634.245 800.166 635.811 800.081 637.25H800.653C800.949 635.684 801.266 634.097 801.605 632.489C801.986 630.881 802.536 628.744 803.255 626.078L813.285 593.578H847.181V686Z" fill="#13757C"></path> <path d="M723.661 686L706.966 645.756L737.118 633.314L760.033 686H723.661ZM689.764 626.078H709.061L722.963 593.578H756.097L731.278 651.913H689.764V626.078ZM673.324 686V593.578H706.141V686H673.324Z" fill="#13757C"></path> <path d="M583.383 642.265V637.313C583.383 621.148 587.212 609.617 594.872 602.719C602.574 595.821 612.645 592.372 625.087 592.372C636.809 592.372 646.034 594.932 652.762 600.053C659.491 605.131 662.855 613.319 662.855 624.618V632.997H632.26V621.127C632.26 618.969 631.709 617.276 630.609 616.049C629.509 614.779 627.922 614.145 625.848 614.145C623.521 614.145 621.701 615.097 620.389 617.001C619.12 618.863 618.485 621.994 618.485 626.396V653.246C618.485 657.859 619.141 661.16 620.453 663.148C621.765 665.095 623.584 666.068 625.912 666.068C628.028 666.068 629.615 665.307 630.673 663.783C631.731 662.217 632.26 659.594 632.26 655.912V647.089H662.855V657.055C662.855 666.703 659.491 674.151 652.762 679.398C646.076 684.604 636.851 687.206 625.087 687.206C612.349 687.206 602.214 683.694 594.681 676.669C587.149 669.602 583.383 658.134 583.383 642.265Z" fill="#13757C"></path> <path d="M496.361 686V593.578H543.144C553.3 593.578 560.494 595.736 564.726 600.053C569 604.369 571.137 610.019 571.137 617.001C571.137 622.248 570.015 626.586 567.772 630.014C565.53 633.441 562.483 635.875 558.632 637.313V637.567C563.287 638.668 567.222 640.974 570.438 644.486C573.655 647.956 575.263 653.098 575.263 659.911C575.263 667.994 572.512 674.363 567.011 679.018C561.552 683.673 553.935 686 544.159 686H496.361ZM528.1 665.497H534.384C536.881 665.497 538.764 664.672 540.033 663.021C541.345 661.329 542.001 659.171 542.001 656.547C542.001 653.881 541.345 651.723 540.033 650.072C538.764 648.38 536.881 647.533 534.384 647.533H528.1V665.497ZM528.1 632.362H533.812C536.098 632.362 537.748 631.601 538.764 630.077C539.822 628.554 540.351 626.438 540.351 623.729C540.351 621.021 539.822 618.926 538.764 617.445C537.748 615.964 536.098 615.224 533.812 615.224H528.1V632.362Z" fill="#13757C"></path> <path d="M401.723 642.265V637.313C401.723 621.614 405.658 610.188 413.53 603.036C421.401 595.884 431.409 592.309 443.554 592.309C455.741 592.309 465.75 595.884 473.578 603.036C481.449 610.188 485.385 621.614 485.385 637.313V642.265C485.385 657.965 481.449 669.39 473.578 676.542C465.75 683.694 455.741 687.27 443.554 687.27C431.409 687.27 421.401 683.694 413.53 676.542C405.658 669.39 401.723 657.965 401.723 642.265ZM436 653.246C436 657.901 436.635 661.202 437.905 663.148C439.174 665.053 441.057 666.005 443.554 666.005C446.051 666.005 447.934 665.053 449.203 663.148C450.473 661.202 451.108 657.901 451.108 653.246V626.522C451.108 621.994 450.473 618.799 449.203 616.938C447.934 615.033 446.051 614.081 443.554 614.081C441.057 614.081 439.174 615.033 437.905 616.938C436.635 618.799 436 621.994 436 626.522V653.246Z" fill="#13757C"></path> <path d="M358.564 686L341.87 645.756L372.021 633.314L394.936 686H358.564ZM324.667 626.078H343.964L357.866 593.578H391L366.181 651.913H324.667V626.078ZM308.227 686V593.578H341.044V686H308.227Z" fill="#13757C"></path> <path d="M224.316 593.578H295.854V686H263.1V619.35H253.769L252.69 651.977C252.351 664.079 250.278 673.051 246.469 678.891C242.661 684.73 235.826 687.65 225.966 687.65C222.031 687.65 219.238 687.439 217.587 687.016C215.937 686.635 214.625 686.296 213.652 686V658.07C214.117 658.367 214.604 658.62 215.112 658.832C215.62 659.044 216.254 659.149 217.016 659.149C219.005 659.149 220.402 658.367 221.206 656.801C222.01 655.193 222.454 652.696 222.539 649.311L224.316 593.578Z" fill="#13757C"></path> <path d="M137.866 686V593.578H206.103V619.159H169.096V628.744H200.962V650.707H169.096V661.435H207.309V686H137.866Z" fill="#13757C"></path> <path d="M3.55469 593.578H35.8643V660.229H46.2109V593.578H78.457V660.229H88.8672V593.578H121.113V660.229H128.35V704.281H97.7539V686H3.55469V593.578Z" fill="#13757C"></path> <path d="M1387.46 788L1401.87 765.324L1403.76 764.841L1414.75 747.526H1422.53L1408.64 769.323L1406.58 769.675L1395.28 788H1387.46ZM1388.3 747.526H1397.17L1408.03 764.797L1409.04 765.5L1423.32 788H1414.4L1403.06 769.675L1402.09 769.104L1388.3 747.526Z" fill="black"></path> <path d="M1337.72 788V747.526H1345.94V773.059C1345.94 774.172 1345.93 775.036 1345.9 775.651C1345.9 776.267 1345.84 777.16 1345.72 778.332H1345.99C1346.48 777.277 1346.87 776.501 1347.13 776.003C1347.42 775.476 1347.92 774.553 1348.62 773.234L1363.12 747.526H1372.05V788H1363.83V762.468C1363.83 761.325 1363.83 760.446 1363.83 759.831C1363.86 759.216 1363.9 758.337 1363.96 757.194H1363.74C1363.27 758.249 1362.89 759.04 1362.6 759.567C1362.3 760.065 1361.81 760.959 1361.1 762.248L1346.65 788H1337.72Z" fill="black"></path> <path d="M1312.55 788L1298.32 769.543L1304.51 764.797L1322.57 788H1312.55ZM1291.28 764.313H1299.11L1311.02 747.526H1320.33L1303.63 770.773H1291.28V764.313ZM1295.42 747.526V788H1287.2V747.526H1295.42Z" fill="black"></path> <path d="M1233.51 768.4V766.994C1233.51 760.578 1235.21 755.568 1238.61 751.965C1242.03 748.332 1246.65 746.516 1252.45 746.516C1258.16 746.516 1262.5 747.878 1265.46 750.603C1268.44 753.298 1269.97 756.975 1270.03 761.633L1270.07 762.38H1261.94V761.765C1261.94 758.981 1261.15 756.828 1259.57 755.305C1257.98 753.781 1255.69 753.02 1252.67 753.02C1249.24 753.02 1246.57 754.191 1244.67 756.535C1242.79 758.879 1241.86 762.307 1241.86 766.818V768.576C1241.86 772.795 1242.78 776.179 1244.63 778.728C1246.5 781.276 1249.17 782.551 1252.62 782.551C1255.7 782.551 1258.04 781.76 1259.65 780.178C1261.27 778.596 1262.07 776.369 1262.07 773.498V772.883H1270.11V773.63C1270.08 778.229 1268.55 781.936 1265.5 784.748C1262.48 787.561 1258.15 788.967 1252.49 788.967C1246.69 788.967 1242.08 787.136 1238.65 783.474C1235.22 779.782 1233.51 774.758 1233.51 768.4Z" fill="black"></path> <path d="M1181.93 768.4V766.994C1181.93 760.812 1183.64 755.861 1187.07 752.141C1190.52 748.391 1195.12 746.516 1200.87 746.516C1206.58 746.516 1210.94 748.273 1213.96 751.789C1217.01 755.275 1218.53 760.153 1218.53 766.423V769.104H1186.36V763.83H1210.4V763.522C1210.4 760.71 1209.67 758.234 1208.21 756.096C1206.74 753.928 1204.28 752.844 1200.82 752.844C1197.31 752.844 1194.64 754.118 1192.82 756.667C1191.01 759.187 1190.1 762.453 1190.1 766.467V768.444C1190.1 772.751 1191.07 776.193 1193 778.771C1194.93 781.32 1197.72 782.595 1201.35 782.595C1203.87 782.595 1205.99 782.097 1207.72 781.101C1209.48 780.104 1210.84 778.771 1211.81 777.102L1218.18 780.266C1217.01 782.697 1215.05 784.763 1212.29 786.462C1209.57 788.132 1205.96 788.967 1201.48 788.967C1195.24 788.967 1190.42 787.121 1187.02 783.43C1183.63 779.709 1181.93 774.699 1181.93 768.4Z" fill="black"></path> <path d="M1139.13 757.985C1139.13 761.12 1139.87 763.405 1141.33 764.841C1142.8 766.247 1144.93 766.95 1147.75 766.95C1150.47 766.95 1152.79 766.76 1154.69 766.379C1156.59 765.998 1158.35 765.573 1159.96 765.104V771.389C1158.29 771.887 1156.36 772.341 1154.16 772.751C1152 773.161 1149.31 773.366 1146.12 773.366C1141.23 773.366 1137.46 772.15 1134.83 769.719C1132.22 767.287 1130.92 763.581 1130.92 758.601V747.526H1139.13V757.985ZM1164.05 747.526V788H1155.83V747.526H1164.05Z" fill="black"></path> <path d="M1077.09 788V747.526H1085.31V773.059C1085.31 774.172 1085.3 775.036 1085.27 775.651C1085.27 776.267 1085.21 777.16 1085.09 778.332H1085.36C1085.85 777.277 1086.23 776.501 1086.5 776.003C1086.79 775.476 1087.29 774.553 1087.99 773.234L1102.49 747.526H1111.42V788H1103.2V762.468C1103.2 761.325 1103.2 760.446 1103.2 759.831C1103.23 759.216 1103.27 758.337 1103.33 757.194H1103.11C1102.64 758.249 1102.26 759.04 1101.97 759.567C1101.67 760.065 1101.18 760.959 1100.47 762.248L1086.01 788H1077.09Z" fill="black"></path> <path d="M1034.74 754.118L1033.73 771.213C1033.47 777.336 1032.56 781.76 1031.01 784.484C1029.45 787.209 1026.87 788.571 1023.27 788.571C1022.48 788.571 1021.75 788.527 1021.07 788.439C1020.43 788.381 1019.9 788.264 1019.49 788.088V781.057C1019.81 781.145 1020.14 781.218 1020.46 781.276C1020.81 781.335 1021.21 781.364 1021.65 781.364C1023.32 781.364 1024.47 780.529 1025.12 778.859C1025.76 777.189 1026.17 774.406 1026.35 770.51L1027.62 747.526H1056.8V788H1048.54V754.118H1034.74Z" fill="black"></path> <path d="M981.138 754.118L980.128 771.213C979.864 777.336 978.956 781.76 977.403 784.484C975.85 787.209 973.272 788.571 969.669 788.571C968.878 788.571 968.145 788.527 967.471 788.439C966.827 788.381 966.299 788.264 965.889 788.088V781.057C966.212 781.145 966.534 781.218 966.856 781.276C967.208 781.335 967.603 781.364 968.043 781.364C969.713 781.364 970.87 780.529 971.514 778.859C972.159 777.189 972.569 774.406 972.745 770.51L974.019 747.526H1003.2V788H994.937V754.118H981.138Z" fill="black"></path> <path d="M914.396 776.486C914.396 772.502 915.949 769.338 919.054 766.994C922.16 764.621 926.305 763.435 931.491 763.435H941.378V759.831C941.378 757.341 940.748 755.466 939.489 754.206C938.229 752.946 936.163 752.316 933.292 752.316C930.48 752.316 928.327 752.873 926.832 753.986C925.338 755.07 924.591 756.638 924.591 758.688V759.655H916.769V758.249C916.769 754.909 918.278 752.126 921.295 749.899C924.313 747.673 928.444 746.56 933.688 746.56C938.844 746.56 942.785 747.6 945.509 749.68C948.263 751.76 949.64 755.202 949.64 760.007V777.849C949.64 779.694 949.772 781.438 950.036 783.078C950.299 784.689 950.709 786.11 951.266 787.341V788H943.312C942.872 787.238 942.506 786.315 942.213 785.231C941.92 784.118 941.715 782.976 941.598 781.804C940.631 783.562 938.976 785.129 936.632 786.506C934.318 787.883 931.388 788.571 927.843 788.571C923.683 788.571 920.402 787.546 917.999 785.495C915.597 783.444 914.396 780.441 914.396 776.486ZM922.57 776.047C922.57 778.332 923.244 780.061 924.591 781.232C925.968 782.375 927.931 782.946 930.48 782.946C933.234 782.946 935.739 782.009 937.995 780.134C940.25 778.229 941.378 776.091 941.378 773.718V768.62H933.644C929.865 768.62 927.067 769.265 925.25 770.554C923.463 771.813 922.57 773.645 922.57 776.047Z" fill="black"></path> <path d="M865.32 754.118V747.526H899.861V754.118H886.721V788H878.459V754.118H865.32Z" fill="black"></path> <path d="M814.705 768.4V766.994C814.705 760.812 816.419 755.861 819.847 752.141C823.304 748.391 827.903 746.516 833.646 746.516C839.358 746.516 843.724 748.273 846.741 751.789C849.788 755.275 851.312 760.153 851.312 766.423V769.104H819.144V763.83H843.182V763.522C843.182 760.71 842.449 758.234 840.984 756.096C839.52 753.928 837.059 752.844 833.602 752.844C830.086 752.844 827.42 754.118 825.604 756.667C823.787 759.187 822.879 762.453 822.879 766.467V768.444C822.879 772.751 823.846 776.193 825.779 778.771C827.713 781.32 830.496 782.595 834.129 782.595C836.648 782.595 838.772 782.097 840.501 781.101C842.259 780.104 843.621 778.771 844.588 777.102L850.96 780.266C849.788 782.697 847.825 784.763 845.071 786.462C842.347 788.132 838.743 788.967 834.261 788.967C828.021 788.967 823.201 787.121 819.803 783.43C816.404 779.709 814.705 774.699 814.705 768.4Z" fill="black"></path> <path d="M748.622 788V747.526H760.223L770.946 773.542C771.327 774.509 771.678 775.446 772.001 776.354C772.323 777.233 772.587 778.156 772.792 779.123H772.968C773.202 778.156 773.495 777.233 773.846 776.354C774.198 775.446 774.564 774.494 774.945 773.498L785.492 747.526H796.918V788H788.788V761.896C788.788 760.842 788.802 759.743 788.832 758.601C788.861 757.458 788.92 756.301 789.008 755.129H788.744C788.48 756.271 788.143 757.414 787.733 758.557C787.352 759.699 786.957 760.812 786.547 761.896L775.912 788H769.1L758.334 761.896C757.953 760.959 757.572 759.89 757.191 758.688C756.81 757.487 756.488 756.301 756.224 755.129H756.005C756.093 756.301 756.151 757.458 756.18 758.601C756.21 759.714 756.224 760.812 756.224 761.896V788H748.622Z" fill="black"></path> <path d="M665.674 788V747.526H673.892V773.059C673.892 774.172 673.877 775.036 673.848 775.651C673.848 776.267 673.789 777.16 673.672 778.332H673.936C674.434 777.277 674.815 776.501 675.078 776.003C675.371 775.476 675.87 774.553 676.573 773.234L691.075 747.526H699.995V788H691.778V762.468C691.778 761.325 691.778 760.446 691.778 759.831C691.807 759.216 691.851 758.337 691.91 757.194H691.69C691.221 758.249 690.84 759.04 690.547 759.567C690.254 760.065 689.756 760.959 689.053 762.248L674.595 788H665.674Z" fill="black"></path> <path d="M585.715 788L600.129 765.324L602.019 764.841L613.005 747.526H620.783L606.896 769.323L604.831 769.675L593.537 788H585.715ZM586.55 747.526H595.427L606.281 764.797L607.292 765.5L621.574 788H612.653L601.315 769.675L600.349 769.104L586.55 747.526Z" fill="black"></path> <path d="M531.717 747.526V761.105H541.692C546.438 761.105 550.071 762.307 552.591 764.709C555.11 767.111 556.37 770.393 556.37 774.553C556.37 778.713 555.11 781.994 552.591 784.396C550.071 786.799 546.438 788 541.692 788H523.499V747.526H531.717ZM540.33 767.082H531.717V782.023H540.33C543.201 782.023 545.222 781.32 546.394 779.914C547.595 778.508 548.196 776.691 548.196 774.465C548.196 772.268 547.61 770.495 546.438 769.147C545.266 767.771 543.23 767.082 540.33 767.082ZM561.907 788V747.526H570.257V788H561.907Z" fill="black"></path> <path d="M469.369 747.526H477.586V764.313H494.989V747.526H503.25V788H494.989V770.773H477.586V788H469.369V747.526Z" fill="black"></path> <path d="M417.963 754.118V747.526H452.504V754.118H439.365V788H431.103V754.118H417.963Z" fill="black"></path> <path d="M366.822 788V747.526H375.039V773.059C375.039 774.172 375.025 775.036 374.995 775.651C374.995 776.267 374.937 777.16 374.82 778.332H375.083C375.581 777.277 375.962 776.501 376.226 776.003C376.519 775.476 377.017 774.553 377.72 773.234L392.222 747.526H401.143V788H392.925V762.468C392.925 761.325 392.925 760.446 392.925 759.831C392.954 759.216 392.998 758.337 393.057 757.194H392.837C392.368 758.249 391.988 759.04 391.695 759.567C391.402 760.065 390.904 760.959 390.2 762.248L375.742 788H366.822Z" fill="black"></path> <path d="M331.061 788.967C325.523 788.996 321.231 787.751 318.185 785.231C315.167 782.712 313.658 779.167 313.658 774.597V773.938H321.305V774.553C321.305 777.453 322.198 779.606 323.985 781.013C325.772 782.419 328.131 783.122 331.061 783.122C333.756 783.122 335.968 782.551 337.696 781.408C339.454 780.266 340.333 778.552 340.333 776.267C340.333 774.421 339.659 772.956 338.312 771.872C336.993 770.759 334.84 770.202 331.852 770.202H326.358V764.445H331.28C333.888 764.445 335.763 763.918 336.905 762.863C338.077 761.779 338.663 760.314 338.663 758.469C338.663 756.389 337.989 754.851 336.642 753.854C335.323 752.858 333.448 752.36 331.017 752.36C328.409 752.36 326.3 753.049 324.688 754.426C323.077 755.803 322.286 757.839 322.315 760.534V761.193H314.625V760.534C314.625 756.14 316.104 752.712 319.063 750.251C322.022 747.761 326.095 746.516 331.28 746.516C336.026 746.516 339.806 747.468 342.618 749.372C345.46 751.276 346.881 754.104 346.881 757.854C346.881 760.227 346.134 762.204 344.64 763.786C343.175 765.339 341.139 766.394 338.531 766.95V767.038C341.725 767.507 344.186 768.547 345.914 770.158C347.672 771.74 348.551 773.952 348.551 776.794C348.551 780.661 346.939 783.649 343.717 785.759C340.494 787.868 336.275 788.938 331.061 788.967Z" fill="black"></path> <path d="M259.88 768.4V766.994C259.88 760.871 261.667 755.935 265.241 752.185C268.844 748.405 273.635 746.516 279.611 746.516C285.617 746.516 290.407 748.405 293.981 752.185C297.585 755.935 299.386 760.871 299.386 766.994V768.4C299.386 774.582 297.585 779.562 293.981 783.342C290.407 787.092 285.617 788.967 279.611 788.967C273.605 788.967 268.815 787.092 265.241 783.342C261.667 779.562 259.88 774.582 259.88 768.4ZM268.229 766.862V768.532C268.229 772.634 269.196 776.003 271.13 778.64C273.063 781.247 275.89 782.551 279.611 782.551C283.361 782.551 286.203 781.247 288.136 778.64C290.07 776.003 291.037 772.634 291.037 768.532V766.862C291.037 762.761 290.07 759.436 288.136 756.887C286.203 754.309 283.361 753.02 279.611 753.02C275.89 753.02 273.063 754.309 271.13 756.887C269.196 759.436 268.229 762.761 268.229 766.862Z" fill="black"></path> <path d="M208.738 747.526H242.004V788H233.787V754.118H216.956V788H208.738V747.526Z" fill="black"></path> <path d="M140.194 788V747.526H151.795L162.518 773.542C162.899 774.509 163.25 775.446 163.573 776.354C163.895 777.233 164.159 778.156 164.364 779.123H164.54C164.774 778.156 165.067 777.233 165.418 776.354C165.77 775.446 166.136 774.494 166.517 773.498L177.064 747.526H188.49V788H180.36V761.896C180.36 760.842 180.375 759.743 180.404 758.601C180.433 757.458 180.492 756.301 180.58 755.129H180.316C180.052 756.271 179.715 757.414 179.305 758.557C178.924 759.699 178.529 760.812 178.119 761.896L167.484 788H160.672L149.906 761.896C149.525 760.959 149.144 759.89 148.763 758.688C148.382 757.487 148.06 756.301 147.796 755.129H147.577C147.665 756.301 147.723 757.458 147.752 758.601C147.782 759.714 147.796 760.812 147.796 761.896V788H140.194Z" fill="black"></path> <path d="M82.8118 768.4V766.994C82.8118 760.871 84.5989 755.935 88.1731 752.185C91.7766 748.405 96.5667 746.516 102.543 746.516C108.549 746.516 113.339 748.405 116.913 752.185C120.517 755.935 122.319 760.871 122.319 766.994V768.4C122.319 774.582 120.517 779.562 116.913 783.342C113.339 787.092 108.549 788.967 102.543 788.967C96.5374 788.967 91.7473 787.092 88.1731 783.342C84.5989 779.562 82.8118 774.582 82.8118 768.4ZM91.1614 766.862V768.532C91.1614 772.634 92.1282 776.003 94.0618 778.64C95.9954 781.247 98.8225 782.551 102.543 782.551C106.293 782.551 109.135 781.247 111.069 778.64C113.002 776.003 113.969 772.634 113.969 768.532V766.862C113.969 762.761 113.002 759.436 111.069 756.887C109.135 754.309 106.293 753.02 102.543 753.02C98.8225 753.02 95.9954 754.309 94.0618 756.887C92.1282 759.436 91.1614 762.761 91.1614 766.862Z" fill="black"></path> <path d="M60.1025 788L45.8643 769.543L52.0605 764.797L70.1221 788H60.1025ZM38.833 764.313H46.6553L58.5645 747.526H67.8809L51.1816 770.773H38.833V764.313ZM42.9639 747.526V788H34.7461V747.526H42.9639Z" fill="black"></path> <path d="M950.611 869V828.526H958.829V854.059C958.829 855.172 958.814 856.036 958.785 856.651C958.785 857.267 958.727 858.16 958.609 859.332H958.873C959.371 858.277 959.752 857.501 960.016 857.003C960.309 856.476 960.807 855.553 961.51 854.234L976.012 828.526H984.933V869H976.715V843.468C976.715 842.325 976.715 841.446 976.715 840.831C976.744 840.216 976.788 839.337 976.847 838.194H976.627C976.158 839.249 975.777 840.04 975.484 840.567C975.191 841.065 974.693 841.959 973.99 843.248L959.532 869H950.611ZM967.75 817.101C969.654 817.101 971.28 816.5 972.628 815.299C974.005 814.098 975.265 812.237 976.407 809.718L982.164 812.662C980.787 815.855 978.927 818.36 976.583 820.177C974.239 821.964 971.295 822.857 967.75 822.857C964.234 822.857 961.305 821.964 958.961 820.177C956.617 818.36 954.757 815.855 953.38 812.662L959.137 809.718C960.279 812.267 961.524 814.142 962.872 815.343C964.249 816.515 965.875 817.101 967.75 817.101Z" fill="black"></path> <path d="M896.042 869V828.526H904.26V854.059C904.26 855.172 904.245 856.036 904.216 856.651C904.216 857.267 904.157 858.16 904.04 859.332H904.303C904.802 858.277 905.182 857.501 905.446 857.003C905.739 856.476 906.237 855.553 906.94 854.234L921.442 828.526H930.363V869H922.145V843.468C922.145 842.325 922.145 841.446 922.145 840.831C922.175 840.216 922.219 839.337 922.277 838.194H922.057C921.589 839.249 921.208 840.04 920.915 840.567C920.622 841.065 920.124 841.959 919.421 843.248L904.963 869H896.042Z" fill="black"></path> <path d="M872.014 880.514V869H840.505V828.526H848.723V862.408H865.554V828.526H873.772V862.408H879.749V880.514H872.014Z" fill="black"></path> <path d="M815.335 869L801.097 850.543L807.293 845.797L825.355 869H815.335ZM794.066 845.313H801.888L813.797 828.526H823.114L806.414 851.773H794.066V845.313ZM798.197 828.526V869H789.979V828.526H798.197Z" fill="black"></path> <path d="M736.288 887.237V881.173C737.138 881.407 737.988 881.568 738.837 881.656C739.687 881.773 740.536 881.832 741.386 881.832C743.407 881.861 745.121 880.895 746.528 878.932C747.963 876.969 749.413 873.731 750.878 869.22L735.102 828.526H743.407L753.295 855.729C753.676 856.725 753.984 857.589 754.218 858.321C754.452 859.024 754.672 859.742 754.877 860.475H755.053C755.258 859.742 755.478 859.01 755.712 858.277C755.976 857.545 756.283 856.666 756.635 855.641L766.83 828.526H774.609L757.294 873.482C755.273 878.756 753.222 882.521 751.142 884.776C749.062 887.032 746.235 888.16 742.66 888.16C741.225 888.16 740.024 888.072 739.057 887.896C738.09 887.75 737.167 887.53 736.288 887.237Z" fill="black"></path> <path d="M684.531 888.248V828.526H692.485V834.063H692.573C693.657 832.247 695.356 830.724 697.671 829.493C700.015 828.233 702.651 827.604 705.581 827.604C710.708 827.604 714.736 829.405 717.666 833.009C720.596 836.612 722.061 841.549 722.061 847.818V849.225C722.061 855.523 720.581 860.548 717.622 864.298C714.663 868.019 710.635 869.879 705.537 869.879C702.578 869.879 700.044 869.352 697.935 868.297C695.854 867.213 694.126 865.807 692.749 864.078V888.248H684.531ZM692.749 856.783C693.54 858.57 694.8 860.152 696.528 861.529C698.257 862.877 700.381 863.551 702.9 863.551C706.592 863.551 709.302 862.218 711.03 859.552C712.788 856.886 713.667 853.487 713.667 849.356V847.687C713.667 843.556 712.788 840.245 711.03 837.755C709.302 835.265 706.592 834.02 702.9 834.02C700.41 834.02 698.286 834.693 696.528 836.041C694.771 837.389 693.511 838.956 692.749 840.743V856.783Z" fill="black"></path> <path d="M633.126 835.118V828.526H667.667V835.118H654.527V869H646.265V835.118H633.126Z" fill="black"></path> <path d="M582.863 849.4V847.994C582.863 841.578 584.562 836.568 587.961 832.965C591.388 829.332 596.003 827.516 601.803 827.516C607.516 827.516 611.852 828.878 614.811 831.603C617.799 834.298 619.323 837.975 619.381 842.633L619.425 843.38H611.296V842.765C611.296 839.981 610.505 837.828 608.922 836.305C607.34 834.781 605.041 834.02 602.023 834.02C598.595 834.02 595.929 835.191 594.025 837.535C592.15 839.879 591.213 843.307 591.213 847.818V849.576C591.213 853.795 592.135 857.179 593.981 859.728C595.856 862.276 598.522 863.551 601.979 863.551C605.055 863.551 607.399 862.76 609.01 861.178C610.622 859.596 611.427 857.369 611.427 854.498V853.883H619.469V854.63C619.44 859.229 617.902 862.936 614.855 865.748C611.838 868.561 607.502 869.967 601.847 869.967C596.047 869.967 591.432 868.136 588.005 864.474C584.577 860.782 582.863 855.758 582.863 849.4Z" fill="black"></path> <path d="M531.194 828.526H539.411V845.313H556.814V828.526H565.076V869H556.814V851.773H539.411V869H531.194V828.526Z" fill="black"></path> <path d="M473.812 849.4V847.994C473.812 841.871 475.599 836.935 479.173 833.185C482.777 829.405 487.567 827.516 493.543 827.516C499.549 827.516 504.339 829.405 507.913 833.185C511.517 836.935 513.319 841.871 513.319 847.994V849.4C513.319 855.582 511.517 860.562 507.913 864.342C504.339 868.092 499.549 869.967 493.543 869.967C487.537 869.967 482.747 868.092 479.173 864.342C475.599 860.562 473.812 855.582 473.812 849.4ZM482.161 847.862V849.532C482.161 853.634 483.128 857.003 485.062 859.64C486.995 862.247 489.823 863.551 493.543 863.551C497.293 863.551 500.135 862.247 502.069 859.64C504.002 857.003 504.969 853.634 504.969 849.532V847.862C504.969 843.761 504.002 840.436 502.069 837.887C500.135 835.309 497.293 834.02 493.543 834.02C489.823 834.02 486.995 835.309 485.062 837.887C483.128 840.436 482.161 843.761 482.161 847.862Z" fill="black"></path> <path d="M451.103 869L436.864 850.543L443.061 845.797L461.122 869H451.103ZM429.833 845.313H437.655L449.564 828.526H458.881L442.182 851.773H429.833V845.313ZM433.964 828.526V869H425.746V828.526H433.964Z" fill="black"></path> <path d="M980 276C980 419.594 863.594 536 720 536C576.406 536 460 419.594 460 276C460 132.406 576.406 16 720 16C863.594 16 980 132.406 980 276Z" fill="#35A4AC"></path> <path fill-rule="evenodd" clip-rule="evenodd" d="M992 276C992 426.221 870.221 548 720 548C569.779 548 448 426.221 448 276C448 125.779 569.779 4 720 4C870.221 4 992 125.779 992 276ZM720 536C863.594 536 980 419.594 980 276C980 132.406 863.594 16 720 16C576.406 16 460 132.406 460 276C460 419.594 576.406 536 720 536Z" fill="black"></path> <path d="M519 314.5V152L706 101V311.5L519 314.5Z" fill="#13757C"></path> <path d="M924 314.5V152L737 101V311.5L924 314.5Z" fill="#13757C"></path> <path d="M417.153 321.059C416.025 314.995 420.603 309.365 426.77 309.233L717.098 303L1016.15 309.238C1022.34 309.367 1026.93 315.041 1025.76 321.125L996.031 475.694C995.109 480.489 990.859 483.916 985.977 483.802L717.098 477.515L455.98 483.795C451.073 483.913 446.806 480.453 445.908 475.627L417.153 321.059Z" fill="black"></path> <path fill-rule="evenodd" clip-rule="evenodd" d="M717.098 477.515L985.977 483.802C990.859 483.916 995.109 480.489 996.031 475.694L1025.76 321.125C1026.93 315.041 1022.34 309.367 1016.15 309.238L717.098 303L426.77 309.233C420.603 309.365 416.025 314.995 417.153 321.059L445.908 475.627C446.806 480.453 451.073 483.913 455.98 483.795L717.098 477.515ZM717.099 308.001L426.877 314.232C423.794 314.298 421.505 317.113 422.069 320.145L450.824 474.713C451.273 477.125 453.406 478.856 455.86 478.797L717.096 472.513L986.094 478.804C988.535 478.861 990.66 477.147 991.121 474.749L1020.85 320.18C1021.44 317.138 1019.14 314.302 1016.05 314.237L717.099 308.001Z" fill="black"></path> <path d="M429.165 322.66C428.558 319.607 430.857 316.747 433.969 316.685L717.285 311L1008.99 316.687C1012.11 316.748 1014.42 319.632 1013.79 322.694L983.697 468.918C983.211 471.282 981.104 472.962 978.691 472.909L717.285 467.195L463.286 472.906C460.859 472.96 458.743 471.264 458.269 468.883L429.165 322.66Z" fill="#13757C"></path> <path fill-rule="evenodd" clip-rule="evenodd" d="M717.285 467.195L978.691 472.909C981.104 472.962 983.211 471.282 983.697 468.918L1013.79 322.694C1014.42 319.632 1012.11 316.748 1008.99 316.687L717.285 311L433.969 316.685C430.857 316.747 428.558 319.607 429.165 322.66L458.269 468.883C458.743 471.264 460.859 472.96 463.286 472.906L717.285 467.195ZM717.286 316.001L434.069 321.684L463.173 467.907L717.283 462.194L978.8 467.91L1008.89 321.686L717.286 316.001Z" fill="white"></path> <path d="M930.241 428L908.912 388.684L927.487 380.246L953.444 428H930.241ZM895.436 376.027H910.377L928.893 342.688H950.221L921.92 392.609H895.436V376.027ZM885.065 428V342.688H905.748V428H885.065Z" fill="white"></path> <path d="M772.016 428V342.688H801.079L817.016 391.555C817.407 392.922 817.778 394.25 818.13 395.539C818.481 396.828 818.794 398.195 819.067 399.641H819.302C819.575 398.195 819.887 396.828 820.239 395.539C820.591 394.25 820.962 392.922 821.352 391.555L837.29 342.688H866.411V428H846.02V378.02C846.02 376.691 846.02 375.207 846.02 373.566C846.059 371.926 846.137 370.441 846.255 369.113H845.903C845.669 370.52 845.356 372.023 844.966 373.625C844.575 375.188 844.184 376.652 843.794 378.02L828.266 428H809.458L793.813 378.02C793.423 376.691 793.012 375.109 792.583 373.273C792.153 371.438 791.88 370.051 791.762 369.113H791.469C791.509 370.012 791.548 371.398 791.587 373.273C791.665 375.109 791.704 376.691 791.704 378.02V428H772.016Z" fill="white"></path> <path d="M736.956 428L715.628 388.684L734.202 380.246L760.159 428H736.956ZM702.152 376.027H717.093L735.609 342.688H756.937L728.636 392.609H702.152V376.027ZM691.781 428V342.688H712.464V428H691.781Z" fill="white"></path> <path d="M644.709 415.168C648.341 415.168 651.154 414.074 653.146 411.887C655.138 409.699 656.134 406.809 656.134 403.215C656.134 399.738 655.216 397.043 653.38 395.129C651.545 393.176 648.537 392.199 644.357 392.199H634.63V377.375H643.713C647.58 377.375 650.334 376.438 651.974 374.562C653.654 372.688 654.494 369.816 654.494 365.949C654.494 362.863 653.713 360.363 652.15 358.449C650.627 356.535 648.088 355.578 644.533 355.578C640.939 355.578 638.205 356.73 636.33 359.035C634.455 361.301 633.517 364.621 633.517 368.996V370.695H614.005V369.055C614.005 360.461 616.72 353.723 622.15 348.84C627.619 343.957 635.255 341.516 645.06 341.516C654.396 341.516 661.623 343.645 666.74 347.902C671.857 352.16 674.416 357.57 674.416 364.133C674.416 368.781 673.4 372.727 671.369 375.969C669.377 379.211 666.623 381.594 663.107 383.117V383.352C666.701 384.445 669.806 386.691 672.423 390.09C675.08 393.488 676.408 398 676.408 403.625C676.408 411.047 673.38 417.16 667.326 421.965C661.31 426.77 653.771 429.172 644.709 429.172C634.982 429.172 627.248 426.789 621.505 422.023C615.763 417.219 612.892 410.559 612.892 402.043V400.051H632.873V401.867C632.873 406.555 633.869 409.953 635.861 412.062C637.853 414.133 640.802 415.168 644.709 415.168Z" fill="white"></path> <path d="M495.098 342.688H515.547V411.418H533.945V342.688H554.395V411.418H572.91V342.688H593.359V411.418H601.621V444.699H582.344V428H495.098V342.688Z" fill="white"></path> <path fill-rule="evenodd" clip-rule="evenodd" d="M928.455 431L909.257 395.609H908.748V431H882.065V339.688H908.748V372.781L927.127 339.688H955.37L931.624 381.576L958.489 431H928.455ZM928.193 381.545L950.221 342.688H928.893L910.377 376.027H905.748V342.688H885.065V428H905.748V392.609H911.042L930.241 428H953.444L928.193 381.545Z" fill="black"></path> <path fill-rule="evenodd" clip-rule="evenodd" d="M769.016 431V339.688H803.256L819.184 388.527L835.113 339.688H869.411V431H843.02V390.621L830.476 431H807.253L794.704 390.908V431H769.016ZM791.704 378.02C791.704 376.747 791.668 375.242 791.596 373.504C791.593 373.428 791.59 373.351 791.587 373.273C791.578 372.863 791.57 372.477 791.561 372.113C791.531 370.838 791.501 369.85 791.471 369.15C791.471 369.137 791.47 369.125 791.469 369.113H791.762C791.879 370.044 792.149 371.416 792.573 373.231C792.575 373.239 792.576 373.246 792.578 373.253C792.58 373.26 792.581 373.267 792.583 373.273C793.012 375.109 793.423 376.691 793.813 378.02L809.458 428H828.266L843.794 378.02C844.184 376.652 844.575 375.188 844.966 373.625C844.97 373.605 844.975 373.586 844.98 373.566C844.982 373.558 844.984 373.55 844.986 373.542C845.367 371.971 845.673 370.495 845.903 369.113H846.255C846.253 369.132 846.251 369.152 846.25 369.171C846.17 370.079 846.11 371.06 846.067 372.113C846.048 372.583 846.032 373.068 846.02 373.566V428H866.411V342.688H837.29L821.352 391.555C821.143 392.287 820.939 393.009 820.741 393.719C820.629 394.122 820.518 394.522 820.409 394.917C820.352 395.126 820.295 395.333 820.239 395.539C819.891 396.814 819.582 398.166 819.31 399.595C819.307 399.61 819.304 399.625 819.302 399.641H819.067C819.064 399.625 819.061 399.61 819.058 399.595C818.787 398.166 818.477 396.814 818.13 395.539C818.073 395.333 818.017 395.126 817.959 394.917C817.851 394.522 817.74 394.122 817.628 393.719C817.429 393.009 817.226 392.287 817.016 391.555L801.079 342.688H772.016V428H791.704V378.02Z" fill="black"></path> <path fill-rule="evenodd" clip-rule="evenodd" d="M735.171 431L715.972 395.609H715.464V431H688.781V339.688H715.464V372.781L733.843 339.688H762.086L738.34 381.576L765.205 431H735.171ZM734.908 381.545L756.937 342.688H735.609L717.093 376.027H712.464V342.688H691.781V428H712.464V392.609H717.758L736.956 428H760.159L734.908 381.545Z" fill="black"></path> <path fill-rule="evenodd" clip-rule="evenodd" d="M651.205 397.195L651.195 397.184C650.176 396.1 648.164 395.199 644.357 395.199H631.63V374.375H643.713C647.19 374.375 648.898 373.523 649.717 372.587L649.728 372.574L649.74 372.561C650.721 371.466 651.494 369.459 651.494 365.949C651.494 363.378 650.851 361.602 649.826 360.346L649.814 360.332L649.803 360.317C649.071 359.398 647.604 358.578 644.533 358.578C641.633 358.578 639.842 359.471 638.657 360.928L638.649 360.938L638.641 360.948C637.383 362.467 636.517 364.991 636.517 368.996V373.695H611.005V369.055C611.005 359.775 613.969 352.163 620.144 346.609L620.152 346.602C626.333 341.083 634.771 338.516 645.06 338.516C654.818 338.516 662.821 340.739 668.659 345.596C674.449 350.415 677.416 356.664 677.416 364.133C677.416 369.218 676.302 373.739 673.918 377.55C672.623 379.655 671.043 381.455 669.19 382.941C671.269 384.319 673.137 386.101 674.794 388.251C677.968 392.317 679.408 397.54 679.408 403.625C679.408 412.004 675.929 418.966 669.195 424.312C662.558 429.611 654.324 432.172 644.709 432.172C634.498 432.172 626.015 429.665 619.59 424.332L619.58 424.324C613.059 418.867 609.892 411.31 609.892 402.043V397.051H635.873V401.867C635.873 406.225 636.814 408.694 638.032 409.992C639.28 411.282 641.324 412.168 644.709 412.168C647.705 412.168 649.631 411.292 650.928 409.867C652.314 408.345 653.134 406.23 653.134 403.215C653.134 400.264 652.365 398.404 651.215 397.206L651.205 397.195ZM635.861 412.062C633.869 409.953 632.873 406.555 632.873 401.867V400.051H612.892V402.043C612.892 402.382 612.897 402.718 612.906 403.051C613.125 411.086 615.992 417.41 621.505 422.023C627.248 426.789 634.982 429.172 644.709 429.172C653.771 429.172 661.31 426.77 667.326 421.965C673.38 417.16 676.408 411.047 676.408 403.625C676.408 398 675.08 393.488 672.423 390.09C670.66 387.8 668.674 386.033 666.467 384.789C665.434 384.207 664.354 383.74 663.224 383.388C663.185 383.376 663.146 383.363 663.107 383.352V383.117C663.135 383.105 663.162 383.093 663.189 383.081C664.305 382.592 665.344 382.015 666.305 381.351C668.339 379.947 670.027 378.153 671.369 375.969C673.4 372.727 674.416 368.781 674.416 364.133C674.416 357.57 671.857 352.16 666.74 347.902C661.623 343.645 654.396 341.516 645.06 341.516C635.255 341.516 627.619 343.957 622.15 348.84C617.01 353.462 614.303 359.747 614.029 367.695C614.013 368.143 614.005 368.596 614.005 369.055V370.695H633.517V368.996C633.517 364.621 634.455 361.301 636.33 359.035C638.205 356.73 640.939 355.578 644.533 355.578C648.088 355.578 650.627 356.535 652.15 358.449C653.713 360.363 654.494 362.863 654.494 365.949C654.494 369.816 653.654 372.688 651.974 374.562C650.334 376.438 647.58 377.375 643.713 377.375H634.63V392.199H644.357C648.537 392.199 651.545 393.176 653.38 395.129C655.216 397.043 656.134 399.738 656.134 403.215C656.134 406.809 655.138 409.699 653.146 411.887C651.154 414.074 648.341 415.168 644.709 415.168C640.802 415.168 637.853 414.133 635.861 412.062Z" fill="black"></path> <path fill-rule="evenodd" clip-rule="evenodd" d="M492.098 339.688H518.547V408.418H530.945V339.688H557.395V408.418H569.91V339.688H596.359V408.418H604.621V447.699H579.344V431H492.098V339.688ZM582.344 428V444.699H601.621V411.418H593.359V342.688H572.91V411.418H554.395V342.688H533.945V411.418H515.547V342.688H495.098V428H582.344Z" fill="black"></path> <path d="M519 174V152L706 101V129.5L519 174Z" fill="white"></path> <path d="M924 174V152L737 101V129.5L924 174Z" fill="white"></path> <path d="M924 234.5V212.5L737 172V200.5L924 234.5Z" fill="white"></path> <path d="M519 234.5V212.5L706 172V200.5L519 234.5Z" fill="white"></path> <path d="M924 285.5V263.5L737 242.5V271L924 285.5Z" fill="white"></path> <path d="M519 285.5V263.5L706 242.5V271L519 285.5Z" fill="white"></path> </svg> 