<svg width="245" height="63" viewBox="0 0 245 63" fill="none" xmlns="http://www.w3.org/2000/svg">
<path d="M40.1772 40.6436L47.2515 33.6541V29.7177L40.1772 36.7354V40.6436Z" fill="#6DA4D4"/>
<path d="M39.3928 37.5129L34.5306 42.3045V51.3434L47.2516 38.7567V34.7849L39.3928 42.5871V37.5129Z" fill="#6DA4D4"/>
<path d="M22.5798 41.831L15.5055 34.8273V38.7638L22.5798 45.7391V41.831Z" fill="#406EA0"/>
<path d="M23.3642 46.5167L28.2265 51.3295V42.2975L15.5054 29.7249V33.6896L23.3642 41.4353V46.5167Z" fill="#406EA0"/>
<path d="M33.7884 42.0571C33.7884 43.1455 33.7884 44.2621 33.7884 45.4282C33.3926 45.8239 32.9827 46.2409 32.5658 46.6508C32.2831 46.9335 32.0074 47.2162 31.7177 47.4918C31.4845 47.718 31.4138 47.725 31.2018 47.513C30.4951 46.8204 29.8025 46.1208 29.1169 45.4423C29.1169 44.2903 29.1169 43.1667 29.1169 42.0147C26.3819 39.2867 23.6398 36.5376 20.8624 33.7672C20.9755 33.64 21.0603 33.5481 21.1522 33.4563C21.6327 32.9686 22.1204 32.4881 22.601 32.0075C23.0109 31.5976 23.0108 31.5976 23.4419 32.0287C23.4985 32.0852 23.548 32.1347 23.6045 32.1912C26.0498 34.6365 28.488 37.0747 30.9332 39.52C31.0675 39.6542 31.1806 39.8097 31.3219 39.9652C31.7813 39.6613 32.0781 39.2726 32.4315 38.9405C32.7919 38.6012 33.1311 38.2479 33.4774 37.8945C33.8237 37.5482 34.1771 37.1948 34.5234 36.8486C34.8838 36.4881 35.2513 36.1206 35.6117 35.7602C35.958 35.4139 36.3114 35.0605 36.6577 34.7142C37.004 34.3679 37.3573 34.0146 37.7036 33.6683C38.0499 33.322 38.4033 32.9686 38.7496 32.6223C39.0959 32.276 39.4422 31.9298 39.8097 31.5623C39.9227 31.6683 40.0076 31.7389 40.0853 31.8167C40.6365 32.3679 41.1878 32.9121 41.732 33.4704C41.9298 33.6683 41.9298 33.7602 41.7461 33.951C40.8698 34.8697 40.0005 35.7885 39.1029 36.686C38.4386 37.3574 37.7178 37.9722 37.0605 38.6507C35.9651 39.7532 34.8909 40.8981 33.7884 42.0571Z" fill="#36536C"/>
<path d="M28.1134 26.177L32.6365 30.6577L40.2479 23.0745L31.3785 14.2051L19.1239 26.4597L23.5056 30.8414L28.1134 26.177Z" fill="#416FA0"/>
<path d="M40.9122 23.7388L32.6364 31.9792L28.1205 27.5057L24.1699 31.5057L31.3785 38.7143L43.6331 26.4597L40.9122 23.7388Z" fill="#416FA0"/>
<path d="M34.6294 10.6786V16.1981L44.9688 26.5304L43.1949 28.2053L45.3151 30.3396L47.2515 28.4739V23.3007L34.6294 10.6786Z" fill="#2A3B49"/>
<path d="M28.1276 10.6786V16.1981L17.7882 26.5304L19.5621 28.2053L17.4419 30.3396L15.5055 28.4739V23.3007L28.1276 10.6786Z" fill="#7DA7CB"/>
<path d="M46.665 53.8524C35.8804 60.9761 21.2229 59.7888 11.7316 50.2905" stroke="#585857" stroke-miterlimit="10"/>
<path d="M47.9372 8.33228C49.0114 9.13087 50.0503 10.0213 51.0255 11.0037C57.4991 17.4773 60.1069 26.3467 58.8631 34.7567" stroke="#585857" stroke-miterlimit="10"/>
<path d="M11.7316 10.9966C18.813 3.91527 28.7566 1.45588 37.8309 3.61138" stroke="#585857" stroke-miterlimit="10"/>
<g opacity="0.8">
<path d="M60.1069 23.4063L60.6085 23.5829L61.0959 23.7595L61.4492 23.3851L61.8095 22.9824L61.6682 22.4172C61.435 22.6857 61.1948 22.9542 60.9617 23.2085C60.6297 23.0955 60.3047 22.9824 59.9797 22.8764L60.1069 23.4063Z" fill="#585857"/>
<path d="M60.4176 24.7633L60.9121 24.9611L61.3855 25.1589L61.7529 24.7986L62.1343 24.4172C62.092 24.2264 62.0637 24.0357 62.0213 23.8449C61.7811 24.0992 61.5268 24.3536 61.2795 24.6008C60.9545 24.4666 60.6366 24.3394 60.3046 24.2193C60.354 24.403 60.3823 24.5867 60.4176 24.7633Z" fill="#585857"/>
<path d="M60.665 26.1344L61.1454 26.3534L61.6117 26.5724L62.0003 26.2262L62.4029 25.8588C62.3747 25.6681 62.3535 25.4703 62.3111 25.2795C62.0638 25.5268 61.8024 25.767 61.5411 26.0001C61.2231 25.8518 60.9123 25.7105 60.5873 25.5763C60.6156 25.7741 60.6438 25.9578 60.665 26.1344Z" fill="#585857"/>
<path d="M60.8489 27.5196L61.3222 27.7598L61.7744 28L62.1771 27.675L62.5939 27.3288C62.5798 27.131 62.5515 26.9403 62.5232 26.7495C62.2619 26.9826 62.0005 27.2087 61.7179 27.4348C61.4141 27.2723 61.0962 27.1169 60.7783 26.9685C60.8065 27.1522 60.8348 27.3359 60.8489 27.5196Z" fill="#585857"/>
<path d="M59.4494 41.4208L59.7532 41.8447L60.2548 41.7316L60.7776 41.6045L60.9825 41.0534C60.6363 41.1453 60.2972 41.23 59.951 41.3078C59.7462 41.0252 59.5342 40.7426 59.3223 40.4741L59.1315 40.9898L59.4494 41.4208Z" fill="#585857"/>
<path d="M58.6156 42.2831L58.9123 42.7282L59.1949 43.1662L59.7036 43.0814L60.2334 42.9825L60.4595 42.4456C60.1133 42.5162 59.7671 42.5869 59.421 42.6505C59.2302 42.3538 59.0324 42.0712 58.8346 41.7886L58.6156 42.2831Z" fill="#585857"/>
<path d="M58.0362 43.5481L58.3117 44.0073L58.5732 44.4524L59.0818 44.3888L59.6117 44.3111L59.866 43.7812C59.5128 43.8378 59.1666 43.8872 58.8204 43.9367C58.6438 43.6329 58.4601 43.3362 58.2764 43.0465L58.0362 43.5481Z" fill="#585857"/>
<path d="M57.4001 44.7919L57.6544 45.2582L57.8946 45.7174L58.4033 45.675L58.9402 45.6255L59.2157 45.1098C58.8625 45.1522 58.5092 45.1875 58.1631 45.2158C58.0006 44.9049 57.831 44.6011 57.6615 44.2974L57.4001 44.7919Z" fill="#585857"/>
<path d="M60.9904 31.866L61.4213 32.1768L61.8311 32.4806L62.2762 32.2192L62.7424 31.9366C62.7566 31.7388 62.7566 31.5481 62.7566 31.3503C62.4598 31.541 62.1702 31.7317 61.8593 31.9084C61.5838 31.7035 61.2871 31.5057 60.9974 31.3079C60.9974 31.4986 61.0045 31.6823 60.9904 31.866Z" fill="#585857"/>
<path d="M60.9407 32.7072C60.9266 32.8908 60.9266 33.0745 60.8984 33.2582L61.3081 33.5902L61.7037 33.9152L62.163 33.675L62.6433 33.4136C62.6645 33.2229 62.6716 33.0251 62.6857 32.8273C62.382 33.0039 62.0852 33.1805 61.7673 33.343C61.5059 33.124 61.2163 32.912 60.9407 32.7072Z" fill="#585857"/>
<path d="M60.1917 37.548L60.552 37.9366L60.8982 38.3181L61.3857 38.1485L61.8943 37.9648C61.9508 37.7741 61.9791 37.5834 62.0215 37.3926C61.6894 37.5268 61.3715 37.654 61.0395 37.767C60.8064 37.5127 60.552 37.2584 60.3118 37.0111C60.2694 37.1877 60.2412 37.3714 60.1917 37.548Z" fill="#585857"/>
<path d="M59.9797 38.361C59.9302 38.5376 59.8879 38.7213 59.8384 38.8979L60.1775 39.3006L60.5025 39.6963L60.997 39.5479L61.5128 39.3854C61.5693 39.2017 61.6117 39.011 61.6682 38.8202C61.3361 38.9333 61.0112 39.0463 60.665 39.1523C60.453 38.8838 60.2128 38.6154 59.9797 38.361Z" fill="#585857"/>
<path d="M56.7995 45.8378L57.0326 46.3182L57.2516 46.7845L57.7674 46.7633L58.3043 46.7351L58.6081 46.2335C58.2548 46.2617 57.8945 46.2759 57.5484 46.297C57.4 45.9791 57.2446 45.6683 57.0892 45.3645L56.7995 45.8378Z" fill="#585857"/>
<path d="M56.0573 47.0181L56.2692 47.5056L56.467 47.986L56.9827 47.9931H57.5197L57.8446 47.5056C57.4843 47.5126 57.1311 47.5197 56.7779 47.5197C56.6436 47.1947 56.5023 46.8768 56.361 46.566L56.0573 47.0181Z" fill="#585857"/>
<path d="M55.2586 48.156L55.4423 48.6505L55.6189 49.138L56.1346 49.1663L56.6716 49.1874L57.0177 48.7141C56.6645 48.707 56.3042 48.6929 55.958 48.6788C55.8379 48.3467 55.7178 48.0288 55.5836 47.7039L55.2586 48.156Z" fill="#585857"/>
<path d="M54.4107 49.2655L54.5732 49.7742L54.7286 50.2687L55.2443 50.3252L55.7812 50.3747C55.9013 50.2193 56.0285 50.078 56.1486 49.9225C55.7954 49.9013 55.4421 49.866 55.0889 49.8378C54.9829 49.5057 54.8769 49.1807 54.7639 48.8487C54.6509 48.9829 54.5308 49.1242 54.4107 49.2655Z" fill="#585857"/>
<path d="M44.1911 57.3647L43.6895 57.6049L43.6118 58.1347L43.527 58.6363L43.965 58.9189L44.4242 59.1944L44.9541 58.9401C44.6503 58.7635 44.3465 58.5798 44.0498 58.3961C44.0992 58.05 44.1487 57.7038 44.1911 57.3647Z" fill="#585857"/>
<path d="M42.919 57.9372L42.4103 58.1491L42.3044 58.679L42.1913 59.1806L42.6152 59.4844L43.0603 59.7882L43.6043 59.5621C43.3076 59.3713 43.0108 59.1735 42.7283 58.9757C42.7989 58.6225 42.8625 58.2763 42.919 57.9372Z" fill="#585857"/>
<path d="M41.6257 58.446L41.1029 58.6297L40.9758 59.1525L40.8415 59.6541L41.2442 59.972L41.6752 60.297L42.2262 60.0992C41.9366 59.8943 41.654 59.6824 41.3784 59.4704C41.4703 59.1243 41.548 58.7852 41.6257 58.446Z" fill="#585857"/>
<path d="M40.3112 58.8983L39.7814 59.0537L39.6259 59.5694L39.4705 60.0639L39.8591 60.396L40.2759 60.7422L40.834 60.5726C40.5585 60.3536 40.283 60.1275 40.0145 59.9014C40.1205 59.5694 40.2123 59.2303 40.3112 58.8983Z" fill="#585857"/>
<path d="M51.5343 52.9686L51.612 53.4772L52.1136 53.6044L52.6364 53.7316L53.0674 53.3359C52.7212 53.2582 52.375 53.1805 52.0288 53.0957C51.9723 52.7496 51.9158 52.4105 51.8522 52.0714L51.4425 52.4458L51.5343 52.9686Z" fill="#585857"/>
<path d="M50.8203 53.0114L50.3965 53.3646L50.46 53.8945L50.5166 54.4102L51.0111 54.5586L51.5268 54.7069L51.979 54.3325C51.6398 54.2407 51.2937 54.1418 50.9546 54.0429C50.9122 53.6896 50.8698 53.3505 50.8203 53.0114Z" fill="#585857"/>
<path d="M46.8699 55.9017L46.8558 56.4316L46.8346 56.9473L47.3008 57.1734L47.7883 57.3994L48.2899 57.0957C47.9649 56.9544 47.64 56.806 47.322 56.6577C47.3362 56.3044 47.3432 55.9653 47.3432 55.6191L46.8699 55.9017Z" fill="#585857"/>
<path d="M46.1488 56.34C45.9934 56.4389 45.8238 56.5166 45.6614 56.6084L45.619 57.1383L45.5695 57.654L46.0217 57.9013L46.5021 58.1485C46.6716 58.0567 46.8482 57.9649 47.0178 57.8659C46.6999 57.7176 46.382 57.548 46.0711 57.3855C46.1064 57.0323 46.1347 56.6932 46.1488 56.34Z" fill="#585857"/>
<path d="M39.1523 59.2446L38.6154 59.3789L38.4387 59.8805L38.2621 60.3679L38.6365 60.7212L39.0392 61.0815L39.6044 60.9402C39.336 60.707 39.0675 60.4668 38.8132 60.2337C38.9333 59.9017 39.0463 59.5696 39.1523 59.2446Z" fill="#585857"/>
<path d="M37.7952 59.5768C37.6186 59.6192 37.4349 59.6474 37.2512 59.6898L37.0534 60.1843L36.8556 60.6577L37.2159 61.0251L37.5974 61.4065C37.7882 61.3642 37.9789 61.3359 38.1697 61.2935C37.9153 61.0533 37.661 60.799 37.4137 60.5517C37.555 60.2197 37.6822 59.9088 37.7952 59.5768Z" fill="#585857"/>
<path d="M36.4314 59.8453C36.2477 59.8807 36.0711 59.9089 35.8874 59.9301L35.6684 60.4105L35.4494 60.8768L35.7955 61.2653L36.1629 61.668C36.3537 61.6398 36.5515 61.6186 36.7422 61.5762C36.495 61.3289 36.2547 61.0675 36.0216 60.8061C36.1558 60.4882 36.2971 60.1703 36.4314 59.8453Z" fill="#585857"/>
<path d="M35.053 60.0502C34.8693 60.0785 34.6857 60.0997 34.502 60.1138L34.2618 60.5872L34.0216 61.0393L34.3466 61.442L34.6927 61.8588C34.8905 61.8447 35.0813 61.8164 35.272 61.7882C35.0389 61.5268 34.8128 61.2654 34.5868 60.9828C34.7492 60.6861 34.9047 60.3681 35.053 60.0502Z" fill="#585857"/>
<path d="M21.5545 58.5873L21.0388 58.3965L20.6079 58.7145L20.184 59.0182L20.297 59.5198L20.4242 60.0426L20.9752 60.2475C20.8834 59.9013 20.7986 59.5622 20.7209 59.2161C21.0035 59.0112 21.279 58.7992 21.5545 58.5873Z" fill="#585857"/>
<path d="M20.247 58.0926L19.7383 57.8807L19.2932 58.1774L18.8552 58.46L18.94 58.9686L19.0389 59.4985L19.5758 59.7246C19.5052 59.3784 19.4345 59.0322 19.371 58.6861C19.6747 58.4882 19.9644 58.2904 20.247 58.0926Z" fill="#585857"/>
<path d="M18.9681 57.5414L18.4665 57.3011L18.0073 57.5767L17.5622 57.8381L17.6258 58.3467L17.7035 58.8766L18.2333 59.1309C18.1768 58.7777 18.1274 58.4315 18.0779 58.0853C18.3817 57.9087 18.6784 57.725 18.9681 57.5414Z" fill="#585857"/>
<path d="M17.717 56.9265L17.2295 56.6651L16.7632 56.9194L16.304 57.1596L16.3464 57.6683L16.3959 58.2052L16.9116 58.4807C16.8692 58.1275 16.8339 57.7743 16.8056 57.4281C17.1165 57.2656 17.4203 57.096 17.717 56.9265Z" fill="#585857"/>
<path d="M30.7139 60.2694C30.5302 60.2624 30.3465 60.2694 30.1628 60.2553L29.852 60.6863L29.5482 61.096L29.8096 61.5411L30.0922 62.0074C30.29 62.0215 30.4808 62.0215 30.6786 62.0215C30.4878 61.7248 30.2971 61.4351 30.1205 61.1243C30.3183 60.8558 30.5161 60.5591 30.7139 60.2694Z" fill="#585857"/>
<path d="M29.3216 60.2058C29.1379 60.1916 28.9542 60.1916 28.7705 60.1634L28.4385 60.5731L28.1135 60.9688L28.3537 61.428L28.6151 61.9084C28.8059 61.9296 29.0037 61.9366 29.2015 61.9508C29.0249 61.647 28.8482 61.3503 28.6858 61.0323C28.8977 60.771 29.1096 60.4813 29.3216 60.2058Z" fill="#585857"/>
<path d="M25.0176 59.5838C24.841 59.5415 24.6573 59.5132 24.4807 59.4637L24.0921 59.824L23.7106 60.1702L23.8802 60.6577L24.0639 61.1663C24.2546 61.2229 24.4453 61.2511 24.6361 61.2935C24.5019 60.9615 24.3747 60.6436 24.2617 60.3115C24.516 60.0784 24.7703 59.824 25.0176 59.5838Z" fill="#585857"/>
<path d="M23.6605 59.2446C23.4839 59.1952 23.3002 59.1528 23.1236 59.1033L22.7209 59.4424L22.3253 59.7674L22.4737 60.269L22.6362 60.7847C22.8198 60.8413 23.0106 60.8836 23.2013 60.9402C23.0883 60.6081 22.9753 60.2831 22.8693 59.937C23.1378 59.718 23.4062 59.4778 23.6605 59.2446Z" fill="#585857"/>
<path d="M16.6569 56.354L16.1836 56.0714L15.7032 56.3045L15.2369 56.5236L15.2581 57.0393L15.2864 57.5762L15.788 57.88C15.7597 57.5267 15.7456 57.1664 15.7244 56.8203C16.0423 56.6648 16.3532 56.5094 16.6569 56.354Z" fill="#585857"/>
<path d="M15.4626 55.6332L15.0034 55.3223L14.5159 55.5343L14.0355 55.7321L14.0284 56.2478V56.7847L14.5159 57.1097C14.5088 56.7494 14.5018 56.3962 14.5018 56.0429C14.8338 55.9158 15.1517 55.7745 15.4626 55.6332Z" fill="#585857"/>
<path d="M14.3106 54.8557L13.8655 54.5308L13.371 54.7144L12.8835 54.8911L12.8553 55.4068L12.8341 55.9437L13.3074 56.2899C13.3145 55.9366 13.3286 55.5763 13.3427 55.2302C13.6677 55.1101 13.9856 54.99 14.3106 54.8557Z" fill="#585857"/>
<path d="M13.1869 54.0289C13.0385 53.9159 12.8972 53.7958 12.7559 53.6827L12.2472 53.8452L11.7527 54.0006L11.6962 54.5164L11.6467 55.0533C11.8022 55.1734 11.9435 55.3006 12.0989 55.4207C12.1201 55.0674 12.1554 54.7142 12.1837 54.361C12.5298 54.2479 12.8619 54.1419 13.1869 54.0289Z" fill="#585857"/>
<path d="M3.57528 40.8908L3.39159 40.368L2.86881 40.2408L2.36721 40.1066L2.0493 40.5093L1.72432 40.9402L1.92213 41.4913C2.12701 41.2016 2.33895 40.919 2.55089 40.6435C2.89706 40.7353 3.23617 40.8201 3.57528 40.8908Z" fill="#585857"/>
<path d="M3.12313 39.5762L2.96771 39.0463L2.45198 38.8909L1.95745 38.7355L1.62541 39.124L1.27924 39.5409L1.44879 40.099C1.6678 39.8234 1.89387 39.5479 2.11994 39.2795C2.45904 39.3854 2.79108 39.4843 3.12313 39.5762Z" fill="#585857"/>
<path d="M2.64957 37.8803L2.14798 37.7037L1.66051 37.527L1.30728 37.9015L0.946976 38.3042L1.08827 38.8693C1.32141 38.6009 1.56161 38.3324 1.79474 38.0781C2.12678 38.1911 2.45176 38.3042 2.77674 38.4101L2.64957 37.8803Z" fill="#585857"/>
<path d="M2.3386 36.5233L1.84407 36.3255L1.37073 36.1277L1.00337 36.488L0.621872 36.8695C0.66426 37.0602 0.692521 37.251 0.741974 37.4417C0.982174 37.1874 1.2365 36.9331 1.48377 36.6858C1.80875 36.82 2.12666 36.9472 2.4587 37.0673C2.40218 36.8907 2.37392 36.707 2.3386 36.5233Z" fill="#585857"/>
<path d="M2.09124 35.1523L1.61084 34.9333L1.14457 34.7143L0.756009 35.0605L0.353317 35.4278C0.381576 35.6186 0.402771 35.8164 0.445159 36.0071C0.692425 35.7599 0.953819 35.5197 1.21521 35.2865C1.53313 35.4349 1.84398 35.5762 2.16895 35.7104C2.14069 35.5197 2.11243 35.336 2.09124 35.1523Z" fill="#585857"/>
<path d="M1.90748 33.7742L1.43414 33.534L0.981998 33.2938L0.579309 33.6187L0.162491 33.9649C0.17662 34.1627 0.204878 34.3535 0.233137 34.5442C0.494532 34.3111 0.755926 34.085 1.03851 33.8589C1.3423 34.0214 1.66021 34.1769 1.97812 34.3252C1.9428 34.1345 1.9216 33.9578 1.90748 33.7742Z" fill="#585857"/>
<path d="M1.76618 29.4277L1.33523 29.1169L0.925479 28.8131L0.480401 29.0745L0.0141298 29.3571C3.23713e-07 29.5549 0 29.7457 0 29.9435C0.296718 29.7527 0.586372 29.562 0.89722 29.3854C1.17274 29.5902 1.46946 29.788 1.75912 29.9859C1.75205 29.7951 1.75205 29.6114 1.76618 29.4277Z" fill="#585857"/>
<path d="M1.81562 28.5865C1.82975 28.4028 1.82975 28.2191 1.85801 28.0354L1.44826 27.7034L1.05263 27.3784L0.586359 27.6186L0.105957 27.88C0.0847633 28.0708 0.0776976 28.2686 0.0635681 28.4664C0.367351 28.2898 0.664072 28.1131 0.981984 27.9507C1.25044 28.1626 1.5401 28.3816 1.81562 28.5865Z" fill="#585857"/>
<path d="M2.56486 23.7456L2.20456 23.3571L1.85838 22.9756L1.37092 23.1451L0.862257 23.3288C0.80574 23.5196 0.77748 23.7103 0.735092 23.9011C1.06713 23.7668 1.38505 23.6397 1.71709 23.5266C1.95022 23.781 2.20455 24.0353 2.44475 24.2826C2.48008 24.1059 2.50834 23.9223 2.56486 23.7456Z" fill="#585857"/>
<path d="M18.5653 3.92864L19.0669 3.68844L19.1446 3.15859L19.2294 2.65699L18.7914 2.3744L18.3322 2.09888L17.8023 2.35321C18.1061 2.52983 18.4099 2.71351 18.7066 2.89719C18.6571 3.2363 18.6077 3.58247 18.5653 3.92864Z" fill="#585857"/>
<path d="M19.8304 3.35627L20.339 3.14433L20.445 2.61447L20.558 2.11288L20.1342 1.80909L19.6891 1.50531L19.1451 1.73138C19.4418 1.92213 19.7385 2.11994 20.0211 2.31775C19.9575 2.67099 19.894 3.01716 19.8304 3.35627Z" fill="#585857"/>
<path d="M21.1309 2.8404L21.6537 2.65672L21.7808 2.13392L21.9151 1.63233L21.5124 1.31442L21.0814 0.989441L20.5304 1.18725C20.82 1.39213 21.1026 1.60407 21.3782 1.81601C21.2863 2.16925 21.2015 2.50836 21.1309 2.8404Z" fill="#585857"/>
<path d="M22.4454 2.3881L22.9752 2.23267L23.1307 1.71695L23.2861 1.22242L22.8975 0.890376L22.4807 0.55127L21.9226 0.720821C22.1981 0.939828 22.4736 1.1659 22.7421 1.39197C22.6361 1.72401 22.5372 2.05605 22.4454 2.3881Z" fill="#585857"/>
<path d="M11.2221 8.325L11.1444 7.81634L10.6428 7.68918L10.12 7.56201L9.68909 7.95764C10.0353 8.03535 10.3814 8.11306 10.7276 8.19784C10.7841 8.54401 10.8406 8.88311 10.9042 9.22222L11.314 8.84779L11.2221 8.325Z" fill="#585857"/>
<path d="M11.9362 8.28219L12.3601 7.92895L12.2965 7.3991L12.24 6.88337L11.7455 6.72795L11.2298 6.57959L10.7776 6.95402C11.1238 7.04586 11.4629 7.14477 11.802 7.24367C11.8444 7.59691 11.8797 7.93602 11.9362 8.28219Z" fill="#585857"/>
<path d="M15.4132 5.67434L15.8865 5.38469L15.9006 4.85483L15.9218 4.3391L15.4556 4.11303L14.9681 3.88696L14.4665 4.19075C14.7915 4.33204 15.1164 4.4804 15.4344 4.62876C15.4202 4.98199 15.4132 5.32817 15.4132 5.67434Z" fill="#585857"/>
<path d="M16.6007 4.95347C16.7561 4.85456 16.9256 4.77685 17.0881 4.68501L17.1305 4.15515L17.18 3.63943L16.7278 3.39216L16.2474 3.1449C16.0779 3.23674 15.9012 3.32858 15.7317 3.42749C16.0496 3.57585 16.3675 3.7454 16.6784 3.90789C16.643 4.26112 16.6148 4.60023 16.6007 4.95347Z" fill="#585857"/>
<path d="M23.6044 2.04887L24.1414 1.91464L24.318 1.41304L24.4946 0.925574L24.1202 0.572338L23.7175 0.212036L23.1523 0.353331C23.4208 0.586467 23.6892 0.826667 23.9435 1.0598C23.8164 1.39184 23.7104 1.71682 23.6044 2.04887Z" fill="#585857"/>
<path d="M41.202 2.69903L41.7177 2.88977L42.1487 2.57186L42.5725 2.26808L42.4595 1.76648L42.3323 1.2437L41.7813 1.03882C41.8731 1.38499 41.9579 1.7241 42.0356 2.07027C41.753 2.28221 41.4775 2.48709 41.202 2.69903Z" fill="#585857"/>
<path d="M42.5023 3.19378L43.0109 3.40572L43.456 3.109L43.894 2.82641L43.8093 2.31775L43.7103 1.7879L43.1734 1.56183C43.2441 1.908 43.3147 2.25417 43.3783 2.60034C43.0745 2.79815 42.7849 2.99597 42.5023 3.19378Z" fill="#585857"/>
<path d="M43.7815 3.74508L44.2831 3.98528L44.7423 3.70976L45.1874 3.44836L45.1238 2.9397L45.0461 2.40985L44.5162 2.15552C44.5728 2.50875 44.6222 2.85493 44.6717 3.2011C44.3749 3.38478 44.0782 3.5614 43.7815 3.74508Z" fill="#585857"/>
<path d="M45.0324 4.3599L45.5199 4.6213L45.9861 4.36697L46.4454 4.12677L46.403 3.61811L46.3535 3.08119L45.8378 2.80566C45.8802 3.1589 45.9155 3.51214 45.9438 3.85831C45.64 4.02786 45.3362 4.19035 45.0324 4.3599Z" fill="#585857"/>
<path d="M37.7392 1.70966C37.9158 1.75205 38.0995 1.78031 38.2761 1.82976L38.6646 1.46946L39.0461 1.12329L38.8766 0.635826L38.6929 0.127165C38.5022 0.0706474 38.3114 0.0423883 38.1207 0C38.2549 0.332042 38.3821 0.649954 38.4951 0.981996C38.2408 1.20807 37.9864 1.4624 37.7392 1.70966Z" fill="#585857"/>
<path d="M39.089 2.04178C39.2656 2.09124 39.4493 2.13363 39.6259 2.18308L40.0286 1.84397L40.4242 1.519L40.2758 1.0174L40.1134 0.501677C39.9297 0.445159 39.7389 0.40277 39.5482 0.346252C39.6612 0.678294 39.7742 1.00327 39.8802 1.34944C39.6118 1.56845 39.3504 1.80865 39.089 2.04178Z" fill="#585857"/>
<path d="M46.0925 4.93943L46.5658 5.22202L47.0462 4.98888L47.5125 4.76988L47.4913 4.25415L47.463 3.71724L46.9614 3.41345C46.9897 3.76669 47.0038 4.12699 47.025 4.47316C46.7142 4.62858 46.4033 4.77694 46.0925 4.93943Z" fill="#585857"/>
<path d="M47.2868 5.65316L47.746 5.96401L48.2335 5.75207L48.7139 5.55426L48.721 5.03853V4.50161L48.2335 4.17664C48.2406 4.53694 48.2476 4.89017 48.2476 5.24341C47.9226 5.37764 47.6047 5.51187 47.2868 5.65316Z" fill="#585857"/>
<path d="M48.4461 6.43072L48.8911 6.7557L49.3857 6.57201L49.8731 6.3954L49.9014 5.87967L49.9226 5.34275L49.4492 4.99658C49.4422 5.34982 49.4281 5.71012 49.4139 6.05629C49.0889 6.18346 48.771 6.30356 48.4461 6.43072Z" fill="#585857"/>
<path d="M49.5696 7.26455C49.7179 7.37759 49.8592 7.49769 50.0005 7.61072L50.5092 7.44824L51.0037 7.29281L51.0602 6.77709L51.1097 6.24017C50.9543 6.12007 50.813 5.9929 50.6576 5.8728C50.6364 6.22604 50.601 6.57927 50.5728 6.93251C50.2195 7.03848 49.8946 7.14445 49.5696 7.26455Z" fill="#585857"/>
<path d="M59.1809 20.3959L59.3646 20.9186L59.8874 21.0458L60.389 21.18L60.7069 20.7773L61.0319 20.3464L60.8341 19.7953C60.6292 20.085 60.4173 20.3676 60.2053 20.6431C59.8591 20.5513 59.52 20.4736 59.1809 20.3959Z" fill="#585857"/>
<path d="M59.6333 21.7174L59.7887 22.2472L60.3044 22.4026L60.799 22.5581L61.131 22.1695L61.4772 21.7527L61.3076 21.1946C61.0886 21.4701 60.8626 21.7456 60.6365 22.0141C60.2974 21.901 59.9653 21.8092 59.6333 21.7174Z" fill="#585857"/>
</g>
<path d="M91.429 39.103L91.4078 24.9897L85.2593 32.488L79.0613 25.1311V39.103H76.1284V20.1981H78.6797L85.2805 28.6152L91.8106 20.1981H94.3407L94.3902 39.103H91.429Z" fill="#2A3B49"/>
<path d="M110.595 33.6895H100.609C100.97 35.5482 102.517 36.7425 104.729 36.7425C106.157 36.7425 107.281 36.2902 108.185 35.3574L109.782 37.1948C108.637 38.5518 106.849 39.2655 104.659 39.2655C100.39 39.2655 97.6267 36.5235 97.6267 32.7354C97.6267 28.9474 100.418 26.2265 104.206 26.2265C107.924 26.2265 110.645 28.8272 110.645 32.8061C110.638 33.0464 110.616 33.4068 110.595 33.6895ZM100.581 31.7107H107.804C107.563 29.8732 106.157 28.6082 104.206 28.6082C102.277 28.6152 100.871 29.852 100.581 31.7107Z" fill="#2A3B49"/>
<path d="M123.514 28.8979H119.055V39.103H116.072V28.8979H111.592V26.3678H123.507V28.8979H123.514Z" fill="#2A3B49"/>
<path d="M139.196 32.7425C139.196 36.7002 136.454 39.2726 132.737 39.2726C131.118 39.2726 129.684 38.7214 128.659 37.5553V43.7321H125.677V26.3749H128.511V28.0428C129.514 26.8272 130.991 26.2336 132.73 26.2336C136.454 26.2336 139.196 28.8061 139.196 32.7425ZM136.164 32.7425C136.164 30.3114 134.546 28.7637 132.398 28.7637C130.249 28.7637 128.61 30.3114 128.61 32.7425C128.61 35.1736 130.256 36.7214 132.398 36.7214C134.546 36.7214 136.164 35.1736 136.164 32.7425Z" fill="#2A3B49"/>
<path d="M141.055 32.7425C141.055 28.9262 143.917 26.2336 147.825 26.2336C151.783 26.2336 154.617 28.9262 154.617 32.7425C154.617 36.5588 151.783 39.2726 147.825 39.2726C143.91 39.2726 141.055 36.5517 141.055 32.7425ZM151.613 32.7425C151.613 30.3114 149.995 28.7637 147.825 28.7637C145.677 28.7637 144.059 30.3114 144.059 32.7425C144.059 35.1736 145.677 36.7214 147.825 36.7214C149.988 36.7214 151.613 35.1736 151.613 32.7425Z" fill="#2A3B49"/>
<path d="M170.059 39.103V30.6648L165.769 37.7673H164.483L160.264 30.6365V39.096H157.543V26.3749H160.666L165.197 34.3397L169.939 26.3749H172.73L172.751 39.103H170.059Z" fill="#2A3B49"/>
<path d="M187.296 31.64V39.103H184.483V37.5553C183.769 38.6507 182.384 39.2726 180.476 39.2726C177.564 39.2726 175.734 37.6754 175.734 35.4563C175.734 33.3362 177.161 31.6683 181.027 31.6683H184.32V31.4775C184.32 29.7389 183.274 28.7142 181.147 28.7142C179.72 28.7142 178.243 29.1877 177.289 29.9792L176.122 27.8096C177.479 26.7636 179.458 26.2336 181.508 26.2336C185.176 26.2336 187.296 27.9721 187.296 31.64ZM184.313 35.1242V33.6471H181.239C179.211 33.6471 178.667 34.4104 178.667 35.3362C178.667 36.4104 179.571 37.103 181.098 37.103C182.547 37.103 183.812 36.4316 184.313 35.1242Z" fill="#2A3B49"/>
<path d="M201.07 28.8979H196.611V39.103H193.628V28.8979H189.148V26.3678H201.07V28.8979Z" fill="#2A3B49"/>
<path d="M203.24 26.3749H206.222V34.7637L213.254 26.3749H215.975V39.103H212.992V30.7142L205.982 39.103H203.24V26.3749Z" fill="#2A3B49"/>
<path d="M225.261 34.0005H222.95V39.103H219.968V26.3749H222.95V31.527H225.332L229.099 26.3749H232.293L227.671 32.5022L232.604 39.103H229.099L225.261 34.0005Z" fill="#2A3B49"/>
<path d="M245 31.64V39.103H242.187V37.5553C241.473 38.6507 240.088 39.2726 238.18 39.2726C235.268 39.2726 233.438 37.6754 233.438 35.4563C233.438 33.3362 234.865 31.6683 238.731 31.6683H242.025V31.4775C242.025 29.7389 240.979 28.7142 238.851 28.7142C237.424 28.7142 235.947 29.1877 234.993 29.9792L233.827 27.8096C235.183 26.7636 237.162 26.2336 239.212 26.2336C242.873 26.2336 245 27.9721 245 31.64ZM242.017 35.1242V33.6471H238.943C236.915 33.6471 236.371 34.4104 236.371 35.3362C236.371 36.4104 237.275 37.103 238.802 37.103C240.251 37.103 241.516 36.4316 242.017 35.1242Z" fill="#2A3B49"/>
</svg>
