<svg width="177" height="48" viewBox="0 0 177 48" fill="none" xmlns="http://www.w3.org/2000/svg">
<g clip-path="url(#clip0_236_3980)">
<path d="M6.91047 46.3446C6.68164 46.8731 6.34724 47.2813 5.90729 47.5692C5.46733 47.8564 4.96021 48.0003 4.38517 48.0003C3.58646 48.0003 2.91545 47.7205 2.37142 47.161C1.82738 46.6015 1.55499 45.9201 1.55499 45.1162C1.55499 44.333 1.82959 43.6665 2.3788 43.1173C2.928 42.5681 3.59458 42.2935 4.37778 42.2935C4.96242 42.2935 5.47988 42.4396 5.93017 42.7319C6.38046 43.0243 6.70673 43.4406 6.91047 43.9795H5.83495C5.49391 43.4554 5.00597 43.1933 4.3704 43.1933C3.85663 43.1933 3.42037 43.3837 3.06235 43.7654C2.7036 44.147 2.52422 44.5973 2.52422 45.1155C2.52422 45.644 2.70064 46.1069 3.05423 46.504C3.40782 46.9012 3.8463 47.099 4.3704 47.099C5.00597 47.099 5.48431 46.8473 5.80468 46.3438H6.91121L6.91047 46.3446Z" fill="#222222"/>
<path d="M10.684 43.27H9.58559V47.8932H8.63924V43.27H7.55634V42.4004H10.684V43.27Z" fill="#222222"/>
<path d="M11.5661 47.8932V42.4004H13.0764C13.6662 42.4004 14.1342 42.5325 14.4804 42.7975C14.8621 43.0921 15.0525 43.5246 15.0525 44.0945C15.0525 44.6489 14.8717 45.0763 14.5122 45.376C14.1778 45.6609 13.729 45.8034 13.1672 45.8034H12.5124V47.8939H11.5668L11.5661 47.8932ZM14.0914 44.1056C14.0914 43.5387 13.7445 43.2552 13.0513 43.2552H12.5124V44.9338H13.021C13.3606 44.9338 13.6138 44.8829 13.7799 44.7825C13.9873 44.6504 14.0914 44.4252 14.0914 44.1063V44.1056Z" fill="#222222"/>
<path d="M21.4437 45.1241C21.4437 45.928 21.1713 46.6079 20.6272 47.1652C20.0832 47.7218 19.4115 48.0008 18.6135 48.0008C17.8251 48.0008 17.1549 47.7196 16.6034 47.1578C16.0513 46.596 15.7759 45.9184 15.7759 45.1249C15.7759 44.3468 16.0557 43.6802 16.6152 43.1259C17.1748 42.5715 17.8436 42.2939 18.6216 42.2939C19.4048 42.2939 20.0707 42.57 20.6206 43.1214C21.1698 43.6736 21.4444 44.3409 21.4444 45.1241H21.4437ZM20.4744 45.1086C20.4744 44.6 20.2899 44.1542 19.9215 43.7696C19.5525 43.3857 19.1169 43.1938 18.6128 43.1938C18.1042 43.1938 17.6657 43.3872 17.2966 43.774C16.9275 44.1608 16.7437 44.6103 16.7437 45.1241C16.7437 45.6578 16.9245 46.1207 17.2855 46.5126C17.6465 46.9046 18.0894 47.1002 18.6128 47.1002C19.1568 47.1002 19.6071 46.9016 19.9629 46.5052C20.3039 46.1236 20.4737 45.6586 20.4737 45.1094L20.4744 45.1086Z" fill="#222222"/>
<path d="M26.8043 47.8932H25.858V44.0096L23.3098 47.8932H22.4786V42.4004H23.4242V46.2721L25.9746 42.4004H26.8043V47.8932Z" fill="#222222"/>
<path d="M30.8215 43.27H29.7231V47.8932H28.7775V43.27H27.6938V42.4004H30.8215V43.27Z" fill="#222222"/>
<path d="M34.6032 47.8932H31.7043V42.4004H34.6032V43.2545H32.65V44.6969H34.5951V45.5435H32.65V47.0236H34.6032V47.8932Z" fill="#222222"/>
<path d="M40.0938 47.8932H39.1068L37.6865 43.58L36.2663 47.8932H35.2646L37.1868 42.4004H38.1708L40.0938 47.8932Z" fill="#222222"/>
<path d="M44.2253 46.2146C44.2253 46.794 44.0319 47.2266 43.6451 47.5115C43.3041 47.7655 42.8339 47.8932 42.2337 47.8932H40.7994V42.4004H41.745V44.5367C42.3555 44.5367 42.7778 44.5647 43.0118 44.6208C43.8201 44.8142 44.2246 45.3457 44.2246 46.2153L44.2253 46.2146ZM43.279 46.2109C43.279 45.892 43.1823 45.669 42.9903 45.5421C42.8339 45.4365 42.5888 45.3834 42.2544 45.3834H41.7458V47.0236H42.247C42.935 47.0236 43.279 46.7527 43.279 46.2109Z" fill="#222222"/>
<path d="M50.3411 46.3446C50.1123 46.8731 49.7779 47.2813 49.338 47.5692C48.898 47.8564 48.3909 48.0003 47.8158 48.0003C47.0171 48.0003 46.3461 47.7205 45.8021 47.161C45.258 46.6015 44.9857 45.9201 44.9857 45.1162C44.9857 44.333 45.2603 43.6665 45.8095 43.1173C46.3587 42.5681 47.0252 42.2935 47.8085 42.2935C48.3931 42.2935 48.9105 42.4396 49.3608 42.7319C49.8111 43.0243 50.1374 43.4406 50.3411 43.9795H49.2656C48.9246 43.4554 48.4366 43.1933 47.8011 43.1933C47.2873 43.1933 46.851 43.3837 46.493 43.7654C46.1343 44.147 45.9549 44.5973 45.9549 45.1155C45.9549 45.644 46.1313 46.1069 46.4849 46.504C46.8385 46.9012 47.277 47.099 47.8011 47.099C48.4366 47.099 48.915 46.8473 49.2353 46.3438H50.3419L50.3411 46.3446Z" fill="#222222"/>
<path d="M54.1154 43.27H53.0162V47.8932H52.0706V43.27H50.987V42.4004H54.1154V43.27Z" fill="#222222"/>
<path d="M58.4759 46.2072C58.4759 47.3314 57.8019 47.8932 56.454 47.8932H54.9968V42.4004H56.3927C56.922 42.4004 57.3383 42.5126 57.6439 42.7363C57.9946 42.9902 58.1703 43.3718 58.1703 43.8804C58.1703 44.3536 57.9695 44.7042 57.5679 44.9331C57.8477 45.0194 58.0691 45.1796 58.2315 45.4136C58.3947 45.6476 58.4759 45.9119 58.4759 46.2072ZM57.2246 43.9373C57.2246 43.4922 56.9412 43.27 56.3757 43.27H55.9203V44.6659H56.2473C56.8998 44.6659 57.2254 44.423 57.2254 43.9373H57.2246ZM57.5295 46.2603C57.5295 45.7008 57.2069 45.421 56.561 45.421H55.9203V47.0229H56.5536C57.001 47.0229 57.294 46.9084 57.4313 46.6796C57.4978 46.5726 57.5302 46.4331 57.5302 46.2603H57.5295Z" fill="#222222"/>
<path d="M64.9275 45.1241C64.9275 45.928 64.6551 46.6079 64.1111 47.1652C63.567 47.7218 62.8953 48.0008 62.0973 48.0008C61.3089 48.0008 60.6387 47.7196 60.0873 47.1578C59.5351 46.596 59.2598 45.9184 59.2598 45.1249C59.2598 44.3468 59.5395 43.6802 60.0991 43.1259C60.6586 42.5715 61.3274 42.2939 62.1054 42.2939C62.8886 42.2939 63.5545 42.57 64.1044 43.1214C64.6536 43.6736 64.9282 44.3409 64.9282 45.1241H64.9275ZM63.9583 45.1086C63.9583 44.6 63.7737 44.1542 63.4054 43.7696C63.0363 43.3857 62.6008 43.1938 62.0966 43.1938C61.588 43.1938 61.1495 43.3872 60.7804 43.774C60.4113 44.1608 60.2275 44.6103 60.2275 45.1241C60.2275 45.6578 60.4084 46.1207 60.7693 46.5126C61.1303 46.9046 61.5732 47.1002 62.0966 47.1002C62.6406 47.1002 63.0909 46.9016 63.4467 46.5052C63.7877 46.1236 63.9575 45.6586 63.9575 45.1094L63.9583 45.1086Z" fill="#222222"/>
<path d="M72.2104 47.8932H71.2648V43.2855H69.1971V47.8932H68.2515V42.4004H72.2104V47.8932Z" fill="#222222"/>
<path d="M73.4822 47.8932V42.4004H74.9925C75.5824 42.4004 76.0504 42.5325 76.3966 42.7975C76.7782 43.0921 76.9687 43.5246 76.9687 44.0945C76.9687 44.6489 76.7878 45.0763 76.4283 45.376C76.0939 45.6609 75.6451 45.8034 75.0833 45.8034H74.4286V47.8939H73.483L73.4822 47.8932ZM76.0075 44.1056C76.0075 43.5387 75.6606 43.2552 74.9675 43.2552H74.4286V44.9338H74.9372C75.2767 44.9338 75.5299 44.8829 75.696 44.7825C75.9035 44.6504 76.0075 44.4252 76.0075 44.1063V44.1056Z" fill="#222222"/>
<path d="M83.3591 45.1241C83.3591 45.928 83.0867 46.6079 82.5426 47.1652C81.9986 47.7218 81.3269 48.0008 80.5289 48.0008C79.7405 48.0008 79.0703 47.7196 78.5188 47.1578C77.9667 46.596 77.6913 45.9184 77.6913 45.1249C77.6913 44.3468 77.9711 43.6802 78.5307 43.1259C79.0902 42.5715 79.759 42.2939 80.537 42.2939C81.3202 42.2939 81.9861 42.57 82.536 43.1214C83.0852 43.6736 83.3598 44.3409 83.3598 45.1241H83.3591ZM82.3898 45.1086C82.3898 44.6 82.2053 44.1542 81.837 43.7696C81.4679 43.3857 81.0323 43.1938 80.5282 43.1938C80.0196 43.1938 79.5811 43.3872 79.212 43.774C78.8429 44.1608 78.6591 44.6103 78.6591 45.1241C78.6591 45.6578 78.84 46.1207 79.2009 46.5126C79.5619 46.9046 80.0048 47.1002 80.5282 47.1002C81.0722 47.1002 81.5225 46.9016 81.8783 46.5052C82.2193 46.1236 82.3891 45.6586 82.3891 45.1094L82.3898 45.1086Z" fill="#222222"/>
<path d="M90.0314 47.8932H89.1464V44.5669C89.1464 44.4451 89.1515 44.2569 89.1619 44.0022C89.1722 43.7483 89.1774 43.5549 89.1774 43.4228L89.17 43.4301L87.5526 47.8932H86.8964L85.2717 43.4228L85.2643 43.4301C85.2643 43.5623 85.2695 43.7557 85.2798 44.0096C85.2901 44.2643 85.2953 44.4525 85.2953 44.5743L85.3182 47.8932H84.4028V42.4004H85.7611L87.2256 46.5165L88.6931 42.4004H90.0337V47.8932H90.0314Z" fill="#222222"/>
<path d="M96.0329 47.8932H95.0873V42.4004H96.0329V47.8932ZM94.6827 46.2146C94.6827 46.7844 94.4871 47.214 94.0951 47.5042C93.7497 47.7633 93.2787 47.8932 92.6837 47.8932H91.3107V42.4004H92.2563V44.5367C92.9834 44.5367 93.5356 44.6334 93.9121 44.8268C94.4258 45.091 94.6827 45.5539 94.6827 46.2153V46.2146ZM93.7371 46.2109C93.7371 45.892 93.6404 45.669 93.447 45.5421C93.2891 45.4365 93.0425 45.3834 92.7074 45.3834H92.2571V47.0236H92.7C93.3917 47.0236 93.7379 46.7527 93.7379 46.2109H93.7371Z" fill="#222222"/>
<path d="M103.454 47.8932H97.3121V42.4004H98.2577V47.0236H99.9363V42.4004H100.821V47.0236H102.507V42.4004H103.454V47.8932Z" fill="#222222"/>
<path d="M108.989 47.8932H108.002L106.582 43.58L105.162 47.8932H104.16L106.082 42.4004H107.066L108.989 47.8932Z" fill="#222222"/>
<path d="M112.603 47.8932H109.704V42.4004H112.603V43.2545H110.65V44.6969H112.595V45.5435H110.65V47.0236H112.603V47.8932Z" fill="#222222"/>
<path d="M117.849 47.8932H116.903V45.5509H114.774V47.8932H113.828V42.4004H114.774V44.6659H116.903V42.4004H117.849V47.8932Z" fill="#222222"/>
<path d="M123.141 47.8932H122.195V45.5509H120.066V47.8932H119.12V42.4004H120.066V44.6659H122.195V42.4004H123.141V47.8932Z" fill="#222222"/>
<path d="M129.134 47.8932H128.189V42.4004H129.134V47.8932ZM127.784 46.2146C127.784 46.7844 127.588 47.214 127.197 47.5042C126.851 47.7633 126.38 47.8932 125.785 47.8932H124.412V42.4004H125.358V44.5367C126.085 44.5367 126.637 44.6334 127.013 44.8268C127.527 45.091 127.784 45.5539 127.784 46.2153V46.2146ZM126.839 46.2109C126.839 45.892 126.742 45.669 126.548 45.5421C126.39 45.4365 126.144 45.3834 125.809 45.3834H125.358V47.0236H125.801C126.493 47.0236 126.839 46.7527 126.839 46.2109H126.839Z" fill="#222222"/>
<path d="M134.724 47.8932H133.637L132.325 45.8004L131.02 47.8932H129.933L131.786 45.0778L130.024 42.4004H131.121L132.34 44.3772L133.535 42.4004H134.64L132.878 45.0859L134.724 47.8932Z" fill="#222222"/>
<path d="M143.243 45.1241C143.243 45.928 142.971 46.6079 142.427 47.1652C141.883 47.7218 141.211 48.0008 140.413 48.0008C139.625 48.0008 138.954 47.7196 138.403 47.1578C137.851 46.596 137.575 45.9184 137.575 45.1249C137.575 44.3468 137.855 43.6802 138.415 43.1259C138.974 42.5715 139.643 42.2939 140.421 42.2939C141.204 42.2939 141.87 42.57 142.42 43.1214C142.969 43.6736 143.244 44.3409 143.244 45.1241H143.243ZM142.274 45.1086C142.274 44.6 142.089 44.1542 141.721 43.7696C141.352 43.3857 140.916 43.1938 140.412 43.1938C139.904 43.1938 139.465 43.3872 139.096 43.774C138.727 44.1608 138.543 44.6103 138.543 45.1241C138.543 45.6578 138.724 46.1207 139.085 46.5126C139.446 46.9046 139.889 47.1002 140.412 47.1002C140.956 47.1002 141.406 46.9016 141.762 46.5052C142.103 46.1236 142.273 45.6586 142.273 45.1094L142.274 45.1086Z" fill="#222222"/>
<path d="M147.688 46.2146C147.688 46.7889 147.493 47.2214 147.101 47.5115C146.76 47.7655 146.292 47.8932 145.697 47.8932H144.278V42.4004H147.368V43.27H145.209V44.5367C145.814 44.5367 146.233 44.5647 146.467 44.6208C147.281 44.8194 147.688 45.3509 147.688 46.2153V46.2146ZM146.742 46.2109C146.742 45.892 146.645 45.669 146.453 45.5421C146.297 45.4365 146.052 45.3834 145.717 45.3834H145.208V47.0236H145.709C146.397 47.0236 146.742 46.7527 146.742 46.2109Z" fill="#222222"/>
<path d="M152.743 46.2146C152.743 46.7889 152.548 47.2214 152.156 47.5115C151.815 47.7655 151.345 47.8932 150.744 47.8932H149.317V43.27H148.311V42.4004H150.264V44.5367C150.869 44.5367 151.288 44.5647 151.522 44.6208C152.337 44.8194 152.743 45.3509 152.743 46.2153V46.2146ZM151.798 46.2109C151.798 45.892 151.701 45.669 151.508 45.5421C151.35 45.4365 151.103 45.3834 150.768 45.3834H150.265V47.0236H150.761C151.452 47.0236 151.798 46.7527 151.798 46.2109H151.798Z" fill="#222222"/>
<path d="M156.639 47.8932H153.74V42.4004H156.639V43.2545H154.685V44.6969H156.631V45.5435H154.685V47.0236H156.639V47.8932Z" fill="#222222"/>
<path d="M161.908 42.4004L159.808 45.1228L161.9 47.8932H160.741L158.856 45.2306V47.8932H157.911V42.4004H158.856V45.0475L160.824 42.4004H161.908Z" fill="#222222"/>
<path d="M165.262 43.27H164.164V47.8932H163.217V43.27H162.134V42.4004H165.262V43.27Z" fill="#222222"/>
<path d="M171.233 45.1241C171.233 45.928 170.961 46.6079 170.417 47.1652C169.873 47.7218 169.201 48.0008 168.403 48.0008C167.615 48.0008 166.944 47.7196 166.393 47.1578C165.841 46.596 165.565 45.9184 165.565 45.1249C165.565 44.3468 165.845 43.6802 166.405 43.1259C166.964 42.5715 167.633 42.2939 168.411 42.2939C169.194 42.2939 169.86 42.57 170.41 43.1214C170.959 43.6736 171.234 44.3409 171.234 45.1241H171.233ZM170.264 45.1086C170.264 44.6 170.079 44.1542 169.711 43.7696C169.342 43.3857 168.906 43.1938 168.402 43.1938C167.894 43.1938 167.455 43.3872 167.086 43.774C166.717 44.1608 166.533 44.6103 166.533 45.1241C166.533 45.6578 166.714 46.1207 167.075 46.5126C167.436 46.9046 167.879 47.1002 168.402 47.1002C168.946 47.1002 169.397 46.9016 169.752 46.5052C170.093 46.1236 170.263 45.6586 170.263 45.1094L170.264 45.1086Z" fill="#222222"/>
<path d="M175.755 46.2072C175.755 47.3314 175.081 47.8932 173.733 47.8932H172.276V42.4004H173.671C174.201 42.4004 174.617 42.5126 174.923 42.7363C175.273 42.9902 175.449 43.3718 175.449 43.8804C175.449 44.3536 175.248 44.7042 174.847 44.9331C175.126 45.0194 175.348 45.1796 175.51 45.4136C175.673 45.6476 175.755 45.9119 175.755 46.2072ZM174.503 43.9373C174.503 43.4922 174.22 43.27 173.654 43.27H173.199V44.6659H173.526C174.179 44.6659 174.504 44.423 174.504 43.9373H174.503ZM174.808 46.2603C174.808 45.7008 174.486 45.421 173.84 45.421H173.199V47.0229H173.832C174.28 47.0229 174.573 46.9084 174.71 46.6796C174.776 46.5726 174.809 46.4331 174.809 46.2603H174.808Z" fill="#222222"/>
<path fill-rule="evenodd" clip-rule="evenodd" d="M3.29706 35.5523C5.83417 35.8099 8.50416 35.5707 10.7386 34.9211L10.7202 4.88467L24.3499 4.88172L24.3565 10.0364C23.9306 10.1855 23.6346 10.5878 23.6346 11.0684C23.6346 11.5489 23.9491 11.9631 24.3853 12.107L24.3964 12.1402C24.5293 12.5027 25.2195 12.8437 25.0726 13.3088C25.012 13.5022 24.7308 13.6845 24.4783 13.5568C24.1786 13.404 24.0812 12.8873 23.9062 12.7219C23.8442 12.6636 23.7143 12.5573 23.5837 12.6053C23.5696 12.7042 23.6767 12.8105 23.7173 12.9293C23.8191 13.2312 23.7549 13.6897 24.0974 13.9554C25.0401 14.6891 26.2861 13.4365 25.3686 12.5381C25.1789 12.3528 24.9677 12.2938 24.9375 12.1417C25.4417 12.0443 25.8225 11.5814 25.8225 11.0684C25.8225 10.5554 25.5073 10.1567 25.0571 10.0209V4.88098H30.6643L28.2489 2.9536L26.3865 2.94695L9.05337 0.216435C9.05706 -0.0463559 8.61489 -0.0995047 8.60382 0.223817L4.11939 2.94695H3.65581L3.6536 6.39129C4.47445 5.63392 5.92571 4.68905 8.29009 4.90829L8.29378 15.995L3.29706 21.0545V35.5508V35.5523ZM25.7952 3.28209H27.4126L25.7952 4.53256V3.28209ZM27.8082 4.53699H26.1909L27.8082 3.28652V4.53699ZM28.0998 4.53699H29.7172L28.0998 3.28652V4.53699ZM25.5295 3.28209H23.9121L25.5295 4.53256V3.28209ZM23.5165 4.53699H25.1338L23.5165 3.28652V4.53699ZM21.203 3.28209H22.8204L21.203 4.53256V3.28209ZM23.216 4.53699H21.5987L23.216 3.28652V4.53699ZM20.9366 3.28209H19.3192L20.9366 4.53256V3.28209ZM18.9235 4.53699H20.5409L18.9235 3.28652V4.53699ZM16.602 3.28209H18.2193L16.602 4.53256V3.28209ZM18.615 4.53699H16.9976L18.615 3.28652V4.53699ZM24.5492 4.88098H24.8725V10.0261H24.5492V4.88098ZM8.29452 2.94695L8.60456 0.555997L4.64719 2.94695H8.29452ZM24.6016 2.94695L9.08068 0.502848L10.7246 2.95065L24.6016 2.94695Z" fill="#222222"/>
<path fill-rule="evenodd" clip-rule="evenodd" d="M26.6803 30.7071C29.4012 30.5602 32.5326 31.4194 34.5603 32.2919C34.5965 31.9701 34.829 27.5012 33.659 27.5012L33.6369 24.2524C33.7985 24.2753 34.3758 24.7072 34.4452 24.1616C34.4924 23.7926 34.2636 23.7999 33.7506 23.5992L31.5338 22.737C31.4799 22.2431 31.0606 21.8585 30.552 21.8585C30.307 21.8585 30.0833 21.9479 29.9113 22.0947L28.6239 21.5965L28.5656 19.8758C28.4925 19.5429 28.1943 19.7112 27.9906 19.9599C27.1195 21.0237 26.7106 21.9434 26.8228 23.6294L26.8235 28.0651H26.6818V30.7078L26.6803 30.7071ZM28.7967 28.0688H27.1431V27.152L27.1549 23.7926C27.1549 23.6944 27.3144 23.6715 27.4 23.5593L28.4497 22.2697L29.8456 22.7857C29.8574 23.143 29.9829 23.3821 30.1837 23.5084L28.7959 28.0688H28.7967ZM32.8854 28.0688L32.351 28.0703L30.9964 23.5364L31.2002 23.3268L33.3807 24.1646L33.4132 27.5012C33.2375 27.4798 32.9725 27.6134 32.8854 28.0688Z" fill="#222222"/>
<path fill-rule="evenodd" clip-rule="evenodd" d="M0.000366211 35.5995C2.68217 36.9947 5.04507 38.0591 8.67912 38.6357C16.8234 39.9267 21.0237 35.6549 27.2775 33.8796C32.2632 32.4638 34.2097 33.6648 37.2082 35.0481C28.0327 27.7601 17.772 34.1276 10.0529 36.0018C7.56521 36.6057 4.74611 36.8367 2.16839 36.2595C1.42062 36.0919 0.570239 35.6852 0.000366211 35.6003L0.000366211 35.5995Z" fill="#222222"/>
<path fill-rule="evenodd" clip-rule="evenodd" d="M20.5629 38.0089C28.3138 36.475 30.9388 36.1391 39.0403 37.5438C37.0619 35.3094 34.1432 34.0382 30.0817 34.3246C26.8928 34.5107 23.2639 36.4454 20.5629 38.0089Z" fill="#222222"/>
<path fill-rule="evenodd" clip-rule="evenodd" d="M20.9742 31.6168C22.145 31.2905 23.408 31.0263 24.8053 30.8565V22.8901C24.8053 21.9076 24.0554 21.0919 23.0994 20.9863V15.4957C23.0728 15.1709 22.9023 14.9679 22.5421 14.9251H19.4299V11.3442V11.2896H19.4226C19.3303 10.9375 18.3522 10.6437 17.0213 10.5374V9.20499C17.0213 8.94516 16.8087 8.7333 16.5496 8.7333C16.2897 8.7333 16.0779 8.94589 16.0779 9.20499V10.4961L15.9214 10.4953L15.7649 10.4961V7.46437C15.7649 7.20453 15.5523 6.99268 15.2932 6.99268C15.0334 6.99268 14.8215 7.20453 14.8215 7.46437V10.5381C13.4913 10.6444 12.5125 10.9382 12.4202 11.2903H12.4128V11.345V17.1648C12.0364 17.2356 11.7499 17.5671 11.7499 17.9635C11.7499 18.3591 12.0364 18.6913 12.4128 18.7622V23.6401C12.0364 23.7109 11.7499 24.0424 11.7499 24.4388C11.7499 24.8344 12.0364 25.1666 12.4128 25.2375V30.1154C12.0364 30.1862 11.7499 30.5177 11.7499 30.9141C11.7499 31.3097 12.0364 31.6419 12.4128 31.7128V34.3791C15.0038 33.4563 17.3276 32.679 19.4314 32.0361V31.7201C19.8293 31.6685 20.1386 31.326 20.1386 30.9141C20.1386 30.5022 19.8293 30.1604 19.4314 30.108V25.2441C19.8293 25.1924 20.1386 24.8499 20.1386 24.438C20.1386 24.0261 19.8293 23.6843 19.4314 23.6319V18.7681C19.8293 18.7164 20.1386 18.3739 20.1386 17.962C20.1386 17.5501 19.8293 17.2083 19.4314 17.1559V15.3437H22.1863C22.4624 15.3784 22.6425 15.5267 22.6816 15.8419V20.9848C21.7257 21.0904 20.9757 21.9068 20.9757 22.8886V31.6146L20.9742 31.6168Z" fill="#222222"/>
<path d="M45.6603 8.57031V37.4567H54.5487V17.1819C54.5487 16.9398 54.5081 16.6297 54.4277 16.2459C54.2394 15.3844 54.145 14.9393 54.145 14.9127C54.145 14.7245 54.2262 14.63 54.3871 14.63C54.4949 14.63 54.6159 14.7651 54.751 15.0338C54.8861 15.3032 55.0337 15.6125 55.1954 15.9632L66.2651 37.4567H73.5369L83.799 15.9705C83.9068 15.7011 84.0412 15.4117 84.2028 15.0951C84.3645 14.785 84.4988 14.6307 84.6066 14.6307C84.7683 14.6307 84.8487 14.7385 84.8487 14.9541C84.8487 15.0618 84.7815 15.3785 84.6465 15.8901C84.5114 16.4016 84.4442 16.8394 84.4442 17.19V37.4574H93.3326V8.57105H78.1822L70.5871 24.7718C70.4255 25.8223 70.2978 26.6638 70.2033 27.2971C70.1088 27.9305 70.0077 28.2464 69.9006 28.2464C69.7655 28.2464 69.6378 27.7149 69.5168 26.6505C69.3957 25.5868 69.2946 24.9601 69.2134 24.7718L61.6183 8.57105H45.6596L45.6603 8.57031Z" fill="#222222"/>
<path d="M101.454 8.44947H123.19C127.93 8.44947 131.054 9.0282 132.562 10.1864C134.448 11.6207 135.39 14.6841 135.39 19.3774C135.39 24.0435 134.461 27.0944 132.603 28.5279C131.068 29.7127 127.93 30.3054 123.19 30.3054H110.342V37.3757H101.454V8.44873V8.44947ZM110.342 22.8321H123.19C124.24 22.8321 125.034 22.6033 125.573 22.1382C126.22 21.5994 126.542 20.6774 126.542 19.3774C126.542 18.1048 126.219 17.1821 125.573 16.6167C125.034 16.1524 124.24 15.9228 123.19 15.9228H110.342V22.8314V22.8321Z" fill="#222222"/>
<path d="M158.904 8.08619C167.146 8.08619 172.223 8.77343 174.135 10.1464C175.805 11.3312 176.64 14.4825 176.64 19.6003H167.711C167.711 17.9305 167.266 16.8668 166.377 16.4084C165.273 15.843 162.782 15.5602 158.903 15.5602C154.567 15.5602 152.022 15.8968 151.268 16.5701C150.513 17.2433 150.137 19.3714 150.137 22.9531C150.137 26.5082 150.514 28.6223 151.268 29.2962C152.022 29.9695 154.567 30.3061 158.903 30.3061C162.836 30.3061 165.294 30.0706 166.276 29.5989C167.26 29.1279 167.751 28.0162 167.751 26.266H176.64C176.64 31.4104 175.831 34.5617 174.215 35.7199C172.303 37.0936 167.199 37.7801 158.903 37.7801C150.608 37.7801 145.591 37.0257 143.854 35.5176C142.117 34.0095 141.248 29.8078 141.248 22.9125C141.248 16.0445 142.083 11.8834 143.753 10.4284C145.558 8.86644 150.608 8.08545 158.903 8.08545L158.904 8.08619Z" fill="#222222"/>
</g>
<defs>
<clipPath id="clip0_236_3980">
<rect width="176.64" height="48" fill="white"/>
</clipPath>
</defs>
</svg>
