<svg xmlns="http://www.w3.org/2000/svg" viewBox="0 0 157 40">
        <path d="M33.5317 10.4313L34.7765 8.62739L36.0213 10.5097C36.1769 10.745 36.4103 11.0588 36.5659 11.3725C37.4217 11.5294 38.2775 11.7646 39.1333 12.0784C38.7443 10.5882 38.1997 9.25484 37.6551 7.99994C36.7215 7.84308 35.7101 7.76465 34.7765 7.76465C34.2319 7.76465 33.6873 7.76465 33.2205 7.84308H31.9757C31.3533 9.17641 30.8865 10.5882 30.4197 12.1568C31.1977 11.8431 32.0535 11.6078 32.9871 11.4509C33.2205 10.9803 33.3761 10.6666 33.5317 10.4313ZM41.6229 9.17641C42.1675 10.745 42.6343 12.4705 42.9455 14.2745C45.5907 16.549 47.2245 19.9215 47.2245 23.6862C47.2245 30.5882 41.7007 36.1568 34.8543 36.1568C28.0079 36.1568 22.4841 30.5882 22.4841 23.6862C22.4841 19.9215 24.1179 16.549 26.7631 14.2745C27.1521 11.9215 27.8523 9.72543 28.6303 7.76465H5.29037H5.21257C2.25618 7.84308 -0.0778133 10.3529 0.0777863 13.3333C0.233386 16.3137 2.72298 18.6666 5.67937 18.5097C5.75717 18.5097 5.83497 18.5097 5.91277 18.5097C6.14617 21.5686 8.71356 23.9999 11.8256 23.8431C12.059 23.8431 12.2924 23.8431 12.5258 23.7646C12.7592 27.2941 15.7155 30.0392 19.2165 29.8823C19.5277 29.8823 19.8389 29.8039 20.1501 29.7254C22.5619 35.5294 28.2413 39.6078 34.7765 39.6078C43.5679 39.6078 50.6477 32.4705 50.6477 23.6078C50.7255 17.2548 46.9911 11.6862 41.6229 9.17641Z"
              fill="#fff" />
        <path d="M15.171 36.3136L15.0932 36.1568H14.9376C10.7364 35.3724 8.79138 33.4117 7.54658 30.1175L7.46878 29.9607H7.31318C3.26759 29.3332 1.556 27.5293 0.0777998 23.9999L0 23.7646V28.9411V31.2156C0 35.9215 3.73439 39.6862 8.40238 39.6862H16.338C16.338 39.6862 16.338 39.6862 16.2602 39.6862H17.4272C16.2602 38.6666 15.6378 37.4901 15.171 36.3136ZM18.3608 32.4705L18.283 32.3136H18.1274C13.9262 31.5293 11.9812 29.5685 10.7364 26.2744L10.6586 26.1175H10.503C6.45738 25.4901 5.29039 24.5489 3.81219 21.0195L3.73439 20.8626H3.57879C1.945 20.5489 0.855798 19.6077 0 18.5881V22.1175C0.544599 22.5097 1.2448 22.9019 2.10059 23.0587C3.42319 26.3528 4.97919 27.5293 8.94698 28.3921C10.5808 31.9999 12.7592 33.7254 16.6492 34.5881C17.505 36.7842 18.9832 38.6666 20.9281 39.6862H25.3627C22.3285 38.5097 19.45 35.294 18.3608 32.4705Z"
              fill="#fff" />
        <path d="M81.223 39.6862V21.098L75.1546 33.1764H71.0312L64.885 21.098V39.6862H58.7388V7.76465H64.8072L73.054 25.0196L81.3008 7.76465H87.3692V39.6862H81.223Z" fill="#fff" />
        <path d="M102.073 22.0392C103.474 22.0392 104.563 21.647 105.419 20.8627C106.275 20.0784 106.664 19.0588 106.664 17.647C106.664 16.3137 106.275 15.2156 105.419 14.4313C104.563 13.647 103.474 13.2548 102.073 13.2548H96.3162V21.9607H102.073V22.0392ZM102.385 7.76465C103.863 7.76465 105.263 7.99994 106.586 8.47053C107.908 8.94112 108.998 9.647 109.931 10.5097C110.865 11.3725 111.565 12.4705 112.11 13.647C112.654 14.8235 112.888 16.1568 112.888 17.647C112.888 19.1372 112.654 20.4705 112.11 21.647C111.565 22.8235 110.865 23.9215 109.931 24.7843C108.998 25.647 107.908 26.3529 106.664 26.8235C105.419 27.2941 103.941 27.5294 102.462 27.5294H96.394V39.5294H90.2478V7.76465H102.385Z"
              fill="#fff" />
        <path d="M128.136 13.3333V39.6862H121.99V13.3333H113.666V7.76465H136.383V13.3333H128.136Z" fill="#fff" />
        <path d="M155.911 37.3334C155.6 37.6471 155.288 37.8824 154.977 38.0393C154.666 38.2746 154.355 38.4314 154.044 38.5883C153.732 38.7452 153.421 38.902 153.032 39.0589C151.632 39.6079 150.076 39.9216 148.442 39.9216C144.941 39.9216 142.062 38.7452 139.806 36.3922C139.028 35.6079 138.406 34.7452 138.017 33.804C137.55 32.8628 137.239 31.9216 137.083 30.8236C136.928 29.804 136.772 28.6275 136.772 27.4511C136.772 26.2746 136.694 25.0197 136.694 23.6079V22.2746C136.694 20.706 136.772 19.2942 136.85 18.1177C136.928 16.9412 137.083 15.9216 137.317 15.0589C137.55 14.1962 137.861 13.4118 138.25 12.7844C138.639 12.0785 139.184 11.4511 139.806 10.8236C142.062 8.47066 144.941 7.29419 148.364 7.29419C150.154 7.29419 151.71 7.60791 153.032 8.15693C153.421 8.3138 153.732 8.47066 154.044 8.62752C154.355 8.78439 154.666 8.94125 154.977 9.17654C155.288 9.41184 155.6 9.64713 155.911 9.88242C156.222 10.1962 156.611 10.5099 157.078 10.902L152.954 15.0589C152.099 14.1962 151.321 13.5687 150.698 13.255C149.998 12.9412 149.22 12.7844 148.286 12.7844C146.653 12.7844 145.33 13.3334 144.319 14.4314C143.93 14.902 143.618 15.4511 143.463 16.0001C143.229 16.6275 143.074 17.255 142.996 17.9609C142.918 18.6667 142.84 19.4511 142.84 20.1569C142.84 20.9412 142.84 21.7256 142.84 22.4314V24.1569C142.84 25.4118 142.84 26.5099 142.918 27.3726C142.996 28.2354 143.074 29.0197 143.152 29.6471C143.307 30.2746 143.463 30.8236 143.618 31.2158C143.852 31.6079 144.085 32.0001 144.396 32.3922C145.408 33.4903 146.73 34.0393 148.364 34.0393C148.831 34.0393 149.298 34.0393 149.687 33.9609C150.076 33.8824 150.465 33.7256 150.776 33.5687C151.165 33.4118 151.476 33.1765 151.865 32.8628C152.254 32.5491 152.643 32.2354 153.032 31.8432L157.156 36.0001C156.611 36.706 156.222 37.0197 155.911 37.3334Z"
              fill="#fff" />
        <path d="M34.8543 21.7256C34.2319 22.5099 30.8087 27.3726 32.9871 32.3138C34.0763 34.7452 34.6987 35.5295 34.8543 35.6864C34.9321 35.5295 35.6323 34.8236 36.7215 32.3138C38.8999 27.4511 35.3989 22.5099 34.8543 21.7256Z" fill="#fff" />
        <path d="M36.9549 34.4314C47.6135 18.8235 38.0441 4 34.8543 0.0784314V0V0.0784314C31.6645 4 22.0951 18.902 32.7537 34.5098C32.4425 33.8824 32.4425 33.8039 32.1313 33.0196C27.8523 23.5294 32.8315 14.2745 34.8543 11.3725C36.8771 14.3529 41.8563 23.5294 37.5773 33.0196C37.1883 33.8039 37.1883 33.8039 36.9549 34.4314Z"
              fill="#fff" />
    </svg>