<svg width="196" height="56" viewBox="0 0 196 56" fill="none" xmlns="http://www.w3.org/2000/svg">
<g clip-path="url(#clip0_1819_61620)">
<g clip-path="url(#clip1_1819_61620)">
<path d="M20.7018 4.81873L64.7999 28.8211L51.2226 51.1476L7.10515 27.2171L20.7018 4.81873ZM19.8857 0.854248C19.6137 0.854248 19.3465 0.993101 19.1959 1.23729L3.11699 27.5906C3.00527 27.7725 2.97126 27.9928 3.02955 28.2034C3.08785 28.4093 3.22386 28.5865 3.41817 28.6918L51.6598 55.0451C51.7813 55.1121 51.9173 55.1456 52.0485 55.1456C52.3205 55.1456 52.5877 55.0068 52.7382 54.7626L68.8172 28.4093C68.9726 28.0981 68.9289 27.5762 68.516 27.3129L20.2743 0.954797C20.1529 0.887764 20.0169 0.854248 19.8857 0.854248Z" fill="url(#paint0_linear_1819_61620)"/>
<path d="M19.8853 55.1456C19.6035 55.1456 19.3363 55.002 19.1858 54.7578L3.11653 28.4333C2.96594 28.1843 2.96109 27.8778 3.10682 27.6241C3.25255 27.3703 3.52458 27.2171 3.81604 27.2171H19.074V1.71609C19.074 1.27081 19.4384 0.854248 19.8901 0.854248C20.3419 0.854248 20.7062 1.27081 20.7062 1.71609V27.2171H51.2416V1.65864C51.2416 1.29953 51.4845 0.983525 51.8343 0.887764C52.184 0.787216 52.558 0.935644 52.7524 1.24208C52.7912 1.30911 57.0174 7.7873 60.9716 14.299C68.9042 27.3607 68.9042 27.6337 68.9042 28.0311C68.9042 28.462 68.4961 28.8259 68.0346 28.8259H52.8689L52.8495 54.2503C52.8495 54.6956 52.5046 55.1456 52.0529 55.1456C51.6011 55.1456 51.2173 54.6956 51.2173 54.2503L51.2368 28.8259H20.7014V54.3412C20.7014 54.7004 20.4585 55.0211 20.1039 55.1169C20.031 55.1361 19.9581 55.1456 19.8853 55.1456ZM5.25391 28.8259L19.074 51.4445V28.8259H5.25391ZM52.8689 27.2171H66.9076C64.9306 23.7937 58.1347 12.9823 52.8689 4.50272V27.2171Z" fill="url(#paint1_linear_1819_61620)"/>
<path d="M91.3612 26.3218H83.2197V20.6384H80.5674V35.601H83.2197V28.7924H91.3612V35.601H94.0183V20.6384H91.3612V26.3218Z" fill="#3C3C3B"/>
<path d="M104.837 20.356C100.338 20.356 96.8457 23.7411 96.8457 28.0982C96.8457 32.4553 100.338 35.8596 104.837 35.8596C109.335 35.8596 112.808 32.4744 112.808 28.0982C112.808 23.7219 109.315 20.356 104.837 20.356ZM104.837 33.432C101.82 33.432 99.5029 31.0955 99.5029 28.103C99.5029 25.1105 101.82 22.7931 104.837 22.7931C107.853 22.7931 110.151 25.1296 110.151 28.103C110.151 31.0763 107.834 33.432 104.837 33.432Z" fill="#3C3C3B"/>
<path d="M167.19 20.356C162.692 20.356 159.199 23.7219 159.199 28.0982C159.199 32.4744 162.692 35.8596 167.19 35.8596C171.688 35.8596 175.162 32.4744 175.162 28.0982C175.162 23.7219 171.669 20.356 167.19 20.356ZM167.19 33.432C164.173 33.432 161.856 31.0955 161.856 28.103C161.856 25.1105 164.173 22.7931 167.19 22.7931C170.207 22.7931 172.504 25.1296 172.504 28.103C172.504 31.0763 170.187 33.432 167.19 33.432Z" fill="#3C3C3B"/>
<path d="M158.936 20.6384H155.575L149.789 27.04V20.6384H147.132V35.601H149.789V28.6775L155.75 35.601H159.238L152.461 27.7486L158.936 20.6384Z" fill="#3C3C3B"/>
<path d="M124.684 27.5284C125.714 26.8629 126.297 25.7664 126.297 24.4353C126.297 22.2089 124.684 20.6384 122.047 20.6384H115.576V35.601H121.969C124.927 35.601 126.768 33.8055 126.768 31.2439C126.768 29.5968 126.01 28.2705 124.679 27.5284H124.684ZM118.156 23.0516H121.702C122.994 23.0516 123.674 23.7075 123.674 24.6987C123.674 25.6898 122.989 26.3841 121.702 26.3841L118.156 26.3649V23.0564V23.0516ZM121.609 33.1687H118.156V28.7541H121.609C123.242 28.7541 124.135 29.616 124.135 30.9614C124.135 32.3068 123.242 33.1687 121.609 33.1687Z" fill="#3C3C3B"/>
<path d="M190.832 20.6384L185.732 27.7822L180.646 20.6528V20.6384H177.989V35.601H180.646V24.8615L185.732 32.0626L190.832 24.8088V35.601H193.49V20.6384H190.832Z" fill="#3C3C3B"/>
<path d="M132.371 31.67V20.6384H129.713V35.601H132.371L140.701 24.5646V35.601H143.359V20.6384H140.701L132.371 31.67Z" fill="#3C3C3B"/>
</g>
</g>
<defs>
<linearGradient id="paint0_linear_1819_61620" x1="35.9501" y1="55.1456" x2="35.9501" y2="0.854248" gradientUnits="userSpaceOnUse">
<stop offset="0.26" stop-color="#675096"/>
<stop offset="1" stop-color="#56276B"/>
</linearGradient>
<linearGradient id="paint1_linear_1819_61620" x1="50.9647" y1="55.8016" x2="21.6338" y2="-0.15777" gradientUnits="userSpaceOnUse">
<stop offset="0.18" stop-color="#675096"/>
<stop offset="0.28" stop-color="#56276B"/>
</linearGradient>
<clipPath id="clip0_1819_61620">
<rect width="196" height="56" fill="white"/>
</clipPath>
<clipPath id="clip1_1819_61620">
<rect width="192" height="54.2914" fill="white" transform="translate(3 0.854248)"/>
</clipPath>
</defs>
</svg>
