<svg xmlns="http://www.w3.org/2000/svg" xml:space="preserve" id="Слой_1" x="0" y="0" style="enable-background:new 0 0 255.1181183 46.1837158" version="1.1" viewBox="0 0 255.118 46.184">
  <style>
    .st1{fill-rule:evenodd;clip-rule:evenodd}
  </style>
  <path d="M52.368 46.184 0 0v46.184h52.368" style="fill-rule:evenodd;clip-rule:evenodd;fill:#1f61ac"/>
  <path d="M7.495 38.69h7.494V18.827c.087-.035 7.207 17.877 8.009 19.86l7.494.001V.417h-7.494v19.865c-.07-.052-7.103-17.646-8.009-19.86L7.495.417v38.272zm27.19 0h17.548v-5.974H42.2V.416h-7.517V38.69zM67.222 8.093h5.973v8.37h8.369v-8.37h5.972v22.92h-5.972v-9.168h-8.37v9.167h-5.972V8.093zm165.012 11.46c0-6.91 5.64-11.876 12.398-11.876 4.49 0 8.35 2.16 10.486 6.145l-4.55 3.092c-1.48-2.5-3.472-3.75-5.972-3.75-3.789 0-6.25 2.689-6.25 6.423 0 3.731 2.488 6.356 6.25 6.356 2.5 0 4.492-1.25 5.972-3.752l4.55 3.091c-2.147 4.008-6.012 6.147-10.522 6.147-6.69 0-12.362-4.926-12.362-11.876zm-6.528 11.46-8.716-11.426v11.425h-5.973V8.093h5.973v10.383l7.57-10.383h6.945l-7.882 10.904 9.167 12.015h-7.084zM190.98 8.092h15.903v5.383h-9.93v3.16h7.083v5h-7.084v3.994h10.348v5.382h-16.32V8.093zm-4.584 0v22.92h-5.972V13.475h-5.106c0 4.7-.3 8.357-.903 10.973-.601 2.617-1.447 4.433-2.534 5.452-1.088 1.019-2.466 1.528-4.133 1.528-.787 0-1.574-.14-2.36-.417v-5.07c.185.047.497.07.937.07.787 0 1.418-.41 1.893-1.233.473-.822.833-2.187 1.076-4.097.243-1.91.365-4.498.365-7.762V8.093h16.737zM151.881 31.43c-6.726 0-12.328-5.009-12.328-11.876 0-6.854 5.607-11.876 12.328-11.876 6.711 0 12.396 5.011 12.396 11.876 0 6.875-5.677 11.876-12.396 11.876zm6.285-11.876c0-3.678-2.532-6.39-6.25-6.39-3.768 0-6.251 2.665-6.251 6.39 0 3.769 2.438 6.39 6.25 6.39 3.674 0 6.251-2.66 6.251-6.39zm-20.66 4.653c0 4.333-3.7 6.806-7.746 6.806h-10.695V8.093h8.266c4.051 0 7.743 2.418 7.743 6.772 0 1.528-.463 2.813-1.388 3.855 2.414.975 3.82 2.85 3.82 5.486zm-12.711-11.077v4.027h2.153c1.266 0 2.293-.656 2.293-2.013 0-1.357-1.027-2.014-2.293-2.014h-2.153zm6.876 10.834c0-1.431-.96-2.014-2.292-2.014h-4.584v4.028h4.584c1.333 0 2.292-.587 2.292-2.014zm-28.405 7.466c-6.725 0-12.327-5.01-12.327-11.876 0-6.854 5.606-11.876 12.327-11.876 6.71 0 12.396 5.013 12.396 11.876 0 6.873-5.678 11.876-12.396 11.876zm6.285-11.876c0-3.677-2.532-6.39-6.25-6.39-3.768 0-6.251 2.665-6.251 6.39 0 3.769 2.438 6.39 6.25 6.39 3.674 0 6.251-2.66 6.251-6.39z" class="st1"/>
</svg>
