<svg xmlns="http://www.w3.org/2000/svg" xmlns:xlink="http://www.w3.org/1999/xlink" viewBox="0 0 507.36 230.79"><defs><style>.cls-1{fill:#3c3c3b;}.cls-2{fill:#11559b;}.cls-3{fill:url(#Безымянный_градиент_24);}.cls-4{fill:url(#Безымянный_градиент_5);}.cls-5{fill:url(#Безымянный_градиент_5-2);}.cls-6{fill:url(#linear-gradient);}.cls-7{fill:url(#Безымянный_градиент_5-3);}.cls-8{fill:url(#Безымянный_градиент_5-4);}.cls-9{fill:url(#linear-gradient-2);}</style><radialGradient id="Безымянный_градиент_24" cx="-5840.48" cy="727.98" r="326.89" gradientTransform="matrix(0.1, 0, 0, 0.1, 716.1, 26.72)" gradientUnits="userSpaceOnUse"><stop offset="0" stop-color="#4a96d2"/><stop offset="1" stop-color="#1f2466"/></radialGradient><linearGradient id="Безымянный_градиент_5" x1="993.17" y1="460.25" x2="1094.04" y2="417.3" gradientTransform="translate(-293.66 -1019.96) rotate(45)" xlink:href="#Безымянный_градиент_24"/><linearGradient id="Безымянный_градиент_5-2" x1="1523.58" y1="151.64" x2="1624.45" y2="108.68" gradientTransform="translate(-501.92 1629.25) rotate(-75)" xlink:href="#Безымянный_градиент_24"/><linearGradient id="linear-gradient" x1="1413.23" y1="698.57" x2="1514.11" y2="655.62" gradientTransform="translate(1770.89 449.82) rotate(165)" xlink:href="#Безымянный_градиент_24"/><linearGradient id="Безымянный_градиент_5-3" x1="42.48" y1="85.61" x2="88.19" y2="15.46" gradientTransform="matrix(1, 0, 0, 1, 0, 0)" xlink:href="#Безымянный_градиент_24"/><linearGradient id="Безымянный_градиент_5-4" x1="128.97" y1="185.65" x2="46.96" y2="194.01" gradientTransform="matrix(1, 0, 0, 1, 0, 0)" xlink:href="#Безымянный_градиент_24"/><linearGradient id="linear-gradient-2" x1="181.77" y1="67.03" x2="198.49" y2="151.42" gradientTransform="matrix(1, 0, 0, 1, 0, 0)" xlink:href="#Безымянный_градиент_24"/></defs><title>Ресурс 1логотип рус</title><g id="Слой_2" data-name="Слой 2"><g id="Layer_1" data-name="Layer 1"><path class="cls-1" d="M320,102.45a16.58,16.58,0,0,1-6.58-1.25,14,14,0,0,1-5-3.58,15.79,15.79,0,0,1-3.17-5.67,23.94,23.94,0,0,1-1.1-7.5,22.94,22.94,0,0,1,1.15-7.53,16.43,16.43,0,0,1,3.23-5.65,14,14,0,0,1,5-3.58,15.88,15.88,0,0,1,6.35-1.25,16.77,16.77,0,0,1,6.88,1.33,13.92,13.92,0,0,1,5,3.7,16.17,16.17,0,0,1,3.07,5.7,24.06,24.06,0,0,1,1.05,7.28,23.33,23.33,0,0,1-1.2,7.83,16,16,0,0,1-3.3,5.63,13.61,13.61,0,0,1-5,3.4A17.08,17.08,0,0,1,320,102.45Zm.45-4.2a9.47,9.47,0,0,0,7.78-3.47q2.82-3.47,2.82-10.33a21.86,21.86,0,0,0-.77-6.2,11.69,11.69,0,0,0-2.23-4.3,8.67,8.67,0,0,0-3.52-2.5,12.92,12.92,0,0,0-4.67-.8,10.88,10.88,0,0,0-4.3.85A9.24,9.24,0,0,0,312.14,74a12.55,12.55,0,0,0-2.3,4.3,19.67,19.67,0,0,0-.85,6.1,20,20,0,0,0,.83,6,12.05,12.05,0,0,0,2.33,4.33,9.32,9.32,0,0,0,3.63,2.58A12.6,12.6,0,0,0,320.49,98.25Z"/><path class="cls-1" d="M377.34,109.75h-4.5v-7.8H348.39v-35h4.5v30.8h16V66.95h4.5v30.8h4Z"/><path class="cls-1" d="M404.92,96.15q-1.53-2.45-2.58-4.23T400.59,89a9.93,9.93,0,0,0-1.33-1.75,3.56,3.56,0,0,0-1.35-.87,5.48,5.48,0,0,0-1.78-.25h-3.3v15.8h-4.5v-35h4.5v15.9h3l12.35-15.9h5.75L400.44,83A4.49,4.49,0,0,1,403,84.47a22.33,22.33,0,0,1,2.5,3.45q1.4,2.28,3.48,5.75t5.48,8.28h-5.7Q406.44,98.6,404.92,96.15Z"/><path class="cls-1" d="M445.49,101a13.78,13.78,0,0,1-3.4,1.08,22.54,22.54,0,0,1-4.25.38,20.52,20.52,0,0,1-7.33-1.22A15,15,0,0,1,425,97.7a15.53,15.53,0,0,1-3.45-5.53,20.74,20.74,0,0,1-1.2-7.27,24,24,0,0,1,1.2-7.9A15.72,15.72,0,0,1,425,71.2a14.49,14.49,0,0,1,5.43-3.55,19.88,19.88,0,0,1,7.07-1.2,22.84,22.84,0,0,1,4.88.42,21.44,21.44,0,0,1,3.13.92l-.85,4a17.1,17.1,0,0,0-3.35-.85,23,23,0,0,0-3.35-.25q-6.25,0-9.52,3.5t-3.28,10.3a17.14,17.14,0,0,0,.93,5.83,12.09,12.09,0,0,0,2.63,4.35,11,11,0,0,0,4.15,2.7,15.61,15.61,0,0,0,5.55.92,18.82,18.82,0,0,0,3.33-.3,11,11,0,0,0,3-1Z"/><rect class="cls-1" x="266.32" y="18.89" width="2.4" height="193.36"/><path class="cls-2" d="M307.8,167.51h-3.6v-28h8.25a17,17,0,0,1,4.31.5,8.77,8.77,0,0,1,3.26,1.58,7,7,0,0,1,2.08,2.72,9.7,9.7,0,0,1,.72,3.92,8.11,8.11,0,0,1-2.82,6.67q-2.82,2.3-7.87,2.3H307.8Zm0-13.7h4.33a8.17,8.17,0,0,0,5.11-1.36,5,5,0,0,0,1.74-4.17,4.83,4.83,0,0,0-1.74-4.17,8.56,8.56,0,0,0-5.11-1.28H307.8Z"/><path class="cls-2" d="M343.12,167.91a13.27,13.27,0,0,1-5.27-1,11.18,11.18,0,0,1-4-2.86,12.64,12.64,0,0,1-2.54-4.55,19.17,19.17,0,0,1-.88-6,18.36,18.36,0,0,1,.92-6,13.17,13.17,0,0,1,2.58-4.53,11.22,11.22,0,0,1,4-2.86,12.71,12.71,0,0,1,5.09-1,13.44,13.44,0,0,1,5.51,1.06,11.16,11.16,0,0,1,4,3,13,13,0,0,1,2.46,4.56,19.27,19.27,0,0,1,.84,5.83,18.68,18.68,0,0,1-1,6.27,12.8,12.8,0,0,1-2.64,4.51,10.91,10.91,0,0,1-4,2.72A13.69,13.69,0,0,1,343.12,167.91Zm.36-3.36a7.59,7.59,0,0,0,6.23-2.78Q352,159,352,153.5a17.49,17.49,0,0,0-.62-5,9.34,9.34,0,0,0-1.78-3.44,6.94,6.94,0,0,0-2.82-2,10.33,10.33,0,0,0-3.74-.64,8.72,8.72,0,0,0-3.44.68,7.41,7.41,0,0,0-2.76,2,10,10,0,0,0-1.84,3.45,15.73,15.73,0,0,0-.68,4.88,16.06,16.06,0,0,0,.66,4.85,9.68,9.68,0,0,0,1.86,3.46,7.47,7.47,0,0,0,2.9,2.06A10.09,10.09,0,0,0,343.48,164.55Z"/><path class="cls-2" d="M384.33,166.75a11,11,0,0,1-2.72.86,18,18,0,0,1-3.4.3,16.44,16.44,0,0,1-5.87-1,12,12,0,0,1-4.39-2.82,12.42,12.42,0,0,1-2.76-4.43,16.6,16.6,0,0,1-1-5.83,19.19,19.19,0,0,1,1-6.33,12.56,12.56,0,0,1,2.76-4.65,11.59,11.59,0,0,1,4.34-2.84,15.93,15.93,0,0,1,5.67-1,18.28,18.28,0,0,1,3.9.34,17,17,0,0,1,2.5.74l-.68,3.16a13.73,13.73,0,0,0-2.68-.68,18.48,18.48,0,0,0-2.68-.2q-5,0-7.63,2.8t-2.62,8.25a13.75,13.75,0,0,0,.74,4.67,9.68,9.68,0,0,0,2.1,3.48,8.85,8.85,0,0,0,3.32,2.16,12.52,12.52,0,0,0,4.45.74,15.09,15.09,0,0,0,2.66-.24,8.8,8.8,0,0,0,2.38-.76Z"/><path class="cls-2" d="M409.52,160h-12l-2.72,7.49h-3.64l10.69-28h3.6l10.49,28H412.2Zm-10.81-3.28h9.65l-4.69-13.17h-.16Z"/><path class="cls-2" d="M430.66,167.51h-3.6V142.84h-8.29v-3.36H439v3.36h-8.29Z"/><path class="cls-2" d="M457.66,167.91a13.27,13.27,0,0,1-5.27-1,11.18,11.18,0,0,1-4-2.86,12.64,12.64,0,0,1-2.54-4.55,19.17,19.17,0,0,1-.88-6,18.36,18.36,0,0,1,.92-6,13.17,13.17,0,0,1,2.58-4.53,11.23,11.23,0,0,1,4-2.86,12.71,12.71,0,0,1,5.09-1,13.44,13.44,0,0,1,5.51,1.06,11.16,11.16,0,0,1,4,3,13,13,0,0,1,2.46,4.56,19.27,19.27,0,0,1,.84,5.83,18.68,18.68,0,0,1-1,6.27,12.8,12.8,0,0,1-2.64,4.51,10.91,10.91,0,0,1-4,2.72A13.69,13.69,0,0,1,457.66,167.91Zm.36-3.36a7.59,7.59,0,0,0,6.23-2.78q2.26-2.78,2.26-8.27a17.49,17.49,0,0,0-.62-5,9.34,9.34,0,0,0-1.78-3.44,6.94,6.94,0,0,0-2.82-2,10.33,10.33,0,0,0-3.74-.64,8.72,8.72,0,0,0-3.44.68,7.42,7.42,0,0,0-2.76,2,10,10,0,0,0-1.84,3.45,15.73,15.73,0,0,0-.68,4.88,16.06,16.06,0,0,0,.66,4.85,9.68,9.68,0,0,0,1.86,3.46,7.48,7.48,0,0,0,2.9,2.06A10.09,10.09,0,0,0,458,164.55Z"/><path class="cls-2" d="M507.36,167.51h-3.6L502,145.61l-7.09,21.91h-3.76l-7-21.83-1.76,21.83h-3.61l2.4-28h4.4l7.57,24.11,7.41-24.11H505Z"/><path class="cls-3" d="M134.26,131.84a24.2,24.2,0,1,1-1.71-34.22A24.11,24.11,0,0,1,134.26,131.84Z"/><path class="cls-4" d="M122.63,32.69a82.48,82.48,0,0,1,5.6,6.06A95.19,95.19,0,0,1,142.5,61.84,74.78,74.78,0,0,0,159.9,63l1,0,.94-.09c12-1.08,27.5-5.66,41.7-19.9.49-.49,1-1,1.46-1.52-2.2-2.62-4.46-5.21-6.92-7.68A115.76,115.76,0,0,0,47.12,23C82.69,5.75,107.33,17.64,122.63,32.69Z"/><path class="cls-5" d="M40.71,150.22c.71-2.75,1.54-5.39,2.45-7.88A95.25,95.25,0,0,1,56,118.43a74.43,74.43,0,0,0-7.66-15.67c-.19-.29-.35-.58-.55-.87l-.55-.77C40.34,91.3,28.6,80.14,9.17,75c-.67-.18-1.36-.34-2-.5C6,77.67,4.84,80.93,3.93,84.29A115.77,115.77,0,0,0,70.05,220.46C37.35,198.28,35.33,171,40.71,150.22Z"/><path class="cls-6" d="M183.73,162.53c-2.74.76-5.44,1.36-8,1.82a95.31,95.31,0,0,1-27.13.81,74.74,74.74,0,0,0-9.74,14.47c-.15.31-.32.6-.47.92s-.25.57-.39.86c-5.05,10.9-8.84,26.65-3.61,46.07.18.66.39,1.35.59,2,3.37-.59,6.74-1.26,10.11-2.16A115.75,115.75,0,0,0,229.88,102C227,141.41,204.42,156.81,183.73,162.53Z"/><path class="cls-7" d="M47.12,23S22,38.71,8.9,70.27a69.17,69.17,0,0,1,51.51,46.58c3.19-2,13-9.77,19.57-31.09C87.93,60,103,41,122.63,32.69,122.63,32.69,97.82-2.68,47.12,23Z"/><path class="cls-8" d="M126.68,208.55c0-13.07,3.62-30.36,18.13-46.65l.16-.25c-2.37-2.53-10.66-8.77-32-3.91-26.3,6-55.31,5.3-72.28-7.53,0,0-18.22,39.18,29.35,70.25,0,0,26.14,13.86,60,9.47A66,66,0,0,1,126.68,208.55Z"/><path class="cls-9" d="M208.06,45.26a68.35,68.35,0,0,1-51.19,23.19,74.93,74.93,0,0,1-15.21-1.59l-.25-.06c-1,3.59-1.79,13.76,12.7,29.37,18.33,19.78,32.24,45.26,29.62,66.36,0,0,43-3.81,46.16-60.54C229.88,102,228.82,72.4,208.06,45.26Z"/></g></g></svg>