<svg width="260" height="42" viewBox="0 0 260 42" fill="none" xmlns="http://www.w3.org/2000/svg">
<path d="M253.1 29.1533H259.8V30.4547L259.7 31.6632L259.6 32.7787L259.4 33.7083L259.2 34.1731L259.1 34.6379L258.9 35.0097L258.7 35.3816L258.5 35.7534L258.3 36.0323L258.1 36.3112L257.8 36.59L257.5 36.776L257.2 37.0548L256.8 37.2408L256.5 37.4267L256.1 37.6126L255.7 37.7985L255.2 37.8915L254.7 38.0774L253.6 38.2633L252.4 38.4492L251.1 38.5422L249.7 38.6351H237.2L235.8 38.5422L234.5 38.4492L233.4 38.2633L232.3 38.0774L231.8 37.8915L231.3 37.7985L230.9 37.6126L230.5 37.4267L230.1 37.2408L229.8 37.0548L229.5 36.8689L229.2 36.59L228.8 36.1252L228.6 35.8464L228.3 35.4745L228.1 35.1027L227.9 34.7309L227.7 34.359L227.6 33.8942L227.4 33.4294L227.2 32.4999L227 31.3843L226.9 30.1759V28.8744V21.3448V19.9504L227 18.6489L227.1 18.0912L227.2 17.5334L227.3 17.0686L227.5 16.5109L227.6 16.0461L227.8 15.5813L228 15.2095L228.3 14.8376L228.5 14.4658L228.8 14.1869L229.1 13.8151L229.4 13.5362L229.7 13.2573L230 13.0714L230.3 12.7925L230.7 12.6066L231.2 12.4207L231.6 12.2348L232.1 12.0489L232.6 11.8629L233.2 11.77L233.8 11.677L234.4 11.5841L235.1 11.4911L236.5 11.3981L238 11.3052H249.2L250.5 11.3981L251.7 11.4911L252.8 11.5841L253.8 11.77L254.7 12.0489L255.5 12.3277L255.9 12.5136L256.2 12.6996L256.6 12.8855L256.9 13.0714L257.3 13.3503L257.6 13.7221L257.9 14.094L258.2 14.3728L258.4 14.7447L258.7 15.1165L258.9 15.5813L259.1 16.0461L259.3 16.5109L259.4 16.9757L259.5 17.5334L259.6 18.0912L259.7 18.6489L259.8 19.2067V19.8574V20.5081H253.1V20.0433L253 19.5785L252.9 19.2067L252.7 18.7419L252.5 18.3701L252.3 18.0912L252 17.8123L251.7 17.5334L251.3 17.3475L250.9 17.1616L250.5 16.9757L250 16.7898L249.4 16.6968L248.8 16.6038H248.2H247.5H238.9H238.1H237.4L236.7 16.6968L236.1 16.7898L235.6 16.9757L235.1 17.1616L234.7 17.3475L234.4 17.6264L234.2 17.9053L234 18.1841L233.8 18.556L233.7 19.0208L233.6 19.4856L233.5 20.1363V20.787V21.5307V28.1308V28.8744L233.6 29.5252L233.7 30.0829L233.8 30.6407L234 31.1055L234.2 31.4773L234.4 31.8491L234.7 32.128L235 32.3139L235.4 32.4999L235.9 32.6858L236.4 32.7787L237 32.8717L237.6 32.9646H238.3H239H247.6H248.4H249.1L249.7 32.8717L250.2 32.7787L250.7 32.6858L251.1 32.5928L251.4 32.4999L251.7 32.3139L252 32.128L252.3 31.8491L252.5 31.4773L252.7 31.1055L252.9 30.7336L253 30.2688L253.1 29.7111V29.1533ZM205.4 22.4603H216.2V21.2518V20.5081V19.8574L216.1 19.2997L216 18.7419L215.8 18.3701L215.6 17.9982L215.4 17.7193L215.2 17.5334L214.9 17.3475L214.5 17.1616L214.1 16.9757L213.6 16.8827L212.9 16.7898L212.3 16.6968H211.6H210.8H202.1H201.5H200.8L200.2 16.7898L199.7 16.8827L199.2 17.0686L198.7 17.2546L198.3 17.4405L198 17.6264L197.7 17.9053L197.5 18.1841L197.3 18.556L197.1 18.9278L197 19.2997L196.9 19.6715L196.8 20.1363V20.6011H190.1V19.9504L190.2 19.3926V18.7419L190.3 18.1841L190.4 17.6264L190.5 17.0686L190.7 16.6038L190.9 16.139L191.1 15.6743L191.3 15.2095L191.6 14.8376L191.9 14.4658L192.2 14.094L192.5 13.7221L192.9 13.4432L193.2 13.1644L193.5 12.8855L193.9 12.6996L194.3 12.5136L194.7 12.3277L195.6 12.0489L196.5 11.77L197.6 11.5841L198.7 11.4911L200 11.3981L201.3 11.3052H212.4L213.9 11.3981L215.3 11.4911L216.6 11.677L217.7 11.8629L218.2 11.9559L218.7 12.1418L219.1 12.3277L219.5 12.5136L219.9 12.6996L220.3 12.8855L220.7 13.0714L221 13.3503L221.3 13.6292L221.6 13.908L221.8 14.1869L222 14.5587L222.2 14.9306L222.4 15.3024L222.6 15.6743L222.7 16.139L222.9 16.6038L223 17.1616L223.1 17.7193L223.2 18.2771L223.3 19.4856L223.4 20.88V28.6885L223.3 29.9899L223.2 31.1984L223 32.3139L222.8 33.2435L222.7 33.7083L222.5 34.1731L222.3 34.5449L222.1 34.9168L221.9 35.2886L221.7 35.6605L221.4 35.9393L221.1 36.2182L220.8 36.4971L220.5 36.683L220.1 36.8689L219.7 37.0548L219.3 37.2408L218.8 37.4267L218.3 37.5196L217.8 37.6126L216.7 37.8915L215.5 38.0774L214.2 38.1703L212.8 38.2633H200.3L198.8 38.1703L197.5 38.0774L196.3 37.8915L195.2 37.7056L194.7 37.5196L194.3 37.4267L193.9 37.2408L193.5 37.0548L193.1 36.8689L192.8 36.683L192.5 36.4971L192.2 36.2182L192 35.9393L191.8 35.6605L191.6 35.2886L191.4 34.9168L191.2 34.5449L191.1 34.1731L190.9 33.7083L190.8 33.2435L190.6 32.3139L190.5 31.1984L190.4 29.9899L190.3 28.6885H197V29.2463L197.1 29.804L197.2 30.2688L197.3 30.6407L197.5 31.0125L197.7 31.3843L197.9 31.6632L198.2 31.8491L198.5 32.0351L198.9 32.221L199.3 32.4069L199.8 32.4999L200.3 32.5928L200.9 32.6858H201.6H202.3H210.9H211.6H212.3L212.9 32.5928L213.5 32.4999L214 32.4069L214.4 32.221L214.8 32.0351L215.1 31.8491L215.4 31.5703L215.7 31.1984L216 30.8266L216.2 30.3618L216.3 29.804L216.4 29.2463L216.5 28.5956V27.8519V26.8293H205.7V22.4603H205.4ZM164.6 16.8827V25.0631H175.8H176.4H176.9L177.4 24.9702L177.8 24.8772L178.2 24.6913L178.6 24.5983L178.9 24.4124L179.2 24.2265L179.4 23.9476L179.6 23.6687L179.8 23.3899L179.9 23.018L180 22.6462L180.1 22.1814L180.2 21.7166V21.1588V20.694L180.1 20.2292V19.7644L180 19.3926L179.8 19.0208L179.7 18.7419L179.5 18.463L179.3 18.1841L179 17.9053L178.7 17.7193L178.3 17.5334L177.9 17.3475L177.4 17.2546L176.9 17.1616H176.3L175.7 17.0686H164.6V16.8827ZM164.6 30.4547V38.3563H157.8L157.9 16.8827V16.4179L158 15.9531L158.1 15.4883L158.3 15.0235L158.6 14.5587L158.9 14.094L159.3 13.6292L159.7 13.2573L160.2 12.9784L160.7 12.6066L161.2 12.3277L161.8 12.0489L162.4 11.8629L163 11.77L163.8 11.677H164.5H177L178.2 11.77L179.4 11.8629L180.5 12.0489L181.5 12.3277L181.9 12.5136L182.3 12.6996L182.7 12.8855L183.1 13.0714L183.4 13.2573L183.8 13.4432L184.1 13.7221L184.4 14.001L184.7 14.2799L185 14.5587L185.2 14.9306L185.4 15.3024L185.6 15.6743L185.8 16.0461L185.9 16.4179L186.1 16.8827L186.3 17.8123L186.5 18.8349L186.6 19.9504V21.1588V22.3673L186.5 23.4828L186.3 24.5054L186.1 25.435L185.9 25.8998L185.8 26.2716L185.6 26.7364L185.4 27.1082L185.2 27.3871L185 27.7589L184.7 28.0378L184.4 28.3167L184.1 28.5956L183.8 28.8744L183.4 29.0604L183.1 29.2463L182.7 29.4322L182.3 29.6181L181.9 29.804L181.4 29.9899L181 30.0829L180.5 30.2688L180 30.3618L179.5 30.4547L178.3 30.5477L177 30.6407H164.6V30.4547ZM136.2 11.5841H153.6V16.8827H136.2V38.3563H129.5V16.9757L129.6 16.325L129.7 15.6743L129.9 15.1165L130.1 14.5587L130.4 14.094L130.7 13.6292L131.1 13.2573L131.5 12.8855L131.9 12.6066L132.4 12.3277L132.9 12.0489L133.5 11.8629L134.1 11.677L134.8 11.5841H135.5H136.2ZM103.7 16.8827V25.0631H114.9H115.5H116L116.5 24.9702L116.9 24.8772L117.3 24.6913L117.7 24.5983L118 24.4124L118.3 24.2265L118.5 23.9476L118.7 23.6687L118.9 23.3899L119 23.018L119.1 22.6462L119.2 22.1814L119.3 21.7166V21.1588V20.694L119.2 20.2292L119.1 19.7644L119 19.3926L118.9 19.0208L118.7 18.7419L118.6 18.463L118.4 18.1841L118.1 17.9053L117.8 17.5334L117.4 17.3475L117 17.1616L116.5 17.0686L116 16.9757H115.4L114.8 16.8827H103.7ZM103.7 30.4547V38.3563H97L97.1 16.9757H97V16.232L97.1 15.5813L97.2 14.9306L97.4 14.3728L97.7 13.908L98 13.4432L98.4 12.9784L98.8 12.6066L99.2 12.3277L99.7 12.0489L100.3 11.8629L100.9 11.677L101.6 11.5841L102.3 11.4911L103.1 11.3981H103.9H116.3L117.6 11.4911L118.8 11.5841L119.9 11.77L120.9 12.0489L121.4 12.2348L121.8 12.4207L122.2 12.6066L122.6 12.7925L123 12.9784L123.4 13.1644L123.7 13.4432L124 13.7221L124.3 14.001L124.5 14.2799L124.8 14.6517L125 15.0235L125.2 15.3954L125.4 15.7672L125.6 16.139L125.8 16.6038L126.1 17.5334L126.3 18.556L126.4 19.6715L126.5 20.88L126.4 22.0884L126.3 23.2039L126.1 24.2265L125.8 25.1561L125.6 25.6209L125.4 25.9927L125.2 26.4575L125 26.8293L124.8 27.1082L124.5 27.4801L124.3 27.7589L124 28.0378L123.7 28.3167L123.4 28.5956L123 28.7815L122.6 28.9674L122.2 29.1533L121.8 29.3392L121.4 29.5252L120.9 29.7111L120.4 29.804L119.9 29.9899L119.4 30.0829L118.9 30.1759L117.7 30.2688L116.4 30.3618H103.7V30.4547ZM92.7 29.2463V30.5477L92.6 31.6632L92.4 32.6858L92.2 33.6154L92 34.0802L91.9 34.452L91.7 34.8238L91.5 35.1957L91.3 35.5675L91.1 35.9393L90.8 36.1252L90.5 36.4041L90.2 36.683L89.9 36.8689L89.5 37.0548L89.1 37.2408L88.7 37.4267L88.3 37.6126L87.8 37.7056L87.3 37.8915L86.2 38.0774L85 38.2633L83.7 38.3563L82.3 38.4492H69.9L68.6 38.3563L67.3 38.2633L66.2 38.0774L65.1 37.7985L64.7 37.7056L64.2 37.5196L63.8 37.3337L63.4 37.1478L63 36.9619L62.6 36.776L62.2 36.4971L61.9 36.2182L61.6 35.9393L61.3 35.6605L61 35.2886L60.8 35.0097L60.6 34.6379L60.4 34.2661L60.2 33.8013L60.1 33.3365L60 32.8717L59.9 32.4069L59.8 31.9421L59.7 31.3843L59.6 30.2688L59.5 29.0604V20.694L59.6 19.3926L59.7 18.1841L59.8 17.6264L59.9 17.0686L60 16.6038L60.1 16.139L60.3 15.6743L60.5 15.2095L60.7 14.8376L60.9 14.4658L61.1 14.094L61.3 13.8151L61.6 13.5362L61.9 13.2573L62.2 12.9784L62.5 12.7925L62.8 12.5136L63.2 12.3277L63.6 12.1418L64.1 11.9559L64.6 11.8629L65.1 11.677L66.2 11.4911L67.4 11.3052L68.7 11.2122L70.1 11.1193H82.5L83.8 11.2122L85 11.3052L86.1 11.4911L87.1 11.677L87.5 11.77L88 11.8629L88.4 12.0489L88.8 12.2348L89.1 12.4207L89.5 12.6066L89.8 12.7925L90.1 12.9784L90.4 13.2573L90.7 13.5362L91 13.908L91.3 14.2799L91.5 14.6517L91.7 15.1165L91.9 15.4883L92.1 15.9531L92.2 16.4179L92.3 16.9757L92.4 17.5334L92.5 18.0912L92.7 19.2997V20.6011V29.2463ZM66.6 28.5956V29.2463V29.804L66.7 30.3618L66.9 30.8266L67 31.1984L67.2 31.5703L67.4 31.9421L67.7 32.221L68 32.4069L68.4 32.5928L68.8 32.6858L69.3 32.7787L69.9 32.8717L70.6 32.9646H71.3H72H80.9H81.7H82.4L83 32.8717L83.6 32.7787L84.1 32.6858L84.5 32.4999L84.9 32.3139L85.2 32.128L85.4 31.8491L85.6 31.4773L85.8 31.1055L85.9 30.7336L86 30.2688L86.1 29.7111V29.1533L86.2 28.5026V21.3448L86.1 20.694V20.0433L86 19.4856L85.9 18.9278L85.7 18.463L85.5 18.0912L85.3 17.8123L85 17.5334L84.7 17.3475L84.3 17.1616L83.8 16.9757L83.3 16.8827L82.7 16.7898L82.1 16.6968H81.4H80.6H71.9H71.1H70.4L69.8 16.7898L69.3 16.8827L68.8 16.9757L68.4 17.1616L68 17.3475L67.7 17.5334L67.5 17.8123L67.3 18.1841L67.1 18.556L67 19.0208L66.8 19.4856L66.7 20.0433V20.6011V21.2518V28.5956H66.6Z" fill="white"/>
<path d="M26.1 8.60934H31.5V23.7617L38.9 20.5081L37 24.9701L36.5 24.8772L35.9 24.6913L35.4 24.5983L34.9 24.4124L34.3 24.3194L33.8 24.2265L33.3 24.1335L32.8 24.0405L32.3 23.9476H31.8L31.3 23.8546H30.8L30.2 23.7617H29.8H29.3H28.8H28.3H27.8L27.3 23.8546H26.8H26.3L25.8 24.0405L25.3 24.1335H24.8L24.3 24.2265L23.8 24.3194L23.3 24.4124L22.8 24.5983L22.3 24.6913L21.8 24.7842L21.3 24.9701L20.8 25.0631L18.8 20.6011L26.2 23.8546V8.60934H26.1ZM15.3 36.4971L16 35.7534L16.7 35.1027L17.4 34.452L18.1 33.8942L18.9 33.3365L19.7 32.8717L20.5 32.4069L21.4 32.035L22.3 31.6632L23.2 31.3843L24.1 31.1054L25 30.9195L25.9 30.7336L26.8 30.6406L27.8 30.5477H28.8H29.7L30.7 30.6406L31.6 30.7336L32.5 30.9195L33.4 31.1054L34.3 31.3843L35.2 31.6632L36.1 32.035L36.9 32.4069L37.7 32.8717L38.5 33.3365L39.3 33.8942L40 34.452L40.8 35.1027L41.5 35.7534L42.1 36.4971L57.3 3.86843L39.9 11.77V8.7023H42.8L35.5 0.986694L28.8 8.2375L21.9 0.986694L14.6 8.7023H17.5V11.77L0 3.86843L15.3 36.4971ZM41.3 41.9817H32.3L32.2 41.7028L32 41.4239L31.9 41.145L31.7 40.9591L31.5 40.7732L31.3 40.5873L31.1 40.4014L30.9 40.2154L30.7 40.1225L30.4 40.0295L30.1 39.9366L29.8 39.8436L29.5 39.7506H29.3H29L28.7 39.6577L28.4 39.7506H28.1H27.8L27.6 39.8436L27.3 39.9366L27.1 40.0295L26.9 40.1225L26.6 40.3084L26.4 40.4014L26.2 40.5873L26 40.7732L25.8 40.9591L25.6 41.145L25.5 41.4239L25.3 41.7028L25.2 41.9817H16.2L16.3 40.8661L16.5 39.7506L16.9 38.821L17.3 37.8914L17.9 37.1478L18.5 36.3111L19.3 35.6604L20.1 35.0097L21 34.5449L22 34.0801L23 33.6153L24 33.3365L25.1 33.0576L26.2 32.8717L27.3 32.7787L28.5 32.6857L29.6 32.7787L30.7 32.8717L31.9 33.0576L33 33.3365L34.1 33.6153L35.1 33.9872L36.1 34.452L37 35.0097L37.8 35.6604L38.6 36.3111L39.3 37.0548L39.9 37.8914L40.3 38.821L40.6 39.7506L40.9 40.7732L41.3 41.9817Z" fill="white"/>
</svg>
