<?xml version="1.0" encoding="UTF-8"?>
<svg id="_Слой_1" data-name="Слой 1" xmlns="http://www.w3.org/2000/svg" viewBox="0 0 184 82.31" width="184px" height="110px" version="1.1">
  <defs>
    <style>
      .cls-1 {
        fill: #2c5edd;
      }
    </style>
  </defs>
  <path class="cls-1" d="M60.69,47.98v-16.73h15.08v16.73h-4.13v-13.25h-6.82v13.25h-4.13Z"/>
  <path class="cls-1" d="M97.09,54.29v-23.04h3.85v2.46c.42-.77,1.09-1.42,2-2,.9-.56,2.04-.86,3.43-.86,2.23,0,3.97.7,5.22,2.06,1.25,1.37,1.88,3.43,1.88,6.19v.63c0,1.9-.28,3.5-.86,4.78s-1.39,2.23-2.44,2.85-2.32.95-3.78.95c-1.14,0-2.13-.26-3.02-.74-.88-.49-1.58-1.14-2.13-1.95v8.61h-4.15v.05ZM105.4,44.82c1.09,0,2.02-.42,2.74-1.25.74-.84,1.11-2.09,1.11-3.8v-.63c0-1.58-.35-2.76-1.07-3.55-.7-.79-1.65-1.18-2.78-1.18-.79,0-1.51.16-2.13.46-.63.3-1.11.77-1.48,1.35-.35.6-.53,1.37-.53,2.3v1.9c0,1,.16,1.81.51,2.48.35.67.84,1.16,1.46,1.46.63.3,1.35.46,2.18.46Z"/>
  <path class="cls-1" d="M140.66,48.35c-1.53,0-2.92-.32-4.15-.95-1.23-.65-2.23-1.6-2.95-2.88-.72-1.28-1.09-2.85-1.09-4.76v-.63c0-1.81.37-3.32,1.14-4.55.77-1.23,1.76-2.13,2.99-2.78,1.23-.63,2.6-.95,4.06-.95,1.58,0,2.92.26,4.01.79,1.09.53,1.95,1.25,2.53,2.18.6.93.95,1.95,1.02,3.06h-4.22c-.16-.77-.51-1.37-1.02-1.81s-1.3-.67-2.32-.67c-.72,0-1.37.16-1.97.51-.6.35-1.09.86-1.46,1.55s-.56,1.58-.56,2.69v.63c0,1.18.16,2.13.51,2.88.35.74.81,1.3,1.42,1.65.6.35,1.28.51,2.04.51.81,0,1.53-.21,2.13-.65.6-.44,1-1.04,1.21-1.86h4.22c-.12,1.21-.53,2.25-1.21,3.18-.67.93-1.55,1.62-2.67,2.11-1.07.51-2.3.74-3.67.74Z"/>
  <path class="cls-1" d="M67.28,76.37c-1.39,0-2.62-.23-3.71-.72s-1.97-1.18-2.64-2.11-1.07-2-1.21-3.18h4.22c.21.79.63,1.42,1.21,1.86.6.44,1.3.65,2.13.65,1.14,0,2.02-.3,2.69-.9.65-.6,1.04-1.48,1.23-2.83h-5.85v-2.9h5.85c-.16-1.21-.6-2.3-1.28-2.88s-1.55-.86-2.62-.86-1.81.23-2.32.67c-.51.46-.86,1.07-1.02,1.81h-4.22c.09-1.11.42-2.13,1.02-3.06s1.46-1.65,2.55-2.18c1.11-.53,2.44-.79,3.99-.79s2.99.32,4.22.95c1.23.63,2.2,1.55,2.92,2.78.7,1.23,1.07,2.74,1.07,4.55v.63c0,1.9-.35,3.48-1.02,4.76s-1.62,2.23-2.85,2.88c-1.25.58-2.69.88-4.36.88Z"/>
  <path class="cls-1" d="M78.18,76.37c-.16,0-.37,0-.63-.02-.26,0-.46-.05-.63-.07v-3.74c.07.02.23.02.46.02.56,0,1-.23,1.35-.67.35-.44.6-1.23.77-2.34.16-1.11.26-2.64.26-4.57v-5.68h13.25v16.73h-4.15v-13.25h-5.24v2.81c0,2.16-.12,3.94-.32,5.36-.23,1.42-.56,2.51-1.02,3.29-.46.79-1.02,1.35-1.69,1.65-.67.35-1.46.49-2.39.49Z"/>
  <path class="cls-1" d="M104.12,76.37c-1.51,0-2.9-.3-4.18-.93s-2.3-1.58-3.04-2.83c-.77-1.28-1.14-2.88-1.14-4.8v-.63c0-1.86.37-3.39,1.09-4.62s1.69-2.13,2.92-2.74c1.23-.6,2.58-.9,4.04-.9,2.62,0,4.62.7,5.99,2.09,1.37,1.39,2.04,3.39,2.04,6.03v1.76h-11.83c.05,1,.26,1.79.65,2.41.39.63.88,1.07,1.51,1.35.6.28,1.25.42,1.95.42,1.07,0,1.88-.16,2.44-.46.56-.32.93-.79,1.16-1.39h3.83c-.35,1.74-1.16,3.06-2.48,3.94-1.35.86-2.99,1.3-4.94,1.3ZM103.96,62.32c-.65,0-1.28.12-1.9.32-.6.21-1.09.58-1.46,1.11-.35.53-.56,1.25-.6,2.13h7.8c-.02-.95-.21-1.67-.56-2.2-.35-.51-.81-.88-1.37-1.07-.56-.21-1.18-.3-1.9-.3Z"/>
  <path class="cls-1" d="M137.11,76v-13.25h-5.34v-3.48h14.8v3.48h-5.29v13.25h-4.18Z"/>
  <path class="cls-1" d="M148.83,82.31v-23.04h3.85v2.46c.42-.77,1.09-1.42,2-2,.9-.56,2.04-.86,3.43-.86,2.23,0,3.97.7,5.22,2.06s1.88,3.43,1.88,6.19v.63c0,1.9-.28,3.5-.86,4.78s-1.39,2.23-2.44,2.85c-1.04.63-2.32.95-3.78.95-1.14,0-2.13-.26-3.02-.74-.88-.49-1.58-1.14-2.13-1.95v8.61h-4.15v.05ZM157.11,72.85c1.09,0,2.02-.42,2.74-1.25.74-.84,1.11-2.09,1.11-3.8v-.63c0-1.58-.35-2.76-1.07-3.55-.7-.79-1.62-1.18-2.78-1.18-.79,0-1.51.16-2.13.46-.63.3-1.11.77-1.48,1.35-.35.6-.53,1.37-.53,2.3v1.9c0,1,.16,1.81.51,2.48s.84,1.16,1.46,1.46c.65.3,1.37.46,2.18.46Z"/>
  <path class="cls-1" d="M175.65,76.37c-1.51,0-2.9-.3-4.18-.93s-2.3-1.58-3.04-2.83c-.77-1.28-1.14-2.88-1.14-4.8v-.63c0-1.83.37-3.36,1.14-4.57.77-1.23,1.76-2.13,3.04-2.76,1.28-.63,2.67-.93,4.18-.93s2.9.3,4.18.93c1.28.63,2.3,1.53,3.04,2.76.77,1.23,1.14,2.74,1.14,4.57v.63c0,1.9-.37,3.48-1.14,4.76s-1.76,2.23-3.04,2.88c-1.28.63-2.67.93-4.18.93ZM175.65,72.85c.79,0,1.51-.19,2.13-.56s1.11-.93,1.46-1.69c.35-.77.53-1.69.53-2.81v-.63c0-1.02-.19-1.9-.53-2.58-.35-.7-.86-1.23-1.46-1.6-.63-.37-1.32-.56-2.13-.56s-1.51.19-2.13.56c-.63.37-1.11.9-1.46,1.6s-.53,1.55-.53,2.58v.63c0,1.14.19,2.09.53,2.83.35.74.84,1.3,1.46,1.67.63.37,1.32.56,2.13.56Z"/>
  <path class="cls-1" d="M37.12,30.62L43.08,0l-4.04,3.92c-5.96,5.82-12.57,14.64-18.7,24.55C8.75,30.9,0,41.23,0,53.55c0,14.11,11.51,25.64,25.61,25.64s25.64-11.51,25.64-25.64c.02-10.02-5.75-18.7-14.13-22.92ZM40.28,5.17l-4.8,24.68-6.73,34.43-21.83-5.43c.26-.63.49-1.28.77-1.9.09-.19.16-.37.23-.56.19-.46.37-.9.58-1.37.09-.21.16-.39.26-.6.21-.44.39-.88.58-1.32.09-.21.19-.39.26-.58.21-.46.39-.9.6-1.37.09-.16.16-.35.23-.51.23-.49.44-.95.67-1.44.07-.16.14-.3.21-.46.23-.49.49-1,.72-1.48.07-.14.14-.28.21-.39.26-.53.51-1.04.77-1.58.05-.12.12-.21.16-.32.28-.53.56-1.09.84-1.62.05-.09.09-.19.14-.26.28-.58.58-1.14.88-1.69.02-.07.07-.12.09-.19.3-.58.63-1.18.93-1.76.02-.05.05-.09.07-.14.32-.6.65-1.21,1-1.81.02-.02.02-.05.05-.09.35-.6.7-1.23,1.04-1.86,0,0,0-.02.02-.02.35-.63.72-1.25,1.07-1.88,1.09-1.88,2.23-3.74,3.36-5.54,5.82-9.28,12.04-17.45,17.63-22.92ZM30.69,69.46l-25.66-4.48,22.71.6,7.26.19-4.32,3.69Z"/>
  <path class="cls-1" d="M130.38,59.3h-4.5l-4.06,6.66h-3.04v-6.66h-4.13v16.7h4.13v-6.68h3.04l4.06,6.68h4.5l-4.87-8.35,4.87-8.35Z"/>
  <path class="cls-1" d="M92.8,33.55c-.58-.93-1.42-1.62-2.48-2.04-1.07-.42-2.3-.63-3.74-.63s-2.74.23-3.76.67c-1.04.46-1.83,1.07-2.39,1.83-.56.77-.86,1.62-.93,2.6h4.15c.07-.49.3-.88.72-1.21.42-.32,1.11-.49,2.04-.49,1.07,0,1.86.23,2.34.67.49.44.74,1.21.74,2.3v.79h-4.99c-2,0-3.5.42-4.5,1.25-1,.84-1.51,2.11-1.51,3.78,0,1.02.23,1.9.67,2.71.44.79,1.09,1.42,1.93,1.88.84.44,1.86.67,3.06.67,1.46,0,2.64-.26,3.6-.77.95-.51,1.65-1.09,2.09-1.76v2.13h3.83v-10.67c.02-1.53-.28-2.81-.88-3.74ZM89.53,41.67c0,.79-.19,1.46-.58,1.97-.39.51-.9.9-1.51,1.14-.63.23-1.28.37-1.95.37-.88,0-1.55-.21-2.02-.6-.46-.39-.7-.93-.7-1.6,0-.63.23-1.14.67-1.51.44-.37,1.07-.56,1.88-.56h4.2v.79Z"/>
  <path class="cls-1" d="M127.41,31.25l-3.06,12.76h-1.95c-.3,0-.58-.21-.65-.51l-2.92-12.25h-4.25l3.48,14.04c.39,1.58,1.81,2.69,3.43,2.69h1.88l-.23,1c-.26,1.02-1.16,1.74-2.2,1.74h-2.27l-.86,3.57h3.64c2.67,0,4.99-1.83,5.64-4.41l4.57-18.63h-4.25Z"/>
</svg>