<svg xmlns="http://www.w3.org/2000/svg" version="1.1" viewBox="0 0 520 115">
  <!-- Generator: Adobe Illustrator 30.2.1, SVG Export Plug-In . SVG Version: 2.1.1 Build 1)  -->
  <g transform="translate(-92 -68)" fill="#e65f0d">
  <g>
    <path d="M217.48,148.76c-.79,0-1.53-.09-2.22-.27s-1.3-.47-1.84-.87c-.53-.39-.97-.9-1.31-1.51-.34-.61-.56-1.35-.65-2.23h2.72c.11.82.45,1.46,1,1.93.56.47,1.32.71,2.29.71.42,0,.84-.07,1.25-.21.41-.14.79-.38,1.14-.72.35-.34.64-.79.88-1.36.23-.57.38-1.28.43-2.14h-5.42v-2.11h5.4c-.04-.8-.17-1.47-.39-2.02s-.5-.98-.83-1.31-.72-.56-1.14-.7c-.42-.13-.86-.2-1.31-.2-.42,0-.82.05-1.18.16-.37.11-.69.27-.97.49-.28.22-.52.49-.72.82s-.34.72-.42,1.17h-2.72c.08-.82.29-1.53.62-2.13.33-.6.76-1.11,1.29-1.52s1.14-.71,1.84-.92,1.45-.31,2.27-.31c.87,0,1.7.14,2.47.41.77.27,1.46.7,2.05,1.28.59.58,1.06,1.33,1.4,2.26.34.93.52,2.05.52,3.36v.42c0,1.37-.17,2.52-.51,3.47-.34.95-.8,1.73-1.38,2.33-.58.61-1.27,1.04-2.05,1.31-.78.27-1.61.4-2.5.4Z"/>
    <path d="M233.32,149.16v-1.46c-1.08,0-2.06-.15-2.92-.46-.86-.31-1.6-.75-2.19-1.33-.6-.58-1.06-1.27-1.38-2.08s-.49-1.71-.49-2.69v-.42c0-.89.16-1.7.49-2.45s.78-1.39,1.38-1.94c.6-.55,1.33-.98,2.19-1.29.87-.31,1.84-.46,2.92-.46v-1.46h2.55v1.46c1.08,0,2.06.15,2.92.46.87.31,1.6.74,2.21,1.29.6.55,1.07,1.2,1.38,1.94s.48,1.56.48,2.45v.42c0,.99-.16,1.88-.48,2.69s-.78,1.5-1.38,2.08c-.61.58-1.34,1.02-2.21,1.33-.86.31-1.84.46-2.92.46v1.46h-2.55ZM233.32,145.46v-8.65c-.69,0-1.3.09-1.83.27s-.97.45-1.34.79-.64.76-.82,1.23-.27,1.01-.27,1.6v.42c0,.69.09,1.31.27,1.85.18.54.45,1,.81,1.36.36.37.8.64,1.34.83s1.15.28,1.84.28ZM235.88,145.46c.69,0,1.3-.09,1.84-.28.53-.19.98-.47,1.34-.83s.63-.82.82-1.36c.19-.54.28-1.16.28-1.85v-.42c0-.59-.09-1.13-.28-1.6s-.47-.89-.83-1.23-.81-.61-1.34-.79c-.53-.18-1.14-.27-1.82-.27v8.65Z"/>
    <path d="M252.17,149.16v-1.46c-1.08,0-2.06-.15-2.92-.46-.86-.31-1.6-.75-2.19-1.33-.6-.58-1.06-1.27-1.38-2.08s-.49-1.71-.49-2.69v-.42c0-.89.16-1.7.49-2.45s.78-1.39,1.38-1.94c.6-.55,1.33-.98,2.19-1.29.87-.31,1.84-.46,2.92-.46v-1.46h2.55v1.46c1.08,0,2.06.15,2.92.46.87.31,1.6.74,2.21,1.29.6.55,1.07,1.2,1.38,1.94s.48,1.56.48,2.45v.42c0,.99-.16,1.88-.48,2.69s-.78,1.5-1.38,2.08c-.61.58-1.34,1.02-2.21,1.33-.86.31-1.84.46-2.92.46v1.46h-2.55ZM252.17,145.46v-8.65c-.69,0-1.3.09-1.83.27s-.97.45-1.34.79-.64.76-.82,1.23-.27,1.01-.27,1.6v.42c0,.69.09,1.31.27,1.85.18.54.45,1,.81,1.36.36.37.8.64,1.34.83s1.15.28,1.84.28ZM254.72,145.46c.69,0,1.3-.09,1.84-.28.53-.19.98-.47,1.34-.83s.63-.82.82-1.36c.19-.54.28-1.16.28-1.85v-.42c0-.59-.09-1.13-.28-1.6s-.47-.89-.83-1.23-.81-.61-1.34-.79c-.53-.18-1.14-.27-1.82-.27v8.65Z"/>
    <path d="M264.87,148.52v-14.77h9.92v2.13h-7.32v4.01h6.69v2.07h-6.69v4.43h7.32v2.13h-9.92Z"/>
    <path d="M278.06,148.52v-14.77h2.6v6.18h1.48l5.36-6.18h2.95l-6.2,7.01,6.42,7.77h-3.17l-5.36-6.6h-1.48v6.6h-2.6Z"/>
    <path d="M296.82,148.52v-12.58h-4.94v-2.19h12.45v2.19h-4.94v12.58h-2.57Z"/>
    <path d="M306.87,148.52v-14.77h2.6v10.7l7.15-10.7h2.49v14.77h-2.6v-10.7l-7.15,10.7h-2.49Z"/>
    <path d="M323.12,148.52v-14.77h5.87c.89,0,1.64.09,2.27.28.63.19,1.15.45,1.56.79.41.34.72.75.92,1.25.2.49.29,1.03.29,1.62,0,.76-.2,1.41-.61,1.95-.41.54-.94.93-1.58,1.17.89.2,1.58.59,2.08,1.18.5.59.75,1.37.75,2.34,0,.62-.1,1.18-.31,1.7-.2.51-.52.95-.94,1.32-.42.37-.97.65-1.65.85s-1.48.31-2.43.31h-6.23ZM325.71,139.96h2.98c.52,0,.96-.05,1.31-.15.35-.1.64-.24.85-.42.22-.18.37-.4.45-.65.08-.25.13-.53.13-.82,0-.31-.04-.59-.13-.84-.08-.25-.23-.47-.45-.64s-.5-.31-.84-.4c-.35-.09-.78-.14-1.32-.14h-2.98v4.07ZM325.71,146.39h3.36c.58,0,1.06-.05,1.43-.15.38-.1.69-.24.92-.43.23-.19.4-.42.5-.71.1-.28.15-.6.15-.95s-.05-.67-.15-.95c-.1-.28-.26-.52-.5-.71s-.55-.34-.94-.44c-.39-.11-.88-.16-1.46-.16h-3.31v4.5Z"/>
    <path d="M337.72,148.52v-14.77h2.6v6.08h7.05v-6.08h2.6v14.77h-2.6v-6.5h-7.05v6.5h-2.6Z"/>
    <path d="M352.43,148.52l5.55-14.77h2.6l5.57,14.77h-2.79l-1.27-3.4h-5.82l-1.27,3.4h-2.58ZM357.07,143.02h4.22l-2.11-6.04-2.11,6.04Z"/>
    <path d="M367.58,148.52l3.9-5.95c-1.1-.34-1.92-.88-2.46-1.61s-.81-1.61-.81-2.61c0-.68.12-1.29.36-1.86.24-.56.59-1.05,1.06-1.46.46-.41,1.04-.72,1.74-.95.7-.23,1.51-.34,2.44-.34h5.59v14.77h-2.6v-5.66h-2.93l-3.5,5.66h-2.79ZM374.23,140.76h2.58v-4.81h-2.58c-1.25,0-2.14.22-2.65.65s-.77,1.02-.77,1.75.26,1.31.77,1.75c.51.44,1.4.65,2.65.65Z"/>
    <path d="M215.87,173.85v-12.58h-4.94v-2.19h12.45v2.19h-4.94v12.58h-2.57Z"/>
    <path d="M225.92,173.85v-14.77h9.92v2.13h-7.32v4.01h6.69v2.07h-6.69v4.43h7.32v2.13h-9.92Z"/>
    <path d="M239.11,173.85v-14.77h12.03v14.77h-2.6v-12.58h-6.84v12.58h-2.6Z"/>
    <path d="M254.51,174.08c-.11,0-.24,0-.37-.01-.13,0-.26-.02-.37-.05v-2.4s.07.02.13.02h.19c.39,0,.72-.09.99-.28.27-.19.49-.59.65-1.2.17-.61.29-1.5.36-2.65.07-1.15.11-2.69.11-4.62v-3.8h10.34v14.77h-2.6v-12.58h-5.23v2.03c0,2.29-.09,4.14-.27,5.55-.18,1.41-.45,2.5-.8,3.28-.35.78-.79,1.3-1.31,1.56s-1.13.39-1.81.39Z"/>
    <path d="M276.56,174.08c-.89,0-1.74-.14-2.55-.43s-1.53-.74-2.15-1.34c-.62-.6-1.11-1.38-1.49-2.32s-.56-2.08-.56-3.42v-.42c0-1.28.19-2.38.56-3.29.37-.91.87-1.67,1.49-2.27.62-.6,1.34-1.04,2.15-1.32.82-.28,1.67-.42,2.55-.42s1.74.14,2.55.42c.82.28,1.53.72,2.15,1.32.62.6,1.11,1.35,1.49,2.27.37.92.56,2.01.56,3.29v.42c0,1.34-.19,2.48-.56,3.42-.37.94-.87,1.72-1.49,2.32-.62.61-1.34,1.05-2.15,1.34s-1.67.43-2.55.43ZM276.56,171.84c.52,0,1.03-.09,1.52-.27.49-.18.92-.48,1.29-.9.37-.42.66-.96.89-1.64.22-.68.34-1.5.34-2.47v-.42c0-.93-.11-1.71-.34-2.35-.23-.64-.52-1.16-.89-1.56s-.8-.69-1.29-.88c-.49-.18-1-.27-1.52-.27s-1.03.09-1.52.27c-.49.18-.92.48-1.29.88s-.66.92-.89,1.56c-.23.64-.34,1.43-.34,2.35v.42c0,.97.11,1.79.34,2.47.22.67.52,1.22.89,1.64.37.42.79.71,1.29.9s1,.27,1.52.27Z"/>
    <path d="M286.59,173.85v-14.77h2.6v10.7l7.15-10.7h2.49v14.77h-2.6v-10.7l-7.15,10.7h-2.49Z"/>
    <path d="M307.82,174.08c-.91,0-1.73-.11-2.45-.34-.72-.22-1.32-.54-1.81-.95-.49-.41-.88-.9-1.16-1.47-.28-.57-.44-1.21-.49-1.91h2.62c.06.38.16.73.33,1.03.16.31.38.57.65.79s.6.38.98.5c.38.11.82.17,1.33.17,1.15,0,1.99-.2,2.5-.61.51-.41.77-.97.77-1.69,0-.35-.06-.67-.17-.96s-.3-.54-.56-.75c-.26-.21-.6-.38-1.02-.5-.42-.12-.93-.18-1.52-.18h-1.79v-1.94h1.79c.96,0,1.65-.21,2.09-.63.44-.42.65-.94.65-1.54s-.22-1.1-.66-1.5-1.14-.59-2.08-.59c-.49,0-.92.05-1.28.15-.36.1-.66.24-.9.42-.24.18-.42.41-.55.69-.13.27-.21.58-.25.92h-2.62c.04-.66.19-1.26.44-1.8.25-.54.61-1,1.07-1.37.46-.37,1.03-.66,1.71-.86.68-.2,1.47-.31,2.37-.31,1.8,0,3.15.37,4.04,1.12.89.75,1.34,1.76,1.34,3.04,0,.77-.21,1.43-.64,1.97-.43.54-1,.93-1.72,1.17.89.21,1.59.62,2.11,1.21.52.6.78,1.38.78,2.35,0,.63-.13,1.22-.38,1.75-.25.53-.63,1-1.12,1.38-.49.39-1.11.69-1.85.91s-1.59.33-2.56.33Z"/>
    <path d="M322.59,174.08c-.89,0-1.74-.14-2.55-.43s-1.53-.74-2.15-1.34c-.62-.6-1.11-1.38-1.49-2.32s-.56-2.08-.56-3.42v-.42c0-1.28.19-2.38.56-3.29.37-.91.87-1.67,1.49-2.27.62-.6,1.34-1.04,2.15-1.32.82-.28,1.67-.42,2.55-.42s1.74.14,2.55.42c.82.28,1.53.72,2.15,1.32.62.6,1.11,1.35,1.49,2.27.37.92.56,2.01.56,3.29v.42c0,1.34-.19,2.48-.56,3.42-.37.94-.87,1.72-1.49,2.32-.62.61-1.34,1.05-2.15,1.34s-1.67.43-2.55.43ZM322.59,171.84c.52,0,1.03-.09,1.52-.27.49-.18.92-.48,1.29-.9.37-.42.66-.96.89-1.64.22-.68.34-1.5.34-2.47v-.42c0-.93-.11-1.71-.34-2.35-.23-.64-.52-1.16-.89-1.56s-.8-.69-1.29-.88c-.49-.18-1-.27-1.52-.27s-1.03.09-1.52.27-.92.48-1.29.88-.66.92-.89,1.56c-.23.64-.34,1.43-.34,2.35v.42c0,.97.11,1.79.34,2.47.22.67.52,1.22.89,1.64.37.42.79.71,1.29.9s1,.27,1.52.27Z"/>
    <path d="M331.98,174.08c-.11,0-.24,0-.37-.01-.13,0-.26-.02-.37-.05v-2.4s.07.02.13.02h.19c.39,0,.72-.09.99-.28.27-.19.49-.59.65-1.2.17-.61.29-1.5.36-2.65.07-1.15.11-2.69.11-4.62v-3.8h10.34v14.77h-2.6v-12.58h-5.23v2.03c0,2.29-.09,4.14-.27,5.55-.18,1.41-.45,2.5-.8,3.28-.35.78-.79,1.3-1.31,1.56s-1.13.39-1.81.39Z"/>
    <path d="M346.96,173.85l3.9-5.95c-1.1-.34-1.92-.88-2.46-1.61s-.81-1.61-.81-2.61c0-.68.12-1.29.36-1.86.24-.56.59-1.05,1.06-1.46.46-.41,1.04-.72,1.74-.95.7-.23,1.51-.34,2.44-.34h5.59v14.77h-2.6v-5.66h-2.93l-3.5,5.66h-2.79ZM353.61,166.08h2.58v-4.81h-2.58c-1.25,0-2.14.22-2.65.65s-.77,1.02-.77,1.75.26,1.31.77,1.75c.51.44,1.4.65,2.65.65Z"/>
    <path d="M374.14,176.59v-2.74h-11.35v-14.77h2.6v12.58h6.63v-12.58h2.6v12.58h1.9v4.94h-2.36Z"/>
    <path d="M379.21,173.85v-14.77h2.6v10.7l7.15-10.7h2.49v14.77h-2.6v-10.7l-7.15,10.7h-2.49Z"/>
    <path d="M394.4,173.85l3.9-5.95c-1.1-.34-1.92-.88-2.46-1.61s-.81-1.61-.81-2.61c0-.68.12-1.29.36-1.86.24-.56.59-1.05,1.06-1.46.46-.41,1.04-.72,1.74-.95.7-.23,1.51-.34,2.44-.34h5.59v14.77h-2.6v-5.66h-2.93l-3.5,5.66h-2.79ZM401.05,166.08h2.58v-4.81h-2.58c-1.25,0-2.14.22-2.65.65s-.77,1.02-.77,1.75.26,1.31.77,1.75c.51.44,1.4.65,2.65.65Z"/>
  </g>
  <g>
    <path d="M595.86,85.9c-3.45,0-6.25-2.8-6.25-6.25s2.8-6.25,6.25-6.25,6.25,2.77,6.25,6.25-2.77,6.25-6.25,6.25M595.86,74.44c-2.89,0-5.22,2.3-5.22,5.22s2.33,5.21,5.22,5.21,5.21-2.36,5.21-5.21-2.33-5.22-5.21-5.22M597.54,83.25l-1.86-2.83h-1.15v2.83h-1.09v-7.16h2.92c1.21,0,2.42.85,2.42,2.18,0,1.59-1.41,2.12-1.83,2.12l1.92,2.86h-1.33ZM596.36,77h-1.83v2.48h1.83c.62,0,1.3-.47,1.3-1.21,0-.8-.68-1.27-1.3-1.27"/>
    <g>
      <path fill-rule="evenodd" d="M454.04,108.42c1.27,3.15,3.44,3.95,5.56,4.11.21.03,8.34,0,8.34,0l-15.15-38.17h-11.77l-14.81,38.17h8.95l10.1-26.22,8.77,22.11Z"/>
      <polygon fill-rule="evenodd" points="247.04 74.36 247.04 112.54 234.77 112.54 234.77 81.17 223.2 81.17 223.2 112.54 210.93 112.54 210.93 74.36 247.04 74.36"/>
      <polygon fill-rule="evenodd" points="420.31 74.36 420.31 112.54 408.04 112.54 408.04 81.17 396.47 81.17 396.47 112.54 384.21 112.54 384.21 74.36 420.31 74.36"/>
      <polygon fill-rule="evenodd" points="322.08 74.36 322.08 88.86 310.52 88.86 310.52 74.36 298.25 74.36 298.25 112.54 310.52 112.54 310.52 95.56 322.08 95.56 322.08 112.54 334.35 112.54 334.35 74.36 322.08 74.36"/>
      <path fill-rule="evenodd" d="M269.72,112.54h18.81v-6.8h-20.25v-10.2h15.86v-6.7h-15.86v-7.68h20.25v-6.8h-32.53v29.48c0,5.46,4.55,8.7,10.96,8.7h2.76Z"/>
      <path fill-rule="evenodd" d="M533.24,91.12l13.04-16.75h-11.65l-10.36,13.58v-13.58s-12.26,0-12.26,0v38.18h12.27v-14.41s7.17,8.81,7.97,9.83c1.96,2.44,2.91,4.58,9.34,4.58h9.61l-17.95-21.43Z"/>
      <g>
        <rect x="484.74" y="88.84" width="13.43" height="6.7"/>
        <path fill-rule="evenodd" d="M487.5,73.43c-7.36,0-14.85,4.42-16.28,11.26h10.19c.87-3.25,2.92-4.72,6.18-4.72,6.65,0,6.65,8.21,6.65,13.5h0c0,5.3,0,13.47-6.65,13.47-2.97,0-4.96-.7-5.93-3.82h-10.18c1.92,6.4,9.03,10.4,16.03,10.4,10.88,0,18.67-8.97,18.67-20.04s-7.79-20.04-18.67-20.04Z"/>
      </g>
      <path fill-rule="evenodd" d="M568.87,106.94c-6.65,0-6.65-8.19-6.65-13.49h0c0-5.3,0-13.49,6.65-13.49,3.91,0,6.15,1.91,6.55,7.07h10.08c0-8.18-8.37-13.63-16.55-13.63-10.88,0-18.67,8.97-18.67,20.04s7.79,20.04,18.67,20.04c8.18,0,16.55-5.45,16.55-13.83h-10.08c-.4,5.36-2.64,7.27-6.55,7.27Z"/>
      <path fill-rule="evenodd" d="M359.59,73.41c-10.56,0-19.12,8.97-19.12,20.04s8.56,20.04,19.12,20.04,19.12-8.97,19.12-20.04-8.56-20.04-19.12-20.04ZM359.51,106.94c-7.18,0-7.18-8.51-7.18-13.49s0-13.49,7.18-13.49,7.16,8.53,7.16,13.49,0,13.49-7.16,13.49Z"/>
    </g>
  </g>
  <path d="M160.32,138.66s.61-13.15-14.71-13.15-14.71,13.15-14.71,13.15v35.49h-33.01v-99.24h26.18v20.78h8.45v-20.78h26.18v20.78h8.44v-20.78h26.19v99.24h-33.01v-35.49Z"/>
</g>
</svg>