<svg width="110" height="57" xmlns="http://www.w3.org/2000/svg" xmlns:xlink="http://www.w3.org/1999/xlink" overflow="hidden"><defs><clipPath id="clip0"><rect x="0" y="0" width="110" height="57"/></clipPath></defs><g clip-path="url(#clip0)"><path d="M101.519 56.9412 0 56.9412 0 8.48363 8.45776 0 8.45776 48.4576 109.977 48.4576 101.519 56.9412Z" fill="#FFBE00" transform="matrix(1 0 0 1.00103 0.0116097 0)"/><path d="M31.9559 16.1913C32.1488 18.232 30.6509 20.0428 28.6101 20.2358 28.5056 20.2456 28.4009 20.251 28.296 20.2521L25.4767 20.2521 25.4767 12.1306 28.296 12.1306C30.3387 12.1435 31.9841 13.8099 31.9711 15.8526 31.9705 15.9571 31.9653 16.0615 31.9559 16.1654M39.1592 12.7125C37.8659 8.44483 35.8485 6.98347 33.9862 6.01355 31.2984 4.84317 28.3953 4.24846 25.4638 4.26768L16.9931 4.26768 16.9931 40.7499 25.4638 40.7499 25.4638 28.1279C25.4638 28.1279 26.4596 28.1279 28.0503 27.9856 30.8592 27.821 33.5694 26.8908 35.8873 25.2957 37.5959 23.9454 38.7544 22.0192 39.1463 19.877 39.6894 17.5285 39.6894 15.0869 39.1463 12.7384" fill="#F00032" transform="matrix(1 0 0 1.00103 0.0116097 0)"/><path d="M42.3535 4.26768 60.6786 4.26768 60.6786 11.5615 51.0957 11.5615 51.0957 19.1399 60.6786 19.1399 60.6786 26.1622 51.0957 26.1622 51.0957 33.7405 60.6786 33.7405 60.6786 40.7499 42.3535 40.7499 42.3535 4.26768Z" fill="#F00032" transform="matrix(1 0 0 1.00103 0.0116097 0)"/><path d="M79.7927 16.1913C79.9929 18.2242 78.507 20.0344 76.4742 20.2346 76.3693 20.245 76.2641 20.2508 76.1587 20.2521L73.3394 20.2521 73.3394 12.1306C73.3394 12.1306 74.7361 12.1306 76.1587 12.1306 78.2012 12.1578 79.8349 13.8357 79.8077 15.8782 79.8064 15.9741 79.8013 16.0699 79.7927 16.1654M87.0348 19.877C87.5713 17.5233 87.5713 15.0791 87.0348 12.7254 85.7415 8.45776 83.7241 6.99641 81.8618 6.02648 79.1709 4.85026 76.2633 4.25111 73.3265 4.26768L64.8816 4.26768 64.8816 40.7499 73.3265 40.7499 73.3265 28.1279 74.0248 28.1279 81.2023 40.7499 90.5265 40.7499 82.3921 26.188C82.3921 26.188 83.3232 25.6449 83.7758 25.3086 85.4817 23.9616 86.6399 22.0404 87.0348 19.9029" fill="#F00032" transform="matrix(1 0 0 1.00103 0.0116097 0)"/><path d="M93.0742 4.26768 101.493 4.26768 101.493 40.7499 93.0742 40.7499Z" fill="#F00032" transform="matrix(1 0 0 1.00103 0.0116097 0)"/></g></svg>