<?xml version="1.0" encoding="UTF-8"?>
<!DOCTYPE svg PUBLIC "-//W3C//DTD SVG 1.1//EN" "http://www.w3.org/Graphics/SVG/1.1/DTD/svg11.dtd">
<!-- Creator: CorelDRAW -->
<svg xmlns="http://www.w3.org/2000/svg" xml:space="preserve" width="165px" height="30px" version="1.1" style="shape-rendering:geometricPrecision; text-rendering:geometricPrecision; image-rendering:optimizeQuality; fill-rule:evenodd; clip-rule:evenodd"
viewBox="0 0 165 30"
 xmlns:xlink="http://www.w3.org/1999/xlink"
 xmlns:xodm="http://www.corel.com/coreldraw/odm/2003">
 <defs>
  <style type="text/css">
   <![CDATA[
    .fil0 {fill:#195F40}
    .fil1 {fill:#2B2A29;fill-rule:nonzero}
   ]]>
  </style>
 </defs>
 <g id="Слой_x0020_1">
  <metadata id="CorelCorpID_0Corel-Layer"/>
  <polygon class="fil0" points="21.35,22.18 21.35,28.71 1.21,28.71 1.21,22.18 "/>
  <polygon class="fil0" points="11.73,8.72 18.51,8.72 18.51,18.8 11.73,18.8 "/>
  <polygon class="fil0" points="1.21,1.62 7.99,1.62 7.99,21.8 1.21,21.8 "/>
  <polygon class="fil0" points="28.29,28.71 21.71,28.71 21.71,8.73 28.29,8.73 "/>
  <polygon class="fil0" points="11.73,8.36 11.73,1.62 28.29,1.62 28.29,8.36 "/>
  <path class="fil1" d="M68.72 22.44l-3.54 0 2.98 -13.55 6.65 0 2.96 13.55 -3.53 0 -2.54 -9.97 -0.44 0 -2.54 9.97 0 0zm75.18 -13.55l11.07 0 0 3.58 -3.77 0 0 9.97 -3.53 0 0 -9.97 -3.77 0 0 -3.58 0 0zm-12.69 0l12.01 0 0 5.19 -3.54 0 0 -1.61 -4.92 0 0 6.4 4.92 0 0 -1.62 3.54 0 0 5.19 -12.01 0 0 -13.55zm-11.12 0l8.84 0 1.6 13.55 -3.53 0 -0.35 -3.1 -4.27 0 -0.36 3.1 -3.53 0 1.6 -13.55 0 0zm2.59 6.87l3.66 0 -0.52 -3.29 -2.62 0 -0.52 3.29 0 0zm-30.76 -6.87l12.33 0 0 13.55 -3.53 0 0 -9.97 -5.26 0 0 9.97 -3.54 0 0 -13.55zm-4.87 0l3.53 0 0 13.55 -3.53 0 0 -7.77 -5.05 7.77 -3.53 0 0 -9.97 0 -3.58 3.53 0 0 7.76 5.05 -7.76zm-34.85 0l12.31 0 0 13.55 -12.31 0 0 -13.55zm3.53 3.58l0 6.4 5.25 0 0 -6.4 -5.25 0zm-17.2 -3.58l12.33 0 0 13.55 -3.53 0 0 -9.97 -5.27 0 0 9.97 -3.53 0 0 -13.55zm70.23 13.55l-3.54 0 2.96 -13.55 6.66 0 2.97 13.55 -3.53 0 -2.54 -9.97 -0.44 0 -2.54 9.97 0 0z"/>
  <g id="_2069084911312">
   <path class="fil1" d="M161.3 7.26c1.31,0 2.38,1.08 2.38,2.38 0,1.3 -1.07,2.36 -2.38,2.36 -1.3,0 -2.37,-1.06 -2.37,-2.36 0,-1.3 1.07,-2.38 2.37,-2.38zm-0.89 1.19l0 2.37 0.55 0 0 -0.93 0.41 0 0.38 0.93 0.61 0 -0.47 -1.04c0.26,-0.1 0.42,-0.33 0.42,-0.64 0,-0.23 -0.1,-0.4 -0.21,-0.5 -0.12,-0.12 -0.34,-0.19 -0.62,-0.19l-1.07 0 0 0zm0.55 0.41l0.42 0c0.07,0 0.21,0.01 0.29,0.07 0.05,0.05 0.09,0.14 0.09,0.23 0,0.09 -0.03,0.17 -0.08,0.22 -0.09,0.09 -0.21,0.09 -0.31,0.09l-0.41 0 0 -0.61zm0.34 -1.17c-1.08,0 -1.95,0.87 -1.95,1.95 0,1.08 0.87,1.95 1.95,1.95 1.08,0 1.96,-0.87 1.96,-1.95 0,-1.08 -0.88,-1.95 -1.96,-1.95z"/>
   <path class="fil1" d="M161.3 7.26c1.31,0 2.38,1.08 2.38,2.38 0,1.3 -1.07,2.36 -2.38,2.36 -1.3,0 -2.37,-1.06 -2.37,-2.36 0,-1.3 1.07,-2.38 2.37,-2.38zm-0.89 1.19l0 2.37 0.55 0 0 -0.93 0.41 0 0.38 0.93 0.61 0 -0.47 -1.04c0.26,-0.1 0.42,-0.33 0.42,-0.64 0,-0.23 -0.1,-0.4 -0.21,-0.5 -0.12,-0.12 -0.34,-0.19 -0.62,-0.19l-1.07 0 0 0zm0.55 0.41l0.42 0c0.07,0 0.21,0.01 0.29,0.07 0.05,0.05 0.09,0.14 0.09,0.23 0,0.09 -0.03,0.17 -0.08,0.22 -0.09,0.09 -0.21,0.09 -0.31,0.09l-0.41 0 0 -0.61zm0.34 -1.17c-1.08,0 -1.95,0.87 -1.95,1.95 0,1.08 0.87,1.95 1.95,1.95 1.08,0 1.96,-0.87 1.96,-1.95 0,-1.08 -0.88,-1.95 -1.96,-1.95z"/>
  </g>
 </g>
</svg>
