<svg width="94" height="34" viewBox="0 0 94 34" fill="none" xmlns="http://www.w3.org/2000/svg">
    <g>
        <path d="M50.6316 33.2031H47.2083V22.6906H46.2138V33.2031H42.7905V20.0653H50.6316V33.2031ZM52.0078 20.0653H55.4542C56.3794 20.0653 57.0964 20.1347 57.6052 20.285C58.1025 20.4354 58.4842 20.6436 58.727 20.9211C58.9815 21.1987 59.1434 21.5341 59.2359 21.9273C59.3284 22.3205 59.3631 22.9219 59.3631 23.7545V24.8995C59.3631 25.7321 59.2822 26.3451 59.0971 26.7267C58.9236 27.1084 58.6114 27.4091 58.1488 27.6172C57.6862 27.8254 57.0848 27.9295 56.3331 27.9295H55.4195V33.2262H51.9962V20.0884L52.0078 20.0653ZM55.431 22.3089V25.6628C55.5235 25.6628 55.6161 25.6743 55.6855 25.6743C55.9977 25.6743 56.2174 25.5934 56.3331 25.443C56.4487 25.2927 56.5181 24.9689 56.5181 24.4831V23.396C56.5181 22.945 56.4487 22.6559 56.31 22.5171C56.1712 22.3783 55.8821 22.3205 55.4426 22.3205L55.431 22.3089ZM68.1409 27.7676C68.1409 29.086 68.1062 30.0227 68.0484 30.5663C67.9906 31.1214 67.794 31.6187 67.4702 32.0697C67.1463 32.5208 66.6953 32.8677 66.1402 33.1222C65.5851 33.365 64.9374 33.4922 64.1973 33.4922C63.4918 33.4922 62.8673 33.3766 62.3006 33.1453C61.7455 32.914 61.2945 32.567 60.9475 32.116C60.6121 31.6534 60.404 31.1561 60.3346 30.6126C60.2652 30.069 60.2421 29.1207 60.2421 27.7676V25.524C60.2421 24.2056 60.2767 23.2688 60.3346 22.7253C60.3924 22.1701 60.589 21.6728 60.9128 21.2218C61.2366 20.7708 61.6877 20.4238 62.2428 20.1694C62.7979 19.9265 63.4455 19.7993 64.1857 19.7993C64.8912 19.7993 65.5157 19.915 66.0824 20.1463C66.6375 20.3776 67.0885 20.7245 67.4355 21.1755C67.7708 21.6381 67.979 22.1354 68.0484 22.679C68.1178 23.2225 68.1409 24.1709 68.1409 25.524V27.7676ZM64.7177 23.4538C64.7177 22.8409 64.683 22.4593 64.6136 22.2858C64.5442 22.1123 64.417 22.0314 64.2088 22.0314C64.0354 22.0314 63.8966 22.1007 63.8041 22.2395C63.7115 22.3783 63.6653 22.7831 63.6653 23.4538V29.5833C63.6653 30.3466 63.7 30.8207 63.7578 30.9942C63.8156 31.1792 63.9544 31.2602 64.1857 31.2602C64.417 31.2602 64.5558 31.1561 64.6252 30.9479C64.6946 30.7398 64.7177 30.254 64.7177 29.4792V23.4423V23.4538ZM76.3058 20.0653V22.6906H74.2935V33.2031H70.8703V22.6906H68.8464V20.0653H76.3058ZM84.8754 27.7676C84.8754 29.086 84.8407 30.0227 84.7829 30.5663C84.7251 31.1214 84.5285 31.6187 84.2047 32.0697C83.8808 32.5208 83.4298 32.8677 82.8747 33.1222C82.3196 33.365 81.6719 33.4922 80.9318 33.4922C80.2263 33.4922 79.6018 33.3766 79.0351 33.1453C78.48 32.914 78.029 32.567 77.682 32.116C77.3466 31.6534 77.1385 31.1561 77.0691 30.6126C76.9997 30.069 76.9766 29.1207 76.9766 27.7676V25.524C76.9766 24.2056 77.0112 23.2688 77.0691 22.7253C77.1269 22.1701 77.3235 21.6728 77.6473 21.2218C77.9711 20.7708 78.4222 20.4238 78.9773 20.1694C79.5324 19.9265 80.18 19.7993 80.9202 19.7993C81.6257 19.7993 82.2502 19.915 82.8169 20.1463C83.372 20.3776 83.823 20.7245 84.17 21.1755C84.5053 21.6381 84.7135 22.1354 84.7829 22.679C84.8523 23.2225 84.8754 24.1709 84.8754 25.524V27.7676ZM81.4522 23.4538C81.4522 22.8409 81.4175 22.4593 81.3481 22.2858C81.2787 22.1123 81.1515 22.0314 80.9433 22.0314C80.7699 22.0314 80.6311 22.1007 80.5386 22.2395C80.446 22.3783 80.3998 22.7831 80.3998 23.4538V29.5833C80.3998 30.3466 80.4345 30.8207 80.4923 30.9942C80.5501 31.1792 80.6889 31.2602 80.9202 31.2602C81.1515 31.2602 81.2903 31.1561 81.3597 30.9479C81.4291 30.7398 81.4522 30.254 81.4522 29.4792V23.4423V23.4538ZM94.0002 20.0653V33.2031H90.5769V27.6866H89.5824V33.2031H86.1591V20.0653H89.5824V24.7722H90.5769V20.0653H94.0002Z" fill="#8C99B1"/>
        <path fill-rule="evenodd" clip-rule="evenodd" d="M17.3472 5.10015C17.3472 2.28986 15.3234 0 12.8369 0H22.6093H24.8298C27.3047 0 29.317 2.30143 29.317 5.10015V18.6658H24.8298H21.8345H17.3472V5.10015Z" fill="#8C99B1"/>
        <path fill-rule="evenodd" clip-rule="evenodd" d="M42.9985 4.44104C42.8945 4.41791 42.7904 4.39478 42.6747 4.39478H31.0288V33.4806L45.9129 10.3276C46.2483 9.87657 46.6531 8.62755 46.6531 8.07243C46.6531 6.10639 45.034 4.51042 42.9985 4.44104Z" fill="#8C99B1"/>
        <path fill-rule="evenodd" clip-rule="evenodd" d="M3.65453 4.44104C3.75861 4.41791 3.8627 4.39478 3.97835 4.39478H15.6243V33.4806L0.740157 10.3276C0.404774 9.87657 0 8.62755 0 8.07243C0 6.10639 1.61909 4.51042 3.65453 4.44104Z" fill="#8C99B1"/>
        <path d="M22.7946 29.1434V23.5228H19.2441V21.9731H22.7946V20.0996H17.3706V25.327H20.921V27.2583H19.2441V26.4488H17.3706V29.1318H22.7946V29.1434ZM23.8701 20.1112V29.1434H29.2941V20.1112H23.8701ZM25.7436 21.9847H27.4206V27.2814H25.7436V21.9847Z" fill="#8C99B1"/>
        <path d="M19.5214 30.2537L19.2438 32.717H19.001V33.3878H19.799L20.0996 30.9244H20.5738V33.3878H21.2446V30.2537H19.5098H19.5214ZM22.482 30.2537V33.3878H24.5406V32.717H23.1528V32.1619H23.8583V31.4911H23.1528V30.936H24.5406V30.2652H22.482V30.2537ZM25.5583 30.2537V30.9244H26.2753V33.3878H26.9461V30.9244H27.6631V30.2537H25.5583Z" fill="#8C99B1" stroke="#8C99B1" stroke-width="0.0762"/>
    </g>
</svg>
