<svg xmlns="http://www.w3.org/2000/svg" width="795.3" height="141.1">
  <path fill="#272660" d="M194.2 42.3l14.4 27A889.5 889.5 0 0 1 221 46.2a4569.4 4569.4 0 0 1 16.7-31h1.3a2247.2 2247.2 0 0 1 4 35.5 5185 5185 0 0 0 4 33.2c-.8-.2-1.5-.2-2.3-.2h-4.6c-.7 0-1.5 0-2.3.2l-2.1-25.3c-.8-8.2-1.6-16.5-2.7-25h-.2c-4.5 8.2-9 16.4-13.3 24.6-4.3 8-8.4 16.6-12.3 25.5h-1A946 946 0 0 0 194 58.9l-13-25.3h-.1a3298.3 3298.3 0 0 1-3 27.2 683.1 683.1 0 0 0-1.7 23 28 28 0 0 0-6.9 0 4065.6 4065.6 0 0 0 5.3-34.4 1024.8 1024.8 0 0 0 4.2-34.1h1.7a945 945 0 0 0 13.7 27zm121.2 41.6c-.9-.2-1.8-.2-2.6-.2h-5.2c-.8 0-1.7 0-2.6.2a103 103 0 0 0-4.4-12.1l-3-7-2.7-6.9a416 416 0 0 0-24.7 0 432.1 432.1 0 0 0-9.6 26 31.5 31.5 0 0 0-7.2 0 2535.8 2535.8 0 0 0 30.7-68.6h1.8l5.1 12.3A2758 2758 0 0 0 312.1 77l3.3 6.9zM272 53.4a154.2 154.2 0 0 1 10.6.2 323.7 323.7 0 0 0 11-.2l-11-24.9L272 53.4zM374.7 25a26.6 26.6 0 0 0-10.8-5.3 33.6 33.6 0 0 0-18.3 1 24.1 24.1 0 0 0-9.2 5.8 26.9 26.9 0 0 0-6 9.8c-1.5 4-2.2 8.6-2.2 14 0 4.8.6 9.1 2 13a25.4 25.4 0 0 0 15 15.9 33.1 33.1 0 0 0 16.5 2 45 45 0 0 0 8.2-1.6 14 14 0 0 0 3.1-1.4 382.9 382.9 0 0 0 0-18.7c0-2.3-.1-4.5-.3-6.6a23.8 23.8 0 0 0 6.9.4c.7 0 1.4-.2 2-.4l-.2 7.1a676 676 0 0 0 0 20.7 54.3 54.3 0 0 1-11.7 3l-7 1a54.6 54.6 0 0 1-22-1.7 29.2 29.2 0 0 1-19.4-17.5 40.4 40.4 0 0 1-2.7-15.1 38 38 0 0 1 2.7-14.9 30.6 30.6 0 0 1 19.8-17.9 65.1 65.1 0 0 1 31.5-.4 46.2 46.2 0 0 1 9.3 3.8 22.7 22.7 0 0 0-2.3 7.5h-1.2c-1-1.2-2.2-2.3-3.7-3.5zm23.6 4.2l-.6-12.6a87.4 87.4 0 0 0 4.8.4l2.4-.1 2.4-.3a2338.8 2338.8 0 0 0-.8 25.3v16.9a328.9 328.9 0 0 0 .8 25 56.3 56.3 0 0 0-9.6 0 1248.3 1248.3 0 0 0 .8-25V41.9c0-4.3 0-8.5-.2-12.7zm75.3 52.4a68.1 68.1 0 0 1-17.6 3.6c-5.1 0-10-.8-14.3-2.3A30.2 30.2 0 0 1 423 65.2a38.5 38.5 0 0 1-2.7-14.8c0-5.6.9-10.5 2.7-14.9a31 31 0 0 1 19-17.9 49.2 49.2 0 0 1 36.2 2.2c-.6 1-1 2.1-1.3 3.7l-.8 4-.6.1a30.2 30.2 0 0 0-12.1-7.8 30.2 30.2 0 0 0-17.2 1 22.9 22.9 0 0 0-8.6 5.7 26.8 26.8 0 0 0-5.8 9.8 43 43 0 0 0-2 14 43 43 0 0 0 2 14.1c1.4 4 3.3 7.2 5.8 9.8a23 23 0 0 0 8.6 5.8 30.2 30.2 0 0 0 17.2 1 34.8 34.8 0 0 0 13.4-7.3l.4.4-.9 5.8c-.6.5-1.5 1-2.8 1.7zM518 29.2c0-4.1-.3-8.3-.4-12.6a811.7 811.7 0 0 0 17.5.4 279.4 279.4 0 0 0 18.7-.4 14.9 14.9 0 0 0 0 5.8 145 145 0 0 0-14-.9 671.3 671.3 0 0 0-13.3-.3 485.7 485.7 0 0 0-.1 25.1 411.4 411.4 0 0 0 25.3-1 11.3 11.3 0 0 0 0 6 77.6 77.6 0 0 0-12-.7l-6.8-.1h-6.5v8.3a323 323 0 0 0 .8 25 56.3 56.3 0 0 0-9.6 0 1347.3 1347.3 0 0 0 .7-25V41.9c0-4.3 0-8.5-.2-12.7zm49 0c0-4.1-.3-8.3-.5-12.6a85.8 85.8 0 0 0 4.8.4l2.4-.1 2.4-.3a1989.5 1989.5 0 0 0-.7 25.3 2006.1 2006.1 0 0 0 .3 37.7c4.6 0 9 0 13.3-.2 4.2 0 8.8-.5 13.7-1.1-.3 1.2-.5 2.1-.5 3 0 .6.2 1.5.5 2.6-3-.2-6-.2-9-.2h-18c-3 0-6 0-9.2.2a1314 1314 0 0 0 .8-25.1V41.9c0-4.3 0-8.5-.2-12.7zm46.5 6.3a31 31 0 0 1 19.2-17.9c4.5-1.5 9.4-2.3 14.8-2.3a45 45 0 0 1 14.9 2.3 31 31 0 0 1 19.2 17.9c1.7 4.4 2.6 9.3 2.6 14.9 0 5.5-.9 10.5-2.7 14.8A31 31 0 0 1 662.4 83a47.8 47.8 0 0 1-15 2.2c-5.3 0-10.2-.7-14.7-2.2a30.9 30.9 0 0 1-19.2-17.7 38.6 38.6 0 0 1-2.7-14.8c0-5.6 1-10.5 2.7-14.9zm59 .8c-1.3-4-3.2-7.2-5.7-9.8a22.9 22.9 0 0 0-8.6-5.7 30.2 30.2 0 0 0-10.7-1.9 30 30 0 0 0-10.7 1.9 22.8 22.8 0 0 0-8.6 5.7 26.7 26.7 0 0 0-5.7 9.8 43 43 0 0 0-2 14 43 43 0 0 0 2 14.1A23.8 23.8 0 0 0 636.8 80a31.2 31.2 0 0 0 21.4 0 23 23 0 0 0 8.6-5.8c2.5-2.6 4.4-5.8 5.8-9.8 1.3-4 2-8.6 2-14 0-5.5-.7-10.1-2-14.1zm75.9 47.6c-1-.2-1.8-.2-2.6-.2h-5.2c-.8 0-1.7 0-2.6.2a102.3 102.3 0 0 0-4.4-12.1l-3-7-2.7-6.9a416.4 416.4 0 0 0-24.8 0 440.5 440.5 0 0 0-9.5 26 31.5 31.5 0 0 0-7.2 0A2548.7 2548.7 0 0 0 717 15.3h2a6662.2 6662.2 0 0 0 21.6 51.5 1403.7 1403.7 0 0 0 7.8 17zM705 53.4a154 154 0 0 1 10.6.2 323.8 323.8 0 0 0 11-.2l-11-24.9L705 53.4zm60.7-31.7a301 301 0 0 0-16.3.5l-4.6.5c.3-1.1.5-2.2.5-3.1 0-.7-.2-1.7-.5-3a1928.5 1928.5 0 0 0 25.3.4 542.3 542.3 0 0 0 25.2-.4c-.3 1.3-.5 2.3-.5 3 0 1 .2 2 .5 3.1a71.6 71.6 0 0 0-10-.8 158.1 158.1 0 0 0-11-.2l-.2 20.2v16.9a335 335 0 0 0 .8 25 56.2 56.2 0 0 0-9.6 0 1248.3 1248.3 0 0 0 .7-25V41.9c0-6.8 0-13.5-.3-20.2zM181.4 126c.5-2 1.2-4 2-6.2l4.1-11.7h6.3v24.4h-4.5V120l.3-6.3h-.2a124.8 124.8 0 0 1-1.6 5l-5 13.7h-3l-5-13.8a73.2 73.2 0 0 1-1.6-4.9h-.1l.2 6.3v12.4h-4.5V108h6.3l4.2 11.6 2 6.2zm22.6-17.9v9.5a28.4 28.4 0 0 1 7.4.2l3 1a8 8 0 0 1 2 1.5c.6.6 1 1.3 1.3 2a7 7 0 0 1 0 4.7 7.6 7.6 0 0 1-3 3.7c-.8.5-1.7.9-2.8 1.2l-2.5.4-3.4.2h-6.4V108h4.5zm0 20.6h4.8l2-.5c.8-.2 1.4-.7 2-1.2a3 3 0 0 0 .7-2.1 3 3 0 0 0-.9-2.2c-.5-.6-1.4-1-2.6-1.2l-1.5-.2a26.9 26.9 0 0 0-4.4 0v7.4zm16.5 3.8V108h4.5v24.4h-4.5zM251 126c.5-2 1.2-4 2-6.2l4.2-11.7h6.2v24.4H259V120c0-1.8 0-3.9.2-6.3h-.2a124.8 124.8 0 0 1-1.6 5l-5 13.7h-2.9l-5-13.8a71.1 71.1 0 0 1-1.6-4.9h-.2c.2 2.3.2 4.4.2 6.3v12.4h-4.4V108h6.2l4.2 11.6c.7 2 1.4 4 2 6.2zm40.9-5.7a16 16 0 0 1-.8 5.1 10.4 10.4 0 0 1-6 6.6 13.5 13.5 0 0 1-10.1 0 10.3 10.3 0 0 1-6-6.6c-.6-1.5-.8-3.2-.8-5.1 0-1.9.2-3.6.8-5.1a10.4 10.4 0 0 1 6-6.6 13.1 13.1 0 0 1 10 0 10.4 10.4 0 0 1 6.1 6.6c.5 1.5.8 3.2.8 5.1zm-4.6 0c0-1.5-.2-2.8-.6-3.9a8 8 0 0 0-1.5-2.8 6.1 6.1 0 0 0-2.3-1.6 7.6 7.6 0 0 0-5.8 0c-.9.4-1.6.9-2.3 1.6a8 8 0 0 0-1.5 2.8c-.4 1.1-.5 2.4-.5 3.9s.1 2.8.5 3.9.9 2 1.5 2.8a7.3 7.3 0 0 0 5.3 2.2c1 0 2-.2 2.8-.6 1-.4 1.7-1 2.3-1.7a6 6 0 0 0 1.5-2.7c.4-1.1.6-2.4.6-3.9zm20.2 1.2l-9.5 11h-5.7l10.6-12.3-9.8-12h5.5l8.8 11h.1v-11h4.5v11l8.9-11h5.5l-9.8 12 10.6 12.3h-5.7l-9.5-11v11h-4.5v-11zm27.5 7.2h12v3.8h-16.5V108h15.8v3.8H335v6.3h9.7v3.7H335v6.8zm29.2-2.7c.5-2 1.2-4 2-6.2l4.2-11.7h6.2v24.4h-4.4V120c0-1.8 0-3.9.2-6.3h-.2a112.3 112.3 0 0 1-1.6 5l-5 13.7h-2.9l-5-13.8a77.6 77.6 0 0 1-1.6-4.9h-.2c.2 2.3.2 4.4.2 6.3v12.4h-4.4V108h6.2l4.2 11.6c.7 2 1.4 4 2 6.2zm31.1-12.9l2.5 3.7 2.5-3.7 3.5-5h5.1l-8.5 12 8.9 12.4h-5l-3.9-5.5a177 177 0 0 1-2.6-3.8l-2.6 3.8-3.8 5.5h-5l8.8-12.4-8.5-12h5.1l3.5 5zm39 7.2a16 16 0 0 1-.8 5.1 10.4 10.4 0 0 1-6 6.6 13.5 13.5 0 0 1-10.1 0 10.3 10.3 0 0 1-6-6.6 15.8 15.8 0 0 1 0-10.2c.5-1.6 1.2-2.9 2.2-4 1-1.1 2.3-2 3.8-2.6a12.7 12.7 0 0 1 10 0 10.4 10.4 0 0 1 6 6.6c.6 1.5.9 3.2.9 5.1zm-4.6 0c0-1.5-.2-2.8-.6-3.9-.3-1.1-.8-2-1.5-2.8a6.1 6.1 0 0 0-2.3-1.6 7.6 7.6 0 0 0-5.8 0 6 6 0 0 0-2.3 1.6 8 8 0 0 0-1.5 2.8c-.4 1.1-.5 2.4-.5 3.9s.1 2.8.5 3.9.9 2 1.5 2.8a7.3 7.3 0 0 0 8.1 1.6c1-.4 1.7-1 2.3-1.7a6 6 0 0 0 1.5-2.7c.4-1.1.6-2.4.6-3.9zm8.1 8.4a35.6 35.6 0 0 0 7.6-20.6H458v20.6h2.9v11.8h-4.5v-8h-15.7v8h-4.4v-11.8h1.5zM449 112a50.6 50.6 0 0 1-2.2 9.4 30.8 30.8 0 0 1-4 7.4h10.6V112H449zm33.6-3.9h4.7v24.4h-4.5v-11.2c0-1.4 0-3.7.2-6.8l-4.4 6.6-8 11.4H466V108h4.4v11.2c0 1.8 0 4-.2 6.8a145 145 0 0 1 4.4-6.5l8-11.5zm20.4 24.4h-4.4v-20.6h-7.9V108H511v3.8h-8v20.6zm15.8-14.9a35.6 35.6 0 0 1 7.8.3c2.2.5 3.8 1.3 4.8 2.5 1 1.1 1.6 2.6 1.6 4.3a7 7 0 0 1-1.2 4c-.8 1.1-2 2-3.7 2.7l-3.1.8a30 30 0 0 1-4.4.3h-6.3V108h4.5v9.5zm0 11.1h2.1a25.2 25.2 0 0 0 4-.3 6 6 0 0 0 2.5-1.3 3 3 0 0 0 1-2.3c0-.9-.3-1.5-.8-2-.5-.6-1.3-1-2.3-1.3l-1.7-.2a25.4 25.4 0 0 0-4.8 0v7.4zm45.7-20.6v24.4h-4.4v-20.6h-10.4v20.6h-4.5V108h19.3zm28.5 12.2a16 16 0 0 1-.8 5.1 10.4 10.4 0 0 1-6 6.6 13.5 13.5 0 0 1-10.1 0 10.3 10.3 0 0 1-6-6.6 15.8 15.8 0 0 1 0-10.2 10.4 10.4 0 0 1 6-6.6 12.7 12.7 0 0 1 10 0 10.4 10.4 0 0 1 6 6.6c.6 1.5.9 3.2.9 5.1zm-4.6 0c0-1.5-.2-2.8-.6-3.9a8 8 0 0 0-1.5-2.8 6 6 0 0 0-2.3-1.6 7.6 7.6 0 0 0-5.8 0c-.9.4-1.6.9-2.3 1.6a8 8 0 0 0-1.5 2.8c-.4 1.1-.5 2.4-.5 3.9s.1 2.8.5 3.9.9 2 1.5 2.8a7.3 7.3 0 0 0 5.3 2.2c1 0 2-.2 2.8-.6 1-.4 1.7-1 2.3-1.7a6 6 0 0 0 1.5-2.7c.4-1.1.6-2.4.6-3.9zm34.6-5.7c0 1-.2 2-.7 3-.5.8-1.3 1.5-2.3 2.1.6.3 1.1.5 1.6.9.5.3 1 .7 1.3 1.1a5.2 5.2 0 0 1 1.1 3.4c0 .6 0 1.2-.2 1.9a6 6 0 0 1-1 2 9.6 9.6 0 0 1-5.9 3.2 17 17 0 0 1-2.6.2h-8.9v-24.3h8.4c1.8 0 3.3.2 4.4.6a6.8 6.8 0 0 1 3.6 2.5 5.6 5.6 0 0 1 1.2 3.4zm-9.1 3.6a9 9 0 0 0 2.7-.4c.6-.3 1.1-.7 1.4-1.2a3.3 3.3 0 0 0 0-3.4 3 3 0 0 0-1.7-1l-1.2-.3h-5.3v6.3h4zm-4 3.7v6.8h2.8a26 26 0 0 0 3.5-.2c.6-.2 1.1-.3 1.5-.6.4-.2.8-.4 1-.7.3-.3.5-.6.6-1l.1-1a3 3 0 0 0-.5-1.9c-.4-.5-1-.9-1.8-1.1l-1.2-.2-1.8-.1h-4.3zm41.3-1.6c0 1.9-.2 3.6-.8 5.1a10.3 10.3 0 0 1-6 6.6c-1.5.6-3.2 1-5 1-2 0-3.6-.4-5-1a10.4 10.4 0 0 1-6.1-6.6 16 16 0 0 1 0-10.2 10.4 10.4 0 0 1 6-6.6 13.5 13.5 0 0 1 10.1 0 10.3 10.3 0 0 1 6 6.6c.6 1.5.8 3.2.8 5.1zm-4.6 0c0-1.5-.2-2.8-.5-3.9a8 8 0 0 0-1.5-2.8 6.1 6.1 0 0 0-2.3-1.6c-1-.4-1.9-.6-3-.6-1 0-2 .2-2.8.6-1 .4-1.7.9-2.3 1.6a8 8 0 0 0-1.5 2.8c-.4 1.1-.6 2.4-.6 3.9s.2 2.8.6 3.9a6.3 6.3 0 0 0 3.8 4.4 7.5 7.5 0 0 0 5.8 0c.9-.4 1.6-1 2.3-1.7.6-.7 1.1-1.6 1.5-2.7.3-1.1.5-2.4.5-3.9zm8.1 8.4a35.6 35.6 0 0 0 7.6-20.6H675v20.6h2.8v11.8h-4.4v-8h-15.7v8h-4.5v-11.8h1.5zm11.4-16.8a51.7 51.7 0 0 1-2.3 9.4 31.6 31.6 0 0 1-4 7.4h10.7V112h-4.4zm21.3 16.8h12v3.8h-16.5V108h15.8v3.8h-11.3v6.3h9.7v3.7h-9.7v6.8z"/>
  <path fill="#099547" stroke="#fff" stroke-miterlimit="10" stroke-width="2.1" d="M6.7 42.2s4.3 4.4 4.2 10.1c0 5.4-8.8 10.2-8.8 16 0 10 8.9 14 9 19.5.1 4.8-4.5 8.6-4.5 8.6l.2 16a22.7 22.7 0 0 0 20.4 21.8h13.6s6.2 4.9 11.2 5c6.4 0 11.5-9.5 17.7-9.5 7 0 10.6 9.2 18.6 9.3 6 .1 9.5-4.7 9.5-4.7h14.3c11.4-.2 22.3-10.1 22.3-21.5V100s4.4-5.1 4.3-10.8c0-10.1-9.5-11.4-9.4-17.7 0-8.4 9.5-12.5 9.4-18.9 0-5-4.1-8.8-4.1-8.8l-.1-15.9a21 21 0 0 0-20.8-21H98.6s-6.1 4.5-9.8 4.5c-5.6 0-10.5-9.6-18-9.6-8.5 0-12.6 9.4-18.4 9.5-3.2 0-8.1-4.3-8.1-4.3H28.8C17.4 7.3 7 14.5 6.7 28.8v13.5z"/>
  <path fill="none" stroke="#1e74b7" stroke-miterlimit="10" stroke-width=".8" d="M5 43s4.2 3.6 4.3 9.3C9.5 57 .4 61.7.4 68.5c0 10.3 9 15 9.1 19.3.2 3.8-4.5 7.6-4.5 7.6l.2 17c0 13 12.7 23 21.9 23.4h13.3s5.6 4.8 11.8 4.8c7.5 0 12-9.3 17.6-9.3 5.2 0 10.5 9.3 18.3 9.3a15 15 0 0 0 10.4-4.7l13.8-.1c11.8-.1 23.6-11.5 23.6-22l.2-13.1s4.2-5.1 4.2-11.5c0-10.7-9.5-12.8-9.4-17.8.2-7.3 9.4-11 9.4-18.5 0-5.7-4.2-9.7-4.2-9.7v-15a22.6 22.6 0 0 0-22.7-22.8H98s-6 4.2-9.1 4.4c-5 .3-9-9.4-17.9-9.4-9.2 0-13.1 8.7-18.2 9.4-2.2.3-7.6-4.3-7.6-4.3H28.3C13.8 6.2 5.1 16.2 5.1 28.9v14.3z"/>
  <path fill="#2c3480" stroke="#fff" stroke-miterlimit="10" stroke-width="1.7" d="M72.7 20.2L110 20c7 0 11.8 2.6 11.9 10.1V68H72.8l-.1-47.8zm-4.3 99.5l-37.1.2c-6.9 0-11.7-2.5-11.8-10V73h48.8l.1 46.8z"/>
  <path fill="#fff" d="M43.8 53.6L31.2 40.2V69H18.4V19.2h12l13.4 15.6 13.5-15.6h11.9V69H56V40.2m67.1 60.7H84.6v19.9H71.9V71.6H123v8.8H84.6V92H123v8.9z"/>
</svg>
