<svg width="168" height="57" viewBox="0 0 168 57" fill="none" xmlns="http://www.w3.org/2000/svg">
<path fill-rule="evenodd" clip-rule="evenodd" d="M0.156974 48.4997L0 48.6744C2.1856 50.9757 4.75059 52.8825 7.65914 54.2882C11.2603 56.0281 15.3762 57 19.9368 57C23.8755 57 27.2804 56.316 30.3967 55.1205C19.2472 57.1716 10.5487 49.1779 7.01981 39.1754L0.156974 48.4997Z" fill="url(#paint0_linear_224_48)"/>
<path d="M6.82336 18.1183L6.80142 18.0864C7.05859 17.7716 7.32735 17.4668 7.60639 17.1721L6.82336 18.1183ZM6.75784 18.0228L0.00463867 8.16068C2.1198 5.97186 4.56119 4.18767 7.25884 2.8514C11.0186 0.988955 15.2631 0 19.7959 0C23.937 0 27.6185 0.73999 30.8483 2.02179L30.7852 2.04512L30.7294 2.02241C19.31 -0.439851 10.2757 7.62531 6.75784 18.0228Z" fill="#D74E22"/>
<path d="M7.13232 39.1796L7.14008 39.1753L7.16154 39.1621L7.13232 39.1796Z" fill="white"/>
<path fill-rule="evenodd" clip-rule="evenodd" d="M18.0539 16.0997L18.0504 16.0983L5.96084 28.159C5.82228 28.287 5.73535 28.4699 5.73535 28.6732C5.73535 28.8768 5.82251 29.0602 5.96191 29.188V29.1904L18.0642 41.299H18.0653C18.1933 41.4424 18.3801 41.5331 18.5879 41.5331C18.9748 41.5331 19.2884 41.2199 19.2884 40.8337C19.2884 40.8048 19.2863 40.7758 19.283 40.7474V33.8548H29.7462C32.5865 33.8548 34.9099 31.5344 34.9099 28.6981C34.9099 25.8619 32.5865 23.5415 29.7462 23.5415H19.283V16.5547L19.279 16.5533C19.2741 16.1711 18.9626 15.8632 18.5793 15.8632C18.3703 15.8632 18.1825 15.9548 18.0539 16.0997Z" fill="url(#paint1_linear_224_48)"/>
<path fill-rule="evenodd" clip-rule="evenodd" d="M6.68945 18.2241C9.71386 14.4417 14.37 12.0178 19.5937 12.0178C28.7096 12.0178 36.0989 19.3972 36.0989 28.4997C36.0989 43.9189 16.8425 50.7018 7.01967 39.1754C10.3499 48.6978 17.7968 55.4513 26.6521 55.4513C27.9599 55.4513 29.2076 55.3365 30.3966 55.1205C34.0838 53.7066 37.1977 51.5762 39.7444 49.0128C43.9177 44.8132 46.5526 39.4474 47.6826 34.1757C48.3162 30.0255 48.2397 25.6881 47.4434 21.5795C46.1986 16.7065 43.6233 11.7829 39.6697 7.87489C37.217 5.45107 34.2397 3.41654 30.7296 2.02264C29.4415 1.74498 28.0846 1.57903 26.6521 1.54819C17.6434 1.54819 9.92577 8.43673 6.68945 18.2241Z" fill="url(#paint2_linear_224_48)"/>
<path d="M55.3422 34.7973C53.9079 33.3374 53.0935 31.2928 53.0935 29.0014C53.0935 26.7511 53.9242 24.7658 55.3378 23.3462C56.7317 21.9464 58.6862 21.1022 60.9629 21.1022C61.9942 21.1022 63.0787 21.271 64.094 21.6362C65.0204 21.9699 65.8869 22.4668 66.6008 23.1484L66.9489 23.4805L65.3019 25.914L64.8172 25.4855C64.3351 25.0595 63.721 24.7019 63.0552 24.451C62.4064 24.2067 61.7111 24.0662 61.0442 24.0662C59.5951 24.0662 58.4396 24.5747 57.6382 25.4027C56.7747 26.2945 56.3057 27.5655 56.3057 28.9808C56.3057 30.4172 56.7915 31.7432 57.6768 32.681C58.4883 33.5404 59.647 34.079 61.0848 34.079C61.8107 34.079 62.545 33.9195 63.2281 33.6302C63.9194 33.3371 64.5628 32.9095 65.0957 32.3768L65.5604 31.9132L67.3256 34.2747L66.9778 34.6219C66.3259 35.2734 65.5179 35.8826 64.5289 36.3314C63.5426 36.7788 62.3815 37.063 61.0239 37.063C58.6791 37.063 56.7263 36.2064 55.3422 34.7973ZM159.036 36.4924C158.167 36.1287 157.378 35.5979 156.77 34.9248L156.444 34.5635L158.285 32.3243L158.726 32.8007C159.073 33.1749 159.553 33.5223 160.106 33.768C160.592 33.9848 161.134 34.1193 161.686 34.1193C162.436 34.1193 163.064 33.9166 163.49 33.5464C163.879 33.2077 164.107 32.7118 164.107 32.088C164.107 31.5237 163.91 31.0825 163.574 30.785C163.203 30.457 162.651 30.2803 161.991 30.2803H159.653V27.4789H161.646C162.235 27.4789 162.754 27.2884 163.117 26.9636C163.453 26.6602 163.659 26.2334 163.659 25.7321C163.659 25.2273 163.501 24.7701 163.16 24.4627C162.848 24.1804 162.364 24.005 161.686 24.005C161.21 24.005 160.704 24.0857 160.197 24.2776C159.743 24.4497 159.285 24.7122 158.84 25.0882L158.318 25.5296L156.891 23.0185L157.257 22.7156C158.087 22.0303 158.941 21.6259 159.754 21.3934C160.56 21.1628 161.318 21.1022 161.971 21.1022C163.369 21.1022 164.6 21.5255 165.479 22.3039C166.338 23.0642 166.851 24.1463 166.851 25.4885C166.851 26.3798 166.608 27.104 166.233 27.687C165.99 28.0657 165.693 28.3805 165.372 28.6409C165.822 28.9066 166.211 29.2542 166.519 29.6737C167.014 30.3479 167.298 31.2003 167.298 32.1895C167.298 33.6568 166.71 34.8558 165.75 35.7024C164.758 36.5774 163.375 37.063 161.849 37.063C160.898 37.063 159.923 36.8641 159.036 36.4924ZM148.061 36.8191H145.479V21.346H148.63V27.3772H149.876L153.516 21.346H157.071L152.515 28.7429L157.316 36.8191H153.694L149.871 30.2599H148.63V36.8191H148.061ZM139.012 36.8191H133.176V21.346H142.794V24.2285H136.327V27.093H138.91C140.353 27.093 141.61 27.5618 142.5 28.4433C143.349 29.2826 143.851 30.4808 143.851 31.9865C143.851 33.4158 143.353 34.6157 142.501 35.4664C141.639 36.3268 140.426 36.8191 139.012 36.8191ZM136.327 29.9755V33.9366H138.686C139.334 33.9366 139.837 33.7569 140.169 33.431C140.5 33.106 140.68 32.6133 140.68 31.9865C140.68 31.3526 140.487 30.8465 140.145 30.5071C139.8 30.166 139.286 29.9755 138.646 29.9755H136.327ZM130.43 31.9045H123.923V29.0223H130.999V31.9045H130.43ZM109.118 36.8191H106.488L107.761 21.346H110.753C111.824 23.8518 113.368 26.9671 114.218 29.4561C114.283 29.6142 114.35 29.7858 114.415 29.9598C114.481 29.7855 114.548 29.6139 114.613 29.4561C115.462 26.9685 117.008 23.8499 118.078 21.346H121.071L122.322 36.8191H119.187L118.501 27.8619L115.669 34.24H113.14L110.33 27.8649L109.645 36.8191H109.118ZM94.1805 36.4475C93.139 36.0348 92.2156 35.4331 91.4756 34.7056L91.1208 34.3564L92.8741 32.0331L93.3356 32.5032C93.7908 32.9674 94.4266 33.3731 95.1555 33.6608C95.8516 33.9358 96.6268 34.099 97.405 34.099C98.6671 34.099 99.7424 33.6568 100.541 32.9284C101.236 32.2932 101.728 31.4373 101.957 30.4629H94.5582V27.6617H101.989C101.775 26.6908 101.292 25.8515 100.606 25.23C99.8 24.5006 98.7044 24.0662 97.425 24.0662C96.7224 24.0662 96.026 24.1929 95.3674 24.4416C94.7162 24.687 94.0988 25.0519 93.5461 25.5305L93.0584 25.953L91.4485 23.5257L91.7763 23.1979C92.461 22.5142 93.3328 22.0007 94.2856 21.6533C95.2973 21.2838 96.4011 21.1022 97.4656 21.1022C99.7745 21.1022 101.715 21.9423 103.095 23.324C104.518 24.7493 105.335 26.7447 105.335 28.9808C105.335 31.269 104.491 33.2984 103.065 34.7534C101.656 36.1918 99.6847 37.063 97.405 37.063C96.2641 37.063 95.1707 36.84 94.1805 36.4475ZM81.2522 35.2521C80.2624 34.0441 79.7944 32.3243 79.7944 30.3417C79.7944 28.4057 80.0808 26.8367 80.8503 25.5324C81.6268 24.2202 82.8702 23.2104 84.7762 22.4098L84.7757 22.4081L88.9906 20.5941L90.066 23.2783L85.6042 25.1386C84.669 25.5654 83.9862 26.0431 83.5298 26.626C83.4459 26.7335 83.369 26.845 83.2992 26.9617C83.3706 26.9206 83.4432 26.8818 83.5163 26.845C84.2665 26.4672 85.0842 26.3213 85.8946 26.3213C87.3618 26.3213 88.6085 26.8529 89.489 27.8059C90.341 28.7283 90.8358 30.0345 90.8358 31.6208C90.8358 33.2053 90.2803 34.57 89.3133 35.5398C88.3565 36.4989 87.0084 37.063 85.4065 37.063C83.5582 37.063 82.1865 36.3915 81.2522 35.2521ZM85.3254 34.502C88.5105 34.502 88.4666 28.8149 85.4065 28.8149C82.2155 28.8149 82.1741 34.502 85.3254 34.502ZM70.5411 36.8191H68.081V25.4073H71.1101V31.9359L75.5811 25.4073H78.3497V36.8191H75.3004V30.4229L70.8304 36.8191H70.5411Z" fill="white"/>
<path d="M56.3499 12.4588C56.3499 12.3359 56.3294 12.2219 56.2879 12.1167C56.2461 12.0113 56.1862 11.919 56.1074 11.84C56.0287 11.7613 55.9302 11.6988 55.8122 11.6525C55.6939 11.6065 55.5583 11.5834 55.4053 11.5834H54.2045V13.3671H55.3986C55.5867 13.3671 55.7421 13.3365 55.8644 13.2751C55.987 13.2136 56.0845 13.1368 56.1564 13.0447C56.2287 12.9524 56.279 12.8537 56.3074 12.7484C56.3356 12.6431 56.3499 12.5467 56.3499 12.4588ZM53.9214 13.9198C53.7984 13.9198 53.7118 13.8936 53.6615 13.8408C53.6112 13.7882 53.5857 13.7049 53.5857 13.5909V9.721C53.5857 9.58052 53.6198 9.4774 53.6877 9.41165C53.7559 9.3459 53.8515 9.31284 53.9744 9.31284H56.3894C56.4336 9.31284 56.4606 9.32181 56.4718 9.33915C56.4826 9.35672 56.4883 9.38541 56.4883 9.42493V9.74079C56.4883 9.7757 56.4826 9.80225 56.4718 9.81982C56.4606 9.83716 56.4336 9.84606 56.3894 9.84606H54.2045V11.0702H55.3929C55.7518 11.0702 56.0354 11.1228 56.2431 11.2281C56.4512 11.3333 56.6087 11.4605 56.7161 11.6097C56.8231 11.7591 56.8921 11.9158 56.9227 12.0804C56.9533 12.2449 56.9687 12.3865 56.9687 12.5048C56.9687 12.7113 56.9305 12.901 56.8534 13.0742C56.7768 13.2477 56.6704 13.3966 56.5345 13.5216C56.3984 13.6467 56.2381 13.7444 56.0539 13.8145C55.8698 13.8849 55.6722 13.9198 55.4616 13.9198H53.9214Z" fill="white"/>
<path d="M59.5616 10.9451L59.2522 9.97754H59.2192L58.9233 10.9121L58.4757 12.3207H60.0027L59.5616 10.9451ZM60.661 13.9199C60.6212 13.9199 60.5895 13.9156 60.5652 13.9067C60.5411 13.898 60.5202 13.8696 60.503 13.8212L60.1738 12.8536H58.3176L57.9885 13.8212C57.9666 13.8869 57.9209 13.9199 57.8504 13.9199H57.4027C57.3589 13.9199 57.3316 13.9077 57.3208 13.8836C57.3097 13.8596 57.3086 13.8301 57.3173 13.7949L58.8048 9.56316C58.8397 9.45759 58.8792 9.38854 58.9233 9.35555C58.9672 9.32279 59.0395 9.30407 59.1404 9.29977H59.338C59.4563 9.29977 59.5364 9.31957 59.5781 9.35908C59.6197 9.39859 59.6579 9.46649 59.6931 9.56316L61.1741 13.7949C61.1874 13.8255 61.1882 13.8542 61.1774 13.8804C61.1666 13.9067 61.139 13.9199 61.0951 13.9199H60.661Z" fill="white"/>
<path d="M64.4252 10.7016C64.4252 10.6095 64.4108 10.514 64.3824 10.4152C64.3537 10.3167 64.3045 10.2268 64.2343 10.1453C64.164 10.0644 64.0676 9.99649 63.9447 9.94125C63.8219 9.88662 63.6684 9.85923 63.4838 9.85923H62.3717V11.5374H63.497C63.8088 11.5374 64.0411 11.464 64.1948 11.3167C64.3483 11.1698 64.4252 10.9649 64.4252 10.7016ZM61.7727 9.63544C61.7727 9.5212 61.797 9.43703 61.8452 9.3821C61.8934 9.32716 61.9787 9.29977 62.1013 9.29977H63.6316C63.8375 9.29977 64.0267 9.33253 64.1997 9.39859C64.3729 9.46434 64.5215 9.55748 64.6463 9.67817C64.7711 9.79893 64.8688 9.94371 64.9386 10.1126C65.0087 10.2815 65.0439 10.4669 65.0439 10.6685C65.0439 10.7871 65.0241 10.9275 64.9846 11.0899C64.9453 11.2524 64.872 11.4058 64.7648 11.5506C64.6574 11.6954 64.5088 11.8183 64.3183 11.9192C64.1277 12.0202 63.8841 12.0705 63.5864 12.0705H62.3652V13.8079C62.3652 13.8564 62.3563 13.8869 62.3389 13.9002C62.3213 13.9132 62.2883 13.92 62.2401 13.92H61.898C61.8539 13.92 61.8222 13.9132 61.8027 13.9002C61.7827 13.8869 61.7727 13.8564 61.7727 13.8079V9.63544Z" fill="white"/>
<path d="M68.69 9.42476C68.69 9.37658 68.6998 9.34573 68.7195 9.33277C68.7395 9.31949 68.7712 9.31274 68.815 9.31274H69.1704C69.2186 9.31274 69.2513 9.31949 69.2692 9.33277C69.2866 9.34573 69.2955 9.37658 69.2955 9.42476V13.8078C69.2955 13.8563 69.2866 13.8869 69.2692 13.9001C69.2513 13.9131 69.2186 13.9199 69.1704 13.9199H68.815C68.7712 13.9199 68.7395 13.9131 68.7195 13.9001C68.6998 13.8869 68.69 13.8563 68.69 13.8078V11.7546H66.3732V13.8078C66.3732 13.8563 66.3642 13.8869 66.3466 13.9001C66.3287 13.9131 66.2954 13.9199 66.247 13.9199H65.8811C65.8413 13.9199 65.8099 13.9131 65.7877 13.9001C65.7655 13.8869 65.7544 13.8563 65.7544 13.8078V9.42476C65.7544 9.37658 65.7655 9.34573 65.7877 9.33277C65.8099 9.31949 65.8413 9.31274 65.8811 9.31274H66.247C66.2954 9.31274 66.3287 9.31949 66.3466 9.33277C66.3642 9.34573 66.3732 9.37658 66.3732 9.42476V11.2282H68.69V9.42476Z" fill="white"/>
<path d="M72.1388 10.9451L71.8294 9.97754H71.7964L71.5005 10.9121L71.0528 12.3207H72.5799L72.1388 10.9451ZM73.2382 13.9199C73.1984 13.9199 73.1667 13.9156 73.1424 13.9067C73.1183 13.898 73.0974 13.8696 73.0801 13.8212L72.751 12.8536H70.8948L70.5657 13.8212C70.5438 13.8869 70.498 13.9199 70.4276 13.9199H69.9799C69.9361 13.9199 69.9088 13.9077 69.8979 13.8836C69.8869 13.8596 69.8857 13.8301 69.8944 13.7949L71.382 9.56316C71.4169 9.45759 71.4564 9.38854 71.5005 9.35555C71.5444 9.32279 71.6167 9.30407 71.7176 9.29977H71.9152C72.0334 9.29977 72.1136 9.31957 72.1553 9.35908C72.1969 9.39859 72.2351 9.46649 72.2703 9.56316L73.7513 13.7949C73.7646 13.8255 73.7654 13.8542 73.7546 13.8804C73.7437 13.9067 73.7162 13.9199 73.6723 13.9199H73.2382Z" fill="white"/>
<path d="M76.0348 13.2485C75.9731 13.4066 75.9083 13.5381 75.8404 13.6434C75.7725 13.7487 75.6945 13.8309 75.6068 13.8903C75.5191 13.9495 75.4204 13.9912 75.3108 14.0153C75.2011 14.0394 75.0783 14.0515 74.9421 14.0515C74.8853 14.0515 74.8106 14.0472 74.7185 14.0383C74.6262 14.0293 74.5296 14.0099 74.4287 13.979C74.3849 13.9661 74.3575 13.9528 74.3467 13.9395C74.3355 13.9265 74.3345 13.9046 74.3434 13.8738L74.4092 13.5446C74.4179 13.5097 74.4297 13.4899 74.4455 13.4853C74.4609 13.4812 74.4858 13.4812 74.521 13.4853C74.6176 13.4986 74.6985 13.5086 74.7646 13.5151C74.8303 13.5216 74.8939 13.523 74.9554 13.5184C75.0783 13.514 75.1825 13.4845 75.268 13.4296C75.3535 13.3746 75.4271 13.2707 75.4883 13.117L75.6661 12.6563H75.5609C75.4904 12.6563 75.4314 12.6463 75.3833 12.6266C75.3348 12.6068 75.2888 12.5399 75.245 12.4257L73.9748 9.38541C73.9528 9.33262 73.9748 9.3063 74.0405 9.3063H74.5012C74.5451 9.3063 74.5745 9.31497 74.59 9.33262C74.6054 9.35019 74.6176 9.37213 74.6262 9.39837L75.3175 11.1163L75.7714 12.2614H75.8174L76.2584 11.0702L76.8971 9.38541C76.9101 9.35019 76.9266 9.32825 76.9461 9.31935C76.9658 9.31068 76.9934 9.3063 77.0287 9.3063H77.443C77.4782 9.3063 77.5001 9.31497 77.5088 9.33262C77.5178 9.35019 77.5178 9.36991 77.5088 9.39185L76.0348 13.2485Z" fill="white"/>
<path d="M78.72 9.72091C78.7286 9.57177 78.767 9.46543 78.835 9.40182C78.9032 9.33822 78.9941 9.3063 79.1083 9.3063H81.1485C81.4073 9.3063 81.5367 9.44456 81.5367 9.72091V13.8212C81.5367 13.865 81.5291 13.8926 81.5137 13.9034C81.4982 13.9146 81.4709 13.9199 81.4314 13.9199H81.0365C81.0013 13.9199 80.9751 13.9146 80.9577 13.9034C80.9399 13.8926 80.9313 13.865 80.9313 13.8212V9.84597H79.2791L79.2266 10.5567C79.1914 11.0569 79.1551 11.5024 79.1181 11.8927C79.0807 12.2833 79.0171 12.621 78.9273 12.9064C78.8374 13.1916 78.7088 13.4263 78.5421 13.6106C78.3754 13.7949 78.1429 13.9286 77.8446 14.012C77.8181 14.0207 77.7918 14.0207 77.7656 14.012C77.7393 14.003 77.7171 13.9746 77.6995 13.9265L77.6338 13.6434C77.6165 13.5865 77.6175 13.5502 77.6373 13.5348C77.6567 13.5197 77.6776 13.5075 77.6995 13.4988C77.9017 13.4154 78.0585 13.3055 78.1705 13.1697C78.2823 13.0336 78.3678 12.8527 78.4271 12.6265C78.4863 12.4008 78.5299 12.1198 78.5586 11.7842C78.587 11.4486 78.619 11.0372 78.6541 10.5502L78.72 9.72091Z" fill="white"/>
<path d="M85.2816 12.4587C85.2816 12.3358 85.2611 12.2219 85.2197 12.1166C85.1777 12.0113 85.1179 11.919 85.0391 11.84C84.9603 11.7613 84.8629 11.6987 84.7468 11.6525C84.631 11.6064 84.4967 11.5834 84.3435 11.5834H83.1361V13.3671H84.3303C84.5183 13.3671 84.6737 13.3365 84.7961 13.2751C84.9187 13.2136 85.0161 13.1367 85.0881 13.0447C85.1604 12.9524 85.2107 12.8536 85.2392 12.7484C85.2673 12.643 85.2816 12.5467 85.2816 12.4587ZM82.853 13.9198C82.7347 13.9198 82.6489 13.8935 82.5964 13.8408C82.5439 13.7882 82.5173 13.7049 82.5173 13.5909V9.40488C82.5173 9.3613 82.5263 9.33368 82.5442 9.32286C82.5618 9.31174 82.5885 9.30637 82.624 9.30637H83.0298C83.0695 9.30637 83.0974 9.31174 83.1129 9.32286C83.1285 9.33368 83.1361 9.3613 83.1361 9.40488V11.0702H84.3245C84.6834 11.0702 84.9671 11.1228 85.1747 11.228C85.3829 11.3333 85.5404 11.4605 85.6478 11.6097C85.7547 11.759 85.8238 11.9158 85.8543 12.0803C85.8849 12.2449 85.9003 12.3865 85.9003 12.5048C85.9003 12.7112 85.8622 12.901 85.785 13.0742C85.7085 13.2477 85.6021 13.3966 85.4662 13.5216C85.3301 13.6466 85.1699 13.7444 84.9855 13.8144C84.8014 13.8849 84.6039 13.9198 84.3933 13.9198H82.853Z" fill="white"/>
<path d="M88.5659 13.4263C88.7588 13.4263 88.9434 13.4044 89.1188 13.3605C89.2939 13.3167 89.4588 13.2595 89.6122 13.1895C89.6606 13.1672 89.6955 13.1654 89.7178 13.1827C89.7394 13.2003 89.7548 13.22 89.7637 13.242L89.8888 13.5183C89.9151 13.5711 89.924 13.6074 89.9151 13.6271C89.9061 13.6466 89.8864 13.6677 89.8558 13.6896C89.7505 13.7511 89.6374 13.8014 89.5169 13.8409C89.3959 13.8804 89.2755 13.9113 89.1551 13.9332C89.0341 13.9549 88.9147 13.9703 88.7964 13.979C88.6776 13.9879 88.5659 13.9922 88.4605 13.9922C88.1536 13.9922 87.878 13.9462 87.6348 13.8542C87.3908 13.7619 87.1857 13.6217 87.0193 13.4328C86.8526 13.2444 86.724 13.0051 86.6341 12.7156C86.5443 12.4259 86.499 12.0817 86.499 11.6822C86.499 11.3135 86.5475 10.9789 86.6439 10.6786C86.7405 10.3781 86.8767 10.1215 87.052 9.90851C87.2277 9.69576 87.4393 9.53226 87.6872 9.4181C87.9352 9.30409 88.2083 9.24701 88.5065 9.24701C88.6952 9.24701 88.8903 9.2635 89.0922 9.29657C89.2939 9.32933 89.5072 9.40291 89.7307 9.51684C89.757 9.53012 89.7746 9.54769 89.7835 9.5694C89.7922 9.59157 89.7857 9.62456 89.7637 9.66814L89.6122 9.97104C89.5989 9.99728 89.5849 10.016 89.5695 10.0268C89.554 10.0379 89.5291 10.0346 89.4939 10.0171C89.1867 9.8812 88.8662 9.81299 88.5331 9.81299C88.2827 9.81299 88.0689 9.86578 87.8913 9.97104C87.7138 10.0763 87.5665 10.2157 87.4505 10.3889C87.3338 10.5622 87.2496 10.7619 87.1968 10.9879C87.1443 11.2139 87.1178 11.4453 87.1178 11.6822C87.1178 11.9236 87.1408 12.1496 87.1871 12.3602C87.2331 12.5707 87.3121 12.7551 87.4239 12.9131C87.5357 13.0709 87.6849 13.1959 87.8716 13.288C88.0578 13.3803 88.2895 13.4263 88.5659 13.4263Z" fill="white"/>
<path d="M92.8505 11.4518C92.9645 11.487 93.0589 11.5309 93.1333 11.5833C93.2078 11.6361 93.2706 11.6976 93.3209 11.7677C93.3716 11.8381 93.4118 11.9146 93.4427 11.998C93.4736 12.0817 93.502 12.1737 93.5282 12.2746L93.9429 13.8014C93.9516 13.8233 93.9516 13.8485 93.9429 13.877C93.9342 13.9057 93.9055 13.92 93.8574 13.92H93.4559C93.4338 13.92 93.4097 13.9156 93.3837 13.9067C93.3572 13.8981 93.3396 13.8737 93.3307 13.8345L92.9358 12.3667C92.9009 12.2395 92.8592 12.1352 92.811 12.054C92.7625 11.9729 92.7033 11.9082 92.6332 11.86C92.5631 11.8118 92.484 11.7788 92.3963 11.7612C92.3083 11.7436 92.2077 11.7349 92.0934 11.7349H91.1589V13.8212C91.1589 13.865 91.1513 13.8926 91.1359 13.9034C91.1204 13.9146 91.0931 13.92 91.0536 13.92H90.672C90.6368 13.92 90.6105 13.9146 90.5929 13.9034C90.5756 13.8926 90.5667 13.865 90.5667 13.8212V9.41156C90.5667 9.36775 90.5756 9.34044 90.5929 9.32931C90.6105 9.31849 90.6368 9.31282 90.672 9.31282H91.0604C91.0996 9.31282 91.1272 9.31849 91.1424 9.32931C91.1578 9.34044 91.1635 9.36775 91.1589 9.41156V11.1885H92.0342C92.1043 11.1885 92.1793 11.1812 92.2583 11.1654C92.3373 11.1503 92.4128 11.1195 92.4851 11.0734C92.5577 11.0274 92.6245 10.9606 92.686 10.8726C92.7474 10.7849 92.798 10.6685 92.8373 10.5237L93.1333 9.38532C93.142 9.34581 93.1588 9.32172 93.1829 9.31282C93.2067 9.30415 93.2297 9.29977 93.2519 9.29977H93.6138C93.6666 9.29977 93.696 9.31497 93.7025 9.34581C93.7093 9.37665 93.7082 9.40289 93.6995 9.42483L93.4097 10.6028C93.3615 10.7916 93.2936 10.9549 93.2056 11.0932C93.1179 11.2315 92.9996 11.3401 92.8505 11.4188V11.4518Z" fill="white"/>
<path d="M97.5822 10.1224L97.0097 11.1095L95.4827 13.6567C95.4255 13.7533 95.3752 13.8213 95.3316 13.8608C95.2872 13.9003 95.2173 13.9198 95.1208 13.9198H94.9367C94.8136 13.9198 94.7291 13.8925 94.6831 13.8378C94.6371 13.7828 94.6138 13.7006 94.6138 13.5907V9.4049C94.6138 9.36109 94.6227 9.3337 94.6403 9.32265C94.6577 9.31183 94.6842 9.30615 94.7193 9.30615H95.1075C95.147 9.30615 95.1744 9.31183 95.1898 9.32265C95.2052 9.3337 95.2127 9.36109 95.2127 9.4049V13.084H95.2325L95.7658 12.1824L97.3388 9.56946C97.396 9.4731 97.4463 9.40489 97.4901 9.36569C97.5337 9.32618 97.604 9.30615 97.7007 9.30615H97.885C98.0122 9.30615 98.0977 9.3337 98.1416 9.38871C98.1854 9.44333 98.2076 9.52566 98.2076 9.63522V13.8213C98.2076 13.8651 98.1984 13.8925 98.1811 13.9035C98.1635 13.9144 98.1372 13.9198 98.102 13.9198H97.7137C97.6745 13.9198 97.6468 13.9144 97.6317 13.9035C97.6162 13.8925 97.6086 13.8651 97.6086 13.8213V10.1224H97.5822Z" fill="white"/>
<path d="M100.932 9.09569C100.713 9.09569 100.513 9.02779 100.333 8.89161C100.153 8.75574 99.9995 8.59339 99.8723 8.40473C99.8637 8.39146 99.8558 8.37389 99.8493 8.35195C99.8429 8.33 99.8569 8.30591 99.8921 8.27967L100.017 8.16758C100.057 8.14571 100.083 8.13812 100.096 8.14456C100.109 8.15139 100.131 8.16758 100.162 8.1939C100.289 8.3343 100.422 8.44424 100.56 8.52296C100.698 8.60198 100.831 8.6415 100.958 8.6415C101.055 8.6415 101.167 8.61203 101.294 8.55273C101.421 8.4935 101.575 8.36737 101.755 8.17441C101.79 8.14349 101.814 8.12945 101.827 8.13137C101.84 8.13375 101.858 8.14134 101.88 8.15431L102.011 8.25988C102.046 8.29509 102.061 8.32348 102.054 8.34542C102.048 8.36737 102.04 8.38494 102.031 8.3979C101.847 8.64802 101.659 8.82693 101.468 8.93442C101.277 9.04214 101.099 9.09569 100.932 9.09569ZM102.163 10.1223L101.59 11.1097L100.063 13.6566C100.006 13.7532 99.9557 13.8212 99.9118 13.8607C99.8677 13.9002 99.7979 13.9199 99.7013 13.9199H99.517C99.3941 13.9199 99.3096 13.8926 99.2636 13.8377C99.2177 13.7828 99.1943 13.7004 99.1943 13.5908V9.40504C99.1943 9.36123 99.2033 9.33361 99.2209 9.32279C99.2382 9.31167 99.2647 9.3063 99.2999 9.3063H99.688C99.7276 9.3063 99.7549 9.31167 99.7703 9.32279C99.7857 9.33361 99.7933 9.36123 99.7933 9.40504V13.0839H99.8131L100.346 12.1823L101.919 9.56938C101.976 9.47325 102.027 9.40504 102.071 9.36553C102.114 9.32601 102.185 9.3063 102.281 9.3063H102.466C102.593 9.3063 102.678 9.33361 102.722 9.38854C102.766 9.44348 102.788 9.5258 102.788 9.63536V13.8212C102.788 13.865 102.779 13.8926 102.762 13.9034C102.744 13.9146 102.718 13.9199 102.683 13.9199H102.294C102.255 13.9199 102.227 13.9146 102.212 13.9034C102.197 13.8926 102.189 13.865 102.189 13.8212V10.1223H102.163Z" fill="white"/>
<path d="M107.836 11.4518C107.95 11.487 108.045 11.5309 108.119 11.5833C108.193 11.6361 108.256 11.6976 108.307 11.7677C108.357 11.8381 108.397 11.9146 108.428 11.998C108.459 12.0817 108.488 12.1737 108.514 12.2746L108.928 13.8014C108.937 13.8233 108.937 13.8485 108.928 13.877C108.92 13.9057 108.891 13.92 108.843 13.92H108.442C108.419 13.92 108.395 13.9156 108.369 13.9067C108.343 13.8981 108.325 13.8737 108.316 13.8345L107.921 12.3667C107.886 12.2395 107.845 12.1352 107.797 12.054C107.748 11.9729 107.689 11.9082 107.619 11.86C107.549 11.8118 107.47 11.7788 107.382 11.7612C107.294 11.7436 107.193 11.7349 107.079 11.7349H106.144V13.8212C106.144 13.865 106.137 13.8926 106.121 13.9034C106.106 13.9146 106.079 13.92 106.039 13.92H105.658C105.622 13.92 105.596 13.9146 105.579 13.9034C105.561 13.8926 105.552 13.865 105.552 13.8212V9.41156C105.552 9.36775 105.561 9.34044 105.579 9.32931C105.596 9.31849 105.622 9.31282 105.658 9.31282H106.046C106.085 9.31282 106.113 9.31849 106.128 9.32931C106.143 9.34044 106.149 9.36775 106.144 9.41156V11.1885H107.02C107.09 11.1885 107.165 11.1812 107.244 11.1654C107.323 11.1503 107.398 11.1195 107.471 11.0734C107.543 11.0274 107.61 10.9606 107.672 10.8726C107.733 10.7849 107.784 10.6685 107.823 10.5237L108.119 9.38532C108.128 9.34581 108.144 9.32172 108.168 9.31282C108.192 9.30415 108.215 9.29977 108.237 9.29977H108.599C108.652 9.29977 108.682 9.31497 108.688 9.34581C108.695 9.37665 108.694 9.40289 108.685 9.42483L108.395 10.6028C108.347 10.7916 108.279 10.9549 108.191 11.0932C108.104 11.2315 107.985 11.3401 107.836 11.4188V11.4518Z" fill="white"/>
<path d="M112.765 11.6229C112.765 11.3815 112.747 11.1501 112.71 10.9287C112.672 10.707 112.604 10.5108 112.506 10.3395C112.407 10.1684 112.272 10.0325 112.101 9.93133C111.93 9.8306 111.71 9.78004 111.443 9.78004C111.206 9.78004 111.002 9.82845 110.831 9.92512C110.66 10.0214 110.518 10.153 110.406 10.32C110.294 10.4867 110.211 10.6797 110.156 10.899C110.101 11.1185 110.074 11.3509 110.074 11.5967C110.074 11.8687 110.096 12.1177 110.14 12.3437C110.183 12.5698 110.257 12.7649 110.36 12.9294C110.463 13.094 110.6 13.2223 110.772 13.3143C110.943 13.4066 111.158 13.4526 111.417 13.4526C111.671 13.4526 111.885 13.4023 112.058 13.3013C112.231 13.2003 112.371 13.0642 112.476 12.8931C112.581 12.7221 112.656 12.5269 112.7 12.3074C112.744 12.0879 112.765 11.8598 112.765 11.6229ZM113.384 11.5967C113.384 12.3689 113.219 12.9611 112.887 13.3736C112.556 13.786 112.063 13.9923 111.41 13.9923C110.76 13.9923 110.275 13.7883 109.952 13.3801C109.63 12.9722 109.468 12.3865 109.468 11.6229C109.468 11.2413 109.518 10.9022 109.616 10.606C109.715 10.31 109.851 10.061 110.025 9.85906C110.198 9.65744 110.404 9.50368 110.643 9.39842C110.882 9.29308 111.142 9.2403 111.423 9.2403C111.743 9.2403 112.026 9.29415 112.272 9.40164C112.518 9.50905 112.723 9.66495 112.887 9.86904C113.052 10.0729 113.176 10.32 113.259 10.6093C113.343 10.899 113.384 11.228 113.384 11.5967Z" fill="white"/>
<path d="M115.22 9.84597H113.937C113.898 9.84597 113.872 9.83837 113.861 9.82295C113.85 9.80753 113.845 9.78022 113.845 9.7407V9.41808C113.845 9.38318 113.85 9.35663 113.861 9.33906C113.872 9.32172 113.898 9.31274 113.937 9.31274H117.162C117.201 9.31274 117.227 9.32172 117.237 9.33906C117.249 9.35663 117.254 9.38318 117.254 9.41808V9.7407C117.254 9.78022 117.249 9.80753 117.237 9.82295C117.227 9.83837 117.201 9.84597 117.162 9.84597H115.839V13.8079C115.839 13.8563 115.83 13.8869 115.813 13.9002C115.795 13.9132 115.764 13.9199 115.721 13.9199H115.346C115.302 13.9199 115.27 13.9132 115.25 13.9002C115.23 13.8869 115.22 13.8563 115.22 13.8079V9.84597Z" fill="white"/>
<path d="M120.884 13.887C120.868 13.9091 120.834 13.92 120.782 13.92H118.952C118.737 13.92 118.558 13.8891 118.416 13.8277C118.273 13.7663 118.159 13.685 118.073 13.5841C117.988 13.4834 117.927 13.3649 117.892 13.2287C117.857 13.0929 117.84 12.948 117.84 12.7943V10.4382C117.84 10.2894 117.859 10.1453 117.899 10.0073C117.938 9.86899 118.003 9.7483 118.093 9.64519C118.183 9.54207 118.298 9.46006 118.439 9.3986C118.579 9.33692 118.75 9.3063 118.952 9.3063H120.749C120.797 9.3063 120.829 9.31743 120.844 9.33907C120.859 9.36124 120.867 9.39615 120.867 9.44433V9.72099C120.867 9.7694 120.859 9.80324 120.844 9.82303C120.829 9.84275 120.797 9.85249 120.749 9.85249H118.959C118.774 9.85249 118.642 9.89308 118.56 9.97433C118.479 10.0555 118.439 10.1816 118.439 10.3526V11.2085H120.532C120.58 11.2085 120.611 11.2193 120.627 11.2412C120.642 11.2632 120.65 11.2983 120.65 11.3465V11.5966C120.65 11.6405 120.642 11.6735 120.627 11.6954C120.611 11.7173 120.58 11.7282 120.532 11.7282H118.439V12.8734C118.439 13.0227 118.478 13.1424 118.557 13.2322C118.636 13.3221 118.77 13.367 118.959 13.367H120.782C120.834 13.367 120.868 13.3781 120.884 13.4001C120.899 13.4219 120.907 13.4572 120.907 13.5053V13.7817C120.907 13.8301 120.899 13.865 120.884 13.887Z" fill="white"/>
<path d="M122.295 9.72091C122.304 9.57177 122.342 9.46543 122.41 9.40182C122.478 9.33822 122.569 9.3063 122.684 9.3063H124.724C124.983 9.3063 125.112 9.44456 125.112 9.72091V13.8212C125.112 13.865 125.104 13.8926 125.089 13.9034C125.074 13.9146 125.046 13.9199 125.007 13.9199H124.612C124.577 13.9199 124.55 13.9146 124.533 13.9034C124.515 13.8926 124.506 13.865 124.506 13.8212V9.84597H122.854L122.802 10.5567C122.767 11.0569 122.73 11.5024 122.693 11.8927C122.656 12.2833 122.592 12.621 122.502 12.9064C122.413 13.1916 122.284 13.4263 122.117 13.6106C121.951 13.7949 121.718 13.9286 121.42 14.012C121.393 14.0207 121.367 14.0207 121.341 14.012C121.315 14.003 121.292 13.9746 121.275 13.9265L121.209 13.6434C121.192 13.5865 121.193 13.5502 121.213 13.5348C121.232 13.5197 121.253 13.5075 121.275 13.4988C121.477 13.4154 121.634 13.3055 121.746 13.1697C121.858 13.0336 121.943 12.8527 122.002 12.6265C122.062 12.4008 122.105 12.1198 122.134 11.7842C122.162 11.4486 122.194 11.0372 122.229 10.5502L122.295 9.72091Z" fill="white"/>
<path d="M128.857 12.4587C128.857 12.3358 128.836 12.2219 128.795 12.1166C128.753 12.0113 128.693 11.919 128.614 11.84C128.535 11.7613 128.438 11.6987 128.322 11.6525C128.206 11.6064 128.072 11.5834 127.918 11.5834H126.711V13.3671H127.905C128.093 13.3671 128.249 13.3365 128.371 13.2751C128.494 13.2136 128.591 13.1367 128.663 13.0447C128.735 12.9524 128.786 12.8536 128.814 12.7484C128.842 12.643 128.857 12.5467 128.857 12.4587ZM126.428 13.9198C126.31 13.9198 126.224 13.8935 126.171 13.8408C126.119 13.7882 126.092 13.7049 126.092 13.5909V9.40488C126.092 9.3613 126.101 9.33368 126.119 9.32286C126.137 9.31174 126.163 9.30637 126.199 9.30637H126.605C126.644 9.30637 126.672 9.31174 126.688 9.32286C126.703 9.33368 126.711 9.3613 126.711 9.40488V11.0702H127.899C128.258 11.0702 128.542 11.1228 128.75 11.228C128.958 11.3333 129.115 11.4605 129.223 11.6097C129.33 11.759 129.399 11.9158 129.429 12.0803C129.46 12.2449 129.475 12.3865 129.475 12.5048C129.475 12.7112 129.437 12.901 129.36 13.0742C129.283 13.2477 129.177 13.3966 129.041 13.5216C128.905 13.6466 128.745 13.7444 128.56 13.8144C128.376 13.8849 128.179 13.9198 127.968 13.9198H126.428Z" fill="white"/>
<path d="M133.142 9.42476C133.142 9.37658 133.151 9.34573 133.171 9.33277C133.191 9.31949 133.223 9.31274 133.267 9.31274H133.622C133.67 9.31274 133.703 9.31949 133.721 9.33277C133.738 9.34573 133.747 9.37658 133.747 9.42476V13.8078C133.747 13.8563 133.738 13.8869 133.721 13.9001C133.703 13.9131 133.67 13.9199 133.622 13.9199H133.267C133.223 13.9199 133.191 13.9131 133.171 13.9001C133.151 13.8869 133.142 13.8563 133.142 13.8078V11.7546H130.825V13.8078C130.825 13.8563 130.816 13.8869 130.798 13.9001C130.78 13.9131 130.747 13.9199 130.699 13.9199H130.333C130.293 13.9199 130.262 13.9131 130.239 13.9001C130.217 13.8869 130.206 13.8563 130.206 13.8078V9.42476C130.206 9.37658 130.217 9.34573 130.239 9.33277C130.262 9.31949 130.293 9.31274 130.333 9.31274H130.699C130.747 9.31274 130.78 9.31949 130.798 9.33277C130.816 9.34573 130.825 9.37658 130.825 9.42476V11.2282H133.142V9.42476Z" fill="white"/>
<path d="M139.19 13.8212C139.19 13.865 139.181 13.8926 139.163 13.9034C139.146 13.9146 139.117 13.9199 139.077 13.9199H138.678C138.642 13.9199 138.616 13.9146 138.598 13.9034C138.58 13.8926 138.571 13.865 138.571 13.8212V9.41157C138.571 9.36776 138.58 9.34037 138.598 9.32932C138.616 9.31843 138.642 9.31275 138.678 9.31275H139.077C139.117 9.31275 139.146 9.31843 139.163 9.32932C139.181 9.34037 139.19 9.36776 139.19 9.41157V13.8212ZM137.498 12.4587C137.498 12.3361 137.478 12.2218 137.436 12.1166C137.394 12.0112 137.335 11.9192 137.256 11.8402C137.177 11.7612 137.08 11.6987 136.964 11.6526C136.848 11.6064 136.713 11.5834 136.56 11.5834H135.353V13.367H136.547C136.735 13.367 136.89 13.3364 137.013 13.275C137.135 13.2136 137.233 13.1367 137.305 13.0446C137.377 12.9523 137.427 12.8536 137.456 12.7485C137.484 12.643 137.498 12.5466 137.498 12.4587ZM135.07 13.9199C134.951 13.9199 134.866 13.8937 134.813 13.8409C134.761 13.7881 134.734 13.705 134.734 13.5908V9.40505C134.734 9.36124 134.743 9.33362 134.761 9.3228C134.779 9.31168 134.805 9.3063 134.841 9.3063H135.246C135.286 9.3063 135.314 9.31168 135.33 9.3228C135.345 9.33362 135.353 9.36124 135.353 9.40505V11.0702H136.541C136.9 11.0702 137.184 11.1227 137.391 11.228C137.6 11.3335 137.757 11.4608 137.865 11.6099C137.972 11.759 138.04 11.9157 138.071 12.0803C138.102 12.2449 138.117 12.3864 138.117 12.5049C138.117 12.7112 138.079 12.9009 138.002 13.0742C137.925 13.2476 137.819 13.3968 137.683 13.5218C137.547 13.6466 137.387 13.7446 137.202 13.8147C137.018 13.8848 136.821 13.9199 136.61 13.9199H135.07Z" fill="white"/>
<path d="M141.908 9.09569C141.688 9.09569 141.489 9.02779 141.309 8.89161C141.129 8.75574 140.975 8.59339 140.848 8.40473C140.84 8.39146 140.832 8.37389 140.825 8.35195C140.819 8.33 140.833 8.30591 140.868 8.27967L140.993 8.16758C141.033 8.14571 141.059 8.13812 141.072 8.14456C141.085 8.15139 141.107 8.16758 141.138 8.1939C141.265 8.3343 141.398 8.44424 141.536 8.52296C141.674 8.60198 141.807 8.6415 141.934 8.6415C142.031 8.6415 142.142 8.61203 142.27 8.55273C142.397 8.4935 142.551 8.36737 142.731 8.17441C142.766 8.14349 142.79 8.12945 142.803 8.13137C142.816 8.13375 142.834 8.14134 142.856 8.15431L142.987 8.25988C143.022 8.29509 143.036 8.32348 143.03 8.34542C143.023 8.36737 143.016 8.38494 143.007 8.3979C142.823 8.64802 142.635 8.82693 142.444 8.93442C142.253 9.04214 142.075 9.09569 141.908 9.09569ZM143.138 10.1223L142.566 11.1097L141.039 13.6566C140.982 13.7532 140.932 13.8212 140.888 13.8607C140.844 13.9002 140.774 13.9199 140.677 13.9199H140.493C140.37 13.9199 140.285 13.8926 140.239 13.8377C140.193 13.7828 140.17 13.7004 140.17 13.5908V9.40504C140.17 9.36123 140.179 9.33361 140.197 9.32279C140.214 9.31167 140.241 9.3063 140.276 9.3063H140.664C140.703 9.3063 140.731 9.31167 140.746 9.32279C140.762 9.33361 140.769 9.36123 140.769 9.40504V13.0839H140.789L141.322 12.1823L142.895 9.56938C142.952 9.47325 143.003 9.40504 143.047 9.36553C143.09 9.32601 143.16 9.3063 143.257 9.3063H143.441C143.569 9.3063 143.654 9.33361 143.698 9.38854C143.742 9.44348 143.764 9.5258 143.764 9.63536V13.8212C143.764 13.865 143.755 13.8926 143.737 13.9034C143.72 13.9146 143.694 13.9199 143.658 13.9199H143.27C143.231 13.9199 143.203 13.9146 143.188 13.9034C143.173 13.8926 143.165 13.865 143.165 13.8212V10.1223H143.138Z" fill="white"/>
<path d="M147.831 9.78014C147.62 9.78014 147.416 9.8053 147.219 9.85594C147.021 9.90627 146.844 9.9645 146.686 10.0303C146.637 10.0522 146.602 10.0556 146.58 10.04C146.558 10.0248 146.543 10.0062 146.534 9.98422L146.429 9.72091C146.407 9.66405 146.399 9.62669 146.406 9.60912C146.413 9.59147 146.431 9.57391 146.462 9.55634C146.673 9.43373 146.9 9.34895 147.143 9.303C147.387 9.25696 147.627 9.23395 147.864 9.23395C148.092 9.23395 148.3 9.25911 148.489 9.30944C148.678 9.36008 148.841 9.43373 148.979 9.53002C149.118 9.62669 149.225 9.74715 149.302 9.89223C149.379 10.0367 149.417 10.2035 149.417 10.3921C149.417 10.6425 149.343 10.8595 149.196 11.0438C149.049 11.2282 148.858 11.3641 148.621 11.4518V11.4848C148.757 11.5067 148.884 11.5494 149.002 11.613C149.121 11.6766 149.224 11.7557 149.312 11.8499C149.399 11.9443 149.467 12.0529 149.516 12.1757C149.564 12.2986 149.588 12.4304 149.588 12.5707C149.588 12.7769 149.544 12.9667 149.457 13.1401C149.369 13.3134 149.246 13.4625 149.088 13.5875C148.93 13.7126 148.739 13.8114 148.515 13.8836C148.292 13.9561 148.044 13.9924 147.772 13.9924C147.662 13.9924 147.54 13.9878 147.407 13.9792C147.273 13.9703 147.137 13.9548 146.998 13.9331C146.86 13.9113 146.724 13.8793 146.59 13.8376C146.456 13.796 146.335 13.7445 146.225 13.6828C146.199 13.6608 146.181 13.6403 146.172 13.6203C146.163 13.6008 146.172 13.5667 146.199 13.5185L146.317 13.2617C146.33 13.2397 146.348 13.22 146.37 13.2027C146.392 13.1851 146.429 13.1872 146.482 13.2092C146.561 13.2443 146.648 13.276 146.745 13.3044C146.841 13.3331 146.942 13.3593 147.048 13.3834C147.153 13.4075 147.259 13.4262 147.367 13.4395C147.474 13.4525 147.578 13.4592 147.679 13.4592C148.105 13.4592 148.424 13.3737 148.637 13.2027C148.85 13.0313 148.956 12.8078 148.956 12.5311C148.956 12.4258 148.933 12.3263 148.887 12.2318C148.841 12.1374 148.772 12.054 148.68 11.9817C148.588 11.9092 148.471 11.8513 148.331 11.8071C148.191 11.7636 148.026 11.7413 147.837 11.7413H147.476C147.397 11.7413 147.339 11.7273 147.304 11.6986C147.269 11.6702 147.251 11.6185 147.251 11.5441V11.419C147.251 11.2785 147.318 11.2084 147.449 11.2084H147.818C148.125 11.2084 148.365 11.1384 148.538 10.9979C148.712 10.8574 148.798 10.6687 148.798 10.4316C148.798 10.3134 148.773 10.2135 148.723 10.1323C148.672 10.051 148.603 9.98422 148.515 9.93143C148.427 9.87895 148.324 9.84052 148.206 9.81643C148.088 9.79233 147.962 9.78014 147.831 9.78014Z" fill="white"/>
<path d="M152.214 10.9451L151.905 9.97754H151.872L151.576 10.9121L151.128 12.3207H152.655L152.214 10.9451ZM153.314 13.9199C153.274 13.9199 153.242 13.9156 153.218 13.9067C153.194 13.898 153.173 13.8696 153.156 13.8212L152.826 12.8536H150.97L150.641 13.8212C150.619 13.8869 150.573 13.9199 150.503 13.9199H150.055C150.012 13.9199 149.984 13.9077 149.973 13.8836C149.962 13.8596 149.961 13.8301 149.97 13.7949L151.457 9.56316C151.492 9.45759 151.532 9.38854 151.576 9.35555C151.62 9.32279 151.692 9.30407 151.793 9.29977H151.991C152.109 9.29977 152.189 9.31957 152.231 9.35908C152.272 9.39859 152.311 9.46649 152.346 9.56316L153.827 13.7949C153.84 13.8255 153.841 13.8542 153.83 13.8804C153.819 13.9067 153.792 13.9199 153.748 13.9199H153.314Z" fill="white"/>
<path d="M157.196 12.5049C157.196 12.2548 157.116 12.0531 156.956 11.8994C156.796 11.7459 156.562 11.6691 156.255 11.6691H155.031V13.3672H156.255C156.444 13.3672 156.6 13.3385 156.723 13.2814C156.845 13.2245 156.942 13.1531 157.012 13.0676C157.082 12.982 157.13 12.8889 157.157 12.7877C157.183 12.687 157.196 12.5928 157.196 12.5049ZM155.031 11.1689H156.242C156.312 11.1689 156.391 11.1589 156.479 11.1391C156.567 11.1193 156.649 11.0839 156.726 11.0333C156.802 10.9827 156.866 10.912 156.917 10.8217C156.967 10.7312 156.992 10.6157 156.992 10.4744C156.992 10.2893 156.93 10.1393 156.805 10.0245C156.68 9.91004 156.51 9.85265 156.295 9.85265H155.031V11.1689ZM157.052 11.3927C157.188 11.4409 157.304 11.5056 157.4 11.5868C157.497 11.668 157.575 11.7603 157.636 11.8632C157.696 11.9663 157.741 12.077 157.771 12.1955C157.8 12.3141 157.815 12.4323 157.815 12.5509C157.815 12.7574 157.777 12.9436 157.7 13.1104C157.623 13.2773 157.518 13.4208 157.384 13.5415C157.25 13.6622 157.092 13.7553 156.91 13.8211C156.728 13.8869 156.531 13.9199 156.321 13.9199H154.761C154.643 13.9199 154.557 13.8936 154.505 13.8408C154.452 13.7884 154.426 13.705 154.426 13.5907V9.64182C154.426 9.52789 154.45 9.44341 154.498 9.38848C154.546 9.33378 154.633 9.30623 154.761 9.30623L156.225 9.29971C156.426 9.29971 156.612 9.32058 156.78 9.36224C156.949 9.4039 157.094 9.4708 157.217 9.5631C157.339 9.65509 157.436 9.77255 157.506 9.91518C157.576 10.0576 157.611 10.23 157.611 10.4316C157.611 10.6292 157.561 10.8103 157.46 10.9748C157.359 11.1394 157.223 11.2634 157.052 11.3464V11.3927Z" fill="white"/>
<path d="M161.836 11.6229C161.836 11.3815 161.818 11.1501 161.78 10.9287C161.743 10.707 161.675 10.5108 161.576 10.3395C161.477 10.1684 161.343 10.0325 161.171 9.93133C161 9.8306 160.781 9.78004 160.513 9.78004C160.276 9.78004 160.072 9.82845 159.901 9.92512C159.73 10.0214 159.588 10.153 159.477 10.32C159.365 10.4867 159.282 10.6797 159.227 10.899C159.172 11.1185 159.144 11.3509 159.144 11.5967C159.144 11.8687 159.166 12.1177 159.21 12.3437C159.254 12.5698 159.327 12.7649 159.43 12.9294C159.534 13.094 159.671 13.2223 159.842 13.3143C160.013 13.4066 160.228 13.4526 160.487 13.4526C160.741 13.4526 160.955 13.4023 161.129 13.3013C161.302 13.2003 161.441 13.0642 161.547 12.8931C161.652 12.7221 161.726 12.5269 161.77 12.3074C161.814 12.0879 161.836 11.8598 161.836 11.6229ZM162.455 11.5967C162.455 12.3689 162.289 12.9611 161.958 13.3736C161.627 13.786 161.134 13.9923 160.48 13.9923C159.831 13.9923 159.345 13.7883 159.022 13.3801C158.7 12.9722 158.539 12.3865 158.539 11.6229C158.539 11.2413 158.588 10.9022 158.687 10.606C158.785 10.31 158.922 10.061 159.095 9.85906C159.268 9.65744 159.474 9.50368 159.714 9.39842C159.953 9.29308 160.213 9.2403 160.494 9.2403C160.814 9.2403 161.097 9.29415 161.343 9.40164C161.588 9.50905 161.793 9.66495 161.958 9.86904C162.122 10.0729 162.246 10.32 162.33 10.6093C162.413 10.899 162.455 11.228 162.455 11.5967Z" fill="white"/>
<path d="M164.199 12.202C164.177 12.382 164.154 12.5323 164.13 12.653C164.105 12.7737 164.079 12.8779 164.051 12.9656C164.022 13.0536 163.991 13.128 163.958 13.1892C163.926 13.2509 163.889 13.3123 163.85 13.3738H166.167V9.85249H164.495L164.199 12.202ZM163.389 13.9199L163.324 14.9005C163.319 14.9664 163.291 14.999 163.238 14.999H162.915C162.889 14.999 162.869 14.9926 162.856 14.9796C162.843 14.9664 162.834 14.94 162.83 14.9005L162.744 13.6236C162.74 13.5578 162.754 13.5031 162.787 13.4593C162.82 13.4154 162.88 13.3889 162.968 13.3803L163.178 13.367C163.253 13.2839 163.316 13.1938 163.366 13.0972C163.417 13.0008 163.46 12.8931 163.495 12.7748C163.529 12.6562 163.559 12.5236 163.584 12.3767C163.607 12.2297 163.633 12.0597 163.659 11.8665L163.929 9.76695C163.951 9.62217 163.994 9.50931 164.058 9.42806C164.121 9.34689 164.229 9.3063 164.383 9.3063H166.364C166.509 9.3063 166.613 9.34037 166.677 9.40835C166.74 9.47625 166.772 9.58044 166.772 9.72091V13.3803L166.996 13.3932C167.062 13.3976 167.117 13.4198 167.16 13.4593C167.204 13.4988 167.226 13.5621 167.226 13.6501L167.147 14.9005C167.143 14.94 167.134 14.9664 167.121 14.9796C167.108 14.9926 167.088 14.999 167.062 14.999H166.739C166.717 14.999 166.7 14.9926 166.686 14.9796C166.673 14.9664 166.667 14.94 166.667 14.9005L166.627 13.9199H163.389Z" fill="white"/>
<path d="M95.0621 48.1423C95.0621 48.1948 95.0524 48.2289 95.0326 48.2443C95.0129 48.2597 94.9787 48.2673 94.9305 48.2673H94.6014C94.5533 48.2673 94.5181 48.2597 94.4961 48.2443C94.4742 48.2289 94.4631 48.1948 94.4631 48.1423V44.7858C94.4631 44.6367 94.4818 44.493 94.5191 44.3546C94.5565 44.2163 94.618 44.0959 94.7034 43.9925C94.789 43.8896 94.9029 43.8074 95.0456 43.7459C95.1882 43.6845 95.3649 43.6536 95.5755 43.6536H97.3394C97.3919 43.6536 97.4258 43.6647 97.4414 43.6866C97.4569 43.7086 97.4644 43.7438 97.4644 43.792V44.0618C97.4644 44.1143 97.4569 44.1506 97.4414 44.1704C97.4258 44.1901 97.3919 44.2001 97.3394 44.2001H95.5821C95.3977 44.2001 95.2651 44.2396 95.1839 44.3184C95.1027 44.3974 95.0621 44.5224 95.0621 44.6935V48.1423Z" fill="white"/>
<path d="M100.321 46.5364C100.321 46.2964 100.296 46.0934 100.248 45.9275C100.2 45.7615 100.131 45.6283 100.041 45.528C99.9509 45.4276 99.8432 45.3544 99.7182 45.3087C99.5932 45.2627 99.4519 45.2397 99.2938 45.2397C99.1796 45.2397 99.0505 45.2508 98.9054 45.2727C98.7606 45.2944 98.6377 45.325 98.537 45.3642V47.7216C98.7035 47.7698 98.8475 47.8012 98.9682 47.8164C99.0886 47.8318 99.1994 47.8394 99.3003 47.8394C99.4494 47.8394 99.5867 47.8167 99.7117 47.7709C99.8368 47.7249 99.9442 47.6507 100.034 47.5482C100.124 47.4456 100.194 47.3113 100.245 47.1454C100.295 46.9795 100.321 46.7765 100.321 46.5364ZM100.92 46.5364C100.92 46.7865 100.888 47.0201 100.824 47.2372C100.761 47.4545 100.666 47.6453 100.541 47.8099C100.416 47.9744 100.257 48.1041 100.064 48.1983C99.8708 48.2925 99.647 48.3399 99.3926 48.3399C99.2697 48.3399 99.1371 48.3331 98.9944 48.3198C98.8518 48.3063 98.6994 48.2752 98.537 48.2265V49.5045C98.537 49.544 98.5295 49.5694 98.514 49.5803C98.4986 49.5914 98.4734 49.5968 98.4383 49.5968H98.0698C98.0347 49.5968 98.0082 49.5914 97.9908 49.5803C97.9733 49.5694 97.9644 49.544 97.9644 49.5045V45.0952C97.9644 45.038 97.9908 45.0007 98.0434 44.9831C98.2626 44.8867 98.4886 44.8221 98.7214 44.7891C98.9538 44.756 99.1755 44.7395 99.3861 44.7395C99.6495 44.7395 99.8774 44.7847 100.07 44.8746C100.264 44.9645 100.423 45.0895 100.548 45.2497C100.673 45.41 100.766 45.5996 100.827 45.8192C100.889 46.0384 100.92 46.2774 100.92 46.5364Z" fill="white"/>
<path d="M103.039 48.8334C102.938 49.1363 102.808 49.3465 102.65 49.4651C102.492 49.5836 102.29 49.6429 102.045 49.6429C101.984 49.6429 101.906 49.6386 101.815 49.6297C101.722 49.621 101.621 49.601 101.511 49.5703C101.442 49.5528 101.415 49.5179 101.433 49.4651L101.505 49.1755C101.514 49.1403 101.527 49.1198 101.544 49.1129C101.562 49.1065 101.586 49.1076 101.617 49.1162C101.7 49.1382 101.763 49.1525 101.805 49.1593C101.846 49.1657 101.896 49.169 101.953 49.169C102.102 49.169 102.223 49.1392 102.315 49.0802C102.407 49.0209 102.481 48.9035 102.538 48.7281C102.543 48.7148 102.554 48.6842 102.571 48.6361C102.589 48.5876 102.607 48.5359 102.627 48.4813C102.647 48.4263 102.664 48.3749 102.68 48.3264C102.695 48.2783 102.705 48.2476 102.709 48.2344H102.584C102.523 48.2344 102.469 48.2244 102.423 48.2049C102.377 48.1851 102.336 48.1183 102.301 48.0041L101.288 44.8844C101.275 44.8363 101.295 44.8122 101.347 44.8122H101.788C101.837 44.8122 101.867 44.8341 101.88 44.8779C101.889 44.9088 101.907 44.9691 101.936 45.059C101.965 45.1489 101.999 45.2542 102.038 45.3748C102.078 45.4956 102.119 45.625 102.164 45.763C102.207 45.9013 102.249 46.031 102.289 46.1514C102.328 46.2721 102.362 46.3785 102.39 46.4708C102.419 46.5628 102.437 46.6221 102.446 46.6484L102.782 47.8067H102.822C102.834 47.7716 102.861 47.6926 102.9 47.5697C102.94 47.4467 102.98 47.3163 103.022 47.178C103.064 47.04 103.103 46.9149 103.141 46.8031C103.178 46.6911 103.199 46.6307 103.203 46.6221C103.207 46.6132 103.222 46.5726 103.246 46.5003C103.27 46.4277 103.301 46.3368 103.338 46.2272C103.375 46.1176 103.416 45.9979 103.46 45.8683C103.504 45.7389 103.546 45.6106 103.588 45.4834C103.63 45.3562 103.669 45.2387 103.707 45.1313C103.744 45.0238 103.773 44.9394 103.796 44.8779C103.809 44.8341 103.839 44.8122 103.888 44.8122H104.309C104.362 44.8122 104.381 44.8363 104.368 44.8844L103.039 48.8334Z" fill="white"/>
<path d="M105.415 48.2509C105.397 48.262 105.371 48.2674 105.336 48.2674H104.974C104.939 48.2674 104.912 48.262 104.895 48.2509C104.877 48.2398 104.868 48.2125 104.868 48.1686V45.0821C104.868 45.0336 104.888 44.9765 104.928 44.9107C104.967 44.8449 105.039 44.8119 105.145 44.8119H107.507C107.613 44.8119 107.685 44.8449 107.725 44.9107C107.764 44.9765 107.784 45.0336 107.784 45.0821V48.1686C107.784 48.2125 107.776 48.2398 107.761 48.2509C107.746 48.262 107.718 48.2674 107.679 48.2674H107.317C107.281 48.2674 107.255 48.262 107.238 48.2509C107.22 48.2398 107.212 48.2125 107.212 48.1686V45.3124H105.441V48.1686C105.441 48.2125 105.432 48.2398 105.415 48.2509Z" fill="white"/>
<path d="M109.185 48.2509C109.168 48.262 109.142 48.2674 109.106 48.2674H108.744C108.709 48.2674 108.683 48.262 108.665 48.2509C108.648 48.2398 108.639 48.2125 108.639 48.1686V45.0821C108.639 45.0336 108.659 44.9765 108.698 44.9107C108.738 44.8449 108.81 44.8119 108.916 44.8119H111.278C111.384 44.8119 111.456 44.8449 111.495 44.9107C111.535 44.9765 111.555 45.0336 111.555 45.0821V48.1686C111.555 48.2125 111.547 48.2398 111.532 48.2509C111.516 48.262 111.489 48.2674 111.449 48.2674H111.087C111.052 48.2674 111.026 48.262 111.008 48.2509C110.991 48.2398 110.982 48.2125 110.982 48.1686V45.3124H109.212V48.1686C109.212 48.2125 109.203 48.2398 109.185 48.2509Z" fill="white"/>
<path d="M114.51 46.5693H113.747C113.668 46.5693 113.577 46.575 113.474 46.5858C113.37 46.5967 113.273 46.6253 113.181 46.6714C113.088 46.7174 113.01 46.7853 112.947 46.8752C112.883 46.9653 112.852 47.0893 112.852 47.2471C112.852 47.3656 112.873 47.4655 112.917 47.5467C112.961 47.6279 113.02 47.6915 113.095 47.7375C113.17 47.7835 113.257 47.8165 113.358 47.8363C113.459 47.8561 113.569 47.8658 113.687 47.8658C113.727 47.8658 113.778 47.8647 113.842 47.8626C113.906 47.8604 113.976 47.8539 114.053 47.8428C114.129 47.832 114.207 47.8187 114.286 47.8033C114.365 47.7878 114.44 47.7671 114.51 47.7407V46.5693ZM115.096 47.9448C115.096 48.0325 115.063 48.0897 114.997 48.1159C114.8 48.2038 114.586 48.2628 114.355 48.2938C114.125 48.3243 113.905 48.3397 113.694 48.3397C113.409 48.3397 113.175 48.3099 112.993 48.2507C112.811 48.1912 112.667 48.1108 112.562 48.0098C112.457 47.9086 112.383 47.7919 112.341 47.6599C112.3 47.528 112.279 47.3892 112.279 47.2441C112.279 47.0944 112.304 46.948 112.355 46.8051C112.405 46.6622 112.487 46.5366 112.602 46.4289C112.715 46.3211 112.863 46.2343 113.046 46.1682C113.228 46.1022 113.451 46.0692 113.714 46.0692H114.516V45.9255C114.516 45.821 114.507 45.7273 114.487 45.6448C114.467 45.562 114.429 45.4902 114.372 45.4293C114.315 45.3684 114.235 45.3216 114.132 45.2888C114.029 45.2561 113.896 45.2399 113.733 45.2399C113.58 45.2399 113.416 45.2532 113.243 45.2794C113.07 45.3056 112.928 45.3365 112.819 45.3714C112.783 45.3847 112.755 45.389 112.733 45.3847C112.711 45.3804 112.696 45.3606 112.687 45.3254L112.608 45.0422C112.599 45.0204 112.598 44.9995 112.605 44.9797C112.611 44.9602 112.632 44.9437 112.667 44.9305C112.834 44.8604 113.025 44.8109 113.24 44.7825C113.455 44.754 113.652 44.7397 113.832 44.7397C114.271 44.7397 114.591 44.8374 114.793 45.0325C114.995 45.2277 115.096 45.5119 115.096 45.8848V47.9448Z" fill="white"/>
<path d="M118.271 48.2509C118.256 48.262 118.229 48.2674 118.189 48.2674H117.834C117.799 48.2674 117.771 48.262 117.751 48.2509C117.732 48.2398 117.722 48.2125 117.722 48.1686V44.9107C117.722 44.8672 117.732 44.8395 117.751 44.8284C117.771 44.8176 117.799 44.8119 117.834 44.8119H118.189C118.229 44.8119 118.256 44.8176 118.271 44.8284C118.287 44.8395 118.294 44.8672 118.294 44.9107V46.1874H118.86C118.926 46.1874 118.99 46.182 119.051 46.1711C119.113 46.1601 119.171 46.1371 119.225 46.1022C119.281 46.067 119.331 46.0188 119.377 45.9571C119.423 45.8959 119.461 45.8147 119.492 45.7137L119.749 44.8909C119.758 44.856 119.772 44.8341 119.792 44.8252C119.811 44.8165 119.832 44.8119 119.854 44.8119H120.216C120.251 44.8119 120.273 44.8241 120.282 44.8482C120.291 44.8725 120.293 44.8955 120.289 44.9175L120.038 45.7795C120.003 45.92 119.953 46.0439 119.887 46.1514C119.821 46.2588 119.729 46.339 119.611 46.3915L119.604 46.4048C119.775 46.4575 119.896 46.5373 119.966 46.6448C120.036 46.7525 120.093 46.8765 120.137 47.0167L120.473 48.1554C120.477 48.1776 120.477 48.2014 120.473 48.2279C120.468 48.2542 120.442 48.2674 120.394 48.2674H120.005C119.988 48.2674 119.968 48.2639 119.946 48.2574C119.924 48.2509 119.909 48.2301 119.9 48.1949L119.578 47.109C119.529 46.9423 119.444 46.824 119.321 46.7536C119.198 46.6833 119.068 46.6484 118.933 46.6484H118.294V48.1686C118.294 48.2125 118.287 48.2398 118.271 48.2509Z" fill="white"/>
<path d="M123.434 46.5429C123.434 46.3719 123.421 46.2062 123.395 46.0462C123.369 45.886 123.32 45.7456 123.25 45.6249C123.18 45.5044 123.083 45.4067 122.96 45.332C122.838 45.2573 122.679 45.2202 122.487 45.2202C122.32 45.2202 122.175 45.2554 122.052 45.3255C121.929 45.3956 121.828 45.4901 121.749 45.6083C121.67 45.7269 121.611 45.8652 121.572 46.023C121.532 46.181 121.512 46.3478 121.512 46.5231C121.512 46.7208 121.528 46.9019 121.558 47.0664C121.589 47.2309 121.642 47.3712 121.717 47.4876C121.791 47.6036 121.889 47.6946 122.009 47.7606C122.13 47.8264 122.282 47.8591 122.467 47.8591C122.651 47.8591 122.806 47.8221 122.931 47.7473C123.056 47.6729 123.156 47.5742 123.23 47.4513C123.305 47.3284 123.358 47.1879 123.388 47.0301C123.419 46.8721 123.434 46.7099 123.434 46.5429ZM124.007 46.5231C124.007 47.1113 123.874 47.5609 123.609 47.8724C123.344 48.184 122.96 48.3399 122.457 48.3399C121.962 48.3399 121.586 48.1883 121.327 47.8857C121.069 47.5828 120.94 47.1352 120.94 46.5429C120.94 46.2533 120.978 45.9968 121.055 45.7729C121.131 45.5493 121.239 45.3606 121.377 45.207C121.515 45.0535 121.678 44.9371 121.866 44.858C122.054 44.779 122.258 44.7395 122.477 44.7395C122.976 44.7395 123.356 44.8976 123.616 45.2134C123.877 45.5293 124.007 45.9661 124.007 46.5231Z" fill="white"/>
<path d="M125.29 45.7664V48.1685C125.29 48.2126 125.283 48.2399 125.267 48.251C125.252 48.2618 125.224 48.2673 125.185 48.2673H124.843C124.808 48.2673 124.781 48.2618 124.764 48.251C124.746 48.2399 124.737 48.2126 124.737 48.1685V45.0556C124.737 44.9942 124.757 44.9381 124.797 44.8878C124.836 44.8375 124.906 44.812 125.007 44.812H125.211C125.286 44.812 125.345 44.8242 125.389 44.8483C125.433 44.8724 125.475 44.9263 125.514 45.0096L126.205 46.4376C126.209 46.4552 126.232 46.5058 126.271 46.5891C126.311 46.6725 126.352 46.7635 126.396 46.8623C126.44 46.961 126.481 47.052 126.521 47.1353C126.561 47.2187 126.585 47.2669 126.593 47.2802H126.613C126.622 47.2582 126.649 47.1979 126.695 47.0991C126.741 47.0006 126.791 46.8942 126.843 46.7799C126.896 46.6658 126.945 46.5594 126.992 46.4606C127.038 46.3621 127.067 46.3017 127.08 46.2796C127.089 46.2622 127.109 46.2205 127.14 46.1547C127.17 46.0887 127.208 46.0121 127.252 45.9242C127.295 45.8367 127.34 45.7423 127.387 45.6413C127.433 45.5406 127.478 45.4462 127.521 45.3585C127.565 45.2705 127.603 45.195 127.633 45.1311C127.664 45.0678 127.684 45.0272 127.693 45.0096C127.736 44.9305 127.778 44.8778 127.818 44.8515C127.857 44.8253 127.916 44.812 127.995 44.812H128.199C128.3 44.812 128.369 44.8382 128.407 44.891C128.444 44.9435 128.463 44.9988 128.463 45.0556V48.1685C128.463 48.2126 128.455 48.2399 128.44 48.251C128.424 48.2618 128.397 48.2673 128.357 48.2673H128.015C127.98 48.2673 127.954 48.2618 127.936 48.251C127.918 48.2399 127.91 48.2126 127.91 48.1685V45.7138H127.883L127.554 46.4246C127.545 46.4376 127.518 46.4936 127.472 46.5924C127.426 46.6912 127.372 46.8063 127.311 46.9378C127.249 47.0693 127.186 47.2035 127.12 47.3394C127.054 47.4753 127.001 47.5852 126.962 47.6683C126.927 47.743 126.891 47.7947 126.853 47.8231C126.816 47.8518 126.758 47.8659 126.679 47.8659H126.527C126.448 47.8659 126.389 47.8518 126.35 47.8231C126.311 47.7947 126.273 47.743 126.238 47.6683C126.221 47.6333 126.184 47.5589 126.13 47.4447C126.074 47.3305 126.017 47.209 125.955 47.0793C125.894 46.95 125.834 46.8281 125.778 46.714C125.72 46.6 125.683 46.5255 125.665 46.4904C125.661 46.4817 125.641 46.4411 125.606 46.3686C125.571 46.2963 125.533 46.2173 125.491 46.1317C125.449 46.0462 125.412 45.9661 125.379 45.8914C125.346 45.817 125.328 45.7753 125.323 45.7664H125.29Z" fill="white"/>
<path d="M129.864 48.2509C129.847 48.262 129.82 48.2674 129.785 48.2674H129.423C129.388 48.2674 129.362 48.262 129.344 48.2509C129.327 48.2398 129.318 48.2125 129.318 48.1686V45.0821C129.318 45.0336 129.338 44.9765 129.377 44.9107C129.417 44.8449 129.489 44.8119 129.594 44.8119H131.957C132.062 44.8119 132.135 44.8449 132.174 44.9107C132.214 44.9765 132.233 45.0336 132.233 45.0821V48.1686C132.233 48.2125 132.226 48.2398 132.21 48.2509C132.195 48.262 132.168 48.2674 132.128 48.2674H131.766C131.731 48.2674 131.705 48.262 131.687 48.2509C131.67 48.2398 131.661 48.2125 131.661 48.1686V45.3124H129.891V48.1686C129.891 48.2125 129.881 48.2398 129.864 48.2509Z" fill="white"/>
<path d="M135.189 46.5693H134.425C134.346 46.5693 134.255 46.575 134.152 46.5858C134.049 46.5967 133.951 46.6253 133.859 46.6714C133.767 46.7174 133.689 46.7853 133.626 46.8752C133.562 46.9653 133.53 47.0893 133.53 47.2471C133.53 47.3656 133.552 47.4655 133.596 47.5467C133.64 47.6279 133.699 47.6915 133.773 47.7375C133.848 47.7835 133.936 47.8165 134.037 47.8363C134.138 47.8561 134.247 47.8658 134.366 47.8658C134.405 47.8658 134.457 47.8647 134.52 47.8626C134.584 47.8604 134.654 47.8539 134.731 47.8428C134.808 47.832 134.886 47.8187 134.965 47.8033C135.044 47.7878 135.118 47.7671 135.189 47.7407V46.5693ZM135.774 47.9448C135.774 48.0325 135.741 48.0897 135.676 48.1159C135.478 48.2038 135.264 48.2628 135.034 48.2938C134.803 48.3243 134.583 48.3397 134.372 48.3397C134.087 48.3397 133.853 48.3099 133.672 48.2507C133.489 48.1912 133.346 48.1108 133.24 48.0098C133.135 47.9086 133.062 47.7919 133.02 47.6599C132.978 47.528 132.957 47.3892 132.957 47.2441C132.957 47.0944 132.983 46.948 133.033 46.8051C133.083 46.6622 133.166 46.5366 133.28 46.4289C133.394 46.3211 133.542 46.2343 133.724 46.1682C133.906 46.1022 134.129 46.0692 134.392 46.0692H135.195V45.9255C135.195 45.821 135.185 45.7273 135.165 45.6448C135.146 45.562 135.107 45.4902 135.05 45.4293C134.993 45.3684 134.913 45.3216 134.81 45.2888C134.707 45.2561 134.574 45.2399 134.412 45.2399C134.258 45.2399 134.095 45.2532 133.921 45.2794C133.748 45.3056 133.607 45.3365 133.497 45.3714C133.462 45.3847 133.433 45.389 133.412 45.3847C133.39 45.3804 133.374 45.3606 133.365 45.3254L133.286 45.0422C133.277 45.0204 133.277 44.9995 133.283 44.9797C133.29 44.9602 133.311 44.9437 133.346 44.9305C133.512 44.8604 133.703 44.8109 133.918 44.7825C134.133 44.754 134.331 44.7397 134.511 44.7397C134.949 44.7397 135.27 44.8374 135.471 45.0325C135.673 45.2277 135.774 45.5119 135.774 45.8848V47.9448Z" fill="white"/>
<path d="M137.18 48.2443C137.16 48.2598 137.129 48.2674 137.085 48.2674H136.767C136.723 48.2674 136.69 48.2598 136.669 48.2443C136.647 48.2289 136.636 48.1972 136.636 48.1487V44.9239C136.636 44.8757 136.647 44.8448 136.669 44.8319C136.69 44.8186 136.723 44.8121 136.767 44.8121H137.085C137.129 44.8121 137.16 44.8186 137.18 44.8319C137.199 44.8448 137.209 44.8757 137.209 44.9239V46.1678H138.914V44.9239C138.914 44.8757 138.923 44.8448 138.944 44.8319C138.963 44.8186 138.996 44.8121 139.04 44.8121H139.366C139.415 44.8121 139.447 44.8186 139.463 44.8319C139.478 44.8448 139.486 44.8757 139.486 44.9239V48.1487C139.486 48.1972 139.478 48.2289 139.463 48.2443C139.447 48.2598 139.415 48.2674 139.366 48.2674H139.04C138.996 48.2674 138.963 48.2598 138.944 48.2443C138.923 48.2289 138.914 48.1972 138.914 48.1487V46.6547H137.209V48.1487C137.209 48.1972 137.199 48.2289 137.18 48.2443Z" fill="white"/>
<path d="M140.348 44.9107C140.348 44.8669 140.357 44.8382 140.375 44.8252C140.393 44.812 140.42 44.8055 140.455 44.8055H140.815C140.854 44.8055 140.882 44.812 140.897 44.8252C140.913 44.8382 140.921 44.8669 140.921 44.9107V47.4512H140.947C141.053 47.2847 141.147 47.1321 141.233 46.9938C141.318 46.8557 141.415 46.7074 141.525 46.5496L142.516 45.0161C142.56 44.9416 142.601 44.8888 142.641 44.8583C142.68 44.8274 142.743 44.812 142.831 44.812H143.002C143.076 44.812 143.138 44.8342 143.189 44.8778C143.239 44.9219 143.264 44.9876 143.264 45.0753V48.1752C143.264 48.2147 143.256 48.2399 143.241 48.251C143.226 48.2618 143.198 48.2672 143.159 48.2672H142.797C142.762 48.2672 142.735 48.2618 142.718 48.251C142.7 48.2399 142.691 48.2147 142.691 48.1752V45.661H142.652C142.599 45.74 142.552 45.8134 142.51 45.8816C142.469 45.9496 142.427 46.0175 142.385 46.0854C142.344 46.1537 142.301 46.2226 142.257 46.2927C142.213 46.3631 142.165 46.4378 142.113 46.5166L141.086 48.0699C141.037 48.1446 140.99 48.196 140.944 48.2245C140.898 48.2532 140.838 48.2672 140.763 48.2672H140.612C140.533 48.2672 140.469 48.2466 140.421 48.2047C140.373 48.1633 140.348 48.0983 140.348 48.0106V44.9107Z" fill="white"/>
<path d="M145.548 44.4633C145.328 44.4633 145.129 44.3953 144.949 44.2592C144.769 44.1234 144.616 43.9609 144.488 43.7723C144.48 43.759 144.472 43.7414 144.465 43.7195C144.459 43.6976 144.473 43.6735 144.508 43.6473L144.633 43.5352C144.673 43.5133 144.699 43.5057 144.712 43.5122C144.725 43.5189 144.747 43.5352 144.778 43.5614C144.905 43.7019 145.038 43.8118 145.176 43.8906C145.314 43.9696 145.447 44.0091 145.574 44.0091C145.671 44.0091 145.783 43.9797 145.91 43.9203C146.037 43.861 146.191 43.735 146.371 43.5419C146.406 43.5111 146.43 43.4971 146.443 43.4989C146.456 43.5014 146.474 43.509 146.496 43.5219L146.627 43.6275C146.662 43.6627 146.677 43.6911 146.67 43.713C146.663 43.735 146.656 43.7526 146.647 43.7655C146.463 44.0156 146.275 44.1946 146.084 44.302C145.893 44.4097 145.715 44.4633 145.548 44.4633ZM144.126 44.9107C144.126 44.8671 144.135 44.8384 144.153 44.8251C144.171 44.8122 144.197 44.8054 144.233 44.8054H144.593C144.632 44.8054 144.66 44.8122 144.675 44.8251C144.691 44.8384 144.699 44.8671 144.699 44.9107V47.4513H144.725C144.83 47.2846 144.925 47.132 145.011 46.9939C145.096 46.8557 145.193 46.7076 145.303 46.5496L146.294 45.0159C146.338 44.9415 146.379 44.8887 146.418 44.8582C146.458 44.8276 146.521 44.8122 146.609 44.8122H146.78C146.854 44.8122 146.916 44.8341 146.966 44.8779C147.017 44.9218 147.042 44.9876 147.042 45.0753V48.1752C147.042 48.2147 147.034 48.2401 147.019 48.2509C147.004 48.262 146.976 48.2674 146.937 48.2674H146.575C146.539 48.2674 146.513 48.262 146.496 48.2509C146.478 48.2401 146.469 48.2147 146.469 48.1752V45.661H146.43C146.377 45.74 146.33 45.8136 146.288 45.8815C146.247 45.9497 146.205 46.0177 146.163 46.0856C146.121 46.1538 146.079 46.2226 146.035 46.293C145.991 46.3633 145.943 46.4378 145.89 46.5165L144.863 48.0698C144.815 48.1445 144.768 48.1963 144.722 48.2244C144.676 48.2531 144.616 48.2674 144.541 48.2674H144.39C144.311 48.2674 144.247 48.2466 144.199 48.2049C144.151 48.1632 144.126 48.0985 144.126 48.0106V44.9107Z" fill="white"/>
<path d="M151.307 46.6745L152.109 47.9383C152.131 47.9778 152.135 48.0083 152.119 48.0303C152.104 48.0525 152.077 48.0633 152.037 48.0633H151.695C151.629 48.0633 151.583 48.0525 151.557 48.0303C151.53 48.0083 151.506 47.98 151.484 47.9447L150.826 46.9048C150.808 46.8743 150.79 46.8348 150.77 46.7866C150.75 46.7381 150.74 46.6968 150.74 46.6616C150.74 46.6045 150.751 46.5541 150.773 46.51C150.795 46.4661 150.817 46.4266 150.839 46.3917L151.471 45.3583C151.493 45.3231 151.518 45.2947 151.547 45.2728C151.575 45.2509 151.62 45.2398 151.682 45.2398H152.011C152.055 45.2398 152.084 45.253 152.1 45.2793C152.115 45.3056 152.112 45.3364 152.09 45.3716L151.307 46.6745ZM150.234 46.6745L151.037 47.9383C151.059 47.9778 151.062 48.0083 151.046 48.0303C151.031 48.0525 151.001 48.0633 150.958 48.0633H150.622C150.552 48.0633 150.503 48.0525 150.477 48.0303C150.451 48.0083 150.427 47.98 150.405 47.9447L149.746 46.9048C149.729 46.8743 149.711 46.8348 149.691 46.7866C149.671 46.7381 149.661 46.6968 149.661 46.6616C149.661 46.6045 149.672 46.5541 149.694 46.51C149.716 46.4661 149.738 46.4266 149.76 46.3917L150.392 45.3583C150.414 45.3231 150.439 45.2947 150.467 45.2728C150.496 45.2509 150.543 45.2398 150.609 45.2398H150.938C150.977 45.2398 151.005 45.253 151.02 45.2793C151.036 45.3056 151.032 45.3364 151.01 45.3716L150.234 46.6745Z" fill="white"/>
<path d="M155.969 48.2345C155.954 48.2566 155.92 48.2674 155.867 48.2674H154.038C153.823 48.2674 153.644 48.2366 153.501 48.1751C153.359 48.1137 153.245 48.0325 153.159 47.9316C153.074 47.8309 153.013 47.7124 152.978 47.5762C152.943 47.4403 152.925 47.2955 152.925 47.1418V44.7857C152.925 44.6368 152.945 44.4928 152.985 44.3547C153.024 44.2165 153.089 44.0957 153.179 43.9926C153.269 43.8895 153.384 43.8075 153.524 43.746C153.665 43.6843 153.836 43.6538 154.038 43.6538H155.834C155.883 43.6538 155.914 43.6649 155.93 43.6865C155.945 43.7087 155.953 43.7436 155.953 43.7918V44.0684C155.953 44.1169 155.945 44.1507 155.93 44.1705C155.914 44.1903 155.883 44.2 155.834 44.2H154.044C153.86 44.2 153.727 44.2406 153.646 44.3218C153.565 44.4029 153.524 44.5291 153.524 44.7002V45.556H155.617C155.666 45.556 155.697 45.5668 155.713 45.5888C155.728 45.6106 155.736 45.6458 155.736 45.694V45.9441C155.736 45.9879 155.728 46.0209 155.713 46.0429C155.697 46.0648 155.666 46.0756 155.617 46.0756H153.524V47.2208C153.524 47.3702 153.564 47.4899 153.643 47.5797C153.722 47.6695 153.856 47.7145 154.044 47.7145H155.867C155.92 47.7145 155.954 47.7256 155.969 47.7475C155.985 47.7694 155.992 47.8047 155.992 47.8528V48.1291C155.992 48.1776 155.985 48.2125 155.969 48.2345Z" fill="white"/>
<path d="M159.02 45.7992C159.134 45.8344 159.228 45.8783 159.303 45.9307C159.377 45.9835 159.44 46.045 159.49 46.1151C159.541 46.1855 159.581 46.262 159.612 46.3454C159.643 46.4291 159.671 46.521 159.697 46.622L160.112 48.1489C160.121 48.1707 160.121 48.1959 160.112 48.2244C160.103 48.2531 160.075 48.2674 160.026 48.2674H159.625C159.603 48.2674 159.579 48.263 159.553 48.2541C159.526 48.2455 159.509 48.2211 159.5 48.1819L159.105 46.7141C159.07 46.5869 159.028 46.4827 158.98 46.4014C158.932 46.3203 158.872 46.2556 158.802 46.2074C158.732 46.1592 158.653 46.1262 158.566 46.1086C158.478 46.091 158.377 46.0823 158.263 46.0823H157.328V48.1686C157.328 48.2125 157.32 48.24 157.305 48.2508C157.29 48.262 157.262 48.2674 157.223 48.2674H156.841C156.806 48.2674 156.78 48.262 156.762 48.2508C156.745 48.24 156.736 48.2125 156.736 48.1686V43.759C156.736 43.7151 156.745 43.6878 156.762 43.6767C156.78 43.6659 156.806 43.6602 156.841 43.6602H157.229C157.269 43.6602 157.296 43.6659 157.311 43.6767C157.327 43.6878 157.333 43.7151 157.328 43.759V45.5359H158.203C158.273 45.5359 158.348 45.5286 158.427 45.5128C158.506 45.4977 158.582 45.4669 158.654 45.4208C158.727 45.3748 158.794 45.308 158.855 45.22C158.917 45.1323 158.967 45.0159 159.006 44.8711L159.303 43.7327C159.311 43.6932 159.328 43.6691 159.352 43.6602C159.376 43.6515 159.399 43.6472 159.421 43.6472H159.783C159.836 43.6472 159.865 43.6624 159.872 43.6932C159.878 43.724 159.877 43.7504 159.869 43.7722L159.579 44.9501C159.531 45.1391 159.463 45.3023 159.375 45.4406C159.287 45.5789 159.169 45.6875 159.02 45.7662V45.7992Z" fill="white"/>
<path d="M162.718 47.7737C162.911 47.7737 163.096 47.7518 163.271 47.7079C163.446 47.6641 163.611 47.607 163.765 47.5369C163.813 47.5147 163.848 47.5128 163.87 47.5301C163.892 47.5477 163.907 47.5674 163.916 47.5894L164.041 47.8657C164.068 47.9185 164.077 47.9548 164.068 47.9745C164.059 47.994 164.039 48.0151 164.008 48.037C163.903 48.0985 163.79 48.1488 163.669 48.1883C163.549 48.2279 163.428 48.2587 163.308 48.2806C163.187 48.3023 163.067 48.3177 162.949 48.3264C162.83 48.3353 162.718 48.3396 162.613 48.3396C162.306 48.3396 162.031 48.2937 161.787 48.2016C161.543 48.1093 161.338 47.9691 161.172 47.7802C161.005 47.5918 160.877 47.3525 160.787 47.063C160.697 46.7733 160.652 46.4291 160.652 46.0296C160.652 45.6609 160.7 45.3264 160.796 45.026C160.893 44.7255 161.029 44.4689 161.205 44.2559C161.38 44.0432 161.592 43.8798 161.84 43.7655C162.088 43.6516 162.361 43.5944 162.659 43.5944C162.848 43.5944 163.043 43.6109 163.245 43.644C163.446 43.6767 163.66 43.7503 163.883 43.8643C163.91 43.8775 163.927 43.8952 163.936 43.9168C163.945 43.939 163.938 43.972 163.916 44.0156L163.765 44.3185C163.752 44.3447 163.737 44.3634 163.722 44.3742C163.707 44.3853 163.682 44.3821 163.646 44.3645C163.339 44.2286 163.019 44.1604 162.686 44.1604C162.435 44.1604 162.221 44.2132 162.044 44.3185C161.866 44.4237 161.719 44.5631 161.603 44.7364C161.486 44.9096 161.402 45.1093 161.349 45.3353C161.297 45.5614 161.27 45.7928 161.27 46.0296C161.27 46.271 161.293 46.497 161.34 46.7076C161.386 46.9181 161.465 47.1025 161.576 47.2605C161.688 47.4184 161.837 47.5434 162.024 47.6354C162.21 47.7277 162.442 47.7737 162.718 47.7737Z" fill="white"/>
<path d="M165.647 45.3714C165.625 45.3365 165.622 45.3057 165.637 45.2794C165.653 45.2531 165.68 45.2399 165.72 45.2399H166.048C166.115 45.2399 166.16 45.2507 166.187 45.2726C166.213 45.2948 166.239 45.3233 166.266 45.3585L166.898 46.3916C166.915 46.4268 166.936 46.4663 166.96 46.5101C166.984 46.554 166.996 46.6045 166.996 46.6614C166.996 46.6966 166.986 46.7383 166.967 46.7864C166.947 46.8349 166.926 46.8744 166.904 46.905L166.253 47.9449C166.231 47.9801 166.205 48.0085 166.177 48.0304C166.149 48.0523 166.101 48.0632 166.035 48.0632H165.7C165.656 48.0632 165.626 48.0523 165.611 48.0304C165.596 48.0085 165.599 47.9776 165.621 47.9381L166.43 46.6744L165.647 45.3714ZM164.568 45.3714C164.546 45.3365 164.542 45.3057 164.558 45.2794C164.573 45.2531 164.603 45.2399 164.647 45.2399H164.976C165.042 45.2399 165.088 45.2507 165.114 45.2726C165.14 45.2948 165.164 45.3233 165.186 45.3585L165.818 46.3916C165.84 46.4268 165.863 46.4663 165.887 46.5101C165.911 46.554 165.923 46.6045 165.923 46.6614C165.923 46.6966 165.914 46.7383 165.894 46.7864C165.874 46.8349 165.853 46.8744 165.832 46.905L165.18 47.9449C165.158 47.9801 165.133 48.0085 165.104 48.0304C165.076 48.0523 165.029 48.0632 164.963 48.0632H164.62C164.577 48.0632 164.547 48.0523 164.532 48.0304C164.516 48.0085 164.519 47.9776 164.541 47.9381L165.351 46.6744L164.568 45.3714Z" fill="white"/>
<defs>
<linearGradient id="paint0_linear_224_48" x1="14.998" y1="49.0709" x2="11.2808" y2="67.3199" gradientUnits="userSpaceOnUse">
<stop stop-color="#792327"/>
<stop offset="1" stop-color="#D74E22"/>
</linearGradient>
<linearGradient id="paint1_linear_224_48" x1="34.9098" y1="28.6981" x2="5.36148" y2="28.6981" gradientUnits="userSpaceOnUse">
<stop stop-color="#792327"/>
<stop offset="0.760784" stop-color="#A83825"/>
<stop offset="1" stop-color="#D74E22"/>
</linearGradient>
<linearGradient id="paint2_linear_224_48" x1="27.3976" y1="1.54819" x2="27.3976" y2="55.4513" gradientUnits="userSpaceOnUse">
<stop stop-color="#7D2426"/>
<stop offset="1" stop-color="#A83825"/>
</linearGradient>
</defs>
</svg>
