<?xml version="1.0" encoding="utf-8"?>
<!-- Generator: Adobe Illustrator 22.1.0, SVG Export Plug-In . SVG Version: 6.00 Build 0)  -->
<svg version="1.1" id="Layer_1" xmlns="http://www.w3.org/2000/svg" xmlns:xlink="http://www.w3.org/1999/xlink" x="0px" y="0px"
	 viewBox="0 0 371.3 99.2" style="enable-background:new 0 0 371.3 99.2;" xml:space="preserve">
<style type="text/css">
	.st0{clip-path:url(#SVGID_2_);}
	.st1{clip-path:url(#SVGID_4_);fill:#DC0532;}
	.st2{clip-path:url(#SVGID_4_);fill:#FFFFFF;}
	.st3{clip-path:url(#SVGID_6_);fill:#FFFFFF;}
	.st4{clip-path:url(#SVGID_6_);}
	.st5{clip-path:url(#SVGID_8_);fill:#DC0532;}
	.st6{clip-path:url(#SVGID_8_);fill:#FFFFFF;}
	.st7{clip-path:url(#SVGID_10_);fill:#DC0532;}
	.st8{clip-path:url(#SVGID_10_);}
	.st9{clip-path:url(#SVGID_12_);fill:#FFFFFF;}
	.st10{clip-path:url(#SVGID_14_);}
	.st11{clip-path:url(#SVGID_16_);fill:#757378;}
	.st12{clip-path:url(#SVGID_16_);fill:#FFFFFF;}
	.st13{clip-path:url(#SVGID_18_);}
	.st14{clip-path:url(#SVGID_20_);}
	.st15{clip-path:url(#SVGID_22_);}
	.st16{clip-path:url(#SVGID_24_);fill:#FFFFFF;}
	.st17{clip-path:url(#SVGID_26_);}
	.st18{clip-path:url(#SVGID_28_);fill:#DC0532;}
	.st19{clip-path:url(#SVGID_30_);}
	.st20{clip-path:url(#SVGID_32_);fill:#DC0532;}
	.st21{clip-path:url(#SVGID_32_);fill:#FFFFFF;}
	.st22{clip-path:url(#SVGID_34_);}
	.st23{clip-path:url(#SVGID_36_);fill:#FFFFFF;}
	.st24{clip-path:url(#SVGID_38_);}
	.st25{clip-path:url(#SVGID_40_);fill:#DC0532;}
	.st26{clip-path:url(#SVGID_40_);fill:#FFFFFF;}
	.st27{clip-path:url(#SVGID_42_);fill:#FFFFFF;}
	.st28{clip-path:url(#SVGID_42_);}
	.st29{clip-path:url(#SVGID_44_);fill:#DC0532;}
	.st30{clip-path:url(#SVGID_44_);fill:#FFFFFF;}
	.st31{clip-path:url(#SVGID_46_);fill:#DC0532;}
	.st32{clip-path:url(#SVGID_46_);}
	.st33{clip-path:url(#SVGID_48_);fill:#FFFFFF;}
	.st34{clip-path:url(#SVGID_50_);}
	.st35{clip-path:url(#SVGID_52_);fill:#757378;}
	.st36{clip-path:url(#SVGID_52_);fill:#FFFFFF;}
	.st37{clip-path:url(#SVGID_54_);}
	.st38{clip-path:url(#SVGID_56_);}
	.st39{clip-path:url(#SVGID_58_);}
	.st40{clip-path:url(#SVGID_60_);fill:#FFFFFF;}
	.st41{clip-path:url(#SVGID_62_);}
	.st42{clip-path:url(#SVGID_64_);fill:#DC0532;}
	.st43{clip-path:url(#SVGID_66_);}
	.st44{clip-path:url(#SVGID_68_);fill:#DC0532;}
	.st45{clip-path:url(#SVGID_68_);fill:#FFFFFF;}
	.st46{clip-path:url(#SVGID_70_);}
	.st47{clip-path:url(#SVGID_72_);fill:#FFFFFF;}
</style>
<g>
	<g>
		<defs>
			<rect id="SVGID_33_" width="371.3" height="99.2"/>
		</defs>
		<clipPath id="SVGID_2_">
			<use xlink:href="#SVGID_33_"  style="overflow:visible;"/>
		</clipPath>
		<g class="st0">
			<defs>
				<rect id="SVGID_35_" y="0" width="371.3" height="99.2"/>
			</defs>
			<clipPath id="SVGID_4_">
				<use xlink:href="#SVGID_35_"  style="overflow:visible;"/>
			</clipPath>
			<path style="clip-path:url(#SVGID_4_);fill:#FFFFFF;" d="M71.4,74.6c2,0,3.5-1.6,3.5-3.5V28.1c0-2-1.6-3.5-3.6-3.5
				c-0.4,0-1.3,0.1-1.7,0.2c-6.1,0.8-16.3,3.4-24.1,10.9c-9.5,9.1-4.4,16.6,3.6,15.8c0.2,0,0.3,0.2,0,0.3c-4.6,1-13.3,0.8-16.3-8.7
				c-2.8-9.1,4-18.4,4-18.4h-8.3c-1.9,0-3.5,1.6-3.5,3.5v43c0,1.7,1.4,3.7,4.1,3.4c5.7-0.6,17-3.1,25.3-11
				c9.5-9.1,4.4-16.6-3.5-15.7c-0.2,0-0.3-0.2,0-0.3c4.6-1,13.3-0.8,16.3,8.7c2.8,9.1-4,18.4-4,18.4H71.4z"/>
			<path style="clip-path:url(#SVGID_4_);fill:#FFFFFF;" d="M305.4,64.4h7.7l2.4-20.1l7.1,20.1h6.2l7.1-20.2l2.4,20.2h7.7l-4.1-31.7
				H333l-7.4,21.2l-7.4-21.2h-8.7L305.4,64.4z M276.8,48.7c0-5.3,4-9.4,9.1-9.4c5,0,9.1,4,9.1,9.4c0,5.3-4,9.3-9.1,9.3
				C280.7,58.1,276.8,54.1,276.8,48.7 M285.7,65.3c9.4,0,16.8-7.3,16.8-16.5c0-9.3-7.3-16.7-16.7-16.7c-9.4,0-16.7,7.4-16.7,16.7
				C269.1,57.9,276.4,65.3,285.7,65.3 M250.1,64.4h7.7V39.9h9.4v-7.1h-26.4v7.1h9.4V64.4z M211.8,48.7c0-5.3,3.9-9.3,8.9-9.3
				c5.1,0,9.1,4,9.1,9.3c0,5.4-4,9.2-9.1,9.2S211.8,54.1,211.8,48.7 M220.1,65.2c4.2,0,7.4-1.8,9.7-4.5l0.5,3.7h6.7V32.8h-6.7
				l-0.5,3.8c-2.3-2.7-5.5-4.5-9.8-4.5c-8.7,0-15.9,7.3-15.9,16.5C204.2,57.9,211.4,65.2,220.1,65.2 M168.4,64.4h7.7V51.6h14.7v12.8
				h7.7V32.8h-7.7v11.9h-14.7V32.8h-7.7V64.4z M160.7,64.4V32.8H153l-14.7,19.1V32.8h-7.7v31.7h7.2L153,44.2v20.2H160.7z
				 M114.6,65.3c4.6,0,8.7-1.8,11.5-4.4l-3.8-5.5c-2,1.7-4.3,2.8-7.3,2.8c-5,0-9.3-4.1-9.3-9.5c0-5.5,4.2-9.6,9.3-9.6
				c3,0,5.2,1.1,7.3,2.9l3.9-5.5c-2.9-2.6-6.8-4.4-11.5-4.4c-9.4,0-16.5,7.5-16.5,16.6C98,57.8,105,65.3,114.6,65.3"/>
		</g>
	</g>
</g>
</svg>
