<svg width="146" height="32" viewBox="0 0 146 32" fill="none" xmlns="http://www.w3.org/2000/svg">
<g clip-path="url(#clip0_2003_1802)">
<path d="M3.85931 17.8957C4.80677 19.8253 6.60107 20.8405 9.10597 20.8405C10.9341 20.8405 12.0846 20.2991 12.0846 19.3845C12.0846 16.6766 1.31967 19.5199 1.31967 12.6481C1.31967 9.19576 4.06142 7.02924 8.46214 7.02924C11.5761 7.02924 14.2849 8.14588 16.349 10.2786L13.2351 13.1895C12.2876 11.8013 10.3918 10.9553 8.32679 10.9553C6.70167 10.9553 5.72038 11.4629 5.72038 12.2759C5.72038 14.95 16.4853 12.1405 16.4853 19.0123C16.4853 22.5333 13.642 24.7665 9.10597 24.7665C4.80677 24.7665 1.2529 22.7692 0 19.6891L3.85931 17.8948V17.8957ZM21.0214 -0.0117188C22.7818 -0.0117188 23.8985 1.10492 23.8985 2.89923C23.8985 4.69353 22.7818 5.81017 21.0214 5.81017C19.2609 5.81017 18.0766 4.6597 18.0766 2.89923C18.0766 1.13876 19.2609 -0.0117188 21.0214 -0.0117188ZM18.6857 7.43529H23.2894V24.3605H18.6857V7.43529ZM26.0312 13.7657C26.0312 9.56797 28.5361 7.02924 32.6661 7.02924C34.6972 7.02924 36.1193 7.67215 37.4728 9.19576C38.5218 7.70599 39.9439 7.02924 42.0766 7.02924C46.1727 7.02924 48.6438 9.56797 48.6438 13.7657V24.3614H44.0401V14.511C44.0401 12.4122 43.3633 11.4985 41.8397 11.4985C40.3161 11.4985 39.6732 12.3783 39.6732 14.511V24.3614H35.0694V14.511C35.0694 12.4122 34.3927 11.4985 32.8353 11.4985C31.2778 11.4985 30.6349 12.4122 30.6349 14.511V24.3614H26.0312V13.7657ZM51.2164 15.8983C51.2164 10.787 54.9403 7.02924 60.0178 7.02924C65.0953 7.02924 68.8531 10.8209 68.8531 15.8983C68.8531 20.9758 65.1629 24.7674 60.3223 24.7674C58.6295 24.7674 57.0053 24.3276 55.8201 23.5484V32.0114H51.2164V15.8983ZM60.0178 20.2991C62.455 20.2991 64.114 18.5386 64.114 15.8983C64.114 13.2581 62.455 11.4976 59.984 11.4976C57.5129 11.4976 55.9555 13.2581 55.9555 15.8983C55.9555 18.5386 57.5467 20.2991 60.0178 20.2991ZM75.4203 0.665033V15.5929C75.4203 18.8084 76.6055 20.1628 79.5842 20.2981V24.7665C73.9991 24.7665 70.8166 21.7541 70.8166 16.405V0.665033H75.4203ZM96.4417 21.8903C94.512 23.7523 91.9394 24.7674 89.1977 24.7674C83.951 24.7674 80.1932 21.0773 80.1932 15.9322C80.1932 10.787 83.9172 7.02924 88.9608 7.02924C94.0044 7.02924 97.5592 10.787 97.5592 15.966C97.5592 16.7443 97.4916 17.1165 97.4239 17.5911H84.9332C85.5085 19.5208 87.0321 20.5698 89.3001 20.5698C90.9591 20.5698 92.3126 19.9945 93.5316 18.7755L96.4426 21.8894L96.4417 21.8903ZM92.8192 14.4086C92.4132 12.4451 90.8896 11.2269 88.9599 11.2269C87.0303 11.2269 85.4728 12.4122 84.9314 14.4086H92.8183H92.8192ZM99.5218 15.8983C99.5218 10.787 103.246 7.02924 108.323 7.02924C113.401 7.02924 117.158 10.8209 117.158 15.8983C117.158 20.9758 113.468 24.7674 108.594 24.7674C106.935 24.7674 105.311 24.3276 104.126 23.5484V32.0114H99.5218V15.8983ZM108.323 20.2991C110.76 20.2991 112.419 18.5386 112.419 15.8983C112.419 13.2581 110.76 11.4976 108.289 11.4976C105.818 11.4976 104.261 13.2581 104.261 15.8983C104.261 18.5386 105.852 20.2991 108.323 20.2991ZM119.088 15.4246C119.088 10.0765 122.27 7.02924 127.856 7.02924V11.4976C124.877 11.6668 123.692 13.0551 123.692 16.3044V24.3605H119.088V15.4237V15.4246ZM137.131 7.02924C142.208 7.02924 146 10.8209 146 15.9322C146 21.0435 142.242 24.7674 137.131 24.7674C132.02 24.7674 128.363 21.0435 128.363 15.9322C128.363 10.8209 132.087 7.02924 137.131 7.02924ZM137.131 20.2991C139.602 20.2991 141.261 18.5048 141.261 15.8983C141.261 13.2919 139.602 11.4976 137.131 11.4976C134.66 11.4976 133.102 13.2243 133.102 15.8983C133.102 18.5724 134.694 20.2991 137.131 20.2991Z" fill="#FF1428"/>
</g>
<defs>
<clipPath id="clip0_2003_1802">
<rect width="146" height="32" fill="white"/>
</clipPath>
</defs>
</svg>
