<?xml version="1.0" encoding="utf-8"?>
<!-- Generator: Adobe Illustrator 15.1.0, SVG Export Plug-In . SVG Version: 6.00 Build 0)  -->
<!DOCTYPE svg PUBLIC "-//W3C//DTD SVG 1.1//EN" "http://www.w3.org/Graphics/SVG/1.1/DTD/svg11.dtd">
<svg version="1.1" id="Слой_1" xmlns="http://www.w3.org/2000/svg" xmlns:xlink="http://www.w3.org/1999/xlink" x="0px" y="0px"
	 width="217.333px" height="97.667px" viewBox="0 0 217.333 97.667" enable-background="new 0 0 217.333 97.667"
	 xml:space="preserve">
<g>
	<polygon fill="none" stroke="#C3C5CA" stroke-width="0.5669" stroke-miterlimit="22.9256" points="-61.383,159.097 
		278.774,159.097 278.774,-62.05 -61.383,-62.05 -61.383,159.097 	"/>
	<polygon fill-rule="evenodd" clip-rule="evenodd" fill="#ED8500" points="2.349,95.354 61.577,95.354 78.768,78.163 19.542,78.163 
		19.542,14.429 2.349,31.622 2.349,95.354 	"/>
	<path fill-rule="evenodd" clip-rule="evenodd" fill="#003164" d="M182.646,81.896v3.707h5.227c0.975,0,2.084-0.816,2.084-1.854
		s-1.107-1.854-2.084-1.854H182.646L182.646,81.896z M197.849,65.416h17.193V34.155l-17.193-14.898V65.416L197.849,65.416z
		 M32.288,50.055v15.36h59.227v-15.36H32.288L32.288,50.055z M32.288,1.683v15.361h59.227V1.683H32.288L32.288,1.683z
		 M32.288,25.869V41.23h59.227V25.869H32.288L32.288,25.869z M108.865,65.416h17.193V33.708L108.865,18.81V65.416L108.865,65.416z
		 M180.61,65.416h-17.191V24.002l-17.328,15.032h-1.354h-1.352l-17.328-15.032v0.016L108.865,9.12V1.683h15.097l20.775,17.99
		l20.777-17.99h15.096V65.416L180.61,65.416z M215.042,24.465V1.683h-17.193v7.884L215.042,24.465L215.042,24.465z M104.869,82.917
		l2.079-2.796c-1.995-1.543-5.239-2.385-7.906-2.385c-3.377,0-7.834,1.622-7.834,5.299c0,6.777,11.543,4.355,11.543,7.196
		c0,1.662-3.202,1.897-4.409,1.897c-2.007,0-4.166-0.73-5.785-1.852l-2.417,2.697c2.225,1.829,5.561,2.788,8.436,2.788
		c3.383,0,8.538-1.471,8.538-5.531c0-6.777-11.543-4.299-11.543-7.196c0-1.334,2.751-1.667,3.707-1.667
		C101.249,81.368,103.254,81.983,104.869,82.917L104.869,82.917z M165.378,83.673c-1.043,2.211-1.746,3.696-2.389,5.057h4.768
		C167.161,87.458,166.501,86.056,165.378,83.673L165.378,83.673z M161.237,92.455c-0.391,0.833-0.83,1.775-1.361,2.91h-4.758
		l8.344-17.192h3.834l8.342,17.192h-4.756l-1.375-2.91H161.237L161.237,92.455z M136.558,84.075v11.29h-4.184V78.172h3.904
		l6.057,5.862l6.057-5.862h3.904v17.192h-4.184v-11.29l-4.773,4.688h-2.008L136.558,84.075L136.558,84.075z M119.292,83.673
		c-1.043,2.211-1.744,3.696-2.389,5.057h4.768C121.073,87.458,120.415,86.056,119.292,83.673L119.292,83.673z M115.151,92.455
		c-0.391,0.833-0.83,1.775-1.361,2.91h-4.757l8.343-17.192h3.834l8.342,17.192h-4.756l-1.375-2.91H115.151L115.151,92.455z
		 M206.183,83.673c-1.043,2.211-1.746,3.696-2.389,5.057h4.766C207.964,87.458,207.306,86.056,206.183,83.673L206.183,83.673z
		 M202.04,92.455c-0.389,0.833-0.83,1.775-1.359,2.91h-4.758l8.342-17.192h3.836l8.342,17.192h-4.758l-1.373-2.91H202.04
		L202.04,92.455z M190.882,88.743l3.57,6.622h-4.582l-3.063-6.038h-4.162v6.038h-4.186V78.172h9.412c3.307,0,6.5,1.984,6.5,5.577
		C194.372,86.206,192.882,87.91,190.882,88.743L190.882,88.743z"/>
</g>
</svg>
