<?xml version="1.0" encoding="UTF-8"?> <svg xmlns="http://www.w3.org/2000/svg" width="167" height="36" viewBox="0 0 167 36" fill="none"><g clip-path="url(#clip0_8166_1123)"><path d="M152.632 19.1075C152.384 19.4072 152.067 19.5572 151.68 19.5572C151.292 19.5572 150.975 19.4072 150.728 19.1075C150.48 18.808 150.355 18.3901 150.355 17.8539C150.355 17.3174 150.48 16.902 150.728 16.6077C150.975 16.3134 151.292 16.1661 151.68 16.1661C152.066 16.1661 152.384 16.3136 152.632 16.6077C152.88 16.902 153.003 17.3175 153.003 17.8539C153.003 18.39 152.88 18.808 152.632 19.1075ZM75.3838 17.5697L76.3952 14.7936L77.4072 17.5697H75.3836H75.3838ZM85.2339 22.1752H88.5812V16.3233H91.0655V13.5474H82.7495V16.3233H85.2339V22.1752ZM68.8585 22.1752L69.3572 20.9657L67.1292 17.7431L70.1195 13.5474H66.5937L65.3736 15.3773L64.2133 13.5474H60.4199L63.41 17.9006L60.3306 22.175H63.9752L65.2249 20.3297L66.3408 22.175H68.8588L68.8585 22.1752ZM140.075 16.6152C140.323 16.3155 140.64 16.1656 141.027 16.1656C141.414 16.1656 141.731 16.3155 141.979 16.6152C142.227 16.9149 142.351 17.333 142.351 17.869C142.351 18.4054 142.227 18.821 141.979 19.1153C141.731 19.4099 141.414 19.5568 141.027 19.5568C140.64 19.5568 140.323 19.4099 140.075 19.1153C139.827 18.821 139.703 18.4054 139.703 17.869C139.703 17.3326 139.827 16.9149 140.075 16.6152ZM164.833 11.2316V8.38935L162.511 9.81029L160.19 8.38935V11.2316L162.511 12.6529L164.833 11.2316ZM125.745 20.2193L123.529 18.1215C122.884 18.9841 122.125 19.4146 121.253 19.4146C120.519 19.4146 119.929 19.1653 119.482 18.6658C119.036 18.1665 118.813 17.4961 118.813 16.6546C118.813 15.8136 119.036 15.1432 119.482 14.6432C119.929 14.1442 120.519 13.894 121.253 13.894C122.125 13.894 122.884 14.3254 123.529 15.1871L125.745 13.0899C125.23 12.3746 124.575 11.8278 123.781 11.4491C122.988 11.0709 122.086 10.8816 121.074 10.8816C119.973 10.8816 118.981 11.1262 118.098 11.6149C117.216 12.1042 116.524 12.7875 116.023 13.6656C115.523 14.5436 115.272 15.54 115.272 16.6547C115.272 17.7695 115.523 18.7659 116.023 19.6436C116.524 20.5216 117.216 21.205 118.098 21.6943C118.981 22.1831 119.973 22.4275 121.074 22.4275C122.086 22.4275 122.988 22.2379 123.781 21.8597C124.575 21.4811 125.229 20.9346 125.745 20.2195V20.2193ZM40.5859 14.0206H43.6358V22.175H47.0872V14.0206H50.1368V11.1341H40.5859V14.0206ZM163.908 13.5476L161.096 17.4438V13.5476H157.749V22.1752H160.858L163.655 18.2635V22.1752H167.002V13.5476H163.908ZM54.2294 16.1184C54.4574 15.9189 54.7447 15.8187 55.092 15.8187C55.4387 15.8187 55.7265 15.9215 55.9549 16.1266C56.1827 16.3319 56.3313 16.613 56.401 16.9703H53.7828C53.8522 16.6026 54.0011 16.3185 54.2294 16.1184ZM110.824 22.175H113.844L113.814 13.5474H110.66L108.473 17.5695L106.539 13.5474H102.984V22.175H106.004V18.2319L107.67 21.4973H109.083L110.809 18.311L110.824 22.175H110.824ZM128.96 22.1752H132.307V16.3233H134.792V13.5474H126.475V16.3233H128.96V22.1752ZM97.5236 19.1075C97.2754 19.4072 96.9583 19.5572 96.5713 19.5572C96.1845 19.5572 95.867 19.4072 95.6193 19.1075C95.3711 18.808 95.2472 18.3901 95.2472 17.8539C95.2472 17.3174 95.3711 16.902 95.6193 16.6077C95.867 16.3134 96.1842 16.1661 96.5713 16.1661C96.9581 16.1661 97.2754 16.3136 97.5236 16.6077C97.7714 16.902 97.8952 17.3175 97.8952 17.8539C97.8952 18.39 97.7714 18.808 97.5236 19.1075ZM101.302 17.8538C101.302 16.9917 101.101 16.2211 100.7 15.5428C100.298 14.8646 99.7373 14.3361 99.0184 13.9576C98.2993 13.5788 97.4837 13.3901 96.5713 13.3901C95.6687 13.3901 94.8578 13.579 94.1393 13.9576C93.4196 14.3357 92.8571 14.8644 92.4506 15.5428C92.0437 16.2211 91.8407 16.9917 91.8407 17.8538C91.8407 18.7158 92.0437 19.4861 92.4506 20.1643C92.8569 20.8429 93.4196 21.374 94.1393 21.7577C94.8579 22.1417 95.6688 22.3334 96.5713 22.3334C97.4837 22.3334 98.2993 22.1417 99.0184 21.7577C99.7373 21.374 100.298 20.8427 100.7 20.1643C101.101 19.4861 101.302 18.7158 101.302 17.8538ZM56.3795 19.5574C56.1359 19.6518 55.836 19.6996 55.4793 19.6996C55.0628 19.6996 54.7156 19.6125 54.4379 19.4392C54.16 19.2659 53.962 19.0161 53.8429 18.6898H59.4959C59.5257 18.1852 59.5403 17.9068 59.5403 17.8543C59.5403 16.9183 59.3396 16.1141 58.9375 15.441C58.5361 14.7682 57.9951 14.258 57.3159 13.911C56.6364 13.5639 55.8853 13.391 55.0623 13.391C54.1895 13.391 53.4034 13.5799 52.7046 13.9584C52.0052 14.3366 51.4551 14.8653 51.0532 15.5437C50.6518 16.222 50.4508 16.9926 50.4508 17.8546C50.4508 18.7062 50.6541 19.4738 51.0606 20.1571C51.4672 20.841 52.0424 21.3747 52.7861 21.7584C53.5299 22.1424 54.3928 22.3341 55.375 22.3341C56.9519 22.3341 58.1367 21.8716 58.9304 20.9462L57.1751 19.0693C56.8873 19.3007 56.6222 19.4633 56.3795 19.5577V19.5574ZM139.762 21.5918C140.238 22.0862 140.927 22.3334 141.83 22.3334C142.544 22.3334 143.201 22.1522 143.801 21.7891C144.401 21.4264 144.877 20.9056 145.229 20.2277C145.581 19.5491 145.757 18.7634 145.757 17.8694C145.757 16.9757 145.581 16.1872 145.229 15.5035C144.877 14.8202 144.401 14.2968 143.801 13.9339C143.201 13.5711 142.544 13.3901 141.83 13.3901C140.828 13.3901 140.084 13.6787 139.599 14.2576V13.5478H136.4V25.2356H139.762V21.5918ZM79.0735 22.1752H82.7035L78.1512 11.1343H74.6999L70.1478 22.1752H73.7179L74.4171 20.2512H78.3744L79.0734 22.1752H79.0735ZM154.128 13.9577C153.408 13.579 152.592 13.3903 151.68 13.3903C150.778 13.3903 149.967 13.5792 149.248 13.9577C148.528 14.3359 147.966 14.8646 147.559 15.543C147.153 16.2213 146.949 16.9919 146.949 17.8539C146.949 18.716 147.153 19.4863 147.559 20.1645C147.966 20.8431 148.528 21.3742 149.248 21.7578C149.967 22.1418 150.778 22.3336 151.68 22.3336C152.593 22.3336 153.408 22.1418 154.128 21.7578C154.846 21.3742 155.407 20.8429 155.809 20.1645C156.21 19.4863 156.411 18.716 156.411 17.8539C156.411 16.9919 156.21 16.2213 155.809 15.543C155.407 14.8648 154.846 14.3363 154.128 13.9577Z" fill="white"></path><path d="M31.9165 24.508C33.8516 28.1186 34.4358 31.0984 33.2101 32.5908C31.9842 34.0836 29.1203 33.8799 25.4812 32.3438C25.1832 32.2179 24.8801 32.0833 24.5726 31.9396L23.7483 32.5942C24.225 32.8266 24.6922 33.0396 25.1487 33.2324C29.156 34.9239 32.3872 35.0535 33.8926 33.2205C35.398 31.3873 34.8327 28.0113 32.7017 24.0352C31.9286 22.593 30.9482 21.0636 29.7866 19.4957V21.0729C30.6134 22.2559 31.3271 23.4082 31.9165 24.508ZM25.4811 3.5877C29.1201 2.05159 31.984 1.84792 33.2099 3.34066C34.4356 4.83323 33.8516 7.81292 31.9163 11.4235C31.327 12.5229 30.6131 13.6752 29.7863 14.8581V16.4351C30.9479 14.8674 31.9282 13.3381 32.7014 11.8958C34.8325 7.91985 35.3979 4.54388 33.8923 2.71052C32.3869 0.877515 29.1557 1.00727 25.1484 2.69858C24.5693 2.94299 23.9728 3.22004 23.3623 3.52818L24.1805 4.17798C24.6228 3.96325 25.057 3.76643 25.4811 3.5877ZM2.82308 11.4236C0.887644 7.81292 0.303766 4.83323 1.52948 3.34084C2.75536 1.8481 5.61944 2.05176 9.25833 3.58787C9.65641 3.7559 10.0629 3.93973 10.4771 4.13936L11.2966 3.4885C10.714 3.19634 10.1444 2.93298 9.59084 2.69911C5.58351 1.00762 2.35231 0.878042 0.846908 2.71105C-0.658656 4.54423 -0.0931585 7.9202 2.03785 11.8963C2.811 13.3385 3.7913 14.8679 4.95293 16.4356V14.8584C4.12613 13.6754 3.41243 12.5229 2.82308 11.4236ZM17.8979 18.7007L17.8988 35.8551C17.8993 35.9643 17.9869 36.0319 18.0564 35.9768L28.6735 27.5443C28.8018 27.4423 28.8807 27.2558 28.8807 27.0537V19.2041C28.8807 19.0942 28.7929 19.0259 28.723 19.0815L22.4855 24.0363C22.4155 24.0919 22.3275 24.0229 22.3279 23.9128L22.332 22.9382C22.3323 22.8378 22.3717 22.7453 22.4357 22.6945L28.6733 17.7405C28.8017 17.6387 28.8805 17.4518 28.8805 17.2501V9.89701C28.8805 9.78727 28.7927 9.71897 28.7229 9.77445L18.1049 18.207C17.9756 18.3095 17.8966 18.4976 17.8979 18.7007ZM11.6241 12.8706C11.6897 12.9227 11.7709 12.9227 11.8361 12.8706L13.9706 11.1708C14.0405 11.1151 14.1282 11.1834 14.1284 11.2932L14.1294 14.69C14.1294 14.7908 14.1688 14.8841 14.233 14.9351L17.19 17.2835C17.3208 17.3872 17.4826 17.3872 17.6133 17.2835L20.5734 14.9327C20.6377 14.8816 20.6771 14.7885 20.6771 14.6872V11.2942C20.6771 11.1843 20.7653 11.1162 20.8349 11.1719L22.9598 12.8727C23.0253 12.9252 23.1066 12.9252 23.1722 12.873L28.292 8.80194C28.361 8.74681 28.3609 8.61144 28.2918 8.55649L17.6149 0.0770665C17.5495 0.0252717 17.4765 -0.000537872 17.4033 -0.000537872C17.3303 -0.000537872 17.2571 0.0254473 17.1917 0.0770665L6.51314 8.55771C6.44425 8.61267 6.44409 8.74804 6.51314 8.80299L11.6241 12.8706ZM12.6268 23.2892C12.6268 23.3989 12.539 23.4672 12.4692 23.4118L9.94272 21.3988C9.87864 21.3479 9.83922 21.2546 9.83922 21.1539V20.1209C9.83922 20.0551 9.89188 20.0142 9.93378 20.0472L12.5226 22.0953C12.5871 22.1462 12.6265 22.2396 12.6265 22.3407L12.6268 23.2892ZM2.82358 24.5079C3.41292 23.4084 4.12679 22.2561 4.95359 21.0733V19.4961C3.79196 21.0638 2.81166 22.5932 2.03851 24.0356C-0.0926619 28.0115 -0.657993 31.3878 0.84757 33.2208C2.35297 35.0538 5.58417 34.9241 9.5915 33.2327C10.022 33.0508 10.4622 32.8512 10.9106 32.634L10.085 31.9783C9.80594 32.1077 9.53056 32.2297 9.25916 32.3442C5.6201 33.8803 2.75619 34.0839 1.53031 32.5912C0.304594 31.0986 0.888637 28.1186 2.82358 24.5079ZM16.9082 35.8581V18.7007C16.909 18.4977 16.8302 18.3095 16.701 18.207L6.08376 9.77445C6.01388 9.71897 5.92612 9.78727 5.92612 9.89701V27.128C5.92612 27.3299 6.00494 27.5165 6.13327 27.6185L9.68208 30.4371C9.75196 30.4927 9.83972 30.4242 9.83972 30.3145V28.9143C9.83972 28.8484 9.89238 28.8074 9.93444 28.8411L12.5236 30.8974C12.5879 30.9483 12.6273 31.0417 12.6273 31.1429V32.447C12.6273 32.6509 12.7078 32.8389 12.8381 32.9402L16.7514 35.9807C16.8211 36.0349 16.9075 35.9668 16.9082 35.8581Z" fill="white"></path></g><defs><clipPath id="clip0_8166_1123"><rect width="167" height="36" fill="white"></rect></clipPath></defs></svg> 