<svg version="1.1" id="Layer_1" xmlns="http://www.w3.org/2000/svg" xmlns:xlink="http://www.w3.org/1999/xlink" x="0px" y="0px"
	 width="170.079px" height="113.39px" viewBox="0 0 170.079 113.39" enable-background="new 0 0 170.079 113.39"
	 xml:space="preserve">
<polygon fill="#C80A32" points="0,0 0,56.695 55.749,56.695 55.749,113.39 114.33,113.39 114.33,56.695 170.079,56.695 170.079,0 
	"/>
<g>
	<polygon fill="#FFFFFF" points="12.927,21.891 17.334,21.891 17.334,36.686 19.602,36.686 19.602,21.891 24.009,21.891 
		24.009,19.623 12.927,19.623 	"/>
	<path fill="#FFFFFF" d="M155.784,19.623h-8.354c-1.305,0-2.366,1.062-2.366,2.366v14.696h2.268v-5.546h8.453
		c1.305,0,2.366-1.062,2.366-2.366v-6.784C158.15,20.685,157.089,19.623,155.784,19.623z M155.883,28.773
		c0,0.052-0.047,0.099-0.099,0.099h-8.453v-6.882c0-0.052,0.047-0.099,0.099-0.099h8.354c0.051,0,0.099,0.048,0.099,0.099V28.773z"
		/>
	<path fill="#FFFFFF" d="M124.592,34.316V19.607h-2.268v14.708c0,1.305,1.062,2.366,2.366,2.366h7.725v-2.268h-7.725
		C124.637,34.415,124.592,34.369,124.592,34.316z"/>
	<rect x="137.9" y="19.607" fill="#FFFFFF" width="2.268" height="17.078"/>
	<path fill="#FFFFFF" d="M98.735,19.623h-8.353c-1.305,0-2.366,1.062-2.366,2.366v12.327c0,1.305,1.062,2.366,2.366,2.366h8.353
		c1.305,0,2.366-1.062,2.366-2.366V21.989C101.101,20.685,100.04,19.623,98.735,19.623z M98.834,34.316
		c0,0.053-0.046,0.099-0.099,0.099h-8.353c-0.052,0-0.099-0.047-0.099-0.099V21.989c0-0.052,0.047-0.099,0.099-0.099h8.353
		c0.052,0,0.099,0.047,0.099,0.099V34.316z"/>
	<path fill="#FFFFFF" d="M29.385,21.989v12.327c0,1.305,1.062,2.366,2.366,2.366h7.88v-2.268h-7.88
		c-0.052,0-0.099-0.047-0.099-0.099v-5.029h6.637v-2.268h-6.637v-5.03c0-0.052,0.047-0.099,0.099-0.099h7.88v-2.268h-7.88
		C30.446,19.623,29.385,20.685,29.385,21.989z"/>
	<path fill="#FFFFFF" d="M56.11,19.623h-8.349c-1.305,0-2.366,1.062-2.366,2.366v14.696h2.268V30.67h4.558l4.162,6.619l1.92-1.207
		l-3.403-5.412h1.211c1.305,0,2.366-1.062,2.366-2.367v-6.314C58.476,20.685,57.415,19.623,56.11,19.623z M56.209,28.303
		c0,0.052-0.047,0.099-0.099,0.099h-8.448v-6.413c0-0.052,0.047-0.099,0.099-0.099h8.349c0.051,0,0.099,0.048,0.099,0.099V28.303z"
		/>
	<path fill="#FFFFFF" d="M81.188,19.623h-1.104c-0.804,0-1.602,0.542-1.897,1.291l-4.46,11.304h-0.765L68.5,20.913
		c-0.295-0.748-1.093-1.29-1.897-1.29h-1.104c-0.965,0-1.75,0.785-1.75,1.75v15.312h2.268V21.891h0.433l4.46,11.305
		c0.295,0.748,1.076,1.291,1.857,1.291h1.155c0.781,0,1.562-0.543,1.857-1.291l4.46-11.304h0.433v14.795h2.268V21.374
		C82.939,20.408,82.154,19.623,81.188,19.623z"/>
	<path fill="#FFFFFF" d="M106.008,21.989v12.327c0,1.305,1.062,2.366,2.366,2.366h8.458v-2.268h-8.458
		c-0.052,0-0.099-0.047-0.099-0.099V21.989c0-0.052,0.047-0.099,0.099-0.099h8.458v-2.268h-8.458
		C107.069,19.623,106.008,20.685,106.008,21.989z"/>
</g>
</svg>
