<svg width="189" height="38" viewBox="0 0 189 38" fill="none" xmlns="http://www.w3.org/2000/svg">
<path opacity="0.8" d="M0.91 34V27H4.36C5.18667 27 5.78667 27.1733 6.16 27.52C6.54 27.8667 6.73 28.4233 6.73 29.19C6.73 29.9567 6.54333 30.5133 6.17 30.86C5.79667 31.2067 5.19333 31.38 4.36 31.38H1.78V34H0.91ZM4.31 27.82H1.78V30.56H4.31C4.85 30.56 5.24333 30.4533 5.49 30.24C5.73667 30.02 5.86 29.67 5.86 29.19C5.86 28.71 5.73667 28.3633 5.49 28.15C5.24333 27.93 4.85 27.82 4.31 27.82ZM9.64172 34.07C8.94839 34.07 8.43839 33.95 8.11172 33.71C7.78505 33.4633 7.62172 33.0733 7.62172 32.54C7.62172 31.9867 7.80172 31.59 8.16172 31.35C8.52172 31.1033 9.10839 30.98 9.92172 30.98H11.7717V30.91C11.7717 30.3967 11.6417 30.0267 11.3817 29.8C11.1284 29.5667 10.7151 29.45 10.1417 29.45C9.68172 29.45 9.32839 29.5267 9.08172 29.68C8.83505 29.8267 8.66505 30.0633 8.57172 30.39H7.75172C7.85172 29.81 8.09172 29.39 8.47172 29.13C8.85172 28.8633 9.41839 28.73 10.1717 28.73C11.0251 28.73 11.6417 28.9033 12.0217 29.25C12.4084 29.59 12.6017 30.14 12.6017 30.9V34H11.7717V33.23C11.3984 33.79 10.6884 34.07 9.64172 34.07ZM8.45172 32.51C8.45172 32.8033 8.56172 33.0167 8.78172 33.15C9.00839 33.2833 9.35505 33.35 9.82172 33.35C10.4484 33.35 10.9151 33.2367 11.2217 33.01C11.5284 32.7767 11.7117 32.4067 11.7717 31.9V31.61H10.1117C9.53172 31.61 9.10839 31.6833 8.84172 31.83C8.58172 31.97 8.45172 32.1967 8.45172 32.51ZM16.6389 26.59L18.8289 26.43V27.2L16.7189 27.36C16.0789 27.4133 15.6122 27.58 15.3189 27.86C15.0322 28.14 14.8689 28.6233 14.8289 29.31C14.8089 29.61 14.8022 29.8967 14.8089 30.17C14.8756 29.6633 15.0622 29.2967 15.3689 29.07C15.6822 28.8433 16.1422 28.73 16.7489 28.73C17.6489 28.73 18.2989 28.94 18.6989 29.36C19.1056 29.78 19.3089 30.4533 19.3089 31.38C19.3089 32.32 19.1022 33.0033 18.6889 33.43C18.2756 33.8567 17.6122 34.07 16.6989 34.07C16.0589 34.07 15.5456 33.9633 15.1589 33.75C14.7789 33.5367 14.4822 33.1467 14.2689 32.58C14.0622 32.0133 13.9589 31.2367 13.9589 30.25C13.9589 28.9833 14.1522 28.0767 14.5389 27.53C14.9256 26.9833 15.6256 26.67 16.6389 26.59ZM15.3389 29.95C15.0589 30.2433 14.9189 30.7233 14.9189 31.39C14.9189 32.0567 15.0589 32.5433 15.3389 32.85C15.6256 33.15 16.0822 33.3 16.7089 33.3C17.3289 33.3 17.7789 33.15 18.0589 32.85C18.3456 32.5433 18.4889 32.0567 18.4889 31.39C18.4889 30.73 18.3456 30.25 18.0589 29.95C17.7789 29.65 17.3289 29.5 16.7089 29.5C16.0822 29.5 15.6256 29.65 15.3389 29.95ZM20.9545 29.37C21.3745 28.9433 22.0478 28.73 22.9745 28.73C23.9011 28.73 24.5711 28.9433 24.9845 29.37C25.4045 29.79 25.6145 30.4667 25.6145 31.4C25.6145 32.3333 25.4045 33.0133 24.9845 33.44C24.5711 33.86 23.9011 34.07 22.9745 34.07C22.0478 34.07 21.3745 33.86 20.9545 33.44C20.5345 33.0133 20.3245 32.3333 20.3245 31.4C20.3245 30.4667 20.5345 29.79 20.9545 29.37ZM21.1445 31.4C21.1445 32.06 21.2878 32.5433 21.5745 32.85C21.8678 33.15 22.3345 33.3 22.9745 33.3C23.6078 33.3 24.0678 33.15 24.3545 32.85C24.6478 32.5433 24.7945 32.06 24.7945 31.4C24.7945 30.7333 24.6511 30.25 24.3645 29.95C24.0778 29.65 23.6145 29.5 22.9745 29.5C22.3345 29.5 21.8678 29.65 21.5745 29.95C21.2878 30.25 21.1445 30.7333 21.1445 31.4ZM26.2854 29.57V28.8H31.4354V29.57H29.2654V34H28.4454V29.57H26.2854ZM34.2218 34.07C33.5285 34.07 33.0185 33.95 32.6918 33.71C32.3651 33.4633 32.2018 33.0733 32.2018 32.54C32.2018 31.9867 32.3818 31.59 32.7418 31.35C33.1018 31.1033 33.6885 30.98 34.5018 30.98H36.3518V30.91C36.3518 30.3967 36.2218 30.0267 35.9618 29.8C35.7085 29.5667 35.2951 29.45 34.7218 29.45C34.2618 29.45 33.9085 29.5267 33.6618 29.68C33.4151 29.8267 33.2451 30.0633 33.1518 30.39H32.3318C32.4318 29.81 32.6718 29.39 33.0518 29.13C33.4318 28.8633 33.9985 28.73 34.7518 28.73C35.6051 28.73 36.2218 28.9033 36.6018 29.25C36.9885 29.59 37.1818 30.14 37.1818 30.9V34H36.3518V33.23C35.9785 33.79 35.2685 34.07 34.2218 34.07ZM33.0318 32.51C33.0318 32.8033 33.1418 33.0167 33.3618 33.15C33.5885 33.2833 33.9351 33.35 34.4018 33.35C35.0285 33.35 35.4951 33.2367 35.8018 33.01C36.1085 32.7767 36.2918 32.4067 36.3518 31.9V31.61H34.6918C34.1118 31.61 33.6885 31.6833 33.4218 31.83C33.1618 31.97 33.0318 32.1967 33.0318 32.51ZM39.089 33.44C38.6757 33.0133 38.469 32.3333 38.469 31.4C38.469 30.4667 38.6757 29.79 39.089 29.37C39.509 28.9433 40.1823 28.73 41.109 28.73C42.0357 28.73 42.699 28.9433 43.099 29.37C43.5057 29.79 43.709 30.4667 43.709 31.4V31.64H39.309C39.3423 32.2333 39.5023 32.6667 39.789 32.94C40.0823 33.2133 40.5257 33.35 41.119 33.35C41.9723 33.35 42.5157 33.0533 42.749 32.46H43.599C43.459 33.06 43.1757 33.48 42.749 33.72C42.3223 33.9533 41.7757 34.07 41.109 34.07C40.1823 34.07 39.509 33.86 39.089 33.44ZM41.119 29.45C40.5523 29.45 40.1223 29.5733 39.829 29.82C39.5357 30.06 39.3657 30.4567 39.319 31.01H42.889C42.8423 30.4567 42.6757 30.06 42.389 29.82C42.1023 29.5733 41.679 29.45 41.119 29.45ZM45.8588 34H45.0288V28.8H46.3588L48.3788 33.19L50.3888 28.8H51.7188V34H50.8988V29.53L48.8188 34H47.9388L45.8588 29.53V34ZM58.393 34.07C57.4863 34.07 56.8263 33.86 56.413 33.44C56.0063 33.0133 55.803 32.3333 55.803 31.4C55.803 30.4667 56.0063 29.79 56.413 29.37C56.8263 28.9433 57.4863 28.73 58.393 28.73C59.1663 28.73 59.753 28.8833 60.153 29.19C60.5596 29.49 60.813 29.9733 60.913 30.64H60.093C59.9996 30.2467 59.8163 29.96 59.543 29.78C59.2763 29.5933 58.8963 29.5 58.403 29.5C57.7763 29.5 57.323 29.65 57.043 29.95C56.763 30.25 56.623 30.7333 56.623 31.4C56.623 32.06 56.763 32.5433 57.043 32.85C57.3296 33.15 57.783 33.3 58.403 33.3C58.8963 33.3 59.2763 33.21 59.543 33.03C59.8163 32.8433 59.9996 32.5533 60.093 32.16H60.913C60.813 32.8267 60.5596 33.3133 60.153 33.62C59.753 33.92 59.1663 34.07 58.393 34.07ZM64.5402 28.7L67.1802 27H67.7502V34H66.9302V28.09L64.9902 29.37L64.5402 28.7ZM70.1734 27.47C70.6201 27.11 71.3334 26.93 72.3134 26.93C73.2934 26.93 74.0068 27.1033 74.4534 27.45C74.9001 27.79 75.1234 28.3367 75.1234 29.09V31.65C75.1234 32.4967 74.9034 33.1133 74.4634 33.5C74.0301 33.88 73.3268 34.07 72.3534 34.07C71.3801 34.07 70.6734 33.92 70.2334 33.62C69.8001 33.32 69.5834 32.8333 69.5834 32.16H70.4034C70.4034 32.5533 70.5568 32.8433 70.8634 33.03C71.1768 33.21 71.6734 33.3 72.3534 33.3C73.0334 33.3 73.5268 33.1733 73.8334 32.92C74.1468 32.6667 74.3034 32.26 74.3034 31.7V30.63C74.0101 31.1833 73.3434 31.46 72.3034 31.46C71.3234 31.46 70.6101 31.28 70.1634 30.92C69.7234 30.56 69.5034 29.98 69.5034 29.18C69.5034 28.3933 69.7268 27.8233 70.1734 27.47ZM70.3334 29.18C70.3334 29.7 70.4901 30.08 70.8034 30.32C71.1234 30.56 71.6268 30.68 72.3134 30.68C73.0001 30.68 73.5034 30.56 73.8234 30.32C74.1434 30.08 74.3034 29.7 74.3034 29.18C74.3034 28.6667 74.1434 28.2933 73.8234 28.06C73.5034 27.82 73.0001 27.7 72.3134 27.7C71.6268 27.7 71.1234 27.82 70.8034 28.06C70.4901 28.2933 70.3334 28.6667 70.3334 29.18ZM76.3924 32.02H77.2124C77.2124 32.4667 77.3624 32.7933 77.6624 33C77.9691 33.2 78.4458 33.3 79.0924 33.3C79.7991 33.3 80.3158 33.1767 80.6424 32.93C80.9691 32.6833 81.1324 32.2933 81.1324 31.76C81.1324 31.2 80.9524 30.7933 80.5924 30.54C80.2391 30.2867 79.6691 30.16 78.8824 30.16C78.3558 30.16 77.9724 30.2167 77.7324 30.33C77.4991 30.4433 77.3824 30.6233 77.3824 30.87H76.6024V27H81.5224V27.82H77.3824V29.82C77.7158 29.5267 78.3024 29.38 79.1424 29.38C80.1158 29.38 80.8258 29.57 81.2724 29.95C81.7258 30.3233 81.9524 30.92 81.9524 31.74C81.9524 32.5533 81.7258 33.1467 81.2724 33.52C80.8191 33.8867 80.0924 34.07 79.0924 34.07C78.1524 34.07 77.4658 33.91 77.0324 33.59C76.6058 33.2633 76.3924 32.74 76.3924 32.02ZM87.3393 27.77H82.7293V27H88.2793V27.77L84.3893 34H83.4493L87.3393 27.77ZM92.1284 34V28.8H95.9884V29.57H92.9584V34H92.1284ZM97.2826 29.37C97.7026 28.9433 98.3759 28.73 99.3026 28.73C100.229 28.73 100.899 28.9433 101.313 29.37C101.733 29.79 101.943 30.4667 101.943 31.4C101.943 32.3333 101.733 33.0133 101.313 33.44C100.899 33.86 100.229 34.07 99.3026 34.07C98.3759 34.07 97.7026 33.86 97.2826 33.44C96.8626 33.0133 96.6526 32.3333 96.6526 31.4C96.6526 30.4667 96.8626 29.79 97.2826 29.37ZM97.4726 31.4C97.4726 32.06 97.6159 32.5433 97.9026 32.85C98.1959 33.15 98.6626 33.3 99.3026 33.3C99.9359 33.3 100.396 33.15 100.683 32.85C100.976 32.5433 101.123 32.06 101.123 31.4C101.123 30.7333 100.979 30.25 100.693 29.95C100.406 29.65 99.9426 29.5 99.3026 29.5C98.6626 29.5 98.1959 29.65 97.9026 29.95C97.6159 30.25 97.4726 30.7333 97.4726 31.4ZM102.605 35.6V33.22H103.315C103.541 33.08 103.705 32.81 103.805 32.41C103.911 32.01 103.991 31.2467 104.045 30.12L104.105 28.8H108.275V33.22H109.245V35.6H108.425V34H103.435V35.6H102.605ZM104.325 33.22H107.445V29.57H104.885L104.855 30.18C104.781 31.7267 104.605 32.74 104.325 33.22ZM112.21 34.07C111.517 34.07 111.007 33.95 110.68 33.71C110.353 33.4633 110.19 33.0733 110.19 32.54C110.19 31.9867 110.37 31.59 110.73 31.35C111.09 31.1033 111.677 30.98 112.49 30.98H114.34V30.91C114.34 30.3967 114.21 30.0267 113.95 29.8C113.697 29.5667 113.283 29.45 112.71 29.45C112.25 29.45 111.897 29.5267 111.65 29.68C111.403 29.8267 111.233 30.0633 111.14 30.39H110.32C110.42 29.81 110.66 29.39 111.04 29.13C111.42 28.8633 111.987 28.73 112.74 28.73C113.593 28.73 114.21 28.9033 114.59 29.25C114.977 29.59 115.17 30.14 115.17 30.9V34H114.34V33.23C113.967 33.79 113.257 34.07 112.21 34.07ZM111.02 32.51C111.02 32.8033 111.13 33.0167 111.35 33.15C111.577 33.2833 111.923 33.35 112.39 33.35C113.017 33.35 113.483 33.2367 113.79 33.01C114.097 32.7767 114.28 32.4067 114.34 31.9V31.61H112.68C112.1 31.61 111.677 31.6833 111.41 31.83C111.15 31.97 111.02 32.1967 111.02 32.51Z" fill="white"/>
<path d="M16.3959 0.298584V8.42788H4.72512V0.298584H0V20.9793H4.72512V12.8595H16.3959V20.9793H21.1257V0.298584H16.3959Z" fill="white"/>
<path d="M24.6721 20.9793V0.298584H29.3972V14.01L40.6277 0.298584H45.3528V20.9793H40.6277V7.27264L29.3972 20.9793H24.6721Z" fill="white"/>
<path d="M48.8984 20.9793V0.298584H53.6283V14.01L64.854 0.298584H69.5791V20.9793H64.854V7.27264L53.6283 20.9793H48.8984Z" fill="white"/>
<path d="M72.5389 10.6386C72.5389 6.91724 73.3959 4.19958 75.0814 2.51407C76.7669 0.828554 79.4514 0 83.1775 0C89.6781 0 92.9261 2.42411 93.6647 7.97779H88.788C88.1063 5.52527 86.3639 4.43158 83.1728 4.43158C79.0348 4.43158 77.264 6.29227 77.264 10.6339C77.264 14.9755 79.0348 16.8362 83.1728 16.8362C86.3639 16.8362 88.1063 15.7425 88.788 13.2947H93.6647C92.9261 18.8484 89.6781 21.2725 83.1775 21.2725C79.4562 21.2725 76.7669 20.4156 75.0814 18.73C73.3959 17.0445 72.5389 14.3553 72.5389 10.6339" fill="white"/>
<path d="M114.785 4.7349H107.106V20.9793H102.381V4.7349H94.6963V0.298584H114.785V4.7349Z" fill="white"/>
<path d="M117.3 20.9793V0.298584H127.934C133.104 0.298584 135.32 2.42442 135.32 7.391C135.32 12.3576 133.104 14.4834 127.934 14.4834H122.025V20.984H117.3V20.9793ZM122.025 10.0471H127.635C129.676 10.0471 130.59 9.25169 130.59 7.391C130.59 5.53031 129.676 4.73016 127.635 4.73016H122.025V10.0471Z" fill="white"/>
<path d="M181.259 0.298584L175.733 15.6623L170.151 0.298584H162.443V20.9793H167.168V5.38353L173.077 20.9793H178.366L184.275 5.38353V20.9793H189V0.298584H181.259Z" fill="white"/>
<path d="M138.212 20.9793H158.893V0.298584H138.212V20.9793ZM154.168 16.2542H142.942V5.02844H154.168V16.2542Z" fill="#FF552B"/>
</svg>
