<?xml version="1.0" encoding="UTF-8"?> <svg xmlns="http://www.w3.org/2000/svg" width="42" height="49" viewBox="0 0 42 49" fill="none"> <path d="M11.3008 16.8579C22.3722 24.9099 36.3792 41.517 41.9988 48.8141C29.9209 37.7427 22.0367 31.7876 19.6044 30.1939C20.2082 37.8433 14.3203 45.7946 11.3008 48.8141C17.9436 34.9245 14.0686 21.7226 11.3008 16.8579Z" fill="white"></path> <path fill-rule="evenodd" clip-rule="evenodd" d="M29.6204 0C26.4331 0.587121 19.0436 3.23574 13.7681 7.80033C8.53352 12.3295 3.9548 22.1429 7.2259 26.1688C8.32826 27.5256 10.6308 27.6821 13.6714 26.8407C13.8126 27.9795 13.9142 29.1638 13.9665 30.3872C8.52595 32.3897 4.30152 32.9135 1.9914 29.9432C-1.53116 25.414 0.148171 20.0171 2.94821 15.349C5.51404 11.0714 12.5101 2.26461 29.6204 0ZM23.3501 25.8355C29.1389 21.7568 34.4156 15.1674 36.6657 11.8263C31.4398 16.839 25.9426 20.9023 21.0939 23.614C21.8475 24.3432 22.6003 25.0849 23.3501 25.8355Z" fill="white"></path> </svg> 